# Blender v3.0.1 OBJ File: 'SimpleParts.blend'
# www.blender.org
mtllib basic_BORDER.mtl
o basic_Border_glb_Cube.002
v 2.015406 0.000000 0.138561
v -2.015406 0.000000 0.138561
v -2.015406 0.472649 -0.138561
v 2.015406 0.472649 -0.138561
v 2.015406 0.472649 0.138561
v -2.015406 0.472649 0.138561
v 2.015406 0.000000 -0.138561
v -2.015406 0.000000 -0.138561
vt 0.383454 0.001385
vt 0.452015 0.001385
vt 0.452015 0.118319
vt 0.383454 0.118319
vt 0.383454 0.238023
vt 0.383454 0.121089
vt 0.452015 0.121089
vt 0.452015 0.238023
vt 0.001385 0.001385
vt 0.118319 0.001385
vt 0.118319 0.998615
vt 0.001385 0.998615
vt 0.240793 0.001385
vt 0.309354 0.001385
vt 0.309354 0.998615
vt 0.240793 0.998615
vt 0.121089 0.001385
vt 0.238023 0.001385
vt 0.238023 0.998615
vt 0.121089 0.998615
vt 0.380684 0.998615
vt 0.312124 0.998615
vt 0.312124 0.001385
vt 0.380684 0.001385
vn -1.0000 0.0000 0.0000
vn 1.0000 0.0000 0.0000
vn -0.0000 0.0000 -1.0000
vn 0.0000 -1.0000 0.0000
vn 0.0000 0.0000 1.0000
vn 0.0000 1.0000 -0.0000
usemtl Material
s off
f 8/1/1 2/2/1 6/3/1 3/4/1
f 5/5/2 1/6/2 7/7/2 4/8/2
f 4/9/3 7/10/3 8/11/3 3/12/3
f 7/13/4 1/14/4 2/15/4 8/16/4
f 6/17/5 2/18/5 1/19/5 5/20/5
f 5/21/6 4/22/6 3/23/6 6/24/6
