{
	"asset":{
		"generator":"Khronos glTF Blender I/O v3.6.27",
		"version":"2.0"
	},
	"scene":0,
	"scenes":[
		{
			"name":"Scene",
			"nodes":[
				0,
				1,
				2,
				3
			]
		}
	],
	"nodes":[
		{
			"mesh":0,
			"name":"F_mechanic_feet",
			"rotation":[
				0.7071069478988647,
				0,
				0,
				0.7071066498756409
			],
			"scale":[
				0.01899999938905239,
				0.018999997526407242,
				0.018999997526407242
			]
		},
		{
			"mesh":1,
			"name":"F_mechanic_head",
			"rotation":[
				0.70710688829422,
				0,
				0,
				0.7071066498756409
			],
			"scale":[
				0.01899999938905239,
				0.01899999938905239,
				0.01899999938905239
			]
		},
		{
			"mesh":2,
			"name":"F_mechanic_lower",
			"rotation":[
				0.7071069478988647,
				0,
				0,
				0.7071066498756409
			],
			"scale":[
				0.01899999938905239,
				0.018999997526407242,
				0.018999997526407242
			]
		},
		{
			"mesh":3,
			"name":"F_mechanic_upper",
			"rotation":[
				0.7071069478988647,
				0,
				0,
				0.7071066498756409
			],
			"scale":[
				0.01899999938905239,
				0.018999997526407242,
				0.018999997526407242
			]
		}
	],
	"materials":[
		{
			"doubleSided":true,
			"emissiveFactor":[
				0.05000000074505806,
				0.05000000074505806,
				0.05000000074505806
			],
			"emissiveTexture":{
				"index":0
			},
			"name":"mechanic_atlas",
			"pbrMetallicRoughness":{
				"baseColorTexture":{
					"index":1
				},
				"metallicFactor":0
			}
		},
		{
			"emissiveFactor":[
				0.020000000596046452,
				0.022000000208616255,
				0.02500000037252903
			],
			"name":"maniqui",
			"pbrMetallicRoughness":{
				"baseColorFactor":[
					0.4000000059604645,
					0.4399999976158142,
					0.5,
					1
				],
				"metallicFactor":0,
				"roughnessFactor":0.5
			}
		}
	],
	"meshes":[
		{
			"name":"Mesh.014",
			"primitives":[
				{
					"attributes":{
						"COLOR_0":0,
						"POSITION":1,
						"NORMAL":2,
						"TEXCOORD_0":3
					},
					"indices":4,
					"material":0
				}
			]
		},
		{
			"name":"Mesh.019",
			"primitives":[
				{
					"attributes":{
						"POSITION":5,
						"NORMAL":6,
						"TEXCOORD_0":7
					},
					"indices":8,
					"material":1
				}
			]
		},
		{
			"name":"Mesh.018",
			"primitives":[
				{
					"attributes":{
						"POSITION":9,
						"NORMAL":10,
						"TEXCOORD_0":11
					},
					"indices":12,
					"material":0
				}
			]
		},
		{
			"name":"Mesh.020",
			"primitives":[
				{
					"attributes":{
						"POSITION":13,
						"NORMAL":14,
						"TEXCOORD_0":15,
						"TEXCOORD_1":16
					},
					"indices":17,
					"material":0
				},
				{
					"attributes":{
						"POSITION":18,
						"NORMAL":19,
						"TEXCOORD_0":20,
						"TEXCOORD_1":21
					},
					"indices":22,
					"material":1
				}
			]
		}
	],
	"textures":[
		{
			"sampler":0,
			"source":0
		},
		{
			"sampler":0,
			"source":0
		}
	],
	"images":[
		{
			"mimeType":"image/png",
			"name":"mechanic_atlas",
			"uri":"textures/mechanic_atlas.png"
		}
	],
	"accessors":[
		{
			"bufferView":0,
			"componentType":5123,
			"count":755,
			"normalized":true,
			"type":"VEC4"
		},
		{
			"bufferView":1,
			"componentType":5126,
			"count":755,
			"max":[
				35.79518508911133,
				21.245012283325195,
				1.3733443021774292
			],
			"min":[
				-17.80963134765625,
				-7.769975185394287,
				-11.317001342773438
			],
			"type":"VEC3"
		},
		{
			"bufferView":2,
			"componentType":5126,
			"count":755,
			"type":"VEC3"
		},
		{
			"bufferView":3,
			"componentType":5126,
			"count":755,
			"type":"VEC2"
		},
		{
			"bufferView":4,
			"componentType":5123,
			"count":2124,
			"type":"SCALAR"
		},
		{
			"bufferView":5,
			"componentType":5126,
			"count":349,
			"max":[
				10.752564430236816,
				18.743305206298828,
				-145.57904052734375
			],
			"min":[
				-17.092153549194336,
				-10.664302825927734,
				-190.15855407714844
			],
			"type":"VEC3"
		},
		{
			"bufferView":6,
			"componentType":5126,
			"count":349,
			"type":"VEC3"
		},
		{
			"bufferView":7,
			"componentType":5126,
			"count":349,
			"type":"VEC2"
		},
		{
			"bufferView":8,
			"componentType":5123,
			"count":1680,
			"type":"SCALAR"
		},
		{
			"bufferView":9,
			"componentType":5126,
			"count":1388,
			"max":[
				28.16347312927246,
				17.08452796936035,
				-10.439419746398926
			],
			"min":[
				-24.252931594848633,
				-15.152520179748535,
				-104.89898681640625
			],
			"type":"VEC3"
		},
		{
			"bufferView":10,
			"componentType":5126,
			"count":1388,
			"type":"VEC3"
		},
		{
			"bufferView":11,
			"componentType":5126,
			"count":1388,
			"type":"VEC2"
		},
		{
			"bufferView":12,
			"componentType":5123,
			"count":4194,
			"type":"SCALAR"
		},
		{
			"bufferView":13,
			"componentType":5126,
			"count":941,
			"max":[
				36.62145233154297,
				20.248615264892578,
				-102.2159423828125
			],
			"min":[
				-45.84735107421875,
				-16.521406173706055,
				-158.3740234375
			],
			"type":"VEC3"
		},
		{
			"bufferView":14,
			"componentType":5126,
			"count":941,
			"type":"VEC3"
		},
		{
			"bufferView":15,
			"componentType":5126,
			"count":941,
			"type":"VEC2"
		},
		{
			"bufferView":16,
			"componentType":5126,
			"count":941,
			"type":"VEC2"
		},
		{
			"bufferView":17,
			"componentType":5123,
			"count":2841,
			"type":"SCALAR"
		},
		{
			"bufferView":18,
			"componentType":5126,
			"count":424,
			"max":[
				34.02495574951172,
				13.685066223144531,
				-92.5540771484375
			],
			"min":[
				-43.697811126708984,
				-13.89056396484375,
				-132.3037567138672
			],
			"type":"VEC3"
		},
		{
			"bufferView":19,
			"componentType":5126,
			"count":424,
			"type":"VEC3"
		},
		{
			"bufferView":20,
			"componentType":5126,
			"count":424,
			"type":"VEC2"
		},
		{
			"bufferView":21,
			"componentType":5126,
			"count":424,
			"type":"VEC2"
		},
		{
			"bufferView":22,
			"componentType":5123,
			"count":1812,
			"type":"SCALAR"
		}
	],
	"bufferViews":[
		{
			"buffer":0,
			"byteLength":6040,
			"byteOffset":0,
			"target":34962
		},
		{
			"buffer":0,
			"byteLength":9060,
			"byteOffset":6040,
			"target":34962
		},
		{
			"buffer":0,
			"byteLength":9060,
			"byteOffset":15100,
			"target":34962
		},
		{
			"buffer":0,
			"byteLength":6040,
			"byteOffset":24160,
			"target":34962
		},
		{
			"buffer":0,
			"byteLength":4248,
			"byteOffset":30200,
			"target":34963
		},
		{
			"buffer":0,
			"byteLength":4188,
			"byteOffset":34448,
			"target":34962
		},
		{
			"buffer":0,
			"byteLength":4188,
			"byteOffset":38636,
			"target":34962
		},
		{
			"buffer":0,
			"byteLength":2792,
			"byteOffset":42824,
			"target":34962
		},
		{
			"buffer":0,
			"byteLength":3360,
			"byteOffset":45616,
			"target":34963
		},
		{
			"buffer":0,
			"byteLength":16656,
			"byteOffset":48976,
			"target":34962
		},
		{
			"buffer":0,
			"byteLength":16656,
			"byteOffset":65632,
			"target":34962
		},
		{
			"buffer":0,
			"byteLength":11104,
			"byteOffset":82288,
			"target":34962
		},
		{
			"buffer":0,
			"byteLength":8388,
			"byteOffset":93392,
			"target":34963
		},
		{
			"buffer":0,
			"byteLength":11292,
			"byteOffset":101780,
			"target":34962
		},
		{
			"buffer":0,
			"byteLength":11292,
			"byteOffset":113072,
			"target":34962
		},
		{
			"buffer":0,
			"byteLength":7528,
			"byteOffset":124364,
			"target":34962
		},
		{
			"buffer":0,
			"byteLength":7528,
			"byteOffset":131892,
			"target":34962
		},
		{
			"buffer":0,
			"byteLength":5682,
			"byteOffset":139420,
			"target":34963
		},
		{
			"buffer":0,
			"byteLength":5088,
			"byteOffset":145104,
			"target":34962
		},
		{
			"buffer":0,
			"byteLength":5088,
			"byteOffset":150192,
			"target":34962
		},
		{
			"buffer":0,
			"byteLength":3392,
			"byteOffset":155280,
			"target":34962
		},
		{
			"buffer":0,
			"byteLength":3392,
			"byteOffset":158672,
			"target":34962
		},
		{
			"buffer":0,
			"byteLength":3624,
			"byteOffset":162064,
			"target":34963
		}
	],
	"samplers":[
		{
			"magFilter":9729,
			"minFilter":9987
		}
	],
	"buffers":[
		{
			"byteLength":165688,
			"uri":"F_mechanic_pose.bin"
		}
	]
}
