{
	"asset":{
		"generator":"Khronos glTF Blender I/O v3.6.27",
		"version":"2.0"
	},
	"scene":0,
	"scenes":[
		{
			"name":"Scene",
			"nodes":[
				0,
				1,
				2,
				3
			]
		}
	],
	"nodes":[
		{
			"mesh":0,
			"name":"F_politician_feet",
			"rotation":[
				0.7071069478988647,
				0,
				0,
				0.7071066498756409
			],
			"scale":[
				0.01899999938905239,
				0.018999997526407242,
				0.018999997526407242
			]
		},
		{
			"mesh":1,
			"name":"F_politician_hat",
			"rotation":[
				0.7071069478988647,
				0,
				0,
				0.7071066498756409
			],
			"scale":[
				0.01899999938905239,
				0.018999997526407242,
				0.018999997526407242
			]
		},
		{
			"mesh":2,
			"name":"F_politician_lower",
			"rotation":[
				0.7071069478988647,
				0,
				0,
				0.7071066498756409
			],
			"scale":[
				0.01899999938905239,
				0.018999997526407242,
				0.018999997526407242
			]
		},
		{
			"mesh":3,
			"name":"F_politician_upper",
			"rotation":[
				0.7071069478988647,
				0,
				0,
				0.7071066498756409
			],
			"scale":[
				0.01899999938905239,
				0.018999997526407242,
				0.018999997526407242
			]
		}
	],
	"materials":[
		{
			"doubleSided":true,
			"emissiveFactor":[
				0.05000000074505806,
				0.05000000074505806,
				0.05000000074505806
			],
			"emissiveTexture":{
				"index":0
			},
			"name":"politician_atlas",
			"pbrMetallicRoughness":{
				"baseColorTexture":{
					"index":1
				},
				"metallicFactor":0
			}
		},
		{
			"emissiveFactor":[
				0.020000000596046452,
				0.022000000208616255,
				0.02500000037252903
			],
			"name":"maniqui",
			"pbrMetallicRoughness":{
				"baseColorFactor":[
					0.4000000059604645,
					0.4399999976158142,
					0.5,
					1
				],
				"metallicFactor":0,
				"roughnessFactor":0.5
			}
		},
		{
			"alphaCutoff":0.5,
			"alphaMode":"MASK",
			"doubleSided":true,
			"emissiveFactor":[
				0.05000000074505806,
				0.05000000074505806,
				0.05000000074505806
			],
			"emissiveTexture":{
				"index":2
			},
			"name":"politician_atlas_alpha",
			"pbrMetallicRoughness":{
				"baseColorTexture":{
					"index":3
				},
				"metallicFactor":0
			}
		}
	],
	"meshes":[
		{
			"name":"Mesh.031",
			"primitives":[
				{
					"attributes":{
						"COLOR_0":0,
						"POSITION":1,
						"NORMAL":2,
						"TEXCOORD_0":3
					},
					"indices":4,
					"material":0
				}
			]
		},
		{
			"name":"Mesh.032",
			"primitives":[
				{
					"attributes":{
						"POSITION":5,
						"NORMAL":6,
						"TEXCOORD_0":7,
						"TEXCOORD_1":8
					},
					"indices":9,
					"material":0
				},
				{
					"attributes":{
						"POSITION":10,
						"NORMAL":11,
						"TEXCOORD_0":12,
						"TEXCOORD_1":13
					},
					"indices":14,
					"material":1
				}
			]
		},
		{
			"name":"Mesh.033",
			"primitives":[
				{
					"attributes":{
						"POSITION":15,
						"NORMAL":16,
						"TEXCOORD_0":17
					},
					"indices":18,
					"material":0
				},
				{
					"attributes":{
						"POSITION":19,
						"NORMAL":20,
						"TEXCOORD_0":21
					},
					"indices":22,
					"material":2
				}
			]
		},
		{
			"name":"Plane.005",
			"primitives":[
				{
					"attributes":{
						"POSITION":23,
						"NORMAL":24,
						"TEXCOORD_0":25
					},
					"indices":26,
					"material":0
				}
			]
		}
	],
	"textures":[
		{
			"sampler":0,
			"source":0
		},
		{
			"sampler":0,
			"source":0
		},
		{
			"sampler":0,
			"source":0
		},
		{
			"sampler":0,
			"source":0
		}
	],
	"images":[
		{
			"mimeType":"image/png",
			"name":"politician_atlas",
			"uri":"textures/politician_atlas.png"
		}
	],
	"accessors":[
		{
			"bufferView":0,
			"componentType":5123,
			"count":526,
			"normalized":true,
			"type":"VEC4"
		},
		{
			"bufferView":1,
			"componentType":5126,
			"count":526,
			"max":[
				34.79364013671875,
				21.05133056640625,
				1.0592011213302612
			],
			"min":[
				-17.17424964904785,
				-8.591217994689941,
				-15.197012901306152
			],
			"type":"VEC3"
		},
		{
			"bufferView":2,
			"componentType":5126,
			"count":526,
			"type":"VEC3"
		},
		{
			"bufferView":3,
			"componentType":5126,
			"count":526,
			"type":"VEC2"
		},
		{
			"bufferView":4,
			"componentType":5123,
			"count":1524,
			"type":"SCALAR"
		},
		{
			"bufferView":5,
			"componentType":5126,
			"count":300,
			"max":[
				19.078060150146484,
				30.72001075744629,
				-163.72735595703125
			],
			"min":[
				-25.35592269897461,
				-19.590282440185547,
				-201.12893676757812
			],
			"type":"VEC3"
		},
		{
			"bufferView":6,
			"componentType":5126,
			"count":300,
			"type":"VEC3"
		},
		{
			"bufferView":7,
			"componentType":5126,
			"count":300,
			"type":"VEC2"
		},
		{
			"bufferView":8,
			"componentType":5126,
			"count":300,
			"type":"VEC2"
		},
		{
			"bufferView":9,
			"componentType":5123,
			"count":762,
			"type":"SCALAR"
		},
		{
			"bufferView":10,
			"componentType":5126,
			"count":689,
			"max":[
				11.361812591552734,
				20.866342544555664,
				-145.5790557861328
			],
			"min":[
				-18.247587203979492,
				-11.76559829711914,
				-190.1585693359375
			],
			"type":"VEC3"
		},
		{
			"bufferView":11,
			"componentType":5126,
			"count":689,
			"type":"VEC3"
		},
		{
			"bufferView":12,
			"componentType":5126,
			"count":689,
			"type":"VEC2"
		},
		{
			"bufferView":13,
			"componentType":5126,
			"count":689,
			"type":"VEC2"
		},
		{
			"bufferView":14,
			"componentType":5123,
			"count":2934,
			"type":"SCALAR"
		},
		{
			"bufferView":15,
			"componentType":5126,
			"count":342,
			"max":[
				27.910520553588867,
				17.51973533630371,
				-9.105623245239258
			],
			"min":[
				-21.55360984802246,
				-15.090645790100098,
				-105.10413360595703
			],
			"type":"VEC3"
		},
		{
			"bufferView":16,
			"componentType":5126,
			"count":342,
			"type":"VEC3"
		},
		{
			"bufferView":17,
			"componentType":5126,
			"count":342,
			"type":"VEC2"
		},
		{
			"bufferView":18,
			"componentType":5123,
			"count":1191,
			"type":"SCALAR"
		},
		{
			"bufferView":19,
			"componentType":5126,
			"count":220,
			"max":[
				24.938274383544922,
				23.112268447875977,
				-89.05101013183594
			],
			"min":[
				-20.75883674621582,
				-5.450889587402344,
				-106.86668395996094
			],
			"type":"VEC3"
		},
		{
			"bufferView":20,
			"componentType":5126,
			"count":220,
			"type":"VEC3"
		},
		{
			"bufferView":21,
			"componentType":5126,
			"count":220,
			"type":"VEC2"
		},
		{
			"bufferView":22,
			"componentType":5123,
			"count":600,
			"type":"SCALAR"
		},
		{
			"bufferView":23,
			"componentType":5126,
			"count":1552,
			"max":[
				35.9259033203125,
				21.323936462402344,
				-92.4306640625
			],
			"min":[
				-46.938655853271484,
				-16.078420639038086,
				-159.54786682128906
			],
			"type":"VEC3"
		},
		{
			"bufferView":24,
			"componentType":5126,
			"count":1552,
			"type":"VEC3"
		},
		{
			"bufferView":25,
			"componentType":5126,
			"count":1552,
			"type":"VEC2"
		},
		{
			"bufferView":26,
			"componentType":5123,
			"count":4836,
			"type":"SCALAR"
		}
	],
	"bufferViews":[
		{
			"buffer":0,
			"byteLength":4208,
			"byteOffset":0,
			"target":34962
		},
		{
			"buffer":0,
			"byteLength":6312,
			"byteOffset":4208,
			"target":34962
		},
		{
			"buffer":0,
			"byteLength":6312,
			"byteOffset":10520,
			"target":34962
		},
		{
			"buffer":0,
			"byteLength":4208,
			"byteOffset":16832,
			"target":34962
		},
		{
			"buffer":0,
			"byteLength":3048,
			"byteOffset":21040,
			"target":34963
		},
		{
			"buffer":0,
			"byteLength":3600,
			"byteOffset":24088,
			"target":34962
		},
		{
			"buffer":0,
			"byteLength":3600,
			"byteOffset":27688,
			"target":34962
		},
		{
			"buffer":0,
			"byteLength":2400,
			"byteOffset":31288,
			"target":34962
		},
		{
			"buffer":0,
			"byteLength":2400,
			"byteOffset":33688,
			"target":34962
		},
		{
			"buffer":0,
			"byteLength":1524,
			"byteOffset":36088,
			"target":34963
		},
		{
			"buffer":0,
			"byteLength":8268,
			"byteOffset":37612,
			"target":34962
		},
		{
			"buffer":0,
			"byteLength":8268,
			"byteOffset":45880,
			"target":34962
		},
		{
			"buffer":0,
			"byteLength":5512,
			"byteOffset":54148,
			"target":34962
		},
		{
			"buffer":0,
			"byteLength":5512,
			"byteOffset":59660,
			"target":34962
		},
		{
			"buffer":0,
			"byteLength":5868,
			"byteOffset":65172,
			"target":34963
		},
		{
			"buffer":0,
			"byteLength":4104,
			"byteOffset":71040,
			"target":34962
		},
		{
			"buffer":0,
			"byteLength":4104,
			"byteOffset":75144,
			"target":34962
		},
		{
			"buffer":0,
			"byteLength":2736,
			"byteOffset":79248,
			"target":34962
		},
		{
			"buffer":0,
			"byteLength":2382,
			"byteOffset":81984,
			"target":34963
		},
		{
			"buffer":0,
			"byteLength":2640,
			"byteOffset":84368,
			"target":34962
		},
		{
			"buffer":0,
			"byteLength":2640,
			"byteOffset":87008,
			"target":34962
		},
		{
			"buffer":0,
			"byteLength":1760,
			"byteOffset":89648,
			"target":34962
		},
		{
			"buffer":0,
			"byteLength":1200,
			"byteOffset":91408,
			"target":34963
		},
		{
			"buffer":0,
			"byteLength":18624,
			"byteOffset":92608,
			"target":34962
		},
		{
			"buffer":0,
			"byteLength":18624,
			"byteOffset":111232,
			"target":34962
		},
		{
			"buffer":0,
			"byteLength":12416,
			"byteOffset":129856,
			"target":34962
		},
		{
			"buffer":0,
			"byteLength":9672,
			"byteOffset":142272,
			"target":34963
		}
	],
	"samplers":[
		{
			"magFilter":9729,
			"minFilter":9987
		}
	],
	"buffers":[
		{
			"byteLength":151944,
			"uri":"F_politician_pose.bin"
		}
	]
}
