{
	"asset":{
		"generator":"Khronos glTF Blender I/O v3.6.27",
		"version":"2.0"
	},
	"scene":0,
	"scenes":[
		{
			"name":"Scene",
			"nodes":[
				0,
				1,
				2,
				3
			]
		}
	],
	"nodes":[
		{
			"mesh":0,
			"name":"F_police_feet",
			"rotation":[
				0.7071069478988647,
				0,
				0,
				0.7071066498756409
			],
			"scale":[
				0.01899999938905239,
				0.018999997526407242,
				0.018999997526407242
			]
		},
		{
			"mesh":1,
			"name":"F_police_hat",
			"rotation":[
				-0.7071066498756409,
				0,
				0,
				0.7071069478988647
			],
			"scale":[
				-0.01899999938905239,
				-0.018999997526407242,
				-0.018999997526407242
			]
		},
		{
			"mesh":2,
			"name":"F_police_lower",
			"rotation":[
				0.7071069478988647,
				0,
				0,
				0.7071066498756409
			],
			"scale":[
				0.01899999938905239,
				0.018999997526407242,
				0.018999997526407242
			]
		},
		{
			"mesh":3,
			"name":"F_police_upper",
			"rotation":[
				0.7071069478988647,
				0,
				0,
				0.7071066498756409
			],
			"scale":[
				0.01899999938905239,
				0.018999997526407242,
				0.018999997526407242
			]
		}
	],
	"materials":[
		{
			"doubleSided":true,
			"emissiveFactor":[
				0.05000000074505806,
				0.05000000074505806,
				0.05000000074505806
			],
			"emissiveTexture":{
				"index":0
			},
			"name":"police_atlas",
			"pbrMetallicRoughness":{
				"baseColorTexture":{
					"index":1
				},
				"metallicFactor":0
			}
		},
		{
			"emissiveFactor":[
				0.020000000596046452,
				0.022000000208616255,
				0.02500000037252903
			],
			"name":"maniqui",
			"pbrMetallicRoughness":{
				"baseColorFactor":[
					0.4000000059604645,
					0.4399999976158142,
					0.5,
					1
				],
				"metallicFactor":0,
				"roughnessFactor":0.5
			}
		}
	],
	"meshes":[
		{
			"name":"Mesh.023",
			"primitives":[
				{
					"attributes":{
						"COLOR_0":0,
						"POSITION":1,
						"NORMAL":2,
						"TEXCOORD_0":3
					},
					"indices":4,
					"material":0
				}
			]
		},
		{
			"name":"Mesh.024",
			"primitives":[
				{
					"attributes":{
						"POSITION":5,
						"NORMAL":6,
						"TEXCOORD_0":7,
						"TEXCOORD_1":8
					},
					"indices":9,
					"material":0
				},
				{
					"attributes":{
						"POSITION":10,
						"NORMAL":11,
						"TEXCOORD_0":12,
						"TEXCOORD_1":13
					},
					"indices":14,
					"material":1
				}
			]
		},
		{
			"name":"Sphere.005",
			"primitives":[
				{
					"attributes":{
						"POSITION":15,
						"NORMAL":16,
						"TEXCOORD_0":17,
						"TEXCOORD_1":18
					},
					"indices":19,
					"material":0
				}
			]
		},
		{
			"name":"Mesh.027",
			"primitives":[
				{
					"attributes":{
						"POSITION":20,
						"NORMAL":21,
						"TEXCOORD_0":22,
						"TEXCOORD_1":23
					},
					"indices":24,
					"material":0
				},
				{
					"attributes":{
						"POSITION":25,
						"NORMAL":26,
						"TEXCOORD_0":27,
						"TEXCOORD_1":28
					},
					"indices":29,
					"material":1
				}
			]
		}
	],
	"textures":[
		{
			"sampler":0,
			"source":0
		},
		{
			"sampler":0,
			"source":0
		}
	],
	"images":[
		{
			"mimeType":"image/png",
			"name":"police_atlas",
			"uri":"textures/police_atlas.png"
		}
	],
	"accessors":[
		{
			"bufferView":0,
			"componentType":5123,
			"count":1342,
			"normalized":true,
			"type":"VEC4"
		},
		{
			"bufferView":1,
			"componentType":5126,
			"count":1342,
			"max":[
				34.70106506347656,
				21.381837844848633,
				1.198263168334961
			],
			"min":[
				-17.401212692260742,
				-8.242964744567871,
				-14.869987487792969
			],
			"type":"VEC3"
		},
		{
			"bufferView":2,
			"componentType":5126,
			"count":1342,
			"type":"VEC3"
		},
		{
			"bufferView":3,
			"componentType":5126,
			"count":1342,
			"type":"VEC2"
		},
		{
			"bufferView":4,
			"componentType":5123,
			"count":2460,
			"type":"SCALAR"
		},
		{
			"bufferView":5,
			"componentType":5126,
			"count":850,
			"max":[
				19.063322067260742,
				22.414480209350586,
				-159.2455291748047
			],
			"min":[
				-15.920187950134277,
				-15.072534561157227,
				-191.26522827148438
			],
			"type":"VEC3"
		},
		{
			"bufferView":6,
			"componentType":5126,
			"count":850,
			"type":"VEC3"
		},
		{
			"bufferView":7,
			"componentType":5126,
			"count":850,
			"type":"VEC2"
		},
		{
			"bufferView":8,
			"componentType":5126,
			"count":850,
			"type":"VEC2"
		},
		{
			"bufferView":9,
			"componentType":5123,
			"count":2358,
			"type":"SCALAR"
		},
		{
			"bufferView":10,
			"componentType":5126,
			"count":358,
			"max":[
				17.09214973449707,
				18.743284225463867,
				-145.5790557861328
			],
			"min":[
				-10.752564430236816,
				-10.664329528808594,
				-190.1585693359375
			],
			"type":"VEC3"
		},
		{
			"bufferView":11,
			"componentType":5126,
			"count":358,
			"type":"VEC3"
		},
		{
			"bufferView":12,
			"componentType":5126,
			"count":358,
			"type":"VEC2"
		},
		{
			"bufferView":13,
			"componentType":5126,
			"count":358,
			"type":"VEC2"
		},
		{
			"bufferView":14,
			"componentType":5123,
			"count":1680,
			"type":"SCALAR"
		},
		{
			"bufferView":15,
			"componentType":5126,
			"count":1487,
			"max":[
				28.83958625793457,
				18.335351943969727,
				-10.43783950805664
			],
			"min":[
				-26.55428123474121,
				-20.16921615600586,
				-105.88507080078125
			],
			"type":"VEC3"
		},
		{
			"bufferView":16,
			"componentType":5126,
			"count":1487,
			"type":"VEC3"
		},
		{
			"bufferView":17,
			"componentType":5126,
			"count":1487,
			"type":"VEC2"
		},
		{
			"bufferView":18,
			"componentType":5126,
			"count":1487,
			"type":"VEC2"
		},
		{
			"bufferView":19,
			"componentType":5123,
			"count":3900,
			"type":"SCALAR"
		},
		{
			"bufferView":20,
			"componentType":5126,
			"count":1173,
			"max":[
				35.51979064941406,
				21.26841926574707,
				-102.43582153320312
			],
			"min":[
				-45.01165771484375,
				-17.00657844543457,
				-158.44998168945312
			],
			"type":"VEC3"
		},
		{
			"bufferView":21,
			"componentType":5126,
			"count":1173,
			"type":"VEC3"
		},
		{
			"bufferView":22,
			"componentType":5126,
			"count":1173,
			"type":"VEC2"
		},
		{
			"bufferView":23,
			"componentType":5126,
			"count":1173,
			"type":"VEC2"
		},
		{
			"bufferView":24,
			"componentType":5123,
			"count":3570,
			"type":"SCALAR"
		},
		{
			"bufferView":25,
			"componentType":5126,
			"count":552,
			"max":[
				26.877553939819336,
				13.685066223144531,
				-92.5540771484375
			],
			"min":[
				-31.1101016998291,
				-3.644547462463379,
				-117.81204223632812
			],
			"type":"VEC3"
		},
		{
			"bufferView":26,
			"componentType":5126,
			"count":552,
			"type":"VEC3"
		},
		{
			"bufferView":27,
			"componentType":5126,
			"count":552,
			"type":"VEC2"
		},
		{
			"bufferView":28,
			"componentType":5126,
			"count":552,
			"type":"VEC2"
		},
		{
			"bufferView":29,
			"componentType":5123,
			"count":1668,
			"type":"SCALAR"
		}
	],
	"bufferViews":[
		{
			"buffer":0,
			"byteLength":10736,
			"byteOffset":0,
			"target":34962
		},
		{
			"buffer":0,
			"byteLength":16104,
			"byteOffset":10736,
			"target":34962
		},
		{
			"buffer":0,
			"byteLength":16104,
			"byteOffset":26840,
			"target":34962
		},
		{
			"buffer":0,
			"byteLength":10736,
			"byteOffset":42944,
			"target":34962
		},
		{
			"buffer":0,
			"byteLength":4920,
			"byteOffset":53680,
			"target":34963
		},
		{
			"buffer":0,
			"byteLength":10200,
			"byteOffset":58600,
			"target":34962
		},
		{
			"buffer":0,
			"byteLength":10200,
			"byteOffset":68800,
			"target":34962
		},
		{
			"buffer":0,
			"byteLength":6800,
			"byteOffset":79000,
			"target":34962
		},
		{
			"buffer":0,
			"byteLength":6800,
			"byteOffset":85800,
			"target":34962
		},
		{
			"buffer":0,
			"byteLength":4716,
			"byteOffset":92600,
			"target":34963
		},
		{
			"buffer":0,
			"byteLength":4296,
			"byteOffset":97316,
			"target":34962
		},
		{
			"buffer":0,
			"byteLength":4296,
			"byteOffset":101612,
			"target":34962
		},
		{
			"buffer":0,
			"byteLength":2864,
			"byteOffset":105908,
			"target":34962
		},
		{
			"buffer":0,
			"byteLength":2864,
			"byteOffset":108772,
			"target":34962
		},
		{
			"buffer":0,
			"byteLength":3360,
			"byteOffset":111636,
			"target":34963
		},
		{
			"buffer":0,
			"byteLength":17844,
			"byteOffset":114996,
			"target":34962
		},
		{
			"buffer":0,
			"byteLength":17844,
			"byteOffset":132840,
			"target":34962
		},
		{
			"buffer":0,
			"byteLength":11896,
			"byteOffset":150684,
			"target":34962
		},
		{
			"buffer":0,
			"byteLength":11896,
			"byteOffset":162580,
			"target":34962
		},
		{
			"buffer":0,
			"byteLength":7800,
			"byteOffset":174476,
			"target":34963
		},
		{
			"buffer":0,
			"byteLength":14076,
			"byteOffset":182276,
			"target":34962
		},
		{
			"buffer":0,
			"byteLength":14076,
			"byteOffset":196352,
			"target":34962
		},
		{
			"buffer":0,
			"byteLength":9384,
			"byteOffset":210428,
			"target":34962
		},
		{
			"buffer":0,
			"byteLength":9384,
			"byteOffset":219812,
			"target":34962
		},
		{
			"buffer":0,
			"byteLength":7140,
			"byteOffset":229196,
			"target":34963
		},
		{
			"buffer":0,
			"byteLength":6624,
			"byteOffset":236336,
			"target":34962
		},
		{
			"buffer":0,
			"byteLength":6624,
			"byteOffset":242960,
			"target":34962
		},
		{
			"buffer":0,
			"byteLength":4416,
			"byteOffset":249584,
			"target":34962
		},
		{
			"buffer":0,
			"byteLength":4416,
			"byteOffset":254000,
			"target":34962
		},
		{
			"buffer":0,
			"byteLength":3336,
			"byteOffset":258416,
			"target":34963
		}
	],
	"samplers":[
		{
			"magFilter":9729,
			"minFilter":9987
		}
	],
	"buffers":[
		{
			"byteLength":261752,
			"uri":"F_police_pose.bin"
		}
	]
}
