{
	"asset":{
		"generator":"Khronos glTF Blender I/O v3.6.27",
		"version":"2.0"
	},
	"extensionsUsed":[
		"KHR_materials_specular",
		"KHR_materials_ior"
	],
	"scene":0,
	"scenes":[
		{
			"name":"Scene",
			"nodes":[
				0,
				1,
				2,
				3
			]
		}
	],
	"nodes":[
		{
			"mesh":0,
			"name":"F_punk_feet",
			"rotation":[
				0.70710688829422,
				0,
				0,
				0.7071066498756409
			],
			"scale":[
				0.0189999807626009,
				0.0189999807626009,
				0.0189999807626009
			]
		},
		{
			"mesh":1,
			"name":"F_punk_hair",
			"rotation":[
				0.70710688829422,
				0,
				0,
				0.7071066498756409
			],
			"scale":[
				0.0189999807626009,
				0.0189999807626009,
				0.0189999807626009
			]
		},
		{
			"mesh":2,
			"name":"F_punk_lowerbody",
			"rotation":[
				0.70710688829422,
				0,
				0,
				0.7071066498756409
			],
			"scale":[
				0.0189999807626009,
				0.0189999807626009,
				0.0189999807626009
			]
		},
		{
			"mesh":3,
			"name":"F_punk_upperbody",
			"rotation":[
				0.70710688829422,
				0,
				0,
				0.7071066498756409
			],
			"scale":[
				0.0189999807626009,
				0.0189999807626009,
				0.0189999807626009
			]
		}
	],
	"materials":[
		{
			"doubleSided":true,
			"emissiveFactor":[
				0.05000000074505806,
				0.05000000074505806,
				0.05000000074505806
			],
			"emissiveTexture":{
				"index":0
			},
			"name":"punk_atlas",
			"pbrMetallicRoughness":{
				"baseColorTexture":{
					"index":1
				},
				"metallicFactor":0
			}
		},
		{
			"alphaCutoff":0.5,
			"alphaMode":"MASK",
			"doubleSided":true,
			"emissiveFactor":[
				0.05000000074505806,
				0.014365771626916102,
				0
			],
			"emissiveTexture":{
				"index":2
			},
			"name":"punk_atlas_colorized_alpha",
			"pbrMetallicRoughness":{
				"baseColorFactor":[
					1,
					0.2873154282569885,
					0,
					1
				],
				"baseColorTexture":{
					"index":3
				},
				"metallicFactor":0
			}
		},
		{
			"alphaCutoff":0.5095056891441345,
			"alphaMode":"MASK",
			"doubleSided":true,
			"emissiveFactor":[
				0.05000000074505806,
				0.05000000074505806,
				0.05000000074505806
			],
			"emissiveTexture":{
				"index":4
			},
			"extensions":{
				"KHR_materials_specular":{
					"specularColorFactor":[
						0.0,
						0.0,
						0.0
					]
				},
				"KHR_materials_ior":{
					"ior":1.4500000476837158
				}
			},
			"name":"punk_atlas_alpha",
			"pbrMetallicRoughness":{
				"baseColorTexture":{
					"index":5
				},
				"metallicFactor":0
			}
		},
		{
			"emissiveFactor":[
				0.020000000596046452,
				0.022000000208616255,
				0.02500000037252903
			],
			"name":"maniqui",
			"pbrMetallicRoughness":{
				"baseColorFactor":[
					0.4000000059604645,
					0.4399999976158142,
					0.5,
					1
				],
				"metallicFactor":0,
				"roughnessFactor":0.5
			}
		}
	],
	"meshes":[
		{
			"name":"Plane.004",
			"primitives":[
				{
					"attributes":{
						"POSITION":0,
						"NORMAL":1,
						"TEXCOORD_0":2
					},
					"indices":3,
					"material":0
				}
			]
		},
		{
			"name":"Mesh.002",
			"primitives":[
				{
					"attributes":{
						"POSITION":4,
						"NORMAL":5,
						"TEXCOORD_0":6,
						"TEXCOORD_1":7
					},
					"indices":8,
					"material":1
				},
				{
					"attributes":{
						"POSITION":9,
						"NORMAL":10,
						"TEXCOORD_0":11,
						"TEXCOORD_1":12
					},
					"indices":13,
					"material":2
				},
				{
					"attributes":{
						"POSITION":14,
						"NORMAL":15,
						"TEXCOORD_0":16,
						"TEXCOORD_1":17
					},
					"indices":18,
					"material":3
				}
			]
		},
		{
			"name":"Mesh.035",
			"primitives":[
				{
					"attributes":{
						"POSITION":19,
						"NORMAL":20,
						"TEXCOORD_0":21,
						"TEXCOORD_1":22
					},
					"indices":23,
					"material":0
				},
				{
					"attributes":{
						"POSITION":24,
						"NORMAL":25,
						"TEXCOORD_0":26,
						"TEXCOORD_1":27
					},
					"indices":28,
					"material":1
				}
			]
		},
		{
			"name":"Mesh.036",
			"primitives":[
				{
					"attributes":{
						"POSITION":29,
						"NORMAL":30,
						"TEXCOORD_0":31
					},
					"indices":32,
					"material":0
				},
				{
					"attributes":{
						"POSITION":33,
						"NORMAL":34,
						"TEXCOORD_0":35
					},
					"indices":36,
					"material":1
				},
				{
					"attributes":{
						"POSITION":37,
						"NORMAL":38,
						"TEXCOORD_0":39
					},
					"indices":40,
					"material":3
				}
			]
		}
	],
	"textures":[
		{
			"sampler":0,
			"source":0
		},
		{
			"sampler":0,
			"source":0
		},
		{
			"sampler":0,
			"source":0
		},
		{
			"sampler":0,
			"source":0
		},
		{
			"sampler":0,
			"source":0
		},
		{
			"sampler":0,
			"source":0
		}
	],
	"images":[
		{
			"mimeType":"image/png",
			"name":"punk_atlas",
			"uri":"textures/punk_atlas.png"
		}
	],
	"accessors":[
		{
			"bufferView":0,
			"componentType":5126,
			"count":1030,
			"max":[
				35.73155975341797,
				19.68861198425293,
				0.830222487449646
			],
			"min":[
				-19.698272705078125,
				-7.841400623321533,
				-28.228469848632812
			],
			"type":"VEC3"
		},
		{
			"bufferView":1,
			"componentType":5126,
			"count":1030,
			"type":"VEC3"
		},
		{
			"bufferView":2,
			"componentType":5126,
			"count":1030,
			"type":"VEC2"
		},
		{
			"bufferView":3,
			"componentType":5123,
			"count":3492,
			"type":"SCALAR"
		},
		{
			"bufferView":4,
			"componentType":5126,
			"count":518,
			"max":[
				9.757047653198242,
				19.204143524169922,
				-157.24620056152344
			],
			"min":[
				-18.60391616821289,
				-15.706725120544434,
				-197.33392333984375
			],
			"type":"VEC3"
		},
		{
			"bufferView":5,
			"componentType":5126,
			"count":518,
			"type":"VEC3"
		},
		{
			"bufferView":6,
			"componentType":5126,
			"count":518,
			"type":"VEC2"
		},
		{
			"bufferView":7,
			"componentType":5126,
			"count":518,
			"type":"VEC2"
		},
		{
			"bufferView":8,
			"componentType":5123,
			"count":1152,
			"type":"SCALAR"
		},
		{
			"bufferView":9,
			"componentType":5126,
			"count":516,
			"max":[
				14.114134788513184,
				26.383481979370117,
				-150.99429321289062
			],
			"min":[
				-35.4702033996582,
				-28.819612503051758,
				-212.17825317382812
			],
			"type":"VEC3"
		},
		{
			"bufferView":10,
			"componentType":5126,
			"count":516,
			"type":"VEC3"
		},
		{
			"bufferView":11,
			"componentType":5126,
			"count":516,
			"type":"VEC2"
		},
		{
			"bufferView":12,
			"componentType":5126,
			"count":516,
			"type":"VEC2"
		},
		{
			"bufferView":13,
			"componentType":5123,
			"count":1140,
			"type":"SCALAR"
		},
		{
			"bufferView":14,
			"componentType":5126,
			"count":358,
			"max":[
				10.752574920654297,
				18.743297576904297,
				-145.5791778564453
			],
			"min":[
				-17.09217071533203,
				-10.664338111877441,
				-190.1587371826172
			],
			"type":"VEC3"
		},
		{
			"bufferView":15,
			"componentType":5126,
			"count":358,
			"type":"VEC3"
		},
		{
			"bufferView":16,
			"componentType":5126,
			"count":358,
			"type":"VEC2"
		},
		{
			"bufferView":17,
			"componentType":5126,
			"count":358,
			"type":"VEC2"
		},
		{
			"bufferView":18,
			"componentType":5123,
			"count":1680,
			"type":"SCALAR"
		},
		{
			"bufferView":19,
			"componentType":5126,
			"count":909,
			"max":[
				28.663570404052734,
				19.064233779907227,
				-10.485115051269531
			],
			"min":[
				-23.179317474365234,
				-16.53388023376465,
				-105.83759307861328
			],
			"type":"VEC3"
		},
		{
			"bufferView":20,
			"componentType":5126,
			"count":909,
			"type":"VEC3"
		},
		{
			"bufferView":21,
			"componentType":5126,
			"count":909,
			"type":"VEC2"
		},
		{
			"bufferView":22,
			"componentType":5126,
			"count":909,
			"type":"VEC2"
		},
		{
			"bufferView":23,
			"componentType":5123,
			"count":3156,
			"type":"SCALAR"
		},
		{
			"bufferView":24,
			"componentType":5126,
			"count":484,
			"max":[
				27.096790313720703,
				16.523958206176758,
				-10.485115051269531
			],
			"min":[
				-21.931100845336914,
				-16.187335968017578,
				-106.00670623779297
			],
			"type":"VEC3"
		},
		{
			"bufferView":25,
			"componentType":5126,
			"count":484,
			"type":"VEC3"
		},
		{
			"bufferView":26,
			"componentType":5126,
			"count":484,
			"type":"VEC2"
		},
		{
			"bufferView":27,
			"componentType":5126,
			"count":484,
			"type":"VEC2"
		},
		{
			"bufferView":28,
			"componentType":5123,
			"count":1794,
			"type":"SCALAR"
		},
		{
			"bufferView":29,
			"componentType":5126,
			"count":1302,
			"max":[
				34.55620193481445,
				20.207901000976562,
				-92.43653869628906
			],
			"min":[
				-44.22763442993164,
				-16.116106033325195,
				-159.87115478515625
			],
			"type":"VEC3"
		},
		{
			"bufferView":30,
			"componentType":5126,
			"count":1302,
			"type":"VEC3"
		},
		{
			"bufferView":31,
			"componentType":5126,
			"count":1302,
			"type":"VEC2"
		},
		{
			"bufferView":32,
			"componentType":5123,
			"count":4074,
			"type":"SCALAR"
		},
		{
			"bufferView":33,
			"componentType":5126,
			"count":114,
			"max":[
				17.91520118713379,
				18.662050247192383,
				-102.4248046875
			],
			"min":[
				-17.37148094177246,
				-13.996570587158203,
				-148.50497436523438
			],
			"type":"VEC3"
		},
		{
			"bufferView":34,
			"componentType":5126,
			"count":114,
			"type":"VEC3"
		},
		{
			"bufferView":35,
			"componentType":5126,
			"count":114,
			"type":"VEC2"
		},
		{
			"bufferView":36,
			"componentType":5123,
			"count":462,
			"type":"SCALAR"
		},
		{
			"bufferView":37,
			"componentType":5126,
			"count":449,
			"max":[
				21.744165420532227,
				13.669231414794922,
				-92.49065399169922
			],
			"min":[
				-30.068540573120117,
				-1.6084167957305908,
				-116.77249908447266
			],
			"type":"VEC3"
		},
		{
			"bufferView":38,
			"componentType":5126,
			"count":449,
			"type":"VEC3"
		},
		{
			"bufferView":39,
			"componentType":5126,
			"count":449,
			"type":"VEC2"
		},
		{
			"bufferView":40,
			"componentType":5123,
			"count":1224,
			"type":"SCALAR"
		}
	],
	"bufferViews":[
		{
			"buffer":0,
			"byteLength":12360,
			"byteOffset":0,
			"target":34962
		},
		{
			"buffer":0,
			"byteLength":12360,
			"byteOffset":12360,
			"target":34962
		},
		{
			"buffer":0,
			"byteLength":8240,
			"byteOffset":24720,
			"target":34962
		},
		{
			"buffer":0,
			"byteLength":6984,
			"byteOffset":32960,
			"target":34963
		},
		{
			"buffer":0,
			"byteLength":6216,
			"byteOffset":39944,
			"target":34962
		},
		{
			"buffer":0,
			"byteLength":6216,
			"byteOffset":46160,
			"target":34962
		},
		{
			"buffer":0,
			"byteLength":4144,
			"byteOffset":52376,
			"target":34962
		},
		{
			"buffer":0,
			"byteLength":4144,
			"byteOffset":56520,
			"target":34962
		},
		{
			"buffer":0,
			"byteLength":2304,
			"byteOffset":60664,
			"target":34963
		},
		{
			"buffer":0,
			"byteLength":6192,
			"byteOffset":62968,
			"target":34962
		},
		{
			"buffer":0,
			"byteLength":6192,
			"byteOffset":69160,
			"target":34962
		},
		{
			"buffer":0,
			"byteLength":4128,
			"byteOffset":75352,
			"target":34962
		},
		{
			"buffer":0,
			"byteLength":4128,
			"byteOffset":79480,
			"target":34962
		},
		{
			"buffer":0,
			"byteLength":2280,
			"byteOffset":83608,
			"target":34963
		},
		{
			"buffer":0,
			"byteLength":4296,
			"byteOffset":85888,
			"target":34962
		},
		{
			"buffer":0,
			"byteLength":4296,
			"byteOffset":90184,
			"target":34962
		},
		{
			"buffer":0,
			"byteLength":2864,
			"byteOffset":94480,
			"target":34962
		},
		{
			"buffer":0,
			"byteLength":2864,
			"byteOffset":97344,
			"target":34962
		},
		{
			"buffer":0,
			"byteLength":3360,
			"byteOffset":100208,
			"target":34963
		},
		{
			"buffer":0,
			"byteLength":10908,
			"byteOffset":103568,
			"target":34962
		},
		{
			"buffer":0,
			"byteLength":10908,
			"byteOffset":114476,
			"target":34962
		},
		{
			"buffer":0,
			"byteLength":7272,
			"byteOffset":125384,
			"target":34962
		},
		{
			"buffer":0,
			"byteLength":7272,
			"byteOffset":132656,
			"target":34962
		},
		{
			"buffer":0,
			"byteLength":6312,
			"byteOffset":139928,
			"target":34963
		},
		{
			"buffer":0,
			"byteLength":5808,
			"byteOffset":146240,
			"target":34962
		},
		{
			"buffer":0,
			"byteLength":5808,
			"byteOffset":152048,
			"target":34962
		},
		{
			"buffer":0,
			"byteLength":3872,
			"byteOffset":157856,
			"target":34962
		},
		{
			"buffer":0,
			"byteLength":3872,
			"byteOffset":161728,
			"target":34962
		},
		{
			"buffer":0,
			"byteLength":3588,
			"byteOffset":165600,
			"target":34963
		},
		{
			"buffer":0,
			"byteLength":15624,
			"byteOffset":169188,
			"target":34962
		},
		{
			"buffer":0,
			"byteLength":15624,
			"byteOffset":184812,
			"target":34962
		},
		{
			"buffer":0,
			"byteLength":10416,
			"byteOffset":200436,
			"target":34962
		},
		{
			"buffer":0,
			"byteLength":8148,
			"byteOffset":210852,
			"target":34963
		},
		{
			"buffer":0,
			"byteLength":1368,
			"byteOffset":219000,
			"target":34962
		},
		{
			"buffer":0,
			"byteLength":1368,
			"byteOffset":220368,
			"target":34962
		},
		{
			"buffer":0,
			"byteLength":912,
			"byteOffset":221736,
			"target":34962
		},
		{
			"buffer":0,
			"byteLength":924,
			"byteOffset":222648,
			"target":34963
		},
		{
			"buffer":0,
			"byteLength":5388,
			"byteOffset":223572,
			"target":34962
		},
		{
			"buffer":0,
			"byteLength":5388,
			"byteOffset":228960,
			"target":34962
		},
		{
			"buffer":0,
			"byteLength":3592,
			"byteOffset":234348,
			"target":34962
		},
		{
			"buffer":0,
			"byteLength":2448,
			"byteOffset":237940,
			"target":34963
		}
	],
	"samplers":[
		{
			"magFilter":9729,
			"minFilter":9987
		}
	],
	"buffers":[
		{
			"byteLength":240388,
			"uri":"F_punk_pose.bin"
		}
	]
}
