{
	"asset":{
		"generator":"Khronos glTF Blender I/O v3.6.27",
		"version":"2.0"
	},
	"scene":0,
	"scenes":[
		{
			"name":"Scene",
			"nodes":[
				0,
				1,
				2,
				3,
				4
			]
		}
	],
	"nodes":[
		{
			"mesh":0,
			"name":"F_skater_feet",
			"rotation":[
				0.70710688829422,
				0,
				0,
				0.7071066498756409
			],
			"scale":[
				0.0189999807626009,
				0.0189999807626009,
				0.0189999807626009
			]
		},
		{
			"mesh":1,
			"name":"F_skater_hat",
			"rotation":[
				0.70710688829422,
				0,
				0,
				0.7071066498756409
			],
			"scale":[
				0.0189999807626009,
				0.0189999807626009,
				0.0189999807626009
			]
		},
		{
			"mesh":2,
			"name":"F_skater_jacket",
			"rotation":[
				0.70710688829422,
				0,
				0,
				0.7071066498756409
			],
			"scale":[
				0.0189999807626009,
				0.0189999807626009,
				0.0189999807626009
			]
		},
		{
			"mesh":3,
			"name":"F_skater_lowerbody",
			"rotation":[
				0.70710688829422,
				0,
				0,
				0.7071066498756409
			],
			"scale":[
				0.0189999807626009,
				0.0189999807626009,
				0.0189999807626009
			]
		},
		{
			"mesh":4,
			"name":"F_skater_upperbody",
			"rotation":[
				0.70710688829422,
				0,
				0,
				0.7071066498756409
			],
			"scale":[
				0.0189999807626009,
				0.0189999807626009,
				0.0189999807626009
			]
		}
	],
	"materials":[
		{
			"doubleSided":true,
			"emissiveFactor":[
				0.05000000074505806,
				0.05000000074505806,
				0.05000000074505806
			],
			"emissiveTexture":{
				"index":0
			},
			"name":"skater_atlas",
			"pbrMetallicRoughness":{
				"baseColorTexture":{
					"index":1
				},
				"metallicFactor":0
			}
		},
		{
			"emissiveFactor":[
				0.020000000596046452,
				0.022000000208616255,
				0.02500000037252903
			],
			"name":"maniqui",
			"pbrMetallicRoughness":{
				"baseColorFactor":[
					0.4000000059604645,
					0.4399999976158142,
					0.5,
					1
				],
				"metallicFactor":0,
				"roughnessFactor":0.5
			}
		},
		{
			"alphaMode":"BLEND",
			"doubleSided":true,
			"emissiveFactor":[
				0.05000000074505806,
				0.05000000074505806,
				0.05000000074505806
			],
			"emissiveTexture":{
				"index":2
			},
			"name":"skater_atlas_alpha",
			"pbrMetallicRoughness":{
				"baseColorTexture":{
					"index":3
				},
				"metallicFactor":0
			}
		}
	],
	"meshes":[
		{
			"name":"Plane.001",
			"primitives":[
				{
					"attributes":{
						"POSITION":0,
						"NORMAL":1,
						"TEXCOORD_0":2
					},
					"indices":3,
					"material":0
				}
			]
		},
		{
			"name":"Sphere.002",
			"primitives":[
				{
					"attributes":{
						"POSITION":4,
						"NORMAL":5,
						"TEXCOORD_0":6,
						"TEXCOORD_1":7
					},
					"indices":8,
					"material":0
				},
				{
					"attributes":{
						"POSITION":9,
						"NORMAL":10,
						"TEXCOORD_0":11,
						"TEXCOORD_1":12
					},
					"indices":13,
					"material":1
				}
			]
		},
		{
			"name":"Mesh.016",
			"primitives":[
				{
					"attributes":{
						"POSITION":14,
						"NORMAL":15,
						"TEXCOORD_0":16,
						"TEXCOORD_1":17
					},
					"indices":18,
					"material":2
				}
			]
		},
		{
			"name":"Mesh.017",
			"primitives":[
				{
					"attributes":{
						"POSITION":19,
						"NORMAL":20,
						"TEXCOORD_0":21,
						"TEXCOORD_1":22
					},
					"indices":23,
					"material":0
				},
				{
					"attributes":{
						"POSITION":24,
						"NORMAL":25,
						"TEXCOORD_0":26,
						"TEXCOORD_1":27
					},
					"indices":28,
					"material":1
				}
			]
		},
		{
			"name":"Mesh.015",
			"primitives":[
				{
					"attributes":{
						"POSITION":29,
						"NORMAL":30,
						"TEXCOORD_0":31,
						"TEXCOORD_1":32
					},
					"indices":33,
					"material":0
				},
				{
					"attributes":{
						"POSITION":34,
						"NORMAL":35,
						"TEXCOORD_0":36,
						"TEXCOORD_1":37
					},
					"indices":38,
					"material":1
				}
			]
		}
	],
	"textures":[
		{
			"sampler":0,
			"source":0
		},
		{
			"sampler":0,
			"source":0
		},
		{
			"sampler":0,
			"source":0
		},
		{
			"sampler":0,
			"source":0
		}
	],
	"images":[
		{
			"mimeType":"image/png",
			"name":"skater_atlas",
			"uri":"textures/skater_atlas.png"
		}
	],
	"accessors":[
		{
			"bufferView":0,
			"componentType":5126,
			"count":1436,
			"max":[
				39.098976135253906,
				22.32167625427246,
				1.8251482248306274
			],
			"min":[
				-18.521059036254883,
				-11.698046684265137,
				-16.171039581298828
			],
			"type":"VEC3"
		},
		{
			"bufferView":1,
			"componentType":5126,
			"count":1436,
			"type":"VEC3"
		},
		{
			"bufferView":2,
			"componentType":5126,
			"count":1436,
			"type":"VEC2"
		},
		{
			"bufferView":3,
			"componentType":5123,
			"count":4500,
			"type":"SCALAR"
		},
		{
			"bufferView":4,
			"componentType":5126,
			"count":344,
			"max":[
				13.16392993927002,
				30.772428512573242,
				-172.92124938964844
			],
			"min":[
				-36.700008392333984,
				-14.123220443725586,
				-199.94847106933594
			],
			"type":"VEC3"
		},
		{
			"bufferView":5,
			"componentType":5126,
			"count":344,
			"type":"VEC3"
		},
		{
			"bufferView":6,
			"componentType":5126,
			"count":344,
			"type":"VEC2"
		},
		{
			"bufferView":7,
			"componentType":5126,
			"count":344,
			"type":"VEC2"
		},
		{
			"bufferView":8,
			"componentType":5123,
			"count":1056,
			"type":"SCALAR"
		},
		{
			"bufferView":9,
			"componentType":5126,
			"count":536,
			"max":[
				11.33994197845459,
				19.88776397705078,
				-145.5791778564453
			],
			"min":[
				-19.26509666442871,
				-12.188581466674805,
				-191.48060607910156
			],
			"type":"VEC3"
		},
		{
			"bufferView":10,
			"componentType":5126,
			"count":536,
			"type":"VEC3"
		},
		{
			"bufferView":11,
			"componentType":5126,
			"count":536,
			"type":"VEC2"
		},
		{
			"bufferView":12,
			"componentType":5126,
			"count":536,
			"type":"VEC2"
		},
		{
			"bufferView":13,
			"componentType":5123,
			"count":2472,
			"type":"SCALAR"
		},
		{
			"bufferView":14,
			"componentType":5126,
			"count":366,
			"max":[
				37.6230583190918,
				22.655973434448242,
				-107.90121459960938
			],
			"min":[
				-46.207611083984375,
				-18.162439346313477,
				-159.32846069335938
			],
			"type":"VEC3"
		},
		{
			"bufferView":15,
			"componentType":5126,
			"count":366,
			"type":"VEC3"
		},
		{
			"bufferView":16,
			"componentType":5126,
			"count":366,
			"type":"VEC2"
		},
		{
			"bufferView":17,
			"componentType":5126,
			"count":366,
			"type":"VEC2"
		},
		{
			"bufferView":18,
			"componentType":5123,
			"count":1350,
			"type":"SCALAR"
		},
		{
			"bufferView":19,
			"componentType":5126,
			"count":1186,
			"max":[
				33.5634765625,
				19.572830200195312,
				-31.772064208984375
			],
			"min":[
				-26.21294403076172,
				-17.3820858001709,
				-105.86603546142578
			],
			"type":"VEC3"
		},
		{
			"bufferView":20,
			"componentType":5126,
			"count":1186,
			"type":"VEC3"
		},
		{
			"bufferView":21,
			"componentType":5126,
			"count":1186,
			"type":"VEC2"
		},
		{
			"bufferView":22,
			"componentType":5126,
			"count":1186,
			"type":"VEC2"
		},
		{
			"bufferView":23,
			"componentType":5123,
			"count":4236,
			"type":"SCALAR"
		},
		{
			"bufferView":24,
			"componentType":5126,
			"count":90,
			"max":[
				24.806211471557617,
				14.61369514465332,
				-10.485116958618164
			],
			"min":[
				-16.006359100341797,
				-7.20294189453125,
				-33.25053787231445
			],
			"type":"VEC3"
		},
		{
			"bufferView":25,
			"componentType":5126,
			"count":90,
			"type":"VEC3"
		},
		{
			"bufferView":26,
			"componentType":5126,
			"count":90,
			"type":"VEC2"
		},
		{
			"bufferView":27,
			"componentType":5126,
			"count":90,
			"type":"VEC2"
		},
		{
			"bufferView":28,
			"componentType":5123,
			"count":336,
			"type":"SCALAR"
		},
		{
			"bufferView":29,
			"componentType":5126,
			"count":1019,
			"max":[
				34.499637603759766,
				19.82589340209961,
				-94.05387878417969
			],
			"min":[
				-44.21229934692383,
				-15.201732635498047,
				-154.51248168945312
			],
			"type":"VEC3"
		},
		{
			"bufferView":30,
			"componentType":5126,
			"count":1019,
			"type":"VEC3"
		},
		{
			"bufferView":31,
			"componentType":5126,
			"count":1019,
			"type":"VEC2"
		},
		{
			"bufferView":32,
			"componentType":5126,
			"count":1019,
			"type":"VEC2"
		},
		{
			"bufferView":33,
			"componentType":5123,
			"count":3117,
			"type":"SCALAR"
		},
		{
			"bufferView":34,
			"componentType":5126,
			"count":385,
			"max":[
				27.51089859008789,
				14.577884674072266,
				-92.52599334716797
			],
			"min":[
				-31.02025604248047,
				-13.984594345092773,
				-153.8289794921875
			],
			"type":"VEC3"
		},
		{
			"bufferView":35,
			"componentType":5126,
			"count":385,
			"type":"VEC3"
		},
		{
			"bufferView":36,
			"componentType":5126,
			"count":385,
			"type":"VEC2"
		},
		{
			"bufferView":37,
			"componentType":5126,
			"count":385,
			"type":"VEC2"
		},
		{
			"bufferView":38,
			"componentType":5123,
			"count":1437,
			"type":"SCALAR"
		}
	],
	"bufferViews":[
		{
			"buffer":0,
			"byteLength":17232,
			"byteOffset":0,
			"target":34962
		},
		{
			"buffer":0,
			"byteLength":17232,
			"byteOffset":17232,
			"target":34962
		},
		{
			"buffer":0,
			"byteLength":11488,
			"byteOffset":34464,
			"target":34962
		},
		{
			"buffer":0,
			"byteLength":9000,
			"byteOffset":45952,
			"target":34963
		},
		{
			"buffer":0,
			"byteLength":4128,
			"byteOffset":54952,
			"target":34962
		},
		{
			"buffer":0,
			"byteLength":4128,
			"byteOffset":59080,
			"target":34962
		},
		{
			"buffer":0,
			"byteLength":2752,
			"byteOffset":63208,
			"target":34962
		},
		{
			"buffer":0,
			"byteLength":2752,
			"byteOffset":65960,
			"target":34962
		},
		{
			"buffer":0,
			"byteLength":2112,
			"byteOffset":68712,
			"target":34963
		},
		{
			"buffer":0,
			"byteLength":6432,
			"byteOffset":70824,
			"target":34962
		},
		{
			"buffer":0,
			"byteLength":6432,
			"byteOffset":77256,
			"target":34962
		},
		{
			"buffer":0,
			"byteLength":4288,
			"byteOffset":83688,
			"target":34962
		},
		{
			"buffer":0,
			"byteLength":4288,
			"byteOffset":87976,
			"target":34962
		},
		{
			"buffer":0,
			"byteLength":4944,
			"byteOffset":92264,
			"target":34963
		},
		{
			"buffer":0,
			"byteLength":4392,
			"byteOffset":97208,
			"target":34962
		},
		{
			"buffer":0,
			"byteLength":4392,
			"byteOffset":101600,
			"target":34962
		},
		{
			"buffer":0,
			"byteLength":2928,
			"byteOffset":105992,
			"target":34962
		},
		{
			"buffer":0,
			"byteLength":2928,
			"byteOffset":108920,
			"target":34962
		},
		{
			"buffer":0,
			"byteLength":2700,
			"byteOffset":111848,
			"target":34963
		},
		{
			"buffer":0,
			"byteLength":14232,
			"byteOffset":114548,
			"target":34962
		},
		{
			"buffer":0,
			"byteLength":14232,
			"byteOffset":128780,
			"target":34962
		},
		{
			"buffer":0,
			"byteLength":9488,
			"byteOffset":143012,
			"target":34962
		},
		{
			"buffer":0,
			"byteLength":9488,
			"byteOffset":152500,
			"target":34962
		},
		{
			"buffer":0,
			"byteLength":8472,
			"byteOffset":161988,
			"target":34963
		},
		{
			"buffer":0,
			"byteLength":1080,
			"byteOffset":170460,
			"target":34962
		},
		{
			"buffer":0,
			"byteLength":1080,
			"byteOffset":171540,
			"target":34962
		},
		{
			"buffer":0,
			"byteLength":720,
			"byteOffset":172620,
			"target":34962
		},
		{
			"buffer":0,
			"byteLength":720,
			"byteOffset":173340,
			"target":34962
		},
		{
			"buffer":0,
			"byteLength":672,
			"byteOffset":174060,
			"target":34963
		},
		{
			"buffer":0,
			"byteLength":12228,
			"byteOffset":174732,
			"target":34962
		},
		{
			"buffer":0,
			"byteLength":12228,
			"byteOffset":186960,
			"target":34962
		},
		{
			"buffer":0,
			"byteLength":8152,
			"byteOffset":199188,
			"target":34962
		},
		{
			"buffer":0,
			"byteLength":8152,
			"byteOffset":207340,
			"target":34962
		},
		{
			"buffer":0,
			"byteLength":6234,
			"byteOffset":215492,
			"target":34963
		},
		{
			"buffer":0,
			"byteLength":4620,
			"byteOffset":221728,
			"target":34962
		},
		{
			"buffer":0,
			"byteLength":4620,
			"byteOffset":226348,
			"target":34962
		},
		{
			"buffer":0,
			"byteLength":3080,
			"byteOffset":230968,
			"target":34962
		},
		{
			"buffer":0,
			"byteLength":3080,
			"byteOffset":234048,
			"target":34962
		},
		{
			"buffer":0,
			"byteLength":2874,
			"byteOffset":237128,
			"target":34963
		}
	],
	"samplers":[
		{
			"magFilter":9729,
			"minFilter":9987
		}
	],
	"buffers":[
		{
			"byteLength":240004,
			"uri":"F_skater_pose.bin"
		}
	]
}
