{
	"asset":{
		"generator":"Khronos glTF Blender I/O v3.6.27",
		"version":"2.0"
	},
	"scene":0,
	"scenes":[
		{
			"name":"Scene",
			"nodes":[
				0,
				1,
				2,
				3
			]
		}
	],
	"nodes":[
		{
			"mesh":0,
			"name":"M_politician_feet",
			"rotation":[
				0.7071069478988647,
				0,
				0,
				0.7071066498756409
			],
			"scale":[
				0.01899999938905239,
				0.018999997526407242,
				0.018999997526407242
			]
		},
		{
			"mesh":1,
			"name":"M_politician_hat",
			"rotation":[
				0.7071069478988647,
				0,
				0,
				0.7071066498756409
			],
			"scale":[
				0.01899999938905239,
				0.018999997526407242,
				0.018999997526407242
			]
		},
		{
			"mesh":2,
			"name":"M_politician_lower",
			"rotation":[
				0.7071069478988647,
				0,
				0,
				0.7071066498756409
			],
			"scale":[
				0.01899999938905239,
				0.018999997526407242,
				0.018999997526407242
			]
		},
		{
			"mesh":3,
			"name":"M_politician_upper",
			"rotation":[
				0.7071069478988647,
				0,
				0,
				0.7071066498756409
			],
			"scale":[
				0.01899999938905239,
				0.018999997526407242,
				0.018999997526407242
			]
		}
	],
	"materials":[
		{
			"doubleSided":true,
			"emissiveFactor":[
				0.05000000074505806,
				0.05000000074505806,
				0.05000000074505806
			],
			"emissiveTexture":{
				"index":0
			},
			"name":"politician_atlas",
			"pbrMetallicRoughness":{
				"baseColorTexture":{
					"index":1
				},
				"metallicFactor":0
			}
		},
		{
			"emissiveFactor":[
				0.020000000596046452,
				0.022000000208616255,
				0.02500000037252903
			],
			"name":"maniqui",
			"pbrMetallicRoughness":{
				"baseColorFactor":[
					0.4000000059604645,
					0.4399999976158142,
					0.5,
					1
				],
				"metallicFactor":0,
				"roughnessFactor":0.5
			}
		},
		{
			"alphaCutoff":0.5,
			"alphaMode":"MASK",
			"doubleSided":true,
			"emissiveFactor":[
				0.05000000074505806,
				0.05000000074505806,
				0.05000000074505806
			],
			"emissiveTexture":{
				"index":2
			},
			"name":"politician_atlas_alpha",
			"pbrMetallicRoughness":{
				"baseColorTexture":{
					"index":3
				},
				"metallicFactor":0
			}
		}
	],
	"meshes":[
		{
			"name":"Mesh.044",
			"primitives":[
				{
					"attributes":{
						"COLOR_0":0,
						"POSITION":1,
						"NORMAL":2,
						"TEXCOORD_0":3
					},
					"indices":4,
					"material":0
				}
			]
		},
		{
			"name":"Mesh.045",
			"primitives":[
				{
					"attributes":{
						"POSITION":5,
						"NORMAL":6,
						"TEXCOORD_0":7,
						"TEXCOORD_1":8
					},
					"indices":9,
					"material":0
				},
				{
					"attributes":{
						"POSITION":10,
						"NORMAL":11,
						"TEXCOORD_0":12,
						"TEXCOORD_1":13
					},
					"indices":14,
					"material":1
				}
			]
		},
		{
			"name":"Mesh.046",
			"primitives":[
				{
					"attributes":{
						"POSITION":15,
						"NORMAL":16,
						"TEXCOORD_0":17,
						"TEXCOORD_1":18
					},
					"indices":19,
					"material":0
				},
				{
					"attributes":{
						"POSITION":20,
						"NORMAL":21,
						"TEXCOORD_0":22,
						"TEXCOORD_1":23
					},
					"indices":24,
					"material":2
				}
			]
		},
		{
			"name":"Plane.007",
			"primitives":[
				{
					"attributes":{
						"POSITION":25,
						"NORMAL":26,
						"TEXCOORD_0":27
					},
					"indices":28,
					"material":0
				}
			]
		}
	],
	"textures":[
		{
			"sampler":0,
			"source":0
		},
		{
			"sampler":0,
			"source":0
		},
		{
			"sampler":0,
			"source":0
		},
		{
			"sampler":0,
			"source":0
		}
	],
	"images":[
		{
			"mimeType":"image/png",
			"name":"politician_atlas",
			"uri":"textures/politician_atlas.png"
		}
	],
	"accessors":[
		{
			"bufferView":0,
			"componentType":5123,
			"count":526,
			"normalized":true,
			"type":"VEC4"
		},
		{
			"bufferView":1,
			"componentType":5126,
			"count":526,
			"max":[
				40.03764724731445,
				24.038917541503906,
				1.6886909008026123
			],
			"min":[
				-18.43781280517578,
				-9.97574520111084,
				-16.195613861083984
			],
			"type":"VEC3"
		},
		{
			"bufferView":2,
			"componentType":5126,
			"count":526,
			"type":"VEC3"
		},
		{
			"bufferView":3,
			"componentType":5126,
			"count":526,
			"type":"VEC2"
		},
		{
			"bufferView":4,
			"componentType":5123,
			"count":1524,
			"type":"SCALAR"
		},
		{
			"bufferView":5,
			"componentType":5126,
			"count":306,
			"max":[
				19.078886032104492,
				30.71865463256836,
				-163.7213134765625
			],
			"min":[
				-25.36029052734375,
				-19.60027313232422,
				-201.12489318847656
			],
			"type":"VEC3"
		},
		{
			"bufferView":6,
			"componentType":5126,
			"count":306,
			"type":"VEC3"
		},
		{
			"bufferView":7,
			"componentType":5126,
			"count":306,
			"type":"VEC2"
		},
		{
			"bufferView":8,
			"componentType":5126,
			"count":306,
			"type":"VEC2"
		},
		{
			"bufferView":9,
			"componentType":5123,
			"count":768,
			"type":"SCALAR"
		},
		{
			"bufferView":10,
			"componentType":5126,
			"count":689,
			"max":[
				11.361812591552734,
				20.866342544555664,
				-145.5790557861328
			],
			"min":[
				-18.255197525024414,
				-11.76559829711914,
				-190.1585693359375
			],
			"type":"VEC3"
		},
		{
			"bufferView":11,
			"componentType":5126,
			"count":689,
			"type":"VEC3"
		},
		{
			"bufferView":12,
			"componentType":5126,
			"count":689,
			"type":"VEC2"
		},
		{
			"bufferView":13,
			"componentType":5126,
			"count":689,
			"type":"VEC2"
		},
		{
			"bufferView":14,
			"componentType":5123,
			"count":2928,
			"type":"SCALAR"
		},
		{
			"bufferView":15,
			"componentType":5126,
			"count":353,
			"max":[
				27.910520553588867,
				17.51973533630371,
				-10.026339530944824
			],
			"min":[
				-20.333526611328125,
				-15.477996826171875,
				-98.92198181152344
			],
			"type":"VEC3"
		},
		{
			"bufferView":16,
			"componentType":5126,
			"count":353,
			"type":"VEC3"
		},
		{
			"bufferView":17,
			"componentType":5126,
			"count":353,
			"type":"VEC2"
		},
		{
			"bufferView":18,
			"componentType":5126,
			"count":353,
			"type":"VEC2"
		},
		{
			"bufferView":19,
			"componentType":5123,
			"count":1191,
			"type":"SCALAR"
		},
		{
			"bufferView":20,
			"componentType":5126,
			"count":220,
			"max":[
				25.522953033447266,
				23.816930770874023,
				-84.8245849609375
			],
			"min":[
				-21.067785263061523,
				-6.401674270629883,
				-101.04296875
			],
			"type":"VEC3"
		},
		{
			"bufferView":21,
			"componentType":5126,
			"count":220,
			"type":"VEC3"
		},
		{
			"bufferView":22,
			"componentType":5126,
			"count":220,
			"type":"VEC2"
		},
		{
			"bufferView":23,
			"componentType":5126,
			"count":220,
			"type":"VEC2"
		},
		{
			"bufferView":24,
			"componentType":5123,
			"count":600,
			"type":"SCALAR"
		},
		{
			"bufferView":25,
			"componentType":5126,
			"count":1557,
			"max":[
				35.9259033203125,
				19.534290313720703,
				-92.4306640625
			],
			"min":[
				-46.938655853271484,
				-17.341171264648438,
				-159.37423706054688
			],
			"type":"VEC3"
		},
		{
			"bufferView":26,
			"componentType":5126,
			"count":1557,
			"type":"VEC3"
		},
		{
			"bufferView":27,
			"componentType":5126,
			"count":1557,
			"type":"VEC2"
		},
		{
			"bufferView":28,
			"componentType":5123,
			"count":4836,
			"type":"SCALAR"
		}
	],
	"bufferViews":[
		{
			"buffer":0,
			"byteLength":4208,
			"byteOffset":0,
			"target":34962
		},
		{
			"buffer":0,
			"byteLength":6312,
			"byteOffset":4208,
			"target":34962
		},
		{
			"buffer":0,
			"byteLength":6312,
			"byteOffset":10520,
			"target":34962
		},
		{
			"buffer":0,
			"byteLength":4208,
			"byteOffset":16832,
			"target":34962
		},
		{
			"buffer":0,
			"byteLength":3048,
			"byteOffset":21040,
			"target":34963
		},
		{
			"buffer":0,
			"byteLength":3672,
			"byteOffset":24088,
			"target":34962
		},
		{
			"buffer":0,
			"byteLength":3672,
			"byteOffset":27760,
			"target":34962
		},
		{
			"buffer":0,
			"byteLength":2448,
			"byteOffset":31432,
			"target":34962
		},
		{
			"buffer":0,
			"byteLength":2448,
			"byteOffset":33880,
			"target":34962
		},
		{
			"buffer":0,
			"byteLength":1536,
			"byteOffset":36328,
			"target":34963
		},
		{
			"buffer":0,
			"byteLength":8268,
			"byteOffset":37864,
			"target":34962
		},
		{
			"buffer":0,
			"byteLength":8268,
			"byteOffset":46132,
			"target":34962
		},
		{
			"buffer":0,
			"byteLength":5512,
			"byteOffset":54400,
			"target":34962
		},
		{
			"buffer":0,
			"byteLength":5512,
			"byteOffset":59912,
			"target":34962
		},
		{
			"buffer":0,
			"byteLength":5856,
			"byteOffset":65424,
			"target":34963
		},
		{
			"buffer":0,
			"byteLength":4236,
			"byteOffset":71280,
			"target":34962
		},
		{
			"buffer":0,
			"byteLength":4236,
			"byteOffset":75516,
			"target":34962
		},
		{
			"buffer":0,
			"byteLength":2824,
			"byteOffset":79752,
			"target":34962
		},
		{
			"buffer":0,
			"byteLength":2824,
			"byteOffset":82576,
			"target":34962
		},
		{
			"buffer":0,
			"byteLength":2382,
			"byteOffset":85400,
			"target":34963
		},
		{
			"buffer":0,
			"byteLength":2640,
			"byteOffset":87784,
			"target":34962
		},
		{
			"buffer":0,
			"byteLength":2640,
			"byteOffset":90424,
			"target":34962
		},
		{
			"buffer":0,
			"byteLength":1760,
			"byteOffset":93064,
			"target":34962
		},
		{
			"buffer":0,
			"byteLength":1760,
			"byteOffset":94824,
			"target":34962
		},
		{
			"buffer":0,
			"byteLength":1200,
			"byteOffset":96584,
			"target":34963
		},
		{
			"buffer":0,
			"byteLength":18684,
			"byteOffset":97784,
			"target":34962
		},
		{
			"buffer":0,
			"byteLength":18684,
			"byteOffset":116468,
			"target":34962
		},
		{
			"buffer":0,
			"byteLength":12456,
			"byteOffset":135152,
			"target":34962
		},
		{
			"buffer":0,
			"byteLength":9672,
			"byteOffset":147608,
			"target":34963
		}
	],
	"samplers":[
		{
			"magFilter":9729,
			"minFilter":9987
		}
	],
	"buffers":[
		{
			"byteLength":157280,
			"uri":"M_politician_pose.bin"
		}
	]
}
