{
	"asset":{
		"generator":"Khronos glTF Blender I/O v3.6.27",
		"version":"2.0"
	},
	"extensionsUsed":[
		"KHR_materials_specular",
		"KHR_materials_ior"
	],
	"scene":0,
	"scenes":[
		{
			"name":"Scene",
			"nodes":[
				0,
				1,
				2,
				3
			]
		}
	],
	"nodes":[
		{
			"mesh":0,
			"name":"M_punk_feet",
			"rotation":[
				0.70710688829422,
				0,
				0,
				0.7071066498756409
			],
			"scale":[
				0.0189999807626009,
				0.0189999807626009,
				0.0189999807626009
			]
		},
		{
			"mesh":1,
			"name":"M_punk_head",
			"rotation":[
				0.70710688829422,
				0,
				0,
				0.7071066498756409
			],
			"scale":[
				0.0189999807626009,
				0.0189999807626009,
				0.0189999807626009
			]
		},
		{
			"mesh":2,
			"name":"M_punk_lowerbody",
			"rotation":[
				0.70710688829422,
				0,
				0,
				0.7071066498756409
			],
			"scale":[
				0.0189999807626009,
				0.0189999807626009,
				0.0189999807626009
			]
		},
		{
			"mesh":3,
			"name":"M_punk_upperbody",
			"rotation":[
				0.70710688829422,
				0,
				0,
				0.7071066498756409
			],
			"scale":[
				0.0189999807626009,
				0.0189999807626009,
				0.0189999807626009
			]
		}
	],
	"materials":[
		{
			"doubleSided":true,
			"emissiveFactor":[
				0.05000000074505806,
				0.05000000074505806,
				0.05000000074505806
			],
			"emissiveTexture":{
				"index":0
			},
			"name":"punk_atlas",
			"pbrMetallicRoughness":{
				"baseColorTexture":{
					"index":1
				},
				"metallicFactor":0
			}
		},
		{
			"alphaCutoff":0.5,
			"alphaMode":"MASK",
			"doubleSided":true,
			"emissiveFactor":[
				0.05000000074505806,
				0.014365771626916102,
				0
			],
			"emissiveTexture":{
				"index":2
			},
			"name":"punk_atlas_colorized_alpha",
			"pbrMetallicRoughness":{
				"baseColorFactor":[
					1,
					0.2873154282569885,
					0,
					1
				],
				"baseColorTexture":{
					"index":3
				},
				"metallicFactor":0
			}
		},
		{
			"alphaCutoff":0.5095056891441345,
			"alphaMode":"MASK",
			"doubleSided":true,
			"emissiveFactor":[
				0.05000000074505806,
				0.05000000074505806,
				0.05000000074505806
			],
			"emissiveTexture":{
				"index":4
			},
			"extensions":{
				"KHR_materials_specular":{
					"specularColorFactor":[
						0.0,
						0.0,
						0.0
					]
				},
				"KHR_materials_ior":{
					"ior":1.4500000476837158
				}
			},
			"name":"punk_atlas_alpha",
			"pbrMetallicRoughness":{
				"baseColorTexture":{
					"index":5
				},
				"metallicFactor":0
			}
		},
		{
			"emissiveFactor":[
				0.020000000596046452,
				0.022000000208616255,
				0.02500000037252903
			],
			"name":"maniqui",
			"pbrMetallicRoughness":{
				"baseColorFactor":[
					0.4000000059604645,
					0.4399999976158142,
					0.5,
					1
				],
				"metallicFactor":0,
				"roughnessFactor":0.5
			}
		}
	],
	"meshes":[
		{
			"name":"Plane",
			"primitives":[
				{
					"attributes":{
						"POSITION":0,
						"NORMAL":1,
						"TEXCOORD_0":2
					},
					"indices":3,
					"material":0
				}
			]
		},
		{
			"name":"Mesh.048",
			"primitives":[
				{
					"attributes":{
						"POSITION":4,
						"NORMAL":5,
						"TEXCOORD_0":6,
						"TEXCOORD_1":7
					},
					"indices":8,
					"material":1
				},
				{
					"attributes":{
						"POSITION":9,
						"NORMAL":10,
						"TEXCOORD_0":11,
						"TEXCOORD_1":12
					},
					"indices":13,
					"material":2
				},
				{
					"attributes":{
						"POSITION":14,
						"NORMAL":15,
						"TEXCOORD_0":16,
						"TEXCOORD_1":17
					},
					"indices":18,
					"material":3
				}
			]
		},
		{
			"name":"Mesh.047",
			"primitives":[
				{
					"attributes":{
						"POSITION":19,
						"NORMAL":20,
						"TEXCOORD_0":21,
						"TEXCOORD_1":22
					},
					"indices":23,
					"material":0
				},
				{
					"attributes":{
						"POSITION":24,
						"NORMAL":25,
						"TEXCOORD_0":26,
						"TEXCOORD_1":27
					},
					"indices":28,
					"material":1
				}
			]
		},
		{
			"name":"Mesh.004",
			"primitives":[
				{
					"attributes":{
						"POSITION":29,
						"NORMAL":30,
						"TEXCOORD_0":31
					},
					"indices":32,
					"material":0
				},
				{
					"attributes":{
						"POSITION":33,
						"NORMAL":34,
						"TEXCOORD_0":35
					},
					"indices":36,
					"material":1
				},
				{
					"attributes":{
						"POSITION":37,
						"NORMAL":38,
						"TEXCOORD_0":39
					},
					"indices":40,
					"material":3
				}
			]
		}
	],
	"textures":[
		{
			"sampler":0,
			"source":0
		},
		{
			"sampler":0,
			"source":0
		},
		{
			"sampler":0,
			"source":0
		},
		{
			"sampler":0,
			"source":0
		},
		{
			"sampler":0,
			"source":0
		},
		{
			"sampler":0,
			"source":0
		}
	],
	"images":[
		{
			"mimeType":"image/png",
			"name":"punk_atlas",
			"uri":"textures/punk_atlas.png"
		}
	],
	"accessors":[
		{
			"bufferView":0,
			"componentType":5126,
			"count":1032,
			"max":[
				36.51775360107422,
				20.317243576049805,
				0.8372786641120911
			],
			"min":[
				-19.686588287353516,
				-7.975744724273682,
				-29.19317626953125
			],
			"type":"VEC3"
		},
		{
			"bufferView":1,
			"componentType":5126,
			"count":1032,
			"type":"VEC3"
		},
		{
			"bufferView":2,
			"componentType":5126,
			"count":1032,
			"type":"VEC2"
		},
		{
			"bufferView":3,
			"componentType":5123,
			"count":3492,
			"type":"SCALAR"
		},
		{
			"bufferView":4,
			"componentType":5126,
			"count":522,
			"max":[
				9.660102844238281,
				18.752395629882812,
				-158.40985107421875
			],
			"min":[
				-18.593528747558594,
				-15.342195510864258,
				-197.11915588378906
			],
			"type":"VEC3"
		},
		{
			"bufferView":5,
			"componentType":5126,
			"count":522,
			"type":"VEC3"
		},
		{
			"bufferView":6,
			"componentType":5126,
			"count":522,
			"type":"VEC2"
		},
		{
			"bufferView":7,
			"componentType":5126,
			"count":522,
			"type":"VEC2"
		},
		{
			"bufferView":8,
			"componentType":5123,
			"count":1152,
			"type":"SCALAR"
		},
		{
			"bufferView":9,
			"componentType":5126,
			"count":514,
			"max":[
				14.325407028198242,
				24.812660217285156,
				-152.96917724609375
			],
			"min":[
				-35.31337356567383,
				-28.90603256225586,
				-212.28421020507812
			],
			"type":"VEC3"
		},
		{
			"bufferView":10,
			"componentType":5126,
			"count":514,
			"type":"VEC3"
		},
		{
			"bufferView":11,
			"componentType":5126,
			"count":514,
			"type":"VEC2"
		},
		{
			"bufferView":12,
			"componentType":5126,
			"count":514,
			"type":"VEC2"
		},
		{
			"bufferView":13,
			"componentType":5123,
			"count":1140,
			"type":"SCALAR"
		},
		{
			"bufferView":14,
			"componentType":5126,
			"count":358,
			"max":[
				10.752574920654297,
				18.743297576904297,
				-145.5791778564453
			],
			"min":[
				-17.09217071533203,
				-10.664338111877441,
				-190.1587371826172
			],
			"type":"VEC3"
		},
		{
			"bufferView":15,
			"componentType":5126,
			"count":358,
			"type":"VEC3"
		},
		{
			"bufferView":16,
			"componentType":5126,
			"count":358,
			"type":"VEC2"
		},
		{
			"bufferView":17,
			"componentType":5126,
			"count":358,
			"type":"VEC2"
		},
		{
			"bufferView":18,
			"componentType":5123,
			"count":1680,
			"type":"SCALAR"
		},
		{
			"bufferView":19,
			"componentType":5126,
			"count":1239,
			"max":[
				28.806625366210938,
				18.739826202392578,
				-10.485115051269531
			],
			"min":[
				-19.907257080078125,
				-15.640177726745605,
				-102.18916320800781
			],
			"type":"VEC3"
		},
		{
			"bufferView":20,
			"componentType":5126,
			"count":1239,
			"type":"VEC3"
		},
		{
			"bufferView":21,
			"componentType":5126,
			"count":1239,
			"type":"VEC2"
		},
		{
			"bufferView":22,
			"componentType":5126,
			"count":1239,
			"type":"VEC2"
		},
		{
			"bufferView":23,
			"componentType":5123,
			"count":3150,
			"type":"SCALAR"
		},
		{
			"bufferView":24,
			"componentType":5126,
			"count":524,
			"max":[
				27.2696533203125,
				16.63094711303711,
				-10.485115051269531
			],
			"min":[
				-19.04561996459961,
				-14.88120174407959,
				-102.57952117919922
			],
			"type":"VEC3"
		},
		{
			"bufferView":25,
			"componentType":5126,
			"count":524,
			"type":"VEC3"
		},
		{
			"bufferView":26,
			"componentType":5126,
			"count":524,
			"type":"VEC2"
		},
		{
			"bufferView":27,
			"componentType":5126,
			"count":524,
			"type":"VEC2"
		},
		{
			"bufferView":28,
			"componentType":5123,
			"count":1800,
			"type":"SCALAR"
		},
		{
			"bufferView":29,
			"componentType":5126,
			"count":1524,
			"max":[
				34.55620193481445,
				18.286157608032227,
				-92.43653869628906
			],
			"min":[
				-44.22763442993164,
				-16.116106033325195,
				-159.8711700439453
			],
			"type":"VEC3"
		},
		{
			"bufferView":30,
			"componentType":5126,
			"count":1524,
			"type":"VEC3"
		},
		{
			"bufferView":31,
			"componentType":5126,
			"count":1524,
			"type":"VEC2"
		},
		{
			"bufferView":32,
			"componentType":5123,
			"count":4074,
			"type":"SCALAR"
		},
		{
			"bufferView":33,
			"componentType":5126,
			"count":121,
			"max":[
				17.531286239624023,
				17.192096710205078,
				-96.14056396484375
			],
			"min":[
				-17.755395889282227,
				-13.99657154083252,
				-148.8292236328125
			],
			"type":"VEC3"
		},
		{
			"bufferView":34,
			"componentType":5126,
			"count":121,
			"type":"VEC3"
		},
		{
			"bufferView":35,
			"componentType":5126,
			"count":121,
			"type":"VEC2"
		},
		{
			"bufferView":36,
			"componentType":5123,
			"count":462,
			"type":"SCALAR"
		},
		{
			"bufferView":37,
			"componentType":5126,
			"count":456,
			"max":[
				21.744165420532227,
				13.669231414794922,
				-92.49065399169922
			],
			"min":[
				-30.068540573120117,
				-1.6084167957305908,
				-116.77249908447266
			],
			"type":"VEC3"
		},
		{
			"bufferView":38,
			"componentType":5126,
			"count":456,
			"type":"VEC3"
		},
		{
			"bufferView":39,
			"componentType":5126,
			"count":456,
			"type":"VEC2"
		},
		{
			"bufferView":40,
			"componentType":5123,
			"count":1224,
			"type":"SCALAR"
		}
	],
	"bufferViews":[
		{
			"buffer":0,
			"byteLength":12384,
			"byteOffset":0,
			"target":34962
		},
		{
			"buffer":0,
			"byteLength":12384,
			"byteOffset":12384,
			"target":34962
		},
		{
			"buffer":0,
			"byteLength":8256,
			"byteOffset":24768,
			"target":34962
		},
		{
			"buffer":0,
			"byteLength":6984,
			"byteOffset":33024,
			"target":34963
		},
		{
			"buffer":0,
			"byteLength":6264,
			"byteOffset":40008,
			"target":34962
		},
		{
			"buffer":0,
			"byteLength":6264,
			"byteOffset":46272,
			"target":34962
		},
		{
			"buffer":0,
			"byteLength":4176,
			"byteOffset":52536,
			"target":34962
		},
		{
			"buffer":0,
			"byteLength":4176,
			"byteOffset":56712,
			"target":34962
		},
		{
			"buffer":0,
			"byteLength":2304,
			"byteOffset":60888,
			"target":34963
		},
		{
			"buffer":0,
			"byteLength":6168,
			"byteOffset":63192,
			"target":34962
		},
		{
			"buffer":0,
			"byteLength":6168,
			"byteOffset":69360,
			"target":34962
		},
		{
			"buffer":0,
			"byteLength":4112,
			"byteOffset":75528,
			"target":34962
		},
		{
			"buffer":0,
			"byteLength":4112,
			"byteOffset":79640,
			"target":34962
		},
		{
			"buffer":0,
			"byteLength":2280,
			"byteOffset":83752,
			"target":34963
		},
		{
			"buffer":0,
			"byteLength":4296,
			"byteOffset":86032,
			"target":34962
		},
		{
			"buffer":0,
			"byteLength":4296,
			"byteOffset":90328,
			"target":34962
		},
		{
			"buffer":0,
			"byteLength":2864,
			"byteOffset":94624,
			"target":34962
		},
		{
			"buffer":0,
			"byteLength":2864,
			"byteOffset":97488,
			"target":34962
		},
		{
			"buffer":0,
			"byteLength":3360,
			"byteOffset":100352,
			"target":34963
		},
		{
			"buffer":0,
			"byteLength":14868,
			"byteOffset":103712,
			"target":34962
		},
		{
			"buffer":0,
			"byteLength":14868,
			"byteOffset":118580,
			"target":34962
		},
		{
			"buffer":0,
			"byteLength":9912,
			"byteOffset":133448,
			"target":34962
		},
		{
			"buffer":0,
			"byteLength":9912,
			"byteOffset":143360,
			"target":34962
		},
		{
			"buffer":0,
			"byteLength":6300,
			"byteOffset":153272,
			"target":34963
		},
		{
			"buffer":0,
			"byteLength":6288,
			"byteOffset":159572,
			"target":34962
		},
		{
			"buffer":0,
			"byteLength":6288,
			"byteOffset":165860,
			"target":34962
		},
		{
			"buffer":0,
			"byteLength":4192,
			"byteOffset":172148,
			"target":34962
		},
		{
			"buffer":0,
			"byteLength":4192,
			"byteOffset":176340,
			"target":34962
		},
		{
			"buffer":0,
			"byteLength":3600,
			"byteOffset":180532,
			"target":34963
		},
		{
			"buffer":0,
			"byteLength":18288,
			"byteOffset":184132,
			"target":34962
		},
		{
			"buffer":0,
			"byteLength":18288,
			"byteOffset":202420,
			"target":34962
		},
		{
			"buffer":0,
			"byteLength":12192,
			"byteOffset":220708,
			"target":34962
		},
		{
			"buffer":0,
			"byteLength":8148,
			"byteOffset":232900,
			"target":34963
		},
		{
			"buffer":0,
			"byteLength":1452,
			"byteOffset":241048,
			"target":34962
		},
		{
			"buffer":0,
			"byteLength":1452,
			"byteOffset":242500,
			"target":34962
		},
		{
			"buffer":0,
			"byteLength":968,
			"byteOffset":243952,
			"target":34962
		},
		{
			"buffer":0,
			"byteLength":924,
			"byteOffset":244920,
			"target":34963
		},
		{
			"buffer":0,
			"byteLength":5472,
			"byteOffset":245844,
			"target":34962
		},
		{
			"buffer":0,
			"byteLength":5472,
			"byteOffset":251316,
			"target":34962
		},
		{
			"buffer":0,
			"byteLength":3648,
			"byteOffset":256788,
			"target":34962
		},
		{
			"buffer":0,
			"byteLength":2448,
			"byteOffset":260436,
			"target":34963
		}
	],
	"samplers":[
		{
			"magFilter":9729,
			"minFilter":9987
		}
	],
	"buffers":[
		{
			"byteLength":262884,
			"uri":"M_punk_pose.bin"
		}
	]
}
