{
	"asset":{
		"generator":"Khronos glTF Blender I/O v3.6.27",
		"version":"2.0"
	},
	"scene":0,
	"scenes":[
		{
			"name":"Scene",
			"nodes":[
				0,
				1,
				2,
				3,
				4
			]
		}
	],
	"nodes":[
		{
			"mesh":0,
			"name":"M_skater_feet",
			"rotation":[
				0.70710688829422,
				0,
				0,
				0.7071066498756409
			],
			"scale":[
				0.0189999807626009,
				0.0189999807626009,
				0.0189999807626009
			]
		},
		{
			"mesh":1,
			"name":"M_skater_hat",
			"rotation":[
				0.70710688829422,
				0,
				0,
				0.7071066498756409
			],
			"scale":[
				0.0189999807626009,
				0.0189999807626009,
				0.0189999807626009
			]
		},
		{
			"mesh":2,
			"name":"M_skater_jacket",
			"rotation":[
				0.70710688829422,
				0,
				0,
				0.7071066498756409
			],
			"scale":[
				0.0189999807626009,
				0.0189999807626009,
				0.0189999807626009
			]
		},
		{
			"mesh":3,
			"name":"M_skater_lowerbody",
			"rotation":[
				0.70710688829422,
				0,
				0,
				0.7071066498756409
			],
			"scale":[
				0.0189999807626009,
				0.0189999807626009,
				0.0189999807626009
			]
		},
		{
			"mesh":4,
			"name":"M_skater_upperbody",
			"rotation":[
				0.70710688829422,
				0,
				0,
				0.7071066498756409
			],
			"scale":[
				0.0189999807626009,
				0.0189999807626009,
				0.0189999807626009
			]
		}
	],
	"materials":[
		{
			"doubleSided":true,
			"emissiveFactor":[
				0.05000000074505806,
				0.05000000074505806,
				0.05000000074505806
			],
			"emissiveTexture":{
				"index":0
			},
			"name":"skater_atlas",
			"pbrMetallicRoughness":{
				"baseColorTexture":{
					"index":1
				},
				"metallicFactor":0
			}
		},
		{
			"emissiveFactor":[
				0.020000000596046452,
				0.022000000208616255,
				0.02500000037252903
			],
			"name":"maniqui",
			"pbrMetallicRoughness":{
				"baseColorFactor":[
					0.4000000059604645,
					0.4399999976158142,
					0.5,
					1
				],
				"metallicFactor":0,
				"roughnessFactor":0.5
			}
		},
		{
			"alphaMode":"BLEND",
			"doubleSided":true,
			"emissiveFactor":[
				0.05000000074505806,
				0.05000000074505806,
				0.05000000074505806
			],
			"emissiveTexture":{
				"index":2
			},
			"name":"skater_atlas_alpha",
			"pbrMetallicRoughness":{
				"baseColorTexture":{
					"index":3
				},
				"metallicFactor":0
			}
		}
	],
	"meshes":[
		{
			"name":"Plane.002",
			"primitives":[
				{
					"attributes":{
						"POSITION":0,
						"NORMAL":1,
						"TEXCOORD_0":2
					},
					"indices":3,
					"material":0
				}
			]
		},
		{
			"name":"Sphere.001",
			"primitives":[
				{
					"attributes":{
						"POSITION":4,
						"NORMAL":5,
						"TEXCOORD_0":6,
						"TEXCOORD_1":7
					},
					"indices":8,
					"material":0
				},
				{
					"attributes":{
						"POSITION":9,
						"NORMAL":10,
						"TEXCOORD_0":11,
						"TEXCOORD_1":12
					},
					"indices":13,
					"material":1
				}
			]
		},
		{
			"name":"Mesh.007",
			"primitives":[
				{
					"attributes":{
						"POSITION":14,
						"NORMAL":15,
						"TEXCOORD_0":16,
						"TEXCOORD_1":17
					},
					"indices":18,
					"material":2
				}
			]
		},
		{
			"name":"Mesh.005",
			"primitives":[
				{
					"attributes":{
						"POSITION":19,
						"NORMAL":20,
						"TEXCOORD_0":21,
						"TEXCOORD_1":22
					},
					"indices":23,
					"material":0
				},
				{
					"attributes":{
						"POSITION":24,
						"NORMAL":25,
						"TEXCOORD_0":26,
						"TEXCOORD_1":27
					},
					"indices":28,
					"material":1
				}
			]
		},
		{
			"name":"Mesh.001",
			"primitives":[
				{
					"attributes":{
						"POSITION":29,
						"NORMAL":30,
						"TEXCOORD_0":31,
						"TEXCOORD_1":32
					},
					"indices":33,
					"material":0
				},
				{
					"attributes":{
						"POSITION":34,
						"NORMAL":35,
						"TEXCOORD_0":36,
						"TEXCOORD_1":37
					},
					"indices":38,
					"material":1
				}
			]
		}
	],
	"textures":[
		{
			"sampler":0,
			"source":0
		},
		{
			"sampler":0,
			"source":0
		},
		{
			"sampler":0,
			"source":0
		},
		{
			"sampler":0,
			"source":0
		}
	],
	"images":[
		{
			"mimeType":"image/png",
			"name":"skater_atlas",
			"uri":"textures/skater_atlas.png"
		}
	],
	"accessors":[
		{
			"bufferView":0,
			"componentType":5126,
			"count":1438,
			"max":[
				42.25773239135742,
				25.317964553833008,
				1.4670531749725342
			],
			"min":[
				-20.003154754638672,
				-12.1929349899292,
				-17.540685653686523
			],
			"type":"VEC3"
		},
		{
			"bufferView":1,
			"componentType":5126,
			"count":1438,
			"type":"VEC3"
		},
		{
			"bufferView":2,
			"componentType":5126,
			"count":1438,
			"type":"VEC2"
		},
		{
			"bufferView":3,
			"componentType":5123,
			"count":4500,
			"type":"SCALAR"
		},
		{
			"bufferView":4,
			"componentType":5126,
			"count":344,
			"max":[
				13.16392993927002,
				30.772428512573242,
				-172.92124938964844
			],
			"min":[
				-36.700008392333984,
				-14.123220443725586,
				-199.94847106933594
			],
			"type":"VEC3"
		},
		{
			"bufferView":5,
			"componentType":5126,
			"count":344,
			"type":"VEC3"
		},
		{
			"bufferView":6,
			"componentType":5126,
			"count":344,
			"type":"VEC2"
		},
		{
			"bufferView":7,
			"componentType":5126,
			"count":344,
			"type":"VEC2"
		},
		{
			"bufferView":8,
			"componentType":5123,
			"count":1056,
			"type":"SCALAR"
		},
		{
			"bufferView":9,
			"componentType":5126,
			"count":536,
			"max":[
				11.33994197845459,
				19.88776397705078,
				-145.5791778564453
			],
			"min":[
				-19.26509666442871,
				-12.188581466674805,
				-191.48060607910156
			],
			"type":"VEC3"
		},
		{
			"bufferView":10,
			"componentType":5126,
			"count":536,
			"type":"VEC3"
		},
		{
			"bufferView":11,
			"componentType":5126,
			"count":536,
			"type":"VEC2"
		},
		{
			"bufferView":12,
			"componentType":5126,
			"count":536,
			"type":"VEC2"
		},
		{
			"bufferView":13,
			"componentType":5123,
			"count":2472,
			"type":"SCALAR"
		},
		{
			"bufferView":14,
			"componentType":5126,
			"count":369,
			"max":[
				37.6230583190918,
				21.63416290283203,
				-107.63602447509766
			],
			"min":[
				-46.207611083984375,
				-18.21451187133789,
				-159.3370819091797
			],
			"type":"VEC3"
		},
		{
			"bufferView":15,
			"componentType":5126,
			"count":369,
			"type":"VEC3"
		},
		{
			"bufferView":16,
			"componentType":5126,
			"count":369,
			"type":"VEC2"
		},
		{
			"bufferView":17,
			"componentType":5126,
			"count":369,
			"type":"VEC2"
		},
		{
			"bufferView":18,
			"componentType":5123,
			"count":1350,
			"type":"SCALAR"
		},
		{
			"bufferView":19,
			"componentType":5126,
			"count":1050,
			"max":[
				32.942291259765625,
				19.573251724243164,
				-31.77206039428711
			],
			"min":[
				-23.950408935546875,
				-15.663873672485352,
				-98.80824279785156
			],
			"type":"VEC3"
		},
		{
			"bufferView":20,
			"componentType":5126,
			"count":1050,
			"type":"VEC3"
		},
		{
			"bufferView":21,
			"componentType":5126,
			"count":1050,
			"type":"VEC2"
		},
		{
			"bufferView":22,
			"componentType":5126,
			"count":1050,
			"type":"VEC2"
		},
		{
			"bufferView":23,
			"componentType":5123,
			"count":4236,
			"type":"SCALAR"
		},
		{
			"bufferView":24,
			"componentType":5126,
			"count":90,
			"max":[
				24.806211471557617,
				14.61369514465332,
				-10.485115051269531
			],
			"min":[
				-16.006359100341797,
				-7.20294189453125,
				-33.25053405761719
			],
			"type":"VEC3"
		},
		{
			"bufferView":25,
			"componentType":5126,
			"count":90,
			"type":"VEC3"
		},
		{
			"bufferView":26,
			"componentType":5126,
			"count":90,
			"type":"VEC2"
		},
		{
			"bufferView":27,
			"componentType":5126,
			"count":90,
			"type":"VEC2"
		},
		{
			"bufferView":28,
			"componentType":5123,
			"count":336,
			"type":"SCALAR"
		},
		{
			"bufferView":29,
			"componentType":5126,
			"count":1015,
			"max":[
				34.49013137817383,
				17.649688720703125,
				-94.06615447998047
			],
			"min":[
				-44.20903396606445,
				-15.316852569580078,
				-154.5427703857422
			],
			"type":"VEC3"
		},
		{
			"bufferView":30,
			"componentType":5126,
			"count":1015,
			"type":"VEC3"
		},
		{
			"bufferView":31,
			"componentType":5126,
			"count":1015,
			"type":"VEC2"
		},
		{
			"bufferView":32,
			"componentType":5126,
			"count":1015,
			"type":"VEC2"
		},
		{
			"bufferView":33,
			"componentType":5123,
			"count":3117,
			"type":"SCALAR"
		},
		{
			"bufferView":34,
			"componentType":5126,
			"count":385,
			"max":[
				27.506488800048828,
				14.13115406036377,
				-92.55415344238281
			],
			"min":[
				-31.048553466796875,
				-13.99657154083252,
				-153.86212158203125
			],
			"type":"VEC3"
		},
		{
			"bufferView":35,
			"componentType":5126,
			"count":385,
			"type":"VEC3"
		},
		{
			"bufferView":36,
			"componentType":5126,
			"count":385,
			"type":"VEC2"
		},
		{
			"bufferView":37,
			"componentType":5126,
			"count":385,
			"type":"VEC2"
		},
		{
			"bufferView":38,
			"componentType":5123,
			"count":1437,
			"type":"SCALAR"
		}
	],
	"bufferViews":[
		{
			"buffer":0,
			"byteLength":17256,
			"byteOffset":0,
			"target":34962
		},
		{
			"buffer":0,
			"byteLength":17256,
			"byteOffset":17256,
			"target":34962
		},
		{
			"buffer":0,
			"byteLength":11504,
			"byteOffset":34512,
			"target":34962
		},
		{
			"buffer":0,
			"byteLength":9000,
			"byteOffset":46016,
			"target":34963
		},
		{
			"buffer":0,
			"byteLength":4128,
			"byteOffset":55016,
			"target":34962
		},
		{
			"buffer":0,
			"byteLength":4128,
			"byteOffset":59144,
			"target":34962
		},
		{
			"buffer":0,
			"byteLength":2752,
			"byteOffset":63272,
			"target":34962
		},
		{
			"buffer":0,
			"byteLength":2752,
			"byteOffset":66024,
			"target":34962
		},
		{
			"buffer":0,
			"byteLength":2112,
			"byteOffset":68776,
			"target":34963
		},
		{
			"buffer":0,
			"byteLength":6432,
			"byteOffset":70888,
			"target":34962
		},
		{
			"buffer":0,
			"byteLength":6432,
			"byteOffset":77320,
			"target":34962
		},
		{
			"buffer":0,
			"byteLength":4288,
			"byteOffset":83752,
			"target":34962
		},
		{
			"buffer":0,
			"byteLength":4288,
			"byteOffset":88040,
			"target":34962
		},
		{
			"buffer":0,
			"byteLength":4944,
			"byteOffset":92328,
			"target":34963
		},
		{
			"buffer":0,
			"byteLength":4428,
			"byteOffset":97272,
			"target":34962
		},
		{
			"buffer":0,
			"byteLength":4428,
			"byteOffset":101700,
			"target":34962
		},
		{
			"buffer":0,
			"byteLength":2952,
			"byteOffset":106128,
			"target":34962
		},
		{
			"buffer":0,
			"byteLength":2952,
			"byteOffset":109080,
			"target":34962
		},
		{
			"buffer":0,
			"byteLength":2700,
			"byteOffset":112032,
			"target":34963
		},
		{
			"buffer":0,
			"byteLength":12600,
			"byteOffset":114732,
			"target":34962
		},
		{
			"buffer":0,
			"byteLength":12600,
			"byteOffset":127332,
			"target":34962
		},
		{
			"buffer":0,
			"byteLength":8400,
			"byteOffset":139932,
			"target":34962
		},
		{
			"buffer":0,
			"byteLength":8400,
			"byteOffset":148332,
			"target":34962
		},
		{
			"buffer":0,
			"byteLength":8472,
			"byteOffset":156732,
			"target":34963
		},
		{
			"buffer":0,
			"byteLength":1080,
			"byteOffset":165204,
			"target":34962
		},
		{
			"buffer":0,
			"byteLength":1080,
			"byteOffset":166284,
			"target":34962
		},
		{
			"buffer":0,
			"byteLength":720,
			"byteOffset":167364,
			"target":34962
		},
		{
			"buffer":0,
			"byteLength":720,
			"byteOffset":168084,
			"target":34962
		},
		{
			"buffer":0,
			"byteLength":672,
			"byteOffset":168804,
			"target":34963
		},
		{
			"buffer":0,
			"byteLength":12180,
			"byteOffset":169476,
			"target":34962
		},
		{
			"buffer":0,
			"byteLength":12180,
			"byteOffset":181656,
			"target":34962
		},
		{
			"buffer":0,
			"byteLength":8120,
			"byteOffset":193836,
			"target":34962
		},
		{
			"buffer":0,
			"byteLength":8120,
			"byteOffset":201956,
			"target":34962
		},
		{
			"buffer":0,
			"byteLength":6234,
			"byteOffset":210076,
			"target":34963
		},
		{
			"buffer":0,
			"byteLength":4620,
			"byteOffset":216312,
			"target":34962
		},
		{
			"buffer":0,
			"byteLength":4620,
			"byteOffset":220932,
			"target":34962
		},
		{
			"buffer":0,
			"byteLength":3080,
			"byteOffset":225552,
			"target":34962
		},
		{
			"buffer":0,
			"byteLength":3080,
			"byteOffset":228632,
			"target":34962
		},
		{
			"buffer":0,
			"byteLength":2874,
			"byteOffset":231712,
			"target":34963
		}
	],
	"samplers":[
		{
			"magFilter":9729,
			"minFilter":9987
		}
	],
	"buffers":[
		{
			"byteLength":234588,
			"uri":"M_skater_pose.bin"
		}
	]
}
