# Blender v3.0.1 OBJ File: 'SimpleParts.blend'
# www.blender.org
mtllib basic_cilindro.mtl
o basic_cylinder_glb_Cylinder
v 0.000000 0.243186 -0.512873
v 0.000000 1.268931 -0.512873
v 0.362656 0.243186 -0.362656
v 0.362656 1.268931 -0.362656
v 0.512873 0.243186 0.000000
v 0.512873 1.268931 0.000000
v 0.362656 0.243186 0.362656
v 0.362656 1.268931 0.362656
v -0.000000 0.243186 0.512873
v -0.000000 1.268931 0.512873
v -0.362656 0.243186 0.362656
v -0.362656 1.268931 0.362656
v -0.512873 0.243186 -0.000000
v -0.512873 1.268931 -0.000000
v -0.362656 0.243186 -0.362656
v -0.362656 1.268931 -0.362656
vt 0.108194 0.000000
vt 0.108194 0.399834
vt 0.000000 0.399834
vt 0.000000 0.000000
vt 1.000000 0.000000
vt 1.000000 0.399834
vt 0.891806 0.399834
vt 0.891806 0.000000
vt 0.738796 0.399834
vt 0.738796 0.000000
vt 0.630602 0.399834
vt 0.630602 0.000000
vt 0.477592 0.399834
vt 0.477592 0.000000
vt 0.369398 0.399834
vt 0.369398 0.000000
vt 0.000000 0.661037
vt 0.000000 0.508028
vt 0.108194 0.399834
vt 0.261204 0.399834
vt 0.369398 0.508028
vt 0.369398 0.661037
vt 0.261204 0.769232
vt 0.108194 0.769232
vt 0.261204 0.399834
vt 0.261204 0.000000
vt 0.369398 0.661037
vt 0.369398 0.508028
vt 0.477592 0.399834
vt 0.630602 0.399834
vt 0.738796 0.508028
vt 0.738796 0.661037
vt 0.630602 0.769232
vt 0.477592 0.769232
vn -0.0000 0.0000 -1.0000
vn 0.7071 0.0000 -0.7071
vn 1.0000 0.0000 0.0000
vn 0.7071 0.0000 0.7071
vn 0.0000 0.0000 1.0000
vn -0.7071 0.0000 0.7071
vn -1.0000 0.0000 0.0000
vn 0.0000 1.0000 0.0000
vn -0.7071 0.0000 -0.7071
vn 0.0000 -1.0000 0.0000
usemtl Material
s 1
f 1/1/1 2/2/1 4/3/2 3/4/2
f 3/5/2 4/6/2 6/7/3 5/8/3
f 5/8/3 6/7/3 8/9/4 7/10/4
f 7/10/4 8/9/4 10/11/5 9/12/5
f 9/12/5 10/11/5 12/13/6 11/14/6
f 11/14/6 12/13/6 14/15/7 13/16/7
f 4/17/8 2/18/8 16/19/8 14/20/8 12/21/8 10/22/8 8/23/8 6/24/8
f 13/16/7 14/15/7 16/25/9 15/26/9
f 15/26/9 16/25/9 2/2/1 1/1/1
f 1/27/10 3/28/10 5/29/10 7/30/10 9/31/10 11/32/10 13/33/10 15/34/10
