# Blender v3.0.1 OBJ File: 'SimpleParts.blend'
# www.blender.org
mtllib basic_FLOOR_DPATH.mtl
o Floor_dpath_glb_Cube.020
v -1.990486 0.528021 -2.000000
v -1.990486 0.528021 2.000000
v 1.990486 0.528021 -2.000000
v 1.990486 0.528021 2.000000
v -1.990486 0.303874 -2.000000
v -1.990486 0.303874 2.000000
v 1.990486 0.303874 -2.000000
v 1.990486 0.303874 2.000000
v -0.995243 0.268610 2.000000
v 0.995243 0.268610 2.000000
v 0.000000 0.161159 2.000000
v 0.995243 0.268610 -2.000000
v -0.995243 0.268610 -2.000000
v 0.000000 0.161159 -2.000000
v 0.995243 0.044463 2.000000
v -0.995243 0.044463 2.000000
v 0.000000 -0.062988 2.000000
v -0.995243 0.044463 -2.000000
v 0.995243 0.044463 -2.000000
v 0.000000 -0.062988 -2.000000
vt 0.870838 0.000000
vt 0.995243 0.000000
vt 0.995243 0.500000
vt 0.870837 0.500000
vt 0.622027 0.000000
vt 0.622027 0.500000
vt 0.497621 0.500000
vt 0.497621 0.000000
vt 0.134321 0.624405
vt 0.106302 0.624405
vt 0.073876 0.500000
vt 0.101894 0.500000
vt 0.134321 0.873216
vt 0.101894 0.997622
vt 0.073876 0.997622
vt 0.106302 0.873216
vt 0.373216 0.500000
vt 0.373216 0.000000
vt 0.497622 0.000000
vt 0.497621 0.500000
vt 0.175771 0.500000
vt 0.203789 0.500000
vt 0.203789 1.000000
vt 0.175771 1.000000
vt 0.147752 0.500000
vt 0.175771 0.500000
vt 0.175771 1.000000
vt 0.147752 1.000000
vt 0.000000 0.500000
vt 0.028018 0.500000
vt 0.060445 0.624405
vt 0.032426 0.624405
vt 0.060445 0.873216
vt 0.028018 0.997622
vt 0.000000 0.997622
vt 0.032426 0.873216
vt 0.124405 0.500000
vt 0.124405 0.000000
vt 0.248811 0.000000
vt 0.248811 0.500000
vt 0.746432 0.000000
vt 0.746432 0.500000
vt 0.119734 0.748811
vt 0.147752 0.748811
vt 0.073876 0.748811
vt 0.045858 0.748811
vt 0.000000 0.500000
vt 0.000000 0.000000
vn 0.1803 -0.9836 0.0000
vn 0.2522 -0.9677 0.0000
vn -0.1803 -0.9836 0.0000
vn -0.2522 -0.9677 0.0000
vn 0.0000 0.0000 -1.0000
vn 0.1803 0.9836 0.0000
vn 0.2522 0.9677 0.0000
vn -1.0000 0.0000 0.0000
vn 1.0000 0.0000 0.0000
vn 0.0000 0.0000 1.0000
vn -0.1803 0.9836 0.0000
vn 0.0000 1.0000 0.0000
vn 0.0000 -1.0000 0.0000
vn -0.2522 0.9677 0.0000
usemtl Material
s 1
f 19/1/1 7/2/2 8/3/2 15/4/1
f 18/5/3 16/6/3 6/7/4 5/8/4
f 19/9/5 12/10/5 3/11/5 7/12/5
f 18/13/5 5/14/5 1/15/5 13/16/5
f 9/17/6 13/18/6 1/19/7 2/20/7
f 1/21/8 5/22/8 6/23/8 2/24/8
f 4/25/9 8/26/9 7/27/9 3/28/9
f 2/29/10 6/30/10 16/31/10 9/32/10
f 15/33/10 8/34/10 4/35/10 10/36/10
f 10/37/11 12/38/11 14/39/12 11/40/12
f 11/40/12 14/39/12 13/18/6 9/17/6
f 16/6/3 18/5/3 20/41/13 17/42/13
f 17/42/13 20/41/13 19/1/1 15/4/1
f 18/13/5 13/16/5 14/43/5 20/44/5
f 20/44/5 14/43/5 12/10/5 19/9/5
f 9/32/10 16/31/10 17/45/10 11/46/10
f 11/46/10 17/45/10 15/33/10 10/36/10
f 12/38/11 10/37/11 4/47/14 3/48/14
