{
	"asset":{
		"generator":"Khronos glTF Blender I/O v3.6.27",
		"version":"2.0"
	},
	"scene":0,
	"scenes":[
		{
			"name":"Scene",
			"nodes":[
				0,
				1,
				2,
				3,
				4,
				5,
				6,
				7,
				8,
				9
			]
		}
	],
	"nodes":[
		{
			"mesh":0,
			"name":"F_helmet"
		},
		{
			"mesh":1,
			"name":"F_Head_BaseMesh.002"
		},
		{
			"mesh":2,
			"name":"F_Hair_Standard_01"
		},
		{
			"mesh":3,
			"name":"F_cernunnos_upper_alpha_flipped"
		},
		{
			"mesh":4,
			"name":"F_cernunnos_upper_alpha"
		},
		{
			"mesh":5,
			"name":"F_cernunnos_upper"
		},
		{
			"mesh":6,
			"name":"F_cernunnos_lower_alpha"
		},
		{
			"mesh":7,
			"name":"F_cernunnos_lower"
		},
		{
			"mesh":8,
			"name":"F_cernunnos_feet"
		},
		{
			"mesh":9,
			"name":"ShapeA_Hands_BaseMesh",
			"rotation":[
				0.7071068286895752,
				0,
				0,
				0.7071068286895752
			]
		}
	],
	"materials":[
		{
			"doubleSided":true,
			"emissiveFactor":[
				0.05000000074505806,
				0.05000000074505806,
				0.05000000074505806
			],
			"emissiveTexture":{
				"index":0
			},
			"name":"cernunnos_atlas",
			"pbrMetallicRoughness":{
				"baseColorTexture":{
					"index":1
				},
				"metallicFactor":0
			}
		},
		{
			"emissiveFactor":[
				0.020000000596046452,
				0.022000000208616255,
				0.02500000037252903
			],
			"name":"maniqui",
			"pbrMetallicRoughness":{
				"baseColorFactor":[
					0.4000000059604645,
					0.4399999976158142,
					0.5,
					1
				],
				"metallicFactor":0,
				"roughnessFactor":0.5
			}
		},
		{
			"alphaCutoff":0.5,
			"alphaMode":"MASK",
			"doubleSided":true,
			"emissiveFactor":[
				0.05000000074505806,
				0.05000000074505806,
				0.05000000074505806
			],
			"emissiveTexture":{
				"index":2
			},
			"name":"cernunnos_atlas_alpha",
			"pbrMetallicRoughness":{
				"baseColorTexture":{
					"index":3
				},
				"metallicFactor":0
			}
		}
	],
	"meshes":[
		{
			"name":"Cube.001",
			"primitives":[
				{
					"attributes":{
						"POSITION":0,
						"NORMAL":1,
						"TEXCOORD_0":2
					},
					"indices":3,
					"material":0
				}
			]
		},
		{
			"name":"Mesh.018",
			"primitives":[
				{
					"attributes":{
						"POSITION":4,
						"NORMAL":5,
						"TEXCOORD_0":6
					},
					"indices":7,
					"material":1
				}
			]
		},
		{
			"name":"Mesh.033",
			"primitives":[
				{
					"attributes":{
						"POSITION":8,
						"NORMAL":9,
						"TEXCOORD_0":10
					},
					"indices":11,
					"material":1
				}
			]
		},
		{
			"name":"Mesh.035",
			"primitives":[
				{
					"attributes":{
						"POSITION":12,
						"NORMAL":13,
						"TEXCOORD_0":14
					},
					"indices":15,
					"material":2
				}
			]
		},
		{
			"name":"Mesh.036",
			"primitives":[
				{
					"attributes":{
						"POSITION":16,
						"NORMAL":17,
						"TEXCOORD_0":18
					},
					"indices":19,
					"material":2
				}
			]
		},
		{
			"name":"Mesh.037",
			"primitives":[
				{
					"attributes":{
						"POSITION":20,
						"NORMAL":21,
						"TEXCOORD_0":22
					},
					"indices":23,
					"material":1
				},
				{
					"attributes":{
						"POSITION":24,
						"NORMAL":25,
						"TEXCOORD_0":26
					},
					"indices":27,
					"material":0
				},
				{
					"attributes":{
						"POSITION":28,
						"NORMAL":29,
						"TEXCOORD_0":30
					},
					"indices":31,
					"material":2
				}
			]
		},
		{
			"name":"Mesh.038",
			"primitives":[
				{
					"attributes":{
						"POSITION":32,
						"NORMAL":33,
						"TEXCOORD_0":34
					},
					"indices":35,
					"material":2
				}
			]
		},
		{
			"name":"Mesh.039",
			"primitives":[
				{
					"attributes":{
						"POSITION":36,
						"NORMAL":37,
						"TEXCOORD_0":38
					},
					"indices":39,
					"material":0
				}
			]
		},
		{
			"name":"Mesh.040",
			"primitives":[
				{
					"attributes":{
						"COLOR_0":40,
						"POSITION":41,
						"NORMAL":42,
						"TEXCOORD_0":43
					},
					"indices":44,
					"material":2
				}
			]
		},
		{
			"name":"ShapeA_Hands_BaseMesh",
			"primitives":[
				{
					"attributes":{
						"COLOR_0":45,
						"POSITION":46,
						"NORMAL":47,
						"TEXCOORD_0":48
					},
					"indices":49,
					"material":1
				}
			]
		}
	],
	"textures":[
		{
			"sampler":0,
			"source":0
		},
		{
			"sampler":0,
			"source":0
		},
		{
			"sampler":0,
			"source":0
		},
		{
			"sampler":0,
			"source":0
		}
	],
	"images":[
		{
			"mimeType":"image/png",
			"name":"cernunnos_atlas",
			"uri":"textures/cernunnos_atlas.png"
		}
	],
	"accessors":[
		{
			"bufferView":0,
			"componentType":5126,
			"count":935,
			"max":[
				1.5500118732452393,
				4.446231365203857,
				0.6422309279441833
			],
			"min":[
				-1.461511254310608,
				3.1906039714813232,
				-0.5090187191963196
			],
			"type":"VEC3"
		},
		{
			"bufferView":1,
			"componentType":5126,
			"count":935,
			"type":"VEC3"
		},
		{
			"bufferView":2,
			"componentType":5126,
			"count":935,
			"type":"VEC2"
		},
		{
			"bufferView":3,
			"componentType":5123,
			"count":3108,
			"type":"SCALAR"
		},
		{
			"bufferView":4,
			"componentType":5126,
			"count":349,
			"max":[
				0.28994473814964294,
				3.8932812213897705,
				0.37459322810173035
			],
			"min":[
				-0.28460127115249634,
				3.054314613342285,
				-0.20664018392562866
			],
			"type":"VEC3"
		},
		{
			"bufferView":5,
			"componentType":5126,
			"count":349,
			"type":"VEC3"
		},
		{
			"bufferView":6,
			"componentType":5126,
			"count":349,
			"type":"VEC2"
		},
		{
			"bufferView":7,
			"componentType":5123,
			"count":1680,
			"type":"SCALAR"
		},
		{
			"bufferView":8,
			"componentType":5126,
			"count":277,
			"max":[
				0.28674688935279846,
				3.9421157836914062,
				0.41958776116371155
			],
			"min":[
				-0.2862279415130615,
				3.26334285736084,
				-0.23148582875728607
			],
			"type":"VEC3"
		},
		{
			"bufferView":9,
			"componentType":5126,
			"count":277,
			"type":"VEC3"
		},
		{
			"bufferView":10,
			"componentType":5126,
			"count":277,
			"type":"VEC2"
		},
		{
			"bufferView":11,
			"componentType":5123,
			"count":1440,
			"type":"SCALAR"
		},
		{
			"bufferView":12,
			"componentType":5126,
			"count":84,
			"max":[
				0.6683570146560669,
				3.220886707305908,
				0.39628714323043823
			],
			"min":[
				-0.5590428709983826,
				2.6120381355285645,
				-0.5708955526351929
			],
			"type":"VEC3"
		},
		{
			"bufferView":13,
			"componentType":5126,
			"count":84,
			"type":"VEC3"
		},
		{
			"bufferView":14,
			"componentType":5126,
			"count":84,
			"type":"VEC2"
		},
		{
			"bufferView":15,
			"componentType":5123,
			"count":258,
			"type":"SCALAR"
		},
		{
			"bufferView":16,
			"componentType":5126,
			"count":84,
			"max":[
				0.6683570146560669,
				3.220886707305908,
				0.39628714323043823
			],
			"min":[
				-0.5590428709983826,
				2.6120381355285645,
				-0.5708955526351929
			],
			"type":"VEC3"
		},
		{
			"bufferView":17,
			"componentType":5126,
			"count":84,
			"type":"VEC3"
		},
		{
			"bufferView":18,
			"componentType":5126,
			"count":84,
			"type":"VEC2"
		},
		{
			"bufferView":19,
			"componentType":5123,
			"count":258,
			"type":"SCALAR"
		},
		{
			"bufferView":20,
			"componentType":5126,
			"count":140,
			"max":[
				0.8670153021812439,
				3.1703450679779053,
				0.4197036623954773
			],
			"min":[
				-0.7348363399505615,
				2.341933250427246,
				-0.6901285648345947
			],
			"type":"VEC3"
		},
		{
			"bufferView":21,
			"componentType":5126,
			"count":140,
			"type":"VEC3"
		},
		{
			"bufferView":22,
			"componentType":5126,
			"count":140,
			"type":"VEC2"
		},
		{
			"bufferView":23,
			"componentType":5123,
			"count":642,
			"type":"SCALAR"
		},
		{
			"bufferView":24,
			"componentType":5126,
			"count":941,
			"max":[
				0.973589301109314,
				3.248396635055542,
				0.7645990252494812
			],
			"min":[
				-0.4688975214958191,
				2.0702106952667236,
				-0.4884892404079437
			],
			"type":"VEC3"
		},
		{
			"bufferView":25,
			"componentType":5126,
			"count":941,
			"type":"VEC3"
		},
		{
			"bufferView":26,
			"componentType":5126,
			"count":941,
			"type":"VEC2"
		},
		{
			"bufferView":27,
			"componentType":5123,
			"count":3234,
			"type":"SCALAR"
		},
		{
			"bufferView":28,
			"componentType":5126,
			"count":20,
			"max":[
				0.168545663356781,
				3.0476303100585938,
				0.4249844551086426
			],
			"min":[
				-0.387695848941803,
				2.5898492336273193,
				-0.025690246373414993
			],
			"type":"VEC3"
		},
		{
			"bufferView":29,
			"componentType":5126,
			"count":20,
			"type":"VEC3"
		},
		{
			"bufferView":30,
			"componentType":5126,
			"count":20,
			"type":"VEC2"
		},
		{
			"bufferView":31,
			"componentType":5123,
			"count":60,
			"type":"SCALAR"
		},
		{
			"bufferView":32,
			"componentType":5126,
			"count":328,
			"max":[
				0.43337398767471313,
				2.232710361480713,
				0.6882227659225464
			],
			"min":[
				-0.5322166085243225,
				0.9376896619796753,
				-0.6190389394760132
			],
			"type":"VEC3"
		},
		{
			"bufferView":33,
			"componentType":5126,
			"count":328,
			"type":"VEC3"
		},
		{
			"bufferView":34,
			"componentType":5126,
			"count":328,
			"type":"VEC2"
		},
		{
			"bufferView":35,
			"componentType":5123,
			"count":864,
			"type":"SCALAR"
		},
		{
			"bufferView":36,
			"componentType":5126,
			"count":719,
			"max":[
				0.35835617780685425,
				2.3200674057006836,
				0.6301857829093933
			],
			"min":[
				-0.5031760334968567,
				0.6218303442001343,
				-0.752194344997406
			],
			"type":"VEC3"
		},
		{
			"bufferView":37,
			"componentType":5126,
			"count":719,
			"type":"VEC3"
		},
		{
			"bufferView":38,
			"componentType":5126,
			"count":719,
			"type":"VEC2"
		},
		{
			"bufferView":39,
			"componentType":5123,
			"count":2604,
			"type":"SCALAR"
		},
		{
			"bufferView":40,
			"componentType":5123,
			"count":472,
			"normalized":true,
			"type":"VEC4"
		},
		{
			"bufferView":41,
			"componentType":5126,
			"count":472,
			"max":[
				0.44491663575172424,
				0.734391450881958,
				0.4085204303264618
			],
			"min":[
				-0.48455920815467834,
				0.1847921460866928,
				-0.8907256722450256
			],
			"type":"VEC3"
		},
		{
			"bufferView":42,
			"componentType":5126,
			"count":472,
			"type":"VEC3"
		},
		{
			"bufferView":43,
			"componentType":5126,
			"count":472,
			"type":"VEC2"
		},
		{
			"bufferView":44,
			"componentType":5123,
			"count":1338,
			"type":"SCALAR"
		},
		{
			"bufferView":45,
			"componentType":5123,
			"count":814,
			"normalized":true,
			"type":"VEC4"
		},
		{
			"bufferView":46,
			"componentType":5126,
			"count":814,
			"max":[
				0.97632896900177,
				0.502573549747467,
				-1.9791136980056763
			],
			"min":[
				-0.8144824504852295,
				-0.6045141816139221,
				-2.5238702297210693
			],
			"type":"VEC3"
		},
		{
			"bufferView":47,
			"componentType":5126,
			"count":814,
			"type":"VEC3"
		},
		{
			"bufferView":48,
			"componentType":5126,
			"count":814,
			"type":"VEC2"
		},
		{
			"bufferView":49,
			"componentType":5123,
			"count":3636,
			"type":"SCALAR"
		}
	],
	"bufferViews":[
		{
			"buffer":0,
			"byteLength":11220,
			"byteOffset":0,
			"target":34962
		},
		{
			"buffer":0,
			"byteLength":11220,
			"byteOffset":11220,
			"target":34962
		},
		{
			"buffer":0,
			"byteLength":7480,
			"byteOffset":22440,
			"target":34962
		},
		{
			"buffer":0,
			"byteLength":6216,
			"byteOffset":29920,
			"target":34963
		},
		{
			"buffer":0,
			"byteLength":4188,
			"byteOffset":36136,
			"target":34962
		},
		{
			"buffer":0,
			"byteLength":4188,
			"byteOffset":40324,
			"target":34962
		},
		{
			"buffer":0,
			"byteLength":2792,
			"byteOffset":44512,
			"target":34962
		},
		{
			"buffer":0,
			"byteLength":3360,
			"byteOffset":47304,
			"target":34963
		},
		{
			"buffer":0,
			"byteLength":3324,
			"byteOffset":50664,
			"target":34962
		},
		{
			"buffer":0,
			"byteLength":3324,
			"byteOffset":53988,
			"target":34962
		},
		{
			"buffer":0,
			"byteLength":2216,
			"byteOffset":57312,
			"target":34962
		},
		{
			"buffer":0,
			"byteLength":2880,
			"byteOffset":59528,
			"target":34963
		},
		{
			"buffer":0,
			"byteLength":1008,
			"byteOffset":62408,
			"target":34962
		},
		{
			"buffer":0,
			"byteLength":1008,
			"byteOffset":63416,
			"target":34962
		},
		{
			"buffer":0,
			"byteLength":672,
			"byteOffset":64424,
			"target":34962
		},
		{
			"buffer":0,
			"byteLength":516,
			"byteOffset":65096,
			"target":34963
		},
		{
			"buffer":0,
			"byteLength":1008,
			"byteOffset":65612,
			"target":34962
		},
		{
			"buffer":0,
			"byteLength":1008,
			"byteOffset":66620,
			"target":34962
		},
		{
			"buffer":0,
			"byteLength":672,
			"byteOffset":67628,
			"target":34962
		},
		{
			"buffer":0,
			"byteLength":516,
			"byteOffset":68300,
			"target":34963
		},
		{
			"buffer":0,
			"byteLength":1680,
			"byteOffset":68816,
			"target":34962
		},
		{
			"buffer":0,
			"byteLength":1680,
			"byteOffset":70496,
			"target":34962
		},
		{
			"buffer":0,
			"byteLength":1120,
			"byteOffset":72176,
			"target":34962
		},
		{
			"buffer":0,
			"byteLength":1284,
			"byteOffset":73296,
			"target":34963
		},
		{
			"buffer":0,
			"byteLength":11292,
			"byteOffset":74580,
			"target":34962
		},
		{
			"buffer":0,
			"byteLength":11292,
			"byteOffset":85872,
			"target":34962
		},
		{
			"buffer":0,
			"byteLength":7528,
			"byteOffset":97164,
			"target":34962
		},
		{
			"buffer":0,
			"byteLength":6468,
			"byteOffset":104692,
			"target":34963
		},
		{
			"buffer":0,
			"byteLength":240,
			"byteOffset":111160,
			"target":34962
		},
		{
			"buffer":0,
			"byteLength":240,
			"byteOffset":111400,
			"target":34962
		},
		{
			"buffer":0,
			"byteLength":160,
			"byteOffset":111640,
			"target":34962
		},
		{
			"buffer":0,
			"byteLength":120,
			"byteOffset":111800,
			"target":34963
		},
		{
			"buffer":0,
			"byteLength":3936,
			"byteOffset":111920,
			"target":34962
		},
		{
			"buffer":0,
			"byteLength":3936,
			"byteOffset":115856,
			"target":34962
		},
		{
			"buffer":0,
			"byteLength":2624,
			"byteOffset":119792,
			"target":34962
		},
		{
			"buffer":0,
			"byteLength":1728,
			"byteOffset":122416,
			"target":34963
		},
		{
			"buffer":0,
			"byteLength":8628,
			"byteOffset":124144,
			"target":34962
		},
		{
			"buffer":0,
			"byteLength":8628,
			"byteOffset":132772,
			"target":34962
		},
		{
			"buffer":0,
			"byteLength":5752,
			"byteOffset":141400,
			"target":34962
		},
		{
			"buffer":0,
			"byteLength":5208,
			"byteOffset":147152,
			"target":34963
		},
		{
			"buffer":0,
			"byteLength":3776,
			"byteOffset":152360,
			"target":34962
		},
		{
			"buffer":0,
			"byteLength":5664,
			"byteOffset":156136,
			"target":34962
		},
		{
			"buffer":0,
			"byteLength":5664,
			"byteOffset":161800,
			"target":34962
		},
		{
			"buffer":0,
			"byteLength":3776,
			"byteOffset":167464,
			"target":34962
		},
		{
			"buffer":0,
			"byteLength":2676,
			"byteOffset":171240,
			"target":34963
		},
		{
			"buffer":0,
			"byteLength":6512,
			"byteOffset":173916,
			"target":34962
		},
		{
			"buffer":0,
			"byteLength":9768,
			"byteOffset":180428,
			"target":34962
		},
		{
			"buffer":0,
			"byteLength":9768,
			"byteOffset":190196,
			"target":34962
		},
		{
			"buffer":0,
			"byteLength":6512,
			"byteOffset":199964,
			"target":34962
		},
		{
			"buffer":0,
			"byteLength":7272,
			"byteOffset":206476,
			"target":34963
		}
	],
	"samplers":[
		{
			"magFilter":9729,
			"minFilter":9987
		}
	],
	"buffers":[
		{
			"byteLength":213748,
			"uri":"F_cernunnos_pose.bin"
		}
	]
}
