{
	"asset":{
		"generator":"Khronos glTF Blender I/O v3.6.27",
		"version":"2.0"
	},
	"scene":0,
	"scenes":[
		{
			"name":"Scene",
			"nodes":[
				0,
				1,
				2,
				3,
				4,
				5,
				6
			]
		}
	],
	"nodes":[
		{
			"mesh":0,
			"name":"F_Feet_DEA",
			"scale":[
				1.899999976158142,
				1.899999976158142,
				1.899999976158142
			]
		},
		{
			"mesh":1,
			"name":"F_LOWERBODY_DEA",
			"scale":[
				1.899999976158142,
				1.899999976158142,
				1.899999976158142
			]
		},
		{
			"mesh":2,
			"name":"F_TIARA_DEA",
			"scale":[
				1.899999976158142,
				1.899999976158142,
				1.899999976158142
			]
		},
		{
			"mesh":3,
			"name":"F_UPPERBODY_DEA",
			"scale":[
				1.899999976158142,
				1.899999976158142,
				1.899999976158142
			]
		},
		{
			"mesh":4,
			"name":"M_Hair_Standard_01.004",
			"rotation":[
				0.70710688829422,
				0,
				0,
				0.7071066498756409
			],
			"scale":[
				0.01899999938905239,
				0.018999995663762093,
				0.018999995663762093
			]
		},
		{
			"mesh":5,
			"name":"ShapeA_Hands_BaseMesh.006",
			"rotation":[
				0.7071068286895752,
				0,
				0,
				0.7071068286895752
			]
		},
		{
			"mesh":6,
			"name":"F_Head_BaseMesh.001"
		}
	],
	"materials":[
		{
			"emissiveFactor":[
				0.020000000596046452,
				0.022000000208616255,
				0.02500000037252903
			],
			"name":"maniqui",
			"pbrMetallicRoughness":{
				"baseColorFactor":[
					0.4000000059604645,
					0.4399999976158142,
					0.5,
					1
				],
				"metallicFactor":0,
				"roughnessFactor":0.5
			}
		},
		{
			"alphaCutoff":0.5,
			"alphaMode":"MASK",
			"doubleSided":true,
			"emissiveFactor":[
				0.05000000074505806,
				0.05000000074505806,
				0.05000000074505806
			],
			"emissiveTexture":{
				"index":0
			},
			"name":"dea_matrona_atlas_alpha",
			"pbrMetallicRoughness":{
				"baseColorTexture":{
					"index":1
				},
				"metallicFactor":0
			}
		},
		{
			"doubleSided":true,
			"emissiveFactor":[
				0.05000000074505806,
				0.05000000074505806,
				0.05000000074505806
			],
			"emissiveTexture":{
				"index":2
			},
			"name":"dea_matrona_atlas",
			"pbrMetallicRoughness":{
				"baseColorTexture":{
					"index":3
				},
				"metallicFactor":0
			}
		}
	],
	"meshes":[
		{
			"name":"Mesh.059",
			"primitives":[
				{
					"attributes":{
						"COLOR_0":0,
						"POSITION":1,
						"NORMAL":2,
						"TEXCOORD_0":3
					},
					"indices":4,
					"material":0
				},
				{
					"attributes":{
						"COLOR_0":5,
						"POSITION":6,
						"NORMAL":7,
						"TEXCOORD_0":8
					},
					"indices":9,
					"material":1
				}
			]
		},
		{
			"name":"Mesh.058",
			"primitives":[
				{
					"attributes":{
						"POSITION":10,
						"NORMAL":11,
						"TEXCOORD_0":12,
						"TEXCOORD_1":13
					},
					"indices":14,
					"material":0
				},
				{
					"attributes":{
						"POSITION":15,
						"NORMAL":16,
						"TEXCOORD_0":17,
						"TEXCOORD_1":18
					},
					"indices":19,
					"material":2
				}
			]
		},
		{
			"name":"Mesh",
			"primitives":[
				{
					"attributes":{
						"POSITION":20,
						"NORMAL":21,
						"TEXCOORD_0":22
					},
					"indices":23,
					"material":2
				}
			]
		},
		{
			"name":"Mesh.057",
			"primitives":[
				{
					"attributes":{
						"POSITION":24,
						"NORMAL":25,
						"TEXCOORD_0":26
					},
					"indices":27,
					"material":0
				},
				{
					"attributes":{
						"POSITION":28,
						"NORMAL":29,
						"TEXCOORD_0":30
					},
					"indices":31,
					"material":2
				},
				{
					"attributes":{
						"POSITION":32,
						"NORMAL":33,
						"TEXCOORD_0":34
					},
					"indices":35,
					"material":1
				}
			]
		},
		{
			"name":"Mesh.060",
			"primitives":[
				{
					"attributes":{
						"POSITION":36,
						"NORMAL":37,
						"TEXCOORD_0":38
					},
					"indices":39,
					"material":0
				}
			]
		},
		{
			"name":"ShapeA_Hands_BaseMesh.007",
			"primitives":[
				{
					"attributes":{
						"COLOR_0":40,
						"POSITION":41,
						"NORMAL":42,
						"TEXCOORD_0":43
					},
					"indices":44,
					"material":0
				}
			]
		},
		{
			"name":"Mesh.077",
			"primitives":[
				{
					"attributes":{
						"POSITION":45,
						"NORMAL":46,
						"TEXCOORD_0":47
					},
					"indices":48,
					"material":0
				}
			]
		}
	],
	"textures":[
		{
			"sampler":0,
			"source":0
		},
		{
			"sampler":0,
			"source":1
		},
		{
			"sampler":0,
			"source":1
		},
		{
			"sampler":0,
			"source":1
		}
	],
	"images":[
		{
			"mimeType":"image/png",
			"name":"cernunnos_atlas",
			"uri":"textures/cernunnos_atlas.png"
		},
		{
			"mimeType":"image/png",
			"name":"dea_matrona_atlas",
			"uri":"textures/dea_matrona_atlas.png"
		}
	],
	"accessors":[
		{
			"bufferView":0,
			"componentType":5123,
			"count":260,
			"normalized":true,
			"type":"VEC4"
		},
		{
			"bufferView":1,
			"componentType":5126,
			"count":260,
			"max":[
				0.2076190859079361,
				0.3916831910610199,
				0.18251186609268188
			],
			"min":[
				-0.21252620220184326,
				0.14491064846515656,
				-0.443541944026947
			],
			"type":"VEC3"
		},
		{
			"bufferView":2,
			"componentType":5126,
			"count":260,
			"type":"VEC3"
		},
		{
			"bufferView":3,
			"componentType":5126,
			"count":260,
			"type":"VEC2"
		},
		{
			"bufferView":4,
			"componentType":5123,
			"count":954,
			"type":"SCALAR"
		},
		{
			"bufferView":5,
			"componentType":5123,
			"count":458,
			"normalized":true,
			"type":"VEC4"
		},
		{
			"bufferView":6,
			"componentType":5126,
			"count":458,
			"max":[
				0.21480692923069,
				0.37263211607933044,
				0.1728578358888626
			],
			"min":[
				-0.22074127197265625,
				0.12750549614429474,
				-0.4576805531978607
			],
			"type":"VEC3"
		},
		{
			"bufferView":7,
			"componentType":5126,
			"count":458,
			"type":"VEC3"
		},
		{
			"bufferView":8,
			"componentType":5126,
			"count":458,
			"type":"VEC2"
		},
		{
			"bufferView":9,
			"componentType":5123,
			"count":1230,
			"type":"SCALAR"
		},
		{
			"bufferView":10,
			"componentType":5126,
			"count":146,
			"max":[
				0.17841455340385437,
				0.9465922117233276,
				0.29601046442985535
			],
			"min":[
				-0.2503397464752197,
				0.3311295211315155,
				-0.3961302936077118
			],
			"type":"VEC3"
		},
		{
			"bufferView":11,
			"componentType":5126,
			"count":146,
			"type":"VEC3"
		},
		{
			"bufferView":12,
			"componentType":5126,
			"count":146,
			"type":"VEC2"
		},
		{
			"bufferView":13,
			"componentType":5126,
			"count":146,
			"type":"VEC2"
		},
		{
			"bufferView":14,
			"componentType":5123,
			"count":528,
			"type":"SCALAR"
		},
		{
			"bufferView":15,
			"componentType":5126,
			"count":815,
			"max":[
				0.21777497231960297,
				1.1954238414764404,
				0.34330323338508606
			],
			"min":[
				-0.26866233348846436,
				0.5761914849281311,
				-0.24879013001918793
			],
			"type":"VEC3"
		},
		{
			"bufferView":16,
			"componentType":5126,
			"count":815,
			"type":"VEC3"
		},
		{
			"bufferView":17,
			"componentType":5126,
			"count":815,
			"type":"VEC2"
		},
		{
			"bufferView":18,
			"componentType":5126,
			"count":815,
			"type":"VEC2"
		},
		{
			"bufferView":19,
			"componentType":5123,
			"count":2538,
			"type":"SCALAR"
		},
		{
			"bufferView":20,
			"componentType":5126,
			"count":686,
			"max":[
				0.18763300776481628,
				2.1186158657073975,
				0.24493248760700226
			],
			"min":[
				-0.1937575340270996,
				1.9316229820251465,
				-0.14293405413627625
			],
			"type":"VEC3"
		},
		{
			"bufferView":21,
			"componentType":5126,
			"count":686,
			"type":"VEC3"
		},
		{
			"bufferView":22,
			"componentType":5126,
			"count":686,
			"type":"VEC2"
		},
		{
			"bufferView":23,
			"componentType":5123,
			"count":2532,
			"type":"SCALAR"
		},
		{
			"bufferView":24,
			"componentType":5126,
			"count":293,
			"max":[
				0.45416364073753357,
				1.6799219846725464,
				0.21800510585308075
			],
			"min":[
				-0.38443899154663086,
				1.1694815158843994,
				-0.35909420251846313
			],
			"type":"VEC3"
		},
		{
			"bufferView":25,
			"componentType":5126,
			"count":293,
			"type":"VEC3"
		},
		{
			"bufferView":26,
			"componentType":5126,
			"count":293,
			"type":"VEC2"
		},
		{
			"bufferView":27,
			"componentType":5123,
			"count":888,
			"type":"SCALAR"
		},
		{
			"bufferView":28,
			"componentType":5126,
			"count":421,
			"max":[
				0.17010879516601562,
				1.676009178161621,
				0.20849832892417908
			],
			"min":[
				-0.18904054164886475,
				1.1694815158843994,
				-0.13080619275569916
			],
			"type":"VEC3"
		},
		{
			"bufferView":29,
			"componentType":5126,
			"count":421,
			"type":"VEC3"
		},
		{
			"bufferView":30,
			"componentType":5126,
			"count":421,
			"type":"VEC2"
		},
		{
			"bufferView":31,
			"componentType":5123,
			"count":1548,
			"type":"SCALAR"
		},
		{
			"bufferView":32,
			"componentType":5126,
			"count":90,
			"max":[
				0.4422000050544739,
				1.6398240327835083,
				0.17604616284370422
			],
			"min":[
				-0.32904404401779175,
				1.3191640377044678,
				-0.3659491539001465
			],
			"type":"VEC3"
		},
		{
			"bufferView":33,
			"componentType":5126,
			"count":90,
			"type":"VEC3"
		},
		{
			"bufferView":34,
			"componentType":5126,
			"count":90,
			"type":"VEC2"
		},
		{
			"bufferView":35,
			"componentType":5123,
			"count":312,
			"type":"SCALAR"
		},
		{
			"bufferView":36,
			"componentType":5126,
			"count":277,
			"max":[
				15.09194278717041,
				22.083547592163086,
				-171.75494384765625
			],
			"min":[
				-15.064627647399902,
				-12.183493614196777,
				-207.47982788085938
			],
			"type":"VEC3"
		},
		{
			"bufferView":37,
			"componentType":5126,
			"count":277,
			"type":"VEC3"
		},
		{
			"bufferView":38,
			"componentType":5126,
			"count":277,
			"type":"VEC2"
		},
		{
			"bufferView":39,
			"componentType":5123,
			"count":1440,
			"type":"SCALAR"
		},
		{
			"bufferView":40,
			"componentType":5123,
			"count":814,
			"normalized":true,
			"type":"VEC4"
		},
		{
			"bufferView":41,
			"componentType":5126,
			"count":814,
			"max":[
				0.97632896900177,
				0.502573549747467,
				-1.9791136980056763
			],
			"min":[
				-0.8144824504852295,
				-0.6045141816139221,
				-2.5238702297210693
			],
			"type":"VEC3"
		},
		{
			"bufferView":42,
			"componentType":5126,
			"count":814,
			"type":"VEC3"
		},
		{
			"bufferView":43,
			"componentType":5126,
			"count":814,
			"type":"VEC2"
		},
		{
			"bufferView":44,
			"componentType":5123,
			"count":3636,
			"type":"SCALAR"
		},
		{
			"bufferView":45,
			"componentType":5126,
			"count":344,
			"max":[
				0.2916004955768585,
				3.8923654556274414,
				0.36824697256088257
			],
			"min":[
				-0.2876599133014679,
				3.0533993244171143,
				-0.20668897032737732
			],
			"type":"VEC3"
		},
		{
			"bufferView":46,
			"componentType":5126,
			"count":344,
			"type":"VEC3"
		},
		{
			"bufferView":47,
			"componentType":5126,
			"count":344,
			"type":"VEC2"
		},
		{
			"bufferView":48,
			"componentType":5123,
			"count":1668,
			"type":"SCALAR"
		}
	],
	"bufferViews":[
		{
			"buffer":0,
			"byteLength":2080,
			"byteOffset":0,
			"target":34962
		},
		{
			"buffer":0,
			"byteLength":3120,
			"byteOffset":2080,
			"target":34962
		},
		{
			"buffer":0,
			"byteLength":3120,
			"byteOffset":5200,
			"target":34962
		},
		{
			"buffer":0,
			"byteLength":2080,
			"byteOffset":8320,
			"target":34962
		},
		{
			"buffer":0,
			"byteLength":1908,
			"byteOffset":10400,
			"target":34963
		},
		{
			"buffer":0,
			"byteLength":3664,
			"byteOffset":12308,
			"target":34962
		},
		{
			"buffer":0,
			"byteLength":5496,
			"byteOffset":15972,
			"target":34962
		},
		{
			"buffer":0,
			"byteLength":5496,
			"byteOffset":21468,
			"target":34962
		},
		{
			"buffer":0,
			"byteLength":3664,
			"byteOffset":26964,
			"target":34962
		},
		{
			"buffer":0,
			"byteLength":2460,
			"byteOffset":30628,
			"target":34963
		},
		{
			"buffer":0,
			"byteLength":1752,
			"byteOffset":33088,
			"target":34962
		},
		{
			"buffer":0,
			"byteLength":1752,
			"byteOffset":34840,
			"target":34962
		},
		{
			"buffer":0,
			"byteLength":1168,
			"byteOffset":36592,
			"target":34962
		},
		{
			"buffer":0,
			"byteLength":1168,
			"byteOffset":37760,
			"target":34962
		},
		{
			"buffer":0,
			"byteLength":1056,
			"byteOffset":38928,
			"target":34963
		},
		{
			"buffer":0,
			"byteLength":9780,
			"byteOffset":39984,
			"target":34962
		},
		{
			"buffer":0,
			"byteLength":9780,
			"byteOffset":49764,
			"target":34962
		},
		{
			"buffer":0,
			"byteLength":6520,
			"byteOffset":59544,
			"target":34962
		},
		{
			"buffer":0,
			"byteLength":6520,
			"byteOffset":66064,
			"target":34962
		},
		{
			"buffer":0,
			"byteLength":5076,
			"byteOffset":72584,
			"target":34963
		},
		{
			"buffer":0,
			"byteLength":8232,
			"byteOffset":77660,
			"target":34962
		},
		{
			"buffer":0,
			"byteLength":8232,
			"byteOffset":85892,
			"target":34962
		},
		{
			"buffer":0,
			"byteLength":5488,
			"byteOffset":94124,
			"target":34962
		},
		{
			"buffer":0,
			"byteLength":5064,
			"byteOffset":99612,
			"target":34963
		},
		{
			"buffer":0,
			"byteLength":3516,
			"byteOffset":104676,
			"target":34962
		},
		{
			"buffer":0,
			"byteLength":3516,
			"byteOffset":108192,
			"target":34962
		},
		{
			"buffer":0,
			"byteLength":2344,
			"byteOffset":111708,
			"target":34962
		},
		{
			"buffer":0,
			"byteLength":1776,
			"byteOffset":114052,
			"target":34963
		},
		{
			"buffer":0,
			"byteLength":5052,
			"byteOffset":115828,
			"target":34962
		},
		{
			"buffer":0,
			"byteLength":5052,
			"byteOffset":120880,
			"target":34962
		},
		{
			"buffer":0,
			"byteLength":3368,
			"byteOffset":125932,
			"target":34962
		},
		{
			"buffer":0,
			"byteLength":3096,
			"byteOffset":129300,
			"target":34963
		},
		{
			"buffer":0,
			"byteLength":1080,
			"byteOffset":132396,
			"target":34962
		},
		{
			"buffer":0,
			"byteLength":1080,
			"byteOffset":133476,
			"target":34962
		},
		{
			"buffer":0,
			"byteLength":720,
			"byteOffset":134556,
			"target":34962
		},
		{
			"buffer":0,
			"byteLength":624,
			"byteOffset":135276,
			"target":34963
		},
		{
			"buffer":0,
			"byteLength":3324,
			"byteOffset":135900,
			"target":34962
		},
		{
			"buffer":0,
			"byteLength":3324,
			"byteOffset":139224,
			"target":34962
		},
		{
			"buffer":0,
			"byteLength":2216,
			"byteOffset":142548,
			"target":34962
		},
		{
			"buffer":0,
			"byteLength":2880,
			"byteOffset":144764,
			"target":34963
		},
		{
			"buffer":0,
			"byteLength":6512,
			"byteOffset":147644,
			"target":34962
		},
		{
			"buffer":0,
			"byteLength":9768,
			"byteOffset":154156,
			"target":34962
		},
		{
			"buffer":0,
			"byteLength":9768,
			"byteOffset":163924,
			"target":34962
		},
		{
			"buffer":0,
			"byteLength":6512,
			"byteOffset":173692,
			"target":34962
		},
		{
			"buffer":0,
			"byteLength":7272,
			"byteOffset":180204,
			"target":34963
		},
		{
			"buffer":0,
			"byteLength":4128,
			"byteOffset":187476,
			"target":34962
		},
		{
			"buffer":0,
			"byteLength":4128,
			"byteOffset":191604,
			"target":34962
		},
		{
			"buffer":0,
			"byteLength":2752,
			"byteOffset":195732,
			"target":34962
		},
		{
			"buffer":0,
			"byteLength":3336,
			"byteOffset":198484,
			"target":34963
		}
	],
	"samplers":[
		{
			"magFilter":9729,
			"minFilter":9987
		}
	],
	"buffers":[
		{
			"byteLength":201820,
			"uri":"F_dea_matrona_pose.bin"
		}
	]
}
