{
	"asset":{
		"generator":"Khronos glTF Blender I/O v3.6.27",
		"version":"2.0"
	},
	"scene":0,
	"scenes":[
		{
			"name":"Scene",
			"nodes":[
				0,
				1,
				2,
				3,
				4,
				5,
				6,
				7
			]
		}
	],
	"nodes":[
		{
			"mesh":0,
			"name":"F_Head_BaseMesh.003",
			"rotation":[
				0.70710688829422,
				0,
				0,
				0.7071066498756409
			]
		},
		{
			"mesh":1,
			"name":"F_Hair_Standard_01.001",
			"rotation":[
				0.70710688829422,
				0,
				0,
				0.7071066498756409
			]
		},
		{
			"mesh":2,
			"name":"F_epona_upper_tatoo",
			"rotation":[
				0.70710688829422,
				0,
				0,
				0.7071066498756409
			]
		},
		{
			"mesh":3,
			"name":"F_epona_upper",
			"rotation":[
				0.70710688829422,
				0,
				0,
				0.7071066498756409
			]
		},
		{
			"mesh":4,
			"name":"F_epona_lower"
		},
		{
			"mesh":5,
			"name":"F_epona_helmet"
		},
		{
			"mesh":6,
			"name":"F_epona_feet"
		},
		{
			"mesh":7,
			"name":"ShapeA_Hands_BaseMesh.002",
			"rotation":[
				0.7071068286895752,
				0,
				0,
				0.7071068286895752
			]
		}
	],
	"materials":[
		{
			"emissiveFactor":[
				0.020000000596046452,
				0.022000000208616255,
				0.02500000037252903
			],
			"name":"maniqui",
			"pbrMetallicRoughness":{
				"baseColorFactor":[
					0.4000000059604645,
					0.4399999976158142,
					0.5,
					1
				],
				"metallicFactor":0,
				"roughnessFactor":0.5
			}
		},
		{
			"alphaCutoff":0.5,
			"alphaMode":"MASK",
			"doubleSided":true,
			"emissiveFactor":[
				0.05000000074505806,
				0.05000000074505806,
				0.05000000074505806
			],
			"emissiveTexture":{
				"index":0
			},
			"name":"epona_atlas_alpha",
			"pbrMetallicRoughness":{
				"baseColorTexture":{
					"index":1
				},
				"metallicFactor":0
			}
		},
		{
			"doubleSided":true,
			"emissiveFactor":[
				0.05000000074505806,
				0.05000000074505806,
				0.05000000074505806
			],
			"emissiveTexture":{
				"index":2
			},
			"name":"epona_atlas",
			"pbrMetallicRoughness":{
				"baseColorTexture":{
					"index":3
				},
				"metallicFactor":0
			}
		}
	],
	"meshes":[
		{
			"name":"Mesh.005",
			"primitives":[
				{
					"attributes":{
						"POSITION":0,
						"NORMAL":1,
						"TEXCOORD_0":2
					},
					"indices":3,
					"material":0
				}
			]
		},
		{
			"name":"Mesh.020",
			"primitives":[
				{
					"attributes":{
						"POSITION":4,
						"NORMAL":5,
						"TEXCOORD_0":6
					},
					"indices":7,
					"material":0
				}
			]
		},
		{
			"name":"Mesh.021",
			"primitives":[
				{
					"attributes":{
						"POSITION":8,
						"NORMAL":9,
						"TEXCOORD_0":10
					},
					"indices":11,
					"material":1
				}
			]
		},
		{
			"name":"Mesh.024",
			"primitives":[
				{
					"attributes":{
						"POSITION":12,
						"NORMAL":13,
						"TEXCOORD_0":14,
						"TEXCOORD_1":15,
						"TEXCOORD_2":16
					},
					"indices":17,
					"material":0
				},
				{
					"attributes":{
						"POSITION":18,
						"NORMAL":19,
						"TEXCOORD_0":20,
						"TEXCOORD_1":21,
						"TEXCOORD_2":22
					},
					"indices":23,
					"material":2
				}
			]
		},
		{
			"name":"mesh.003",
			"primitives":[
				{
					"attributes":{
						"POSITION":24,
						"NORMAL":25,
						"TEXCOORD_0":26
					},
					"indices":27,
					"material":2
				}
			]
		},
		{
			"name":"Circle.003",
			"primitives":[
				{
					"attributes":{
						"POSITION":28,
						"NORMAL":29,
						"TEXCOORD_0":30
					},
					"indices":31,
					"material":2
				}
			]
		},
		{
			"name":"Mesh.048",
			"primitives":[
				{
					"attributes":{
						"COLOR_0":32,
						"POSITION":33,
						"NORMAL":34,
						"TEXCOORD_0":35
					},
					"indices":36,
					"material":2
				}
			]
		},
		{
			"name":"ShapeA_Hands_BaseMesh.001",
			"primitives":[
				{
					"attributes":{
						"COLOR_0":37,
						"POSITION":38,
						"NORMAL":39,
						"TEXCOORD_0":40
					},
					"indices":41,
					"material":0
				}
			]
		}
	],
	"textures":[
		{
			"sampler":0,
			"source":0
		},
		{
			"sampler":0,
			"source":1
		},
		{
			"sampler":0,
			"source":1
		},
		{
			"sampler":0,
			"source":1
		}
	],
	"images":[
		{
			"mimeType":"image/png",
			"name":"cernunnos_atlas",
			"uri":"textures/cernunnos_atlas.png"
		},
		{
			"mimeType":"image/png",
			"name":"epona_atlas",
			"uri":"textures/epona_atlas.png"
		}
	],
	"accessors":[
		{
			"bufferView":0,
			"componentType":5126,
			"count":349,
			"max":[
				0.28994473814964294,
				0.374592661857605,
				-3.054314613342285
			],
			"min":[
				-0.28460127115249634,
				-0.20664077997207642,
				-3.8932812213897705
			],
			"type":"VEC3"
		},
		{
			"bufferView":1,
			"componentType":5126,
			"count":349,
			"type":"VEC3"
		},
		{
			"bufferView":2,
			"componentType":5126,
			"count":349,
			"type":"VEC2"
		},
		{
			"bufferView":3,
			"componentType":5123,
			"count":1680,
			"type":"SCALAR"
		},
		{
			"bufferView":4,
			"componentType":5126,
			"count":168,
			"max":[
				0.27188199758529663,
				0.3769257664680481,
				-3.2634963989257812
			],
			"min":[
				-0.2817792594432831,
				-0.10212381929159164,
				-3.6240715980529785
			],
			"type":"VEC3"
		},
		{
			"bufferView":5,
			"componentType":5126,
			"count":168,
			"type":"VEC3"
		},
		{
			"bufferView":6,
			"componentType":5126,
			"count":168,
			"type":"VEC2"
		},
		{
			"bufferView":7,
			"componentType":5123,
			"count":501,
			"type":"SCALAR"
		},
		{
			"bufferView":8,
			"componentType":5126,
			"count":231,
			"max":[
				0.8766040205955505,
				0.42730194330215454,
				-2.338188648223877
			],
			"min":[
				-0.7424482703208923,
				-0.6879433989524841,
				-3.200174570083618
			],
			"type":"VEC3"
		},
		{
			"bufferView":9,
			"componentType":5126,
			"count":231,
			"type":"VEC3"
		},
		{
			"bufferView":10,
			"componentType":5126,
			"count":231,
			"type":"VEC2"
		},
		{
			"bufferView":11,
			"componentType":5123,
			"count":888,
			"type":"SCALAR"
		},
		{
			"bufferView":12,
			"componentType":5126,
			"count":285,
			"max":[
				0.8670166730880737,
				0.4197055697441101,
				-2.2142157554626465
			],
			"min":[
				-0.7348386645317078,
				-0.6826557517051697,
				-3.192767381668091
			],
			"type":"VEC3"
		},
		{
			"bufferView":13,
			"componentType":5126,
			"count":285,
			"type":"VEC3"
		},
		{
			"bufferView":14,
			"componentType":5126,
			"count":285,
			"type":"VEC2"
		},
		{
			"bufferView":15,
			"componentType":5126,
			"count":285,
			"type":"VEC2"
		},
		{
			"bufferView":16,
			"componentType":5126,
			"count":285,
			"type":"VEC2"
		},
		{
			"bufferView":17,
			"componentType":5123,
			"count":1002,
			"type":"SCALAR"
		},
		{
			"bufferView":18,
			"componentType":5126,
			"count":570,
			"max":[
				0.31800398230552673,
				0.3691329061985016,
				-2.2142157554626465
			],
			"min":[
				-0.36492520570755005,
				-0.26190948486328125,
				-3.187765121459961
			],
			"type":"VEC3"
		},
		{
			"bufferView":19,
			"componentType":5126,
			"count":570,
			"type":"VEC3"
		},
		{
			"bufferView":20,
			"componentType":5126,
			"count":570,
			"type":"VEC2"
		},
		{
			"bufferView":21,
			"componentType":5126,
			"count":570,
			"type":"VEC2"
		},
		{
			"bufferView":22,
			"componentType":5126,
			"count":570,
			"type":"VEC2"
		},
		{
			"bufferView":23,
			"componentType":5123,
			"count":1836,
			"type":"SCALAR"
		},
		{
			"bufferView":24,
			"componentType":5126,
			"count":1248,
			"max":[
				0.4291335642337799,
				2.34366774559021,
				0.6423495411872864
			],
			"min":[
				-0.5276750922203064,
				0.6279290318489075,
				-0.7538477182388306
			],
			"type":"VEC3"
		},
		{
			"bufferView":25,
			"componentType":5126,
			"count":1248,
			"type":"VEC3"
		},
		{
			"bufferView":26,
			"componentType":5126,
			"count":1248,
			"type":"VEC2"
		},
		{
			"bufferView":27,
			"componentType":5123,
			"count":5154,
			"type":"SCALAR"
		},
		{
			"bufferView":28,
			"componentType":5126,
			"count":940,
			"max":[
				0.4997991621494293,
				4.159439563751221,
				0.44141238927841187
			],
			"min":[
				-0.4672212600708008,
				3.2523863315582275,
				-0.39917802810668945
			],
			"type":"VEC3"
		},
		{
			"bufferView":29,
			"componentType":5126,
			"count":940,
			"type":"VEC3"
		},
		{
			"bufferView":30,
			"componentType":5126,
			"count":940,
			"type":"VEC2"
		},
		{
			"bufferView":31,
			"componentType":5123,
			"count":3126,
			"type":"SCALAR"
		},
		{
			"bufferView":32,
			"componentType":5123,
			"count":1146,
			"normalized":true,
			"type":"VEC4"
		},
		{
			"bufferView":33,
			"componentType":5126,
			"count":1146,
			"max":[
				0.4002925753593445,
				0.7608739733695984,
				0.327505886554718
			],
			"min":[
				-0.4168510437011719,
				0.22439855337142944,
				-0.8856117129325867
			],
			"type":"VEC3"
		},
		{
			"bufferView":34,
			"componentType":5126,
			"count":1146,
			"type":"VEC3"
		},
		{
			"bufferView":35,
			"componentType":5126,
			"count":1146,
			"type":"VEC2"
		},
		{
			"bufferView":36,
			"componentType":5123,
			"count":3708,
			"type":"SCALAR"
		},
		{
			"bufferView":37,
			"componentType":5123,
			"count":814,
			"normalized":true,
			"type":"VEC4"
		},
		{
			"bufferView":38,
			"componentType":5126,
			"count":814,
			"max":[
				0.97632896900177,
				0.502573549747467,
				-1.9791136980056763
			],
			"min":[
				-0.8144824504852295,
				-0.6045141816139221,
				-2.5238702297210693
			],
			"type":"VEC3"
		},
		{
			"bufferView":39,
			"componentType":5126,
			"count":814,
			"type":"VEC3"
		},
		{
			"bufferView":40,
			"componentType":5126,
			"count":814,
			"type":"VEC2"
		},
		{
			"bufferView":41,
			"componentType":5123,
			"count":3636,
			"type":"SCALAR"
		}
	],
	"bufferViews":[
		{
			"buffer":0,
			"byteLength":4188,
			"byteOffset":0,
			"target":34962
		},
		{
			"buffer":0,
			"byteLength":4188,
			"byteOffset":4188,
			"target":34962
		},
		{
			"buffer":0,
			"byteLength":2792,
			"byteOffset":8376,
			"target":34962
		},
		{
			"buffer":0,
			"byteLength":3360,
			"byteOffset":11168,
			"target":34963
		},
		{
			"buffer":0,
			"byteLength":2016,
			"byteOffset":14528,
			"target":34962
		},
		{
			"buffer":0,
			"byteLength":2016,
			"byteOffset":16544,
			"target":34962
		},
		{
			"buffer":0,
			"byteLength":1344,
			"byteOffset":18560,
			"target":34962
		},
		{
			"buffer":0,
			"byteLength":1002,
			"byteOffset":19904,
			"target":34963
		},
		{
			"buffer":0,
			"byteLength":2772,
			"byteOffset":20908,
			"target":34962
		},
		{
			"buffer":0,
			"byteLength":2772,
			"byteOffset":23680,
			"target":34962
		},
		{
			"buffer":0,
			"byteLength":1848,
			"byteOffset":26452,
			"target":34962
		},
		{
			"buffer":0,
			"byteLength":1776,
			"byteOffset":28300,
			"target":34963
		},
		{
			"buffer":0,
			"byteLength":3420,
			"byteOffset":30076,
			"target":34962
		},
		{
			"buffer":0,
			"byteLength":3420,
			"byteOffset":33496,
			"target":34962
		},
		{
			"buffer":0,
			"byteLength":2280,
			"byteOffset":36916,
			"target":34962
		},
		{
			"buffer":0,
			"byteLength":2280,
			"byteOffset":39196,
			"target":34962
		},
		{
			"buffer":0,
			"byteLength":2280,
			"byteOffset":41476,
			"target":34962
		},
		{
			"buffer":0,
			"byteLength":2004,
			"byteOffset":43756,
			"target":34963
		},
		{
			"buffer":0,
			"byteLength":6840,
			"byteOffset":45760,
			"target":34962
		},
		{
			"buffer":0,
			"byteLength":6840,
			"byteOffset":52600,
			"target":34962
		},
		{
			"buffer":0,
			"byteLength":4560,
			"byteOffset":59440,
			"target":34962
		},
		{
			"buffer":0,
			"byteLength":4560,
			"byteOffset":64000,
			"target":34962
		},
		{
			"buffer":0,
			"byteLength":4560,
			"byteOffset":68560,
			"target":34962
		},
		{
			"buffer":0,
			"byteLength":3672,
			"byteOffset":73120,
			"target":34963
		},
		{
			"buffer":0,
			"byteLength":14976,
			"byteOffset":76792,
			"target":34962
		},
		{
			"buffer":0,
			"byteLength":14976,
			"byteOffset":91768,
			"target":34962
		},
		{
			"buffer":0,
			"byteLength":9984,
			"byteOffset":106744,
			"target":34962
		},
		{
			"buffer":0,
			"byteLength":10308,
			"byteOffset":116728,
			"target":34963
		},
		{
			"buffer":0,
			"byteLength":11280,
			"byteOffset":127036,
			"target":34962
		},
		{
			"buffer":0,
			"byteLength":11280,
			"byteOffset":138316,
			"target":34962
		},
		{
			"buffer":0,
			"byteLength":7520,
			"byteOffset":149596,
			"target":34962
		},
		{
			"buffer":0,
			"byteLength":6252,
			"byteOffset":157116,
			"target":34963
		},
		{
			"buffer":0,
			"byteLength":9168,
			"byteOffset":163368,
			"target":34962
		},
		{
			"buffer":0,
			"byteLength":13752,
			"byteOffset":172536,
			"target":34962
		},
		{
			"buffer":0,
			"byteLength":13752,
			"byteOffset":186288,
			"target":34962
		},
		{
			"buffer":0,
			"byteLength":9168,
			"byteOffset":200040,
			"target":34962
		},
		{
			"buffer":0,
			"byteLength":7416,
			"byteOffset":209208,
			"target":34963
		},
		{
			"buffer":0,
			"byteLength":6512,
			"byteOffset":216624,
			"target":34962
		},
		{
			"buffer":0,
			"byteLength":9768,
			"byteOffset":223136,
			"target":34962
		},
		{
			"buffer":0,
			"byteLength":9768,
			"byteOffset":232904,
			"target":34962
		},
		{
			"buffer":0,
			"byteLength":6512,
			"byteOffset":242672,
			"target":34962
		},
		{
			"buffer":0,
			"byteLength":7272,
			"byteOffset":249184,
			"target":34963
		}
	],
	"samplers":[
		{
			"magFilter":9729,
			"minFilter":9987
		}
	],
	"buffers":[
		{
			"byteLength":256456,
			"uri":"F_epona_pose.bin"
		}
	]
}
