{
	"asset":{
		"generator":"Khronos glTF Blender I/O v3.6.27",
		"version":"2.0"
	},
	"scene":0,
	"scenes":[
		{
			"name":"Scene",
			"nodes":[
				0,
				1,
				2,
				3,
				4,
				5
			]
		}
	],
	"nodes":[
		{
			"mesh":0,
			"name":"F_UPPERBODY_MORRIGAN"
		},
		{
			"mesh":1,
			"name":"F_LOWERBODY_MORRIGAN"
		},
		{
			"mesh":2,
			"name":"F_FEET_MORRIGAN"
		},
		{
			"mesh":3,
			"name":"F_CROWN_MORRIGAN"
		},
		{
			"mesh":4,
			"name":"M_Hair_Standard_01.005",
			"rotation":[
				0.70710688829422,
				0,
				0,
				0.7071066498756409
			],
			"scale":[
				0.01899999938905239,
				0.018999995663762093,
				0.018999995663762093
			]
		},
		{
			"mesh":5,
			"name":"F_Head_BaseMesh.004"
		}
	],
	"materials":[
		{
			"emissiveFactor":[
				0.020000000596046452,
				0.022000000208616255,
				0.02500000037252903
			],
			"name":"maniqui",
			"pbrMetallicRoughness":{
				"baseColorFactor":[
					0.4000000059604645,
					0.4399999976158142,
					0.5,
					1
				],
				"metallicFactor":0,
				"roughnessFactor":0.5
			}
		},
		{
			"doubleSided":true,
			"emissiveFactor":[
				0.05000000074505806,
				0.05000000074505806,
				0.05000000074505806
			],
			"emissiveTexture":{
				"index":0
			},
			"name":"morrigan_atlas",
			"pbrMetallicRoughness":{
				"baseColorTexture":{
					"index":1
				},
				"metallicFactor":0
			}
		},
		{
			"alphaCutoff":0.5,
			"alphaMode":"MASK",
			"doubleSided":true,
			"emissiveFactor":[
				0.05000000074505806,
				0.05000000074505806,
				0.05000000074505806
			],
			"emissiveTexture":{
				"index":2
			},
			"name":"morrigan_atlas_alpha",
			"pbrMetallicRoughness":{
				"baseColorTexture":{
					"index":3
				},
				"metallicFactor":0
			}
		}
	],
	"meshes":[
		{
			"name":"Mesh.062",
			"primitives":[
				{
					"attributes":{
						"POSITION":0,
						"NORMAL":1,
						"TEXCOORD_0":2
					},
					"indices":3,
					"material":0
				},
				{
					"attributes":{
						"POSITION":4,
						"NORMAL":5,
						"TEXCOORD_0":6
					},
					"indices":7,
					"material":1
				}
			]
		},
		{
			"name":"Mesh.063",
			"primitives":[
				{
					"attributes":{
						"POSITION":8,
						"NORMAL":9,
						"TEXCOORD_0":10
					},
					"indices":11,
					"material":0
				},
				{
					"attributes":{
						"POSITION":12,
						"NORMAL":13,
						"TEXCOORD_0":14
					},
					"indices":15,
					"material":1
				}
			]
		},
		{
			"name":"Mesh.064",
			"primitives":[
				{
					"attributes":{
						"COLOR_0":16,
						"POSITION":17,
						"NORMAL":18,
						"TEXCOORD_0":19
					},
					"indices":20,
					"material":1
				}
			]
		},
		{
			"name":"Torus",
			"primitives":[
				{
					"attributes":{
						"POSITION":21,
						"NORMAL":22,
						"TEXCOORD_0":23,
						"TEXCOORD_1":24
					},
					"indices":25,
					"material":1
				},
				{
					"attributes":{
						"POSITION":26,
						"NORMAL":27,
						"TEXCOORD_0":28,
						"TEXCOORD_1":29
					},
					"indices":30,
					"material":2
				}
			]
		},
		{
			"name":"Mesh.065",
			"primitives":[
				{
					"attributes":{
						"POSITION":31,
						"NORMAL":32,
						"TEXCOORD_0":33
					},
					"indices":34,
					"material":0
				}
			]
		},
		{
			"name":"Mesh.066",
			"primitives":[
				{
					"attributes":{
						"POSITION":35,
						"NORMAL":36,
						"TEXCOORD_0":37
					},
					"indices":38,
					"material":0
				}
			]
		}
	],
	"textures":[
		{
			"sampler":0,
			"source":0
		},
		{
			"sampler":0,
			"source":0
		},
		{
			"sampler":0,
			"source":1
		},
		{
			"sampler":0,
			"source":0
		}
	],
	"images":[
		{
			"mimeType":"image/png",
			"name":"morrigan_atlas",
			"uri":"textures/morrigan_atlas.png"
		},
		{
			"mimeType":"image/png",
			"name":"cernunnos_atlas",
			"uri":"textures/cernunnos_atlas.png"
		}
	],
	"accessors":[
		{
			"bufferView":0,
			"componentType":5126,
			"count":594,
			"max":[
				0.9696047902107239,
				3.2200851440429688,
				0.5031042695045471
			],
			"min":[
				-0.8132690787315369,
				1.9858475923538208,
				-0.6848946809768677
			],
			"type":"VEC3"
		},
		{
			"bufferView":1,
			"componentType":5126,
			"count":594,
			"type":"VEC3"
		},
		{
			"bufferView":2,
			"componentType":5126,
			"count":594,
			"type":"VEC2"
		},
		{
			"bufferView":3,
			"componentType":5123,
			"count":2346,
			"type":"SCALAR"
		},
		{
			"bufferView":4,
			"componentType":5126,
			"count":642,
			"max":[
				0.8985034823417664,
				3.420523166656494,
				0.42343488335609436
			],
			"min":[
				-0.7334395051002502,
				2.2275149822235107,
				-0.6989718675613403
			],
			"type":"VEC3"
		},
		{
			"bufferView":5,
			"componentType":5126,
			"count":642,
			"type":"VEC3"
		},
		{
			"bufferView":6,
			"componentType":5126,
			"count":642,
			"type":"VEC2"
		},
		{
			"bufferView":7,
			"componentType":5123,
			"count":2091,
			"type":"SCALAR"
		},
		{
			"bufferView":8,
			"componentType":5126,
			"count":154,
			"max":[
				0.3226602077484131,
				1.099780559539795,
				0.4885905981063843
			],
			"min":[
				-0.41950005292892456,
				0.6291460990905762,
				-0.7526476979255676
			],
			"type":"VEC3"
		},
		{
			"bufferView":9,
			"componentType":5126,
			"count":154,
			"type":"VEC3"
		},
		{
			"bufferView":10,
			"componentType":5126,
			"count":154,
			"type":"VEC2"
		},
		{
			"bufferView":11,
			"componentType":5123,
			"count":378,
			"type":"SCALAR"
		},
		{
			"bufferView":12,
			"componentType":5126,
			"count":784,
			"max":[
				0.3638116121292114,
				2.2873270511627197,
				0.6533206105232239
			],
			"min":[
				-0.5428614616394043,
				0.6291460990905762,
				-0.7526476979255676
			],
			"type":"VEC3"
		},
		{
			"bufferView":13,
			"componentType":5126,
			"count":784,
			"type":"VEC3"
		},
		{
			"bufferView":14,
			"componentType":5126,
			"count":784,
			"type":"VEC2"
		},
		{
			"bufferView":15,
			"componentType":5123,
			"count":2532,
			"type":"SCALAR"
		},
		{
			"bufferView":16,
			"componentType":5123,
			"count":468,
			"normalized":true,
			"type":"VEC4"
		},
		{
			"bufferView":17,
			"componentType":5126,
			"count":468,
			"max":[
				0.4077543318271637,
				0.7502481937408447,
				0.40348488092422485
			],
			"min":[
				-0.43892741203308105,
				0.22785089910030365,
				-0.8739498257637024
			],
			"type":"VEC3"
		},
		{
			"bufferView":18,
			"componentType":5126,
			"count":468,
			"type":"VEC3"
		},
		{
			"bufferView":19,
			"componentType":5126,
			"count":468,
			"type":"VEC2"
		},
		{
			"bufferView":20,
			"componentType":5123,
			"count":1356,
			"type":"SCALAR"
		},
		{
			"bufferView":21,
			"componentType":5126,
			"count":504,
			"max":[
				0.31090685725212097,
				4.030336380004883,
				0.4708363711833954
			],
			"min":[
				-0.3136860728263855,
				3.1956517696380615,
				-0.24440239369869232
			],
			"type":"VEC3"
		},
		{
			"bufferView":22,
			"componentType":5126,
			"count":504,
			"type":"VEC3"
		},
		{
			"bufferView":23,
			"componentType":5126,
			"count":504,
			"type":"VEC2"
		},
		{
			"bufferView":24,
			"componentType":5126,
			"count":504,
			"type":"VEC2"
		},
		{
			"bufferView":25,
			"componentType":5123,
			"count":1974,
			"type":"SCALAR"
		},
		{
			"bufferView":26,
			"componentType":5126,
			"count":85,
			"max":[
				0.20585988461971283,
				3.6246395111083984,
				0.3510840833187103
			],
			"min":[
				-0.228102907538414,
				3.4063832759857178,
				0.1581750065088272
			],
			"type":"VEC3"
		},
		{
			"bufferView":27,
			"componentType":5126,
			"count":85,
			"type":"VEC3"
		},
		{
			"bufferView":28,
			"componentType":5126,
			"count":85,
			"type":"VEC2"
		},
		{
			"bufferView":29,
			"componentType":5126,
			"count":85,
			"type":"VEC2"
		},
		{
			"bufferView":30,
			"componentType":5123,
			"count":366,
			"type":"SCALAR"
		},
		{
			"bufferView":31,
			"componentType":5126,
			"count":277,
			"max":[
				15.09194278717041,
				22.083547592163086,
				-171.75494384765625
			],
			"min":[
				-15.064627647399902,
				-12.183493614196777,
				-207.47982788085938
			],
			"type":"VEC3"
		},
		{
			"bufferView":32,
			"componentType":5126,
			"count":277,
			"type":"VEC3"
		},
		{
			"bufferView":33,
			"componentType":5126,
			"count":277,
			"type":"VEC2"
		},
		{
			"bufferView":34,
			"componentType":5123,
			"count":1440,
			"type":"SCALAR"
		},
		{
			"bufferView":35,
			"componentType":5126,
			"count":344,
			"max":[
				0.2916004955768585,
				3.8923654556274414,
				0.36824697256088257
			],
			"min":[
				-0.2876599133014679,
				3.0533993244171143,
				-0.20668897032737732
			],
			"type":"VEC3"
		},
		{
			"bufferView":36,
			"componentType":5126,
			"count":344,
			"type":"VEC3"
		},
		{
			"bufferView":37,
			"componentType":5126,
			"count":344,
			"type":"VEC2"
		},
		{
			"bufferView":38,
			"componentType":5123,
			"count":1668,
			"type":"SCALAR"
		}
	],
	"bufferViews":[
		{
			"buffer":0,
			"byteLength":7128,
			"byteOffset":0,
			"target":34962
		},
		{
			"buffer":0,
			"byteLength":7128,
			"byteOffset":7128,
			"target":34962
		},
		{
			"buffer":0,
			"byteLength":4752,
			"byteOffset":14256,
			"target":34962
		},
		{
			"buffer":0,
			"byteLength":4692,
			"byteOffset":19008,
			"target":34963
		},
		{
			"buffer":0,
			"byteLength":7704,
			"byteOffset":23700,
			"target":34962
		},
		{
			"buffer":0,
			"byteLength":7704,
			"byteOffset":31404,
			"target":34962
		},
		{
			"buffer":0,
			"byteLength":5136,
			"byteOffset":39108,
			"target":34962
		},
		{
			"buffer":0,
			"byteLength":4182,
			"byteOffset":44244,
			"target":34963
		},
		{
			"buffer":0,
			"byteLength":1848,
			"byteOffset":48428,
			"target":34962
		},
		{
			"buffer":0,
			"byteLength":1848,
			"byteOffset":50276,
			"target":34962
		},
		{
			"buffer":0,
			"byteLength":1232,
			"byteOffset":52124,
			"target":34962
		},
		{
			"buffer":0,
			"byteLength":756,
			"byteOffset":53356,
			"target":34963
		},
		{
			"buffer":0,
			"byteLength":9408,
			"byteOffset":54112,
			"target":34962
		},
		{
			"buffer":0,
			"byteLength":9408,
			"byteOffset":63520,
			"target":34962
		},
		{
			"buffer":0,
			"byteLength":6272,
			"byteOffset":72928,
			"target":34962
		},
		{
			"buffer":0,
			"byteLength":5064,
			"byteOffset":79200,
			"target":34963
		},
		{
			"buffer":0,
			"byteLength":3744,
			"byteOffset":84264,
			"target":34962
		},
		{
			"buffer":0,
			"byteLength":5616,
			"byteOffset":88008,
			"target":34962
		},
		{
			"buffer":0,
			"byteLength":5616,
			"byteOffset":93624,
			"target":34962
		},
		{
			"buffer":0,
			"byteLength":3744,
			"byteOffset":99240,
			"target":34962
		},
		{
			"buffer":0,
			"byteLength":2712,
			"byteOffset":102984,
			"target":34963
		},
		{
			"buffer":0,
			"byteLength":6048,
			"byteOffset":105696,
			"target":34962
		},
		{
			"buffer":0,
			"byteLength":6048,
			"byteOffset":111744,
			"target":34962
		},
		{
			"buffer":0,
			"byteLength":4032,
			"byteOffset":117792,
			"target":34962
		},
		{
			"buffer":0,
			"byteLength":4032,
			"byteOffset":121824,
			"target":34962
		},
		{
			"buffer":0,
			"byteLength":3948,
			"byteOffset":125856,
			"target":34963
		},
		{
			"buffer":0,
			"byteLength":1020,
			"byteOffset":129804,
			"target":34962
		},
		{
			"buffer":0,
			"byteLength":1020,
			"byteOffset":130824,
			"target":34962
		},
		{
			"buffer":0,
			"byteLength":680,
			"byteOffset":131844,
			"target":34962
		},
		{
			"buffer":0,
			"byteLength":680,
			"byteOffset":132524,
			"target":34962
		},
		{
			"buffer":0,
			"byteLength":732,
			"byteOffset":133204,
			"target":34963
		},
		{
			"buffer":0,
			"byteLength":3324,
			"byteOffset":133936,
			"target":34962
		},
		{
			"buffer":0,
			"byteLength":3324,
			"byteOffset":137260,
			"target":34962
		},
		{
			"buffer":0,
			"byteLength":2216,
			"byteOffset":140584,
			"target":34962
		},
		{
			"buffer":0,
			"byteLength":2880,
			"byteOffset":142800,
			"target":34963
		},
		{
			"buffer":0,
			"byteLength":4128,
			"byteOffset":145680,
			"target":34962
		},
		{
			"buffer":0,
			"byteLength":4128,
			"byteOffset":149808,
			"target":34962
		},
		{
			"buffer":0,
			"byteLength":2752,
			"byteOffset":153936,
			"target":34962
		},
		{
			"buffer":0,
			"byteLength":3336,
			"byteOffset":156688,
			"target":34963
		}
	],
	"samplers":[
		{
			"magFilter":9729,
			"minFilter":9987
		}
	],
	"buffers":[
		{
			"byteLength":160024,
			"uri":"F_morrigan_pose.bin"
		}
	]
}
