{
	"asset":{
		"generator":"Khronos glTF Blender I/O v3.6.27",
		"version":"2.0"
	},
	"scene":0,
	"scenes":[
		{
			"name":"Scene",
			"nodes":[
				0,
				1,
				2,
				3,
				4,
				5,
				6,
				7,
				8
			]
		}
	],
	"nodes":[
		{
			"mesh":0,
			"name":"F_tiranis_upper",
			"rotation":[
				0.70710688829422,
				0,
				0,
				0.7071066498756409
			],
			"scale":[
				0.01899999938905239,
				0.01899999938905239,
				0.01899999938905239
			]
		},
		{
			"mesh":1,
			"name":"F_tiranis_tatoo",
			"rotation":[
				0.70710688829422,
				0,
				0,
				0.7071066498756409
			],
			"scale":[
				0.01899999938905239,
				0.01899999938905239,
				0.01899999938905239
			]
		},
		{
			"mesh":2,
			"name":"F_tiranis_lower_skin",
			"rotation":[
				0.70710688829422,
				0,
				0,
				0.7071066498756409
			],
			"scale":[
				0.01899999938905239,
				0.01899999938905239,
				0.01899999938905239
			]
		},
		{
			"mesh":3,
			"name":"F_tiranis_lower",
			"scale":[
				1.899999976158142,
				1.899999976158142,
				1.899999976158142
			]
		},
		{
			"mesh":4,
			"name":"F_tiranis_helmet",
			"scale":[
				1.899999976158142,
				1.899999976158142,
				1.899999976158142
			]
		},
		{
			"mesh":5,
			"name":"F_tiranis_feet",
			"scale":[
				1.899999976158142,
				1.899999976158142,
				1.899999976158142
			]
		},
		{
			"mesh":6,
			"name":"F_Head_BaseMesh",
			"rotation":[
				0.70710688829422,
				0,
				0,
				0.7071066498756409
			],
			"scale":[
				0.01899999938905239,
				0.01899999938905239,
				0.01899999938905239
			]
		},
		{
			"mesh":7,
			"name":"F_Hair_Standard_01.002",
			"rotation":[
				0.70710688829422,
				0,
				0,
				0.7071066498756409
			],
			"scale":[
				0.01899999938905239,
				0.018999995663762093,
				0.018999995663762093
			]
		},
		{
			"mesh":8,
			"name":"ShapeA_Hands_BaseMesh.004",
			"rotation":[
				0.7071068286895752,
				0,
				0,
				0.7071068286895752
			]
		}
	],
	"materials":[
		{
			"doubleSided":true,
			"emissiveFactor":[
				0.05000000074505806,
				0.05000000074505806,
				0.05000000074505806
			],
			"emissiveTexture":{
				"index":0
			},
			"name":"tiranis_atlas",
			"pbrMetallicRoughness":{
				"baseColorTexture":{
					"index":1
				},
				"metallicFactor":0
			}
		},
		{
			"emissiveFactor":[
				0.020000000596046452,
				0.022000000208616255,
				0.02500000037252903
			],
			"name":"maniqui",
			"pbrMetallicRoughness":{
				"baseColorFactor":[
					0.4000000059604645,
					0.4399999976158142,
					0.5,
					1
				],
				"metallicFactor":0,
				"roughnessFactor":0.5
			}
		},
		{
			"alphaCutoff":0.5,
			"alphaMode":"MASK",
			"doubleSided":true,
			"emissiveFactor":[
				0.05000000074505806,
				0.05000000074505806,
				0.05000000074505806
			],
			"emissiveTexture":{
				"index":2
			},
			"name":"tiranis_atlas_alpha",
			"pbrMetallicRoughness":{
				"baseColorTexture":{
					"index":3
				},
				"metallicFactor":0
			}
		}
	],
	"meshes":[
		{
			"name":"Mesh.003",
			"primitives":[
				{
					"attributes":{
						"POSITION":0,
						"NORMAL":1,
						"TEXCOORD_0":2,
						"TEXCOORD_1":3
					},
					"indices":4,
					"material":0
				},
				{
					"attributes":{
						"POSITION":5,
						"NORMAL":6,
						"TEXCOORD_0":7,
						"TEXCOORD_1":8
					},
					"indices":9,
					"material":1
				}
			]
		},
		{
			"name":"Mesh.001",
			"primitives":[
				{
					"attributes":{
						"POSITION":10,
						"NORMAL":11,
						"TEXCOORD_0":12
					},
					"indices":13,
					"material":2
				}
			]
		},
		{
			"name":"Mesh.002",
			"primitives":[
				{
					"attributes":{
						"POSITION":14,
						"NORMAL":15,
						"TEXCOORD_0":16
					},
					"indices":17,
					"material":1
				}
			]
		},
		{
			"name":"Mesh.010",
			"primitives":[
				{
					"attributes":{
						"POSITION":18,
						"NORMAL":19,
						"TEXCOORD_0":20,
						"TEXCOORD_1":21
					},
					"indices":22,
					"material":0
				}
			]
		},
		{
			"name":"Circle.001",
			"primitives":[
				{
					"attributes":{
						"POSITION":23,
						"NORMAL":24,
						"TEXCOORD_0":25
					},
					"indices":26,
					"material":0
				}
			]
		},
		{
			"name":"Mesh.011",
			"primitives":[
				{
					"attributes":{
						"COLOR_0":27,
						"POSITION":28,
						"NORMAL":29,
						"TEXCOORD_0":30
					},
					"indices":31,
					"material":0
				},
				{
					"attributes":{
						"COLOR_0":32,
						"POSITION":33,
						"NORMAL":34,
						"TEXCOORD_0":35
					},
					"indices":36,
					"material":1
				}
			]
		},
		{
			"name":"Mesh.012",
			"primitives":[
				{
					"attributes":{
						"POSITION":37,
						"NORMAL":38,
						"TEXCOORD_0":39
					},
					"indices":40,
					"material":1
				}
			]
		},
		{
			"name":"Mesh.032",
			"primitives":[
				{
					"attributes":{
						"POSITION":41,
						"NORMAL":42,
						"TEXCOORD_0":43
					},
					"indices":44,
					"material":1
				}
			]
		},
		{
			"name":"ShapeA_Hands_BaseMesh.004",
			"primitives":[
				{
					"attributes":{
						"COLOR_0":45,
						"POSITION":46,
						"NORMAL":47,
						"TEXCOORD_0":48
					},
					"indices":49,
					"material":1
				}
			]
		}
	],
	"textures":[
		{
			"sampler":0,
			"source":0
		},
		{
			"sampler":0,
			"source":0
		},
		{
			"sampler":0,
			"source":1
		},
		{
			"sampler":0,
			"source":0
		}
	],
	"images":[
		{
			"mimeType":"image/png",
			"name":"tiranis_atlas",
			"uri":"textures/tiranis_atlas.png"
		},
		{
			"mimeType":"image/png",
			"name":"cernunnos_atlas",
			"uri":"textures/cernunnos_atlas.png"
		}
	],
	"accessors":[
		{
			"bufferView":0,
			"componentType":5126,
			"count":679,
			"max":[
				46.11202621459961,
				28.315279006958008,
				-117.07872772216797
			],
			"min":[
				-39.14619445800781,
				-33.892372131347656,
				-167.77188110351562
			],
			"type":"VEC3"
		},
		{
			"bufferView":1,
			"componentType":5126,
			"count":679,
			"type":"VEC3"
		},
		{
			"bufferView":2,
			"componentType":5126,
			"count":679,
			"type":"VEC2"
		},
		{
			"bufferView":3,
			"componentType":5126,
			"count":679,
			"type":"VEC2"
		},
		{
			"bufferView":4,
			"componentType":5123,
			"count":2334,
			"type":"SCALAR"
		},
		{
			"bufferView":5,
			"componentType":5126,
			"count":205,
			"max":[
				45.63245391845703,
				22.089736938476562,
				-123.2594223022461
			],
			"min":[
				-38.67572021484375,
				-36.31977081298828,
				-168.03773498535156
			],
			"type":"VEC3"
		},
		{
			"bufferView":6,
			"componentType":5126,
			"count":205,
			"type":"VEC3"
		},
		{
			"bufferView":7,
			"componentType":5126,
			"count":205,
			"type":"VEC2"
		},
		{
			"bufferView":8,
			"componentType":5126,
			"count":205,
			"type":"VEC2"
		},
		{
			"bufferView":9,
			"componentType":5123,
			"count":786,
			"type":"SCALAR"
		},
		{
			"bufferView":10,
			"componentType":5126,
			"count":67,
			"max":[
				5.0320658683776855,
				9.410358428955078,
				-139.8532257080078
			],
			"min":[
				-33.28662109375,
				-36.72417068481445,
				-167.823974609375
			],
			"type":"VEC3"
		},
		{
			"bufferView":11,
			"componentType":5126,
			"count":67,
			"type":"VEC3"
		},
		{
			"bufferView":12,
			"componentType":5126,
			"count":67,
			"type":"VEC2"
		},
		{
			"bufferView":13,
			"componentType":5123,
			"count":204,
			"type":"SCALAR"
		},
		{
			"bufferView":14,
			"componentType":5126,
			"count":176,
			"max":[
				16.970762252807617,
				32.282657623291016,
				-33.156898498535156
			],
			"min":[
				-25.66289520263672,
				-39.58918380737305,
				-85.6493148803711
			],
			"type":"VEC3"
		},
		{
			"bufferView":15,
			"componentType":5126,
			"count":176,
			"type":"VEC3"
		},
		{
			"bufferView":16,
			"componentType":5126,
			"count":176,
			"type":"VEC2"
		},
		{
			"bufferView":17,
			"componentType":5123,
			"count":612,
			"type":"SCALAR"
		},
		{
			"bufferView":18,
			"componentType":5126,
			"count":1113,
			"max":[
				0.26109200716018677,
				1.219253659248352,
				0.3750922679901123
			],
			"min":[
				-0.3260921537876129,
				0.47710683941841125,
				-0.3229401111602783
			],
			"type":"VEC3"
		},
		{
			"bufferView":19,
			"componentType":5126,
			"count":1113,
			"type":"VEC3"
		},
		{
			"bufferView":20,
			"componentType":5126,
			"count":1113,
			"type":"VEC2"
		},
		{
			"bufferView":21,
			"componentType":5126,
			"count":1113,
			"type":"VEC2"
		},
		{
			"bufferView":22,
			"componentType":5123,
			"count":3456,
			"type":"SCALAR"
		},
		{
			"bufferView":23,
			"componentType":5126,
			"count":908,
			"max":[
				0.3789651393890381,
				2.3234896659851074,
				0.2293499857187271
			],
			"min":[
				-0.3719547688961029,
				1.8047001361846924,
				-0.13744807243347168
			],
			"type":"VEC3"
		},
		{
			"bufferView":24,
			"componentType":5126,
			"count":908,
			"type":"VEC3"
		},
		{
			"bufferView":25,
			"componentType":5126,
			"count":908,
			"type":"VEC2"
		},
		{
			"bufferView":26,
			"componentType":5123,
			"count":1944,
			"type":"SCALAR"
		},
		{
			"bufferView":27,
			"componentType":5123,
			"count":1080,
			"normalized":true,
			"type":"VEC4"
		},
		{
			"bufferView":28,
			"componentType":5126,
			"count":1080,
			"max":[
				0.22089633345603943,
				0.42256221175193787,
				0.18630310893058777
			],
			"min":[
				-0.23847751319408417,
				0.0989956483244896,
				-0.4665697515010834
			],
			"type":"VEC3"
		},
		{
			"bufferView":29,
			"componentType":5126,
			"count":1080,
			"type":"VEC3"
		},
		{
			"bufferView":30,
			"componentType":5126,
			"count":1080,
			"type":"VEC2"
		},
		{
			"bufferView":31,
			"componentType":5123,
			"count":3996,
			"type":"SCALAR"
		},
		{
			"bufferView":32,
			"componentType":5123,
			"count":120,
			"normalized":true,
			"type":"VEC4"
		},
		{
			"bufferView":33,
			"componentType":5126,
			"count":120,
			"max":[
				0.1938682347536087,
				0.38663893938064575,
				0.1641644537448883
			],
			"min":[
				-0.19428473711013794,
				0.1971900314092636,
				-0.448990136384964
			],
			"type":"VEC3"
		},
		{
			"bufferView":34,
			"componentType":5126,
			"count":120,
			"type":"VEC3"
		},
		{
			"bufferView":35,
			"componentType":5126,
			"count":120,
			"type":"VEC2"
		},
		{
			"bufferView":36,
			"componentType":5123,
			"count":372,
			"type":"SCALAR"
		},
		{
			"bufferView":37,
			"componentType":5126,
			"count":349,
			"max":[
				15.260250091552734,
				19.715404510498047,
				-160.75340270996094
			],
			"min":[
				-14.979016304016113,
				-10.87583065032959,
				-204.9095458984375
			],
			"type":"VEC3"
		},
		{
			"bufferView":38,
			"componentType":5126,
			"count":349,
			"type":"VEC3"
		},
		{
			"bufferView":39,
			"componentType":5126,
			"count":349,
			"type":"VEC2"
		},
		{
			"bufferView":40,
			"componentType":5123,
			"count":1680,
			"type":"SCALAR"
		},
		{
			"bufferView":41,
			"componentType":5126,
			"count":277,
			"max":[
				14.404982566833496,
				21.994171142578125,
				-171.75494384765625
			],
			"min":[
				-14.592341423034668,
				-12.175131797790527,
				-207.47982788085938
			],
			"type":"VEC3"
		},
		{
			"bufferView":42,
			"componentType":5126,
			"count":277,
			"type":"VEC3"
		},
		{
			"bufferView":43,
			"componentType":5126,
			"count":277,
			"type":"VEC2"
		},
		{
			"bufferView":44,
			"componentType":5123,
			"count":1440,
			"type":"SCALAR"
		},
		{
			"bufferView":45,
			"componentType":5123,
			"count":814,
			"normalized":true,
			"type":"VEC4"
		},
		{
			"bufferView":46,
			"componentType":5126,
			"count":814,
			"max":[
				0.97632896900177,
				0.502573549747467,
				-1.9791136980056763
			],
			"min":[
				-0.8144824504852295,
				-0.6045141816139221,
				-2.5238702297210693
			],
			"type":"VEC3"
		},
		{
			"bufferView":47,
			"componentType":5126,
			"count":814,
			"type":"VEC3"
		},
		{
			"bufferView":48,
			"componentType":5126,
			"count":814,
			"type":"VEC2"
		},
		{
			"bufferView":49,
			"componentType":5123,
			"count":3636,
			"type":"SCALAR"
		}
	],
	"bufferViews":[
		{
			"buffer":0,
			"byteLength":8148,
			"byteOffset":0,
			"target":34962
		},
		{
			"buffer":0,
			"byteLength":8148,
			"byteOffset":8148,
			"target":34962
		},
		{
			"buffer":0,
			"byteLength":5432,
			"byteOffset":16296,
			"target":34962
		},
		{
			"buffer":0,
			"byteLength":5432,
			"byteOffset":21728,
			"target":34962
		},
		{
			"buffer":0,
			"byteLength":4668,
			"byteOffset":27160,
			"target":34963
		},
		{
			"buffer":0,
			"byteLength":2460,
			"byteOffset":31828,
			"target":34962
		},
		{
			"buffer":0,
			"byteLength":2460,
			"byteOffset":34288,
			"target":34962
		},
		{
			"buffer":0,
			"byteLength":1640,
			"byteOffset":36748,
			"target":34962
		},
		{
			"buffer":0,
			"byteLength":1640,
			"byteOffset":38388,
			"target":34962
		},
		{
			"buffer":0,
			"byteLength":1572,
			"byteOffset":40028,
			"target":34963
		},
		{
			"buffer":0,
			"byteLength":804,
			"byteOffset":41600,
			"target":34962
		},
		{
			"buffer":0,
			"byteLength":804,
			"byteOffset":42404,
			"target":34962
		},
		{
			"buffer":0,
			"byteLength":536,
			"byteOffset":43208,
			"target":34962
		},
		{
			"buffer":0,
			"byteLength":408,
			"byteOffset":43744,
			"target":34963
		},
		{
			"buffer":0,
			"byteLength":2112,
			"byteOffset":44152,
			"target":34962
		},
		{
			"buffer":0,
			"byteLength":2112,
			"byteOffset":46264,
			"target":34962
		},
		{
			"buffer":0,
			"byteLength":1408,
			"byteOffset":48376,
			"target":34962
		},
		{
			"buffer":0,
			"byteLength":1224,
			"byteOffset":49784,
			"target":34963
		},
		{
			"buffer":0,
			"byteLength":13356,
			"byteOffset":51008,
			"target":34962
		},
		{
			"buffer":0,
			"byteLength":13356,
			"byteOffset":64364,
			"target":34962
		},
		{
			"buffer":0,
			"byteLength":8904,
			"byteOffset":77720,
			"target":34962
		},
		{
			"buffer":0,
			"byteLength":8904,
			"byteOffset":86624,
			"target":34962
		},
		{
			"buffer":0,
			"byteLength":6912,
			"byteOffset":95528,
			"target":34963
		},
		{
			"buffer":0,
			"byteLength":10896,
			"byteOffset":102440,
			"target":34962
		},
		{
			"buffer":0,
			"byteLength":10896,
			"byteOffset":113336,
			"target":34962
		},
		{
			"buffer":0,
			"byteLength":7264,
			"byteOffset":124232,
			"target":34962
		},
		{
			"buffer":0,
			"byteLength":3888,
			"byteOffset":131496,
			"target":34963
		},
		{
			"buffer":0,
			"byteLength":8640,
			"byteOffset":135384,
			"target":34962
		},
		{
			"buffer":0,
			"byteLength":12960,
			"byteOffset":144024,
			"target":34962
		},
		{
			"buffer":0,
			"byteLength":12960,
			"byteOffset":156984,
			"target":34962
		},
		{
			"buffer":0,
			"byteLength":8640,
			"byteOffset":169944,
			"target":34962
		},
		{
			"buffer":0,
			"byteLength":7992,
			"byteOffset":178584,
			"target":34963
		},
		{
			"buffer":0,
			"byteLength":960,
			"byteOffset":186576,
			"target":34962
		},
		{
			"buffer":0,
			"byteLength":1440,
			"byteOffset":187536,
			"target":34962
		},
		{
			"buffer":0,
			"byteLength":1440,
			"byteOffset":188976,
			"target":34962
		},
		{
			"buffer":0,
			"byteLength":960,
			"byteOffset":190416,
			"target":34962
		},
		{
			"buffer":0,
			"byteLength":744,
			"byteOffset":191376,
			"target":34963
		},
		{
			"buffer":0,
			"byteLength":4188,
			"byteOffset":192120,
			"target":34962
		},
		{
			"buffer":0,
			"byteLength":4188,
			"byteOffset":196308,
			"target":34962
		},
		{
			"buffer":0,
			"byteLength":2792,
			"byteOffset":200496,
			"target":34962
		},
		{
			"buffer":0,
			"byteLength":3360,
			"byteOffset":203288,
			"target":34963
		},
		{
			"buffer":0,
			"byteLength":3324,
			"byteOffset":206648,
			"target":34962
		},
		{
			"buffer":0,
			"byteLength":3324,
			"byteOffset":209972,
			"target":34962
		},
		{
			"buffer":0,
			"byteLength":2216,
			"byteOffset":213296,
			"target":34962
		},
		{
			"buffer":0,
			"byteLength":2880,
			"byteOffset":215512,
			"target":34963
		},
		{
			"buffer":0,
			"byteLength":6512,
			"byteOffset":218392,
			"target":34962
		},
		{
			"buffer":0,
			"byteLength":9768,
			"byteOffset":224904,
			"target":34962
		},
		{
			"buffer":0,
			"byteLength":9768,
			"byteOffset":234672,
			"target":34962
		},
		{
			"buffer":0,
			"byteLength":6512,
			"byteOffset":244440,
			"target":34962
		},
		{
			"buffer":0,
			"byteLength":7272,
			"byteOffset":250952,
			"target":34963
		}
	],
	"samplers":[
		{
			"magFilter":9729,
			"minFilter":9987
		}
	],
	"buffers":[
		{
			"byteLength":258224,
			"uri":"F_tiranis_pose.bin"
		}
	]
}
