{
	"asset":{
		"generator":"Khronos glTF Blender I/O v3.6.27",
		"version":"2.0"
	},
	"scene":0,
	"scenes":[
		{
			"name":"Scene",
			"nodes":[
				0,
				1,
				2,
				3,
				4,
				5,
				6,
				7,
				8
			]
		}
	],
	"nodes":[
		{
			"mesh":0,
			"name":"M_cernunnos_feet"
		},
		{
			"mesh":1,
			"name":"M_cernunnos_lower"
		},
		{
			"mesh":2,
			"name":"M_cernunnos_lower_alpha"
		},
		{
			"mesh":3,
			"name":"M_cernunnos_upper_skin"
		},
		{
			"mesh":4,
			"name":"M_Hair_Standard_01",
			"rotation":[
				0.70710688829422,
				0,
				0,
				0.7071066498756409
			]
		},
		{
			"mesh":5,
			"name":"M_helmet"
		},
		{
			"mesh":6,
			"name":"M_cernunnos_upper_alpha"
		},
		{
			"mesh":7,
			"name":"M_cernunnos_upper"
		},
		{
			"mesh":8,
			"name":"M_Head_BaseMesh",
			"rotation":[
				0.70710688829422,
				0,
				0,
				0.7071066498756409
			],
			"scale":[
				0.01899999938905239,
				0.01899999938905239,
				0.01899999938905239
			]
		}
	],
	"materials":[
		{
			"alphaCutoff":0.5,
			"alphaMode":"MASK",
			"doubleSided":true,
			"emissiveFactor":[
				0.05000000074505806,
				0.05000000074505806,
				0.05000000074505806
			],
			"emissiveTexture":{
				"index":0
			},
			"name":"cernunnos_atlas_alpha",
			"pbrMetallicRoughness":{
				"baseColorTexture":{
					"index":1
				},
				"metallicFactor":0
			}
		},
		{
			"doubleSided":true,
			"emissiveFactor":[
				0.05000000074505806,
				0.05000000074505806,
				0.05000000074505806
			],
			"emissiveTexture":{
				"index":2
			},
			"name":"cernunnos_atlas",
			"pbrMetallicRoughness":{
				"baseColorTexture":{
					"index":3
				},
				"metallicFactor":0
			}
		},
		{
			"emissiveFactor":[
				0.020000000596046452,
				0.022000000208616255,
				0.02500000037252903
			],
			"name":"maniqui",
			"pbrMetallicRoughness":{
				"baseColorFactor":[
					0.4000000059604645,
					0.4399999976158142,
					0.5,
					1
				],
				"metallicFactor":0,
				"roughnessFactor":0.5
			}
		}
	],
	"meshes":[
		{
			"name":"Mesh.031",
			"primitives":[
				{
					"attributes":{
						"COLOR_0":0,
						"POSITION":1,
						"NORMAL":2,
						"TEXCOORD_0":3
					},
					"indices":4,
					"material":0
				}
			]
		},
		{
			"name":"Mesh.027",
			"primitives":[
				{
					"attributes":{
						"POSITION":5,
						"NORMAL":6,
						"TEXCOORD_0":7
					},
					"indices":8,
					"material":1
				}
			]
		},
		{
			"name":"Mesh.023",
			"primitives":[
				{
					"attributes":{
						"POSITION":9,
						"NORMAL":10,
						"TEXCOORD_0":11
					},
					"indices":12,
					"material":0
				}
			]
		},
		{
			"name":"Mesh.022",
			"primitives":[
				{
					"attributes":{
						"COLOR_0":13,
						"POSITION":14,
						"NORMAL":15,
						"TEXCOORD_0":16,
						"TEXCOORD_1":17
					},
					"indices":18,
					"material":2
				}
			]
		},
		{
			"name":"Mesh.072",
			"primitives":[
				{
					"attributes":{
						"POSITION":19,
						"NORMAL":20,
						"TEXCOORD_0":21
					},
					"indices":22,
					"material":2
				}
			]
		},
		{
			"name":"Cube",
			"primitives":[
				{
					"attributes":{
						"POSITION":23,
						"NORMAL":24,
						"TEXCOORD_0":25
					},
					"indices":26,
					"material":1
				}
			]
		},
		{
			"name":"Mesh.041",
			"primitives":[
				{
					"attributes":{
						"POSITION":27,
						"NORMAL":28,
						"TEXCOORD_0":29
					},
					"indices":30,
					"material":0
				}
			]
		},
		{
			"name":"Mesh.042",
			"primitives":[
				{
					"attributes":{
						"POSITION":31,
						"NORMAL":32,
						"TEXCOORD_0":33
					},
					"indices":34,
					"material":1
				}
			]
		},
		{
			"name":"Mesh.073",
			"primitives":[
				{
					"attributes":{
						"POSITION":35,
						"NORMAL":36,
						"TEXCOORD_0":37
					},
					"indices":38,
					"material":2
				}
			]
		}
	],
	"textures":[
		{
			"sampler":0,
			"source":0
		},
		{
			"sampler":0,
			"source":0
		},
		{
			"sampler":0,
			"source":0
		},
		{
			"sampler":0,
			"source":0
		}
	],
	"images":[
		{
			"mimeType":"image/png",
			"name":"cernunnos_atlas",
			"uri":"textures/cernunnos_atlas.png"
		}
	],
	"accessors":[
		{
			"bufferView":0,
			"componentType":5123,
			"count":472,
			"normalized":true,
			"type":"VEC4"
		},
		{
			"bufferView":1,
			"componentType":5126,
			"count":472,
			"max":[
				0.4527534544467926,
				0.734391450881958,
				0.43811261653900146
			],
			"min":[
				-0.5277581810951233,
				0.1255233883857727,
				-0.8909091353416443
			],
			"type":"VEC3"
		},
		{
			"bufferView":2,
			"componentType":5126,
			"count":472,
			"type":"VEC3"
		},
		{
			"bufferView":3,
			"componentType":5126,
			"count":472,
			"type":"VEC2"
		},
		{
			"bufferView":4,
			"componentType":5123,
			"count":1338,
			"type":"SCALAR"
		},
		{
			"bufferView":5,
			"componentType":5126,
			"count":719,
			"max":[
				0.3501952886581421,
				2.2572875022888184,
				0.630184531211853
			],
			"min":[
				-0.5029593706130981,
				0.6218303442001343,
				-0.752194344997406
			],
			"type":"VEC3"
		},
		{
			"bufferView":6,
			"componentType":5126,
			"count":719,
			"type":"VEC3"
		},
		{
			"bufferView":7,
			"componentType":5126,
			"count":719,
			"type":"VEC2"
		},
		{
			"bufferView":8,
			"componentType":5123,
			"count":2604,
			"type":"SCALAR"
		},
		{
			"bufferView":9,
			"componentType":5126,
			"count":328,
			"max":[
				0.40935131907463074,
				2.1573126316070557,
				0.6882232427597046
			],
			"min":[
				-0.5316979289054871,
				0.9376896619796753,
				-0.6190389394760132
			],
			"type":"VEC3"
		},
		{
			"bufferView":10,
			"componentType":5126,
			"count":328,
			"type":"VEC3"
		},
		{
			"bufferView":11,
			"componentType":5126,
			"count":328,
			"type":"VEC2"
		},
		{
			"bufferView":12,
			"componentType":5123,
			"count":864,
			"type":"SCALAR"
		},
		{
			"bufferView":13,
			"componentType":5123,
			"count":954,
			"normalized":true,
			"type":"VEC4"
		},
		{
			"bufferView":14,
			"componentType":5126,
			"count":954,
			"max":[
				0.97632896900177,
				3.169796943664551,
				0.5025734305381775
			],
			"min":[
				-0.8144824504852295,
				1.9791136980056763,
				-0.690075159072876
			],
			"type":"VEC3"
		},
		{
			"bufferView":15,
			"componentType":5126,
			"count":954,
			"type":"VEC3"
		},
		{
			"bufferView":16,
			"componentType":5126,
			"count":954,
			"type":"VEC2"
		},
		{
			"bufferView":17,
			"componentType":5126,
			"count":954,
			"type":"VEC2"
		},
		{
			"bufferView":18,
			"componentType":5123,
			"count":4278,
			"type":"SCALAR"
		},
		{
			"bufferView":19,
			"componentType":5126,
			"count":277,
			"max":[
				0.28674688935279846,
				0.4195874035358429,
				-3.263343334197998
			],
			"min":[
				-0.2862279415130615,
				-0.23148632049560547,
				-3.9421162605285645
			],
			"type":"VEC3"
		},
		{
			"bufferView":20,
			"componentType":5126,
			"count":277,
			"type":"VEC3"
		},
		{
			"bufferView":21,
			"componentType":5126,
			"count":277,
			"type":"VEC2"
		},
		{
			"bufferView":22,
			"componentType":5123,
			"count":1440,
			"type":"SCALAR"
		},
		{
			"bufferView":23,
			"componentType":5126,
			"count":935,
			"max":[
				1.5500118732452393,
				4.446231365203857,
				0.6422309279441833
			],
			"min":[
				-1.461511254310608,
				3.1906039714813232,
				-0.5090187191963196
			],
			"type":"VEC3"
		},
		{
			"bufferView":24,
			"componentType":5126,
			"count":935,
			"type":"VEC3"
		},
		{
			"bufferView":25,
			"componentType":5126,
			"count":935,
			"type":"VEC2"
		},
		{
			"bufferView":26,
			"componentType":5123,
			"count":3108,
			"type":"SCALAR"
		},
		{
			"bufferView":27,
			"componentType":5126,
			"count":188,
			"max":[
				0.6683570146560669,
				3.220886707305908,
				0.39628714323043823
			],
			"min":[
				-0.5590428709983826,
				2.5506417751312256,
				-0.5708955526351929
			],
			"type":"VEC3"
		},
		{
			"bufferView":28,
			"componentType":5126,
			"count":188,
			"type":"VEC3"
		},
		{
			"bufferView":29,
			"componentType":5126,
			"count":188,
			"type":"VEC2"
		},
		{
			"bufferView":30,
			"componentType":5123,
			"count":576,
			"type":"SCALAR"
		},
		{
			"bufferView":31,
			"componentType":5126,
			"count":941,
			"max":[
				0.973589301109314,
				3.248591184616089,
				0.7645990252494812
			],
			"min":[
				-0.4720999598503113,
				2.0702106952667236,
				-0.4975183606147766
			],
			"type":"VEC3"
		},
		{
			"bufferView":32,
			"componentType":5126,
			"count":941,
			"type":"VEC3"
		},
		{
			"bufferView":33,
			"componentType":5126,
			"count":941,
			"type":"VEC2"
		},
		{
			"bufferView":34,
			"componentType":5123,
			"count":3234,
			"type":"SCALAR"
		},
		{
			"bufferView":35,
			"componentType":5126,
			"count":349,
			"max":[
				15.260250091552734,
				19.715404510498047,
				-160.75340270996094
			],
			"min":[
				-14.979016304016113,
				-10.87583065032959,
				-204.9095458984375
			],
			"type":"VEC3"
		},
		{
			"bufferView":36,
			"componentType":5126,
			"count":349,
			"type":"VEC3"
		},
		{
			"bufferView":37,
			"componentType":5126,
			"count":349,
			"type":"VEC2"
		},
		{
			"bufferView":38,
			"componentType":5123,
			"count":1680,
			"type":"SCALAR"
		}
	],
	"bufferViews":[
		{
			"buffer":0,
			"byteLength":3776,
			"byteOffset":0,
			"target":34962
		},
		{
			"buffer":0,
			"byteLength":5664,
			"byteOffset":3776,
			"target":34962
		},
		{
			"buffer":0,
			"byteLength":5664,
			"byteOffset":9440,
			"target":34962
		},
		{
			"buffer":0,
			"byteLength":3776,
			"byteOffset":15104,
			"target":34962
		},
		{
			"buffer":0,
			"byteLength":2676,
			"byteOffset":18880,
			"target":34963
		},
		{
			"buffer":0,
			"byteLength":8628,
			"byteOffset":21556,
			"target":34962
		},
		{
			"buffer":0,
			"byteLength":8628,
			"byteOffset":30184,
			"target":34962
		},
		{
			"buffer":0,
			"byteLength":5752,
			"byteOffset":38812,
			"target":34962
		},
		{
			"buffer":0,
			"byteLength":5208,
			"byteOffset":44564,
			"target":34963
		},
		{
			"buffer":0,
			"byteLength":3936,
			"byteOffset":49772,
			"target":34962
		},
		{
			"buffer":0,
			"byteLength":3936,
			"byteOffset":53708,
			"target":34962
		},
		{
			"buffer":0,
			"byteLength":2624,
			"byteOffset":57644,
			"target":34962
		},
		{
			"buffer":0,
			"byteLength":1728,
			"byteOffset":60268,
			"target":34963
		},
		{
			"buffer":0,
			"byteLength":7632,
			"byteOffset":61996,
			"target":34962
		},
		{
			"buffer":0,
			"byteLength":11448,
			"byteOffset":69628,
			"target":34962
		},
		{
			"buffer":0,
			"byteLength":11448,
			"byteOffset":81076,
			"target":34962
		},
		{
			"buffer":0,
			"byteLength":7632,
			"byteOffset":92524,
			"target":34962
		},
		{
			"buffer":0,
			"byteLength":7632,
			"byteOffset":100156,
			"target":34962
		},
		{
			"buffer":0,
			"byteLength":8556,
			"byteOffset":107788,
			"target":34963
		},
		{
			"buffer":0,
			"byteLength":3324,
			"byteOffset":116344,
			"target":34962
		},
		{
			"buffer":0,
			"byteLength":3324,
			"byteOffset":119668,
			"target":34962
		},
		{
			"buffer":0,
			"byteLength":2216,
			"byteOffset":122992,
			"target":34962
		},
		{
			"buffer":0,
			"byteLength":2880,
			"byteOffset":125208,
			"target":34963
		},
		{
			"buffer":0,
			"byteLength":11220,
			"byteOffset":128088,
			"target":34962
		},
		{
			"buffer":0,
			"byteLength":11220,
			"byteOffset":139308,
			"target":34962
		},
		{
			"buffer":0,
			"byteLength":7480,
			"byteOffset":150528,
			"target":34962
		},
		{
			"buffer":0,
			"byteLength":6216,
			"byteOffset":158008,
			"target":34963
		},
		{
			"buffer":0,
			"byteLength":2256,
			"byteOffset":164224,
			"target":34962
		},
		{
			"buffer":0,
			"byteLength":2256,
			"byteOffset":166480,
			"target":34962
		},
		{
			"buffer":0,
			"byteLength":1504,
			"byteOffset":168736,
			"target":34962
		},
		{
			"buffer":0,
			"byteLength":1152,
			"byteOffset":170240,
			"target":34963
		},
		{
			"buffer":0,
			"byteLength":11292,
			"byteOffset":171392,
			"target":34962
		},
		{
			"buffer":0,
			"byteLength":11292,
			"byteOffset":182684,
			"target":34962
		},
		{
			"buffer":0,
			"byteLength":7528,
			"byteOffset":193976,
			"target":34962
		},
		{
			"buffer":0,
			"byteLength":6468,
			"byteOffset":201504,
			"target":34963
		},
		{
			"buffer":0,
			"byteLength":4188,
			"byteOffset":207972,
			"target":34962
		},
		{
			"buffer":0,
			"byteLength":4188,
			"byteOffset":212160,
			"target":34962
		},
		{
			"buffer":0,
			"byteLength":2792,
			"byteOffset":216348,
			"target":34962
		},
		{
			"buffer":0,
			"byteLength":3360,
			"byteOffset":219140,
			"target":34963
		}
	],
	"samplers":[
		{
			"magFilter":9729,
			"minFilter":9987
		}
	],
	"buffers":[
		{
			"byteLength":222500,
			"uri":"M_cernunnos_pose.bin"
		}
	]
}
