{
	"asset":{
		"generator":"Khronos glTF Blender I/O v3.6.27",
		"version":"2.0"
	},
	"scene":0,
	"scenes":[
		{
			"name":"Scene",
			"nodes":[
				0,
				1,
				2,
				3,
				4,
				5,
				6
			]
		}
	],
	"nodes":[
		{
			"mesh":0,
			"name":"M_Feet_DEA",
			"scale":[
				1.899999976158142,
				1.899999976158142,
				1.899999976158142
			]
		},
		{
			"mesh":1,
			"name":"M_LOWERBODY_DEA",
			"scale":[
				1.899999976158142,
				1.899999976158142,
				1.899999976158142
			]
		},
		{
			"mesh":2,
			"name":"M_TIARA_DEA",
			"scale":[
				1.899999976158142,
				1.899999976158142,
				1.899999976158142
			]
		},
		{
			"mesh":3,
			"name":"M_UPPERBODY_DEA",
			"scale":[
				1.899999976158142,
				1.899999976158142,
				1.899999976158142
			]
		},
		{
			"mesh":4,
			"name":"M_Hair_Standard_01.003",
			"rotation":[
				0.70710688829422,
				0,
				0,
				0.7071066498756409
			],
			"scale":[
				0.01899999938905239,
				0.018999995663762093,
				0.018999995663762093
			]
		},
		{
			"mesh":5,
			"name":"ShapeA_Hands_BaseMesh.005",
			"rotation":[
				0.7071068286895752,
				0,
				0,
				0.7071068286895752
			]
		},
		{
			"mesh":6,
			"name":"head_mamasara_m",
			"rotation":[
				0.7071068286895752,
				0,
				0,
				0.7071068286895752
			],
			"scale":[
				0.01899999938905239,
				0.01900000125169754,
				0.01900000125169754
			]
		}
	],
	"materials":[
		{
			"emissiveFactor":[
				0.020000000596046452,
				0.022000000208616255,
				0.02500000037252903
			],
			"name":"maniqui",
			"pbrMetallicRoughness":{
				"baseColorFactor":[
					0.4000000059604645,
					0.4399999976158142,
					0.5,
					1
				],
				"metallicFactor":0,
				"roughnessFactor":0.5
			}
		},
		{
			"alphaCutoff":0.5,
			"alphaMode":"MASK",
			"doubleSided":true,
			"emissiveFactor":[
				0.05000000074505806,
				0.05000000074505806,
				0.05000000074505806
			],
			"emissiveTexture":{
				"index":0
			},
			"name":"dea_matrona_atlas_alpha",
			"pbrMetallicRoughness":{
				"baseColorTexture":{
					"index":1
				},
				"metallicFactor":0
			}
		},
		{
			"doubleSided":true,
			"emissiveFactor":[
				0.05000000074505806,
				0.05000000074505806,
				0.05000000074505806
			],
			"emissiveTexture":{
				"index":2
			},
			"name":"dea_matrona_atlas",
			"pbrMetallicRoughness":{
				"baseColorTexture":{
					"index":3
				},
				"metallicFactor":0
			}
		}
	],
	"meshes":[
		{
			"name":"Mesh.056",
			"primitives":[
				{
					"attributes":{
						"COLOR_0":0,
						"POSITION":1,
						"NORMAL":2,
						"TEXCOORD_0":3
					},
					"indices":4,
					"material":0
				},
				{
					"attributes":{
						"COLOR_0":5,
						"POSITION":6,
						"NORMAL":7,
						"TEXCOORD_0":8
					},
					"indices":9,
					"material":1
				}
			]
		},
		{
			"name":"Mesh.055",
			"primitives":[
				{
					"attributes":{
						"POSITION":10,
						"NORMAL":11,
						"TEXCOORD_0":12,
						"TEXCOORD_1":13
					},
					"indices":14,
					"material":0
				},
				{
					"attributes":{
						"POSITION":15,
						"NORMAL":16,
						"TEXCOORD_0":17,
						"TEXCOORD_1":18
					},
					"indices":19,
					"material":2
				}
			]
		},
		{
			"name":"Mesh.054",
			"primitives":[
				{
					"attributes":{
						"POSITION":20,
						"NORMAL":21,
						"TEXCOORD_0":22
					},
					"indices":23,
					"material":2
				}
			]
		},
		{
			"name":"Mesh.052",
			"primitives":[
				{
					"attributes":{
						"POSITION":24,
						"NORMAL":25,
						"TEXCOORD_0":26
					},
					"indices":27,
					"material":0
				},
				{
					"attributes":{
						"POSITION":28,
						"NORMAL":29,
						"TEXCOORD_0":30
					},
					"indices":31,
					"material":2
				},
				{
					"attributes":{
						"POSITION":32,
						"NORMAL":33,
						"TEXCOORD_0":34
					},
					"indices":35,
					"material":1
				}
			]
		},
		{
			"name":"Mesh.061",
			"primitives":[
				{
					"attributes":{
						"POSITION":36,
						"NORMAL":37,
						"TEXCOORD_0":38
					},
					"indices":39,
					"material":0
				}
			]
		},
		{
			"name":"ShapeA_Hands_BaseMesh.005",
			"primitives":[
				{
					"attributes":{
						"COLOR_0":40,
						"POSITION":41,
						"NORMAL":42,
						"TEXCOORD_0":43
					},
					"indices":44,
					"material":0
				}
			]
		},
		{
			"name":"Mesh.025",
			"primitives":[
				{
					"attributes":{
						"POSITION":45,
						"NORMAL":46,
						"TEXCOORD_0":47
					},
					"indices":48,
					"material":0
				}
			]
		}
	],
	"textures":[
		{
			"sampler":0,
			"source":0
		},
		{
			"sampler":0,
			"source":1
		},
		{
			"sampler":0,
			"source":1
		},
		{
			"sampler":0,
			"source":1
		}
	],
	"images":[
		{
			"mimeType":"image/png",
			"name":"cernunnos_atlas",
			"uri":"textures/cernunnos_atlas.png"
		},
		{
			"mimeType":"image/png",
			"name":"dea_matrona_atlas",
			"uri":"textures/dea_matrona_atlas.png"
		}
	],
	"accessors":[
		{
			"bufferView":0,
			"componentType":5123,
			"count":260,
			"normalized":true,
			"type":"VEC4"
		},
		{
			"bufferView":1,
			"componentType":5126,
			"count":260,
			"max":[
				0.2136935144662857,
				0.39155739545822144,
				0.20794515311717987
			],
			"min":[
				-0.2375282496213913,
				0.11353893578052521,
				-0.4433452785015106
			],
			"type":"VEC3"
		},
		{
			"bufferView":2,
			"componentType":5126,
			"count":260,
			"type":"VEC3"
		},
		{
			"bufferView":3,
			"componentType":5126,
			"count":260,
			"type":"VEC2"
		},
		{
			"bufferView":4,
			"componentType":5123,
			"count":954,
			"type":"SCALAR"
		},
		{
			"bufferView":5,
			"componentType":5123,
			"count":458,
			"normalized":true,
			"type":"VEC4"
		},
		{
			"bufferView":6,
			"componentType":5126,
			"count":458,
			"max":[
				0.22047977149486542,
				0.37452375888824463,
				0.19623064994812012
			],
			"min":[
				-0.249927818775177,
				0.092488594353199,
				-0.4581913650035858
			],
			"type":"VEC3"
		},
		{
			"bufferView":7,
			"componentType":5126,
			"count":458,
			"type":"VEC3"
		},
		{
			"bufferView":8,
			"componentType":5126,
			"count":458,
			"type":"VEC2"
		},
		{
			"bufferView":9,
			"componentType":5123,
			"count":1230,
			"type":"SCALAR"
		},
		{
			"bufferView":10,
			"componentType":5126,
			"count":146,
			"max":[
				0.18533682823181152,
				0.8969632387161255,
				0.3095986843109131
			],
			"min":[
				-0.2532289922237396,
				0.3311295211315155,
				-0.3961302936077118
			],
			"type":"VEC3"
		},
		{
			"bufferView":11,
			"componentType":5126,
			"count":146,
			"type":"VEC3"
		},
		{
			"bufferView":12,
			"componentType":5126,
			"count":146,
			"type":"VEC2"
		},
		{
			"bufferView":13,
			"componentType":5126,
			"count":146,
			"type":"VEC2"
		},
		{
			"bufferView":14,
			"componentType":5123,
			"count":528,
			"type":"SCALAR"
		},
		{
			"bufferView":15,
			"componentType":5126,
			"count":815,
			"max":[
				0.2184094786643982,
				1.1437357664108276,
				0.34111708402633667
			],
			"min":[
				-0.27925658226013184,
				0.5538437366485596,
				-0.2572475075721741
			],
			"type":"VEC3"
		},
		{
			"bufferView":16,
			"componentType":5126,
			"count":815,
			"type":"VEC3"
		},
		{
			"bufferView":17,
			"componentType":5126,
			"count":815,
			"type":"VEC2"
		},
		{
			"bufferView":18,
			"componentType":5126,
			"count":815,
			"type":"VEC2"
		},
		{
			"bufferView":19,
			"componentType":5123,
			"count":2538,
			"type":"SCALAR"
		},
		{
			"bufferView":20,
			"componentType":5126,
			"count":686,
			"max":[
				0.19923536479473114,
				2.1186251640319824,
				0.26053693890571594
			],
			"min":[
				-0.20533739030361176,
				1.931275725364685,
				-0.161268949508667
			],
			"type":"VEC3"
		},
		{
			"bufferView":21,
			"componentType":5126,
			"count":686,
			"type":"VEC3"
		},
		{
			"bufferView":22,
			"componentType":5126,
			"count":686,
			"type":"VEC2"
		},
		{
			"bufferView":23,
			"componentType":5123,
			"count":2532,
			"type":"SCALAR"
		},
		{
			"bufferView":24,
			"componentType":5126,
			"count":249,
			"max":[
				0.45632436871528625,
				1.6797281503677368,
				0.22089773416519165
			],
			"min":[
				-0.3867571949958801,
				1.1073622703552246,
				-0.36154842376708984
			],
			"type":"VEC3"
		},
		{
			"bufferView":25,
			"componentType":5126,
			"count":249,
			"type":"VEC3"
		},
		{
			"bufferView":26,
			"componentType":5126,
			"count":249,
			"type":"VEC2"
		},
		{
			"bufferView":27,
			"componentType":5123,
			"count":888,
			"type":"SCALAR"
		},
		{
			"bufferView":28,
			"componentType":5126,
			"count":421,
			"max":[
				0.19638676941394806,
				1.6760090589523315,
				0.2011357545852661
			],
			"min":[
				-0.20057661831378937,
				1.1073622703552246,
				-0.156436026096344
			],
			"type":"VEC3"
		},
		{
			"bufferView":29,
			"componentType":5126,
			"count":421,
			"type":"VEC3"
		},
		{
			"bufferView":30,
			"componentType":5126,
			"count":421,
			"type":"VEC2"
		},
		{
			"bufferView":31,
			"componentType":5123,
			"count":1548,
			"type":"SCALAR"
		},
		{
			"bufferView":32,
			"componentType":5126,
			"count":90,
			"max":[
				0.44760894775390625,
				1.6436903476715088,
				0.18486963212490082
			],
			"min":[
				-0.339718759059906,
				1.3046021461486816,
				-0.36518996953964233
			],
			"type":"VEC3"
		},
		{
			"bufferView":33,
			"componentType":5126,
			"count":90,
			"type":"VEC3"
		},
		{
			"bufferView":34,
			"componentType":5126,
			"count":90,
			"type":"VEC2"
		},
		{
			"bufferView":35,
			"componentType":5123,
			"count":312,
			"type":"SCALAR"
		},
		{
			"bufferView":36,
			"componentType":5126,
			"count":277,
			"max":[
				15.09194278717041,
				22.083547592163086,
				-171.75494384765625
			],
			"min":[
				-15.064627647399902,
				-12.183493614196777,
				-207.47982788085938
			],
			"type":"VEC3"
		},
		{
			"bufferView":37,
			"componentType":5126,
			"count":277,
			"type":"VEC3"
		},
		{
			"bufferView":38,
			"componentType":5126,
			"count":277,
			"type":"VEC2"
		},
		{
			"bufferView":39,
			"componentType":5123,
			"count":1440,
			"type":"SCALAR"
		},
		{
			"bufferView":40,
			"componentType":5123,
			"count":814,
			"normalized":true,
			"type":"VEC4"
		},
		{
			"bufferView":41,
			"componentType":5126,
			"count":814,
			"max":[
				0.97632896900177,
				0.502573549747467,
				-1.9791136980056763
			],
			"min":[
				-0.8144824504852295,
				-0.6045141816139221,
				-2.5238702297210693
			],
			"type":"VEC3"
		},
		{
			"bufferView":42,
			"componentType":5126,
			"count":814,
			"type":"VEC3"
		},
		{
			"bufferView":43,
			"componentType":5126,
			"count":814,
			"type":"VEC2"
		},
		{
			"bufferView":44,
			"componentType":5123,
			"count":3636,
			"type":"SCALAR"
		},
		{
			"bufferView":45,
			"componentType":5126,
			"count":362,
			"max":[
				15.260252952575684,
				19.71540641784668,
				-160.75338745117188
			],
			"min":[
				-14.979011535644531,
				-10.875823020935059,
				-204.90953063964844
			],
			"type":"VEC3"
		},
		{
			"bufferView":46,
			"componentType":5126,
			"count":362,
			"type":"VEC3"
		},
		{
			"bufferView":47,
			"componentType":5126,
			"count":362,
			"type":"VEC2"
		},
		{
			"bufferView":48,
			"componentType":5123,
			"count":1680,
			"type":"SCALAR"
		}
	],
	"bufferViews":[
		{
			"buffer":0,
			"byteLength":2080,
			"byteOffset":0,
			"target":34962
		},
		{
			"buffer":0,
			"byteLength":3120,
			"byteOffset":2080,
			"target":34962
		},
		{
			"buffer":0,
			"byteLength":3120,
			"byteOffset":5200,
			"target":34962
		},
		{
			"buffer":0,
			"byteLength":2080,
			"byteOffset":8320,
			"target":34962
		},
		{
			"buffer":0,
			"byteLength":1908,
			"byteOffset":10400,
			"target":34963
		},
		{
			"buffer":0,
			"byteLength":3664,
			"byteOffset":12308,
			"target":34962
		},
		{
			"buffer":0,
			"byteLength":5496,
			"byteOffset":15972,
			"target":34962
		},
		{
			"buffer":0,
			"byteLength":5496,
			"byteOffset":21468,
			"target":34962
		},
		{
			"buffer":0,
			"byteLength":3664,
			"byteOffset":26964,
			"target":34962
		},
		{
			"buffer":0,
			"byteLength":2460,
			"byteOffset":30628,
			"target":34963
		},
		{
			"buffer":0,
			"byteLength":1752,
			"byteOffset":33088,
			"target":34962
		},
		{
			"buffer":0,
			"byteLength":1752,
			"byteOffset":34840,
			"target":34962
		},
		{
			"buffer":0,
			"byteLength":1168,
			"byteOffset":36592,
			"target":34962
		},
		{
			"buffer":0,
			"byteLength":1168,
			"byteOffset":37760,
			"target":34962
		},
		{
			"buffer":0,
			"byteLength":1056,
			"byteOffset":38928,
			"target":34963
		},
		{
			"buffer":0,
			"byteLength":9780,
			"byteOffset":39984,
			"target":34962
		},
		{
			"buffer":0,
			"byteLength":9780,
			"byteOffset":49764,
			"target":34962
		},
		{
			"buffer":0,
			"byteLength":6520,
			"byteOffset":59544,
			"target":34962
		},
		{
			"buffer":0,
			"byteLength":6520,
			"byteOffset":66064,
			"target":34962
		},
		{
			"buffer":0,
			"byteLength":5076,
			"byteOffset":72584,
			"target":34963
		},
		{
			"buffer":0,
			"byteLength":8232,
			"byteOffset":77660,
			"target":34962
		},
		{
			"buffer":0,
			"byteLength":8232,
			"byteOffset":85892,
			"target":34962
		},
		{
			"buffer":0,
			"byteLength":5488,
			"byteOffset":94124,
			"target":34962
		},
		{
			"buffer":0,
			"byteLength":5064,
			"byteOffset":99612,
			"target":34963
		},
		{
			"buffer":0,
			"byteLength":2988,
			"byteOffset":104676,
			"target":34962
		},
		{
			"buffer":0,
			"byteLength":2988,
			"byteOffset":107664,
			"target":34962
		},
		{
			"buffer":0,
			"byteLength":1992,
			"byteOffset":110652,
			"target":34962
		},
		{
			"buffer":0,
			"byteLength":1776,
			"byteOffset":112644,
			"target":34963
		},
		{
			"buffer":0,
			"byteLength":5052,
			"byteOffset":114420,
			"target":34962
		},
		{
			"buffer":0,
			"byteLength":5052,
			"byteOffset":119472,
			"target":34962
		},
		{
			"buffer":0,
			"byteLength":3368,
			"byteOffset":124524,
			"target":34962
		},
		{
			"buffer":0,
			"byteLength":3096,
			"byteOffset":127892,
			"target":34963
		},
		{
			"buffer":0,
			"byteLength":1080,
			"byteOffset":130988,
			"target":34962
		},
		{
			"buffer":0,
			"byteLength":1080,
			"byteOffset":132068,
			"target":34962
		},
		{
			"buffer":0,
			"byteLength":720,
			"byteOffset":133148,
			"target":34962
		},
		{
			"buffer":0,
			"byteLength":624,
			"byteOffset":133868,
			"target":34963
		},
		{
			"buffer":0,
			"byteLength":3324,
			"byteOffset":134492,
			"target":34962
		},
		{
			"buffer":0,
			"byteLength":3324,
			"byteOffset":137816,
			"target":34962
		},
		{
			"buffer":0,
			"byteLength":2216,
			"byteOffset":141140,
			"target":34962
		},
		{
			"buffer":0,
			"byteLength":2880,
			"byteOffset":143356,
			"target":34963
		},
		{
			"buffer":0,
			"byteLength":6512,
			"byteOffset":146236,
			"target":34962
		},
		{
			"buffer":0,
			"byteLength":9768,
			"byteOffset":152748,
			"target":34962
		},
		{
			"buffer":0,
			"byteLength":9768,
			"byteOffset":162516,
			"target":34962
		},
		{
			"buffer":0,
			"byteLength":6512,
			"byteOffset":172284,
			"target":34962
		},
		{
			"buffer":0,
			"byteLength":7272,
			"byteOffset":178796,
			"target":34963
		},
		{
			"buffer":0,
			"byteLength":4344,
			"byteOffset":186068,
			"target":34962
		},
		{
			"buffer":0,
			"byteLength":4344,
			"byteOffset":190412,
			"target":34962
		},
		{
			"buffer":0,
			"byteLength":2896,
			"byteOffset":194756,
			"target":34962
		},
		{
			"buffer":0,
			"byteLength":3360,
			"byteOffset":197652,
			"target":34963
		}
	],
	"samplers":[
		{
			"magFilter":9729,
			"minFilter":9987
		}
	],
	"buffers":[
		{
			"byteLength":201012,
			"uri":"M_dea_matrona_pose.bin"
		}
	]
}
