{
	"asset":{
		"generator":"Khronos glTF Blender I/O v3.6.27",
		"version":"2.0"
	},
	"scene":0,
	"scenes":[
		{
			"name":"Scene",
			"nodes":[
				0,
				1,
				2,
				3,
				4,
				5,
				6,
				7
			]
		}
	],
	"nodes":[
		{
			"mesh":0,
			"name":"M_epona_feet"
		},
		{
			"mesh":1,
			"name":"M_epona_helmet"
		},
		{
			"mesh":2,
			"name":"M_epona_lower"
		},
		{
			"mesh":3,
			"name":"M_epona_upper",
			"rotation":[
				0.70710688829422,
				0,
				0,
				0.7071066498756409
			]
		},
		{
			"mesh":4,
			"name":"M_epona_upper_tatoo",
			"rotation":[
				0.70710688829422,
				0,
				0,
				0.7071066498756409
			]
		},
		{
			"mesh":5,
			"name":"M_Hair_Standard_01.001",
			"rotation":[
				0.70710688829422,
				0,
				0,
				0.7071066498756409
			]
		},
		{
			"mesh":6,
			"name":"M_Head_BaseMesh.001",
			"rotation":[
				0.70710688829422,
				0,
				0,
				0.7071066498756409
			]
		},
		{
			"mesh":7,
			"name":"ShapeA_Hands_BaseMesh.001",
			"rotation":[
				0.7071068286895752,
				0,
				0,
				0.7071068286895752
			]
		}
	],
	"materials":[
		{
			"doubleSided":true,
			"emissiveFactor":[
				0.05000000074505806,
				0.05000000074505806,
				0.05000000074505806
			],
			"emissiveTexture":{
				"index":0
			},
			"name":"epona_atlas",
			"pbrMetallicRoughness":{
				"baseColorTexture":{
					"index":1
				},
				"metallicFactor":0
			}
		},
		{
			"emissiveFactor":[
				0.020000000596046452,
				0.022000000208616255,
				0.02500000037252903
			],
			"name":"maniqui",
			"pbrMetallicRoughness":{
				"baseColorFactor":[
					0.4000000059604645,
					0.4399999976158142,
					0.5,
					1
				],
				"metallicFactor":0,
				"roughnessFactor":0.5
			}
		},
		{
			"alphaCutoff":0.5,
			"alphaMode":"MASK",
			"doubleSided":true,
			"emissiveFactor":[
				0.05000000074505806,
				0.05000000074505806,
				0.05000000074505806
			],
			"emissiveTexture":{
				"index":2
			},
			"name":"epona_atlas_alpha",
			"pbrMetallicRoughness":{
				"baseColorTexture":{
					"index":3
				},
				"metallicFactor":0
			}
		}
	],
	"meshes":[
		{
			"name":"Mesh.047",
			"primitives":[
				{
					"attributes":{
						"COLOR_0":0,
						"POSITION":1,
						"NORMAL":2,
						"TEXCOORD_0":3
					},
					"indices":4,
					"material":0
				}
			]
		},
		{
			"name":"Circle.002",
			"primitives":[
				{
					"attributes":{
						"POSITION":5,
						"NORMAL":6,
						"TEXCOORD_0":7
					},
					"indices":8,
					"material":0
				}
			]
		},
		{
			"name":"mesh.002",
			"primitives":[
				{
					"attributes":{
						"POSITION":9,
						"NORMAL":10,
						"TEXCOORD_0":11
					},
					"indices":12,
					"material":0
				}
			]
		},
		{
			"name":"Mesh.046",
			"primitives":[
				{
					"attributes":{
						"POSITION":13,
						"NORMAL":14,
						"TEXCOORD_0":15,
						"TEXCOORD_1":16,
						"TEXCOORD_2":17
					},
					"indices":18,
					"material":1
				},
				{
					"attributes":{
						"POSITION":19,
						"NORMAL":20,
						"TEXCOORD_0":21,
						"TEXCOORD_1":22,
						"TEXCOORD_2":23
					},
					"indices":24,
					"material":0
				}
			]
		},
		{
			"name":"Mesh.045",
			"primitives":[
				{
					"attributes":{
						"POSITION":25,
						"NORMAL":26,
						"TEXCOORD_0":27
					},
					"indices":28,
					"material":2
				}
			]
		},
		{
			"name":"Mesh.044",
			"primitives":[
				{
					"attributes":{
						"POSITION":29,
						"NORMAL":30,
						"TEXCOORD_0":31
					},
					"indices":32,
					"material":1
				}
			]
		},
		{
			"name":"Mesh.043",
			"primitives":[
				{
					"attributes":{
						"POSITION":33,
						"NORMAL":34,
						"TEXCOORD_0":35
					},
					"indices":36,
					"material":1
				}
			]
		},
		{
			"name":"ShapeA_Hands_BaseMesh.002",
			"primitives":[
				{
					"attributes":{
						"COLOR_0":37,
						"POSITION":38,
						"NORMAL":39,
						"TEXCOORD_0":40
					},
					"indices":41,
					"material":1
				}
			]
		}
	],
	"textures":[
		{
			"sampler":0,
			"source":0
		},
		{
			"sampler":0,
			"source":0
		},
		{
			"sampler":0,
			"source":1
		},
		{
			"sampler":0,
			"source":0
		}
	],
	"images":[
		{
			"mimeType":"image/png",
			"name":"epona_atlas",
			"uri":"textures/epona_atlas.png"
		},
		{
			"mimeType":"image/png",
			"name":"cernunnos_atlas",
			"uri":"textures/cernunnos_atlas.png"
		}
	],
	"accessors":[
		{
			"bufferView":0,
			"componentType":5123,
			"count":1146,
			"normalized":true,
			"type":"VEC4"
		},
		{
			"bufferView":1,
			"componentType":5126,
			"count":1146,
			"max":[
				0.42938292026519775,
				0.7607535123825073,
				0.3720859885215759
			],
			"min":[
				-0.481107234954834,
				0.1588030457496643,
				-0.8855857849121094
			],
			"type":"VEC3"
		},
		{
			"bufferView":2,
			"componentType":5126,
			"count":1146,
			"type":"VEC3"
		},
		{
			"bufferView":3,
			"componentType":5126,
			"count":1146,
			"type":"VEC2"
		},
		{
			"bufferView":4,
			"componentType":5123,
			"count":3708,
			"type":"SCALAR"
		},
		{
			"bufferView":5,
			"componentType":5126,
			"count":940,
			"max":[
				0.4997991621494293,
				4.159439563751221,
				0.44141238927841187
			],
			"min":[
				-0.4672212600708008,
				3.2523863315582275,
				-0.39917802810668945
			],
			"type":"VEC3"
		},
		{
			"bufferView":6,
			"componentType":5126,
			"count":940,
			"type":"VEC3"
		},
		{
			"bufferView":7,
			"componentType":5126,
			"count":940,
			"type":"VEC2"
		},
		{
			"bufferView":8,
			"componentType":5123,
			"count":3126,
			"type":"SCALAR"
		},
		{
			"bufferView":9,
			"componentType":5126,
			"count":1232,
			"max":[
				0.3874034881591797,
				2.2109272480010986,
				0.6356551647186279
			],
			"min":[
				-0.5214430689811707,
				0.6299810409545898,
				-0.752194344997406
			],
			"type":"VEC3"
		},
		{
			"bufferView":10,
			"componentType":5126,
			"count":1232,
			"type":"VEC3"
		},
		{
			"bufferView":11,
			"componentType":5126,
			"count":1232,
			"type":"VEC2"
		},
		{
			"bufferView":12,
			"componentType":5123,
			"count":5070,
			"type":"SCALAR"
		},
		{
			"bufferView":13,
			"componentType":5126,
			"count":299,
			"max":[
				0.8670162558555603,
				0.4197055697441101,
				-2.1027743816375732
			],
			"min":[
				-0.7348389625549316,
				-0.6900756359100342,
				-3.19276762008667
			],
			"type":"VEC3"
		},
		{
			"bufferView":14,
			"componentType":5126,
			"count":299,
			"type":"VEC3"
		},
		{
			"bufferView":15,
			"componentType":5126,
			"count":299,
			"type":"VEC2"
		},
		{
			"bufferView":16,
			"componentType":5126,
			"count":299,
			"type":"VEC2"
		},
		{
			"bufferView":17,
			"componentType":5126,
			"count":299,
			"type":"VEC2"
		},
		{
			"bufferView":18,
			"componentType":5123,
			"count":1002,
			"type":"SCALAR"
		},
		{
			"bufferView":19,
			"componentType":5126,
			"count":563,
			"max":[
				0.3418023884296417,
				0.37571656703948975,
				-2.1027743816375732
			],
			"min":[
				-0.3684441149234772,
				-0.2957390248775482,
				-3.18766450881958
			],
			"type":"VEC3"
		},
		{
			"bufferView":20,
			"componentType":5126,
			"count":563,
			"type":"VEC3"
		},
		{
			"bufferView":21,
			"componentType":5126,
			"count":563,
			"type":"VEC2"
		},
		{
			"bufferView":22,
			"componentType":5126,
			"count":563,
			"type":"VEC2"
		},
		{
			"bufferView":23,
			"componentType":5126,
			"count":563,
			"type":"VEC2"
		},
		{
			"bufferView":24,
			"componentType":5123,
			"count":1794,
			"type":"SCALAR"
		},
		{
			"bufferView":25,
			"componentType":5126,
			"count":231,
			"max":[
				0.8737974762916565,
				0.4273932874202728,
				-2.3367648124694824
			],
			"min":[
				-0.7407732605934143,
				-0.6965997219085693,
				-3.200174570083618
			],
			"type":"VEC3"
		},
		{
			"bufferView":26,
			"componentType":5126,
			"count":231,
			"type":"VEC3"
		},
		{
			"bufferView":27,
			"componentType":5126,
			"count":231,
			"type":"VEC2"
		},
		{
			"bufferView":28,
			"componentType":5123,
			"count":888,
			"type":"SCALAR"
		},
		{
			"bufferView":29,
			"componentType":5126,
			"count":168,
			"max":[
				0.27188199758529663,
				0.3769257664680481,
				-3.2634963989257812
			],
			"min":[
				-0.2817792594432831,
				-0.10212381929159164,
				-3.6240715980529785
			],
			"type":"VEC3"
		},
		{
			"bufferView":30,
			"componentType":5126,
			"count":168,
			"type":"VEC3"
		},
		{
			"bufferView":31,
			"componentType":5126,
			"count":168,
			"type":"VEC2"
		},
		{
			"bufferView":32,
			"componentType":5123,
			"count":501,
			"type":"SCALAR"
		},
		{
			"bufferView":33,
			"componentType":5126,
			"count":349,
			"max":[
				0.28994473814964294,
				0.374592661857605,
				-3.054314613342285
			],
			"min":[
				-0.28460127115249634,
				-0.20664077997207642,
				-3.8932812213897705
			],
			"type":"VEC3"
		},
		{
			"bufferView":34,
			"componentType":5126,
			"count":349,
			"type":"VEC3"
		},
		{
			"bufferView":35,
			"componentType":5126,
			"count":349,
			"type":"VEC2"
		},
		{
			"bufferView":36,
			"componentType":5123,
			"count":1680,
			"type":"SCALAR"
		},
		{
			"bufferView":37,
			"componentType":5123,
			"count":814,
			"normalized":true,
			"type":"VEC4"
		},
		{
			"bufferView":38,
			"componentType":5126,
			"count":814,
			"max":[
				0.97632896900177,
				0.502573549747467,
				-1.9791136980056763
			],
			"min":[
				-0.8144824504852295,
				-0.6045141816139221,
				-2.5238702297210693
			],
			"type":"VEC3"
		},
		{
			"bufferView":39,
			"componentType":5126,
			"count":814,
			"type":"VEC3"
		},
		{
			"bufferView":40,
			"componentType":5126,
			"count":814,
			"type":"VEC2"
		},
		{
			"bufferView":41,
			"componentType":5123,
			"count":3636,
			"type":"SCALAR"
		}
	],
	"bufferViews":[
		{
			"buffer":0,
			"byteLength":9168,
			"byteOffset":0,
			"target":34962
		},
		{
			"buffer":0,
			"byteLength":13752,
			"byteOffset":9168,
			"target":34962
		},
		{
			"buffer":0,
			"byteLength":13752,
			"byteOffset":22920,
			"target":34962
		},
		{
			"buffer":0,
			"byteLength":9168,
			"byteOffset":36672,
			"target":34962
		},
		{
			"buffer":0,
			"byteLength":7416,
			"byteOffset":45840,
			"target":34963
		},
		{
			"buffer":0,
			"byteLength":11280,
			"byteOffset":53256,
			"target":34962
		},
		{
			"buffer":0,
			"byteLength":11280,
			"byteOffset":64536,
			"target":34962
		},
		{
			"buffer":0,
			"byteLength":7520,
			"byteOffset":75816,
			"target":34962
		},
		{
			"buffer":0,
			"byteLength":6252,
			"byteOffset":83336,
			"target":34963
		},
		{
			"buffer":0,
			"byteLength":14784,
			"byteOffset":89588,
			"target":34962
		},
		{
			"buffer":0,
			"byteLength":14784,
			"byteOffset":104372,
			"target":34962
		},
		{
			"buffer":0,
			"byteLength":9856,
			"byteOffset":119156,
			"target":34962
		},
		{
			"buffer":0,
			"byteLength":10140,
			"byteOffset":129012,
			"target":34963
		},
		{
			"buffer":0,
			"byteLength":3588,
			"byteOffset":139152,
			"target":34962
		},
		{
			"buffer":0,
			"byteLength":3588,
			"byteOffset":142740,
			"target":34962
		},
		{
			"buffer":0,
			"byteLength":2392,
			"byteOffset":146328,
			"target":34962
		},
		{
			"buffer":0,
			"byteLength":2392,
			"byteOffset":148720,
			"target":34962
		},
		{
			"buffer":0,
			"byteLength":2392,
			"byteOffset":151112,
			"target":34962
		},
		{
			"buffer":0,
			"byteLength":2004,
			"byteOffset":153504,
			"target":34963
		},
		{
			"buffer":0,
			"byteLength":6756,
			"byteOffset":155508,
			"target":34962
		},
		{
			"buffer":0,
			"byteLength":6756,
			"byteOffset":162264,
			"target":34962
		},
		{
			"buffer":0,
			"byteLength":4504,
			"byteOffset":169020,
			"target":34962
		},
		{
			"buffer":0,
			"byteLength":4504,
			"byteOffset":173524,
			"target":34962
		},
		{
			"buffer":0,
			"byteLength":4504,
			"byteOffset":178028,
			"target":34962
		},
		{
			"buffer":0,
			"byteLength":3588,
			"byteOffset":182532,
			"target":34963
		},
		{
			"buffer":0,
			"byteLength":2772,
			"byteOffset":186120,
			"target":34962
		},
		{
			"buffer":0,
			"byteLength":2772,
			"byteOffset":188892,
			"target":34962
		},
		{
			"buffer":0,
			"byteLength":1848,
			"byteOffset":191664,
			"target":34962
		},
		{
			"buffer":0,
			"byteLength":1776,
			"byteOffset":193512,
			"target":34963
		},
		{
			"buffer":0,
			"byteLength":2016,
			"byteOffset":195288,
			"target":34962
		},
		{
			"buffer":0,
			"byteLength":2016,
			"byteOffset":197304,
			"target":34962
		},
		{
			"buffer":0,
			"byteLength":1344,
			"byteOffset":199320,
			"target":34962
		},
		{
			"buffer":0,
			"byteLength":1002,
			"byteOffset":200664,
			"target":34963
		},
		{
			"buffer":0,
			"byteLength":4188,
			"byteOffset":201668,
			"target":34962
		},
		{
			"buffer":0,
			"byteLength":4188,
			"byteOffset":205856,
			"target":34962
		},
		{
			"buffer":0,
			"byteLength":2792,
			"byteOffset":210044,
			"target":34962
		},
		{
			"buffer":0,
			"byteLength":3360,
			"byteOffset":212836,
			"target":34963
		},
		{
			"buffer":0,
			"byteLength":6512,
			"byteOffset":216196,
			"target":34962
		},
		{
			"buffer":0,
			"byteLength":9768,
			"byteOffset":222708,
			"target":34962
		},
		{
			"buffer":0,
			"byteLength":9768,
			"byteOffset":232476,
			"target":34962
		},
		{
			"buffer":0,
			"byteLength":6512,
			"byteOffset":242244,
			"target":34962
		},
		{
			"buffer":0,
			"byteLength":7272,
			"byteOffset":248756,
			"target":34963
		}
	],
	"samplers":[
		{
			"magFilter":9729,
			"minFilter":9987
		}
	],
	"buffers":[
		{
			"byteLength":256028,
			"uri":"M_epona_pose.bin"
		}
	]
}
