{
	"asset":{
		"generator":"Khronos glTF Blender I/O v3.6.27",
		"version":"2.0"
	},
	"scene":0,
	"scenes":[
		{
			"name":"Scene",
			"nodes":[
				0,
				1,
				2,
				3,
				4,
				5,
				6
			]
		}
	],
	"nodes":[
		{
			"mesh":0,
			"name":"M_Hair_Standard_01.006"
		},
		{
			"mesh":1,
			"name":"M_ brazos"
		},
		{
			"mesh":2,
			"name":"M_CROWN_MORRIGAN"
		},
		{
			"mesh":3,
			"name":"M_FEET_MORRIGAN.001"
		},
		{
			"mesh":4,
			"name":"M_LOWERBODY_MORRIGAN."
		},
		{
			"mesh":5,
			"name":"M_UPPERBODY_MORRIGAN."
		},
		{
			"mesh":6,
			"name":"head_mamasara_m.001",
			"scale":[
				1.899999976158142,
				1.9000000953674316,
				1.9000000953674316
			]
		}
	],
	"materials":[
		{
			"emissiveFactor":[
				0.020000000596046452,
				0.022000000208616255,
				0.02500000037252903
			],
			"name":"maniqui",
			"pbrMetallicRoughness":{
				"baseColorFactor":[
					0.4000000059604645,
					0.4399999976158142,
					0.5,
					1
				],
				"metallicFactor":0,
				"roughnessFactor":0.5
			}
		},
		{
			"doubleSided":true,
			"emissiveFactor":[
				0.05000000074505806,
				0.05000000074505806,
				0.05000000074505806
			],
			"emissiveTexture":{
				"index":0
			},
			"name":"morrigan_atlas",
			"pbrMetallicRoughness":{
				"baseColorTexture":{
					"index":1
				},
				"metallicFactor":0
			}
		},
		{
			"alphaCutoff":0.5,
			"alphaMode":"MASK",
			"doubleSided":true,
			"emissiveFactor":[
				0.05000000074505806,
				0.05000000074505806,
				0.05000000074505806
			],
			"emissiveTexture":{
				"index":2
			},
			"name":"morrigan_atlas_alpha",
			"pbrMetallicRoughness":{
				"baseColorTexture":{
					"index":3
				},
				"metallicFactor":0
			}
		}
	],
	"meshes":[
		{
			"name":"Mesh.068",
			"primitives":[
				{
					"attributes":{
						"POSITION":0,
						"NORMAL":1,
						"TEXCOORD_0":2
					},
					"indices":3,
					"material":0
				}
			]
		},
		{
			"name":"Mesh.078",
			"primitives":[
				{
					"attributes":{
						"POSITION":4,
						"NORMAL":5,
						"TEXCOORD_0":6
					},
					"indices":7,
					"material":0
				}
			]
		},
		{
			"name":"Torus.003",
			"primitives":[
				{
					"attributes":{
						"POSITION":8,
						"NORMAL":9,
						"TEXCOORD_0":10,
						"TEXCOORD_1":11
					},
					"indices":12,
					"material":1
				},
				{
					"attributes":{
						"POSITION":13,
						"NORMAL":14,
						"TEXCOORD_0":15,
						"TEXCOORD_1":16
					},
					"indices":17,
					"material":2
				}
			]
		},
		{
			"name":"Mesh.071",
			"primitives":[
				{
					"attributes":{
						"COLOR_0":18,
						"POSITION":19,
						"NORMAL":20,
						"TEXCOORD_0":21
					},
					"indices":22,
					"material":1
				}
			]
		},
		{
			"name":"Mesh.070",
			"primitives":[
				{
					"attributes":{
						"POSITION":23,
						"NORMAL":24,
						"TEXCOORD_0":25
					},
					"indices":26,
					"material":0
				},
				{
					"attributes":{
						"POSITION":27,
						"NORMAL":28,
						"TEXCOORD_0":29
					},
					"indices":30,
					"material":1
				}
			]
		},
		{
			"name":"Mesh.069",
			"primitives":[
				{
					"attributes":{
						"POSITION":31,
						"NORMAL":32,
						"TEXCOORD_0":33
					},
					"indices":34,
					"material":1
				}
			]
		},
		{
			"name":"Mesh.067",
			"primitives":[
				{
					"attributes":{
						"POSITION":35,
						"NORMAL":36,
						"TEXCOORD_0":37
					},
					"indices":38,
					"material":0
				}
			]
		}
	],
	"textures":[
		{
			"sampler":0,
			"source":0
		},
		{
			"sampler":0,
			"source":0
		},
		{
			"sampler":0,
			"source":1
		},
		{
			"sampler":0,
			"source":0
		}
	],
	"images":[
		{
			"mimeType":"image/png",
			"name":"morrigan_atlas",
			"uri":"textures/morrigan_atlas.png"
		},
		{
			"mimeType":"image/png",
			"name":"cernunnos_atlas",
			"uri":"textures/cernunnos_atlas.png"
		}
	],
	"accessors":[
		{
			"bufferView":0,
			"componentType":5126,
			"count":277,
			"max":[
				0.28674688935279846,
				3.9421157836914062,
				0.41958776116371155
			],
			"min":[
				-0.2862279415130615,
				3.26334285736084,
				-0.23148582875728607
			],
			"type":"VEC3"
		},
		{
			"bufferView":1,
			"componentType":5126,
			"count":277,
			"type":"VEC3"
		},
		{
			"bufferView":2,
			"componentType":5126,
			"count":277,
			"type":"VEC2"
		},
		{
			"bufferView":3,
			"componentType":5123,
			"count":1440,
			"type":"SCALAR"
		},
		{
			"bufferView":4,
			"componentType":5126,
			"count":584,
			"max":[
				0.9754274487495422,
				3.1923956871032715,
				0.5092872381210327
			],
			"min":[
				-0.821504533290863,
				1.9766336679458618,
				-0.6900750398635864
			],
			"type":"VEC3"
		},
		{
			"bufferView":5,
			"componentType":5126,
			"count":584,
			"type":"VEC3"
		},
		{
			"bufferView":6,
			"componentType":5126,
			"count":584,
			"type":"VEC2"
		},
		{
			"bufferView":7,
			"componentType":5123,
			"count":2454,
			"type":"SCALAR"
		},
		{
			"bufferView":8,
			"componentType":5126,
			"count":504,
			"max":[
				0.31090685725212097,
				4.030336380004883,
				0.4708363711833954
			],
			"min":[
				-0.3136860728263855,
				3.170667886734009,
				-0.24440239369869232
			],
			"type":"VEC3"
		},
		{
			"bufferView":9,
			"componentType":5126,
			"count":504,
			"type":"VEC3"
		},
		{
			"bufferView":10,
			"componentType":5126,
			"count":504,
			"type":"VEC2"
		},
		{
			"bufferView":11,
			"componentType":5126,
			"count":504,
			"type":"VEC2"
		},
		{
			"bufferView":12,
			"componentType":5123,
			"count":1974,
			"type":"SCALAR"
		},
		{
			"bufferView":13,
			"componentType":5126,
			"count":85,
			"max":[
				0.20585988461971283,
				3.6246395111083984,
				0.3510840833187103
			],
			"min":[
				-0.228102907538414,
				3.4063832759857178,
				0.1581750065088272
			],
			"type":"VEC3"
		},
		{
			"bufferView":14,
			"componentType":5126,
			"count":85,
			"type":"VEC3"
		},
		{
			"bufferView":15,
			"componentType":5126,
			"count":85,
			"type":"VEC2"
		},
		{
			"bufferView":16,
			"componentType":5126,
			"count":85,
			"type":"VEC2"
		},
		{
			"bufferView":17,
			"componentType":5123,
			"count":366,
			"type":"SCALAR"
		},
		{
			"bufferView":18,
			"componentType":5123,
			"count":468,
			"normalized":true,
			"type":"VEC4"
		},
		{
			"bufferView":19,
			"componentType":5126,
			"count":468,
			"max":[
				0.44929009675979614,
				0.7502481937408447,
				0.44853249192237854
			],
			"min":[
				-0.4958014488220215,
				0.17722241580486298,
				-0.8886919021606445
			],
			"type":"VEC3"
		},
		{
			"bufferView":20,
			"componentType":5126,
			"count":468,
			"type":"VEC3"
		},
		{
			"bufferView":21,
			"componentType":5126,
			"count":468,
			"type":"VEC2"
		},
		{
			"bufferView":22,
			"componentType":5123,
			"count":1356,
			"type":"SCALAR"
		},
		{
			"bufferView":23,
			"componentType":5126,
			"count":154,
			"max":[
				0.32540687918663025,
				1.099780559539795,
				0.48965883255004883
			],
			"min":[
				-0.4189665615558624,
				0.6294600963592529,
				-0.7552679181098938
			],
			"type":"VEC3"
		},
		{
			"bufferView":24,
			"componentType":5126,
			"count":154,
			"type":"VEC3"
		},
		{
			"bufferView":25,
			"componentType":5126,
			"count":154,
			"type":"VEC2"
		},
		{
			"bufferView":26,
			"componentType":5123,
			"count":378,
			"type":"SCALAR"
		},
		{
			"bufferView":27,
			"componentType":5126,
			"count":784,
			"max":[
				0.3570985794067383,
				2.1644392013549805,
				0.6533206105232239
			],
			"min":[
				-0.5428614616394043,
				0.6294600963592529,
				-0.7552679181098938
			],
			"type":"VEC3"
		},
		{
			"bufferView":28,
			"componentType":5126,
			"count":784,
			"type":"VEC3"
		},
		{
			"bufferView":29,
			"componentType":5126,
			"count":784,
			"type":"VEC2"
		},
		{
			"bufferView":30,
			"componentType":5123,
			"count":2532,
			"type":"SCALAR"
		},
		{
			"bufferView":31,
			"componentType":5126,
			"count":642,
			"max":[
				0.9063956141471863,
				3.475574016571045,
				0.4385598301887512
			],
			"min":[
				-0.7479692697525024,
				2.095445394515991,
				-0.7002766728401184
			],
			"type":"VEC3"
		},
		{
			"bufferView":32,
			"componentType":5126,
			"count":642,
			"type":"VEC3"
		},
		{
			"bufferView":33,
			"componentType":5126,
			"count":642,
			"type":"VEC2"
		},
		{
			"bufferView":34,
			"componentType":5123,
			"count":2091,
			"type":"SCALAR"
		},
		{
			"bufferView":35,
			"componentType":5126,
			"count":362,
			"max":[
				0.15260253846645355,
				2.049095392227173,
				0.19715437293052673
			],
			"min":[
				-0.14979012310504913,
				1.6075339317321777,
				-0.10875793546438217
			],
			"type":"VEC3"
		},
		{
			"bufferView":36,
			"componentType":5126,
			"count":362,
			"type":"VEC3"
		},
		{
			"bufferView":37,
			"componentType":5126,
			"count":362,
			"type":"VEC2"
		},
		{
			"bufferView":38,
			"componentType":5123,
			"count":1680,
			"type":"SCALAR"
		}
	],
	"bufferViews":[
		{
			"buffer":0,
			"byteLength":3324,
			"byteOffset":0,
			"target":34962
		},
		{
			"buffer":0,
			"byteLength":3324,
			"byteOffset":3324,
			"target":34962
		},
		{
			"buffer":0,
			"byteLength":2216,
			"byteOffset":6648,
			"target":34962
		},
		{
			"buffer":0,
			"byteLength":2880,
			"byteOffset":8864,
			"target":34963
		},
		{
			"buffer":0,
			"byteLength":7008,
			"byteOffset":11744,
			"target":34962
		},
		{
			"buffer":0,
			"byteLength":7008,
			"byteOffset":18752,
			"target":34962
		},
		{
			"buffer":0,
			"byteLength":4672,
			"byteOffset":25760,
			"target":34962
		},
		{
			"buffer":0,
			"byteLength":4908,
			"byteOffset":30432,
			"target":34963
		},
		{
			"buffer":0,
			"byteLength":6048,
			"byteOffset":35340,
			"target":34962
		},
		{
			"buffer":0,
			"byteLength":6048,
			"byteOffset":41388,
			"target":34962
		},
		{
			"buffer":0,
			"byteLength":4032,
			"byteOffset":47436,
			"target":34962
		},
		{
			"buffer":0,
			"byteLength":4032,
			"byteOffset":51468,
			"target":34962
		},
		{
			"buffer":0,
			"byteLength":3948,
			"byteOffset":55500,
			"target":34963
		},
		{
			"buffer":0,
			"byteLength":1020,
			"byteOffset":59448,
			"target":34962
		},
		{
			"buffer":0,
			"byteLength":1020,
			"byteOffset":60468,
			"target":34962
		},
		{
			"buffer":0,
			"byteLength":680,
			"byteOffset":61488,
			"target":34962
		},
		{
			"buffer":0,
			"byteLength":680,
			"byteOffset":62168,
			"target":34962
		},
		{
			"buffer":0,
			"byteLength":732,
			"byteOffset":62848,
			"target":34963
		},
		{
			"buffer":0,
			"byteLength":3744,
			"byteOffset":63580,
			"target":34962
		},
		{
			"buffer":0,
			"byteLength":5616,
			"byteOffset":67324,
			"target":34962
		},
		{
			"buffer":0,
			"byteLength":5616,
			"byteOffset":72940,
			"target":34962
		},
		{
			"buffer":0,
			"byteLength":3744,
			"byteOffset":78556,
			"target":34962
		},
		{
			"buffer":0,
			"byteLength":2712,
			"byteOffset":82300,
			"target":34963
		},
		{
			"buffer":0,
			"byteLength":1848,
			"byteOffset":85012,
			"target":34962
		},
		{
			"buffer":0,
			"byteLength":1848,
			"byteOffset":86860,
			"target":34962
		},
		{
			"buffer":0,
			"byteLength":1232,
			"byteOffset":88708,
			"target":34962
		},
		{
			"buffer":0,
			"byteLength":756,
			"byteOffset":89940,
			"target":34963
		},
		{
			"buffer":0,
			"byteLength":9408,
			"byteOffset":90696,
			"target":34962
		},
		{
			"buffer":0,
			"byteLength":9408,
			"byteOffset":100104,
			"target":34962
		},
		{
			"buffer":0,
			"byteLength":6272,
			"byteOffset":109512,
			"target":34962
		},
		{
			"buffer":0,
			"byteLength":5064,
			"byteOffset":115784,
			"target":34963
		},
		{
			"buffer":0,
			"byteLength":7704,
			"byteOffset":120848,
			"target":34962
		},
		{
			"buffer":0,
			"byteLength":7704,
			"byteOffset":128552,
			"target":34962
		},
		{
			"buffer":0,
			"byteLength":5136,
			"byteOffset":136256,
			"target":34962
		},
		{
			"buffer":0,
			"byteLength":4182,
			"byteOffset":141392,
			"target":34963
		},
		{
			"buffer":0,
			"byteLength":4344,
			"byteOffset":145576,
			"target":34962
		},
		{
			"buffer":0,
			"byteLength":4344,
			"byteOffset":149920,
			"target":34962
		},
		{
			"buffer":0,
			"byteLength":2896,
			"byteOffset":154264,
			"target":34962
		},
		{
			"buffer":0,
			"byteLength":3360,
			"byteOffset":157160,
			"target":34963
		}
	],
	"samplers":[
		{
			"magFilter":9729,
			"minFilter":9987
		}
	],
	"buffers":[
		{
			"byteLength":160520,
			"uri":"M_morrigan_pose.bin"
		}
	]
}
