{
	"asset":{
		"generator":"Khronos glTF Blender I/O v3.6.27",
		"version":"2.0"
	},
	"scene":0,
	"scenes":[
		{
			"name":"Scene",
			"nodes":[
				0,
				1,
				2,
				3,
				4,
				5,
				6,
				7
			]
		}
	],
	"nodes":[
		{
			"mesh":0,
			"name":"M_tiranis_upper"
		},
		{
			"mesh":1,
			"name":"M_tiranis_tatoo"
		},
		{
			"mesh":2,
			"name":"M_tiranis_lower_skin"
		},
		{
			"mesh":3,
			"name":"M_tiranis_lower"
		},
		{
			"mesh":4,
			"name":"M_tiranis_helmet"
		},
		{
			"mesh":5,
			"name":"M_tiranis_feet"
		},
		{
			"mesh":6,
			"name":"M_Hair_Standard_01.002"
		},
		{
			"mesh":7,
			"name":"ShapeA_Hands_BaseMesh.003",
			"rotation":[
				0.7071068286895752,
				0,
				0,
				0.7071068286895752
			]
		}
	],
	"materials":[
		{
			"emissiveFactor":[
				0.020000000596046452,
				0.022000000208616255,
				0.02500000037252903
			],
			"name":"maniqui",
			"pbrMetallicRoughness":{
				"baseColorFactor":[
					0.4000000059604645,
					0.4399999976158142,
					0.5,
					1
				],
				"metallicFactor":0,
				"roughnessFactor":0.5
			}
		},
		{
			"doubleSided":true,
			"emissiveFactor":[
				0.05000000074505806,
				0.05000000074505806,
				0.05000000074505806
			],
			"emissiveTexture":{
				"index":0
			},
			"name":"tiranis_atlas",
			"pbrMetallicRoughness":{
				"baseColorTexture":{
					"index":1
				},
				"metallicFactor":0
			}
		},
		{
			"alphaCutoff":0.5,
			"alphaMode":"MASK",
			"doubleSided":true,
			"emissiveFactor":[
				0.05000000074505806,
				0.05000000074505806,
				0.05000000074505806
			],
			"emissiveTexture":{
				"index":2
			},
			"name":"tiranis_atlas_alpha",
			"pbrMetallicRoughness":{
				"baseColorTexture":{
					"index":3
				},
				"metallicFactor":0
			}
		}
	],
	"meshes":[
		{
			"name":"Mesh.004",
			"primitives":[
				{
					"attributes":{
						"POSITION":0,
						"NORMAL":1,
						"TEXCOORD_0":2,
						"TEXCOORD_1":3
					},
					"indices":4,
					"material":0
				},
				{
					"attributes":{
						"POSITION":5,
						"NORMAL":6,
						"TEXCOORD_0":7,
						"TEXCOORD_1":8
					},
					"indices":9,
					"material":1
				}
			]
		},
		{
			"name":"Mesh.028",
			"primitives":[
				{
					"attributes":{
						"POSITION":10,
						"NORMAL":11,
						"TEXCOORD_0":12
					},
					"indices":13,
					"material":2
				}
			]
		},
		{
			"name":"Mesh.049",
			"primitives":[
				{
					"attributes":{
						"POSITION":14,
						"NORMAL":15,
						"TEXCOORD_0":16
					},
					"indices":17,
					"material":0
				}
			]
		},
		{
			"name":"Mesh.050",
			"primitives":[
				{
					"attributes":{
						"POSITION":18,
						"NORMAL":19,
						"TEXCOORD_0":20,
						"TEXCOORD_1":21
					},
					"indices":22,
					"material":1
				}
			]
		},
		{
			"name":"Circle.004",
			"primitives":[
				{
					"attributes":{
						"POSITION":23,
						"NORMAL":24,
						"TEXCOORD_0":25
					},
					"indices":26,
					"material":1
				}
			]
		},
		{
			"name":"Mesh.051",
			"primitives":[
				{
					"attributes":{
						"COLOR_0":27,
						"POSITION":28,
						"NORMAL":29,
						"TEXCOORD_0":30
					},
					"indices":31,
					"material":1
				},
				{
					"attributes":{
						"COLOR_0":32,
						"POSITION":33,
						"NORMAL":34,
						"TEXCOORD_0":35
					},
					"indices":36,
					"material":0
				}
			]
		},
		{
			"name":"Mesh.053",
			"primitives":[
				{
					"attributes":{
						"POSITION":37,
						"NORMAL":38,
						"TEXCOORD_0":39,
						"TEXCOORD_1":40
					},
					"indices":41,
					"material":0
				}
			]
		},
		{
			"name":"ShapeA_Hands_BaseMesh.003",
			"primitives":[
				{
					"attributes":{
						"COLOR_0":42,
						"POSITION":43,
						"NORMAL":44,
						"TEXCOORD_0":45
					},
					"indices":46,
					"material":0
				}
			]
		}
	],
	"textures":[
		{
			"sampler":0,
			"source":0
		},
		{
			"sampler":0,
			"source":0
		},
		{
			"sampler":0,
			"source":1
		},
		{
			"sampler":0,
			"source":0
		}
	],
	"images":[
		{
			"mimeType":"image/png",
			"name":"tiranis_atlas",
			"uri":"textures/tiranis_atlas.png"
		},
		{
			"mimeType":"image/png",
			"name":"cernunnos_atlas",
			"uri":"textures/cernunnos_atlas.png"
		}
	],
	"accessors":[
		{
			"bufferView":0,
			"componentType":5126,
			"count":225,
			"max":[
				0.867016613483429,
				3.1927740573883057,
				0.41970598697662354
			],
			"min":[
				-0.7348386645317078,
				2.3243143558502197,
				-0.690075159072876
			],
			"type":"VEC3"
		},
		{
			"bufferView":1,
			"componentType":5126,
			"count":225,
			"type":"VEC3"
		},
		{
			"bufferView":2,
			"componentType":5126,
			"count":225,
			"type":"VEC2"
		},
		{
			"bufferView":3,
			"componentType":5126,
			"count":225,
			"type":"VEC2"
		},
		{
			"bufferView":4,
			"componentType":5123,
			"count":915,
			"type":"SCALAR"
		},
		{
			"bufferView":5,
			"componentType":5126,
			"count":582,
			"max":[
				0.8761234879493713,
				3.1880409717559814,
				0.5356125831604004
			],
			"min":[
				-0.7437338829040527,
				2.1028342247009277,
				-0.6439546346664429
			],
			"type":"VEC3"
		},
		{
			"bufferView":6,
			"componentType":5126,
			"count":582,
			"type":"VEC3"
		},
		{
			"bufferView":7,
			"componentType":5126,
			"count":582,
			"type":"VEC2"
		},
		{
			"bufferView":8,
			"componentType":5126,
			"count":582,
			"type":"VEC2"
		},
		{
			"bufferView":9,
			"componentType":5123,
			"count":2013,
			"type":"SCALAR"
		},
		{
			"bufferView":10,
			"componentType":5126,
			"count":99,
			"max":[
				0.09560896456241608,
				3.1886696815490723,
				0.3126457631587982
			],
			"min":[
				-0.632445752620697,
				2.412940263748169,
				-0.6977587342262268
			],
			"type":"VEC3"
		},
		{
			"bufferView":11,
			"componentType":5126,
			"count":99,
			"type":"VEC3"
		},
		{
			"bufferView":12,
			"componentType":5126,
			"count":99,
			"type":"VEC2"
		},
		{
			"bufferView":13,
			"componentType":5123,
			"count":399,
			"type":"SCALAR"
		},
		{
			"bufferView":14,
			"componentType":5126,
			"count":176,
			"max":[
				0.32093530893325806,
				1.5819871425628662,
				0.6134758591651917
			],
			"min":[
				-0.4873712956905365,
				0.6299810409545898,
				-0.752194344997406
			],
			"type":"VEC3"
		},
		{
			"bufferView":15,
			"componentType":5126,
			"count":176,
			"type":"VEC3"
		},
		{
			"bufferView":16,
			"componentType":5126,
			"count":176,
			"type":"VEC2"
		},
		{
			"bufferView":17,
			"componentType":5123,
			"count":612,
			"type":"SCALAR"
		},
		{
			"bufferView":18,
			"componentType":5126,
			"count":1117,
			"max":[
				0.4507468044757843,
				2.194626808166504,
				0.7004618048667908
			],
			"min":[
				-0.5983387231826782,
				0.9065030217170715,
				-0.6135861873626709
			],
			"type":"VEC3"
		},
		{
			"bufferView":19,
			"componentType":5126,
			"count":1117,
			"type":"VEC3"
		},
		{
			"bufferView":20,
			"componentType":5126,
			"count":1117,
			"type":"VEC2"
		},
		{
			"bufferView":21,
			"componentType":5126,
			"count":1117,
			"type":"VEC2"
		},
		{
			"bufferView":22,
			"componentType":5123,
			"count":3456,
			"type":"SCALAR"
		},
		{
			"bufferView":23,
			"componentType":5126,
			"count":908,
			"max":[
				0.7200337648391724,
				4.41463041305542,
				0.43576493859291077
			],
			"min":[
				-0.7067140340805054,
				3.4289302825927734,
				-0.26115134358406067
			],
			"type":"VEC3"
		},
		{
			"bufferView":24,
			"componentType":5126,
			"count":908,
			"type":"VEC3"
		},
		{
			"bufferView":25,
			"componentType":5126,
			"count":908,
			"type":"VEC2"
		},
		{
			"bufferView":26,
			"componentType":5123,
			"count":1944,
			"type":"SCALAR"
		},
		{
			"bufferView":27,
			"componentType":5123,
			"count":1080,
			"normalized":true,
			"type":"VEC4"
		},
		{
			"bufferView":28,
			"componentType":5126,
			"count":1080,
			"max":[
				0.42912647128105164,
				0.8028681874275208,
				0.3714507222175598
			],
			"min":[
				-0.47821423411369324,
				0.15942786633968353,
				-0.8864824771881104
			],
			"type":"VEC3"
		},
		{
			"bufferView":29,
			"componentType":5126,
			"count":1080,
			"type":"VEC3"
		},
		{
			"bufferView":30,
			"componentType":5126,
			"count":1080,
			"type":"VEC2"
		},
		{
			"bufferView":31,
			"componentType":5123,
			"count":3996,
			"type":"SCALAR"
		},
		{
			"bufferView":32,
			"componentType":5123,
			"count":120,
			"normalized":true,
			"type":"VEC4"
		},
		{
			"bufferView":33,
			"componentType":5126,
			"count":120,
			"max":[
				0.37035003304481506,
				0.7346138954162598,
				0.31096386909484863
			],
			"min":[
				-0.3713838756084442,
				0.3755303621292114,
				-0.853081226348877
			],
			"type":"VEC3"
		},
		{
			"bufferView":34,
			"componentType":5126,
			"count":120,
			"type":"VEC3"
		},
		{
			"bufferView":35,
			"componentType":5126,
			"count":120,
			"type":"VEC2"
		},
		{
			"bufferView":36,
			"componentType":5123,
			"count":372,
			"type":"SCALAR"
		},
		{
			"bufferView":37,
			"componentType":5126,
			"count":626,
			"max":[
				0.28994473814964294,
				3.9421160221099854,
				0.4178895950317383
			],
			"min":[
				-0.28460127115249634,
				3.054314613342285,
				-0.23132692277431488
			],
			"type":"VEC3"
		},
		{
			"bufferView":38,
			"componentType":5126,
			"count":626,
			"type":"VEC3"
		},
		{
			"bufferView":39,
			"componentType":5126,
			"count":626,
			"type":"VEC2"
		},
		{
			"bufferView":40,
			"componentType":5126,
			"count":626,
			"type":"VEC2"
		},
		{
			"bufferView":41,
			"componentType":5123,
			"count":3120,
			"type":"SCALAR"
		},
		{
			"bufferView":42,
			"componentType":5123,
			"count":814,
			"normalized":true,
			"type":"VEC4"
		},
		{
			"bufferView":43,
			"componentType":5126,
			"count":814,
			"max":[
				0.97632896900177,
				0.502573549747467,
				-1.9791136980056763
			],
			"min":[
				-0.8144824504852295,
				-0.6045141816139221,
				-2.5238702297210693
			],
			"type":"VEC3"
		},
		{
			"bufferView":44,
			"componentType":5126,
			"count":814,
			"type":"VEC3"
		},
		{
			"bufferView":45,
			"componentType":5126,
			"count":814,
			"type":"VEC2"
		},
		{
			"bufferView":46,
			"componentType":5123,
			"count":3636,
			"type":"SCALAR"
		}
	],
	"bufferViews":[
		{
			"buffer":0,
			"byteLength":2700,
			"byteOffset":0,
			"target":34962
		},
		{
			"buffer":0,
			"byteLength":2700,
			"byteOffset":2700,
			"target":34962
		},
		{
			"buffer":0,
			"byteLength":1800,
			"byteOffset":5400,
			"target":34962
		},
		{
			"buffer":0,
			"byteLength":1800,
			"byteOffset":7200,
			"target":34962
		},
		{
			"buffer":0,
			"byteLength":1830,
			"byteOffset":9000,
			"target":34963
		},
		{
			"buffer":0,
			"byteLength":6984,
			"byteOffset":10832,
			"target":34962
		},
		{
			"buffer":0,
			"byteLength":6984,
			"byteOffset":17816,
			"target":34962
		},
		{
			"buffer":0,
			"byteLength":4656,
			"byteOffset":24800,
			"target":34962
		},
		{
			"buffer":0,
			"byteLength":4656,
			"byteOffset":29456,
			"target":34962
		},
		{
			"buffer":0,
			"byteLength":4026,
			"byteOffset":34112,
			"target":34963
		},
		{
			"buffer":0,
			"byteLength":1188,
			"byteOffset":38140,
			"target":34962
		},
		{
			"buffer":0,
			"byteLength":1188,
			"byteOffset":39328,
			"target":34962
		},
		{
			"buffer":0,
			"byteLength":792,
			"byteOffset":40516,
			"target":34962
		},
		{
			"buffer":0,
			"byteLength":798,
			"byteOffset":41308,
			"target":34963
		},
		{
			"buffer":0,
			"byteLength":2112,
			"byteOffset":42108,
			"target":34962
		},
		{
			"buffer":0,
			"byteLength":2112,
			"byteOffset":44220,
			"target":34962
		},
		{
			"buffer":0,
			"byteLength":1408,
			"byteOffset":46332,
			"target":34962
		},
		{
			"buffer":0,
			"byteLength":1224,
			"byteOffset":47740,
			"target":34963
		},
		{
			"buffer":0,
			"byteLength":13404,
			"byteOffset":48964,
			"target":34962
		},
		{
			"buffer":0,
			"byteLength":13404,
			"byteOffset":62368,
			"target":34962
		},
		{
			"buffer":0,
			"byteLength":8936,
			"byteOffset":75772,
			"target":34962
		},
		{
			"buffer":0,
			"byteLength":8936,
			"byteOffset":84708,
			"target":34962
		},
		{
			"buffer":0,
			"byteLength":6912,
			"byteOffset":93644,
			"target":34963
		},
		{
			"buffer":0,
			"byteLength":10896,
			"byteOffset":100556,
			"target":34962
		},
		{
			"buffer":0,
			"byteLength":10896,
			"byteOffset":111452,
			"target":34962
		},
		{
			"buffer":0,
			"byteLength":7264,
			"byteOffset":122348,
			"target":34962
		},
		{
			"buffer":0,
			"byteLength":3888,
			"byteOffset":129612,
			"target":34963
		},
		{
			"buffer":0,
			"byteLength":8640,
			"byteOffset":133500,
			"target":34962
		},
		{
			"buffer":0,
			"byteLength":12960,
			"byteOffset":142140,
			"target":34962
		},
		{
			"buffer":0,
			"byteLength":12960,
			"byteOffset":155100,
			"target":34962
		},
		{
			"buffer":0,
			"byteLength":8640,
			"byteOffset":168060,
			"target":34962
		},
		{
			"buffer":0,
			"byteLength":7992,
			"byteOffset":176700,
			"target":34963
		},
		{
			"buffer":0,
			"byteLength":960,
			"byteOffset":184692,
			"target":34962
		},
		{
			"buffer":0,
			"byteLength":1440,
			"byteOffset":185652,
			"target":34962
		},
		{
			"buffer":0,
			"byteLength":1440,
			"byteOffset":187092,
			"target":34962
		},
		{
			"buffer":0,
			"byteLength":960,
			"byteOffset":188532,
			"target":34962
		},
		{
			"buffer":0,
			"byteLength":744,
			"byteOffset":189492,
			"target":34963
		},
		{
			"buffer":0,
			"byteLength":7512,
			"byteOffset":190236,
			"target":34962
		},
		{
			"buffer":0,
			"byteLength":7512,
			"byteOffset":197748,
			"target":34962
		},
		{
			"buffer":0,
			"byteLength":5008,
			"byteOffset":205260,
			"target":34962
		},
		{
			"buffer":0,
			"byteLength":5008,
			"byteOffset":210268,
			"target":34962
		},
		{
			"buffer":0,
			"byteLength":6240,
			"byteOffset":215276,
			"target":34963
		},
		{
			"buffer":0,
			"byteLength":6512,
			"byteOffset":221516,
			"target":34962
		},
		{
			"buffer":0,
			"byteLength":9768,
			"byteOffset":228028,
			"target":34962
		},
		{
			"buffer":0,
			"byteLength":9768,
			"byteOffset":237796,
			"target":34962
		},
		{
			"buffer":0,
			"byteLength":6512,
			"byteOffset":247564,
			"target":34962
		},
		{
			"buffer":0,
			"byteLength":7272,
			"byteOffset":254076,
			"target":34963
		}
	],
	"samplers":[
		{
			"magFilter":9729,
			"minFilter":9987
		}
	],
	"buffers":[
		{
			"byteLength":261348,
			"uri":"M_tiranis_pose.bin"
		}
	]
}
