{
	"asset":{
		"generator":"Khronos glTF Blender I/O v3.6.27",
		"version":"2.0"
	},
	"scene":0,
	"scenes":[
		{
			"name":"Scene",
			"nodes":[
				0,
				1,
				2,
				3,
				4,
				5
			]
		}
	],
	"nodes":[
		{
			"mesh":0,
			"name":"F_Anubis_Feet"
		},
		{
			"mesh":1,
			"name":"F_Anubis_Helmet"
		},
		{
			"mesh":2,
			"name":"F_Anubis_Lowerbody"
		},
		{
			"mesh":3,
			"name":"F_Anubis_Upperbody"
		},
		{
			"mesh":4,
			"name":"M_head.003"
		},
		{
			"mesh":5,
			"name":"M_Hair_Standard_01.001"
		}
	],
	"materials":[
		{
			"doubleSided":true,
			"emissiveFactor":[
				0.05000000074505806,
				0.05000000074505806,
				0.05000000074505806
			],
			"emissiveTexture":{
				"index":0
			},
			"name":"anubis_atlas",
			"pbrMetallicRoughness":{
				"baseColorTexture":{
					"index":1
				},
				"metallicFactor":0
			}
		},
		{
			"emissiveFactor":[
				0.020000000596046452,
				0.022000000208616255,
				0.02500000037252903
			],
			"name":"maniqui",
			"pbrMetallicRoughness":{
				"baseColorFactor":[
					0.4000000059604645,
					0.4399999976158142,
					0.5,
					1
				],
				"metallicFactor":0,
				"roughnessFactor":0.5
			}
		}
	],
	"meshes":[
		{
			"name":"Anobus_Shoes",
			"primitives":[
				{
					"attributes":{
						"POSITION":0,
						"NORMAL":1,
						"TEXCOORD_0":2
					},
					"indices":3,
					"material":0
				}
			]
		},
		{
			"name":"Anubis_Helmet.004",
			"primitives":[
				{
					"attributes":{
						"COLOR_0":4,
						"POSITION":5,
						"NORMAL":6,
						"TEXCOORD_0":7
					},
					"indices":8,
					"material":0
				}
			]
		},
		{
			"name":"Anubis_Lowerbody",
			"primitives":[
				{
					"attributes":{
						"POSITION":9,
						"NORMAL":10,
						"TEXCOORD_0":11
					},
					"indices":12,
					"material":0
				}
			]
		},
		{
			"name":"Anubis_Upperbody",
			"primitives":[
				{
					"attributes":{
						"POSITION":13,
						"NORMAL":14,
						"TEXCOORD_0":15,
						"TEXCOORD_1":16
					},
					"indices":17,
					"material":0
				}
			]
		},
		{
			"name":"Mesh.006",
			"primitives":[
				{
					"attributes":{
						"POSITION":18,
						"NORMAL":19,
						"TEXCOORD_0":20,
						"TEXCOORD_1":21
					},
					"indices":22,
					"material":1
				}
			]
		},
		{
			"name":"Mesh.007",
			"primitives":[
				{
					"attributes":{
						"POSITION":23,
						"NORMAL":24,
						"TEXCOORD_0":25
					},
					"indices":26,
					"material":1
				}
			]
		}
	],
	"textures":[
		{
			"sampler":0,
			"source":0
		},
		{
			"sampler":0,
			"source":0
		}
	],
	"images":[
		{
			"mimeType":"image/png",
			"name":"anubis_atlas",
			"uri":"textures/anubis_atlas.png"
		}
	],
	"accessors":[
		{
			"bufferView":0,
			"componentType":5126,
			"count":610,
			"max":[
				0.6568804979324341,
				0.45301201939582825,
				0.7420094609260559
			],
			"min":[
				-0.6166561841964722,
				0.08089858293533325,
				-0.7192435264587402
			],
			"type":"VEC3"
		},
		{
			"bufferView":1,
			"componentType":5126,
			"count":610,
			"type":"VEC3"
		},
		{
			"bufferView":2,
			"componentType":5126,
			"count":610,
			"type":"VEC2"
		},
		{
			"bufferView":3,
			"componentType":5123,
			"count":2004,
			"type":"SCALAR"
		},
		{
			"bufferView":4,
			"componentType":5123,
			"count":890,
			"normalized":true,
			"type":"VEC4"
		},
		{
			"bufferView":5,
			"componentType":5126,
			"count":890,
			"max":[
				0.3586518168449402,
				4.956942081451416,
				1.0739915370941162
			],
			"min":[
				-0.36608192324638367,
				2.9030046463012695,
				0.06990130245685577
			],
			"type":"VEC3"
		},
		{
			"bufferView":6,
			"componentType":5126,
			"count":890,
			"type":"VEC3"
		},
		{
			"bufferView":7,
			"componentType":5126,
			"count":890,
			"type":"VEC2"
		},
		{
			"bufferView":8,
			"componentType":5123,
			"count":2454,
			"type":"SCALAR"
		},
		{
			"bufferView":9,
			"componentType":5126,
			"count":688,
			"max":[
				0.4726004898548126,
				1.907249093055725,
				0.855054497718811
			],
			"min":[
				-0.4923672378063202,
				0.24608364701271057,
				-0.6192726492881775
			],
			"type":"VEC3"
		},
		{
			"bufferView":10,
			"componentType":5126,
			"count":688,
			"type":"VEC3"
		},
		{
			"bufferView":11,
			"componentType":5126,
			"count":688,
			"type":"VEC2"
		},
		{
			"bufferView":12,
			"componentType":5123,
			"count":2070,
			"type":"SCALAR"
		},
		{
			"bufferView":13,
			"componentType":5126,
			"count":1426,
			"max":[
				1.4281070232391357,
				3.048551321029663,
				0.8404019474983215
			],
			"min":[
				-0.7709342241287231,
				1.6731327772140503,
				-0.3966938853263855
			],
			"type":"VEC3"
		},
		{
			"bufferView":14,
			"componentType":5126,
			"count":1426,
			"type":"VEC3"
		},
		{
			"bufferView":15,
			"componentType":5126,
			"count":1426,
			"type":"VEC2"
		},
		{
			"bufferView":16,
			"componentType":5126,
			"count":1426,
			"type":"VEC2"
		},
		{
			"bufferView":17,
			"componentType":5123,
			"count":4680,
			"type":"SCALAR"
		},
		{
			"bufferView":18,
			"componentType":5126,
			"count":349,
			"max":[
				0.29110243916511536,
				3.5430095195770264,
				0.7217745184898376
			],
			"min":[
				-0.2848964035511017,
				2.703587770462036,
				0.1510780304670334
			],
			"type":"VEC3"
		},
		{
			"bufferView":19,
			"componentType":5126,
			"count":349,
			"type":"VEC3"
		},
		{
			"bufferView":20,
			"componentType":5126,
			"count":349,
			"type":"VEC2"
		},
		{
			"bufferView":21,
			"componentType":5126,
			"count":349,
			"type":"VEC2"
		},
		{
			"bufferView":22,
			"componentType":5123,
			"count":1680,
			"type":"SCALAR"
		},
		{
			"bufferView":23,
			"componentType":5126,
			"count":277,
			"max":[
				0.29222822189331055,
				3.5981578826904297,
				0.7892552614212036
			],
			"min":[
				-0.28046977519989014,
				2.943507194519043,
				0.1307387799024582
			],
			"type":"VEC3"
		},
		{
			"bufferView":24,
			"componentType":5126,
			"count":277,
			"type":"VEC3"
		},
		{
			"bufferView":25,
			"componentType":5126,
			"count":277,
			"type":"VEC2"
		},
		{
			"bufferView":26,
			"componentType":5123,
			"count":1440,
			"type":"SCALAR"
		}
	],
	"bufferViews":[
		{
			"buffer":0,
			"byteLength":7320,
			"byteOffset":0,
			"target":34962
		},
		{
			"buffer":0,
			"byteLength":7320,
			"byteOffset":7320,
			"target":34962
		},
		{
			"buffer":0,
			"byteLength":4880,
			"byteOffset":14640,
			"target":34962
		},
		{
			"buffer":0,
			"byteLength":4008,
			"byteOffset":19520,
			"target":34963
		},
		{
			"buffer":0,
			"byteLength":7120,
			"byteOffset":23528,
			"target":34962
		},
		{
			"buffer":0,
			"byteLength":10680,
			"byteOffset":30648,
			"target":34962
		},
		{
			"buffer":0,
			"byteLength":10680,
			"byteOffset":41328,
			"target":34962
		},
		{
			"buffer":0,
			"byteLength":7120,
			"byteOffset":52008,
			"target":34962
		},
		{
			"buffer":0,
			"byteLength":4908,
			"byteOffset":59128,
			"target":34963
		},
		{
			"buffer":0,
			"byteLength":8256,
			"byteOffset":64036,
			"target":34962
		},
		{
			"buffer":0,
			"byteLength":8256,
			"byteOffset":72292,
			"target":34962
		},
		{
			"buffer":0,
			"byteLength":5504,
			"byteOffset":80548,
			"target":34962
		},
		{
			"buffer":0,
			"byteLength":4140,
			"byteOffset":86052,
			"target":34963
		},
		{
			"buffer":0,
			"byteLength":17112,
			"byteOffset":90192,
			"target":34962
		},
		{
			"buffer":0,
			"byteLength":17112,
			"byteOffset":107304,
			"target":34962
		},
		{
			"buffer":0,
			"byteLength":11408,
			"byteOffset":124416,
			"target":34962
		},
		{
			"buffer":0,
			"byteLength":11408,
			"byteOffset":135824,
			"target":34962
		},
		{
			"buffer":0,
			"byteLength":9360,
			"byteOffset":147232,
			"target":34963
		},
		{
			"buffer":0,
			"byteLength":4188,
			"byteOffset":156592,
			"target":34962
		},
		{
			"buffer":0,
			"byteLength":4188,
			"byteOffset":160780,
			"target":34962
		},
		{
			"buffer":0,
			"byteLength":2792,
			"byteOffset":164968,
			"target":34962
		},
		{
			"buffer":0,
			"byteLength":2792,
			"byteOffset":167760,
			"target":34962
		},
		{
			"buffer":0,
			"byteLength":3360,
			"byteOffset":170552,
			"target":34963
		},
		{
			"buffer":0,
			"byteLength":3324,
			"byteOffset":173912,
			"target":34962
		},
		{
			"buffer":0,
			"byteLength":3324,
			"byteOffset":177236,
			"target":34962
		},
		{
			"buffer":0,
			"byteLength":2216,
			"byteOffset":180560,
			"target":34962
		},
		{
			"buffer":0,
			"byteLength":2880,
			"byteOffset":182776,
			"target":34963
		}
	],
	"samplers":[
		{
			"magFilter":9729,
			"minFilter":9987
		}
	],
	"buffers":[
		{
			"byteLength":185656,
			"uri":"F_anubis_pose.bin"
		}
	]
}
