{
	"asset":{
		"generator":"Khronos glTF Blender I/O v3.6.27",
		"version":"2.0"
	},
	"scene":0,
	"scenes":[
		{
			"name":"Scene",
			"nodes":[
				0,
				1,
				2,
				3
			]
		}
	],
	"nodes":[
		{
			"mesh":0,
			"name":"F_Bastet_Feet"
		},
		{
			"mesh":1,
			"name":"F_Bastet_Helmet"
		},
		{
			"mesh":2,
			"name":"F_Bastet_Upperbody"
		},
		{
			"mesh":3,
			"name":"F_Bastet_Lowerbody.001"
		}
	],
	"materials":[
		{
			"emissiveFactor":[
				0.020000000596046452,
				0.022000000208616255,
				0.02500000037252903
			],
			"name":"maniqui",
			"pbrMetallicRoughness":{
				"baseColorFactor":[
					0.4000000059604645,
					0.4399999976158142,
					0.5,
					1
				],
				"metallicFactor":0,
				"roughnessFactor":0.5
			}
		},
		{
			"doubleSided":true,
			"emissiveFactor":[
				0.05000000074505806,
				0.05000000074505806,
				0.05000000074505806
			],
			"emissiveTexture":{
				"index":0
			},
			"name":"bastet_atlas",
			"pbrMetallicRoughness":{
				"baseColorTexture":{
					"index":1
				},
				"metallicFactor":0
			}
		}
	],
	"meshes":[
		{
			"name":"Mesh.086",
			"primitives":[
				{
					"attributes":{
						"COLOR_0":0,
						"POSITION":1,
						"NORMAL":2,
						"TEXCOORD_0":3
					},
					"indices":4,
					"material":0
				},
				{
					"attributes":{
						"COLOR_0":5,
						"POSITION":6,
						"NORMAL":7,
						"TEXCOORD_0":8
					},
					"indices":9,
					"material":1
				}
			]
		},
		{
			"name":"M_Bastet_Helmet.001",
			"primitives":[
				{
					"attributes":{
						"POSITION":10,
						"NORMAL":11,
						"TEXCOORD_0":12,
						"TEXCOORD_1":13
					},
					"indices":14,
					"material":1
				},
				{
					"attributes":{
						"POSITION":15,
						"NORMAL":16,
						"TEXCOORD_0":17,
						"TEXCOORD_1":18
					},
					"indices":19,
					"material":0
				}
			]
		},
		{
			"name":"Mesh.001",
			"primitives":[
				{
					"attributes":{
						"POSITION":20,
						"NORMAL":21,
						"TEXCOORD_0":22
					},
					"indices":23,
					"material":1
				},
				{
					"attributes":{
						"POSITION":24,
						"NORMAL":25,
						"TEXCOORD_0":26
					},
					"indices":27,
					"material":0
				}
			]
		},
		{
			"name":"F_Bastet_Lowerbody.001",
			"primitives":[
				{
					"attributes":{
						"COLOR_0":28,
						"POSITION":29,
						"NORMAL":30,
						"TEXCOORD_0":31,
						"TEXCOORD_1":32
					},
					"indices":33,
					"material":1
				},
				{
					"attributes":{
						"COLOR_0":34,
						"POSITION":35,
						"NORMAL":36,
						"TEXCOORD_0":37,
						"TEXCOORD_1":38
					},
					"indices":39,
					"material":0
				}
			]
		}
	],
	"textures":[
		{
			"sampler":0,
			"source":0
		},
		{
			"sampler":0,
			"source":0
		}
	],
	"images":[
		{
			"mimeType":"image/png",
			"name":"bastet_atlas",
			"uri":"textures/bastet_atlas.png"
		}
	],
	"accessors":[
		{
			"bufferView":0,
			"componentType":5123,
			"count":194,
			"normalized":true,
			"type":"VEC4"
		},
		{
			"bufferView":1,
			"componentType":5126,
			"count":194,
			"max":[
				0.6186382174491882,
				0.37627866864204407,
				0.7031939625740051
			],
			"min":[
				-0.5680915713310242,
				0.09760088473558426,
				-0.7102711796760559
			],
			"type":"VEC3"
		},
		{
			"bufferView":2,
			"componentType":5126,
			"count":194,
			"type":"VEC3"
		},
		{
			"bufferView":3,
			"componentType":5126,
			"count":194,
			"type":"VEC2"
		},
		{
			"bufferView":4,
			"componentType":5123,
			"count":726,
			"type":"SCALAR"
		},
		{
			"bufferView":5,
			"componentType":5123,
			"count":1040,
			"normalized":true,
			"type":"VEC4"
		},
		{
			"bufferView":6,
			"componentType":5126,
			"count":1040,
			"max":[
				0.6215760111808777,
				0.4112268090248108,
				0.707246720790863
			],
			"min":[
				-0.5764241814613342,
				0.08397123217582703,
				-0.7203855514526367
			],
			"type":"VEC3"
		},
		{
			"bufferView":7,
			"componentType":5126,
			"count":1040,
			"type":"VEC3"
		},
		{
			"bufferView":8,
			"componentType":5126,
			"count":1040,
			"type":"VEC2"
		},
		{
			"bufferView":9,
			"componentType":5123,
			"count":2586,
			"type":"SCALAR"
		},
		{
			"bufferView":10,
			"componentType":5126,
			"count":1004,
			"max":[
				0.3744889795780182,
				3.7053558826446533,
				0.7747077345848083
			],
			"min":[
				-0.37448903918266296,
				2.9224443435668945,
				0.027365051209926605
			],
			"type":"VEC3"
		},
		{
			"bufferView":11,
			"componentType":5126,
			"count":1004,
			"type":"VEC3"
		},
		{
			"bufferView":12,
			"componentType":5126,
			"count":1004,
			"type":"VEC2"
		},
		{
			"bufferView":13,
			"componentType":5126,
			"count":1004,
			"type":"VEC2"
		},
		{
			"bufferView":14,
			"componentType":5123,
			"count":3594,
			"type":"SCALAR"
		},
		{
			"bufferView":15,
			"componentType":5126,
			"count":189,
			"max":[
				0.30642393231391907,
				3.31701397895813,
				0.6414865255355835
			],
			"min":[
				-0.30642399191856384,
				2.7145655155181885,
				0.19269850850105286
			],
			"type":"VEC3"
		},
		{
			"bufferView":16,
			"componentType":5126,
			"count":189,
			"type":"VEC3"
		},
		{
			"bufferView":17,
			"componentType":5126,
			"count":189,
			"type":"VEC2"
		},
		{
			"bufferView":18,
			"componentType":5126,
			"count":189,
			"type":"VEC2"
		},
		{
			"bufferView":19,
			"componentType":5123,
			"count":798,
			"type":"SCALAR"
		},
		{
			"bufferView":20,
			"componentType":5126,
			"count":518,
			"max":[
				0.6694704294204712,
				2.9150729179382324,
				0.5887149572372437
			],
			"min":[
				-0.5343641042709351,
				1.893629789352417,
				-0.09176284074783325
			],
			"type":"VEC3"
		},
		{
			"bufferView":21,
			"componentType":5126,
			"count":518,
			"type":"VEC3"
		},
		{
			"bufferView":22,
			"componentType":5126,
			"count":518,
			"type":"VEC2"
		},
		{
			"bufferView":23,
			"componentType":5123,
			"count":2094,
			"type":"SCALAR"
		},
		{
			"bufferView":24,
			"componentType":5126,
			"count":569,
			"max":[
				1.4129676818847656,
				3.0169155597686768,
				0.8244799971580505
			],
			"min":[
				-0.7223258018493652,
				1.6577661037445068,
				-0.19088508188724518
			],
			"type":"VEC3"
		},
		{
			"bufferView":25,
			"componentType":5126,
			"count":569,
			"type":"VEC3"
		},
		{
			"bufferView":26,
			"componentType":5126,
			"count":569,
			"type":"VEC2"
		},
		{
			"bufferView":27,
			"componentType":5123,
			"count":2244,
			"type":"SCALAR"
		},
		{
			"bufferView":28,
			"componentType":5123,
			"count":445,
			"normalized":true,
			"type":"VEC4"
		},
		{
			"bufferView":29,
			"componentType":5126,
			"count":445,
			"max":[
				0.5492534041404724,
				1.9608482122421265,
				0.6738430261611938
			],
			"min":[
				-0.5821868181228638,
				0.9640759229660034,
				-0.15766432881355286
			],
			"type":"VEC3"
		},
		{
			"bufferView":30,
			"componentType":5126,
			"count":445,
			"type":"VEC3"
		},
		{
			"bufferView":31,
			"componentType":5126,
			"count":445,
			"type":"VEC2"
		},
		{
			"bufferView":32,
			"componentType":5126,
			"count":445,
			"type":"VEC2"
		},
		{
			"bufferView":33,
			"componentType":5123,
			"count":1656,
			"type":"SCALAR"
		},
		{
			"bufferView":34,
			"componentType":5123,
			"count":177,
			"normalized":true,
			"type":"VEC4"
		},
		{
			"bufferView":35,
			"componentType":5126,
			"count":177,
			"max":[
				0.4620181918144226,
				1.9156907796859741,
				0.8139956593513489
			],
			"min":[
				-0.461189866065979,
				0.2712882161140442,
				-0.6050624847412109
			],
			"type":"VEC3"
		},
		{
			"bufferView":36,
			"componentType":5126,
			"count":177,
			"type":"VEC3"
		},
		{
			"bufferView":37,
			"componentType":5126,
			"count":177,
			"type":"VEC2"
		},
		{
			"bufferView":38,
			"componentType":5126,
			"count":177,
			"type":"VEC2"
		},
		{
			"bufferView":39,
			"componentType":5123,
			"count":858,
			"type":"SCALAR"
		}
	],
	"bufferViews":[
		{
			"buffer":0,
			"byteLength":1552,
			"byteOffset":0,
			"target":34962
		},
		{
			"buffer":0,
			"byteLength":2328,
			"byteOffset":1552,
			"target":34962
		},
		{
			"buffer":0,
			"byteLength":2328,
			"byteOffset":3880,
			"target":34962
		},
		{
			"buffer":0,
			"byteLength":1552,
			"byteOffset":6208,
			"target":34962
		},
		{
			"buffer":0,
			"byteLength":1452,
			"byteOffset":7760,
			"target":34963
		},
		{
			"buffer":0,
			"byteLength":8320,
			"byteOffset":9212,
			"target":34962
		},
		{
			"buffer":0,
			"byteLength":12480,
			"byteOffset":17532,
			"target":34962
		},
		{
			"buffer":0,
			"byteLength":12480,
			"byteOffset":30012,
			"target":34962
		},
		{
			"buffer":0,
			"byteLength":8320,
			"byteOffset":42492,
			"target":34962
		},
		{
			"buffer":0,
			"byteLength":5172,
			"byteOffset":50812,
			"target":34963
		},
		{
			"buffer":0,
			"byteLength":12048,
			"byteOffset":55984,
			"target":34962
		},
		{
			"buffer":0,
			"byteLength":12048,
			"byteOffset":68032,
			"target":34962
		},
		{
			"buffer":0,
			"byteLength":8032,
			"byteOffset":80080,
			"target":34962
		},
		{
			"buffer":0,
			"byteLength":8032,
			"byteOffset":88112,
			"target":34962
		},
		{
			"buffer":0,
			"byteLength":7188,
			"byteOffset":96144,
			"target":34963
		},
		{
			"buffer":0,
			"byteLength":2268,
			"byteOffset":103332,
			"target":34962
		},
		{
			"buffer":0,
			"byteLength":2268,
			"byteOffset":105600,
			"target":34962
		},
		{
			"buffer":0,
			"byteLength":1512,
			"byteOffset":107868,
			"target":34962
		},
		{
			"buffer":0,
			"byteLength":1512,
			"byteOffset":109380,
			"target":34962
		},
		{
			"buffer":0,
			"byteLength":1596,
			"byteOffset":110892,
			"target":34963
		},
		{
			"buffer":0,
			"byteLength":6216,
			"byteOffset":112488,
			"target":34962
		},
		{
			"buffer":0,
			"byteLength":6216,
			"byteOffset":118704,
			"target":34962
		},
		{
			"buffer":0,
			"byteLength":4144,
			"byteOffset":124920,
			"target":34962
		},
		{
			"buffer":0,
			"byteLength":4188,
			"byteOffset":129064,
			"target":34963
		},
		{
			"buffer":0,
			"byteLength":6828,
			"byteOffset":133252,
			"target":34962
		},
		{
			"buffer":0,
			"byteLength":6828,
			"byteOffset":140080,
			"target":34962
		},
		{
			"buffer":0,
			"byteLength":4552,
			"byteOffset":146908,
			"target":34962
		},
		{
			"buffer":0,
			"byteLength":4488,
			"byteOffset":151460,
			"target":34963
		},
		{
			"buffer":0,
			"byteLength":3560,
			"byteOffset":155948,
			"target":34962
		},
		{
			"buffer":0,
			"byteLength":5340,
			"byteOffset":159508,
			"target":34962
		},
		{
			"buffer":0,
			"byteLength":5340,
			"byteOffset":164848,
			"target":34962
		},
		{
			"buffer":0,
			"byteLength":3560,
			"byteOffset":170188,
			"target":34962
		},
		{
			"buffer":0,
			"byteLength":3560,
			"byteOffset":173748,
			"target":34962
		},
		{
			"buffer":0,
			"byteLength":3312,
			"byteOffset":177308,
			"target":34963
		},
		{
			"buffer":0,
			"byteLength":1416,
			"byteOffset":180620,
			"target":34962
		},
		{
			"buffer":0,
			"byteLength":2124,
			"byteOffset":182036,
			"target":34962
		},
		{
			"buffer":0,
			"byteLength":2124,
			"byteOffset":184160,
			"target":34962
		},
		{
			"buffer":0,
			"byteLength":1416,
			"byteOffset":186284,
			"target":34962
		},
		{
			"buffer":0,
			"byteLength":1416,
			"byteOffset":187700,
			"target":34962
		},
		{
			"buffer":0,
			"byteLength":1716,
			"byteOffset":189116,
			"target":34963
		}
	],
	"samplers":[
		{
			"magFilter":9729,
			"minFilter":9987
		}
	],
	"buffers":[
		{
			"byteLength":190832,
			"uri":"F_bastet_pose.bin"
		}
	]
}
