{
	"asset":{
		"generator":"Khronos glTF Blender I/O v3.6.27",
		"version":"2.0"
	},
	"scene":0,
	"scenes":[
		{
			"name":"Scene",
			"nodes":[
				0,
				1,
				2,
				3,
				4
			]
		}
	],
	"nodes":[
		{
			"mesh":0,
			"name":"F_Horus_Feet"
		},
		{
			"mesh":1,
			"name":"F_Horus_Lowerbody"
		},
		{
			"mesh":2,
			"name":"F_Horus_Mask"
		},
		{
			"mesh":3,
			"name":"F_Horus_Upperbody"
		},
		{
			"mesh":4,
			"name":"M_head.001"
		}
	],
	"materials":[
		{
			"doubleSided":true,
			"emissiveFactor":[
				0.05000000074505806,
				0.05000000074505806,
				0.05000000074505806
			],
			"emissiveTexture":{
				"index":0
			},
			"name":"horus_atlas",
			"pbrMetallicRoughness":{
				"baseColorTexture":{
					"index":1
				},
				"metallicFactor":0
			}
		},
		{
			"emissiveFactor":[
				0.020000000596046452,
				0.022000000208616255,
				0.02500000037252903
			],
			"name":"maniqui",
			"pbrMetallicRoughness":{
				"baseColorFactor":[
					0.4000000059604645,
					0.4399999976158142,
					0.5,
					1
				],
				"metallicFactor":0,
				"roughnessFactor":0.5
			}
		},
		{
			"emissiveFactor":[
				0.020000000596046452,
				0.022000000208616255,
				0.02500000037252903
			],
			"name":"maniqui",
			"pbrMetallicRoughness":{
				"baseColorFactor":[
					0.4000000059604645,
					0.4399999976158142,
					0.5,
					1
				],
				"metallicFactor":0,
				"roughnessFactor":0.5
			}
		}
	],
	"meshes":[
		{
			"name":"F_Horus_Feet",
			"primitives":[
				{
					"attributes":{
						"POSITION":0,
						"NORMAL":1,
						"TEXCOORD_0":2
					},
					"indices":3,
					"material":0
				}
			]
		},
		{
			"name":"M_Horus_Lowerbody.003",
			"primitives":[
				{
					"attributes":{
						"POSITION":4,
						"NORMAL":5,
						"TEXCOORD_0":6
					},
					"indices":7,
					"material":0
				}
			]
		},
		{
			"name":"M_Horus_Mask.001",
			"primitives":[
				{
					"attributes":{
						"POSITION":8,
						"NORMAL":9,
						"TEXCOORD_0":10
					},
					"indices":11,
					"material":0
				}
			]
		},
		{
			"name":"F_Horus_Upperbody",
			"primitives":[
				{
					"attributes":{
						"POSITION":12,
						"NORMAL":13,
						"TEXCOORD_0":14,
						"TEXCOORD_1":15
					},
					"indices":16,
					"material":0
				},
				{
					"attributes":{
						"POSITION":17,
						"NORMAL":18,
						"TEXCOORD_0":19,
						"TEXCOORD_1":20
					},
					"indices":21,
					"material":1
				}
			]
		},
		{
			"name":"Mesh.005",
			"primitives":[
				{
					"attributes":{
						"POSITION":22,
						"NORMAL":23,
						"TEXCOORD_0":24,
						"TEXCOORD_1":25
					},
					"indices":26,
					"material":2
				}
			]
		}
	],
	"textures":[
		{
			"sampler":0,
			"source":0
		},
		{
			"sampler":0,
			"source":0
		}
	],
	"images":[
		{
			"mimeType":"image/png",
			"name":"horus_atlas",
			"uri":"textures/horus_atlas.png"
		}
	],
	"accessors":[
		{
			"bufferView":0,
			"componentType":5126,
			"count":283,
			"max":[
				0.6270102262496948,
				0.37776607275009155,
				0.7087593674659729
			],
			"min":[
				-0.5923582911491394,
				0.0831579864025116,
				-0.7931417226791382
			],
			"type":"VEC3"
		},
		{
			"bufferView":1,
			"componentType":5126,
			"count":283,
			"type":"VEC3"
		},
		{
			"bufferView":2,
			"componentType":5126,
			"count":283,
			"type":"VEC2"
		},
		{
			"bufferView":3,
			"componentType":5123,
			"count":987,
			"type":"SCALAR"
		},
		{
			"bufferView":4,
			"componentType":5126,
			"count":963,
			"max":[
				0.5794984102249146,
				1.9604580402374268,
				0.8625543117523193
			],
			"min":[
				-0.5937651991844177,
				0.2474125325679779,
				-0.6202629804611206
			],
			"type":"VEC3"
		},
		{
			"bufferView":5,
			"componentType":5126,
			"count":963,
			"type":"VEC3"
		},
		{
			"bufferView":6,
			"componentType":5126,
			"count":963,
			"type":"VEC2"
		},
		{
			"bufferView":7,
			"componentType":5123,
			"count":3534,
			"type":"SCALAR"
		},
		{
			"bufferView":8,
			"componentType":5126,
			"count":351,
			"max":[
				0.28583595156669617,
				3.9901773929595947,
				0.8081428408622742
			],
			"min":[
				-0.28583598136901855,
				2.9479331970214844,
				0.09762600064277649
			],
			"type":"VEC3"
		},
		{
			"bufferView":9,
			"componentType":5126,
			"count":351,
			"type":"VEC3"
		},
		{
			"bufferView":10,
			"componentType":5126,
			"count":351,
			"type":"VEC2"
		},
		{
			"bufferView":11,
			"componentType":5123,
			"count":1494,
			"type":"SCALAR"
		},
		{
			"bufferView":12,
			"componentType":5126,
			"count":1227,
			"max":[
				1.2997941970825195,
				3.0351784229278564,
				0.737581729888916
			],
			"min":[
				-0.7892396450042725,
				1.729203701019287,
				-0.2057211846113205
			],
			"type":"VEC3"
		},
		{
			"bufferView":13,
			"componentType":5126,
			"count":1227,
			"type":"VEC3"
		},
		{
			"bufferView":14,
			"componentType":5126,
			"count":1227,
			"type":"VEC2"
		},
		{
			"bufferView":15,
			"componentType":5126,
			"count":1227,
			"type":"VEC2"
		},
		{
			"bufferView":16,
			"componentType":5123,
			"count":2904,
			"type":"SCALAR"
		},
		{
			"bufferView":17,
			"componentType":5126,
			"count":520,
			"max":[
				1.4182662963867188,
				3.0225565433502197,
				0.8308064937591553
			],
			"min":[
				-0.7325523495674133,
				1.6831884384155273,
				-0.19626758992671967
			],
			"type":"VEC3"
		},
		{
			"bufferView":18,
			"componentType":5126,
			"count":520,
			"type":"VEC3"
		},
		{
			"bufferView":19,
			"componentType":5126,
			"count":520,
			"type":"VEC2"
		},
		{
			"bufferView":20,
			"componentType":5126,
			"count":520,
			"type":"VEC2"
		},
		{
			"bufferView":21,
			"componentType":5123,
			"count":2202,
			"type":"SCALAR"
		},
		{
			"bufferView":22,
			"componentType":5126,
			"count":349,
			"max":[
				0.29110243916511536,
				3.5430095195770264,
				0.7217745184898376
			],
			"min":[
				-0.2848964035511017,
				2.703587770462036,
				0.1510780304670334
			],
			"type":"VEC3"
		},
		{
			"bufferView":23,
			"componentType":5126,
			"count":349,
			"type":"VEC3"
		},
		{
			"bufferView":24,
			"componentType":5126,
			"count":349,
			"type":"VEC2"
		},
		{
			"bufferView":25,
			"componentType":5126,
			"count":349,
			"type":"VEC2"
		},
		{
			"bufferView":26,
			"componentType":5123,
			"count":1680,
			"type":"SCALAR"
		}
	],
	"bufferViews":[
		{
			"buffer":0,
			"byteLength":3396,
			"byteOffset":0,
			"target":34962
		},
		{
			"buffer":0,
			"byteLength":3396,
			"byteOffset":3396,
			"target":34962
		},
		{
			"buffer":0,
			"byteLength":2264,
			"byteOffset":6792,
			"target":34962
		},
		{
			"buffer":0,
			"byteLength":1974,
			"byteOffset":9056,
			"target":34963
		},
		{
			"buffer":0,
			"byteLength":11556,
			"byteOffset":11032,
			"target":34962
		},
		{
			"buffer":0,
			"byteLength":11556,
			"byteOffset":22588,
			"target":34962
		},
		{
			"buffer":0,
			"byteLength":7704,
			"byteOffset":34144,
			"target":34962
		},
		{
			"buffer":0,
			"byteLength":7068,
			"byteOffset":41848,
			"target":34963
		},
		{
			"buffer":0,
			"byteLength":4212,
			"byteOffset":48916,
			"target":34962
		},
		{
			"buffer":0,
			"byteLength":4212,
			"byteOffset":53128,
			"target":34962
		},
		{
			"buffer":0,
			"byteLength":2808,
			"byteOffset":57340,
			"target":34962
		},
		{
			"buffer":0,
			"byteLength":2988,
			"byteOffset":60148,
			"target":34963
		},
		{
			"buffer":0,
			"byteLength":14724,
			"byteOffset":63136,
			"target":34962
		},
		{
			"buffer":0,
			"byteLength":14724,
			"byteOffset":77860,
			"target":34962
		},
		{
			"buffer":0,
			"byteLength":9816,
			"byteOffset":92584,
			"target":34962
		},
		{
			"buffer":0,
			"byteLength":9816,
			"byteOffset":102400,
			"target":34962
		},
		{
			"buffer":0,
			"byteLength":5808,
			"byteOffset":112216,
			"target":34963
		},
		{
			"buffer":0,
			"byteLength":6240,
			"byteOffset":118024,
			"target":34962
		},
		{
			"buffer":0,
			"byteLength":6240,
			"byteOffset":124264,
			"target":34962
		},
		{
			"buffer":0,
			"byteLength":4160,
			"byteOffset":130504,
			"target":34962
		},
		{
			"buffer":0,
			"byteLength":4160,
			"byteOffset":134664,
			"target":34962
		},
		{
			"buffer":0,
			"byteLength":4404,
			"byteOffset":138824,
			"target":34963
		},
		{
			"buffer":0,
			"byteLength":4188,
			"byteOffset":143228,
			"target":34962
		},
		{
			"buffer":0,
			"byteLength":4188,
			"byteOffset":147416,
			"target":34962
		},
		{
			"buffer":0,
			"byteLength":2792,
			"byteOffset":151604,
			"target":34962
		},
		{
			"buffer":0,
			"byteLength":2792,
			"byteOffset":154396,
			"target":34962
		},
		{
			"buffer":0,
			"byteLength":3360,
			"byteOffset":157188,
			"target":34963
		}
	],
	"samplers":[
		{
			"magFilter":9729,
			"minFilter":9987
		}
	],
	"buffers":[
		{
			"byteLength":160548,
			"uri":"F_horus_pose.bin"
		}
	]
}
