{
	"asset":{
		"generator":"Khronos glTF Blender I/O v3.6.27",
		"version":"2.0"
	},
	"scene":0,
	"scenes":[
		{
			"name":"Scene",
			"nodes":[
				0,
				1,
				2,
				3,
				4,
				5
			]
		}
	],
	"nodes":[
		{
			"mesh":0,
			"name":"F_Osiris_Feet"
		},
		{
			"mesh":1,
			"name":"F_Osiris_Lowerbody"
		},
		{
			"mesh":2,
			"name":"F_Osiris_Mask"
		},
		{
			"mesh":3,
			"name":"F_Osiris_Upperbody"
		},
		{
			"mesh":4,
			"name":"M_head.002"
		},
		{
			"mesh":5,
			"name":"M_Hair_Standard_01.005",
			"rotation":[
				0.70710688829422,
				0,
				0,
				0.7071066498756409
			],
			"scale":[
				0.01899999938905239,
				0.018999995663762093,
				0.018999995663762093
			]
		}
	],
	"materials":[
		{
			"doubleSided":true,
			"emissiveFactor":[
				0.05000000074505806,
				0.05000000074505806,
				0.05000000074505806
			],
			"emissiveTexture":{
				"index":0
			},
			"name":"osiris_atlas",
			"pbrMetallicRoughness":{
				"baseColorTexture":{
					"index":1
				},
				"metallicFactor":0
			}
		},
		{
			"emissiveFactor":[
				0.020000000596046452,
				0.022000000208616255,
				0.02500000037252903
			],
			"name":"maniqui",
			"pbrMetallicRoughness":{
				"baseColorFactor":[
					0.4000000059604645,
					0.4399999976158142,
					0.5,
					1
				],
				"metallicFactor":0,
				"roughnessFactor":0.5
			}
		},
		{
			"emissiveFactor":[
				0.020000000596046452,
				0.022000000208616255,
				0.02500000037252903
			],
			"name":"maniqui",
			"pbrMetallicRoughness":{
				"baseColorFactor":[
					0.4000000059604645,
					0.4399999976158142,
					0.5,
					1
				],
				"metallicFactor":0,
				"roughnessFactor":0.5
			}
		}
	],
	"meshes":[
		{
			"name":"Mesh.021",
			"primitives":[
				{
					"attributes":{
						"COLOR_0":0,
						"POSITION":1,
						"NORMAL":2,
						"TEXCOORD_0":3
					},
					"indices":4,
					"material":0
				}
			]
		},
		{
			"name":"Mesh.022",
			"primitives":[
				{
					"attributes":{
						"COLOR_0":5,
						"POSITION":6,
						"NORMAL":7,
						"TEXCOORD_0":8
					},
					"indices":9,
					"material":0
				}
			]
		},
		{
			"name":"Plane.001",
			"primitives":[
				{
					"attributes":{
						"POSITION":10,
						"NORMAL":11,
						"TEXCOORD_0":12
					},
					"indices":13,
					"material":0
				}
			]
		},
		{
			"name":"Mesh.023",
			"primitives":[
				{
					"attributes":{
						"COLOR_0":14,
						"POSITION":15,
						"NORMAL":16,
						"TEXCOORD_0":17
					},
					"indices":18,
					"material":0
				},
				{
					"attributes":{
						"COLOR_0":19,
						"POSITION":20,
						"NORMAL":21,
						"TEXCOORD_0":22
					},
					"indices":23,
					"material":1
				}
			]
		},
		{
			"name":"Mesh.003",
			"primitives":[
				{
					"attributes":{
						"POSITION":24,
						"NORMAL":25,
						"TEXCOORD_0":26,
						"TEXCOORD_1":27
					},
					"indices":28,
					"material":2
				}
			]
		},
		{
			"name":"Mesh.065",
			"primitives":[
				{
					"attributes":{
						"POSITION":29,
						"NORMAL":30,
						"TEXCOORD_0":31
					},
					"indices":32,
					"material":2
				}
			]
		}
	],
	"textures":[
		{
			"sampler":0,
			"source":0
		},
		{
			"sampler":0,
			"source":0
		}
	],
	"images":[
		{
			"mimeType":"image/png",
			"name":"osiris_atlas",
			"uri":"textures/osiris_atlas.png"
		}
	],
	"accessors":[
		{
			"bufferView":0,
			"componentType":5123,
			"count":221,
			"normalized":true,
			"type":"VEC4"
		},
		{
			"bufferView":1,
			"componentType":5126,
			"count":221,
			"max":[
				0.6544469594955444,
				0.3829048275947571,
				0.7324742674827576
			],
			"min":[
				-0.6067612171173096,
				0.06716279685497284,
				-0.7332333922386169
			],
			"type":"VEC3"
		},
		{
			"bufferView":2,
			"componentType":5126,
			"count":221,
			"type":"VEC3"
		},
		{
			"bufferView":3,
			"componentType":5126,
			"count":221,
			"type":"VEC2"
		},
		{
			"bufferView":4,
			"componentType":5123,
			"count":858,
			"type":"SCALAR"
		},
		{
			"bufferView":5,
			"componentType":5123,
			"count":683,
			"normalized":true,
			"type":"VEC4"
		},
		{
			"bufferView":6,
			"componentType":5126,
			"count":683,
			"max":[
				0.5643708109855652,
				1.9143788814544678,
				0.9339763522148132
			],
			"min":[
				-0.5931195020675659,
				0.25506991147994995,
				-0.6306715607643127
			],
			"type":"VEC3"
		},
		{
			"bufferView":7,
			"componentType":5126,
			"count":683,
			"type":"VEC3"
		},
		{
			"bufferView":8,
			"componentType":5126,
			"count":683,
			"type":"VEC2"
		},
		{
			"bufferView":9,
			"componentType":5123,
			"count":2280,
			"type":"SCALAR"
		},
		{
			"bufferView":10,
			"componentType":5126,
			"count":361,
			"max":[
				0.47148895263671875,
				4.4829535484313965,
				0.8997951745986938
			],
			"min":[
				-0.4689115285873413,
				3.1552505493164062,
				0.07277899980545044
			],
			"type":"VEC3"
		},
		{
			"bufferView":11,
			"componentType":5126,
			"count":361,
			"type":"VEC3"
		},
		{
			"bufferView":12,
			"componentType":5126,
			"count":361,
			"type":"VEC2"
		},
		{
			"bufferView":13,
			"componentType":5123,
			"count":1302,
			"type":"SCALAR"
		},
		{
			"bufferView":14,
			"componentType":5123,
			"count":594,
			"normalized":true,
			"type":"VEC4"
		},
		{
			"bufferView":15,
			"componentType":5126,
			"count":594,
			"max":[
				1.1904549598693848,
				2.910705089569092,
				0.6844085454940796
			],
			"min":[
				-0.7299548983573914,
				1.8791635036468506,
				-0.2367607206106186
			],
			"type":"VEC3"
		},
		{
			"bufferView":16,
			"componentType":5126,
			"count":594,
			"type":"VEC3"
		},
		{
			"bufferView":17,
			"componentType":5126,
			"count":594,
			"type":"VEC2"
		},
		{
			"bufferView":18,
			"componentType":5123,
			"count":1710,
			"type":"SCALAR"
		},
		{
			"bufferView":19,
			"componentType":5123,
			"count":520,
			"normalized":true,
			"type":"VEC4"
		},
		{
			"bufferView":20,
			"componentType":5126,
			"count":520,
			"max":[
				1.4186038970947266,
				3.022803783416748,
				0.8308606147766113
			],
			"min":[
				-0.7285020351409912,
				1.6600823402404785,
				-0.2101161926984787
			],
			"type":"VEC3"
		},
		{
			"bufferView":21,
			"componentType":5126,
			"count":520,
			"type":"VEC3"
		},
		{
			"bufferView":22,
			"componentType":5126,
			"count":520,
			"type":"VEC2"
		},
		{
			"bufferView":23,
			"componentType":5123,
			"count":2202,
			"type":"SCALAR"
		},
		{
			"bufferView":24,
			"componentType":5126,
			"count":349,
			"max":[
				0.29110243916511536,
				3.5430095195770264,
				0.7217745184898376
			],
			"min":[
				-0.2848964035511017,
				2.703587770462036,
				0.1510780304670334
			],
			"type":"VEC3"
		},
		{
			"bufferView":25,
			"componentType":5126,
			"count":349,
			"type":"VEC3"
		},
		{
			"bufferView":26,
			"componentType":5126,
			"count":349,
			"type":"VEC2"
		},
		{
			"bufferView":27,
			"componentType":5126,
			"count":349,
			"type":"VEC2"
		},
		{
			"bufferView":28,
			"componentType":5123,
			"count":1680,
			"type":"SCALAR"
		},
		{
			"bufferView":29,
			"componentType":5126,
			"count":277,
			"max":[
				15.380433082580566,
				41.53974151611328,
				-154.9214630126953
			],
			"min":[
				-14.761566162109375,
				6.8809685707092285,
				-189.3767852783203
			],
			"type":"VEC3"
		},
		{
			"bufferView":30,
			"componentType":5126,
			"count":277,
			"type":"VEC3"
		},
		{
			"bufferView":31,
			"componentType":5126,
			"count":277,
			"type":"VEC2"
		},
		{
			"bufferView":32,
			"componentType":5123,
			"count":1440,
			"type":"SCALAR"
		}
	],
	"bufferViews":[
		{
			"buffer":0,
			"byteLength":1768,
			"byteOffset":0,
			"target":34962
		},
		{
			"buffer":0,
			"byteLength":2652,
			"byteOffset":1768,
			"target":34962
		},
		{
			"buffer":0,
			"byteLength":2652,
			"byteOffset":4420,
			"target":34962
		},
		{
			"buffer":0,
			"byteLength":1768,
			"byteOffset":7072,
			"target":34962
		},
		{
			"buffer":0,
			"byteLength":1716,
			"byteOffset":8840,
			"target":34963
		},
		{
			"buffer":0,
			"byteLength":5464,
			"byteOffset":10556,
			"target":34962
		},
		{
			"buffer":0,
			"byteLength":8196,
			"byteOffset":16020,
			"target":34962
		},
		{
			"buffer":0,
			"byteLength":8196,
			"byteOffset":24216,
			"target":34962
		},
		{
			"buffer":0,
			"byteLength":5464,
			"byteOffset":32412,
			"target":34962
		},
		{
			"buffer":0,
			"byteLength":4560,
			"byteOffset":37876,
			"target":34963
		},
		{
			"buffer":0,
			"byteLength":4332,
			"byteOffset":42436,
			"target":34962
		},
		{
			"buffer":0,
			"byteLength":4332,
			"byteOffset":46768,
			"target":34962
		},
		{
			"buffer":0,
			"byteLength":2888,
			"byteOffset":51100,
			"target":34962
		},
		{
			"buffer":0,
			"byteLength":2604,
			"byteOffset":53988,
			"target":34963
		},
		{
			"buffer":0,
			"byteLength":4752,
			"byteOffset":56592,
			"target":34962
		},
		{
			"buffer":0,
			"byteLength":7128,
			"byteOffset":61344,
			"target":34962
		},
		{
			"buffer":0,
			"byteLength":7128,
			"byteOffset":68472,
			"target":34962
		},
		{
			"buffer":0,
			"byteLength":4752,
			"byteOffset":75600,
			"target":34962
		},
		{
			"buffer":0,
			"byteLength":3420,
			"byteOffset":80352,
			"target":34963
		},
		{
			"buffer":0,
			"byteLength":4160,
			"byteOffset":83772,
			"target":34962
		},
		{
			"buffer":0,
			"byteLength":6240,
			"byteOffset":87932,
			"target":34962
		},
		{
			"buffer":0,
			"byteLength":6240,
			"byteOffset":94172,
			"target":34962
		},
		{
			"buffer":0,
			"byteLength":4160,
			"byteOffset":100412,
			"target":34962
		},
		{
			"buffer":0,
			"byteLength":4404,
			"byteOffset":104572,
			"target":34963
		},
		{
			"buffer":0,
			"byteLength":4188,
			"byteOffset":108976,
			"target":34962
		},
		{
			"buffer":0,
			"byteLength":4188,
			"byteOffset":113164,
			"target":34962
		},
		{
			"buffer":0,
			"byteLength":2792,
			"byteOffset":117352,
			"target":34962
		},
		{
			"buffer":0,
			"byteLength":2792,
			"byteOffset":120144,
			"target":34962
		},
		{
			"buffer":0,
			"byteLength":3360,
			"byteOffset":122936,
			"target":34963
		},
		{
			"buffer":0,
			"byteLength":3324,
			"byteOffset":126296,
			"target":34962
		},
		{
			"buffer":0,
			"byteLength":3324,
			"byteOffset":129620,
			"target":34962
		},
		{
			"buffer":0,
			"byteLength":2216,
			"byteOffset":132944,
			"target":34962
		},
		{
			"buffer":0,
			"byteLength":2880,
			"byteOffset":135160,
			"target":34963
		}
	],
	"samplers":[
		{
			"magFilter":9729,
			"minFilter":9987
		}
	],
	"buffers":[
		{
			"byteLength":138040,
			"uri":"F_osiris_pose.bin"
		}
	]
}
