{
	"asset":{
		"generator":"Khronos glTF Blender I/O v3.6.27",
		"version":"2.0"
	},
	"scene":0,
	"scenes":[
		{
			"name":"Scene",
			"nodes":[
				0,
				1,
				2,
				3,
				4
			]
		}
	],
	"nodes":[
		{
			"mesh":0,
			"name":"M_head.004"
		},
		{
			"mesh":1,
			"name":"F_Sekhmet_Feet"
		},
		{
			"mesh":2,
			"name":"F_Sekhmet_Helmet"
		},
		{
			"mesh":3,
			"name":"F_Sekhmet_Lowerbody"
		},
		{
			"mesh":4,
			"name":"F_Sekhmet_Upperbody"
		}
	],
	"materials":[
		{
			"emissiveFactor":[
				0.020000000596046452,
				0.022000000208616255,
				0.02500000037252903
			],
			"name":"maniqui",
			"pbrMetallicRoughness":{
				"baseColorFactor":[
					0.4000000059604645,
					0.4399999976158142,
					0.5,
					1
				],
				"metallicFactor":0,
				"roughnessFactor":0.5
			}
		},
		{
			"emissiveFactor":[
				0.020000000596046452,
				0.022000000208616255,
				0.02500000037252903
			],
			"name":"maniqui",
			"pbrMetallicRoughness":{
				"baseColorFactor":[
					0.4000000059604645,
					0.4399999976158142,
					0.5,
					1
				],
				"metallicFactor":0,
				"roughnessFactor":0.5
			}
		},
		{
			"doubleSided":true,
			"emissiveFactor":[
				0.05000000074505806,
				0.05000000074505806,
				0.05000000074505806
			],
			"emissiveTexture":{
				"index":0
			},
			"name":"sekhmet_atlas",
			"pbrMetallicRoughness":{
				"baseColorTexture":{
					"index":1
				},
				"metallicFactor":0
			}
		}
	],
	"meshes":[
		{
			"name":"Mesh.002",
			"primitives":[
				{
					"attributes":{
						"POSITION":0,
						"NORMAL":1,
						"TEXCOORD_0":2,
						"TEXCOORD_1":3
					},
					"indices":4,
					"material":0
				}
			]
		},
		{
			"name":"F_Sekhmet_Feet",
			"primitives":[
				{
					"attributes":{
						"COLOR_0":5,
						"POSITION":6,
						"NORMAL":7,
						"TEXCOORD_0":8
					},
					"indices":9,
					"material":1
				},
				{
					"attributes":{
						"COLOR_0":10,
						"POSITION":11,
						"NORMAL":12,
						"TEXCOORD_0":13
					},
					"indices":14,
					"material":2
				}
			]
		},
		{
			"name":"M_Sekhmet_Helmet",
			"primitives":[
				{
					"attributes":{
						"POSITION":15,
						"NORMAL":16,
						"TEXCOORD_0":17,
						"TEXCOORD_1":18
					},
					"indices":19,
					"material":2
				}
			]
		},
		{
			"name":"F_Sekhmet_Lowerbody",
			"primitives":[
				{
					"attributes":{
						"POSITION":20,
						"NORMAL":21,
						"TEXCOORD_0":22,
						"TEXCOORD_1":23
					},
					"indices":24,
					"material":1
				},
				{
					"attributes":{
						"POSITION":25,
						"NORMAL":26,
						"TEXCOORD_0":27,
						"TEXCOORD_1":28
					},
					"indices":29,
					"material":2
				}
			]
		},
		{
			"name":"F_Sekhmet_Upperbody",
			"primitives":[
				{
					"attributes":{
						"COLOR_0":30,
						"POSITION":31,
						"NORMAL":32,
						"TEXCOORD_0":33,
						"TEXCOORD_1":34
					},
					"indices":35,
					"material":2
				},
				{
					"attributes":{
						"COLOR_0":36,
						"POSITION":37,
						"NORMAL":38,
						"TEXCOORD_0":39,
						"TEXCOORD_1":40
					},
					"indices":41,
					"material":1
				}
			]
		}
	],
	"textures":[
		{
			"sampler":0,
			"source":0
		},
		{
			"sampler":0,
			"source":0
		}
	],
	"images":[
		{
			"mimeType":"image/png",
			"name":"sekhmet_atlas",
			"uri":"textures/sekhmet_atlas.png"
		}
	],
	"accessors":[
		{
			"bufferView":0,
			"componentType":5126,
			"count":349,
			"max":[
				0.29110243916511536,
				3.5430095195770264,
				0.7217745184898376
			],
			"min":[
				-0.2848964035511017,
				2.703587770462036,
				0.1510780304670334
			],
			"type":"VEC3"
		},
		{
			"bufferView":1,
			"componentType":5126,
			"count":349,
			"type":"VEC3"
		},
		{
			"bufferView":2,
			"componentType":5126,
			"count":349,
			"type":"VEC2"
		},
		{
			"bufferView":3,
			"componentType":5126,
			"count":349,
			"type":"VEC2"
		},
		{
			"bufferView":4,
			"componentType":5123,
			"count":1680,
			"type":"SCALAR"
		},
		{
			"bufferView":5,
			"componentType":5123,
			"count":269,
			"normalized":true,
			"type":"VEC4"
		},
		{
			"bufferView":6,
			"componentType":5126,
			"count":269,
			"max":[
				0.6186380386352539,
				0.36570459604263306,
				0.7031941413879395
			],
			"min":[
				-0.5680913925170898,
				0.086236871778965,
				-0.7126097679138184
			],
			"type":"VEC3"
		},
		{
			"bufferView":7,
			"componentType":5126,
			"count":269,
			"type":"VEC3"
		},
		{
			"bufferView":8,
			"componentType":5126,
			"count":269,
			"type":"VEC2"
		},
		{
			"bufferView":9,
			"componentType":5123,
			"count":864,
			"type":"SCALAR"
		},
		{
			"bufferView":10,
			"componentType":5123,
			"count":778,
			"normalized":true,
			"type":"VEC4"
		},
		{
			"bufferView":11,
			"componentType":5126,
			"count":778,
			"max":[
				0.6288483738899231,
				0.3727763295173645,
				0.7051918506622314
			],
			"min":[
				-0.578359067440033,
				0.07323427498340607,
				-0.7112028002738953
			],
			"type":"VEC3"
		},
		{
			"bufferView":12,
			"componentType":5126,
			"count":778,
			"type":"VEC3"
		},
		{
			"bufferView":13,
			"componentType":5126,
			"count":778,
			"type":"VEC2"
		},
		{
			"bufferView":14,
			"componentType":5123,
			"count":1902,
			"type":"SCALAR"
		},
		{
			"bufferView":15,
			"componentType":5126,
			"count":1055,
			"max":[
				0.3566087484359741,
				3.59906268119812,
				0.7747077345848083
			],
			"min":[
				-0.3566087484359741,
				2.9059627056121826,
				0.07383427768945694
			],
			"type":"VEC3"
		},
		{
			"bufferView":16,
			"componentType":5126,
			"count":1055,
			"type":"VEC3"
		},
		{
			"bufferView":17,
			"componentType":5126,
			"count":1055,
			"type":"VEC2"
		},
		{
			"bufferView":18,
			"componentType":5126,
			"count":1055,
			"type":"VEC2"
		},
		{
			"bufferView":19,
			"componentType":5123,
			"count":3702,
			"type":"SCALAR"
		},
		{
			"bufferView":20,
			"componentType":5126,
			"count":396,
			"max":[
				0.45782381296157837,
				1.8966752290725708,
				0.8116608262062073
			],
			"min":[
				-0.4728236496448517,
				0.2543838620185852,
				-0.615330159664154
			],
			"type":"VEC3"
		},
		{
			"bufferView":21,
			"componentType":5126,
			"count":396,
			"type":"VEC3"
		},
		{
			"bufferView":22,
			"componentType":5126,
			"count":396,
			"type":"VEC2"
		},
		{
			"bufferView":23,
			"componentType":5126,
			"count":396,
			"type":"VEC2"
		},
		{
			"bufferView":24,
			"componentType":5123,
			"count":1038,
			"type":"SCALAR"
		},
		{
			"bufferView":25,
			"componentType":5126,
			"count":1682,
			"max":[
				0.48064082860946655,
				1.8978984355926514,
				0.8235403895378113
			],
			"min":[
				-0.49113383889198303,
				0.244441956281662,
				-0.6261807680130005
			],
			"type":"VEC3"
		},
		{
			"bufferView":26,
			"componentType":5126,
			"count":1682,
			"type":"VEC3"
		},
		{
			"bufferView":27,
			"componentType":5126,
			"count":1682,
			"type":"VEC2"
		},
		{
			"bufferView":28,
			"componentType":5126,
			"count":1682,
			"type":"VEC2"
		},
		{
			"bufferView":29,
			"componentType":5123,
			"count":3696,
			"type":"SCALAR"
		},
		{
			"bufferView":30,
			"componentType":5123,
			"count":778,
			"normalized":true,
			"type":"VEC4"
		},
		{
			"bufferView":31,
			"componentType":5126,
			"count":778,
			"max":[
				1.1459282636642456,
				2.875566244125366,
				0.6368035078048706
			],
			"min":[
				-0.7261680364608765,
				1.8837674856185913,
				-0.19194693863391876
			],
			"type":"VEC3"
		},
		{
			"bufferView":32,
			"componentType":5126,
			"count":778,
			"type":"VEC3"
		},
		{
			"bufferView":33,
			"componentType":5126,
			"count":778,
			"type":"VEC2"
		},
		{
			"bufferView":34,
			"componentType":5126,
			"count":778,
			"type":"VEC2"
		},
		{
			"bufferView":35,
			"componentType":5123,
			"count":2070,
			"type":"SCALAR"
		},
		{
			"bufferView":36,
			"componentType":5123,
			"count":696,
			"normalized":true,
			"type":"VEC4"
		},
		{
			"bufferView":37,
			"componentType":5126,
			"count":696,
			"max":[
				1.4124255180358887,
				3.006793260574341,
				0.8242712020874023
			],
			"min":[
				-0.72527676820755,
				1.6756800413131714,
				-0.19032688438892365
			],
			"type":"VEC3"
		},
		{
			"bufferView":38,
			"componentType":5126,
			"count":696,
			"type":"VEC3"
		},
		{
			"bufferView":39,
			"componentType":5126,
			"count":696,
			"type":"VEC2"
		},
		{
			"bufferView":40,
			"componentType":5126,
			"count":696,
			"type":"VEC2"
		},
		{
			"bufferView":41,
			"componentType":5123,
			"count":2550,
			"type":"SCALAR"
		}
	],
	"bufferViews":[
		{
			"buffer":0,
			"byteLength":4188,
			"byteOffset":0,
			"target":34962
		},
		{
			"buffer":0,
			"byteLength":4188,
			"byteOffset":4188,
			"target":34962
		},
		{
			"buffer":0,
			"byteLength":2792,
			"byteOffset":8376,
			"target":34962
		},
		{
			"buffer":0,
			"byteLength":2792,
			"byteOffset":11168,
			"target":34962
		},
		{
			"buffer":0,
			"byteLength":3360,
			"byteOffset":13960,
			"target":34963
		},
		{
			"buffer":0,
			"byteLength":2152,
			"byteOffset":17320,
			"target":34962
		},
		{
			"buffer":0,
			"byteLength":3228,
			"byteOffset":19472,
			"target":34962
		},
		{
			"buffer":0,
			"byteLength":3228,
			"byteOffset":22700,
			"target":34962
		},
		{
			"buffer":0,
			"byteLength":2152,
			"byteOffset":25928,
			"target":34962
		},
		{
			"buffer":0,
			"byteLength":1728,
			"byteOffset":28080,
			"target":34963
		},
		{
			"buffer":0,
			"byteLength":6224,
			"byteOffset":29808,
			"target":34962
		},
		{
			"buffer":0,
			"byteLength":9336,
			"byteOffset":36032,
			"target":34962
		},
		{
			"buffer":0,
			"byteLength":9336,
			"byteOffset":45368,
			"target":34962
		},
		{
			"buffer":0,
			"byteLength":6224,
			"byteOffset":54704,
			"target":34962
		},
		{
			"buffer":0,
			"byteLength":3804,
			"byteOffset":60928,
			"target":34963
		},
		{
			"buffer":0,
			"byteLength":12660,
			"byteOffset":64732,
			"target":34962
		},
		{
			"buffer":0,
			"byteLength":12660,
			"byteOffset":77392,
			"target":34962
		},
		{
			"buffer":0,
			"byteLength":8440,
			"byteOffset":90052,
			"target":34962
		},
		{
			"buffer":0,
			"byteLength":8440,
			"byteOffset":98492,
			"target":34962
		},
		{
			"buffer":0,
			"byteLength":7404,
			"byteOffset":106932,
			"target":34963
		},
		{
			"buffer":0,
			"byteLength":4752,
			"byteOffset":114336,
			"target":34962
		},
		{
			"buffer":0,
			"byteLength":4752,
			"byteOffset":119088,
			"target":34962
		},
		{
			"buffer":0,
			"byteLength":3168,
			"byteOffset":123840,
			"target":34962
		},
		{
			"buffer":0,
			"byteLength":3168,
			"byteOffset":127008,
			"target":34962
		},
		{
			"buffer":0,
			"byteLength":2076,
			"byteOffset":130176,
			"target":34963
		},
		{
			"buffer":0,
			"byteLength":20184,
			"byteOffset":132252,
			"target":34962
		},
		{
			"buffer":0,
			"byteLength":20184,
			"byteOffset":152436,
			"target":34962
		},
		{
			"buffer":0,
			"byteLength":13456,
			"byteOffset":172620,
			"target":34962
		},
		{
			"buffer":0,
			"byteLength":13456,
			"byteOffset":186076,
			"target":34962
		},
		{
			"buffer":0,
			"byteLength":7392,
			"byteOffset":199532,
			"target":34963
		},
		{
			"buffer":0,
			"byteLength":6224,
			"byteOffset":206924,
			"target":34962
		},
		{
			"buffer":0,
			"byteLength":9336,
			"byteOffset":213148,
			"target":34962
		},
		{
			"buffer":0,
			"byteLength":9336,
			"byteOffset":222484,
			"target":34962
		},
		{
			"buffer":0,
			"byteLength":6224,
			"byteOffset":231820,
			"target":34962
		},
		{
			"buffer":0,
			"byteLength":6224,
			"byteOffset":238044,
			"target":34962
		},
		{
			"buffer":0,
			"byteLength":4140,
			"byteOffset":244268,
			"target":34963
		},
		{
			"buffer":0,
			"byteLength":5568,
			"byteOffset":248408,
			"target":34962
		},
		{
			"buffer":0,
			"byteLength":8352,
			"byteOffset":253976,
			"target":34962
		},
		{
			"buffer":0,
			"byteLength":8352,
			"byteOffset":262328,
			"target":34962
		},
		{
			"buffer":0,
			"byteLength":5568,
			"byteOffset":270680,
			"target":34962
		},
		{
			"buffer":0,
			"byteLength":5568,
			"byteOffset":276248,
			"target":34962
		},
		{
			"buffer":0,
			"byteLength":5100,
			"byteOffset":281816,
			"target":34963
		}
	],
	"samplers":[
		{
			"magFilter":9729,
			"minFilter":9987
		}
	],
	"buffers":[
		{
			"byteLength":286916,
			"uri":"F_sekhmet_pose.bin"
		}
	]
}
