# Blender v3.0.1 OBJ File: 'SimpleParts.blend'
# www.blender.org
mtllib basic_stepslope.mtl
o basic_stepSlope_glb_ID3.014
v 1.999956 0.000000 -0.486244
v 1.999956 0.243186 -0.486244
v -1.999956 0.000000 -0.486244
v 1.489717 0.328826 -0.486244
v 1.057157 0.572709 -0.486244
v -1.999956 0.243186 -0.486244
v -1.489717 0.328826 -0.486244
v -1.057157 0.572709 -0.486244
v 1.999956 0.000000 0.486244
v 1.999956 0.243186 0.486244
v -1.999956 0.000000 0.486244
v 1.489717 0.328826 0.486244
v 1.057157 0.572709 0.486244
v -1.999956 0.243186 0.486244
v -1.489717 0.328826 0.486244
v -1.057157 0.572709 0.486244
vt 0.833413 0.486255
vt 0.772615 0.486255
vt 0.772615 0.243127
vt 0.833413 0.243127
vt 0.711643 0.127563
vt 0.772615 0.235705
vt 0.772615 0.764295
vt 0.711643 0.872438
vt 0.690233 1.000000
vt 0.690233 0.000000
vt 0.629435 1.000000
vt 0.629435 0.000000
vt 0.568463 0.872438
vt 0.547053 1.000000
vt 0.547053 0.000000
vt 0.568463 0.127563
vt 0.629435 0.235705
vt 0.629435 0.764295
vt 0.486255 0.000000
vt 0.486255 1.000000
vt 0.000000 0.127563
vt 0.000000 0.000000
vt 0.243127 0.000000
vt 0.243127 0.127563
vt 0.000000 0.235705
vt 0.243127 0.235705
vt 0.000000 0.764295
vt 0.243127 0.764295
vt 0.000000 0.872438
vt 0.243127 0.872438
vt 0.000000 1.000000
vt 0.243127 1.000000
vt 0.833413 0.243127
vt 0.772615 0.243127
vt 0.772615 0.000000
vt 0.833413 0.000000
vt 0.486255 1.000000
vt 0.243127 1.000000
vt 0.243127 0.000000
vt 0.486255 0.000000
vn 1.0000 0.0000 0.0000
vn 0.0000 0.0000 -1.0000
vn 0.0000 0.0000 1.0000
vn 0.3333 0.9428 0.0000
vn 0.1655 0.9862 0.0000
vn 0.2539 0.9672 0.0000
vn -0.2539 0.9672 0.0000
vn -0.3333 0.9428 0.0000
vn -0.1655 0.9862 0.0000
vn -1.0000 0.0000 0.0000
vn 0.0000 -1.0000 0.0000
usemtl Material
s 1
f 1/1/1 2/2/1 10/3/1 9/4/1
f 7/5/2 8/6/2 5/7/2 4/8/2 2/9/2 6/10/2
f 1/11/2 3/12/2 6/10/2 2/9/2
f 15/13/3 14/14/3 10/15/3 12/16/3 13/17/3 16/18/3
f 9/19/3 10/15/3 14/14/3 11/20/3
f 12/21/4 10/22/5 2/23/5 4/24/4
f 13/25/6 12/21/4 4/24/4 5/26/6
f 16/27/7 13/25/6 5/26/6 8/28/7
f 15/29/8 16/27/7 8/28/7 7/30/8
f 14/31/9 15/29/8 7/30/8 6/32/9
f 11/33/10 14/34/10 6/35/10 3/36/10
f 1/37/11 9/38/11 11/39/11 3/40/11
