{
    "asset" : {
        "generator" : "Khronos glTF Blender I/O v1.7.33",
        "version" : "2.0"
    },
    "scene" : 0,
    "scenes" : [
        {
            "name" : "Scene",
            "nodes" : [
                0,
                1
            ]
        }
    ],
    "nodes" : [
        {
            "mesh" : 0,
            "name" : "Rotation",
            "rotation" : [
                0,
                -0.7975800633430481,
                0.6032131314277649,
                -1.2994227915896772e-07
            ],
            "scale" : [
                0.08383719623088837,
                0.08383719623088837,
                0.08383719623088837
            ],
            "translation" : [
                0.4050329029560089,
                0.27535122632980347,
                0.0035529148299247026
            ]
        },
        {
            "mesh" : 1,
            "name" : "Power",
            "rotation" : [
                0,
                -0.7975800633430481,
                0.6032131314277649,
                -1.2994227915896772e-07
            ],
            "scale" : [
                0.08383719623088837,
                0.08383719623088837,
                0.08383719623088837
            ],
            "translation" : [
                0.4050329029560089,
                0.27535122632980347,
                0.0035529148299247026
            ]
        }
    ],
    "materials" : [
        {
            "alphaCutoff" : 0.5,
            "alphaMode" : "MASK",
            "doubleSided" : true,
            "emissiveFactor" : [
                1,
                1,
                1
            ],
            "emissiveTexture" : {
                "index" : 0
            },
            "name" : "Material.002",
            "pbrMetallicRoughness" : {
                "baseColorTexture" : {
                    "index" : 1
                },
                "metallicFactor" : 0
            }
        },
        {
            "alphaCutoff" : 0.5,
            "alphaMode" : "MASK",
            "doubleSided" : true,
            "emissiveFactor" : [
                1,
                1,
                1
            ],
            "emissiveTexture" : {
                "index" : 2
            },
            "name" : "Material.001",
            "pbrMetallicRoughness" : {
                "baseColorTexture" : {
                    "index" : 3
                },
                "metallicFactor" : 0
            }
        }
    ],
    "meshes" : [
        {
            "name" : "Plane.001",
            "primitives" : [
                {
                    "attributes" : {
                        "POSITION" : 0,
                        "NORMAL" : 1,
                        "TEXCOORD_0" : 2
                    },
                    "indices" : 3,
                    "material" : 0
                }
            ]
        },
        {
            "name" : "Plane.002",
            "primitives" : [
                {
                    "attributes" : {
                        "POSITION" : 4,
                        "NORMAL" : 5,
                        "TEXCOORD_0" : 6
                    },
                    "indices" : 7,
                    "material" : 1
                }
            ]
        }
    ],
    "textures" : [
        {
            "sampler" : 0,
            "source" : 0
        },
        {
            "sampler" : 0,
            "source" : 1
        },
        {
            "sampler" : 0,
            "source" : 0
        },
        {
            "sampler" : 0,
            "source" : 1
        }
    ],
    "images" : [
        {
            "mimeType" : "image/png",
            "name" : "Controls",
            "uri" : "textures/Controls.png"
        },
        {
            "mimeType" : "image/png",
            "name" : "Controls-1",
            "uri" : "textures/Controls-1.png"
        }
    ],
    "accessors" : [
        {
            "bufferView" : 0,
            "componentType" : 5126,
            "count" : 44,
            "max" : [
                10.07182788848877,
                0.06286275386810303,
                0.6001649498939514
            ],
            "min" : [
                -0.6001649498939514,
                -3.144627571105957,
                -0.960567831993103
            ],
            "type" : "VEC3"
        },
        {
            "bufferView" : 1,
            "componentType" : 5126,
            "count" : 44,
            "type" : "VEC3"
        },
        {
            "bufferView" : 2,
            "componentType" : 5126,
            "count" : 44,
            "type" : "VEC2"
        },
        {
            "bufferView" : 3,
            "componentType" : 5123,
            "count" : 108,
            "type" : "SCALAR"
        },
        {
            "bufferView" : 4,
            "componentType" : 5126,
            "count" : 12,
            "max" : [
                5.606047630310059,
                -2.401867389678955,
                1.322662591934204
            ],
            "min" : [
                4.417839050292969,
                -13.761077880859375,
                -3.0312633514404297
            ],
            "type" : "VEC3"
        },
        {
            "bufferView" : 5,
            "componentType" : 5126,
            "count" : 12,
            "type" : "VEC3"
        },
        {
            "bufferView" : 6,
            "componentType" : 5126,
            "count" : 12,
            "type" : "VEC2"
        },
        {
            "bufferView" : 7,
            "componentType" : 5123,
            "count" : 18,
            "type" : "SCALAR"
        }
    ],
    "bufferViews" : [
        {
            "buffer" : 0,
            "byteLength" : 528,
            "byteOffset" : 0
        },
        {
            "buffer" : 0,
            "byteLength" : 528,
            "byteOffset" : 528
        },
        {
            "buffer" : 0,
            "byteLength" : 352,
            "byteOffset" : 1056
        },
        {
            "buffer" : 0,
            "byteLength" : 216,
            "byteOffset" : 1408
        },
        {
            "buffer" : 0,
            "byteLength" : 144,
            "byteOffset" : 1624
        },
        {
            "buffer" : 0,
            "byteLength" : 144,
            "byteOffset" : 1768
        },
        {
            "buffer" : 0,
            "byteLength" : 96,
            "byteOffset" : 1912
        },
        {
            "buffer" : 0,
            "byteLength" : 36,
            "byteOffset" : 2008
        }
    ],
    "samplers" : [
        {
            "magFilter" : 9729,
            "minFilter" : 9987
        }
    ],
    "buffers" : [
        {
            "byteLength" : 2044,
            "uri" : "aiming.bin"
        }
    ]
}
   