{
	"asset":{
		"generator":"Khronos glTF Blender I/O v3.6.27",
		"version":"2.0"
	},
	"extensionsUsed":[
		"KHR_materials_emissive_strength",
		"KHR_materials_unlit"
	],
	"scene":0,
	"scenes":[
		{
			"name":"Scene",
			"nodes":[
				0,
				1
			]
		}
	],
	"nodes":[
		{
			"mesh":0,
			"name":"asym"
		},
		{
			"mesh":1,
			"name":"sym"
		}
	],
	"materials":[
		{
			"emissiveFactor":[
				1,
				1,
				1
			],
			"emissiveTexture":{
				"index":0
			},
			"extensions":{
				"KHR_materials_emissive_strength":{
					"emissiveStrength":20
				}
			},
			"name":"AvatarWearables_TX_emission",
			"pbrMetallicRoughness":{
				"baseColorTexture":{
					"index":1
				},
				"metallicFactor":0
			}
		},
		{
			"extensions":{
				"KHR_materials_unlit":{}
			},
			"name":"AvatarWearables_TX",
			"pbrMetallicRoughness":{
				"baseColorTexture":{
					"index":2,
					"texCoord":0
				},
				"metallicFactor":0,
				"roughnessFactor":0.9
			}
		},
		{
			"emissiveFactor":[
				1,
				1,
				1
			],
			"emissiveTexture":{
				"index":3
			},
			"extensions":{
				"KHR_materials_emissive_strength":{
					"emissiveStrength":20
				}
			},
			"name":"AvatarWearables_TX_emission",
			"pbrMetallicRoughness":{
				"baseColorTexture":{
					"index":4
				},
				"metallicFactor":0
			}
		}
	],
	"meshes":[
		{
			"name":"Sphere.007",
			"primitives":[
				{
					"attributes":{
						"POSITION":0,
						"NORMAL":1,
						"TEXCOORD_0":2
					},
					"indices":3,
					"material":0
				}
			]
		},
		{
			"name":"Sphere.002",
			"primitives":[
				{
					"attributes":{
						"POSITION":4,
						"NORMAL":5,
						"TEXCOORD_0":6,
						"TEXCOORD_1":7
					},
					"indices":8,
					"material":1
				},
				{
					"attributes":{
						"POSITION":9,
						"NORMAL":10,
						"TEXCOORD_0":11,
						"TEXCOORD_1":12
					},
					"indices":13,
					"material":2
				}
			]
		}
	],
	"textures":[
		{
			"sampler":0,
			"source":0
		},
		{
			"sampler":0,
			"source":0
		},
		{
			"sampler":0,
			"source":0
		},
		{
			"sampler":0,
			"source":0
		},
		{
			"sampler":0,
			"source":0
		}
	],
	"images":[
		{
			"mimeType":"image/png",
			"name":"AvatarWearables_TX",
			"uri":"textures/AvatarWearables_TX.png"
		}
	],
	"accessors":[
		{
			"bufferView":0,
			"componentType":5126,
			"count":234,
			"max":[
				0.1065349355340004,
				0.1065349355340004,
				0.10491639375686646
			],
			"min":[
				-0.1065349206328392,
				-0.1065349355340004,
				-0.10491639375686646
			],
			"type":"VEC3"
		},
		{
			"bufferView":1,
			"componentType":5126,
			"count":234,
			"type":"VEC3"
		},
		{
			"bufferView":2,
			"componentType":5126,
			"count":234,
			"type":"VEC2"
		},
		{
			"bufferView":3,
			"componentType":5123,
			"count":972,
			"type":"SCALAR"
		},
		{
			"bufferView":4,
			"componentType":5126,
			"count":692,
			"max":[
				0.09705149382352829,
				0.09440060704946518,
				0.08724179118871689
			],
			"min":[
				-0.09705149382352829,
				-0.09440060704946518,
				-0.08724179118871689
			],
			"type":"VEC3"
		},
		{
			"bufferView":5,
			"componentType":5126,
			"count":692,
			"type":"VEC3"
		},
		{
			"bufferView":6,
			"componentType":5126,
			"count":692,
			"type":"VEC2"
		},
		{
			"bufferView":7,
			"componentType":5126,
			"count":692,
			"type":"VEC2"
		},
		{
			"bufferView":8,
			"componentType":5123,
			"count":1284,
			"type":"SCALAR"
		},
		{
			"bufferView":9,
			"componentType":5126,
			"count":412,
			"max":[
				0.09705149382352829,
				0.0992586687207222,
				0.09755466878414154
			],
			"min":[
				-0.09705149382352829,
				-0.0992586687207222,
				-0.09755466878414154
			],
			"type":"VEC3"
		},
		{
			"bufferView":10,
			"componentType":5126,
			"count":412,
			"type":"VEC3"
		},
		{
			"bufferView":11,
			"componentType":5126,
			"count":412,
			"type":"VEC2"
		},
		{
			"bufferView":12,
			"componentType":5126,
			"count":412,
			"type":"VEC2"
		},
		{
			"bufferView":13,
			"componentType":5123,
			"count":960,
			"type":"SCALAR"
		}
	],
	"bufferViews":[
		{
			"buffer":0,
			"byteLength":2808,
			"byteOffset":0,
			"target":34962
		},
		{
			"buffer":0,
			"byteLength":2808,
			"byteOffset":2808,
			"target":34962
		},
		{
			"buffer":0,
			"byteLength":1872,
			"byteOffset":5616,
			"target":34962
		},
		{
			"buffer":0,
			"byteLength":1944,
			"byteOffset":7488,
			"target":34963
		},
		{
			"buffer":0,
			"byteLength":8304,
			"byteOffset":9432,
			"target":34962
		},
		{
			"buffer":0,
			"byteLength":8304,
			"byteOffset":17736,
			"target":34962
		},
		{
			"buffer":0,
			"byteLength":5536,
			"byteOffset":26040,
			"target":34962
		},
		{
			"buffer":0,
			"byteLength":5536,
			"byteOffset":31576,
			"target":34962
		},
		{
			"buffer":0,
			"byteLength":2568,
			"byteOffset":37112,
			"target":34963
		},
		{
			"buffer":0,
			"byteLength":4944,
			"byteOffset":39680,
			"target":34962
		},
		{
			"buffer":0,
			"byteLength":4944,
			"byteOffset":44624,
			"target":34962
		},
		{
			"buffer":0,
			"byteLength":3296,
			"byteOffset":49568,
			"target":34962
		},
		{
			"buffer":0,
			"byteLength":3296,
			"byteOffset":52864,
			"target":34962
		},
		{
			"buffer":0,
			"byteLength":1920,
			"byteOffset":56160,
			"target":34963
		}
	],
	"samplers":[
		{
			"magFilter":9729,
			"minFilter":9987
		}
	],
	"buffers":[
		{
			"byteLength":58080,
			"uri":"ball.bin"
		}
	]
}
