{
    "asset" : {
        "generator" : "Khronos glTF Blender I/O v1.7.33",
        "version" : "2.0"
    },
    "scene" : 1,
    "scenes" : [
        {
            "name" : "Ball"
        },
        {
            "name" : "Parts",
            "nodes" : [
                0,
                1,
                3
            ]
        }
    ],
    "nodes" : [
        {
            "mesh" : 0,
            "name" : "Bloque1x1x025_glb"
        },
        {
            "mesh" : 0,
            "name" : "Bloque1x1x025_collider"
        },
        {
            "name" : "Bone",
            "rotation" : [
                0,
                0,
                1,
                0
            ],
            "scale" : [
                0,
                0,
                0
            ]
        },
        {
            "children" : [
                2
            ],
            "name" : "LandMine_Armature_glb"
        }
    ],
    "animations" : [
        {
            "channels" : [
                {
                    "sampler" : 0,
                    "target" : {
                        "node" : 2,
                        "path" : "translation"
                    }
                },
                {
                    "sampler" : 1,
                    "target" : {
                        "node" : 2,
                        "path" : "rotation"
                    }
                },
                {
                    "sampler" : 2,
                    "target" : {
                        "node" : 2,
                        "path" : "scale"
                    }
                }
            ],
            "name" : "action",
            "samplers" : [
                {
                    "input" : 4,
                    "interpolation" : "LINEAR",
                    "output" : 5
                },
                {
                    "input" : 4,
                    "interpolation" : "LINEAR",
                    "output" : 6
                },
                {
                    "input" : 4,
                    "interpolation" : "LINEAR",
                    "output" : 7
                }
            ]
        },
        {
            "channels" : [
                {
                    "sampler" : 0,
                    "target" : {
                        "node" : 2,
                        "path" : "translation"
                    }
                },
                {
                    "sampler" : 1,
                    "target" : {
                        "node" : 2,
                        "path" : "rotation"
                    }
                },
                {
                    "sampler" : 2,
                    "target" : {
                        "node" : 2,
                        "path" : "scale"
                    }
                }
            ],
            "name" : "idle",
            "samplers" : [
                {
                    "input" : 8,
                    "interpolation" : "LINEAR",
                    "output" : 9
                },
                {
                    "input" : 8,
                    "interpolation" : "LINEAR",
                    "output" : 10
                },
                {
                    "input" : 8,
                    "interpolation" : "LINEAR",
                    "output" : 11
                }
            ]
        }
    ],
    "materials" : [
        {
            "doubleSided" : true,
            "name" : "Wood",
            "pbrMetallicRoughness" : {
                "baseColorTexture" : {
                    "index" : 0
                },
                "metallicFactor" : 0,
                "roughnessFactor" : 0.9318181872367859
            }
        }
    ],
    "meshes" : [
        {
            "name" : "Bloque1x1x025",
            "primitives" : [
                {
                    "attributes" : {
                        "POSITION" : 0,
                        "NORMAL" : 1,
                        "TEXCOORD_0" : 2
                    },
                    "indices" : 3,
                    "material" : 0
                }
            ]
        }
    ],
    "textures" : [
        {
            "sampler" : 0,
            "source" : 0
        }
    ],
    "images" : [
        {
            "mimeType" : "image/jpeg",
            "name" : "planksDark_BC",
            "uri" : "textures/planksDark_BC.jpg"
        }
    ],
    "accessors" : [
        {
            "bufferView" : 0,
            "componentType" : 5126,
            "count" : 24,
            "max" : [
                0.5,
                0.25,
                0.5
            ],
            "min" : [
                -0.5,
                0,
                -0.5
            ],
            "type" : "VEC3"
        },
        {
            "bufferView" : 1,
            "componentType" : 5126,
            "count" : 24,
            "type" : "VEC3"
        },
        {
            "bufferView" : 2,
            "componentType" : 5126,
            "count" : 24,
            "type" : "VEC2"
        },
        {
            "bufferView" : 3,
            "componentType" : 5123,
            "count" : 36,
            "type" : "SCALAR"
        },
        {
            "bufferView" : 4,
            "componentType" : 5126,
            "count" : 2,
            "max" : [
                0.3333333333333333
            ],
            "min" : [
                0.016666666666666666
            ],
            "type" : "SCALAR"
        },
        {
            "bufferView" : 5,
            "componentType" : 5126,
            "count" : 2,
            "type" : "VEC3"
        },
        {
            "bufferView" : 6,
            "componentType" : 5126,
            "count" : 2,
            "type" : "VEC4"
        },
        {
            "bufferView" : 7,
            "componentType" : 5126,
            "count" : 2,
            "type" : "VEC3"
        },
        {
            "bufferView" : 8,
            "componentType" : 5126,
            "count" : 1,
            "max" : [
                0.016666666666666666
            ],
            "min" : [
                0.016666666666666666
            ],
            "type" : "SCALAR"
        },
        {
            "bufferView" : 9,
            "componentType" : 5126,
            "count" : 1,
            "type" : "VEC3"
        },
        {
            "bufferView" : 10,
            "componentType" : 5126,
            "count" : 1,
            "type" : "VEC4"
        },
        {
            "bufferView" : 11,
            "componentType" : 5126,
            "count" : 1,
            "type" : "VEC3"
        }
    ],
    "bufferViews" : [
        {
            "buffer" : 0,
            "byteLength" : 288,
            "byteOffset" : 0
        },
        {
            "buffer" : 0,
            "byteLength" : 288,
            "byteOffset" : 288
        },
        {
            "buffer" : 0,
            "byteLength" : 192,
            "byteOffset" : 576
        },
        {
            "buffer" : 0,
            "byteLength" : 72,
            "byteOffset" : 768
        },
        {
            "buffer" : 0,
            "byteLength" : 8,
            "byteOffset" : 840
        },
        {
            "buffer" : 0,
            "byteLength" : 24,
            "byteOffset" : 848
        },
        {
            "buffer" : 0,
            "byteLength" : 32,
            "byteOffset" : 872
        },
        {
            "buffer" : 0,
            "byteLength" : 24,
            "byteOffset" : 904
        },
        {
            "buffer" : 0,
            "byteLength" : 4,
            "byteOffset" : 928
        },
        {
            "buffer" : 0,
            "byteLength" : 12,
            "byteOffset" : 932
        },
        {
            "buffer" : 0,
            "byteLength" : 16,
            "byteOffset" : 944
        },
        {
            "buffer" : 0,
            "byteLength" : 12,
            "byteOffset" : 960
        }
    ],
    "samplers" : [
        {
            "magFilter" : 9729,
            "minFilter" : 9987
        }
    ],
    "buffers" : [
        {
            "byteLength" : 972,
            "uri" : "Bloque1x1x025.bin"
        }
    ]
}
   