{
    "asset" : {
        "copyright" : "Eibriel",
        "generator" : "Khronos glTF Blender I/O v1.6.16",
        "version" : "2.0"
    },
    "scene" : 0,
    "scenes" : [
        {
            "name" : "checkpoint",
            "nodes" : [
                8,
                9
            ]
        }
    ],
    "nodes" : [
        {
            "mesh" : 0,
            "name" : "Sphere.002",
            "rotation" : [
                0,
                0,
                0,
                1
            ],
            "translation" : [
                -1.4901154088420299e-08,
                -7.451287942217277e-08,
                6.519254913683881e-09
            ]
        },
        {
            "children" : [
                0
            ],
            "name" : "Bone.001",
            "rotation" : [
                -2.7939681679356454e-09,
                6.51925713412993e-09,
                7.450580596923828e-09,
                1
            ],
            "scale" : [
                1.0000001192092896,
                1,
                1.0000001192092896
            ]
        },
        {
            "children" : [
                1
            ],
            "name" : "Bone.003",
            "rotation" : [
                0.4419383108615875,
                0.30398425459861755,
                0.7169755697250366,
                0.4452304244041443
            ],
            "scale" : [
                1.0000001192092896,
                1.000000238418579,
                1.0000001192092896
            ]
        },
        {
            "mesh" : 1,
            "name" : "Sphere.001",
            "rotation" : [
                0,
                0,
                0,
                1
            ],
            "translation" : [
                0,
                0,
                0
            ]
        },
        {
            "children" : [
                3
            ],
            "name" : "Bone.002"
        },
        {
            "mesh" : 2,
            "name" : "Sphere.003",
            "rotation" : [
                0,
                0,
                0,
                1
            ],
            "translation" : [
                -1.4901159417490817e-08,
                -2.9802322387695312e-08,
                -3.7252898543727042e-09
            ]
        },
        {
            "children" : [
                5
            ],
            "name" : "Bone",
            "rotation" : [
                0,
                0,
                1.4901161193847656e-08,
                1
            ]
        },
        {
            "children" : [
                6
            ],
            "name" : "Bone.004",
            "rotation" : [
                0.341170996427536,
                -0.6073963642120361,
                -0.23349636793136597,
                0.6783447265625
            ]
        },
        {
            "children" : [
                2,
                4,
                7
            ],
            "name" : "Armature.001"
        },
        {
            "mesh" : 3,
            "name" : "Sphere.005"
        }
    ],
    "animations" : [
        {
            "channels" : [
                {
                    "sampler" : 0,
                    "target" : {
                        "node" : 2,
                        "path" : "translation"
                    }
                },
                {
                    "sampler" : 1,
                    "target" : {
                        "node" : 2,
                        "path" : "rotation"
                    }
                },
                {
                    "sampler" : 2,
                    "target" : {
                        "node" : 2,
                        "path" : "scale"
                    }
                },
                {
                    "sampler" : 3,
                    "target" : {
                        "node" : 1,
                        "path" : "translation"
                    }
                },
                {
                    "sampler" : 4,
                    "target" : {
                        "node" : 1,
                        "path" : "rotation"
                    }
                },
                {
                    "sampler" : 5,
                    "target" : {
                        "node" : 1,
                        "path" : "scale"
                    }
                },
                {
                    "sampler" : 6,
                    "target" : {
                        "node" : 4,
                        "path" : "translation"
                    }
                },
                {
                    "sampler" : 7,
                    "target" : {
                        "node" : 4,
                        "path" : "rotation"
                    }
                },
                {
                    "sampler" : 8,
                    "target" : {
                        "node" : 4,
                        "path" : "scale"
                    }
                },
                {
                    "sampler" : 9,
                    "target" : {
                        "node" : 7,
                        "path" : "translation"
                    }
                },
                {
                    "sampler" : 10,
                    "target" : {
                        "node" : 7,
                        "path" : "rotation"
                    }
                },
                {
                    "sampler" : 11,
                    "target" : {
                        "node" : 7,
                        "path" : "scale"
                    }
                },
                {
                    "sampler" : 12,
                    "target" : {
                        "node" : 6,
                        "path" : "translation"
                    }
                },
                {
                    "sampler" : 13,
                    "target" : {
                        "node" : 6,
                        "path" : "rotation"
                    }
                },
                {
                    "sampler" : 14,
                    "target" : {
                        "node" : 6,
                        "path" : "scale"
                    }
                }
            ],
            "name" : "Armature.001Action",
            "samplers" : [
                {
                    "input" : 14,
                    "interpolation" : "LINEAR",
                    "output" : 15
                },
                {
                    "input" : 14,
                    "interpolation" : "LINEAR",
                    "output" : 16
                },
                {
                    "input" : 14,
                    "interpolation" : "LINEAR",
                    "output" : 17
                },
                {
                    "input" : 14,
                    "interpolation" : "LINEAR",
                    "output" : 18
                },
                {
                    "input" : 14,
                    "interpolation" : "LINEAR",
                    "output" : 19
                },
                {
                    "input" : 14,
                    "interpolation" : "LINEAR",
                    "output" : 20
                },
                {
                    "input" : 14,
                    "interpolation" : "LINEAR",
                    "output" : 21
                },
                {
                    "input" : 14,
                    "interpolation" : "LINEAR",
                    "output" : 22
                },
                {
                    "input" : 14,
                    "interpolation" : "LINEAR",
                    "output" : 23
                },
                {
                    "input" : 14,
                    "interpolation" : "LINEAR",
                    "output" : 24
                },
                {
                    "input" : 14,
                    "interpolation" : "LINEAR",
                    "output" : 25
                },
                {
                    "input" : 14,
                    "interpolation" : "LINEAR",
                    "output" : 26
                },
                {
                    "input" : 14,
                    "interpolation" : "LINEAR",
                    "output" : 27
                },
                {
                    "input" : 14,
                    "interpolation" : "LINEAR",
                    "output" : 28
                },
                {
                    "input" : 14,
                    "interpolation" : "LINEAR",
                    "output" : 29
                }
            ]
        }
    ],
    "materials" : [
        {
            "alphaMode" : "BLEND",
            "doubleSided" : true,
            "emissiveFactor" : [
                1,
                1,
                1
            ],
            "emissiveTexture" : {
                "index" : 0
            },
            "name" : "Glow2",
            "pbrMetallicRoughness" : {
                "baseColorTexture" : {
                    "index" : 1
                },
                "metallicFactor" : 0
            }
        }
    ],
    "meshes" : [
        {
            "name" : "Sphere.006",
            "primitives" : [
                {
                    "attributes" : {
                        "POSITION" : 0,
                        "NORMAL" : 1,
                        "TEXCOORD_0" : 2
                    },
                    "indices" : 3,
                    "material" : 0
                }
            ]
        },
        {
            "name" : "Sphere.001",
            "primitives" : [
                {
                    "attributes" : {
                        "POSITION" : 4,
                        "NORMAL" : 5,
                        "TEXCOORD_0" : 6
                    },
                    "indices" : 3,
                    "material" : 0
                }
            ]
        },
        {
            "name" : "Sphere.007",
            "primitives" : [
                {
                    "attributes" : {
                        "POSITION" : 7,
                        "NORMAL" : 8,
                        "TEXCOORD_0" : 9
                    },
                    "indices" : 3,
                    "material" : 0
                }
            ]
        },
        {
            "name" : "Sphere.005",
            "primitives" : [
                {
                    "attributes" : {
                        "POSITION" : 10,
                        "NORMAL" : 11,
                        "TEXCOORD_0" : 12
                    },
                    "indices" : 13,
                    "material" : 0
                }
            ]
        }
    ],
    "textures" : [
        {
            "sampler" : 0,
            "source" : 0
        },
        {
            "sampler" : 0,
            "source" : 0
        }
    ],
    "images" : [
        {
            "mimeType" : "image/png",
            "name" : "Glow2",
            "uri" : "textures/Glow2.png"
        }
    ],
    "accessors" : [
        {
            "bufferView" : 0,
            "componentType" : 5126,
            "count" : 12,
            "max" : [
                0.34202027320861816,
                0.9503941535949707,
                0.7957617044448853
            ],
            "min" : [
                -0.3420199453830719,
                -0.605609655380249,
                -0.9736934900283813
            ],
            "type" : "VEC3"
        },
        {
            "bufferView" : 1,
            "componentType" : 5126,
            "count" : 12,
            "type" : "VEC3"
        },
        {
            "bufferView" : 2,
            "componentType" : 5126,
            "count" : 12,
            "type" : "VEC2"
        },
        {
            "bufferView" : 3,
            "componentType" : 5123,
            "count" : 30,
            "type" : "SCALAR"
        },
        {
            "bufferView" : 4,
            "componentType" : 5126,
            "count" : 12,
            "max" : [
                0.34202027320861816,
                0.9503941535949707,
                0.7957617044448853
            ],
            "min" : [
                -0.3420199453830719,
                -0.605609655380249,
                -0.9736934900283813
            ],
            "type" : "VEC3"
        },
        {
            "bufferView" : 5,
            "componentType" : 5126,
            "count" : 12,
            "type" : "VEC3"
        },
        {
            "bufferView" : 6,
            "componentType" : 5126,
            "count" : 12,
            "type" : "VEC2"
        },
        {
            "bufferView" : 7,
            "componentType" : 5126,
            "count" : 12,
            "max" : [
                0.34202027320861816,
                0.9503941535949707,
                0.7957617044448853
            ],
            "min" : [
                -0.3420199453830719,
                -0.605609655380249,
                -0.9736934900283813
            ],
            "type" : "VEC3"
        },
        {
            "bufferView" : 8,
            "componentType" : 5126,
            "count" : 12,
            "type" : "VEC3"
        },
        {
            "bufferView" : 9,
            "componentType" : 5126,
            "count" : 12,
            "type" : "VEC2"
        },
        {
            "bufferView" : 10,
            "componentType" : 5126,
            "count" : 36,
            "max" : [
                0.1893025040626526,
                0.25761497020721436,
                0.23653383553028107
            ],
            "min" : [
                -0.22322194278240204,
                -0.21614684164524078,
                -0.18638435006141663
            ],
            "type" : "VEC3"
        },
        {
            "bufferView" : 11,
            "componentType" : 5126,
            "count" : 36,
            "type" : "VEC3"
        },
        {
            "bufferView" : 12,
            "componentType" : 5126,
            "count" : 36,
            "type" : "VEC2"
        },
        {
            "bufferView" : 13,
            "componentType" : 5123,
            "count" : 90,
            "type" : "SCALAR"
        },
        {
            "bufferView" : 14,
            "componentType" : 5126,
            "count" : 101,
            "max" : [
                4.166666666666667
            ],
            "min" : [
                0
            ],
            "type" : "SCALAR"
        },
        {
            "bufferView" : 15,
            "componentType" : 5126,
            "count" : 101,
            "type" : "VEC3"
        },
        {
            "bufferView" : 16,
            "componentType" : 5126,
            "count" : 101,
            "type" : "VEC4"
        },
        {
            "bufferView" : 17,
            "componentType" : 5126,
            "count" : 101,
            "type" : "VEC3"
        },
        {
            "bufferView" : 18,
            "componentType" : 5126,
            "count" : 101,
            "type" : "VEC3"
        },
        {
            "bufferView" : 19,
            "componentType" : 5126,
            "count" : 101,
            "type" : "VEC4"
        },
        {
            "bufferView" : 20,
            "componentType" : 5126,
            "count" : 101,
            "type" : "VEC3"
        },
        {
            "bufferView" : 21,
            "componentType" : 5126,
            "count" : 101,
            "type" : "VEC3"
        },
        {
            "bufferView" : 22,
            "componentType" : 5126,
            "count" : 101,
            "type" : "VEC4"
        },
        {
            "bufferView" : 23,
            "componentType" : 5126,
            "count" : 101,
            "type" : "VEC3"
        },
        {
            "bufferView" : 24,
            "componentType" : 5126,
            "count" : 101,
            "type" : "VEC3"
        },
        {
            "bufferView" : 25,
            "componentType" : 5126,
            "count" : 101,
            "type" : "VEC4"
        },
        {
            "bufferView" : 26,
            "componentType" : 5126,
            "count" : 101,
            "type" : "VEC3"
        },
        {
            "bufferView" : 27,
            "componentType" : 5126,
            "count" : 101,
            "type" : "VEC3"
        },
        {
            "bufferView" : 28,
            "componentType" : 5126,
            "count" : 101,
            "type" : "VEC4"
        },
        {
            "bufferView" : 29,
            "componentType" : 5126,
            "count" : 101,
            "type" : "VEC3"
        }
    ],
    "bufferViews" : [
        {
            "buffer" : 0,
            "byteLength" : 144,
            "byteOffset" : 0
        },
        {
            "buffer" : 0,
            "byteLength" : 144,
            "byteOffset" : 144
        },
        {
            "buffer" : 0,
            "byteLength" : 96,
            "byteOffset" : 288
        },
        {
            "buffer" : 0,
            "byteLength" : 60,
            "byteOffset" : 384
        },
        {
            "buffer" : 0,
            "byteLength" : 144,
            "byteOffset" : 444
        },
        {
            "buffer" : 0,
            "byteLength" : 144,
            "byteOffset" : 588
        },
        {
            "buffer" : 0,
            "byteLength" : 96,
            "byteOffset" : 732
        },
        {
            "buffer" : 0,
            "byteLength" : 144,
            "byteOffset" : 828
        },
        {
            "buffer" : 0,
            "byteLength" : 144,
            "byteOffset" : 972
        },
        {
            "buffer" : 0,
            "byteLength" : 96,
            "byteOffset" : 1116
        },
        {
            "buffer" : 0,
            "byteLength" : 432,
            "byteOffset" : 1212
        },
        {
            "buffer" : 0,
            "byteLength" : 432,
            "byteOffset" : 1644
        },
        {
            "buffer" : 0,
            "byteLength" : 288,
            "byteOffset" : 2076
        },
        {
            "buffer" : 0,
            "byteLength" : 180,
            "byteOffset" : 2364
        },
        {
            "buffer" : 0,
            "byteLength" : 404,
            "byteOffset" : 2544
        },
        {
            "buffer" : 0,
            "byteLength" : 1212,
            "byteOffset" : 2948
        },
        {
            "buffer" : 0,
            "byteLength" : 1616,
            "byteOffset" : 4160
        },
        {
            "buffer" : 0,
            "byteLength" : 1212,
            "byteOffset" : 5776
        },
        {
            "buffer" : 0,
            "byteLength" : 1212,
            "byteOffset" : 6988
        },
        {
            "buffer" : 0,
            "byteLength" : 1616,
            "byteOffset" : 8200
        },
        {
            "buffer" : 0,
            "byteLength" : 1212,
            "byteOffset" : 9816
        },
        {
            "buffer" : 0,
            "byteLength" : 1212,
            "byteOffset" : 11028
        },
        {
            "buffer" : 0,
            "byteLength" : 1616,
            "byteOffset" : 12240
        },
        {
            "buffer" : 0,
            "byteLength" : 1212,
            "byteOffset" : 13856
        },
        {
            "buffer" : 0,
            "byteLength" : 1212,
            "byteOffset" : 15068
        },
        {
            "buffer" : 0,
            "byteLength" : 1616,
            "byteOffset" : 16280
        },
        {
            "buffer" : 0,
            "byteLength" : 1212,
            "byteOffset" : 17896
        },
        {
            "buffer" : 0,
            "byteLength" : 1212,
            "byteOffset" : 19108
        },
        {
            "buffer" : 0,
            "byteLength" : 1616,
            "byteOffset" : 20320
        },
        {
            "buffer" : 0,
            "byteLength" : 1212,
            "byteOffset" : 21936
        }
    ],
    "samplers" : [
        {
            "magFilter" : 9729,
            "minFilter" : 9987
        }
    ],
    "buffers" : [
        {
            "byteLength" : 23148,
            "uri" : "checkpoint.bin"
        }
    ]
}
   