{
	"asset":{
		"generator":"Khronos glTF Blender I/O v4.0.44",
		"version":"2.0"
	},
	"extensionsUsed":[
		"KHR_materials_specular",
		"KHR_materials_ior"
	],
	"scene":0,
	"scenes":[
		{
			"name":"Scene",
			"nodes":[
				0,
				1
			]
		}
	],
	"nodes":[
		{
			"mesh":0,
			"name":"cocobay_env_cocolele_glb"
		},
		{
			"mesh":1,
			"name":"cocobay_env_cocolele_collider"
		}
	],
	"materials":[
		{
			"emissiveFactor":[
				0.20000000298023224,
				0.20000000298023224,
				0.20000000298023224
			],
			"emissiveTexture":{
				"index":0
			},
			"extensions":{
				"KHR_materials_specular":{
					"specularFactor":0
				},
				"KHR_materials_ior":{
					"ior":1.4500000476837158
				}
			},
			"name":"cocobay_atlas_01",
			"pbrMetallicRoughness":{
				"baseColorTexture":{
					"index":1
				},
				"metallicFactor":0
			}
		}
	],
	"meshes":[
		{
			"name":"Icosphere",
			"primitives":[
				{
					"attributes":{
						"POSITION":0,
						"NORMAL":1,
						"TEXCOORD_0":2
					},
					"indices":3,
					"material":0
				}
			]
		},
		{
			"name":"Icosphere.008",
			"primitives":[
				{
					"attributes":{
						"POSITION":4,
						"NORMAL":5,
						"TEXCOORD_0":6
					},
					"indices":7
				}
			]
		}
	],
	"textures":[
		{
			"sampler":0,
			"source":0
		},
		{
			"sampler":0,
			"source":0
		}
	],
	"images":[
		{
			"mimeType":"image/png",
			"name":"cocobay_atlas_01",
			"uri":"textures/cocobay_atlas_01.png"
		}
	],
	"accessors":[
		{
			"bufferView":0,
			"componentType":5126,
			"count":1161,
			"max":[
				0.6227989792823792,
				0.7754496335983276,
				1.9368138313293457
			],
			"min":[
				-0.6380826830863953,
				-0.00823153555393219,
				-2.102904796600342
			],
			"type":"VEC3"
		},
		{
			"bufferView":1,
			"componentType":5126,
			"count":1161,
			"type":"VEC3"
		},
		{
			"bufferView":2,
			"componentType":5126,
			"count":1161,
			"type":"VEC2"
		},
		{
			"bufferView":3,
			"componentType":5123,
			"count":2826,
			"type":"SCALAR"
		},
		{
			"bufferView":4,
			"componentType":5126,
			"count":197,
			"max":[
				0.6297512650489807,
				0.7901368737220764,
				1.9430468082427979
			],
			"min":[
				-0.6450349688529968,
				-0.015573076903820038,
				-2.113523483276367
			],
			"type":"VEC3"
		},
		{
			"bufferView":5,
			"componentType":5126,
			"count":197,
			"type":"VEC3"
		},
		{
			"bufferView":6,
			"componentType":5126,
			"count":197,
			"type":"VEC2"
		},
		{
			"bufferView":7,
			"componentType":5123,
			"count":354,
			"type":"SCALAR"
		}
	],
	"bufferViews":[
		{
			"buffer":0,
			"byteLength":13932,
			"byteOffset":0,
			"target":34962
		},
		{
			"buffer":0,
			"byteLength":13932,
			"byteOffset":13932,
			"target":34962
		},
		{
			"buffer":0,
			"byteLength":9288,
			"byteOffset":27864,
			"target":34962
		},
		{
			"buffer":0,
			"byteLength":5652,
			"byteOffset":37152,
			"target":34963
		},
		{
			"buffer":0,
			"byteLength":2364,
			"byteOffset":42804,
			"target":34962
		},
		{
			"buffer":0,
			"byteLength":2364,
			"byteOffset":45168,
			"target":34962
		},
		{
			"buffer":0,
			"byteLength":1576,
			"byteOffset":47532,
			"target":34962
		},
		{
			"buffer":0,
			"byteLength":708,
			"byteOffset":49108,
			"target":34963
		}
	],
	"samplers":[
		{
			"magFilter":9729,
			"minFilter":9987
		}
	],
	"buffers":[
		{
			"byteLength":49816,
			"uri":"cocobay_env_cocolele.bin"
		}
	]
}
