{
	"asset":{
		"generator":"Khronos glTF Blender I/O v4.0.44",
		"version":"2.0"
	},
	"extensionsUsed":[
		"KHR_materials_specular",
		"KHR_materials_ior"
	],
	"scene":0,
	"scenes":[
		{
			"name":"Scene",
			"nodes":[
				0,
				1
			]
		}
	],
	"nodes":[
		{
			"mesh":0,
			"name":"cocobay_concave_halfcorner_collider"
		},
		{
			"mesh":1,
			"name":"cocobay_concave_halfcorner_glb"
		}
	],
	"materials":[
		{
			"emissiveFactor":[
				0.20000000298023224,
				0.20000000298023224,
				0.20000000298023224
			],
			"emissiveTexture":{
				"index":0
			},
			"extensions":{
				"KHR_materials_specular":{
					"specularFactor":0
				},
				"KHR_materials_ior":{
					"ior":1.4500000476837158
				}
			},
			"name":"cocobay_atlas_01",
			"pbrMetallicRoughness":{
				"baseColorTexture":{
					"index":1
				},
				"metallicFactor":0
			}
		},
		{
			"alphaCutoff":0.5,
			"alphaMode":"MASK",
			"emissiveFactor":[
				0.20000000298023224,
				0.20000000298023224,
				0.20000000298023224
			],
			"emissiveTexture":{
				"index":2
			},
			"extensions":{
				"KHR_materials_specular":{
					"specularFactor":0.2545454502105713
				},
				"KHR_materials_ior":{
					"ior":1.4500000476837158
				}
			},
			"name":"cocobay_skybox_02_alpha_clip",
			"pbrMetallicRoughness":{
				"baseColorTexture":{
					"index":3
				},
				"metallicFactor":0,
				"roughnessFactor":0.968181848526001
			}
		}
	],
	"meshes":[
		{
			"name":"egypt_concavehalfcorner_collider",
			"primitives":[
				{
					"attributes":{
						"POSITION":0,
						"NORMAL":1,
						"TEXCOORD_0":2,
						"TEXCOORD_1":3
					},
					"indices":4
				}
			]
		},
		{
			"name":"basic_concave_halfcorner_glb_ID3.101",
			"primitives":[
				{
					"attributes":{
						"POSITION":5,
						"NORMAL":6,
						"TEXCOORD_0":7
					},
					"indices":8,
					"material":0
				},
				{
					"attributes":{
						"POSITION":9,
						"NORMAL":10,
						"TEXCOORD_0":11
					},
					"indices":12,
					"material":1
				}
			]
		}
	],
	"textures":[
		{
			"sampler":0,
			"source":0
		},
		{
			"sampler":0,
			"source":0
		},
		{
			"sampler":0,
			"source":1
		},
		{
			"sampler":0,
			"source":1
		}
	],
	"images":[
		{
			"mimeType":"image/png",
			"name":"cocobay_atlas_01",
			"uri":"textures/cocobay_atlas_01.png"
		},
		{
			"mimeType":"image/png",
			"name":"cocobay_skybox_02",
			"uri":"textures/cocobay_skybox_02.png"
		}
	],
	"accessors":[
		{
			"bufferView":0,
			"componentType":5126,
			"count":231,
			"max":[
				3.4805428981781006,
				3.874000310897827,
				2.8284220695495605
			],
			"min":[
				-3.4805428981781006,
				7.526214176323265e-06,
				-1.626700758934021
			],
			"type":"VEC3"
		},
		{
			"bufferView":1,
			"componentType":5126,
			"count":231,
			"type":"VEC3"
		},
		{
			"bufferView":2,
			"componentType":5126,
			"count":231,
			"type":"VEC2"
		},
		{
			"bufferView":3,
			"componentType":5126,
			"count":231,
			"type":"VEC2"
		},
		{
			"bufferView":4,
			"componentType":5123,
			"count":696,
			"type":"SCALAR"
		},
		{
			"bufferView":5,
			"componentType":5126,
			"count":222,
			"max":[
				3.482974052429199,
				3.874000310897827,
				2.8284220695495605
			],
			"min":[
				-3.4805428981781006,
				7.539191756222863e-06,
				-1.6267006397247314
			],
			"type":"VEC3"
		},
		{
			"bufferView":6,
			"componentType":5126,
			"count":222,
			"type":"VEC3"
		},
		{
			"bufferView":7,
			"componentType":5126,
			"count":222,
			"type":"VEC2"
		},
		{
			"bufferView":8,
			"componentType":5123,
			"count":828,
			"type":"SCALAR"
		},
		{
			"bufferView":9,
			"componentType":5126,
			"count":12,
			"max":[
				2.2197506427764893,
				2.208919048309326,
				-0.9930351972579956
			],
			"min":[
				-2.2171013355255127,
				1.3617066144943237,
				-1.3445202112197876
			],
			"type":"VEC3"
		},
		{
			"bufferView":10,
			"componentType":5126,
			"count":12,
			"type":"VEC3"
		},
		{
			"bufferView":11,
			"componentType":5126,
			"count":12,
			"type":"VEC2"
		},
		{
			"bufferView":12,
			"componentType":5123,
			"count":18,
			"type":"SCALAR"
		}
	],
	"bufferViews":[
		{
			"buffer":0,
			"byteLength":2772,
			"byteOffset":0,
			"target":34962
		},
		{
			"buffer":0,
			"byteLength":2772,
			"byteOffset":2772,
			"target":34962
		},
		{
			"buffer":0,
			"byteLength":1848,
			"byteOffset":5544,
			"target":34962
		},
		{
			"buffer":0,
			"byteLength":1848,
			"byteOffset":7392,
			"target":34962
		},
		{
			"buffer":0,
			"byteLength":1392,
			"byteOffset":9240,
			"target":34963
		},
		{
			"buffer":0,
			"byteLength":2664,
			"byteOffset":10632,
			"target":34962
		},
		{
			"buffer":0,
			"byteLength":2664,
			"byteOffset":13296,
			"target":34962
		},
		{
			"buffer":0,
			"byteLength":1776,
			"byteOffset":15960,
			"target":34962
		},
		{
			"buffer":0,
			"byteLength":1656,
			"byteOffset":17736,
			"target":34963
		},
		{
			"buffer":0,
			"byteLength":144,
			"byteOffset":19392,
			"target":34962
		},
		{
			"buffer":0,
			"byteLength":144,
			"byteOffset":19536,
			"target":34962
		},
		{
			"buffer":0,
			"byteLength":96,
			"byteOffset":19680,
			"target":34962
		},
		{
			"buffer":0,
			"byteLength":36,
			"byteOffset":19776,
			"target":34963
		}
	],
	"samplers":[
		{
			"magFilter":9729,
			"minFilter":9987
		}
	],
	"buffers":[
		{
			"byteLength":19812,
			"uri":"cocobay_concave_halfcorner.bin"
		}
	]
}
