{
	"asset":{
		"generator":"Khronos glTF Blender I/O v4.0.44",
		"version":"2.0"
	},
	"extensionsUsed":[
		"KHR_materials_specular",
		"KHR_materials_ior"
	],
	"scene":0,
	"scenes":[
		{
			"name":"Scene",
			"nodes":[
				0,
				1
			]
		}
	],
	"nodes":[
		{
			"mesh":0,
			"name":"cocobay_stepslope_collider"
		},
		{
			"mesh":1,
			"name":"cocobay_stepslope_glb"
		}
	],
	"materials":[
		{
			"emissiveFactor":[
				0.20000000298023224,
				0.20000000298023224,
				0.20000000298023224
			],
			"emissiveTexture":{
				"index":0
			},
			"extensions":{
				"KHR_materials_specular":{
					"specularFactor":0
				},
				"KHR_materials_ior":{
					"ior":1.4500000476837158
				}
			},
			"name":"cocobay_atlas_01",
			"pbrMetallicRoughness":{
				"baseColorTexture":{
					"index":1
				},
				"metallicFactor":0
			}
		},
		{
			"alphaCutoff":0.5,
			"alphaMode":"MASK",
			"emissiveFactor":[
				0.20000000298023224,
				0.20000000298023224,
				0.20000000298023224
			],
			"emissiveTexture":{
				"index":2
			},
			"extensions":{
				"KHR_materials_specular":{
					"specularFactor":0.2545454502105713
				},
				"KHR_materials_ior":{
					"ior":1.4500000476837158
				}
			},
			"name":"cocobay_skybox_02_alpha_clip",
			"pbrMetallicRoughness":{
				"baseColorTexture":{
					"index":3
				},
				"metallicFactor":0,
				"roughnessFactor":0.968181848526001
			}
		},
		{
			"emissiveFactor":[
				0.20000000298023224,
				0.20000000298023224,
				0.20000000298023224
			],
			"emissiveTexture":{
				"index":4
			},
			"extensions":{
				"KHR_materials_specular":{
					"specularFactor":0
				},
				"KHR_materials_ior":{
					"ior":1.4500000476837158
				}
			},
			"name":"cocobay_atlas_02",
			"pbrMetallicRoughness":{
				"baseColorTexture":{
					"index":5
				},
				"metallicFactor":0
			}
		}
	],
	"meshes":[
		{
			"name":"egypt_step_slope_collider",
			"primitives":[
				{
					"attributes":{
						"POSITION":0,
						"NORMAL":1,
						"TEXCOORD_0":2
					},
					"indices":3
				}
			]
		},
		{
			"name":"basic_stepSlope_glb_ID3.001",
			"primitives":[
				{
					"attributes":{
						"POSITION":4,
						"NORMAL":5,
						"TEXCOORD_0":6
					},
					"indices":7,
					"material":0
				},
				{
					"attributes":{
						"POSITION":8,
						"NORMAL":9,
						"TEXCOORD_0":10
					},
					"indices":11,
					"material":1
				},
				{
					"attributes":{
						"POSITION":12,
						"NORMAL":13,
						"TEXCOORD_0":14
					},
					"indices":15,
					"material":2
				}
			]
		}
	],
	"textures":[
		{
			"sampler":0,
			"source":0
		},
		{
			"sampler":0,
			"source":0
		},
		{
			"sampler":0,
			"source":1
		},
		{
			"sampler":0,
			"source":1
		},
		{
			"sampler":0,
			"source":2
		},
		{
			"sampler":0,
			"source":2
		}
	],
	"images":[
		{
			"mimeType":"image/png",
			"name":"cocobay_atlas_01",
			"uri":"textures/cocobay_atlas_01.png"
		},
		{
			"mimeType":"image/png",
			"name":"cocobay_skybox_02",
			"uri":"textures/cocobay_skybox_02.png"
		},
		{
			"mimeType":"image/png",
			"name":"cocobay_atlas_02",
			"uri":"textures/cocobay_atlas_02.png"
		}
	],
	"accessors":[
		{
			"bufferView":0,
			"componentType":5126,
			"count":40,
			"max":[
				1.9999560117721558,
				0.5727090835571289,
				0.4862440824508667
			],
			"min":[
				-1.9999560117721558,
				-7.921920541775762e-08,
				-0.48624399304389954
			],
			"type":"VEC3"
		},
		{
			"bufferView":1,
			"componentType":5126,
			"count":40,
			"type":"VEC3"
		},
		{
			"bufferView":2,
			"componentType":5126,
			"count":40,
			"type":"VEC2"
		},
		{
			"bufferView":3,
			"componentType":5123,
			"count":84,
			"type":"SCALAR"
		},
		{
			"bufferView":4,
			"componentType":5126,
			"count":144,
			"max":[
				1.9999560117721558,
				0.5727090835571289,
				0.4862440824508667
			],
			"min":[
				-1.9999560117721558,
				-7.921920541775762e-08,
				-0.48624399304389954
			],
			"type":"VEC3"
		},
		{
			"bufferView":5,
			"componentType":5126,
			"count":144,
			"type":"VEC3"
		},
		{
			"bufferView":6,
			"componentType":5126,
			"count":144,
			"type":"VEC2"
		},
		{
			"bufferView":7,
			"componentType":5123,
			"count":300,
			"type":"SCALAR"
		},
		{
			"bufferView":8,
			"componentType":5126,
			"count":24,
			"max":[
				0.8780930042266846,
				0.5716235637664795,
				0.48974499106407166
			],
			"min":[
				-0.8672004342079163,
				0.22594386339187622,
				-0.48974499106407166
			],
			"type":"VEC3"
		},
		{
			"bufferView":9,
			"componentType":5126,
			"count":24,
			"type":"VEC3"
		},
		{
			"bufferView":10,
			"componentType":5126,
			"count":24,
			"type":"VEC2"
		},
		{
			"bufferView":11,
			"componentType":5123,
			"count":36,
			"type":"SCALAR"
		},
		{
			"bufferView":12,
			"componentType":5126,
			"count":7,
			"max":[
				1.057157039642334,
				0.5727090835571289,
				0.458100289106369
			],
			"min":[
				-1.057157039642334,
				0.5727089643478394,
				-0.4576105773448944
			],
			"type":"VEC3"
		},
		{
			"bufferView":13,
			"componentType":5126,
			"count":7,
			"type":"VEC3"
		},
		{
			"bufferView":14,
			"componentType":5126,
			"count":7,
			"type":"VEC2"
		},
		{
			"bufferView":15,
			"componentType":5123,
			"count":12,
			"type":"SCALAR"
		}
	],
	"bufferViews":[
		{
			"buffer":0,
			"byteLength":480,
			"byteOffset":0,
			"target":34962
		},
		{
			"buffer":0,
			"byteLength":480,
			"byteOffset":480,
			"target":34962
		},
		{
			"buffer":0,
			"byteLength":320,
			"byteOffset":960,
			"target":34962
		},
		{
			"buffer":0,
			"byteLength":168,
			"byteOffset":1280,
			"target":34963
		},
		{
			"buffer":0,
			"byteLength":1728,
			"byteOffset":1448,
			"target":34962
		},
		{
			"buffer":0,
			"byteLength":1728,
			"byteOffset":3176,
			"target":34962
		},
		{
			"buffer":0,
			"byteLength":1152,
			"byteOffset":4904,
			"target":34962
		},
		{
			"buffer":0,
			"byteLength":600,
			"byteOffset":6056,
			"target":34963
		},
		{
			"buffer":0,
			"byteLength":288,
			"byteOffset":6656,
			"target":34962
		},
		{
			"buffer":0,
			"byteLength":288,
			"byteOffset":6944,
			"target":34962
		},
		{
			"buffer":0,
			"byteLength":192,
			"byteOffset":7232,
			"target":34962
		},
		{
			"buffer":0,
			"byteLength":72,
			"byteOffset":7424,
			"target":34963
		},
		{
			"buffer":0,
			"byteLength":84,
			"byteOffset":7496,
			"target":34962
		},
		{
			"buffer":0,
			"byteLength":84,
			"byteOffset":7580,
			"target":34962
		},
		{
			"buffer":0,
			"byteLength":56,
			"byteOffset":7664,
			"target":34962
		},
		{
			"buffer":0,
			"byteLength":24,
			"byteOffset":7720,
			"target":34963
		}
	],
	"samplers":[
		{
			"magFilter":9729,
			"minFilter":9987
		}
	],
	"buffers":[
		{
			"byteLength":7744,
			"uri":"cocobay_stepslope.bin"
		}
	]
}
