{
	"asset":{
		"generator":"Khronos glTF Blender I/O v4.0.44",
		"version":"2.0"
	},
	"extensionsUsed":[
		"KHR_materials_specular",
		"KHR_materials_ior"
	],
	"scene":0,
	"scenes":[
		{
			"name":"Scene",
			"nodes":[
				4
			]
		}
	],
	"nodes":[
		{
			"mesh":0,
			"name":"cocobay_control_switch_collider"
		},
		{
			"name":"root"
		},
		{
			"name":"switch",
			"translation":[
				0.2752303183078766,
				0.20984706282615662,
				0
			]
		},
		{
			"mesh":1,
			"name":"cocobay_control_switch_glb",
			"skin":0
		},
		{
			"children":[
				0,
				3,
				1,
				2
			],
			"name":"cocobay_control_switch_armature"
		}
	],
	"materials":[
		{
			"emissiveFactor":[
				0.20000000298023224,
				0.20000000298023224,
				0.20000000298023224
			],
			"emissiveTexture":{
				"index":0
			},
			"extensions":{
				"KHR_materials_specular":{
					"specularFactor":0
				},
				"KHR_materials_ior":{
					"ior":1.4500000476837158
				}
			},
			"name":"cocobay_atlas_01",
			"pbrMetallicRoughness":{
				"baseColorTexture":{
					"index":1
				},
				"metallicFactor":0
			}
		}
	],
	"meshes":[
		{
			"name":"Cube.003",
			"primitives":[
				{
					"attributes":{
						"POSITION":0,
						"NORMAL":1,
						"TEXCOORD_0":2
					},
					"indices":3
				}
			]
		},
		{
			"name":"Cube.001",
			"primitives":[
				{
					"attributes":{
						"POSITION":4,
						"NORMAL":5,
						"TEXCOORD_0":6,
						"JOINTS_0":7,
						"WEIGHTS_0":8
					},
					"indices":9,
					"material":0
				}
			]
		}
	],
	"textures":[
		{
			"sampler":0,
			"source":0
		},
		{
			"sampler":0,
			"source":0
		}
	],
	"images":[
		{
			"mimeType":"image/png",
			"name":"cocobay_atlas_01",
			"uri":"textures/cocobay_atlas_01.png"
		}
	],
	"skins":[
		{
			"inverseBindMatrices":10,
			"joints":[
				1,
				2
			],
			"name":"cocobay_control_switch_armature"
		}
	],
	"accessors":[
		{
			"bufferView":0,
			"componentType":5126,
			"count":16,
			"max":[
				0.761581301689148,
				0.3068239092826843,
				0.40785154700279236
			],
			"min":[
				-0.7615810632705688,
				0,
				-0.40785154700279236
			],
			"type":"VEC3"
		},
		{
			"bufferView":1,
			"componentType":5126,
			"count":16,
			"type":"VEC3"
		},
		{
			"bufferView":2,
			"componentType":5126,
			"count":16,
			"type":"VEC2"
		},
		{
			"bufferView":3,
			"componentType":5123,
			"count":36,
			"type":"SCALAR"
		},
		{
			"bufferView":4,
			"componentType":5126,
			"count":505,
			"max":[
				0.761581301689148,
				0.36099278926849365,
				0.40785154700279236
			],
			"min":[
				-0.7615810632705688,
				0,
				-0.40785154700279236
			],
			"type":"VEC3"
		},
		{
			"bufferView":5,
			"componentType":5126,
			"count":505,
			"type":"VEC3"
		},
		{
			"bufferView":6,
			"componentType":5126,
			"count":505,
			"type":"VEC2"
		},
		{
			"bufferView":7,
			"componentType":5121,
			"count":505,
			"type":"VEC4"
		},
		{
			"bufferView":8,
			"componentType":5126,
			"count":505,
			"type":"VEC4"
		},
		{
			"bufferView":9,
			"componentType":5123,
			"count":978,
			"type":"SCALAR"
		},
		{
			"bufferView":10,
			"componentType":5126,
			"count":2,
			"type":"MAT4"
		}
	],
	"bufferViews":[
		{
			"buffer":0,
			"byteLength":192,
			"byteOffset":0,
			"target":34962
		},
		{
			"buffer":0,
			"byteLength":192,
			"byteOffset":192,
			"target":34962
		},
		{
			"buffer":0,
			"byteLength":128,
			"byteOffset":384,
			"target":34962
		},
		{
			"buffer":0,
			"byteLength":72,
			"byteOffset":512,
			"target":34963
		},
		{
			"buffer":0,
			"byteLength":6060,
			"byteOffset":584,
			"target":34962
		},
		{
			"buffer":0,
			"byteLength":6060,
			"byteOffset":6644,
			"target":34962
		},
		{
			"buffer":0,
			"byteLength":4040,
			"byteOffset":12704,
			"target":34962
		},
		{
			"buffer":0,
			"byteLength":2020,
			"byteOffset":16744,
			"target":34962
		},
		{
			"buffer":0,
			"byteLength":8080,
			"byteOffset":18764,
			"target":34962
		},
		{
			"buffer":0,
			"byteLength":1956,
			"byteOffset":26844,
			"target":34963
		},
		{
			"buffer":0,
			"byteLength":128,
			"byteOffset":28800
		}
	],
	"samplers":[
		{
			"magFilter":9729,
			"minFilter":9987
		}
	],
	"buffers":[
		{
			"byteLength":28928,
			"uri":"cocobay_control_switch.bin"
		}
	]
}
