{
	"asset":{
		"generator":"Khronos glTF Blender I/O v4.0.44",
		"version":"2.0"
	},
	"extensionsUsed":[
		"KHR_materials_specular",
		"KHR_materials_ior"
	],
	"scene":0,
	"scenes":[
		{
			"name":"Scene",
			"nodes":[
				0,
				1
			]
		}
	],
	"nodes":[
		{
			"mesh":0,
			"name":"cocobay_env_coco_glb"
		},
		{
			"mesh":1,
			"name":"cocobay_env_coco_collider"
		}
	],
	"materials":[
		{
			"emissiveFactor":[
				0.20000000298023224,
				0.20000000298023224,
				0.20000000298023224
			],
			"emissiveTexture":{
				"index":0
			},
			"extensions":{
				"KHR_materials_specular":{
					"specularFactor":0
				},
				"KHR_materials_ior":{
					"ior":1.4500000476837158
				}
			},
			"name":"cocobay_atlas_01",
			"pbrMetallicRoughness":{
				"baseColorTexture":{
					"index":1
				},
				"metallicFactor":0
			}
		}
	],
	"meshes":[
		{
			"name":"Sphere.003",
			"primitives":[
				{
					"attributes":{
						"POSITION":0,
						"NORMAL":1,
						"TEXCOORD_0":2
					},
					"indices":3,
					"material":0
				}
			]
		},
		{
			"name":"Sphere.004",
			"primitives":[
				{
					"attributes":{
						"POSITION":4,
						"NORMAL":5,
						"TEXCOORD_0":6
					},
					"indices":7
				}
			]
		}
	],
	"textures":[
		{
			"sampler":0,
			"source":0
		},
		{
			"sampler":0,
			"source":0
		}
	],
	"images":[
		{
			"mimeType":"image/png",
			"name":"cocobay_atlas_01",
			"uri":"textures/cocobay_atlas_01.png"
		}
	],
	"accessors":[
		{
			"bufferView":0,
			"componentType":5126,
			"count":3372,
			"max":[
				2.699828863143921,
				5.282280445098877,
				2.3151915073394775
			],
			"min":[
				-2.406325578689575,
				0.0034360885620117188,
				-1.6179068088531494
			],
			"type":"VEC3"
		},
		{
			"bufferView":1,
			"componentType":5126,
			"count":3372,
			"type":"VEC3"
		},
		{
			"bufferView":2,
			"componentType":5126,
			"count":3372,
			"type":"VEC2"
		},
		{
			"bufferView":3,
			"componentType":5123,
			"count":6798,
			"type":"SCALAR"
		},
		{
			"bufferView":4,
			"componentType":5126,
			"count":1043,
			"max":[
				2.7071585655212402,
				5.282280445098877,
				2.3151915073394775
			],
			"min":[
				-2.403080940246582,
				0.0034360885620117188,
				-1.6179068088531494
			],
			"type":"VEC3"
		},
		{
			"bufferView":5,
			"componentType":5126,
			"count":1043,
			"type":"VEC3"
		},
		{
			"bufferView":6,
			"componentType":5126,
			"count":1043,
			"type":"VEC2"
		},
		{
			"bufferView":7,
			"componentType":5123,
			"count":1281,
			"type":"SCALAR"
		}
	],
	"bufferViews":[
		{
			"buffer":0,
			"byteLength":40464,
			"byteOffset":0,
			"target":34962
		},
		{
			"buffer":0,
			"byteLength":40464,
			"byteOffset":40464,
			"target":34962
		},
		{
			"buffer":0,
			"byteLength":26976,
			"byteOffset":80928,
			"target":34962
		},
		{
			"buffer":0,
			"byteLength":13596,
			"byteOffset":107904,
			"target":34963
		},
		{
			"buffer":0,
			"byteLength":12516,
			"byteOffset":121500,
			"target":34962
		},
		{
			"buffer":0,
			"byteLength":12516,
			"byteOffset":134016,
			"target":34962
		},
		{
			"buffer":0,
			"byteLength":8344,
			"byteOffset":146532,
			"target":34962
		},
		{
			"buffer":0,
			"byteLength":2562,
			"byteOffset":154876,
			"target":34963
		}
	],
	"samplers":[
		{
			"magFilter":9729,
			"minFilter":9987
		}
	],
	"buffers":[
		{
			"byteLength":157440,
			"uri":"cocobay_env_coco.bin"
		}
	]
}
