{
	"asset":{
		"generator":"Khronos glTF Blender I/O v4.0.44",
		"version":"2.0"
	},
	"extensionsUsed":[
		"KHR_materials_specular",
		"KHR_materials_ior"
	],
	"scene":0,
	"scenes":[
		{
			"name":"Scene",
			"nodes":[
				0,
				1
			]
		}
	],
	"nodes":[
		{
			"mesh":0,
			"name":"cocobay_env_cap_01_glb"
		},
		{
			"mesh":1,
			"name":"cocobay_env_cap_01_collider"
		}
	],
	"materials":[
		{
			"emissiveFactor":[
				0.20000000298023224,
				0.20000000298023224,
				0.20000000298023224
			],
			"emissiveTexture":{
				"index":0
			},
			"extensions":{
				"KHR_materials_specular":{
					"specularFactor":0
				},
				"KHR_materials_ior":{
					"ior":1.4500000476837158
				}
			},
			"name":"cocobay_atlas_01",
			"pbrMetallicRoughness":{
				"baseColorTexture":{
					"index":1
				},
				"metallicFactor":0
			}
		}
	],
	"meshes":[
		{
			"name":"Cylinder.007",
			"primitives":[
				{
					"attributes":{
						"POSITION":0,
						"NORMAL":1,
						"TEXCOORD_0":2
					},
					"indices":3,
					"material":0
				}
			]
		},
		{
			"name":"Cylinder",
			"primitives":[
				{
					"attributes":{
						"POSITION":4,
						"NORMAL":5,
						"TEXCOORD_0":6
					},
					"indices":7
				}
			]
		}
	],
	"textures":[
		{
			"sampler":0,
			"source":0
		},
		{
			"sampler":0,
			"source":0
		}
	],
	"images":[
		{
			"mimeType":"image/png",
			"name":"cocobay_atlas_01",
			"uri":"textures/cocobay_atlas_01.png"
		}
	],
	"accessors":[
		{
			"bufferView":0,
			"componentType":5126,
			"count":403,
			"max":[
				0.8059960007667542,
				1.516709327697754,
				1.7219496965408325
			],
			"min":[
				-0.8059960007667542,
				-0.0025163309182971716,
				-0.8369613885879517
			],
			"type":"VEC3"
		},
		{
			"bufferView":1,
			"componentType":5126,
			"count":403,
			"type":"VEC3"
		},
		{
			"bufferView":2,
			"componentType":5126,
			"count":403,
			"type":"VEC2"
		},
		{
			"bufferView":3,
			"componentType":5123,
			"count":876,
			"type":"SCALAR"
		},
		{
			"bufferView":4,
			"componentType":5126,
			"count":190,
			"max":[
				0.8475050330162048,
				1.4854832887649536,
				1.7329574823379517
			],
			"min":[
				-0.8475050330162048,
				0,
				-0.8475050330162048
			],
			"type":"VEC3"
		},
		{
			"bufferView":5,
			"componentType":5126,
			"count":190,
			"type":"VEC3"
		},
		{
			"bufferView":6,
			"componentType":5126,
			"count":190,
			"type":"VEC2"
		},
		{
			"bufferView":7,
			"componentType":5123,
			"count":258,
			"type":"SCALAR"
		}
	],
	"bufferViews":[
		{
			"buffer":0,
			"byteLength":4836,
			"byteOffset":0,
			"target":34962
		},
		{
			"buffer":0,
			"byteLength":4836,
			"byteOffset":4836,
			"target":34962
		},
		{
			"buffer":0,
			"byteLength":3224,
			"byteOffset":9672,
			"target":34962
		},
		{
			"buffer":0,
			"byteLength":1752,
			"byteOffset":12896,
			"target":34963
		},
		{
			"buffer":0,
			"byteLength":2280,
			"byteOffset":14648,
			"target":34962
		},
		{
			"buffer":0,
			"byteLength":2280,
			"byteOffset":16928,
			"target":34962
		},
		{
			"buffer":0,
			"byteLength":1520,
			"byteOffset":19208,
			"target":34962
		},
		{
			"buffer":0,
			"byteLength":516,
			"byteOffset":20728,
			"target":34963
		}
	],
	"samplers":[
		{
			"magFilter":9729,
			"minFilter":9987
		}
	],
	"buffers":[
		{
			"byteLength":21244,
			"uri":"cocobay_env_cap_01.bin"
		}
	]
}
