{
	"asset":{
		"generator":"Khronos glTF Blender I/O v4.0.44",
		"version":"2.0"
	},
	"extensionsUsed":[
		"KHR_materials_specular",
		"KHR_materials_ior"
	],
	"scene":0,
	"scenes":[
		{
			"name":"Scene",
			"nodes":[
				0,
				1
			]
		}
	],
	"nodes":[
		{
			"mesh":0,
			"name":"cocobay_env_coco_drink_glb"
		},
		{
			"mesh":1,
			"name":"cocobay_env_coco_drink_collider"
		}
	],
	"materials":[
		{
			"emissiveFactor":[
				0.20000000298023224,
				0.20000000298023224,
				0.20000000298023224
			],
			"emissiveTexture":{
				"index":0
			},
			"extensions":{
				"KHR_materials_specular":{
					"specularFactor":0
				},
				"KHR_materials_ior":{
					"ior":1.4500000476837158
				}
			},
			"name":"cocobay_atlas_01",
			"pbrMetallicRoughness":{
				"baseColorTexture":{
					"index":1
				},
				"metallicFactor":0
			}
		}
	],
	"meshes":[
		{
			"name":"Sphere.011",
			"primitives":[
				{
					"attributes":{
						"POSITION":0,
						"NORMAL":1,
						"TEXCOORD_0":2
					},
					"indices":3,
					"material":0
				}
			]
		},
		{
			"name":"Sphere.010",
			"primitives":[
				{
					"attributes":{
						"POSITION":4,
						"NORMAL":5,
						"TEXCOORD_0":6
					},
					"indices":7,
					"material":0
				}
			]
		}
	],
	"textures":[
		{
			"sampler":0,
			"source":0
		},
		{
			"sampler":0,
			"source":0
		}
	],
	"images":[
		{
			"mimeType":"image/png",
			"name":"cocobay_atlas_01",
			"uri":"textures/cocobay_atlas_01.png"
		}
	],
	"accessors":[
		{
			"bufferView":0,
			"componentType":5126,
			"count":794,
			"max":[
				1.5944645404815674,
				4.034295082092285,
				1.5934706926345825
			],
			"min":[
				-1.59316086769104,
				0.025301571935415268,
				-1.5934704542160034
			],
			"type":"VEC3"
		},
		{
			"bufferView":1,
			"componentType":5126,
			"count":794,
			"type":"VEC3"
		},
		{
			"bufferView":2,
			"componentType":5126,
			"count":794,
			"type":"VEC2"
		},
		{
			"bufferView":3,
			"componentType":5123,
			"count":2034,
			"type":"SCALAR"
		},
		{
			"bufferView":4,
			"componentType":5126,
			"count":315,
			"max":[
				1.618902325630188,
				4.07773494720459,
				1.6179070472717285
			],
			"min":[
				-1.617597222328186,
				3.2186508178710938e-06,
				-1.6179068088531494
			],
			"type":"VEC3"
		},
		{
			"bufferView":5,
			"componentType":5126,
			"count":315,
			"type":"VEC3"
		},
		{
			"bufferView":6,
			"componentType":5126,
			"count":315,
			"type":"VEC2"
		},
		{
			"bufferView":7,
			"componentType":5123,
			"count":810,
			"type":"SCALAR"
		}
	],
	"bufferViews":[
		{
			"buffer":0,
			"byteLength":9528,
			"byteOffset":0,
			"target":34962
		},
		{
			"buffer":0,
			"byteLength":9528,
			"byteOffset":9528,
			"target":34962
		},
		{
			"buffer":0,
			"byteLength":6352,
			"byteOffset":19056,
			"target":34962
		},
		{
			"buffer":0,
			"byteLength":4068,
			"byteOffset":25408,
			"target":34963
		},
		{
			"buffer":0,
			"byteLength":3780,
			"byteOffset":29476,
			"target":34962
		},
		{
			"buffer":0,
			"byteLength":3780,
			"byteOffset":33256,
			"target":34962
		},
		{
			"buffer":0,
			"byteLength":2520,
			"byteOffset":37036,
			"target":34962
		},
		{
			"buffer":0,
			"byteLength":1620,
			"byteOffset":39556,
			"target":34963
		}
	],
	"samplers":[
		{
			"magFilter":9729,
			"minFilter":9987
		}
	],
	"buffers":[
		{
			"byteLength":41176,
			"uri":"cocobay_env_coco_drink.bin"
		}
	]
}
