{
	"asset":{
		"generator":"Khronos glTF Blender I/O v4.0.44",
		"version":"2.0"
	},
	"extensionsUsed":[
		"KHR_materials_specular",
		"KHR_materials_ior"
	],
	"scene":0,
	"scenes":[
		{
			"name":"Scene",
			"nodes":[
				0,
				1
			]
		}
	],
	"nodes":[
		{
			"mesh":0,
			"name":"cocobay_env_skateboard_glb"
		},
		{
			"mesh":1,
			"name":"cocobay_env_skateboard_collider"
		}
	],
	"materials":[
		{
			"emissiveFactor":[
				0.20000000298023224,
				0.20000000298023224,
				0.20000000298023224
			],
			"emissiveTexture":{
				"index":0
			},
			"extensions":{
				"KHR_materials_specular":{
					"specularFactor":0
				},
				"KHR_materials_ior":{
					"ior":1.4500000476837158
				}
			},
			"name":"cocobay_atlas_01",
			"pbrMetallicRoughness":{
				"baseColorTexture":{
					"index":1
				},
				"metallicFactor":0
			}
		},
		{
			"emissiveFactor":[
				0.20000000298023224,
				0.20000000298023224,
				0.20000000298023224
			],
			"emissiveTexture":{
				"index":2
			},
			"extensions":{
				"KHR_materials_specular":{
					"specularFactor":0
				},
				"KHR_materials_ior":{
					"ior":1.4500000476837158
				}
			},
			"name":"cocobay_atlas_02",
			"pbrMetallicRoughness":{
				"baseColorTexture":{
					"index":3
				},
				"metallicFactor":0
			}
		}
	],
	"meshes":[
		{
			"name":"Plane.003",
			"primitives":[
				{
					"attributes":{
						"POSITION":0,
						"NORMAL":1,
						"TEXCOORD_0":2
					},
					"indices":3,
					"material":0
				},
				{
					"attributes":{
						"POSITION":4,
						"NORMAL":5,
						"TEXCOORD_0":6
					},
					"indices":7,
					"material":1
				}
			]
		},
		{
			"name":"Plane.004",
			"primitives":[
				{
					"attributes":{
						"POSITION":8,
						"NORMAL":9,
						"TEXCOORD_0":10
					},
					"indices":11
				}
			]
		}
	],
	"textures":[
		{
			"sampler":0,
			"source":0
		},
		{
			"sampler":0,
			"source":0
		},
		{
			"sampler":0,
			"source":1
		},
		{
			"sampler":0,
			"source":1
		}
	],
	"images":[
		{
			"mimeType":"image/png",
			"name":"cocobay_atlas_01",
			"uri":"textures/cocobay_atlas_01.png"
		},
		{
			"mimeType":"image/png",
			"name":"cocobay_atlas_02",
			"uri":"textures/cocobay_atlas_02.png"
		}
	],
	"accessors":[
		{
			"bufferView":0,
			"componentType":5126,
			"count":1124,
			"max":[
				0.6034559607505798,
				0.5459868907928467,
				1.7924087047576904
			],
			"min":[
				-0.6034559607505798,
				-0.003235042095184326,
				-1.79240882396698
			],
			"type":"VEC3"
		},
		{
			"bufferView":1,
			"componentType":5126,
			"count":1124,
			"type":"VEC3"
		},
		{
			"bufferView":2,
			"componentType":5126,
			"count":1124,
			"type":"VEC2"
		},
		{
			"bufferView":3,
			"componentType":5123,
			"count":1800,
			"type":"SCALAR"
		},
		{
			"bufferView":4,
			"componentType":5126,
			"count":56,
			"max":[
				0.1377401351928711,
				0.5459868907928467,
				1.783301591873169
			],
			"min":[
				-0.5324379205703735,
				0.3214862644672394,
				-1.783301591873169
			],
			"type":"VEC3"
		},
		{
			"bufferView":5,
			"componentType":5126,
			"count":56,
			"type":"VEC3"
		},
		{
			"bufferView":6,
			"componentType":5126,
			"count":56,
			"type":"VEC2"
		},
		{
			"bufferView":7,
			"componentType":5123,
			"count":84,
			"type":"SCALAR"
		},
		{
			"bufferView":8,
			"componentType":5126,
			"count":216,
			"max":[
				0.568988561630249,
				0.5459868907928467,
				1.783301591873169
			],
			"min":[
				-0.568988561630249,
				-0.003235042095184326,
				-1.783301591873169
			],
			"type":"VEC3"
		},
		{
			"bufferView":9,
			"componentType":5126,
			"count":216,
			"type":"VEC3"
		},
		{
			"bufferView":10,
			"componentType":5126,
			"count":216,
			"type":"VEC2"
		},
		{
			"bufferView":11,
			"componentType":5123,
			"count":348,
			"type":"SCALAR"
		}
	],
	"bufferViews":[
		{
			"buffer":0,
			"byteLength":13488,
			"byteOffset":0,
			"target":34962
		},
		{
			"buffer":0,
			"byteLength":13488,
			"byteOffset":13488,
			"target":34962
		},
		{
			"buffer":0,
			"byteLength":8992,
			"byteOffset":26976,
			"target":34962
		},
		{
			"buffer":0,
			"byteLength":3600,
			"byteOffset":35968,
			"target":34963
		},
		{
			"buffer":0,
			"byteLength":672,
			"byteOffset":39568,
			"target":34962
		},
		{
			"buffer":0,
			"byteLength":672,
			"byteOffset":40240,
			"target":34962
		},
		{
			"buffer":0,
			"byteLength":448,
			"byteOffset":40912,
			"target":34962
		},
		{
			"buffer":0,
			"byteLength":168,
			"byteOffset":41360,
			"target":34963
		},
		{
			"buffer":0,
			"byteLength":2592,
			"byteOffset":41528,
			"target":34962
		},
		{
			"buffer":0,
			"byteLength":2592,
			"byteOffset":44120,
			"target":34962
		},
		{
			"buffer":0,
			"byteLength":1728,
			"byteOffset":46712,
			"target":34962
		},
		{
			"buffer":0,
			"byteLength":696,
			"byteOffset":48440,
			"target":34963
		}
	],
	"samplers":[
		{
			"magFilter":9729,
			"minFilter":9987
		}
	],
	"buffers":[
		{
			"byteLength":49136,
			"uri":"cocobay_env_skateboard.bin"
		}
	]
}
