{
    "asset" : {
        "generator" : "Khronos glTF Blender I/O v1.7.33",
        "version" : "2.0"
    },
    "scene" : 1,
    "scenes" : [
        {
            "name" : "Ball"
        },
        {
            "name" : "Parts",
            "nodes" : [
                0,
                1,
                3
            ]
        }
    ],
    "nodes" : [
        {
            "mesh" : 0,
            "name" : "Concave_Curve_corner_glb"
        },
        {
            "mesh" : 1,
            "name" : "Concave_Curve_corner_collider"
        },
        {
            "name" : "Bone",
            "rotation" : [
                0,
                0,
                1,
                0
            ],
            "scale" : [
                0,
                0,
                0
            ]
        },
        {
            "children" : [
                2
            ],
            "name" : "LandMine_Armature_glb"
        }
    ],
    "animations" : [
        {
            "channels" : [
                {
                    "sampler" : 0,
                    "target" : {
                        "node" : 2,
                        "path" : "translation"
                    }
                },
                {
                    "sampler" : 1,
                    "target" : {
                        "node" : 2,
                        "path" : "rotation"
                    }
                },
                {
                    "sampler" : 2,
                    "target" : {
                        "node" : 2,
                        "path" : "scale"
                    }
                }
            ],
            "name" : "action",
            "samplers" : [
                {
                    "input" : 12,
                    "interpolation" : "LINEAR",
                    "output" : 13
                },
                {
                    "input" : 12,
                    "interpolation" : "LINEAR",
                    "output" : 14
                },
                {
                    "input" : 12,
                    "interpolation" : "LINEAR",
                    "output" : 15
                }
            ]
        },
        {
            "channels" : [
                {
                    "sampler" : 0,
                    "target" : {
                        "node" : 2,
                        "path" : "translation"
                    }
                },
                {
                    "sampler" : 1,
                    "target" : {
                        "node" : 2,
                        "path" : "rotation"
                    }
                },
                {
                    "sampler" : 2,
                    "target" : {
                        "node" : 2,
                        "path" : "scale"
                    }
                }
            ],
            "name" : "idle",
            "samplers" : [
                {
                    "input" : 16,
                    "interpolation" : "LINEAR",
                    "output" : 17
                },
                {
                    "input" : 16,
                    "interpolation" : "LINEAR",
                    "output" : 18
                },
                {
                    "input" : 16,
                    "interpolation" : "LINEAR",
                    "output" : 19
                }
            ]
        }
    ],
    "materials" : [
        {
            "doubleSided" : true,
            "name" : "Wood.001",
            "pbrMetallicRoughness" : {
                "baseColorTexture" : {
                    "index" : 0
                },
                "metallicFactor" : 0,
                "roughnessFactor" : 0.9318181872367859
            }
        },
        {
            "doubleSided" : true,
            "name" : "Grass",
            "pbrMetallicRoughness" : {
                "baseColorTexture" : {
                    "index" : 1
                },
                "metallicFactor" : 0,
                "roughnessFactor" : 0.7227272987365723
            }
        }
    ],
    "meshes" : [
        {
            "name" : "ID3.102",
            "primitives" : [
                {
                    "attributes" : {
                        "POSITION" : 0,
                        "NORMAL" : 1,
                        "TEXCOORD_0" : 2
                    },
                    "indices" : 3,
                    "material" : 0
                },
                {
                    "attributes" : {
                        "POSITION" : 4,
                        "NORMAL" : 5,
                        "TEXCOORD_0" : 6
                    },
                    "indices" : 7,
                    "material" : 1
                }
            ]
        },
        {
            "name" : "ID3.130",
            "primitives" : [
                {
                    "attributes" : {
                        "POSITION" : 8,
                        "NORMAL" : 9,
                        "TEXCOORD_0" : 10
                    },
                    "indices" : 11
                }
            ]
        }
    ],
    "textures" : [
        {
            "sampler" : 0,
            "source" : 0
        },
        {
            "sampler" : 0,
            "source" : 1
        }
    ],
    "images" : [
        {
            "mimeType" : "image/jpeg",
            "name" : "planksDark_BC",
            "uri" : "textures/planksDark_BC.jpg"
        },
        {
            "mimeType" : "image/jpeg",
            "name" : "Grass",
            "uri" : "textures/Grass.jpg"
        }
    ],
    "accessors" : [
        {
            "bufferView" : 0,
            "componentType" : 5126,
            "count" : 174,
            "max" : [
                3.9262027740478516,
                0.75,
                4.2936577796936035
            ],
            "min" : [
                -5.368658065795898,
                0.038036465644836426,
                -5.0012030601501465
            ],
            "type" : "VEC3"
        },
        {
            "bufferView" : 1,
            "componentType" : 5126,
            "count" : 174,
            "type" : "VEC3"
        },
        {
            "bufferView" : 2,
            "componentType" : 5126,
            "count" : 174,
            "type" : "VEC2"
        },
        {
            "bufferView" : 3,
            "componentType" : 5123,
            "count" : 180,
            "type" : "SCALAR"
        },
        {
            "bufferView" : 4,
            "componentType" : 5126,
            "count" : 490,
            "max" : [
                3.6954102516174316,
                4.5779829025268555,
                4.292599678039551
            ],
            "min" : [
                -5.367599964141846,
                0.5000000596046448,
                -4.770410537719727
            ],
            "type" : "VEC3"
        },
        {
            "bufferView" : 5,
            "componentType" : 5126,
            "count" : 490,
            "type" : "VEC3"
        },
        {
            "bufferView" : 6,
            "componentType" : 5126,
            "count" : 490,
            "type" : "VEC2"
        },
        {
            "bufferView" : 7,
            "componentType" : 5123,
            "count" : 504,
            "type" : "SCALAR"
        },
        {
            "bufferView" : 8,
            "componentType" : 5126,
            "count" : 532,
            "max" : [
                3.6954102516174316,
                4.5779829025268555,
                4.2936577796936035
            ],
            "min" : [
                -5.368658065795898,
                0.06790876388549805,
                -4.770410537719727
            ],
            "type" : "VEC3"
        },
        {
            "bufferView" : 9,
            "componentType" : 5126,
            "count" : 532,
            "type" : "VEC3"
        },
        {
            "bufferView" : 10,
            "componentType" : 5126,
            "count" : 532,
            "type" : "VEC2"
        },
        {
            "bufferView" : 11,
            "componentType" : 5123,
            "count" : 546,
            "type" : "SCALAR"
        },
        {
            "bufferView" : 12,
            "componentType" : 5126,
            "count" : 2,
            "max" : [
                0.3333333333333333
            ],
            "min" : [
                0.016666666666666666
            ],
            "type" : "SCALAR"
        },
        {
            "bufferView" : 13,
            "componentType" : 5126,
            "count" : 2,
            "type" : "VEC3"
        },
        {
            "bufferView" : 14,
            "componentType" : 5126,
            "count" : 2,
            "type" : "VEC4"
        },
        {
            "bufferView" : 15,
            "componentType" : 5126,
            "count" : 2,
            "type" : "VEC3"
        },
        {
            "bufferView" : 16,
            "componentType" : 5126,
            "count" : 1,
            "max" : [
                0.016666666666666666
            ],
            "min" : [
                0.016666666666666666
            ],
            "type" : "SCALAR"
        },
        {
            "bufferView" : 17,
            "componentType" : 5126,
            "count" : 1,
            "type" : "VEC3"
        },
        {
            "bufferView" : 18,
            "componentType" : 5126,
            "count" : 1,
            "type" : "VEC4"
        },
        {
            "bufferView" : 19,
            "componentType" : 5126,
            "count" : 1,
            "type" : "VEC3"
        }
    ],
    "bufferViews" : [
        {
            "buffer" : 0,
            "byteLength" : 2088,
            "byteOffset" : 0
        },
        {
            "buffer" : 0,
            "byteLength" : 2088,
            "byteOffset" : 2088
        },
        {
            "buffer" : 0,
            "byteLength" : 1392,
            "byteOffset" : 4176
        },
        {
            "buffer" : 0,
            "byteLength" : 360,
            "byteOffset" : 5568
        },
        {
            "buffer" : 0,
            "byteLength" : 5880,
            "byteOffset" : 5928
        },
        {
            "buffer" : 0,
            "byteLength" : 5880,
            "byteOffset" : 11808
        },
        {
            "buffer" : 0,
            "byteLength" : 3920,
            "byteOffset" : 17688
        },
        {
            "buffer" : 0,
            "byteLength" : 1008,
            "byteOffset" : 21608
        },
        {
            "buffer" : 0,
            "byteLength" : 6384,
            "byteOffset" : 22616
        },
        {
            "buffer" : 0,
            "byteLength" : 6384,
            "byteOffset" : 29000
        },
        {
            "buffer" : 0,
            "byteLength" : 4256,
            "byteOffset" : 35384
        },
        {
            "buffer" : 0,
            "byteLength" : 1092,
            "byteOffset" : 39640
        },
        {
            "buffer" : 0,
            "byteLength" : 8,
            "byteOffset" : 40732
        },
        {
            "buffer" : 0,
            "byteLength" : 24,
            "byteOffset" : 40740
        },
        {
            "buffer" : 0,
            "byteLength" : 32,
            "byteOffset" : 40764
        },
        {
            "buffer" : 0,
            "byteLength" : 24,
            "byteOffset" : 40796
        },
        {
            "buffer" : 0,
            "byteLength" : 4,
            "byteOffset" : 40820
        },
        {
            "buffer" : 0,
            "byteLength" : 12,
            "byteOffset" : 40824
        },
        {
            "buffer" : 0,
            "byteLength" : 16,
            "byteOffset" : 40836
        },
        {
            "buffer" : 0,
            "byteLength" : 12,
            "byteOffset" : 40852
        }
    ],
    "samplers" : [
        {
            "magFilter" : 9729,
            "minFilter" : 9987
        }
    ],
    "buffers" : [
        {
            "byteLength" : 40864,
            "uri" : "Concave_Curve_corner.bin"
        }
    ]
}
   