{
    "asset" : {
        "generator" : "Khronos glTF Blender I/O v1.7.33",
        "version" : "2.0"
    },
    "scene" : 1,
    "scenes" : [
        {
            "name" : "Ball"
        },
        {
            "name" : "Parts",
            "nodes" : [
                0,
                1
            ]
        }
    ],
    "nodes" : [
        {
            "mesh" : 0,
            "name" : "CurveLowPloy_glb"
        },
        {
            "mesh" : 1,
            "name" : "CurveLowPloy_collider"
        }
    ],
    "materials" : [
        {
            "doubleSided" : true,
            "name" : "Grass",
            "pbrMetallicRoughness" : {
                "baseColorTexture" : {
                    "index" : 0
                },
                "metallicFactor" : 0,
                "roughnessFactor" : 0.7227272987365723
            }
        }
    ],
    "meshes" : [
        {
            "name" : "BezierCurve.003",
            "primitives" : [
                {
                    "attributes" : {
                        "POSITION" : 0,
                        "NORMAL" : 1,
                        "TEXCOORD_0" : 2
                    },
                    "indices" : 3,
                    "material" : 0
                }
            ]
        },
        {
            "name" : "BezierCurve.008",
            "primitives" : [
                {
                    "attributes" : {
                        "POSITION" : 4,
                        "NORMAL" : 5,
                        "TEXCOORD_0" : 6
                    },
                    "indices" : 3
                }
            ]
        }
    ],
    "textures" : [
        {
            "sampler" : 0,
            "source" : 0
        }
    ],
    "images" : [
        {
            "mimeType" : "image/jpeg",
            "name" : "Grass",
            "uri" : "textures/Grass.jpg"
        }
    ],
    "accessors" : [
        {
            "bufferView" : 0,
            "componentType" : 5126,
            "count" : 264,
            "max" : [
                4.681930065155029,
                3.8846778869628906,
                2
            ],
            "min" : [
                -5.898624658584595e-05,
                -0.016218334436416626,
                -12
            ],
            "type" : "VEC3"
        },
        {
            "bufferView" : 1,
            "componentType" : 5126,
            "count" : 264,
            "type" : "VEC3"
        },
        {
            "bufferView" : 2,
            "componentType" : 5126,
            "count" : 264,
            "type" : "VEC2"
        },
        {
            "bufferView" : 3,
            "componentType" : 5123,
            "count" : 396,
            "type" : "SCALAR"
        },
        {
            "bufferView" : 4,
            "componentType" : 5126,
            "count" : 264,
            "max" : [
                4.681930065155029,
                3.8846778869628906,
                2
            ],
            "min" : [
                -5.898624658584595e-05,
                -0.016218334436416626,
                -12
            ],
            "type" : "VEC3"
        },
        {
            "bufferView" : 5,
            "componentType" : 5126,
            "count" : 264,
            "type" : "VEC3"
        },
        {
            "bufferView" : 6,
            "componentType" : 5126,
            "count" : 264,
            "type" : "VEC2"
        }
    ],
    "bufferViews" : [
        {
            "buffer" : 0,
            "byteLength" : 3168,
            "byteOffset" : 0
        },
        {
            "buffer" : 0,
            "byteLength" : 3168,
            "byteOffset" : 3168
        },
        {
            "buffer" : 0,
            "byteLength" : 2112,
            "byteOffset" : 6336
        },
        {
            "buffer" : 0,
            "byteLength" : 792,
            "byteOffset" : 8448
        },
        {
            "buffer" : 0,
            "byteLength" : 3168,
            "byteOffset" : 9240
        },
        {
            "buffer" : 0,
            "byteLength" : 3168,
            "byteOffset" : 12408
        },
        {
            "buffer" : 0,
            "byteLength" : 2112,
            "byteOffset" : 15576
        }
    ],
    "samplers" : [
        {
            "magFilter" : 9729,
            "minFilter" : 9987
        }
    ],
    "buffers" : [
        {
            "byteLength" : 17688,
            "uri" : "CurveLowPloy.bin"
        }
    ]
}
   