{
    "asset" : {
        "generator" : "Khronos glTF Blender I/O v1.7.33",
        "version" : "2.0"
    },
    "scene" : 1,
    "scenes" : [
        {
            "name" : "Ball"
        },
        {
            "name" : "Parts",
            "nodes" : [
                0,
                1
            ]
        }
    ],
    "nodes" : [
        {
            "mesh" : 0,
            "name" : "Curve_collider"
        },
        {
            "mesh" : 1,
            "name" : "Curve_glb"
        }
    ],
    "materials" : [
        {
            "doubleSided" : true,
            "name" : "Grass",
            "pbrMetallicRoughness" : {
                "baseColorTexture" : {
                    "index" : 0
                },
                "metallicFactor" : 0,
                "roughnessFactor" : 0.7227272987365723
            }
        }
    ],
    "meshes" : [
        {
            "name" : "BezierCurve.009",
            "primitives" : [
                {
                    "attributes" : {
                        "POSITION" : 0,
                        "NORMAL" : 1,
                        "TEXCOORD_0" : 2
                    },
                    "indices" : 3
                }
            ]
        },
        {
            "name" : "BezierCurve.010",
            "primitives" : [
                {
                    "attributes" : {
                        "POSITION" : 4,
                        "NORMAL" : 5,
                        "TEXCOORD_0" : 6
                    },
                    "indices" : 7,
                    "material" : 0
                }
            ]
        }
    ],
    "textures" : [
        {
            "sampler" : 0,
            "source" : 0
        }
    ],
    "images" : [
        {
            "mimeType" : "image/jpeg",
            "name" : "Grass",
            "uri" : "textures/Grass.jpg"
        }
    ],
    "accessors" : [
        {
            "bufferView" : 0,
            "componentType" : 5126,
            "count" : 1188,
            "max" : [
                4.701506614685059,
                3.8846778869628906,
                2
            ],
            "min" : [
                -0.1047021895647049,
                -0.018356412649154663,
                -12
            ],
            "type" : "VEC3"
        },
        {
            "bufferView" : 1,
            "componentType" : 5126,
            "count" : 1188,
            "type" : "VEC3"
        },
        {
            "bufferView" : 2,
            "componentType" : 5126,
            "count" : 1188,
            "type" : "VEC2"
        },
        {
            "bufferView" : 3,
            "componentType" : 5123,
            "count" : 1188,
            "type" : "SCALAR"
        },
        {
            "bufferView" : 4,
            "componentType" : 5126,
            "count" : 792,
            "max" : [
                4.701506614685059,
                3.8846778869628906,
                2
            ],
            "min" : [
                -0.1047021895647049,
                -0.018356412649154663,
                -12
            ],
            "type" : "VEC3"
        },
        {
            "bufferView" : 5,
            "componentType" : 5126,
            "count" : 792,
            "type" : "VEC3"
        },
        {
            "bufferView" : 6,
            "componentType" : 5126,
            "count" : 792,
            "type" : "VEC2"
        },
        {
            "bufferView" : 7,
            "componentType" : 5123,
            "count" : 1188,
            "type" : "SCALAR"
        }
    ],
    "bufferViews" : [
        {
            "buffer" : 0,
            "byteLength" : 14256,
            "byteOffset" : 0
        },
        {
            "buffer" : 0,
            "byteLength" : 14256,
            "byteOffset" : 14256
        },
        {
            "buffer" : 0,
            "byteLength" : 9504,
            "byteOffset" : 28512
        },
        {
            "buffer" : 0,
            "byteLength" : 2376,
            "byteOffset" : 38016
        },
        {
            "buffer" : 0,
            "byteLength" : 9504,
            "byteOffset" : 40392
        },
        {
            "buffer" : 0,
            "byteLength" : 9504,
            "byteOffset" : 49896
        },
        {
            "buffer" : 0,
            "byteLength" : 6336,
            "byteOffset" : 59400
        },
        {
            "buffer" : 0,
            "byteLength" : 2376,
            "byteOffset" : 65736
        }
    ],
    "samplers" : [
        {
            "magFilter" : 9729,
            "minFilter" : 9987
        }
    ],
    "buffers" : [
        {
            "byteLength" : 68112,
            "uri" : "Curve.bin"
        }
    ]
}
   