{
    "asset" : {
        "generator" : "Khronos glTF Blender I/O v1.6.16",
        "version" : "2.0"
    },
    "scene" : 1,
    "scenes" : [
        {
            "name" : "Ball"
        },
        {
            "name" : "Parts",
            "nodes" : [
                0,
                1
            ]
        }
    ],
    "nodes" : [
        {
            "mesh" : 0,
            "name" : "dumper_glb",
            "scale" : [
                2,
                1,
                2
            ],
            "translation" : [
                0,
                0.24007490277290344,
                0
            ]
        },
        {
            "mesh" : 1,
            "name" : "dumperb_glb",
            "scale" : [
                2,
                1,
                2
            ],
            "translation" : [
                0,
                0.10788169503211975,
                0
            ]
        }
    ],
    "materials" : [
        {
            "doubleSided" : true,
            "name" : "Atlas",
            "pbrMetallicRoughness" : {
                "baseColorTexture" : {
                    "index" : 0
                },
                "metallicFactor" : 0,
                "roughnessFactor" : 0.968181848526001
            }
        }
    ],
    "meshes" : [
        {
            "name" : "Icosphere",
            "primitives" : [
                {
                    "attributes" : {
                        "POSITION" : 0,
                        "NORMAL" : 1,
                        "TEXCOORD_0" : 2
                    },
                    "indices" : 3,
                    "material" : 0
                }
            ]
        },
        {
            "name" : "Icosphere.001",
            "primitives" : [
                {
                    "attributes" : {
                        "POSITION" : 4,
                        "NORMAL" : 5,
                        "TEXCOORD_0" : 6
                    },
                    "indices" : 3,
                    "material" : 0
                }
            ]
        }
    ],
    "textures" : [
        {
            "sampler" : 0,
            "source" : 0
        }
    ],
    "images" : [
        {
            "mimeType" : "image/png",
            "name" : "AvatarWearables_TX",
            "uri" : "textures/AvatarWearables_TX.png"
        }
    ],
    "accessors" : [
        {
            "bufferView" : 0,
            "componentType" : 5126,
            "count" : 63,
            "max" : [
                0.23776446282863617,
                0.09413966536521912,
                0.2499999850988388
            ],
            "min" : [
                -0.23776446282863617,
                -0.09413966536521912,
                -0.2499999850988388
            ],
            "type" : "VEC3"
        },
        {
            "bufferView" : 1,
            "componentType" : 5126,
            "count" : 63,
            "type" : "VEC3"
        },
        {
            "bufferView" : 2,
            "componentType" : 5126,
            "count" : 63,
            "type" : "VEC2"
        },
        {
            "bufferView" : 3,
            "componentType" : 5123,
            "count" : 240,
            "type" : "SCALAR"
        },
        {
            "bufferView" : 4,
            "componentType" : 5126,
            "count" : 63,
            "max" : [
                0.23776446282863617,
                0.09413966536521912,
                0.2499999850988388
            ],
            "min" : [
                -0.23776446282863617,
                -0.09413966536521912,
                -0.2499999850988388
            ],
            "type" : "VEC3"
        },
        {
            "bufferView" : 5,
            "componentType" : 5126,
            "count" : 63,
            "type" : "VEC3"
        },
        {
            "bufferView" : 6,
            "componentType" : 5126,
            "count" : 63,
            "type" : "VEC2"
        }
    ],
    "bufferViews" : [
        {
            "buffer" : 0,
            "byteLength" : 756,
            "byteOffset" : 0
        },
        {
            "buffer" : 0,
            "byteLength" : 756,
            "byteOffset" : 756
        },
        {
            "buffer" : 0,
            "byteLength" : 504,
            "byteOffset" : 1512
        },
        {
            "buffer" : 0,
            "byteLength" : 480,
            "byteOffset" : 2016
        },
        {
            "buffer" : 0,
            "byteLength" : 756,
            "byteOffset" : 2496
        },
        {
            "buffer" : 0,
            "byteLength" : 756,
            "byteOffset" : 3252
        },
        {
            "buffer" : 0,
            "byteLength" : 504,
            "byteOffset" : 4008
        }
    ],
    "samplers" : [
        {
            "magFilter" : 9729,
            "minFilter" : 9987
        }
    ],
    "buffers" : [
        {
            "byteLength" : 4512,
            "uri" : "Dumper.bin"
        }
    ]
}
   