{
    "asset" : {
        "generator" : "Khronos glTF Blender I/O v1.8.19",
        "version" : "2.0"
    },
    "scene" : 0,
    "scenes" : [
        {
            "name" : "Scene",
            "nodes" : [
                0,
                1
            ]
        }
    ],
    "nodes" : [
        {
            "mesh" : 0,
            "name" : "egypt_env_flower_01_glb"
        },
        {
            "mesh" : 1,
            "name" : "egypt_env_flower_01_collider"
        }
    ],
    "materials" : [
        {
            "doubleSided" : true,
            "name" : "color_atlas",
            "pbrMetallicRoughness" : {
                "baseColorTexture" : {
                    "index" : 0
                },
                "metallicFactor" : 0,
                "roughnessFactor" : 0.6000000238418579
            }
        }
    ],
    "meshes" : [
        {
            "name" : "egypt_env_flower_01_glb",
            "primitives" : [
                {
                    "attributes" : {
                        "POSITION" : 0,
                        "NORMAL" : 1,
                        "TEXCOORD_0" : 2
                    },
                    "indices" : 3,
                    "material" : 0
                }
            ]
        },
        {
            "name" : "egypt_env_flower_01_collider",
            "primitives" : [
                {
                    "attributes" : {
                        "POSITION" : 4,
                        "NORMAL" : 5,
                        "TEXCOORD_0" : 6
                    },
                    "indices" : 7
                }
            ]
        }
    ],
    "textures" : [
        {
            "sampler" : 0,
            "source" : 0
        }
    ],
    "images" : [
        {
            "mimeType" : "image/png",
            "name" : "MT_Color_Atlas",
            "uri" : "textures/MT_Color_Atlas.png"
        }
    ],
    "accessors" : [
        {
            "bufferView" : 0,
            "componentType" : 5126,
            "count" : 1380,
            "max" : [
                0.353412926197052,
                0.9339802861213684,
                0.19788217544555664
            ],
            "min" : [
                -0.38461941480636597,
                0,
                -0.15097537636756897
            ],
            "type" : "VEC3"
        },
        {
            "bufferView" : 1,
            "componentType" : 5126,
            "count" : 1380,
            "type" : "VEC3"
        },
        {
            "bufferView" : 2,
            "componentType" : 5126,
            "count" : 1380,
            "type" : "VEC2"
        },
        {
            "bufferView" : 3,
            "componentType" : 5123,
            "count" : 1500,
            "type" : "SCALAR"
        },
        {
            "bufferView" : 4,
            "componentType" : 5126,
            "count" : 56,
            "max" : [
                0.1990305632352829,
                0.8281833529472351,
                0.15859277546405792
            ],
            "min" : [
                -0.21623538434505463,
                0,
                -0.14712290465831757
            ],
            "type" : "VEC3"
        },
        {
            "bufferView" : 5,
            "componentType" : 5126,
            "count" : 56,
            "type" : "VEC3"
        },
        {
            "bufferView" : 6,
            "componentType" : 5126,
            "count" : 56,
            "type" : "VEC2"
        },
        {
            "bufferView" : 7,
            "componentType" : 5123,
            "count" : 84,
            "type" : "SCALAR"
        }
    ],
    "bufferViews" : [
        {
            "buffer" : 0,
            "byteLength" : 16560,
            "byteOffset" : 0
        },
        {
            "buffer" : 0,
            "byteLength" : 16560,
            "byteOffset" : 16560
        },
        {
            "buffer" : 0,
            "byteLength" : 11040,
            "byteOffset" : 33120
        },
        {
            "buffer" : 0,
            "byteLength" : 3000,
            "byteOffset" : 44160
        },
        {
            "buffer" : 0,
            "byteLength" : 672,
            "byteOffset" : 47160
        },
        {
            "buffer" : 0,
            "byteLength" : 672,
            "byteOffset" : 47832
        },
        {
            "buffer" : 0,
            "byteLength" : 448,
            "byteOffset" : 48504
        },
        {
            "buffer" : 0,
            "byteLength" : 168,
            "byteOffset" : 48952
        }
    ],
    "samplers" : [
        {
            "magFilter" : 9729,
            "minFilter" : 9987
        }
    ],
    "buffers" : [
        {
            "byteLength" : 49120,
            "uri" : "egypt_env_flower_01.bin"
        }
    ]
}
