{
    "asset" : {
        "generator" : "Khronos glTF Blender I/O v1.8.19",
        "version" : "2.0"
    },
    "scene" : 0,
    "scenes" : [
        {
            "name" : "Scene",
            "nodes" : [
                0,
                1
            ]
        }
    ],
    "nodes" : [
        {
            "mesh" : 0,
            "name" : "egypt_env_column_01_glb"
        },
        {
            "mesh" : 1,
            "name" : "egypt_env_column_01_collider",
            "scale" : [
                2.078885555267334,
                1,
                2.078885555267334
            ],
            "translation" : [
                0,
                0.0035450002178549767,
                0
            ]
        }
    ],
    "materials" : [
        {
            "doubleSided" : true,
            "name" : "color_atlas",
            "pbrMetallicRoughness" : {
                "baseColorTexture" : {
                    "index" : 0
                },
                "metallicFactor" : 0,
                "roughnessFactor" : 0.6000000238418579
            }
        }
    ],
    "meshes" : [
        {
            "name" : "egypt_env_column_01_glb",
            "primitives" : [
                {
                    "attributes" : {
                        "POSITION" : 0,
                        "NORMAL" : 1,
                        "TEXCOORD_0" : 2
                    },
                    "indices" : 3,
                    "material" : 0
                }
            ]
        },
        {
            "name" : "egypt_env_column_01_collider",
            "primitives" : [
                {
                    "attributes" : {
                        "POSITION" : 4,
                        "NORMAL" : 5,
                        "TEXCOORD_0" : 6
                    },
                    "indices" : 7
                }
            ]
        }
    ],
    "textures" : [
        {
            "sampler" : 0,
            "source" : 0
        }
    ],
    "images" : [
        {
            "mimeType" : "image/png",
            "name" : "MT_Color_Atlas",
            "uri" : "textures/MT_Color_Atlas.png"
        }
    ],
    "accessors" : [
        {
            "bufferView" : 0,
            "componentType" : 5126,
            "count" : 1112,
            "max" : [
                2.2865970134735107,
                11.912790298461914,
                2.2865989208221436
            ],
            "min" : [
                -2.2865970134735107,
                -2.2609786951420038e-24,
                -2.286595106124878
            ],
            "type" : "VEC3"
        },
        {
            "bufferView" : 1,
            "componentType" : 5126,
            "count" : 1112,
            "type" : "VEC3"
        },
        {
            "bufferView" : 2,
            "componentType" : 5126,
            "count" : 1112,
            "type" : "VEC2"
        },
        {
            "bufferView" : 3,
            "componentType" : 5123,
            "count" : 3186,
            "type" : "SCALAR"
        },
        {
            "bufferView" : 4,
            "componentType" : 5126,
            "count" : 80,
            "max" : [
                1.1121045351028442,
                11.880125045776367,
                1.1121045351028442
            ],
            "min" : [
                -1.1121045351028442,
                0,
                -1.1121045351028442
            ],
            "type" : "VEC3"
        },
        {
            "bufferView" : 5,
            "componentType" : 5126,
            "count" : 80,
            "type" : "VEC3"
        },
        {
            "bufferView" : 6,
            "componentType" : 5126,
            "count" : 80,
            "type" : "VEC2"
        },
        {
            "bufferView" : 7,
            "componentType" : 5123,
            "count" : 132,
            "type" : "SCALAR"
        }
    ],
    "bufferViews" : [
        {
            "buffer" : 0,
            "byteLength" : 13344,
            "byteOffset" : 0
        },
        {
            "buffer" : 0,
            "byteLength" : 13344,
            "byteOffset" : 13344
        },
        {
            "buffer" : 0,
            "byteLength" : 8896,
            "byteOffset" : 26688
        },
        {
            "buffer" : 0,
            "byteLength" : 6372,
            "byteOffset" : 35584
        },
        {
            "buffer" : 0,
            "byteLength" : 960,
            "byteOffset" : 41956
        },
        {
            "buffer" : 0,
            "byteLength" : 960,
            "byteOffset" : 42916
        },
        {
            "buffer" : 0,
            "byteLength" : 640,
            "byteOffset" : 43876
        },
        {
            "buffer" : 0,
            "byteLength" : 264,
            "byteOffset" : 44516
        }
    ],
    "samplers" : [
        {
            "magFilter" : 9729,
            "minFilter" : 9987
        }
    ],
    "buffers" : [
        {
            "byteLength" : 44780,
            "uri" : "egypt_env_column_01.bin"
        }
    ]
}
