{
    "asset" : {
        "generator" : "Khronos glTF Blender I/O v1.8.19",
        "version" : "2.0"
    },
    "scene" : 0,
    "scenes" : [
        {
            "name" : "Scene",
            "nodes" : [
                0,
                1
            ]
        }
    ],
    "nodes" : [
        {
            "mesh" : 0,
            "name" : "egypt_env_vase_03_glb"
        },
        {
            "mesh" : 1,
            "name" : "egypt_env_vase_03_collider"
        }
    ],
    "materials" : [
        {
            "doubleSided" : true,
            "name" : "color_atlas",
            "pbrMetallicRoughness" : {
                "baseColorTexture" : {
                    "index" : 0
                },
                "metallicFactor" : 0,
                "roughnessFactor" : 0.6000000238418579
            }
        }
    ],
    "meshes" : [
        {
            "name" : "egypt_env_vase_03_glb",
            "primitives" : [
                {
                    "attributes" : {
                        "POSITION" : 0,
                        "NORMAL" : 1,
                        "TEXCOORD_0" : 2
                    },
                    "indices" : 3,
                    "material" : 0
                }
            ]
        },
        {
            "name" : "egypt_env_vase_03_collider",
            "primitives" : [
                {
                    "attributes" : {
                        "POSITION" : 4,
                        "NORMAL" : 5,
                        "TEXCOORD_0" : 6
                    },
                    "indices" : 7
                }
            ]
        }
    ],
    "textures" : [
        {
            "sampler" : 0,
            "source" : 0
        }
    ],
    "images" : [
        {
            "mimeType" : "image/png",
            "name" : "MT_Color_Atlas",
            "uri" : "textures/MT_Color_Atlas.png"
        }
    ],
    "accessors" : [
        {
            "bufferView" : 0,
            "componentType" : 5126,
            "count" : 929,
            "max" : [
                0.8375071883201599,
                2.284823417663574,
                0.5960338711738586
            ],
            "min" : [
                -0.8375071883201599,
                0,
                -0.5960338711738586
            ],
            "type" : "VEC3"
        },
        {
            "bufferView" : 1,
            "componentType" : 5126,
            "count" : 929,
            "type" : "VEC3"
        },
        {
            "bufferView" : 2,
            "componentType" : 5126,
            "count" : 929,
            "type" : "VEC2"
        },
        {
            "bufferView" : 3,
            "componentType" : 5123,
            "count" : 1392,
            "type" : "SCALAR"
        },
        {
            "bufferView" : 4,
            "componentType" : 5126,
            "count" : 40,
            "max" : [
                0.6106603741645813,
                2.23140287399292,
                0.6106603741645813
            ],
            "min" : [
                -0.6106603741645813,
                0,
                -0.6106603741645813
            ],
            "type" : "VEC3"
        },
        {
            "bufferView" : 5,
            "componentType" : 5126,
            "count" : 40,
            "type" : "VEC3"
        },
        {
            "bufferView" : 6,
            "componentType" : 5126,
            "count" : 40,
            "type" : "VEC2"
        },
        {
            "bufferView" : 7,
            "componentType" : 5123,
            "count" : 60,
            "type" : "SCALAR"
        }
    ],
    "bufferViews" : [
        {
            "buffer" : 0,
            "byteLength" : 11148,
            "byteOffset" : 0
        },
        {
            "buffer" : 0,
            "byteLength" : 11148,
            "byteOffset" : 11148
        },
        {
            "buffer" : 0,
            "byteLength" : 7432,
            "byteOffset" : 22296
        },
        {
            "buffer" : 0,
            "byteLength" : 2784,
            "byteOffset" : 29728
        },
        {
            "buffer" : 0,
            "byteLength" : 480,
            "byteOffset" : 32512
        },
        {
            "buffer" : 0,
            "byteLength" : 480,
            "byteOffset" : 32992
        },
        {
            "buffer" : 0,
            "byteLength" : 320,
            "byteOffset" : 33472
        },
        {
            "buffer" : 0,
            "byteLength" : 120,
            "byteOffset" : 33792
        }
    ],
    "samplers" : [
        {
            "magFilter" : 9729,
            "minFilter" : 9987
        }
    ],
    "buffers" : [
        {
            "byteLength" : 33912,
            "uri" : "egypt_env_vase_03.bin"
        }
    ]
}
