{
    "asset" : {
        "generator" : "Khronos glTF Blender I/O v1.8.19",
        "version" : "2.0"
    },
    "scene" : 0,
    "scenes" : [
        {
            "name" : "Scene",
            "nodes" : [
                0,
                1
            ]
        }
    ],
    "nodes" : [
        {
            "mesh" : 0,
            "name" : "egypt_concave_corner_glb",
            "rotation" : [
                0.7071068286895752,
                0,
                0,
                0.7071067094802856
            ]
        },
        {
            "mesh" : 1,
            "name" : "egypt_concave_corner_collider",
            "rotation" : [
                0.7071068286895752,
                0,
                0,
                0.7071067094802856
            ]
        }
    ],
    "materials" : [
        {
            "doubleSided" : true,
            "name" : "egypt_atlas_02",
            "pbrMetallicRoughness" : {
                "baseColorTexture" : {
                    "index" : 0
                },
                "metallicFactor" : 0
            }
        }
    ],
    "meshes" : [
        {
            "name" : "egypt_concavecorner_glb",
            "primitives" : [
                {
                    "attributes" : {
                        "POSITION" : 0,
                        "NORMAL" : 1,
                        "TEXCOORD_0" : 2
                    },
                    "indices" : 3,
                    "material" : 0
                }
            ]
        },
        {
            "name" : "egypt_concavecorner_collider",
            "primitives" : [
                {
                    "attributes" : {
                        "POSITION" : 4,
                        "NORMAL" : 5,
                        "TEXCOORD_0" : 6,
                        "TEXCOORD_1" : 7
                    },
                    "indices" : 8
                }
            ]
        }
    ],
    "textures" : [
        {
            "sampler" : 0,
            "source" : 0
        }
    ],
    "images" : [
        {
            "mimeType" : "image/png",
            "name" : "egypt_atlas_02",
            "uri" : "textures/egypt_atlas_02.png"
        }
    ],
    "accessors" : [
        {
            "bufferView" : 0,
            "componentType" : 5126,
            "count" : 265,
            "max" : [
                5.140893936157227,
                3.750441551208496,
                0.00036200007889419794
            ],
            "min" : [
                -5.140893936157227,
                -1.2224512100219727,
                -4.886810779571533
            ],
            "type" : "VEC3"
        },
        {
            "bufferView" : 1,
            "componentType" : 5126,
            "count" : 265,
            "type" : "VEC3"
        },
        {
            "bufferView" : 2,
            "componentType" : 5126,
            "count" : 265,
            "type" : "VEC2"
        },
        {
            "bufferView" : 3,
            "componentType" : 5123,
            "count" : 924,
            "type" : "SCALAR"
        },
        {
            "bufferView" : 4,
            "componentType" : 5126,
            "count" : 279,
            "max" : [
                5.140893936157227,
                3.750441551208496,
                0.00036200007889419794
            ],
            "min" : [
                -5.140893936157227,
                -1.2224512100219727,
                -4.886810779571533
            ],
            "type" : "VEC3"
        },
        {
            "bufferView" : 5,
            "componentType" : 5126,
            "count" : 279,
            "type" : "VEC3"
        },
        {
            "bufferView" : 6,
            "componentType" : 5126,
            "count" : 279,
            "type" : "VEC2"
        },
        {
            "bufferView" : 7,
            "componentType" : 5126,
            "count" : 279,
            "type" : "VEC2"
        },
        {
            "bufferView" : 8,
            "componentType" : 5123,
            "count" : 924,
            "type" : "SCALAR"
        }
    ],
    "bufferViews" : [
        {
            "buffer" : 0,
            "byteLength" : 3180,
            "byteOffset" : 0
        },
        {
            "buffer" : 0,
            "byteLength" : 3180,
            "byteOffset" : 3180
        },
        {
            "buffer" : 0,
            "byteLength" : 2120,
            "byteOffset" : 6360
        },
        {
            "buffer" : 0,
            "byteLength" : 1848,
            "byteOffset" : 8480
        },
        {
            "buffer" : 0,
            "byteLength" : 3348,
            "byteOffset" : 10328
        },
        {
            "buffer" : 0,
            "byteLength" : 3348,
            "byteOffset" : 13676
        },
        {
            "buffer" : 0,
            "byteLength" : 2232,
            "byteOffset" : 17024
        },
        {
            "buffer" : 0,
            "byteLength" : 2232,
            "byteOffset" : 19256
        },
        {
            "buffer" : 0,
            "byteLength" : 1848,
            "byteOffset" : 21488
        }
    ],
    "samplers" : [
        {
            "magFilter" : 9729,
            "minFilter" : 9987
        }
    ],
    "buffers" : [
        {
            "byteLength" : 23336,
            "uri" : "egypt_concave_corner.bin"
        }
    ]
}
