{
    "asset" : {
        "generator" : "Khronos glTF Blender I/O v1.8.19",
        "version" : "2.0"
    },
    "scene" : 0,
    "scenes" : [
        {
            "name" : "Scene",
            "nodes" : [
                0,
                1
            ]
        }
    ],
    "nodes" : [
        {
            "mesh" : 0,
            "name" : "egypt_skybox_glb"
        },
        {
            "mesh" : 1,
            "name" : "egypt_skybox_collider"
        }
    ],
    "animations" : [
        {
            "channels" : [
                {
                    "sampler" : 0,
                    "target" : {
                        "node" : 0,
                        "path" : "rotation"
                    }
                }
            ],
            "name" : "Skybox1_glb.001Action.002",
            "samplers" : [
                {
                    "input" : 9,
                    "interpolation" : "STEP",
                    "output" : 10
                }
            ]
        },
        {
            "channels" : [
                {
                    "sampler" : 0,
                    "target" : {
                        "node" : 1,
                        "path" : "rotation"
                    }
                }
            ],
            "name" : "Skybox1_glb.001Action.001",
            "samplers" : [
                {
                    "input" : 9,
                    "interpolation" : "STEP",
                    "output" : 11
                }
            ]
        }
    ],
    "materials" : [
        {
            "name" : "Skybox_baked",
            "pbrMetallicRoughness" : {
                "baseColorTexture" : {
                    "index" : 0,
                    "texCoord" : 1
                },
                "metallicFactor" : 0,
                "roughnessFactor" : 0.968181848526001
            }
        }
    ],
    "meshes" : [
        {
            "name" : "Cube.001",
            "primitives" : [
                {
                    "attributes" : {
                        "POSITION" : 0,
                        "NORMAL" : 1,
                        "TEXCOORD_0" : 2,
                        "TEXCOORD_1" : 3
                    },
                    "indices" : 4,
                    "material" : 0
                }
            ]
        },
        {
            "name" : "Cube.002",
            "primitives" : [
                {
                    "attributes" : {
                        "POSITION" : 5,
                        "NORMAL" : 6,
                        "TEXCOORD_0" : 7,
                        "TEXCOORD_1" : 8
                    },
                    "indices" : 4
                }
            ]
        }
    ],
    "textures" : [
        {
            "sampler" : 0,
            "source" : 0
        }
    ],
    "images" : [
        {
            "mimeType" : "image/png",
            "name" : "egypt_skybox",
            "uri" : "textures/egypt_skybox.png"
        }
    ],
    "accessors" : [
        {
            "bufferView" : 0,
            "componentType" : 5126,
            "count" : 44,
            "max" : [
                24,
                48.0000114440918,
                24
            ],
            "min" : [
                -24,
                5.7220458984375e-06,
                -23.999998092651367
            ],
            "type" : "VEC3"
        },
        {
            "bufferView" : 1,
            "componentType" : 5126,
            "count" : 44,
            "type" : "VEC3"
        },
        {
            "bufferView" : 2,
            "componentType" : 5126,
            "count" : 44,
            "type" : "VEC2"
        },
        {
            "bufferView" : 3,
            "componentType" : 5126,
            "count" : 44,
            "type" : "VEC2"
        },
        {
            "bufferView" : 4,
            "componentType" : 5123,
            "count" : 54,
            "type" : "SCALAR"
        },
        {
            "bufferView" : 5,
            "componentType" : 5126,
            "count" : 44,
            "max" : [
                24,
                48.0000114440918,
                24
            ],
            "min" : [
                -24,
                5.7220458984375e-06,
                -23.999998092651367
            ],
            "type" : "VEC3"
        },
        {
            "bufferView" : 6,
            "componentType" : 5126,
            "count" : 44,
            "type" : "VEC3"
        },
        {
            "bufferView" : 7,
            "componentType" : 5126,
            "count" : 44,
            "type" : "VEC2"
        },
        {
            "bufferView" : 8,
            "componentType" : 5126,
            "count" : 44,
            "type" : "VEC2"
        },
        {
            "bufferView" : 9,
            "componentType" : 5126,
            "count" : 1,
            "max" : [
                2.2916666666666665
            ],
            "min" : [
                2.2916666666666665
            ],
            "type" : "SCALAR"
        },
        {
            "bufferView" : 10,
            "componentType" : 5126,
            "count" : 1,
            "type" : "VEC4"
        },
        {
            "bufferView" : 11,
            "componentType" : 5126,
            "count" : 1,
            "type" : "VEC4"
        }
    ],
    "bufferViews" : [
        {
            "buffer" : 0,
            "byteLength" : 528,
            "byteOffset" : 0
        },
        {
            "buffer" : 0,
            "byteLength" : 528,
            "byteOffset" : 528
        },
        {
            "buffer" : 0,
            "byteLength" : 352,
            "byteOffset" : 1056
        },
        {
            "buffer" : 0,
            "byteLength" : 352,
            "byteOffset" : 1408
        },
        {
            "buffer" : 0,
            "byteLength" : 108,
            "byteOffset" : 1760
        },
        {
            "buffer" : 0,
            "byteLength" : 528,
            "byteOffset" : 1868
        },
        {
            "buffer" : 0,
            "byteLength" : 528,
            "byteOffset" : 2396
        },
        {
            "buffer" : 0,
            "byteLength" : 352,
            "byteOffset" : 2924
        },
        {
            "buffer" : 0,
            "byteLength" : 352,
            "byteOffset" : 3276
        },
        {
            "buffer" : 0,
            "byteLength" : 4,
            "byteOffset" : 3628
        },
        {
            "buffer" : 0,
            "byteLength" : 16,
            "byteOffset" : 3632
        },
        {
            "buffer" : 0,
            "byteLength" : 16,
            "byteOffset" : 3648
        }
    ],
    "samplers" : [
        {
            "magFilter" : 9729,
            "minFilter" : 9987
        }
    ],
    "buffers" : [
        {
            "byteLength" : 3664,
            "uri" : "egypt_skybox.bin"
        }
    ]
}
