{
    "asset" : {
        "generator" : "Khronos glTF Blender I/O v1.8.19",
        "version" : "2.0"
    },
    "scene" : 0,
    "scenes" : [
        {
            "name" : "Scene",
            "nodes" : [
                0,
                1
            ]
        }
    ],
    "nodes" : [
        {
            "mesh" : 0,
            "name" : "egypt_loop_glb"
        },
        {
            "mesh" : 1,
            "name" : "egypt_loop_collider"
        }
    ],
    "materials" : [
        {
            "doubleSided" : true,
            "name" : "egypt_atlas_01",
            "pbrMetallicRoughness" : {
                "baseColorTexture" : {
                    "index" : 0
                },
                "metallicFactor" : 0
            }
        }
    ],
    "meshes" : [
        {
            "name" : "egypt_loop_glb",
            "primitives" : [
                {
                    "attributes" : {
                        "POSITION" : 0,
                        "NORMAL" : 1,
                        "TEXCOORD_0" : 2
                    },
                    "indices" : 3,
                    "material" : 0
                }
            ]
        },
        {
            "name" : "egypt_loop_collider",
            "primitives" : [
                {
                    "attributes" : {
                        "POSITION" : 4,
                        "NORMAL" : 5,
                        "TEXCOORD_0" : 6
                    },
                    "indices" : 3
                }
            ]
        }
    ],
    "textures" : [
        {
            "sampler" : 0,
            "source" : 0
        }
    ],
    "images" : [
        {
            "mimeType" : "image/png",
            "name" : "egypt_atlas_01",
            "uri" : "textures/egypt_atlas_01.png"
        }
    ],
    "accessors" : [
        {
            "bufferView" : 0,
            "componentType" : 5126,
            "count" : 648,
            "max" : [
                2.8751020431518555,
                5.269886016845703,
                2.19976544380188
            ],
            "min" : [
                -1.9980759620666504,
                8.934782158576127e-08,
                -2.7345645427703857
            ],
            "type" : "VEC3"
        },
        {
            "bufferView" : 1,
            "componentType" : 5126,
            "count" : 648,
            "type" : "VEC3"
        },
        {
            "bufferView" : 2,
            "componentType" : 5126,
            "count" : 648,
            "type" : "VEC2"
        },
        {
            "bufferView" : 3,
            "componentType" : 5123,
            "count" : 972,
            "type" : "SCALAR"
        },
        {
            "bufferView" : 4,
            "componentType" : 5126,
            "count" : 648,
            "max" : [
                2.8751020431518555,
                5.269886016845703,
                2.19976544380188
            ],
            "min" : [
                -1.9980759620666504,
                8.934782158576127e-08,
                -2.7345645427703857
            ],
            "type" : "VEC3"
        },
        {
            "bufferView" : 5,
            "componentType" : 5126,
            "count" : 648,
            "type" : "VEC3"
        },
        {
            "bufferView" : 6,
            "componentType" : 5126,
            "count" : 648,
            "type" : "VEC2"
        }
    ],
    "bufferViews" : [
        {
            "buffer" : 0,
            "byteLength" : 7776,
            "byteOffset" : 0
        },
        {
            "buffer" : 0,
            "byteLength" : 7776,
            "byteOffset" : 7776
        },
        {
            "buffer" : 0,
            "byteLength" : 5184,
            "byteOffset" : 15552
        },
        {
            "buffer" : 0,
            "byteLength" : 1944,
            "byteOffset" : 20736
        },
        {
            "buffer" : 0,
            "byteLength" : 7776,
            "byteOffset" : 22680
        },
        {
            "buffer" : 0,
            "byteLength" : 7776,
            "byteOffset" : 30456
        },
        {
            "buffer" : 0,
            "byteLength" : 5184,
            "byteOffset" : 38232
        }
    ],
    "samplers" : [
        {
            "magFilter" : 9729,
            "minFilter" : 9987
        }
    ],
    "buffers" : [
        {
            "byteLength" : 43416,
            "uri" : "egypt_loop.bin"
        }
    ]
}
