{
    "asset" : {
        "generator" : "Khronos glTF Blender I/O v1.8.19",
        "version" : "2.0"
    },
    "scene" : 0,
    "scenes" : [
        {
            "name" : "Scene",
            "nodes" : [
                0,
                1
            ]
        }
    ],
    "nodes" : [
        {
            "mesh" : 0,
            "name" : "egypt_concave_halfcorner_glb"
        },
        {
            "mesh" : 1,
            "name" : "egypt_concave_halfcorner_collider"
        }
    ],
    "materials" : [
        {
            "doubleSided" : true,
            "name" : "egypt_atlas_02",
            "pbrMetallicRoughness" : {
                "baseColorTexture" : {
                    "index" : 0
                },
                "metallicFactor" : 0
            }
        }
    ],
    "meshes" : [
        {
            "name" : "egypt_concavehalfcorner_glb",
            "primitives" : [
                {
                    "attributes" : {
                        "POSITION" : 0,
                        "NORMAL" : 1,
                        "TEXCOORD_0" : 2
                    },
                    "indices" : 3,
                    "material" : 0
                }
            ]
        },
        {
            "name" : "egypt_concavehalfcorner_collider",
            "primitives" : [
                {
                    "attributes" : {
                        "POSITION" : 4,
                        "NORMAL" : 5,
                        "TEXCOORD_0" : 6,
                        "TEXCOORD_1" : 7
                    },
                    "indices" : 8
                }
            ]
        }
    ],
    "textures" : [
        {
            "sampler" : 0,
            "source" : 0
        }
    ],
    "images" : [
        {
            "mimeType" : "image/png",
            "name" : "egypt_atlas_02",
            "uri" : "textures/egypt_atlas_02.png"
        }
    ],
    "accessors" : [
        {
            "bufferView" : 0,
            "componentType" : 5126,
            "count" : 208,
            "max" : [
                3.4805428981781006,
                3.874000310897827,
                2.8284220695495605
            ],
            "min" : [
                -3.4805428981781006,
                7.526214176323265e-06,
                -1.626700758934021
            ],
            "type" : "VEC3"
        },
        {
            "bufferView" : 1,
            "componentType" : 5126,
            "count" : 208,
            "type" : "VEC3"
        },
        {
            "bufferView" : 2,
            "componentType" : 5126,
            "count" : 208,
            "type" : "VEC2"
        },
        {
            "bufferView" : 3,
            "componentType" : 5123,
            "count" : 696,
            "type" : "SCALAR"
        },
        {
            "bufferView" : 4,
            "componentType" : 5126,
            "count" : 231,
            "max" : [
                3.4805428981781006,
                3.874000310897827,
                2.8284220695495605
            ],
            "min" : [
                -3.4805428981781006,
                7.526214176323265e-06,
                -1.626700758934021
            ],
            "type" : "VEC3"
        },
        {
            "bufferView" : 5,
            "componentType" : 5126,
            "count" : 231,
            "type" : "VEC3"
        },
        {
            "bufferView" : 6,
            "componentType" : 5126,
            "count" : 231,
            "type" : "VEC2"
        },
        {
            "bufferView" : 7,
            "componentType" : 5126,
            "count" : 231,
            "type" : "VEC2"
        },
        {
            "bufferView" : 8,
            "componentType" : 5123,
            "count" : 696,
            "type" : "SCALAR"
        }
    ],
    "bufferViews" : [
        {
            "buffer" : 0,
            "byteLength" : 2496,
            "byteOffset" : 0
        },
        {
            "buffer" : 0,
            "byteLength" : 2496,
            "byteOffset" : 2496
        },
        {
            "buffer" : 0,
            "byteLength" : 1664,
            "byteOffset" : 4992
        },
        {
            "buffer" : 0,
            "byteLength" : 1392,
            "byteOffset" : 6656
        },
        {
            "buffer" : 0,
            "byteLength" : 2772,
            "byteOffset" : 8048
        },
        {
            "buffer" : 0,
            "byteLength" : 2772,
            "byteOffset" : 10820
        },
        {
            "buffer" : 0,
            "byteLength" : 1848,
            "byteOffset" : 13592
        },
        {
            "buffer" : 0,
            "byteLength" : 1848,
            "byteOffset" : 15440
        },
        {
            "buffer" : 0,
            "byteLength" : 1392,
            "byteOffset" : 17288
        }
    ],
    "samplers" : [
        {
            "magFilter" : 9729,
            "minFilter" : 9987
        }
    ],
    "buffers" : [
        {
            "byteLength" : 18680,
            "uri" : "egypt_concave_halfcorner.bin"
        }
    ]
}
