{
    "asset" : {
        "generator" : "Khronos glTF Blender I/O v1.8.19",
        "version" : "2.0"
    },
    "scene" : 0,
    "scenes" : [
        {
            "name" : "Scene",
            "nodes" : [
                0,
                1
            ]
        }
    ],
    "nodes" : [
        {
            "mesh" : 0,
            "name" : "egypt_env_pyramid_02_glb"
        },
        {
            "mesh" : 1,
            "name" : "egypt_env_pyramid_02_collider"
        }
    ],
    "materials" : [
        {
            "doubleSided" : true,
            "name" : "color_atlas",
            "pbrMetallicRoughness" : {
                "baseColorTexture" : {
                    "index" : 0
                },
                "metallicFactor" : 0,
                "roughnessFactor" : 0.6000000238418579
            }
        }
    ],
    "meshes" : [
        {
            "name" : "egypt_env_pyramid_02_glb",
            "primitives" : [
                {
                    "attributes" : {
                        "POSITION" : 0,
                        "NORMAL" : 1,
                        "TEXCOORD_0" : 2
                    },
                    "indices" : 3,
                    "material" : 0
                }
            ]
        },
        {
            "name" : "egypt_env_pyramid_02_collider",
            "primitives" : [
                {
                    "attributes" : {
                        "POSITION" : 4,
                        "NORMAL" : 5,
                        "TEXCOORD_0" : 6
                    },
                    "indices" : 7
                }
            ]
        }
    ],
    "textures" : [
        {
            "sampler" : 0,
            "source" : 0
        }
    ],
    "images" : [
        {
            "mimeType" : "image/png",
            "name" : "MT_Color_Atlas",
            "uri" : "textures/MT_Color_Atlas.png"
        }
    ],
    "accessors" : [
        {
            "bufferView" : 0,
            "componentType" : 5126,
            "count" : 614,
            "max" : [
                5.427215576171875,
                7.0514445304870605,
                5.427215576171875
            ],
            "min" : [
                -5.427215576171875,
                0,
                -5.427215576171875
            ],
            "type" : "VEC3"
        },
        {
            "bufferView" : 1,
            "componentType" : 5126,
            "count" : 614,
            "type" : "VEC3"
        },
        {
            "bufferView" : 2,
            "componentType" : 5126,
            "count" : 614,
            "type" : "VEC2"
        },
        {
            "bufferView" : 3,
            "componentType" : 5123,
            "count" : 948,
            "type" : "SCALAR"
        },
        {
            "bufferView" : 4,
            "componentType" : 5126,
            "count" : 24,
            "max" : [
                5.47328519821167,
                6.981906890869141,
                5.47328519821167
            ],
            "min" : [
                -5.47328519821167,
                0,
                -5.47328519821167
            ],
            "type" : "VEC3"
        },
        {
            "bufferView" : 5,
            "componentType" : 5126,
            "count" : 24,
            "type" : "VEC3"
        },
        {
            "bufferView" : 6,
            "componentType" : 5126,
            "count" : 24,
            "type" : "VEC2"
        },
        {
            "bufferView" : 7,
            "componentType" : 5123,
            "count" : 36,
            "type" : "SCALAR"
        }
    ],
    "bufferViews" : [
        {
            "buffer" : 0,
            "byteLength" : 7368,
            "byteOffset" : 0
        },
        {
            "buffer" : 0,
            "byteLength" : 7368,
            "byteOffset" : 7368
        },
        {
            "buffer" : 0,
            "byteLength" : 4912,
            "byteOffset" : 14736
        },
        {
            "buffer" : 0,
            "byteLength" : 1896,
            "byteOffset" : 19648
        },
        {
            "buffer" : 0,
            "byteLength" : 288,
            "byteOffset" : 21544
        },
        {
            "buffer" : 0,
            "byteLength" : 288,
            "byteOffset" : 21832
        },
        {
            "buffer" : 0,
            "byteLength" : 192,
            "byteOffset" : 22120
        },
        {
            "buffer" : 0,
            "byteLength" : 72,
            "byteOffset" : 22312
        }
    ],
    "samplers" : [
        {
            "magFilter" : 9729,
            "minFilter" : 9987
        }
    ],
    "buffers" : [
        {
            "byteLength" : 22384,
            "uri" : "egypt_env_pyramid_02.bin"
        }
    ]
}
