{
    "asset" : {
        "generator" : "Khronos glTF Blender I/O v1.8.19",
        "version" : "2.0"
    },
    "scene" : 0,
    "scenes" : [
        {
            "name" : "Scene",
            "nodes" : [
                0,
                1
            ]
        }
    ],
    "nodes" : [
        {
            "mesh" : 0,
            "name" : "egypt_env_sarcophagus_glb"
        },
        {
            "mesh" : 1,
            "name" : "egypt_env_sarcophagus_collider"
        }
    ],
    "materials" : [
        {
            "doubleSided" : true,
            "name" : "color_atlas",
            "pbrMetallicRoughness" : {
                "baseColorTexture" : {
                    "index" : 0
                },
                "metallicFactor" : 0,
                "roughnessFactor" : 0.6000000238418579
            }
        }
    ],
    "meshes" : [
        {
            "name" : "egypt_env_sarcophagus_glb",
            "primitives" : [
                {
                    "attributes" : {
                        "POSITION" : 0,
                        "NORMAL" : 1,
                        "TEXCOORD_0" : 2
                    },
                    "indices" : 3,
                    "material" : 0
                }
            ]
        },
        {
            "name" : "egypt_env_sarcophagus_collider",
            "primitives" : [
                {
                    "attributes" : {
                        "POSITION" : 4,
                        "NORMAL" : 5,
                        "TEXCOORD_0" : 6
                    },
                    "indices" : 7
                }
            ]
        }
    ],
    "textures" : [
        {
            "sampler" : 0,
            "source" : 0
        }
    ],
    "images" : [
        {
            "mimeType" : "image/png",
            "name" : "MT_Color_Atlas",
            "uri" : "textures/MT_Color_Atlas.png"
        }
    ],
    "accessors" : [
        {
            "bufferView" : 0,
            "componentType" : 5126,
            "count" : 814,
            "max" : [
                1.0608900785446167,
                4.957650184631348,
                0.8871007561683655
            ],
            "min" : [
                -1.0608900785446167,
                0.0047452859580516815,
                -0.7527663707733154
            ],
            "type" : "VEC3"
        },
        {
            "bufferView" : 1,
            "componentType" : 5126,
            "count" : 814,
            "type" : "VEC3"
        },
        {
            "bufferView" : 2,
            "componentType" : 5126,
            "count" : 814,
            "type" : "VEC2"
        },
        {
            "bufferView" : 3,
            "componentType" : 5123,
            "count" : 1740,
            "type" : "SCALAR"
        },
        {
            "bufferView" : 4,
            "componentType" : 5126,
            "count" : 70,
            "max" : [
                1.177800178527832,
                4.898471832275391,
                0.9127681851387024
            ],
            "min" : [
                -1.177800178527832,
                0,
                -0.6962149143218994
            ],
            "type" : "VEC3"
        },
        {
            "bufferView" : 5,
            "componentType" : 5126,
            "count" : 70,
            "type" : "VEC3"
        },
        {
            "bufferView" : 6,
            "componentType" : 5126,
            "count" : 70,
            "type" : "VEC2"
        },
        {
            "bufferView" : 7,
            "componentType" : 5123,
            "count" : 114,
            "type" : "SCALAR"
        }
    ],
    "bufferViews" : [
        {
            "buffer" : 0,
            "byteLength" : 9768,
            "byteOffset" : 0
        },
        {
            "buffer" : 0,
            "byteLength" : 9768,
            "byteOffset" : 9768
        },
        {
            "buffer" : 0,
            "byteLength" : 6512,
            "byteOffset" : 19536
        },
        {
            "buffer" : 0,
            "byteLength" : 3480,
            "byteOffset" : 26048
        },
        {
            "buffer" : 0,
            "byteLength" : 840,
            "byteOffset" : 29528
        },
        {
            "buffer" : 0,
            "byteLength" : 840,
            "byteOffset" : 30368
        },
        {
            "buffer" : 0,
            "byteLength" : 560,
            "byteOffset" : 31208
        },
        {
            "buffer" : 0,
            "byteLength" : 228,
            "byteOffset" : 31768
        }
    ],
    "samplers" : [
        {
            "magFilter" : 9729,
            "minFilter" : 9987
        }
    ],
    "buffers" : [
        {
            "byteLength" : 31996,
            "uri" : "egypt_env_sarcophagus.bin"
        }
    ]
}
