{
    "asset" : {
        "generator" : "Khronos glTF Blender I/O v1.8.19",
        "version" : "2.0"
    },
    "scene" : 0,
    "scenes" : [
        {
            "name" : "Scene",
            "nodes" : [
                0,
                1
            ]
        }
    ],
    "nodes" : [
        {
            "mesh" : 0,
            "name" : "egypt_curve_collider"
        },
        {
            "mesh" : 1,
            "name" : "egypt_curve_glb"
        }
    ],
    "materials" : [
        {
            "doubleSided" : true,
            "name" : "egypt_atlas_05",
            "pbrMetallicRoughness" : {
                "baseColorTexture" : {
                    "index" : 0
                },
                "metallicFactor" : 0
            }
        }
    ],
    "meshes" : [
        {
            "name" : "egypt_curve_collider",
            "primitives" : [
                {
                    "attributes" : {
                        "POSITION" : 0,
                        "NORMAL" : 1,
                        "TEXCOORD_0" : 2,
                        "TEXCOORD_1" : 3
                    },
                    "indices" : 4
                }
            ]
        },
        {
            "name" : "egypt_curve_glb",
            "primitives" : [
                {
                    "attributes" : {
                        "POSITION" : 5,
                        "NORMAL" : 6,
                        "TEXCOORD_0" : 7
                    },
                    "indices" : 8,
                    "material" : 0
                }
            ]
        }
    ],
    "textures" : [
        {
            "sampler" : 0,
            "source" : 0
        }
    ],
    "images" : [
        {
            "mimeType" : "image/png",
            "name" : "egypt_atlas_05",
            "uri" : "textures/egypt_atlas_05.png"
        }
    ],
    "accessors" : [
        {
            "bufferView" : 0,
            "componentType" : 5126,
            "count" : 260,
            "max" : [
                2.7298150062561035,
                3.670781373977661,
                1.999932885169983
            ],
            "min" : [
                -2.0439863204956055,
                6.9291550062189344e-06,
                -11.999998092651367
            ],
            "type" : "VEC3"
        },
        {
            "bufferView" : 1,
            "componentType" : 5126,
            "count" : 260,
            "type" : "VEC3"
        },
        {
            "bufferView" : 2,
            "componentType" : 5126,
            "count" : 260,
            "type" : "VEC2"
        },
        {
            "bufferView" : 3,
            "componentType" : 5126,
            "count" : 260,
            "type" : "VEC2"
        },
        {
            "bufferView" : 4,
            "componentType" : 5123,
            "count" : 900,
            "type" : "SCALAR"
        },
        {
            "bufferView" : 5,
            "componentType" : 5126,
            "count" : 362,
            "max" : [
                2.7298150062561035,
                3.6514105796813965,
                1.9929333925247192
            ],
            "min" : [
                -2.0125675201416016,
                7.338371688092593e-06,
                -12
            ],
            "type" : "VEC3"
        },
        {
            "bufferView" : 6,
            "componentType" : 5126,
            "count" : 362,
            "type" : "VEC3"
        },
        {
            "bufferView" : 7,
            "componentType" : 5126,
            "count" : 362,
            "type" : "VEC2"
        },
        {
            "bufferView" : 8,
            "componentType" : 5123,
            "count" : 1152,
            "type" : "SCALAR"
        }
    ],
    "bufferViews" : [
        {
            "buffer" : 0,
            "byteLength" : 3120,
            "byteOffset" : 0
        },
        {
            "buffer" : 0,
            "byteLength" : 3120,
            "byteOffset" : 3120
        },
        {
            "buffer" : 0,
            "byteLength" : 2080,
            "byteOffset" : 6240
        },
        {
            "buffer" : 0,
            "byteLength" : 2080,
            "byteOffset" : 8320
        },
        {
            "buffer" : 0,
            "byteLength" : 1800,
            "byteOffset" : 10400
        },
        {
            "buffer" : 0,
            "byteLength" : 4344,
            "byteOffset" : 12200
        },
        {
            "buffer" : 0,
            "byteLength" : 4344,
            "byteOffset" : 16544
        },
        {
            "buffer" : 0,
            "byteLength" : 2896,
            "byteOffset" : 20888
        },
        {
            "buffer" : 0,
            "byteLength" : 2304,
            "byteOffset" : 23784
        }
    ],
    "samplers" : [
        {
            "magFilter" : 9729,
            "minFilter" : 9987
        }
    ],
    "buffers" : [
        {
            "byteLength" : 26088,
            "uri" : "egypt_curve.bin"
        }
    ]
}
