{
    "asset" : {
        "generator" : "Khronos glTF Blender I/O v1.8.19",
        "version" : "2.0"
    },
    "scene" : 0,
    "scenes" : [
        {
            "name" : "Scene",
            "nodes" : [
                0,
                1
            ]
        }
    ],
    "nodes" : [
        {
            "mesh" : 0,
            "name" : "egypt_sidebend_2_glb"
        },
        {
            "mesh" : 1,
            "name" : "egypt_sidebend_2_collider"
        }
    ],
    "materials" : [
        {
            "doubleSided" : true,
            "name" : "egypt_atlas_05",
            "pbrMetallicRoughness" : {
                "baseColorTexture" : {
                    "index" : 0
                },
                "metallicFactor" : 0
            }
        }
    ],
    "meshes" : [
        {
            "name" : "egypt_sidebend_glb.002",
            "primitives" : [
                {
                    "attributes" : {
                        "POSITION" : 0,
                        "NORMAL" : 1,
                        "TEXCOORD_0" : 2
                    },
                    "indices" : 3,
                    "material" : 0
                }
            ]
        },
        {
            "name" : "egypt_sidebend_glb.003",
            "primitives" : [
                {
                    "attributes" : {
                        "POSITION" : 4,
                        "NORMAL" : 5,
                        "TEXCOORD_0" : 6
                    },
                    "indices" : 7
                }
            ]
        }
    ],
    "textures" : [
        {
            "sampler" : 0,
            "source" : 0
        }
    ],
    "images" : [
        {
            "mimeType" : "image/png",
            "name" : "egypt_atlas_05",
            "uri" : "textures/egypt_atlas_05.png"
        }
    ],
    "accessors" : [
        {
            "bufferView" : 0,
            "componentType" : 5126,
            "count" : 221,
            "max" : [
                2,
                0.8385199904441833,
                2
            ],
            "min" : [
                -2,
                -3.2584136988589307e-07,
                -2
            ],
            "type" : "VEC3"
        },
        {
            "bufferView" : 1,
            "componentType" : 5126,
            "count" : 221,
            "type" : "VEC3"
        },
        {
            "bufferView" : 2,
            "componentType" : 5126,
            "count" : 221,
            "type" : "VEC2"
        },
        {
            "bufferView" : 3,
            "componentType" : 5123,
            "count" : 450,
            "type" : "SCALAR"
        },
        {
            "bufferView" : 4,
            "componentType" : 5126,
            "count" : 241,
            "max" : [
                2,
                0.8385199904441833,
                2
            ],
            "min" : [
                -2,
                -3.2584136988589307e-07,
                -2
            ],
            "type" : "VEC3"
        },
        {
            "bufferView" : 5,
            "componentType" : 5126,
            "count" : 241,
            "type" : "VEC3"
        },
        {
            "bufferView" : 6,
            "componentType" : 5126,
            "count" : 241,
            "type" : "VEC2"
        },
        {
            "bufferView" : 7,
            "componentType" : 5123,
            "count" : 540,
            "type" : "SCALAR"
        }
    ],
    "bufferViews" : [
        {
            "buffer" : 0,
            "byteLength" : 2652,
            "byteOffset" : 0
        },
        {
            "buffer" : 0,
            "byteLength" : 2652,
            "byteOffset" : 2652
        },
        {
            "buffer" : 0,
            "byteLength" : 1768,
            "byteOffset" : 5304
        },
        {
            "buffer" : 0,
            "byteLength" : 900,
            "byteOffset" : 7072
        },
        {
            "buffer" : 0,
            "byteLength" : 2892,
            "byteOffset" : 7972
        },
        {
            "buffer" : 0,
            "byteLength" : 2892,
            "byteOffset" : 10864
        },
        {
            "buffer" : 0,
            "byteLength" : 1928,
            "byteOffset" : 13756
        },
        {
            "buffer" : 0,
            "byteLength" : 1080,
            "byteOffset" : 15684
        }
    ],
    "samplers" : [
        {
            "magFilter" : 9729,
            "minFilter" : 9987
        }
    ],
    "buffers" : [
        {
            "byteLength" : 16764,
            "uri" : "egypt_sidebend_2.bin"
        }
    ]
}
