{
    "asset" : {
        "generator" : "Khronos glTF Blender I/O v1.8.19",
        "version" : "2.0"
    },
    "scene" : 0,
    "scenes" : [
        {
            "name" : "Scene",
            "nodes" : [
                0,
                1
            ]
        }
    ],
    "nodes" : [
        {
            "mesh" : 0,
            "name" : "egypt_env_column_02_glb"
        },
        {
            "mesh" : 1,
            "name" : "egypt_env_column_02_collider"
        }
    ],
    "materials" : [
        {
            "doubleSided" : true,
            "name" : "color_atlas",
            "pbrMetallicRoughness" : {
                "baseColorTexture" : {
                    "index" : 0
                },
                "metallicFactor" : 0,
                "roughnessFactor" : 0.6000000238418579
            }
        }
    ],
    "meshes" : [
        {
            "name" : "egypt_env_column_02_glb",
            "primitives" : [
                {
                    "attributes" : {
                        "POSITION" : 0,
                        "NORMAL" : 1,
                        "TEXCOORD_0" : 2
                    },
                    "indices" : 3,
                    "material" : 0
                }
            ]
        },
        {
            "name" : "egypt_env_column_02_collider",
            "primitives" : [
                {
                    "attributes" : {
                        "POSITION" : 4,
                        "NORMAL" : 5,
                        "TEXCOORD_0" : 6
                    },
                    "indices" : 7
                }
            ]
        }
    ],
    "textures" : [
        {
            "sampler" : 0,
            "source" : 0
        }
    ],
    "images" : [
        {
            "mimeType" : "image/png",
            "name" : "MT_Color_Atlas",
            "uri" : "textures/MT_Color_Atlas.png"
        }
    ],
    "accessors" : [
        {
            "bufferView" : 0,
            "componentType" : 5126,
            "count" : 541,
            "max" : [
                0.5738477110862732,
                3.9999966621398926,
                0.6188935041427612
            ],
            "min" : [
                -0.5738477110862732,
                0,
                -0.6188935041427612
            ],
            "type" : "VEC3"
        },
        {
            "bufferView" : 1,
            "componentType" : 5126,
            "count" : 541,
            "type" : "VEC3"
        },
        {
            "bufferView" : 2,
            "componentType" : 5126,
            "count" : 541,
            "type" : "VEC2"
        },
        {
            "bufferView" : 3,
            "componentType" : 5123,
            "count" : 873,
            "type" : "SCALAR"
        },
        {
            "bufferView" : 4,
            "componentType" : 5126,
            "count" : 88,
            "max" : [
                0.580424964427948,
                3.9999966621398926,
                0.6216253042221069
            ],
            "min" : [
                -0.580424964427948,
                0,
                -0.6216253042221069
            ],
            "type" : "VEC3"
        },
        {
            "bufferView" : 5,
            "componentType" : 5126,
            "count" : 88,
            "type" : "VEC3"
        },
        {
            "bufferView" : 6,
            "componentType" : 5126,
            "count" : 88,
            "type" : "VEC2"
        },
        {
            "bufferView" : 7,
            "componentType" : 5123,
            "count" : 132,
            "type" : "SCALAR"
        }
    ],
    "bufferViews" : [
        {
            "buffer" : 0,
            "byteLength" : 6492,
            "byteOffset" : 0
        },
        {
            "buffer" : 0,
            "byteLength" : 6492,
            "byteOffset" : 6492
        },
        {
            "buffer" : 0,
            "byteLength" : 4328,
            "byteOffset" : 12984
        },
        {
            "buffer" : 0,
            "byteLength" : 1746,
            "byteOffset" : 17312
        },
        {
            "buffer" : 0,
            "byteLength" : 1056,
            "byteOffset" : 19060
        },
        {
            "buffer" : 0,
            "byteLength" : 1056,
            "byteOffset" : 20116
        },
        {
            "buffer" : 0,
            "byteLength" : 704,
            "byteOffset" : 21172
        },
        {
            "buffer" : 0,
            "byteLength" : 264,
            "byteOffset" : 21876
        }
    ],
    "samplers" : [
        {
            "magFilter" : 9729,
            "minFilter" : 9987
        }
    ],
    "buffers" : [
        {
            "byteLength" : 22140,
            "uri" : "egypt_env_column_02.bin"
        }
    ]
}
