{
    "asset" : {
        "generator" : "Khronos glTF Blender I/O v1.7.33",
        "version" : "2.0"
    },
    "scene" : 1,
    "scenes" : [
        {
            "name" : "Ball"
        },
        {
            "name" : "Parts",
            "nodes" : [
                0,
                1,
                3
            ]
        }
    ],
    "nodes" : [
        {
            "mesh" : 0,
            "name" : "End_depth_glb"
        },
        {
            "mesh" : 1,
            "name" : "End_depth_collider"
        },
        {
            "name" : "Bone",
            "rotation" : [
                0,
                0,
                1,
                0
            ],
            "scale" : [
                0,
                0,
                0
            ]
        },
        {
            "children" : [
                2
            ],
            "name" : "LandMine_Armature_glb"
        }
    ],
    "animations" : [
        {
            "channels" : [
                {
                    "sampler" : 0,
                    "target" : {
                        "node" : 2,
                        "path" : "translation"
                    }
                },
                {
                    "sampler" : 1,
                    "target" : {
                        "node" : 2,
                        "path" : "rotation"
                    }
                },
                {
                    "sampler" : 2,
                    "target" : {
                        "node" : 2,
                        "path" : "scale"
                    }
                }
            ],
            "name" : "action",
            "samplers" : [
                {
                    "input" : 18,
                    "interpolation" : "LINEAR",
                    "output" : 19
                },
                {
                    "input" : 18,
                    "interpolation" : "LINEAR",
                    "output" : 20
                },
                {
                    "input" : 18,
                    "interpolation" : "LINEAR",
                    "output" : 21
                }
            ]
        },
        {
            "channels" : [
                {
                    "sampler" : 0,
                    "target" : {
                        "node" : 2,
                        "path" : "translation"
                    }
                },
                {
                    "sampler" : 1,
                    "target" : {
                        "node" : 2,
                        "path" : "rotation"
                    }
                },
                {
                    "sampler" : 2,
                    "target" : {
                        "node" : 2,
                        "path" : "scale"
                    }
                }
            ],
            "name" : "idle",
            "samplers" : [
                {
                    "input" : 22,
                    "interpolation" : "LINEAR",
                    "output" : 23
                },
                {
                    "input" : 22,
                    "interpolation" : "LINEAR",
                    "output" : 24
                },
                {
                    "input" : 22,
                    "interpolation" : "LINEAR",
                    "output" : 25
                }
            ]
        }
    ],
    "materials" : [
        {
            "doubleSided" : true,
            "name" : "Wood",
            "pbrMetallicRoughness" : {
                "baseColorTexture" : {
                    "index" : 0
                },
                "metallicFactor" : 0,
                "roughnessFactor" : 0.9318181872367859
            }
        },
        {
            "doubleSided" : true,
            "name" : "White",
            "pbrMetallicRoughness" : {
                "baseColorFactor" : [
                    0.9960784316062927,
                    0.9960784316062927,
                    0.9960784316062927,
                    1
                ],
                "metallicFactor" : 0,
                "roughnessFactor" : 0.5
            }
        },
        {
            "doubleSided" : true,
            "name" : "Grass",
            "pbrMetallicRoughness" : {
                "baseColorTexture" : {
                    "index" : 1
                },
                "metallicFactor" : 0,
                "roughnessFactor" : 0.7227272987365723
            }
        }
    ],
    "meshes" : [
        {
            "name" : "ID3.087",
            "primitives" : [
                {
                    "attributes" : {
                        "POSITION" : 0,
                        "NORMAL" : 1,
                        "TEXCOORD_0" : 2
                    },
                    "indices" : 3,
                    "material" : 0
                },
                {
                    "attributes" : {
                        "POSITION" : 4,
                        "NORMAL" : 5,
                        "TEXCOORD_0" : 6
                    },
                    "indices" : 7,
                    "material" : 1
                },
                {
                    "attributes" : {
                        "POSITION" : 8,
                        "NORMAL" : 9,
                        "TEXCOORD_0" : 10
                    },
                    "indices" : 11,
                    "material" : 2
                }
            ]
        },
        {
            "name" : "ID3.108",
            "primitives" : [
                {
                    "attributes" : {
                        "POSITION" : 12,
                        "NORMAL" : 13,
                        "TEXCOORD_0" : 14
                    },
                    "indices" : 7,
                    "material" : 1
                },
                {
                    "attributes" : {
                        "POSITION" : 15,
                        "NORMAL" : 16,
                        "TEXCOORD_0" : 17
                    },
                    "indices" : 11,
                    "material" : 2
                }
            ]
        }
    ],
    "textures" : [
        {
            "sampler" : 0,
            "source" : 0
        },
        {
            "sampler" : 0,
            "source" : 1
        }
    ],
    "images" : [
        {
            "mimeType" : "image/jpeg",
            "name" : "planksDark_BC",
            "uri" : "textures/planksDark_BC.jpg"
        },
        {
            "mimeType" : "image/jpeg",
            "name" : "Grass",
            "uri" : "textures/Grass.jpg"
        }
    ],
    "accessors" : [
        {
            "bufferView" : 0,
            "componentType" : 5126,
            "count" : 74,
            "max" : [
                2,
                0.7500000596046448,
                2
            ],
            "min" : [
                -2,
                0,
                -2
            ],
            "type" : "VEC3"
        },
        {
            "bufferView" : 1,
            "componentType" : 5126,
            "count" : 74,
            "type" : "VEC3"
        },
        {
            "bufferView" : 2,
            "componentType" : 5126,
            "count" : 74,
            "type" : "VEC2"
        },
        {
            "bufferView" : 3,
            "componentType" : 5123,
            "count" : 144,
            "type" : "SCALAR"
        },
        {
            "bufferView" : 4,
            "componentType" : 5126,
            "count" : 32,
            "max" : [
                0.39065617322921753,
                0.13535431027412415,
                0.39611417055130005
            ],
            "min" : [
                -0.39065617322921753,
                0.06035425513982773,
                -0.38156649470329285
            ],
            "type" : "VEC3"
        },
        {
            "bufferView" : 5,
            "componentType" : 5126,
            "count" : 32,
            "type" : "VEC3"
        },
        {
            "bufferView" : 6,
            "componentType" : 5126,
            "count" : 32,
            "type" : "VEC2"
        },
        {
            "bufferView" : 7,
            "componentType" : 5123,
            "count" : 48,
            "type" : "SCALAR"
        },
        {
            "bufferView" : 8,
            "componentType" : 5126,
            "count" : 72,
            "max" : [
                1.7500001192092896,
                0.5,
                1.7500001192092896
            ],
            "min" : [
                -1.7500001192092896,
                0,
                -2
            ],
            "type" : "VEC3"
        },
        {
            "bufferView" : 9,
            "componentType" : 5126,
            "count" : 72,
            "type" : "VEC3"
        },
        {
            "bufferView" : 10,
            "componentType" : 5126,
            "count" : 72,
            "type" : "VEC2"
        },
        {
            "bufferView" : 11,
            "componentType" : 5123,
            "count" : 144,
            "type" : "SCALAR"
        },
        {
            "bufferView" : 12,
            "componentType" : 5126,
            "count" : 32,
            "max" : [
                0.39065617322921753,
                0.13535431027412415,
                0.39611417055130005
            ],
            "min" : [
                -0.39065617322921753,
                0.06035425513982773,
                -0.38156649470329285
            ],
            "type" : "VEC3"
        },
        {
            "bufferView" : 13,
            "componentType" : 5126,
            "count" : 32,
            "type" : "VEC3"
        },
        {
            "bufferView" : 14,
            "componentType" : 5126,
            "count" : 32,
            "type" : "VEC2"
        },
        {
            "bufferView" : 15,
            "componentType" : 5126,
            "count" : 72,
            "max" : [
                1.7500001192092896,
                0.5,
                1.7500001192092896
            ],
            "min" : [
                -1.7500001192092896,
                0,
                -2
            ],
            "type" : "VEC3"
        },
        {
            "bufferView" : 16,
            "componentType" : 5126,
            "count" : 72,
            "type" : "VEC3"
        },
        {
            "bufferView" : 17,
            "componentType" : 5126,
            "count" : 72,
            "type" : "VEC2"
        },
        {
            "bufferView" : 18,
            "componentType" : 5126,
            "count" : 2,
            "max" : [
                0.3333333333333333
            ],
            "min" : [
                0.016666666666666666
            ],
            "type" : "SCALAR"
        },
        {
            "bufferView" : 19,
            "componentType" : 5126,
            "count" : 2,
            "type" : "VEC3"
        },
        {
            "bufferView" : 20,
            "componentType" : 5126,
            "count" : 2,
            "type" : "VEC4"
        },
        {
            "bufferView" : 21,
            "componentType" : 5126,
            "count" : 2,
            "type" : "VEC3"
        },
        {
            "bufferView" : 22,
            "componentType" : 5126,
            "count" : 1,
            "max" : [
                0.016666666666666666
            ],
            "min" : [
                0.016666666666666666
            ],
            "type" : "SCALAR"
        },
        {
            "bufferView" : 23,
            "componentType" : 5126,
            "count" : 1,
            "type" : "VEC3"
        },
        {
            "bufferView" : 24,
            "componentType" : 5126,
            "count" : 1,
            "type" : "VEC4"
        },
        {
            "bufferView" : 25,
            "componentType" : 5126,
            "count" : 1,
            "type" : "VEC3"
        }
    ],
    "bufferViews" : [
        {
            "buffer" : 0,
            "byteLength" : 888,
            "byteOffset" : 0
        },
        {
            "buffer" : 0,
            "byteLength" : 888,
            "byteOffset" : 888
        },
        {
            "buffer" : 0,
            "byteLength" : 592,
            "byteOffset" : 1776
        },
        {
            "buffer" : 0,
            "byteLength" : 288,
            "byteOffset" : 2368
        },
        {
            "buffer" : 0,
            "byteLength" : 384,
            "byteOffset" : 2656
        },
        {
            "buffer" : 0,
            "byteLength" : 384,
            "byteOffset" : 3040
        },
        {
            "buffer" : 0,
            "byteLength" : 256,
            "byteOffset" : 3424
        },
        {
            "buffer" : 0,
            "byteLength" : 96,
            "byteOffset" : 3680
        },
        {
            "buffer" : 0,
            "byteLength" : 864,
            "byteOffset" : 3776
        },
        {
            "buffer" : 0,
            "byteLength" : 864,
            "byteOffset" : 4640
        },
        {
            "buffer" : 0,
            "byteLength" : 576,
            "byteOffset" : 5504
        },
        {
            "buffer" : 0,
            "byteLength" : 288,
            "byteOffset" : 6080
        },
        {
            "buffer" : 0,
            "byteLength" : 384,
            "byteOffset" : 6368
        },
        {
            "buffer" : 0,
            "byteLength" : 384,
            "byteOffset" : 6752
        },
        {
            "buffer" : 0,
            "byteLength" : 256,
            "byteOffset" : 7136
        },
        {
            "buffer" : 0,
            "byteLength" : 864,
            "byteOffset" : 7392
        },
        {
            "buffer" : 0,
            "byteLength" : 864,
            "byteOffset" : 8256
        },
        {
            "buffer" : 0,
            "byteLength" : 576,
            "byteOffset" : 9120
        },
        {
            "buffer" : 0,
            "byteLength" : 8,
            "byteOffset" : 9696
        },
        {
            "buffer" : 0,
            "byteLength" : 24,
            "byteOffset" : 9704
        },
        {
            "buffer" : 0,
            "byteLength" : 32,
            "byteOffset" : 9728
        },
        {
            "buffer" : 0,
            "byteLength" : 24,
            "byteOffset" : 9760
        },
        {
            "buffer" : 0,
            "byteLength" : 4,
            "byteOffset" : 9784
        },
        {
            "buffer" : 0,
            "byteLength" : 12,
            "byteOffset" : 9788
        },
        {
            "buffer" : 0,
            "byteLength" : 16,
            "byteOffset" : 9800
        },
        {
            "buffer" : 0,
            "byteLength" : 12,
            "byteOffset" : 9816
        }
    ],
    "samplers" : [
        {
            "magFilter" : 9729,
            "minFilter" : 9987
        }
    ],
    "buffers" : [
        {
            "byteLength" : 9828,
            "uri" : "End_depth.bin"
        }
    ]
}
   