{
    "asset" : {
        "generator" : "Khronos glTF Blender I/O v3.4.50",
        "version" : "2.0"
    },
    "extensionsUsed" : [
        "KHR_materials_specular",
        "KHR_materials_ior"
    ],
    "scene" : 0,
    "scenes" : [
        {
            "name" : "Scene",
            "nodes" : [
                5
            ]
        }
    ],
    "nodes" : [
        {
            "name" : "coin_main",
            "rotation" : [
                0.7071068286895752,
                -2.2197248483735166e-07,
                -2.2197248483735166e-07,
                0.7071068286895752
            ],
            "translation" : [
                2.9802322387695312e-08,
                -4.500150680541992e-05,
                0
            ]
        },
        {
            "name" : "coin_shine_01",
            "rotation" : [
                1.3602105752852367e-07,
                -3.258412846207648e-07,
                -4.979923876155708e-14,
                1
            ],
            "scale" : [
                1,
                0.9999999403953552,
                0.9999999403953552
            ],
            "translation" : [
                2.9802322387695312e-08,
                -3.637978807091713e-12,
                4.500150680541992e-05
            ]
        },
        {
            "name" : "coin_shine_02",
            "rotation" : [
                1.1927716059290105e-07,
                -3.2584136988589307e-07,
                -3.888755365898805e-14,
                1
            ],
            "translation" : [
                1.7777310290512105e-08,
                -2.1700818225722784e-12,
                2.684373794181738e-05
            ]
        },
        {
            "mesh" : 0,
            "name" : "event_coin_gift",
            "skin" : 0
        },
        {
            "mesh" : 1,
            "name" : "event_coin_gift_collider"
        },
        {
            "children" : [
                3,
                4,
                0,
                1,
                2
            ],
            "name" : "coin_Armature"
        }
    ],
    "animations" : [
        {
            "channels" : [
                {
                    "sampler" : 0,
                    "target" : {
                        "node" : 0,
                        "path" : "translation"
                    }
                },
                {
                    "sampler" : 1,
                    "target" : {
                        "node" : 0,
                        "path" : "rotation"
                    }
                },
                {
                    "sampler" : 2,
                    "target" : {
                        "node" : 0,
                        "path" : "scale"
                    }
                },
                {
                    "sampler" : 3,
                    "target" : {
                        "node" : 1,
                        "path" : "translation"
                    }
                },
                {
                    "sampler" : 4,
                    "target" : {
                        "node" : 1,
                        "path" : "rotation"
                    }
                },
                {
                    "sampler" : 5,
                    "target" : {
                        "node" : 1,
                        "path" : "scale"
                    }
                },
                {
                    "sampler" : 6,
                    "target" : {
                        "node" : 2,
                        "path" : "translation"
                    }
                },
                {
                    "sampler" : 7,
                    "target" : {
                        "node" : 2,
                        "path" : "rotation"
                    }
                },
                {
                    "sampler" : 8,
                    "target" : {
                        "node" : 2,
                        "path" : "scale"
                    }
                }
            ],
            "name" : "0. idle",
            "samplers" : [
                {
                    "input" : 12,
                    "interpolation" : "LINEAR",
                    "output" : 13
                },
                {
                    "input" : 12,
                    "interpolation" : "LINEAR",
                    "output" : 14
                },
                {
                    "input" : 12,
                    "interpolation" : "LINEAR",
                    "output" : 15
                },
                {
                    "input" : 12,
                    "interpolation" : "LINEAR",
                    "output" : 16
                },
                {
                    "input" : 12,
                    "interpolation" : "LINEAR",
                    "output" : 17
                },
                {
                    "input" : 12,
                    "interpolation" : "LINEAR",
                    "output" : 18
                },
                {
                    "input" : 12,
                    "interpolation" : "LINEAR",
                    "output" : 19
                },
                {
                    "input" : 12,
                    "interpolation" : "LINEAR",
                    "output" : 20
                },
                {
                    "input" : 12,
                    "interpolation" : "LINEAR",
                    "output" : 21
                }
            ]
        },
        {
            "channels" : [
                {
                    "sampler" : 0,
                    "target" : {
                        "node" : 0,
                        "path" : "translation"
                    }
                },
                {
                    "sampler" : 1,
                    "target" : {
                        "node" : 0,
                        "path" : "rotation"
                    }
                },
                {
                    "sampler" : 2,
                    "target" : {
                        "node" : 0,
                        "path" : "scale"
                    }
                },
                {
                    "sampler" : 3,
                    "target" : {
                        "node" : 1,
                        "path" : "translation"
                    }
                },
                {
                    "sampler" : 4,
                    "target" : {
                        "node" : 1,
                        "path" : "rotation"
                    }
                },
                {
                    "sampler" : 5,
                    "target" : {
                        "node" : 1,
                        "path" : "scale"
                    }
                },
                {
                    "sampler" : 6,
                    "target" : {
                        "node" : 2,
                        "path" : "translation"
                    }
                },
                {
                    "sampler" : 7,
                    "target" : {
                        "node" : 2,
                        "path" : "rotation"
                    }
                },
                {
                    "sampler" : 8,
                    "target" : {
                        "node" : 2,
                        "path" : "scale"
                    }
                }
            ],
            "name" : "1. catch",
            "samplers" : [
                {
                    "input" : 22,
                    "interpolation" : "LINEAR",
                    "output" : 23
                },
                {
                    "input" : 22,
                    "interpolation" : "LINEAR",
                    "output" : 24
                },
                {
                    "input" : 22,
                    "interpolation" : "LINEAR",
                    "output" : 25
                },
                {
                    "input" : 22,
                    "interpolation" : "LINEAR",
                    "output" : 26
                },
                {
                    "input" : 22,
                    "interpolation" : "LINEAR",
                    "output" : 27
                },
                {
                    "input" : 22,
                    "interpolation" : "LINEAR",
                    "output" : 28
                },
                {
                    "input" : 22,
                    "interpolation" : "LINEAR",
                    "output" : 29
                },
                {
                    "input" : 22,
                    "interpolation" : "LINEAR",
                    "output" : 30
                },
                {
                    "input" : 22,
                    "interpolation" : "LINEAR",
                    "output" : 31
                }
            ]
        },
        {
            "channels" : [
                {
                    "sampler" : 0,
                    "target" : {
                        "node" : 4,
                        "path" : "translation"
                    }
                },
                {
                    "sampler" : 1,
                    "target" : {
                        "node" : 4,
                        "path" : "rotation"
                    }
                },
                {
                    "sampler" : 2,
                    "target" : {
                        "node" : 4,
                        "path" : "scale"
                    }
                }
            ],
            "name" : "event_coin_gift_collider",
            "samplers" : [
                {
                    "input" : 12,
                    "interpolation" : "LINEAR",
                    "output" : 32
                },
                {
                    "input" : 12,
                    "interpolation" : "LINEAR",
                    "output" : 33
                },
                {
                    "input" : 12,
                    "interpolation" : "LINEAR",
                    "output" : 34
                }
            ]
        }
    ],
    "materials" : [
        {
            "doubleSided" : true,
            "extensions" : {
                "KHR_materials_specular" : {
                    "specularColorFactor" : [
                        0,
                        0,
                        0
                    ]
                },
                "KHR_materials_ior" : {
                    "ior" : 1.4500000476837158
                }
            },
            "name" : "coin_gift",
            "pbrMetallicRoughness" : {
                "baseColorTexture" : {
                    "index" : 0
                },
                "metallicFactor" : 0,
                "roughnessFactor" : 0.5
            }
        }
    ],
    "meshes" : [
        {
            "name" : "Circle.001",
            "primitives" : [
                {
                    "attributes" : {
                        "POSITION" : 0,
                        "TEXCOORD_0" : 1,
                        "TEXCOORD_1" : 2,
                        "NORMAL" : 3,
                        "JOINTS_0" : 4,
                        "WEIGHTS_0" : 5
                    },
                    "indices" : 6,
                    "material" : 0
                }
            ]
        },
        {
            "name" : "Cube",
            "primitives" : [
                {
                    "attributes" : {
                        "POSITION" : 8,
                        "TEXCOORD_0" : 9,
                        "NORMAL" : 10
                    },
                    "indices" : 11
                }
            ]
        }
    ],
    "textures" : [
        {
            "sampler" : 0,
            "source" : 0
        }
    ],
    "images" : [
        {
            "mimeType" : "image/png",
            "name" : "event_coin_gift",
            "uri" : "textures/event_coin_gift.png"
        }
    ],
    "skins" : [
        {
            "inverseBindMatrices" : 7,
            "joints" : [
                0,
                1,
                2
            ],
            "name" : "coin_Armature"
        }
    ],
    "accessors" : [
        {
            "bufferView" : 0,
            "componentType" : 5126,
            "count" : 846,
            "max" : [
                0.15178775787353516,
                0.16443288326263428,
                0.047210078686475754
            ],
            "min" : [
                -0.15178769826889038,
                -0.13914257287979126,
                -0.04721008986234665
            ],
            "type" : "VEC3"
        },
        {
            "bufferView" : 1,
            "componentType" : 5126,
            "count" : 846,
            "type" : "VEC2"
        },
        {
            "bufferView" : 2,
            "componentType" : 5126,
            "count" : 846,
            "type" : "VEC2"
        },
        {
            "bufferView" : 3,
            "componentType" : 5126,
            "count" : 846,
            "type" : "VEC3"
        },
        {
            "bufferView" : 4,
            "componentType" : 5121,
            "count" : 846,
            "type" : "VEC4"
        },
        {
            "bufferView" : 5,
            "componentType" : 5126,
            "count" : 846,
            "type" : "VEC4"
        },
        {
            "bufferView" : 6,
            "componentType" : 5123,
            "count" : 2736,
            "type" : "SCALAR"
        },
        {
            "bufferView" : 7,
            "componentType" : 5126,
            "count" : 3,
            "type" : "MAT4"
        },
        {
            "bufferView" : 8,
            "componentType" : 5126,
            "count" : 24,
            "max" : [
                0.11762136220932007,
                0.16367840766906738,
                0.08946853876113892
            ],
            "min" : [
                -0.11762130260467529,
                -0.12991228699684143,
                -0.08946853876113892
            ],
            "type" : "VEC3"
        },
        {
            "bufferView" : 9,
            "componentType" : 5126,
            "count" : 24,
            "type" : "VEC2"
        },
        {
            "bufferView" : 10,
            "componentType" : 5126,
            "count" : 24,
            "type" : "VEC3"
        },
        {
            "bufferView" : 11,
            "componentType" : 5123,
            "count" : 36,
            "type" : "SCALAR"
        },
        {
            "bufferView" : 12,
            "componentType" : 5126,
            "count" : 91,
            "max" : [
                3
            ],
            "min" : [
                0
            ],
            "type" : "SCALAR"
        },
        {
            "bufferView" : 13,
            "componentType" : 5126,
            "count" : 91,
            "type" : "VEC3"
        },
        {
            "bufferView" : 14,
            "componentType" : 5126,
            "count" : 91,
            "type" : "VEC4"
        },
        {
            "bufferView" : 15,
            "componentType" : 5126,
            "count" : 91,
            "type" : "VEC3"
        },
        {
            "bufferView" : 16,
            "componentType" : 5126,
            "count" : 91,
            "type" : "VEC3"
        },
        {
            "bufferView" : 17,
            "componentType" : 5126,
            "count" : 91,
            "type" : "VEC4"
        },
        {
            "bufferView" : 18,
            "componentType" : 5126,
            "count" : 91,
            "type" : "VEC3"
        },
        {
            "bufferView" : 19,
            "componentType" : 5126,
            "count" : 91,
            "type" : "VEC3"
        },
        {
            "bufferView" : 20,
            "componentType" : 5126,
            "count" : 91,
            "type" : "VEC4"
        },
        {
            "bufferView" : 21,
            "componentType" : 5126,
            "count" : 91,
            "type" : "VEC3"
        },
        {
            "bufferView" : 22,
            "componentType" : 5126,
            "count" : 18,
            "max" : [
                0.5666666666666667
            ],
            "min" : [
                0
            ],
            "type" : "SCALAR"
        },
        {
            "bufferView" : 23,
            "componentType" : 5126,
            "count" : 18,
            "type" : "VEC3"
        },
        {
            "bufferView" : 24,
            "componentType" : 5126,
            "count" : 18,
            "type" : "VEC4"
        },
        {
            "bufferView" : 25,
            "componentType" : 5126,
            "count" : 18,
            "type" : "VEC3"
        },
        {
            "bufferView" : 26,
            "componentType" : 5126,
            "count" : 18,
            "type" : "VEC3"
        },
        {
            "bufferView" : 27,
            "componentType" : 5126,
            "count" : 18,
            "type" : "VEC4"
        },
        {
            "bufferView" : 28,
            "componentType" : 5126,
            "count" : 18,
            "type" : "VEC3"
        },
        {
            "bufferView" : 29,
            "componentType" : 5126,
            "count" : 18,
            "type" : "VEC3"
        },
        {
            "bufferView" : 30,
            "componentType" : 5126,
            "count" : 18,
            "type" : "VEC4"
        },
        {
            "bufferView" : 31,
            "componentType" : 5126,
            "count" : 18,
            "type" : "VEC3"
        },
        {
            "bufferView" : 32,
            "componentType" : 5126,
            "count" : 91,
            "type" : "VEC3"
        },
        {
            "bufferView" : 33,
            "componentType" : 5126,
            "count" : 91,
            "type" : "VEC4"
        },
        {
            "bufferView" : 34,
            "componentType" : 5126,
            "count" : 91,
            "type" : "VEC3"
        }
    ],
    "bufferViews" : [
        {
            "buffer" : 0,
            "byteLength" : 10152,
            "byteOffset" : 0,
            "target" : 34962
        },
        {
            "buffer" : 0,
            "byteLength" : 6768,
            "byteOffset" : 10152,
            "target" : 34962
        },
        {
            "buffer" : 0,
            "byteLength" : 6768,
            "byteOffset" : 16920,
            "target" : 34962
        },
        {
            "buffer" : 0,
            "byteLength" : 10152,
            "byteOffset" : 23688,
            "target" : 34962
        },
        {
            "buffer" : 0,
            "byteLength" : 3384,
            "byteOffset" : 33840,
            "target" : 34962
        },
        {
            "buffer" : 0,
            "byteLength" : 13536,
            "byteOffset" : 37224,
            "target" : 34962
        },
        {
            "buffer" : 0,
            "byteLength" : 5472,
            "byteOffset" : 50760,
            "target" : 34963
        },
        {
            "buffer" : 0,
            "byteLength" : 192,
            "byteOffset" : 56232
        },
        {
            "buffer" : 0,
            "byteLength" : 288,
            "byteOffset" : 56424,
            "target" : 34962
        },
        {
            "buffer" : 0,
            "byteLength" : 192,
            "byteOffset" : 56712,
            "target" : 34962
        },
        {
            "buffer" : 0,
            "byteLength" : 288,
            "byteOffset" : 56904,
            "target" : 34962
        },
        {
            "buffer" : 0,
            "byteLength" : 72,
            "byteOffset" : 57192,
            "target" : 34963
        },
        {
            "buffer" : 0,
            "byteLength" : 364,
            "byteOffset" : 57264
        },
        {
            "buffer" : 0,
            "byteLength" : 1092,
            "byteOffset" : 57628
        },
        {
            "buffer" : 0,
            "byteLength" : 1456,
            "byteOffset" : 58720
        },
        {
            "buffer" : 0,
            "byteLength" : 1092,
            "byteOffset" : 60176
        },
        {
            "buffer" : 0,
            "byteLength" : 1092,
            "byteOffset" : 61268
        },
        {
            "buffer" : 0,
            "byteLength" : 1456,
            "byteOffset" : 62360
        },
        {
            "buffer" : 0,
            "byteLength" : 1092,
            "byteOffset" : 63816
        },
        {
            "buffer" : 0,
            "byteLength" : 1092,
            "byteOffset" : 64908
        },
        {
            "buffer" : 0,
            "byteLength" : 1456,
            "byteOffset" : 66000
        },
        {
            "buffer" : 0,
            "byteLength" : 1092,
            "byteOffset" : 67456
        },
        {
            "buffer" : 0,
            "byteLength" : 72,
            "byteOffset" : 68548
        },
        {
            "buffer" : 0,
            "byteLength" : 216,
            "byteOffset" : 68620
        },
        {
            "buffer" : 0,
            "byteLength" : 288,
            "byteOffset" : 68836
        },
        {
            "buffer" : 0,
            "byteLength" : 216,
            "byteOffset" : 69124
        },
        {
            "buffer" : 0,
            "byteLength" : 216,
            "byteOffset" : 69340
        },
        {
            "buffer" : 0,
            "byteLength" : 288,
            "byteOffset" : 69556
        },
        {
            "buffer" : 0,
            "byteLength" : 216,
            "byteOffset" : 69844
        },
        {
            "buffer" : 0,
            "byteLength" : 216,
            "byteOffset" : 70060
        },
        {
            "buffer" : 0,
            "byteLength" : 288,
            "byteOffset" : 70276
        },
        {
            "buffer" : 0,
            "byteLength" : 216,
            "byteOffset" : 70564
        },
        {
            "buffer" : 0,
            "byteLength" : 1092,
            "byteOffset" : 70780
        },
        {
            "buffer" : 0,
            "byteLength" : 1456,
            "byteOffset" : 71872
        },
        {
            "buffer" : 0,
            "byteLength" : 1092,
            "byteOffset" : 73328
        }
    ],
    "samplers" : [
        {
            "magFilter" : 9729,
            "minFilter" : 9987
        }
    ],
    "buffers" : [
        {
            "byteLength" : 74420,
            "uri" : "event_coin_gift.bin"
        }
    ]
}
