{
    "asset" : {
        "generator" : "Khronos glTF Blender I/O v1.7.33",
        "version" : "2.0"
    },
    "scene" : 1,
    "scenes" : [
        {
            "name" : "Ball"
        },
        {
            "name" : "Parts",
            "nodes" : [
                0,
                1,
                2
            ]
        }
    ],
    "nodes" : [
        {
            "mesh" : 0,
            "name" : "Fan_glb"
        },
        {
            "mesh" : 1,
            "name" : "Fan_base_glb"
        },
        {
            "mesh" : 2,
            "name" : "Fan_collider"
        }
    ],
    "materials" : [
        {
            "doubleSided" : true,
            "name" : "Atlas",
            "pbrMetallicRoughness" : {
                "baseColorTexture" : {
                    "index" : 0
                },
                "metallicFactor" : 0,
                "roughnessFactor" : 0.968181848526001
            }
        }
    ],
    "meshes" : [
        {
            "name" : "fan",
            "primitives" : [
                {
                    "attributes" : {
                        "POSITION" : 0,
                        "NORMAL" : 1,
                        "TEXCOORD_0" : 2
                    },
                    "indices" : 3,
                    "material" : 0
                }
            ]
        },
        {
            "name" : "Cylinder.009",
            "primitives" : [
                {
                    "attributes" : {
                        "POSITION" : 4,
                        "NORMAL" : 5,
                        "TEXCOORD_0" : 6
                    },
                    "indices" : 7,
                    "material" : 0
                }
            ]
        },
        {
            "name" : "Cylinder.005",
            "primitives" : [
                {
                    "attributes" : {
                        "POSITION" : 8,
                        "NORMAL" : 9,
                        "TEXCOORD_0" : 10
                    },
                    "indices" : 11
                }
            ]
        }
    ],
    "textures" : [
        {
            "sampler" : 0,
            "source" : 0
        }
    ],
    "images" : [
        {
            "mimeType" : "image/png",
            "name" : "AvatarWearables_TX",
            "uri" : "textures/AvatarWearables_TX.png"
        }
    ],
    "accessors" : [
        {
            "bufferView" : 0,
            "componentType" : 5126,
            "count" : 62,
            "max" : [
                0.2920182943344116,
                0.17409038543701172,
                0.2610456049442291
            ],
            "min" : [
                -0.2502923607826233,
                0.12465543299913406,
                -0.29897382855415344
            ],
            "type" : "VEC3"
        },
        {
            "bufferView" : 1,
            "componentType" : 5126,
            "count" : 62,
            "type" : "VEC3"
        },
        {
            "bufferView" : 2,
            "componentType" : 5126,
            "count" : 62,
            "type" : "VEC2"
        },
        {
            "bufferView" : 3,
            "componentType" : 5123,
            "count" : 168,
            "type" : "SCALAR"
        },
        {
            "bufferView" : 4,
            "componentType" : 5126,
            "count" : 42,
            "max" : [
                0.1350480616092682,
                0.10891109704971313,
                0.14593392610549927
            ],
            "min" : [
                -0.1350480318069458,
                -0.01194329746067524,
                -0.13806192576885223
            ],
            "type" : "VEC3"
        },
        {
            "bufferView" : 5,
            "componentType" : 5126,
            "count" : 42,
            "type" : "VEC3"
        },
        {
            "bufferView" : 6,
            "componentType" : 5126,
            "count" : 42,
            "type" : "VEC2"
        },
        {
            "bufferView" : 7,
            "componentType" : 5123,
            "count" : 108,
            "type" : "SCALAR"
        },
        {
            "bufferView" : 8,
            "componentType" : 5126,
            "count" : 60,
            "max" : [
                0.1350480616092682,
                0.13435301184654236,
                0.14593394100666046
            ],
            "min" : [
                -0.1350480318069458,
                -0.01194329746067524,
                -0.13806192576885223
            ],
            "type" : "VEC3"
        },
        {
            "bufferView" : 9,
            "componentType" : 5126,
            "count" : 60,
            "type" : "VEC3"
        },
        {
            "bufferView" : 10,
            "componentType" : 5126,
            "count" : 60,
            "type" : "VEC2"
        },
        {
            "bufferView" : 11,
            "componentType" : 5123,
            "count" : 108,
            "type" : "SCALAR"
        }
    ],
    "bufferViews" : [
        {
            "buffer" : 0,
            "byteLength" : 744,
            "byteOffset" : 0
        },
        {
            "buffer" : 0,
            "byteLength" : 744,
            "byteOffset" : 744
        },
        {
            "buffer" : 0,
            "byteLength" : 496,
            "byteOffset" : 1488
        },
        {
            "buffer" : 0,
            "byteLength" : 336,
            "byteOffset" : 1984
        },
        {
            "buffer" : 0,
            "byteLength" : 504,
            "byteOffset" : 2320
        },
        {
            "buffer" : 0,
            "byteLength" : 504,
            "byteOffset" : 2824
        },
        {
            "buffer" : 0,
            "byteLength" : 336,
            "byteOffset" : 3328
        },
        {
            "buffer" : 0,
            "byteLength" : 216,
            "byteOffset" : 3664
        },
        {
            "buffer" : 0,
            "byteLength" : 720,
            "byteOffset" : 3880
        },
        {
            "buffer" : 0,
            "byteLength" : 720,
            "byteOffset" : 4600
        },
        {
            "buffer" : 0,
            "byteLength" : 480,
            "byteOffset" : 5320
        },
        {
            "buffer" : 0,
            "byteLength" : 216,
            "byteOffset" : 5800
        }
    ],
    "samplers" : [
        {
            "magFilter" : 9729,
            "minFilter" : 9987
        }
    ],
    "buffers" : [
        {
            "byteLength" : 6016,
            "uri" : "Fan.bin"
        }
    ]
}
   