{
    "asset" : {
        "generator" : "Khronos glTF Blender I/O v1.6.16",
        "version" : "2.0"
    },
    "scene" : 1,
    "scenes" : [
        {
            "name" : "Ball"
        },
        {
            "name" : "Parts",
            "nodes" : [
                0,
                1,
                2,
                3
            ]
        }
    ],
    "nodes" : [
        {
            "mesh" : 0,
            "name" : "House7_glb"
        },
        {
            "mesh" : 1,
            "name" : "House7_collider"
        },
        {
            "mesh" : 2,
            "name" : "House7_ramp_collider"
        },
        {
            "mesh" : 3,
            "name" : "House7_floor_collider",
            "scale" : [
                1.2327924966812134,
                1,
                1.8199421167373657
            ],
            "translation" : [
                0,
                0.5,
                0
            ]
        }
    ],
    "meshes" : [
        {
            "name" : "Cube.008",
            "primitives" : [
                {
                    "attributes" : {
                        "POSITION" : 0,
                        "NORMAL" : 1,
                        "TEXCOORD_0" : 2
                    },
                    "indices" : 3
                }
            ]
        },
        {
            "name" : "Cube.013",
            "primitives" : [
                {
                    "attributes" : {
                        "POSITION" : 4,
                        "NORMAL" : 5,
                        "TEXCOORD_0" : 6
                    },
                    "indices" : 7
                }
            ]
        },
        {
            "name" : "Cube.014",
            "primitives" : [
                {
                    "attributes" : {
                        "POSITION" : 8,
                        "NORMAL" : 9,
                        "TEXCOORD_0" : 10
                    },
                    "indices" : 11
                }
            ]
        },
        {
            "name" : "Plane.006",
            "primitives" : [
                {
                    "attributes" : {
                        "POSITION" : 12,
                        "NORMAL" : 13,
                        "TEXCOORD_0" : 14
                    },
                    "indices" : 15
                }
            ]
        }
    ],
    "accessors" : [
        {
            "bufferView" : 0,
            "componentType" : 5126,
            "count" : 253,
            "max" : [
                7.086727619171143,
                3.701263189315796,
                1.5
            ],
            "min" : [
                0,
                0,
                -9.06645393371582
            ],
            "type" : "VEC3"
        },
        {
            "bufferView" : 1,
            "componentType" : 5126,
            "count" : 253,
            "type" : "VEC3"
        },
        {
            "bufferView" : 2,
            "componentType" : 5126,
            "count" : 253,
            "type" : "VEC2"
        },
        {
            "bufferView" : 3,
            "componentType" : 5123,
            "count" : 543,
            "type" : "SCALAR"
        },
        {
            "bufferView" : 4,
            "componentType" : 5126,
            "count" : 138,
            "max" : [
                7.125000476837158,
                3.6818854808807373,
                0
            ],
            "min" : [
                -0.04651927947998047,
                0,
                -9.103775978088379
            ],
            "type" : "VEC3"
        },
        {
            "bufferView" : 5,
            "componentType" : 5126,
            "count" : 138,
            "type" : "VEC3"
        },
        {
            "bufferView" : 6,
            "componentType" : 5126,
            "count" : 138,
            "type" : "VEC2"
        },
        {
            "bufferView" : 7,
            "componentType" : 5123,
            "count" : 240,
            "type" : "SCALAR"
        },
        {
            "bufferView" : 8,
            "componentType" : 5126,
            "count" : 17,
            "max" : [
                4.237656116485596,
                0.5,
                1.5
            ],
            "min" : [
                2.809776544570923,
                0,
                0
            ],
            "type" : "VEC3"
        },
        {
            "bufferView" : 9,
            "componentType" : 5126,
            "count" : 17,
            "type" : "VEC3"
        },
        {
            "bufferView" : 10,
            "componentType" : 5126,
            "count" : 17,
            "type" : "VEC2"
        },
        {
            "bufferView" : 11,
            "componentType" : 5123,
            "count" : 21,
            "type" : "SCALAR"
        },
        {
            "bufferView" : 12,
            "componentType" : 5126,
            "count" : 4,
            "max" : [
                5.764967918395996,
                0,
                -0.006046295166015625
            ],
            "min" : [
                -0.014967679977416992,
                0,
                -4.993953704833984
            ],
            "type" : "VEC3"
        },
        {
            "bufferView" : 13,
            "componentType" : 5126,
            "count" : 4,
            "type" : "VEC3"
        },
        {
            "bufferView" : 14,
            "componentType" : 5126,
            "count" : 4,
            "type" : "VEC2"
        },
        {
            "bufferView" : 15,
            "componentType" : 5123,
            "count" : 6,
            "type" : "SCALAR"
        }
    ],
    "bufferViews" : [
        {
            "buffer" : 0,
            "byteLength" : 3036,
            "byteOffset" : 0
        },
        {
            "buffer" : 0,
            "byteLength" : 3036,
            "byteOffset" : 3036
        },
        {
            "buffer" : 0,
            "byteLength" : 2024,
            "byteOffset" : 6072
        },
        {
            "buffer" : 0,
            "byteLength" : 1086,
            "byteOffset" : 8096
        },
        {
            "buffer" : 0,
            "byteLength" : 1656,
            "byteOffset" : 9184
        },
        {
            "buffer" : 0,
            "byteLength" : 1656,
            "byteOffset" : 10840
        },
        {
            "buffer" : 0,
            "byteLength" : 1104,
            "byteOffset" : 12496
        },
        {
            "buffer" : 0,
            "byteLength" : 480,
            "byteOffset" : 13600
        },
        {
            "buffer" : 0,
            "byteLength" : 204,
            "byteOffset" : 14080
        },
        {
            "buffer" : 0,
            "byteLength" : 204,
            "byteOffset" : 14284
        },
        {
            "buffer" : 0,
            "byteLength" : 136,
            "byteOffset" : 14488
        },
        {
            "buffer" : 0,
            "byteLength" : 42,
            "byteOffset" : 14624
        },
        {
            "buffer" : 0,
            "byteLength" : 48,
            "byteOffset" : 14668
        },
        {
            "buffer" : 0,
            "byteLength" : 48,
            "byteOffset" : 14716
        },
        {
            "buffer" : 0,
            "byteLength" : 32,
            "byteOffset" : 14764
        },
        {
            "buffer" : 0,
            "byteLength" : 12,
            "byteOffset" : 14796
        }
    ],
    "buffers" : [
        {
            "byteLength" : 14808,
            "uri" : "House7.bin"
        }
    ]
}
   