{
    "asset" : {
        "generator" : "Khronos glTF Blender I/O v1.7.33",
        "version" : "2.0"
    },
    "scene" : 1,
    "scenes" : [
        {
            "name" : "Ball"
        },
        {
            "name" : "Parts",
            "nodes" : [
                0,
                1
            ]
        }
    ],
    "nodes" : [
        {
            "mesh" : 0,
            "name" : "ChineseHouse_glb"
        },
        {
            "mesh" : 1,
            "name" : "ChineseHouse_collider"
        }
    ],
    "materials" : [
        {
            "name" : "MiniTown_MAT.003",
            "pbrMetallicRoughness" : {
                "baseColorTexture" : {
                    "index" : 0
                },
                "metallicFactor" : 0
            }
        },
        {
            "name" : "default.002",
            "pbrMetallicRoughness" : {}
        }
    ],
    "meshes" : [
        {
            "name" : "Untitled.315",
            "primitives" : [
                {
                    "attributes" : {
                        "POSITION" : 0,
                        "NORMAL" : 1,
                        "TEXCOORD_0" : 2
                    },
                    "indices" : 3,
                    "material" : 0
                }
            ]
        },
        {
            "name" : "Cube.648",
            "primitives" : [
                {
                    "attributes" : {
                        "POSITION" : 4,
                        "NORMAL" : 5,
                        "TEXCOORD_0" : 6
                    },
                    "indices" : 7,
                    "material" : 1
                }
            ]
        }
    ],
    "textures" : [
        {
            "sampler" : 0,
            "source" : 0
        }
    ],
    "images" : [
        {
            "mimeType" : "image/png",
            "name" : "file1",
            "uri" : "textures/file1.png"
        }
    ],
    "accessors" : [
        {
            "bufferView" : 0,
            "componentType" : 5126,
            "count" : 2734,
            "max" : [
                6.031741142272949,
                11.801653861999512,
                5.3571696281433105
            ],
            "min" : [
                -6.032566070556641,
                0.000653762836009264,
                -5.002604007720947
            ],
            "type" : "VEC3"
        },
        {
            "bufferView" : 1,
            "componentType" : 5126,
            "count" : 2734,
            "type" : "VEC3"
        },
        {
            "bufferView" : 2,
            "componentType" : 5126,
            "count" : 2734,
            "type" : "VEC2"
        },
        {
            "bufferView" : 3,
            "componentType" : 5123,
            "count" : 3612,
            "type" : "SCALAR"
        },
        {
            "bufferView" : 4,
            "componentType" : 5126,
            "count" : 612,
            "max" : [
                6.025727272033691,
                4.633495330810547,
                5.341579437255859
            ],
            "min" : [
                -6.025727272033691,
                -0.0028027966618537903,
                -4.986412048339844
            ],
            "type" : "VEC3"
        },
        {
            "bufferView" : 5,
            "componentType" : 5126,
            "count" : 612,
            "type" : "VEC3"
        },
        {
            "bufferView" : 6,
            "componentType" : 5126,
            "count" : 612,
            "type" : "VEC2"
        },
        {
            "bufferView" : 7,
            "componentType" : 5123,
            "count" : 942,
            "type" : "SCALAR"
        }
    ],
    "bufferViews" : [
        {
            "buffer" : 0,
            "byteLength" : 32808,
            "byteOffset" : 0
        },
        {
            "buffer" : 0,
            "byteLength" : 32808,
            "byteOffset" : 32808
        },
        {
            "buffer" : 0,
            "byteLength" : 21872,
            "byteOffset" : 65616
        },
        {
            "buffer" : 0,
            "byteLength" : 7224,
            "byteOffset" : 87488
        },
        {
            "buffer" : 0,
            "byteLength" : 7344,
            "byteOffset" : 94712
        },
        {
            "buffer" : 0,
            "byteLength" : 7344,
            "byteOffset" : 102056
        },
        {
            "buffer" : 0,
            "byteLength" : 4896,
            "byteOffset" : 109400
        },
        {
            "buffer" : 0,
            "byteLength" : 1884,
            "byteOffset" : 114296
        }
    ],
    "samplers" : [
        {
            "magFilter" : 9729,
            "minFilter" : 9987
        }
    ],
    "buffers" : [
        {
            "byteLength" : 116180,
            "uri" : "HouseChinese.bin"
        }
    ]
}
   