{
    "asset" : {
        "generator" : "Khronos glTF Blender I/O v1.6.16",
        "version" : "2.0"
    },
    "scene" : 1,
    "scenes" : [
        {
            "name" : "Ball"
        },
        {
            "name" : "Halloween20",
            "nodes" : [
                0,
                1
            ]
        }
    ],
    "nodes" : [
        {
            "mesh" : 0,
            "name" : "HWN20_IronEntranceArch_01_glb",
            "rotation" : [
                0.5000001788139343,
                -0.4999998211860657,
                0.5000000596046448,
                0.49999991059303284
            ],
            "scale" : [
                0.6278039813041687,
                0.605504035949707,
                0.6278039813041687
            ]
        },
        {
            "mesh" : 1,
            "name" : "HWN20_IronEntranceArch_01_collider"
        }
    ],
    "materials" : [
        {
            "doubleSided" : true,
            "name" : "AtlasSolid.014",
            "pbrMetallicRoughness" : {
                "baseColorTexture" : {
                    "index" : 0
                },
                "metallicFactor" : 0.20000000298023224
            }
        }
    ],
    "meshes" : [
        {
            "name" : "Ext_RejaLapidas_Cube.011",
            "primitives" : [
                {
                    "attributes" : {
                        "POSITION" : 0,
                        "NORMAL" : 1,
                        "TEXCOORD_0" : 2
                    },
                    "indices" : 3,
                    "material" : 0
                }
            ]
        },
        {
            "name" : "Cube.105",
            "primitives" : [
                {
                    "attributes" : {
                        "POSITION" : 4,
                        "NORMAL" : 5,
                        "TEXCOORD_0" : 6
                    },
                    "indices" : 7
                }
            ]
        }
    ],
    "textures" : [
        {
            "sampler" : 0,
            "source" : 0
        }
    ],
    "images" : [
        {
            "mimeType" : "image/png",
            "name" : "Genesis_TX",
            "uri" : "textures/Genesis_TX.png"
        }
    ],
    "accessors" : [
        {
            "bufferView" : 0,
            "componentType" : 5126,
            "count" : 538,
            "max" : [
                0.2304537296295166,
                0.04246585816144943,
                0.0058901309967041016
            ],
            "min" : [
                -0.09453096240758896,
                -15.160420417785645,
                -4.915531635284424
            ],
            "type" : "VEC3"
        },
        {
            "bufferView" : 1,
            "componentType" : 5126,
            "count" : 538,
            "type" : "VEC3"
        },
        {
            "bufferView" : 2,
            "componentType" : 5126,
            "count" : 538,
            "type" : "VEC2"
        },
        {
            "bufferView" : 3,
            "componentType" : 5123,
            "count" : 2556,
            "type" : "SCALAR"
        },
        {
            "bufferView" : 4,
            "componentType" : 5126,
            "count" : 94,
            "max" : [
                9.220256805419922,
                3.0697271823883057,
                0.16555655002593994
            ],
            "min" : [
                0.006259441375732422,
                0.026827096939086914,
                -0.16555655002593994
            ],
            "type" : "VEC3"
        },
        {
            "bufferView" : 5,
            "componentType" : 5126,
            "count" : 94,
            "type" : "VEC3"
        },
        {
            "bufferView" : 6,
            "componentType" : 5126,
            "count" : 94,
            "type" : "VEC2"
        },
        {
            "bufferView" : 7,
            "componentType" : 5123,
            "count" : 108,
            "type" : "SCALAR"
        }
    ],
    "bufferViews" : [
        {
            "buffer" : 0,
            "byteLength" : 6456,
            "byteOffset" : 0
        },
        {
            "buffer" : 0,
            "byteLength" : 6456,
            "byteOffset" : 6456
        },
        {
            "buffer" : 0,
            "byteLength" : 4304,
            "byteOffset" : 12912
        },
        {
            "buffer" : 0,
            "byteLength" : 5112,
            "byteOffset" : 17216
        },
        {
            "buffer" : 0,
            "byteLength" : 1128,
            "byteOffset" : 22328
        },
        {
            "buffer" : 0,
            "byteLength" : 1128,
            "byteOffset" : 23456
        },
        {
            "buffer" : 0,
            "byteLength" : 752,
            "byteOffset" : 24584
        },
        {
            "buffer" : 0,
            "byteLength" : 216,
            "byteOffset" : 25336
        }
    ],
    "samplers" : [
        {
            "magFilter" : 9729,
            "minFilter" : 9987
        }
    ],
    "buffers" : [
        {
            "byteLength" : 25552,
            "uri" : "HWN20_IronEntranceArch_01.bin"
        }
    ]
}
   