{
    "asset" : {
        "generator" : "Khronos glTF Blender I/O v1.6.16",
        "version" : "2.0"
    },
    "scene" : 1,
    "scenes" : [
        {
            "name" : "Ball"
        },
        {
            "name" : "Halloween20",
            "nodes" : [
                0,
                1
            ]
        }
    ],
    "nodes" : [
        {
            "mesh" : 0,
            "name" : "HWN20_DragonBush_glb"
        },
        {
            "mesh" : 1,
            "name" : "HWN20_DragonBush_collider"
        }
    ],
    "materials" : [
        {
            "doubleSided" : true,
            "name" : "AtlasSolid.009",
            "pbrMetallicRoughness" : {
                "baseColorTexture" : {
                    "index" : 0
                },
                "metallicFactor" : 0.20000000298023224
            }
        },
        {
            "doubleSided" : true,
            "emissiveFactor" : [
                1,
                1,
                1
            ],
            "emissiveTexture" : {
                "index" : 1
            },
            "name" : "AtlasLight.005",
            "pbrMetallicRoughness" : {
                "baseColorTexture" : {
                    "index" : 2
                },
                "metallicFactor" : 0
            }
        }
    ],
    "meshes" : [
        {
            "name" : "Cube.029",
            "primitives" : [
                {
                    "attributes" : {
                        "POSITION" : 0,
                        "NORMAL" : 1,
                        "TEXCOORD_0" : 2
                    },
                    "indices" : 3,
                    "material" : 0
                },
                {
                    "attributes" : {
                        "POSITION" : 4,
                        "NORMAL" : 5,
                        "TEXCOORD_0" : 6
                    },
                    "indices" : 7,
                    "material" : 1
                }
            ]
        },
        {
            "name" : "Cube.030",
            "primitives" : [
                {
                    "attributes" : {
                        "POSITION" : 8,
                        "NORMAL" : 9,
                        "TEXCOORD_0" : 10
                    },
                    "indices" : 11
                }
            ]
        }
    ],
    "textures" : [
        {
            "sampler" : 0,
            "source" : 0
        },
        {
            "sampler" : 0,
            "source" : 1
        },
        {
            "sampler" : 0,
            "source" : 1
        }
    ],
    "images" : [
        {
            "mimeType" : "image/png",
            "name" : "Genesis_TX",
            "uri" : "textures/Genesis_TX.png"
        },
        {
            "mimeType" : "image/png",
            "name" : "Genesis_TX",
            "uri" : "textures/Genesis_TX-1.png"
        }
    ],
    "accessors" : [
        {
            "bufferView" : 0,
            "componentType" : 5126,
            "count" : 1962,
            "max" : [
                1.0617132186889648,
                5.254279136657715,
                9.888518333435059
            ],
            "min" : [
                -0.9484391212463379,
                -0.05481910705566406,
                -9.679973602294922
            ],
            "type" : "VEC3"
        },
        {
            "bufferView" : 1,
            "componentType" : 5126,
            "count" : 1962,
            "type" : "VEC3"
        },
        {
            "bufferView" : 2,
            "componentType" : 5126,
            "count" : 1962,
            "type" : "VEC2"
        },
        {
            "bufferView" : 3,
            "componentType" : 5123,
            "count" : 1962,
            "type" : "SCALAR"
        },
        {
            "bufferView" : 4,
            "componentType" : 5126,
            "count" : 540,
            "max" : [
                1.0097553730010986,
                4.670836448669434,
                9.761672973632812
            ],
            "min" : [
                -0.8798765540122986,
                0.3858938217163086,
                -4.124026775360107
            ],
            "type" : "VEC3"
        },
        {
            "bufferView" : 5,
            "componentType" : 5126,
            "count" : 540,
            "type" : "VEC3"
        },
        {
            "bufferView" : 6,
            "componentType" : 5126,
            "count" : 540,
            "type" : "VEC2"
        },
        {
            "bufferView" : 7,
            "componentType" : 5123,
            "count" : 540,
            "type" : "SCALAR"
        },
        {
            "bufferView" : 8,
            "componentType" : 5126,
            "count" : 2502,
            "max" : [
                1.0617132186889648,
                5.254279136657715,
                9.888518333435059
            ],
            "min" : [
                -0.9484391212463379,
                -0.05481910705566406,
                -9.679973602294922
            ],
            "type" : "VEC3"
        },
        {
            "bufferView" : 9,
            "componentType" : 5126,
            "count" : 2502,
            "type" : "VEC3"
        },
        {
            "bufferView" : 10,
            "componentType" : 5126,
            "count" : 2502,
            "type" : "VEC2"
        },
        {
            "bufferView" : 11,
            "componentType" : 5123,
            "count" : 2502,
            "type" : "SCALAR"
        }
    ],
    "bufferViews" : [
        {
            "buffer" : 0,
            "byteLength" : 23544,
            "byteOffset" : 0
        },
        {
            "buffer" : 0,
            "byteLength" : 23544,
            "byteOffset" : 23544
        },
        {
            "buffer" : 0,
            "byteLength" : 15696,
            "byteOffset" : 47088
        },
        {
            "buffer" : 0,
            "byteLength" : 3924,
            "byteOffset" : 62784
        },
        {
            "buffer" : 0,
            "byteLength" : 6480,
            "byteOffset" : 66708
        },
        {
            "buffer" : 0,
            "byteLength" : 6480,
            "byteOffset" : 73188
        },
        {
            "buffer" : 0,
            "byteLength" : 4320,
            "byteOffset" : 79668
        },
        {
            "buffer" : 0,
            "byteLength" : 1080,
            "byteOffset" : 83988
        },
        {
            "buffer" : 0,
            "byteLength" : 30024,
            "byteOffset" : 85068
        },
        {
            "buffer" : 0,
            "byteLength" : 30024,
            "byteOffset" : 115092
        },
        {
            "buffer" : 0,
            "byteLength" : 20016,
            "byteOffset" : 145116
        },
        {
            "buffer" : 0,
            "byteLength" : 5004,
            "byteOffset" : 165132
        }
    ],
    "samplers" : [
        {
            "magFilter" : 9729,
            "minFilter" : 9987
        }
    ],
    "buffers" : [
        {
            "byteLength" : 170136,
            "uri" : "HWN20_DragonBush.bin"
        }
    ]
}
   