{
    "asset" : {
        "generator" : "Khronos glTF Blender I/O v1.6.16",
        "version" : "2.0"
    },
    "scene" : 1,
    "scenes" : [
        {
            "name" : "Ball"
        },
        {
            "name" : "Halloween20",
            "nodes" : [
                0,
                1
            ]
        }
    ],
    "nodes" : [
        {
            "mesh" : 0,
            "name" : "HWN20_Tree_06_glb",
            "rotation" : [
                0,
                0.3229353427886963,
                0,
                0.9464210271835327
            ],
            "scale" : [
                0.5015988349914551,
                0.5015988349914551,
                0.5015988349914551
            ]
        },
        {
            "mesh" : 1,
            "name" : "HWN20_Tree_06_collider",
            "rotation" : [
                0,
                0.3229353427886963,
                0,
                0.9464210271835327
            ],
            "scale" : [
                0.5015988349914551,
                0.5015988349914551,
                0.5015988349914551
            ]
        }
    ],
    "materials" : [
        {
            "doubleSided" : true,
            "name" : "AtlasSolid.125",
            "pbrMetallicRoughness" : {
                "baseColorTexture" : {
                    "index" : 0
                },
                "metallicFactor" : 0.20000000298023224
            }
        }
    ],
    "meshes" : [
        {
            "name" : "Plane.061",
            "primitives" : [
                {
                    "attributes" : {
                        "POSITION" : 0,
                        "NORMAL" : 1,
                        "TEXCOORD_0" : 2
                    },
                    "indices" : 3,
                    "material" : 0
                }
            ]
        },
        {
            "name" : "Plane.011",
            "primitives" : [
                {
                    "attributes" : {
                        "POSITION" : 4,
                        "NORMAL" : 5,
                        "TEXCOORD_0" : 6
                    },
                    "indices" : 7
                }
            ]
        }
    ],
    "textures" : [
        {
            "sampler" : 0,
            "source" : 0
        }
    ],
    "images" : [
        {
            "mimeType" : "image/png",
            "name" : "Genesis_TX",
            "uri" : "textures/Genesis_TX.png"
        }
    ],
    "accessors" : [
        {
            "bufferView" : 0,
            "componentType" : 5126,
            "count" : 3237,
            "max" : [
                1.8770748376846313,
                15.780571937561035,
                1.9942020177841187
            ],
            "min" : [
                -10.65018081665039,
                -0.3508652150630951,
                -2.774073362350464
            ],
            "type" : "VEC3"
        },
        {
            "bufferView" : 1,
            "componentType" : 5126,
            "count" : 3237,
            "type" : "VEC3"
        },
        {
            "bufferView" : 2,
            "componentType" : 5126,
            "count" : 3237,
            "type" : "VEC2"
        },
        {
            "bufferView" : 3,
            "componentType" : 5123,
            "count" : 3336,
            "type" : "SCALAR"
        },
        {
            "bufferView" : 4,
            "componentType" : 5126,
            "count" : 664,
            "max" : [
                1.9473603963851929,
                15.828484535217285,
                1.9152158498764038
            ],
            "min" : [
                -10.631065368652344,
                -0.41049888730049133,
                -2.804509401321411
            ],
            "type" : "VEC3"
        },
        {
            "bufferView" : 5,
            "componentType" : 5126,
            "count" : 664,
            "type" : "VEC3"
        },
        {
            "bufferView" : 6,
            "componentType" : 5126,
            "count" : 664,
            "type" : "VEC2"
        },
        {
            "bufferView" : 7,
            "componentType" : 5123,
            "count" : 684,
            "type" : "SCALAR"
        }
    ],
    "bufferViews" : [
        {
            "buffer" : 0,
            "byteLength" : 38844,
            "byteOffset" : 0
        },
        {
            "buffer" : 0,
            "byteLength" : 38844,
            "byteOffset" : 38844
        },
        {
            "buffer" : 0,
            "byteLength" : 25896,
            "byteOffset" : 77688
        },
        {
            "buffer" : 0,
            "byteLength" : 6672,
            "byteOffset" : 103584
        },
        {
            "buffer" : 0,
            "byteLength" : 7968,
            "byteOffset" : 110256
        },
        {
            "buffer" : 0,
            "byteLength" : 7968,
            "byteOffset" : 118224
        },
        {
            "buffer" : 0,
            "byteLength" : 5312,
            "byteOffset" : 126192
        },
        {
            "buffer" : 0,
            "byteLength" : 1368,
            "byteOffset" : 131504
        }
    ],
    "samplers" : [
        {
            "magFilter" : 9729,
            "minFilter" : 9987
        }
    ],
    "buffers" : [
        {
            "byteLength" : 132872,
            "uri" : "HWN20_Tree_06.bin"
        }
    ]
}
   