{
    "asset" : {
        "generator" : "Khronos glTF Blender I/O v1.6.16",
        "version" : "2.0"
    },
    "scene" : 1,
    "scenes" : [
        {
            "name" : "Ball"
        },
        {
            "name" : "Halloween20",
            "nodes" : [
                0,
                1
            ]
        }
    ],
    "nodes" : [
        {
            "mesh" : 0,
            "name" : "HWN20_Pumpkin_glb",
            "rotation" : [
                0,
                0.7071068286895752,
                0,
                0.7071068286895752
            ],
            "scale" : [
                1.5216630697250366,
                1.5216630697250366,
                1.5216630697250366
            ]
        },
        {
            "mesh" : 1,
            "name" : "HWN20_Pumpkin_02_collider",
            "scale" : [
                0.39096248149871826,
                0.39096248149871826,
                0.39096248149871826
            ]
        }
    ],
    "materials" : [
        {
            "doubleSided" : true,
            "emissiveFactor" : [
                1,
                1,
                1
            ],
            "emissiveTexture" : {
                "index" : 0
            },
            "name" : "AtlasLight.015",
            "pbrMetallicRoughness" : {
                "baseColorTexture" : {
                    "index" : 1
                },
                "metallicFactor" : 0
            }
        },
        {
            "doubleSided" : true,
            "name" : "AtlasSolid.023",
            "pbrMetallicRoughness" : {
                "baseColorTexture" : {
                    "index" : 2
                },
                "metallicFactor" : 0.20000000298023224
            }
        }
    ],
    "meshes" : [
        {
            "name" : "Pumpkin_003.002",
            "primitives" : [
                {
                    "attributes" : {
                        "POSITION" : 0,
                        "NORMAL" : 1,
                        "TEXCOORD_0" : 2
                    },
                    "indices" : 3,
                    "material" : 0
                },
                {
                    "attributes" : {
                        "POSITION" : 4,
                        "NORMAL" : 5,
                        "TEXCOORD_0" : 6
                    },
                    "indices" : 7,
                    "material" : 1
                }
            ]
        },
        {
            "name" : "Cube.031",
            "primitives" : [
                {
                    "attributes" : {
                        "POSITION" : 8,
                        "NORMAL" : 9,
                        "TEXCOORD_0" : 10
                    },
                    "indices" : 11
                }
            ]
        }
    ],
    "textures" : [
        {
            "sampler" : 0,
            "source" : 0
        },
        {
            "sampler" : 0,
            "source" : 0
        },
        {
            "sampler" : 0,
            "source" : 1
        }
    ],
    "images" : [
        {
            "mimeType" : "image/png",
            "name" : "Genesis_TX",
            "uri" : "textures/Genesis_TX.png"
        },
        {
            "mimeType" : "image/png",
            "name" : "Genesis_TX",
            "uri" : "textures/Genesis_TX-1.png"
        }
    ],
    "accessors" : [
        {
            "bufferView" : 0,
            "componentType" : 5126,
            "count" : 81,
            "max" : [
                -0.02291780337691307,
                0.3088121712207794,
                0.1639467477798462
            ],
            "min" : [
                -0.2407510131597519,
                0.058505840599536896,
                -0.18212732672691345
            ],
            "type" : "VEC3"
        },
        {
            "bufferView" : 1,
            "componentType" : 5126,
            "count" : 81,
            "type" : "VEC3"
        },
        {
            "bufferView" : 2,
            "componentType" : 5126,
            "count" : 81,
            "type" : "VEC2"
        },
        {
            "bufferView" : 3,
            "componentType" : 5123,
            "count" : 81,
            "type" : "SCALAR"
        },
        {
            "bufferView" : 4,
            "componentType" : 5126,
            "count" : 116,
            "max" : [
                0.24129241704940796,
                0.4378501772880554,
                0.2402866929769516
            ],
            "min" : [
                -0.2407510131597519,
                -0.005440768785774708,
                -0.2403026521205902
            ],
            "type" : "VEC3"
        },
        {
            "bufferView" : 5,
            "componentType" : 5126,
            "count" : 116,
            "type" : "VEC3"
        },
        {
            "bufferView" : 6,
            "componentType" : 5126,
            "count" : 116,
            "type" : "VEC2"
        },
        {
            "bufferView" : 7,
            "componentType" : 5123,
            "count" : 582,
            "type" : "SCALAR"
        },
        {
            "bufferView" : 8,
            "componentType" : 5126,
            "count" : 120,
            "max" : [
                0.9572939872741699,
                1.7285208702087402,
                0.9572939872741699
            ],
            "min" : [
                -0.9572939872741699,
                -0.011292814277112484,
                -0.9572939872741699
            ],
            "type" : "VEC3"
        },
        {
            "bufferView" : 9,
            "componentType" : 5126,
            "count" : 120,
            "type" : "VEC3"
        },
        {
            "bufferView" : 10,
            "componentType" : 5126,
            "count" : 120,
            "type" : "VEC2"
        },
        {
            "bufferView" : 11,
            "componentType" : 5123,
            "count" : 132,
            "type" : "SCALAR"
        }
    ],
    "bufferViews" : [
        {
            "buffer" : 0,
            "byteLength" : 972,
            "byteOffset" : 0
        },
        {
            "buffer" : 0,
            "byteLength" : 972,
            "byteOffset" : 972
        },
        {
            "buffer" : 0,
            "byteLength" : 648,
            "byteOffset" : 1944
        },
        {
            "buffer" : 0,
            "byteLength" : 162,
            "byteOffset" : 2592
        },
        {
            "buffer" : 0,
            "byteLength" : 1392,
            "byteOffset" : 2756
        },
        {
            "buffer" : 0,
            "byteLength" : 1392,
            "byteOffset" : 4148
        },
        {
            "buffer" : 0,
            "byteLength" : 928,
            "byteOffset" : 5540
        },
        {
            "buffer" : 0,
            "byteLength" : 1164,
            "byteOffset" : 6468
        },
        {
            "buffer" : 0,
            "byteLength" : 1440,
            "byteOffset" : 7632
        },
        {
            "buffer" : 0,
            "byteLength" : 1440,
            "byteOffset" : 9072
        },
        {
            "buffer" : 0,
            "byteLength" : 960,
            "byteOffset" : 10512
        },
        {
            "buffer" : 0,
            "byteLength" : 264,
            "byteOffset" : 11472
        }
    ],
    "samplers" : [
        {
            "magFilter" : 9729,
            "minFilter" : 9987
        }
    ],
    "buffers" : [
        {
            "byteLength" : 11736,
            "uri" : "HWN20_Pumpkin_02.bin"
        }
    ]
}
   