{
    "asset" : {
        "generator" : "Khronos glTF Blender I/O v1.6.16",
        "version" : "2.0"
    },
    "scene" : 1,
    "scenes" : [
        {
            "name" : "Ball"
        },
        {
            "name" : "Halloween20",
            "nodes" : [
                0,
                1
            ]
        }
    ],
    "nodes" : [
        {
            "mesh" : 0,
            "name" : "HWN20_SkullChain_01_glb",
            "rotation" : [
                0,
                0.3229353427886963,
                0,
                0.9464210271835327
            ],
            "scale" : [
                0.8442741632461548,
                0.8442741632461548,
                0.8442741632461548
            ]
        },
        {
            "mesh" : 1,
            "name" : "HWN20_SkullChain_01_collider",
            "scale" : [
                0.2247164249420166,
                0.2247164249420166,
                0.2247164249420166
            ]
        }
    ],
    "materials" : [
        {
            "doubleSided" : true,
            "name" : "AtlasSolid.098",
            "pbrMetallicRoughness" : {
                "baseColorTexture" : {
                    "index" : 0
                },
                "metallicFactor" : 0.20000000298023224
            }
        },
        {
            "doubleSided" : true,
            "emissiveFactor" : [
                1,
                1,
                1
            ],
            "emissiveTexture" : {
                "index" : 1
            },
            "name" : "AtlasLight.037",
            "pbrMetallicRoughness" : {
                "baseColorTexture" : {
                    "index" : 2
                },
                "metallicFactor" : 0
            }
        }
    ],
    "meshes" : [
        {
            "name" : "Plane.007",
            "primitives" : [
                {
                    "attributes" : {
                        "POSITION" : 0,
                        "NORMAL" : 1,
                        "TEXCOORD_0" : 2
                    },
                    "indices" : 3,
                    "material" : 0
                },
                {
                    "attributes" : {
                        "POSITION" : 4,
                        "NORMAL" : 5,
                        "TEXCOORD_0" : 6
                    },
                    "indices" : 7,
                    "material" : 1
                }
            ]
        },
        {
            "name" : "Cube.139",
            "primitives" : [
                {
                    "attributes" : {
                        "POSITION" : 8,
                        "NORMAL" : 9,
                        "TEXCOORD_0" : 10
                    },
                    "indices" : 11
                }
            ]
        }
    ],
    "textures" : [
        {
            "sampler" : 0,
            "source" : 0
        },
        {
            "sampler" : 0,
            "source" : 1
        },
        {
            "sampler" : 0,
            "source" : 1
        }
    ],
    "images" : [
        {
            "mimeType" : "image/png",
            "name" : "Genesis_TX",
            "uri" : "textures/Genesis_TX.png"
        },
        {
            "mimeType" : "image/png",
            "name" : "Genesis_TX",
            "uri" : "textures/Genesis_TX-1.png"
        }
    ],
    "accessors" : [
        {
            "bufferView" : 0,
            "componentType" : 5126,
            "count" : 6139,
            "max" : [
                0.20471835136413574,
                3.2203030586242676,
                0.20096898078918457
            ],
            "min" : [
                -0.2237684726715088,
                0.008802846074104309,
                -0.2608058452606201
            ],
            "type" : "VEC3"
        },
        {
            "bufferView" : 1,
            "componentType" : 5126,
            "count" : 6139,
            "type" : "VEC3"
        },
        {
            "bufferView" : 2,
            "componentType" : 5126,
            "count" : 6139,
            "type" : "VEC2"
        },
        {
            "bufferView" : 3,
            "componentType" : 5123,
            "count" : 6777,
            "type" : "SCALAR"
        },
        {
            "bufferView" : 4,
            "componentType" : 5126,
            "count" : 249,
            "max" : [
                -0.016857385635375977,
                1.696502685546875,
                0.1268763542175293
            ],
            "min" : [
                -0.21623826026916504,
                0.1665486842393875,
                -0.19803833961486816
            ],
            "type" : "VEC3"
        },
        {
            "bufferView" : 5,
            "componentType" : 5126,
            "count" : 249,
            "type" : "VEC3"
        },
        {
            "bufferView" : 6,
            "componentType" : 5126,
            "count" : 249,
            "type" : "VEC2"
        },
        {
            "bufferView" : 7,
            "componentType" : 5123,
            "count" : 297,
            "type" : "SCALAR"
        },
        {
            "bufferView" : 8,
            "componentType" : 5126,
            "count" : 24,
            "max" : [
                1,
                12.254252433776855,
                1
            ],
            "min" : [
                -1,
                -0.03166079521179199,
                -1
            ],
            "type" : "VEC3"
        },
        {
            "bufferView" : 9,
            "componentType" : 5126,
            "count" : 24,
            "type" : "VEC3"
        },
        {
            "bufferView" : 10,
            "componentType" : 5126,
            "count" : 24,
            "type" : "VEC2"
        },
        {
            "bufferView" : 11,
            "componentType" : 5123,
            "count" : 36,
            "type" : "SCALAR"
        }
    ],
    "bufferViews" : [
        {
            "buffer" : 0,
            "byteLength" : 73668,
            "byteOffset" : 0
        },
        {
            "buffer" : 0,
            "byteLength" : 73668,
            "byteOffset" : 73668
        },
        {
            "buffer" : 0,
            "byteLength" : 49112,
            "byteOffset" : 147336
        },
        {
            "buffer" : 0,
            "byteLength" : 13554,
            "byteOffset" : 196448
        },
        {
            "buffer" : 0,
            "byteLength" : 2988,
            "byteOffset" : 210004
        },
        {
            "buffer" : 0,
            "byteLength" : 2988,
            "byteOffset" : 212992
        },
        {
            "buffer" : 0,
            "byteLength" : 1992,
            "byteOffset" : 215980
        },
        {
            "buffer" : 0,
            "byteLength" : 594,
            "byteOffset" : 217972
        },
        {
            "buffer" : 0,
            "byteLength" : 288,
            "byteOffset" : 218568
        },
        {
            "buffer" : 0,
            "byteLength" : 288,
            "byteOffset" : 218856
        },
        {
            "buffer" : 0,
            "byteLength" : 192,
            "byteOffset" : 219144
        },
        {
            "buffer" : 0,
            "byteLength" : 72,
            "byteOffset" : 219336
        }
    ],
    "samplers" : [
        {
            "magFilter" : 9729,
            "minFilter" : 9987
        }
    ],
    "buffers" : [
        {
            "byteLength" : 219408,
            "uri" : "HWN20_SkullChain_01.bin"
        }
    ]
}
   