{
    "asset" : {
        "generator" : "Khronos glTF Blender I/O v1.6.16",
        "version" : "2.0"
    },
    "scene" : 1,
    "scenes" : [
        {
            "name" : "Ball"
        },
        {
            "name" : "Halloween20",
            "nodes" : [
                0,
                1
            ]
        }
    ],
    "nodes" : [
        {
            "mesh" : 0,
            "name" : "HWN20_PetTomb_01_glb",
            "rotation" : [
                0.5000000596046448,
                0.4999999403953552,
                -0.5000001788139343,
                0.4999997913837433
            ],
            "scale" : [
                0.31733807921409607,
                0.31733807921409607,
                0.31733807921409607
            ]
        },
        {
            "mesh" : 1,
            "name" : "HWN20_PetTomb_01_collider"
        }
    ],
    "materials" : [
        {
            "doubleSided" : true,
            "name" : "AtlasSolid.076",
            "pbrMetallicRoughness" : {
                "baseColorTexture" : {
                    "index" : 0
                },
                "metallicFactor" : 0.20000000298023224
            }
        }
    ],
    "meshes" : [
        {
            "name" : "church.010",
            "primitives" : [
                {
                    "attributes" : {
                        "POSITION" : 0,
                        "NORMAL" : 1,
                        "TEXCOORD_0" : 2
                    },
                    "indices" : 3,
                    "material" : 0
                }
            ]
        },
        {
            "name" : "Cube.113",
            "primitives" : [
                {
                    "attributes" : {
                        "POSITION" : 4,
                        "NORMAL" : 5,
                        "TEXCOORD_0" : 6
                    },
                    "indices" : 7
                }
            ]
        }
    ],
    "textures" : [
        {
            "sampler" : 0,
            "source" : 0
        }
    ],
    "images" : [
        {
            "mimeType" : "image/png",
            "name" : "Genesis_TX",
            "uri" : "textures/Genesis_TX.png"
        }
    ],
    "accessors" : [
        {
            "bufferView" : 0,
            "componentType" : 5126,
            "count" : 740,
            "max" : [
                6.5364179611206055,
                3.054962396621704,
                -0.02597332000732422
            ],
            "min" : [
                -3.6253583431243896,
                -3.0399723052978516,
                -10.143044471740723
            ],
            "type" : "VEC3"
        },
        {
            "bufferView" : 1,
            "componentType" : 5126,
            "count" : 740,
            "type" : "VEC3"
        },
        {
            "bufferView" : 2,
            "componentType" : 5126,
            "count" : 740,
            "type" : "VEC2"
        },
        {
            "bufferView" : 3,
            "componentType" : 5123,
            "count" : 1041,
            "type" : "SCALAR"
        },
        {
            "bufferView" : 4,
            "componentType" : 5126,
            "count" : 78,
            "max" : [
                1,
                3.2291226387023926,
                0.9761490821838379
            ],
            "min" : [
                -1,
                0.0006897449493408203,
                -2.0746212005615234
            ],
            "type" : "VEC3"
        },
        {
            "bufferView" : 5,
            "componentType" : 5126,
            "count" : 78,
            "type" : "VEC3"
        },
        {
            "bufferView" : 6,
            "componentType" : 5126,
            "count" : 78,
            "type" : "VEC2"
        },
        {
            "bufferView" : 7,
            "componentType" : 5123,
            "count" : 108,
            "type" : "SCALAR"
        }
    ],
    "bufferViews" : [
        {
            "buffer" : 0,
            "byteLength" : 8880,
            "byteOffset" : 0
        },
        {
            "buffer" : 0,
            "byteLength" : 8880,
            "byteOffset" : 8880
        },
        {
            "buffer" : 0,
            "byteLength" : 5920,
            "byteOffset" : 17760
        },
        {
            "buffer" : 0,
            "byteLength" : 2082,
            "byteOffset" : 23680
        },
        {
            "buffer" : 0,
            "byteLength" : 936,
            "byteOffset" : 25764
        },
        {
            "buffer" : 0,
            "byteLength" : 936,
            "byteOffset" : 26700
        },
        {
            "buffer" : 0,
            "byteLength" : 624,
            "byteOffset" : 27636
        },
        {
            "buffer" : 0,
            "byteLength" : 216,
            "byteOffset" : 28260
        }
    ],
    "samplers" : [
        {
            "magFilter" : 9729,
            "minFilter" : 9987
        }
    ],
    "buffers" : [
        {
            "byteLength" : 28476,
            "uri" : "HWN20_PetTomb_01.bin"
        }
    ]
}
   