{
    "asset" : {
        "generator" : "Khronos glTF Blender I/O v1.6.16",
        "version" : "2.0"
    },
    "scene" : 1,
    "scenes" : [
        {
            "name" : "Ball"
        },
        {
            "name" : "Halloween20",
            "nodes" : [
                0,
                1
            ]
        }
    ],
    "nodes" : [
        {
            "mesh" : 0,
            "name" : "HWN20_IronEntranceArch_02_glb",
            "rotation" : [
                0.5000001788139343,
                -0.4999998211860657,
                0.5000000596046448,
                0.49999991059303284
            ],
            "scale" : [
                0.6278039813041687,
                0.605504035949707,
                0.6278039813041687
            ]
        },
        {
            "mesh" : 1,
            "name" : "HWN20_IronEntranceArch_02_collider"
        }
    ],
    "materials" : [
        {
            "doubleSided" : true,
            "name" : "AtlasSolid.019",
            "pbrMetallicRoughness" : {
                "baseColorTexture" : {
                    "index" : 0
                },
                "metallicFactor" : 0.20000000298023224
            }
        }
    ],
    "meshes" : [
        {
            "name" : "Ext_RejaLapidas_Cube.015",
            "primitives" : [
                {
                    "attributes" : {
                        "POSITION" : 0,
                        "NORMAL" : 1,
                        "TEXCOORD_0" : 2
                    },
                    "indices" : 3,
                    "material" : 0
                }
            ]
        },
        {
            "name" : "Cube.106",
            "primitives" : [
                {
                    "attributes" : {
                        "POSITION" : 4,
                        "NORMAL" : 5,
                        "TEXCOORD_0" : 6
                    },
                    "indices" : 7
                }
            ]
        }
    ],
    "textures" : [
        {
            "sampler" : 0,
            "source" : 0
        }
    ],
    "images" : [
        {
            "mimeType" : "image/png",
            "name" : "Genesis_TX",
            "uri" : "textures/Genesis_TX.png"
        }
    ],
    "accessors" : [
        {
            "bufferView" : 0,
            "componentType" : 5126,
            "count" : 584,
            "max" : [
                0.17360882461071014,
                -0.007927167229354382,
                0.15169954299926758
            ],
            "min" : [
                -0.1730021834373474,
                -15.210813522338867,
                -5.397256851196289
            ],
            "type" : "VEC3"
        },
        {
            "bufferView" : 1,
            "componentType" : 5126,
            "count" : 584,
            "type" : "VEC3"
        },
        {
            "bufferView" : 2,
            "componentType" : 5126,
            "count" : 584,
            "type" : "VEC2"
        },
        {
            "bufferView" : 3,
            "componentType" : 5123,
            "count" : 2280,
            "type" : "SCALAR"
        },
        {
            "bufferView" : 4,
            "componentType" : 5126,
            "count" : 388,
            "max" : [
                9.220256805419922,
                3.391395092010498,
                0.16555672883987427
            ],
            "min" : [
                0.006259441375732422,
                -0.10618340969085693,
                -0.16555655002593994
            ],
            "type" : "VEC3"
        },
        {
            "bufferView" : 5,
            "componentType" : 5126,
            "count" : 388,
            "type" : "VEC3"
        },
        {
            "bufferView" : 6,
            "componentType" : 5126,
            "count" : 388,
            "type" : "VEC2"
        },
        {
            "bufferView" : 7,
            "componentType" : 5123,
            "count" : 444,
            "type" : "SCALAR"
        }
    ],
    "bufferViews" : [
        {
            "buffer" : 0,
            "byteLength" : 7008,
            "byteOffset" : 0
        },
        {
            "buffer" : 0,
            "byteLength" : 7008,
            "byteOffset" : 7008
        },
        {
            "buffer" : 0,
            "byteLength" : 4672,
            "byteOffset" : 14016
        },
        {
            "buffer" : 0,
            "byteLength" : 4560,
            "byteOffset" : 18688
        },
        {
            "buffer" : 0,
            "byteLength" : 4656,
            "byteOffset" : 23248
        },
        {
            "buffer" : 0,
            "byteLength" : 4656,
            "byteOffset" : 27904
        },
        {
            "buffer" : 0,
            "byteLength" : 3104,
            "byteOffset" : 32560
        },
        {
            "buffer" : 0,
            "byteLength" : 888,
            "byteOffset" : 35664
        }
    ],
    "samplers" : [
        {
            "magFilter" : 9729,
            "minFilter" : 9987
        }
    ],
    "buffers" : [
        {
            "byteLength" : 36552,
            "uri" : "HWN20_IronEntranceArch_02.bin"
        }
    ]
}
   