{
    "asset" : {
        "generator" : "Khronos glTF Blender I/O v1.6.16",
        "version" : "2.0"
    },
    "scene" : 1,
    "scenes" : [
        {
            "name" : "Ball"
        },
        {
            "name" : "Halloween20",
            "nodes" : [
                0,
                1
            ]
        }
    ],
    "nodes" : [
        {
            "mesh" : 0,
            "name" : "HWN20_TreeBase_Axe_glb"
        },
        {
            "mesh" : 1,
            "name" : "HWN20_TreeBase_Axe_collider"
        }
    ],
    "materials" : [
        {
            "doubleSided" : true,
            "name" : "AtlasSolid.118",
            "pbrMetallicRoughness" : {
                "baseColorTexture" : {
                    "index" : 0
                },
                "metallicFactor" : 0.20000000298023224
            }
        }
    ],
    "meshes" : [
        {
            "name" : "Tree_C_003.004",
            "primitives" : [
                {
                    "attributes" : {
                        "POSITION" : 0,
                        "NORMAL" : 1,
                        "TEXCOORD_0" : 2
                    },
                    "indices" : 3,
                    "material" : 0
                }
            ]
        },
        {
            "name" : "Tree_C_003.002",
            "primitives" : [
                {
                    "attributes" : {
                        "POSITION" : 4,
                        "NORMAL" : 5,
                        "TEXCOORD_0" : 6
                    },
                    "indices" : 7
                }
            ]
        }
    ],
    "textures" : [
        {
            "sampler" : 0,
            "source" : 0
        }
    ],
    "images" : [
        {
            "mimeType" : "image/png",
            "name" : "Genesis_TX",
            "uri" : "textures/Genesis_TX.png"
        }
    ],
    "accessors" : [
        {
            "bufferView" : 0,
            "componentType" : 5126,
            "count" : 306,
            "max" : [
                0.9546868801116943,
                1.731558084487915,
                1.1564475297927856
            ],
            "min" : [
                -1.208139181137085,
                -0.08197586238384247,
                -1.1886029243469238
            ],
            "type" : "VEC3"
        },
        {
            "bufferView" : 1,
            "componentType" : 5126,
            "count" : 306,
            "type" : "VEC3"
        },
        {
            "bufferView" : 2,
            "componentType" : 5126,
            "count" : 306,
            "type" : "VEC2"
        },
        {
            "bufferView" : 3,
            "componentType" : 5123,
            "count" : 1644,
            "type" : "SCALAR"
        },
        {
            "bufferView" : 4,
            "componentType" : 5126,
            "count" : 107,
            "max" : [
                0.949564516544342,
                1.711857795715332,
                1.1548367738723755
            ],
            "min" : [
                -1.1998714208602905,
                -0.062287312000989914,
                -1.1896108388900757
            ],
            "type" : "VEC3"
        },
        {
            "bufferView" : 5,
            "componentType" : 5126,
            "count" : 107,
            "type" : "VEC3"
        },
        {
            "bufferView" : 6,
            "componentType" : 5126,
            "count" : 107,
            "type" : "VEC2"
        },
        {
            "bufferView" : 7,
            "componentType" : 5123,
            "count" : 492,
            "type" : "SCALAR"
        }
    ],
    "bufferViews" : [
        {
            "buffer" : 0,
            "byteLength" : 3672,
            "byteOffset" : 0
        },
        {
            "buffer" : 0,
            "byteLength" : 3672,
            "byteOffset" : 3672
        },
        {
            "buffer" : 0,
            "byteLength" : 2448,
            "byteOffset" : 7344
        },
        {
            "buffer" : 0,
            "byteLength" : 3288,
            "byteOffset" : 9792
        },
        {
            "buffer" : 0,
            "byteLength" : 1284,
            "byteOffset" : 13080
        },
        {
            "buffer" : 0,
            "byteLength" : 1284,
            "byteOffset" : 14364
        },
        {
            "buffer" : 0,
            "byteLength" : 856,
            "byteOffset" : 15648
        },
        {
            "buffer" : 0,
            "byteLength" : 984,
            "byteOffset" : 16504
        }
    ],
    "samplers" : [
        {
            "magFilter" : 9729,
            "minFilter" : 9987
        }
    ],
    "buffers" : [
        {
            "byteLength" : 17488,
            "uri" : "HWN20_TreeBase_Axe.bin"
        }
    ]
}
   