{
    "asset" : {
        "generator" : "Khronos glTF Blender I/O v1.6.16",
        "version" : "2.0"
    },
    "scene" : 1,
    "scenes" : [
        {
            "name" : "Ball"
        },
        {
            "name" : "Halloween20",
            "nodes" : [
                0,
                1
            ]
        }
    ],
    "nodes" : [
        {
            "mesh" : 0,
            "name" : "HWN20_Pumpkin_01_glb",
            "rotation" : [
                0,
                0.6786252856254578,
                0,
                0.7344846725463867
            ],
            "scale" : [
                1.5216630697250366,
                1.5216630697250366,
                1.5216630697250366
            ],
            "translation" : [
                -0.024935811758041382,
                0,
                0
            ]
        },
        {
            "mesh" : 1,
            "name" : "HWN20_Pumpkin_01_collider",
            "scale" : [
                0.29904866218566895,
                0.35000646114349365,
                0.3304024338722229
            ]
        }
    ],
    "materials" : [
        {
            "doubleSided" : true,
            "emissiveFactor" : [
                1,
                1,
                1
            ],
            "emissiveTexture" : {
                "index" : 0
            },
            "name" : "AtlasLight.016",
            "pbrMetallicRoughness" : {
                "baseColorTexture" : {
                    "index" : 1
                },
                "metallicFactor" : 0
            }
        },
        {
            "doubleSided" : true,
            "name" : "AtlasSolid.024",
            "pbrMetallicRoughness" : {
                "baseColorTexture" : {
                    "index" : 2
                },
                "metallicFactor" : 0.20000000298023224
            }
        }
    ],
    "meshes" : [
        {
            "name" : "Pumpkin_006.002",
            "primitives" : [
                {
                    "attributes" : {
                        "POSITION" : 0,
                        "NORMAL" : 1,
                        "TEXCOORD_0" : 2
                    },
                    "indices" : 3,
                    "material" : 0
                },
                {
                    "attributes" : {
                        "POSITION" : 4,
                        "NORMAL" : 5,
                        "TEXCOORD_0" : 6
                    },
                    "indices" : 7,
                    "material" : 1
                }
            ]
        },
        {
            "name" : "Cube.032",
            "primitives" : [
                {
                    "attributes" : {
                        "POSITION" : 8,
                        "NORMAL" : 9,
                        "TEXCOORD_0" : 10
                    },
                    "indices" : 11
                }
            ]
        }
    ],
    "textures" : [
        {
            "sampler" : 0,
            "source" : 0
        },
        {
            "sampler" : 0,
            "source" : 0
        },
        {
            "sampler" : 0,
            "source" : 1
        }
    ],
    "images" : [
        {
            "mimeType" : "image/png",
            "name" : "Genesis_TX",
            "uri" : "textures/Genesis_TX.png"
        },
        {
            "mimeType" : "image/png",
            "name" : "Genesis_TX",
            "uri" : "textures/Genesis_TX-1.png"
        }
    ],
    "accessors" : [
        {
            "bufferView" : 0,
            "componentType" : 5126,
            "count" : 132,
            "max" : [
                0.11402648687362671,
                0.2683413326740265,
                0.16166619956493378
            ],
            "min" : [
                -0.19465650618076324,
                0.076082743704319,
                -0.12357184290885925
            ],
            "type" : "VEC3"
        },
        {
            "bufferView" : 1,
            "componentType" : 5126,
            "count" : 132,
            "type" : "VEC3"
        },
        {
            "bufferView" : 2,
            "componentType" : 5126,
            "count" : 132,
            "type" : "VEC2"
        },
        {
            "bufferView" : 3,
            "componentType" : 5123,
            "count" : 132,
            "type" : "SCALAR"
        },
        {
            "bufferView" : 4,
            "componentType" : 5126,
            "count" : 143,
            "max" : [
                0.20845280587673187,
                0.4865967333316803,
                0.20933763682842255
            ],
            "min" : [
                -0.19465650618076324,
                -0.005759072955697775,
                -0.18420250713825226
            ],
            "type" : "VEC3"
        },
        {
            "bufferView" : 5,
            "componentType" : 5126,
            "count" : 143,
            "type" : "VEC3"
        },
        {
            "bufferView" : 6,
            "componentType" : 5126,
            "count" : 143,
            "type" : "VEC2"
        },
        {
            "bufferView" : 7,
            "componentType" : 5123,
            "count" : 711,
            "type" : "SCALAR"
        },
        {
            "bufferView" : 8,
            "componentType" : 5126,
            "count" : 96,
            "max" : [
                1.004058837890625,
                2.0869979858398438,
                1.0040589570999146
            ],
            "min" : [
                -1.004058837890625,
                -0.03425002098083496,
                -1.0040589570999146
            ],
            "type" : "VEC3"
        },
        {
            "bufferView" : 9,
            "componentType" : 5126,
            "count" : 96,
            "type" : "VEC3"
        },
        {
            "bufferView" : 10,
            "componentType" : 5126,
            "count" : 96,
            "type" : "VEC2"
        },
        {
            "bufferView" : 11,
            "componentType" : 5123,
            "count" : 108,
            "type" : "SCALAR"
        }
    ],
    "bufferViews" : [
        {
            "buffer" : 0,
            "byteLength" : 1584,
            "byteOffset" : 0
        },
        {
            "buffer" : 0,
            "byteLength" : 1584,
            "byteOffset" : 1584
        },
        {
            "buffer" : 0,
            "byteLength" : 1056,
            "byteOffset" : 3168
        },
        {
            "buffer" : 0,
            "byteLength" : 264,
            "byteOffset" : 4224
        },
        {
            "buffer" : 0,
            "byteLength" : 1716,
            "byteOffset" : 4488
        },
        {
            "buffer" : 0,
            "byteLength" : 1716,
            "byteOffset" : 6204
        },
        {
            "buffer" : 0,
            "byteLength" : 1144,
            "byteOffset" : 7920
        },
        {
            "buffer" : 0,
            "byteLength" : 1422,
            "byteOffset" : 9064
        },
        {
            "buffer" : 0,
            "byteLength" : 1152,
            "byteOffset" : 10488
        },
        {
            "buffer" : 0,
            "byteLength" : 1152,
            "byteOffset" : 11640
        },
        {
            "buffer" : 0,
            "byteLength" : 768,
            "byteOffset" : 12792
        },
        {
            "buffer" : 0,
            "byteLength" : 216,
            "byteOffset" : 13560
        }
    ],
    "samplers" : [
        {
            "magFilter" : 9729,
            "minFilter" : 9987
        }
    ],
    "buffers" : [
        {
            "byteLength" : 13776,
            "uri" : "HWN20_Pumpkin_01.bin"
        }
    ]
}
   