{
    "asset" : {
        "generator" : "Khronos glTF Blender I/O v1.6.16",
        "version" : "2.0"
    },
    "scene" : 1,
    "scenes" : [
        {
            "name" : "Ball"
        },
        {
            "name" : "Halloween20",
            "nodes" : [
                0,
                1
            ]
        }
    ],
    "nodes" : [
        {
            "mesh" : 0,
            "name" : "HWN20_Tree_03_glb"
        },
        {
            "mesh" : 1,
            "name" : "HWN20_Tree_03_collider"
        }
    ],
    "materials" : [
        {
            "doubleSided" : true,
            "name" : "AtlasSolid.123",
            "pbrMetallicRoughness" : {
                "baseColorTexture" : {
                    "index" : 0
                },
                "metallicFactor" : 0.20000000298023224
            }
        }
    ],
    "meshes" : [
        {
            "name" : "Tree_B_003.005",
            "primitives" : [
                {
                    "attributes" : {
                        "POSITION" : 0,
                        "NORMAL" : 1,
                        "TEXCOORD_0" : 2
                    },
                    "indices" : 3,
                    "material" : 0
                }
            ]
        },
        {
            "name" : "Tree_B_003.004",
            "primitives" : [
                {
                    "attributes" : {
                        "POSITION" : 4,
                        "NORMAL" : 5,
                        "TEXCOORD_0" : 6
                    },
                    "indices" : 7
                }
            ]
        }
    ],
    "textures" : [
        {
            "sampler" : 0,
            "source" : 0
        }
    ],
    "images" : [
        {
            "mimeType" : "image/png",
            "name" : "Genesis_TX",
            "uri" : "textures/Genesis_TX.png"
        }
    ],
    "accessors" : [
        {
            "bufferView" : 0,
            "componentType" : 5126,
            "count" : 743,
            "max" : [
                1.6879364252090454,
                4.604854106903076,
                2.119807243347168
            ],
            "min" : [
                -1.4632519483566284,
                -0.0050408728420734406,
                -2.105569362640381
            ],
            "type" : "VEC3"
        },
        {
            "bufferView" : 1,
            "componentType" : 5126,
            "count" : 743,
            "type" : "VEC3"
        },
        {
            "bufferView" : 2,
            "componentType" : 5126,
            "count" : 743,
            "type" : "VEC2"
        },
        {
            "bufferView" : 3,
            "componentType" : 5123,
            "count" : 4374,
            "type" : "SCALAR"
        },
        {
            "bufferView" : 4,
            "componentType" : 5126,
            "count" : 174,
            "max" : [
                1.6447721719741821,
                4.582486152648926,
                2.1154890060424805
            ],
            "min" : [
                -1.461620569229126,
                -0.008865246549248695,
                -2.0692572593688965
            ],
            "type" : "VEC3"
        },
        {
            "bufferView" : 5,
            "componentType" : 5126,
            "count" : 174,
            "type" : "VEC3"
        },
        {
            "bufferView" : 6,
            "componentType" : 5126,
            "count" : 174,
            "type" : "VEC2"
        },
        {
            "bufferView" : 7,
            "componentType" : 5123,
            "count" : 978,
            "type" : "SCALAR"
        }
    ],
    "bufferViews" : [
        {
            "buffer" : 0,
            "byteLength" : 8916,
            "byteOffset" : 0
        },
        {
            "buffer" : 0,
            "byteLength" : 8916,
            "byteOffset" : 8916
        },
        {
            "buffer" : 0,
            "byteLength" : 5944,
            "byteOffset" : 17832
        },
        {
            "buffer" : 0,
            "byteLength" : 8748,
            "byteOffset" : 23776
        },
        {
            "buffer" : 0,
            "byteLength" : 2088,
            "byteOffset" : 32524
        },
        {
            "buffer" : 0,
            "byteLength" : 2088,
            "byteOffset" : 34612
        },
        {
            "buffer" : 0,
            "byteLength" : 1392,
            "byteOffset" : 36700
        },
        {
            "buffer" : 0,
            "byteLength" : 1956,
            "byteOffset" : 38092
        }
    ],
    "samplers" : [
        {
            "magFilter" : 9729,
            "minFilter" : 9987
        }
    ],
    "buffers" : [
        {
            "byteLength" : 40048,
            "uri" : "HWN20_Tree_03.bin"
        }
    ]
}
   