{
    "asset" : {
        "generator" : "Khronos glTF Blender I/O v1.6.16",
        "version" : "2.0"
    },
    "scene" : 1,
    "scenes" : [
        {
            "name" : "Ball"
        },
        {
            "name" : "Halloween20",
            "nodes" : [
                0,
                1
            ]
        }
    ],
    "nodes" : [
        {
            "mesh" : 0,
            "name" : "HWN20_Pumpkin_03_glb",
            "rotation" : [
                0,
                0.7071068286895752,
                0,
                0.7071068286895752
            ],
            "scale" : [
                1.5216630697250366,
                1.5216630697250366,
                1.5216630697250366
            ],
            "translation" : [
                -0.05223707854747772,
                0,
                0
            ]
        },
        {
            "mesh" : 1,
            "name" : "HWN20_Pumpkin_03_collider",
            "scale" : [
                0.39096248149871826,
                0.39096248149871826,
                0.39096248149871826
            ]
        }
    ],
    "materials" : [
        {
            "doubleSided" : true,
            "name" : "AtlasSolid.022",
            "pbrMetallicRoughness" : {
                "baseColorTexture" : {
                    "index" : 0
                },
                "metallicFactor" : 0.20000000298023224
            }
        },
        {
            "doubleSided" : true,
            "emissiveFactor" : [
                1,
                1,
                1
            ],
            "emissiveTexture" : {
                "index" : 1
            },
            "name" : "AtlasLight.014",
            "pbrMetallicRoughness" : {
                "baseColorTexture" : {
                    "index" : 2
                },
                "metallicFactor" : 0
            }
        }
    ],
    "meshes" : [
        {
            "name" : "Pumpkin_004.002",
            "primitives" : [
                {
                    "attributes" : {
                        "POSITION" : 0,
                        "NORMAL" : 1,
                        "TEXCOORD_0" : 2
                    },
                    "indices" : 3,
                    "material" : 0
                },
                {
                    "attributes" : {
                        "POSITION" : 4,
                        "NORMAL" : 5,
                        "TEXCOORD_0" : 6
                    },
                    "indices" : 7,
                    "material" : 1
                }
            ]
        },
        {
            "name" : "Cube.028",
            "primitives" : [
                {
                    "attributes" : {
                        "POSITION" : 8,
                        "NORMAL" : 9,
                        "TEXCOORD_0" : 10
                    },
                    "indices" : 11
                }
            ]
        }
    ],
    "textures" : [
        {
            "sampler" : 0,
            "source" : 0
        },
        {
            "sampler" : 0,
            "source" : 1
        },
        {
            "sampler" : 0,
            "source" : 1
        }
    ],
    "images" : [
        {
            "mimeType" : "image/png",
            "name" : "Genesis_TX",
            "uri" : "textures/Genesis_TX.png"
        },
        {
            "mimeType" : "image/png",
            "name" : "Genesis_TX",
            "uri" : "textures/Genesis_TX-1.png"
        }
    ],
    "accessors" : [
        {
            "bufferView" : 0,
            "componentType" : 5126,
            "count" : 217,
            "max" : [
                0.23975731432437897,
                0.4414680600166321,
                0.259909063577652
            ],
            "min" : [
                -0.2667882442474365,
                -0.004378968849778175,
                -0.19093099236488342
            ],
            "type" : "VEC3"
        },
        {
            "bufferView" : 1,
            "componentType" : 5126,
            "count" : 217,
            "type" : "VEC3"
        },
        {
            "bufferView" : 2,
            "componentType" : 5126,
            "count" : 217,
            "type" : "VEC2"
        },
        {
            "bufferView" : 3,
            "componentType" : 5123,
            "count" : 645,
            "type" : "SCALAR"
        },
        {
            "bufferView" : 4,
            "componentType" : 5126,
            "count" : 132,
            "max" : [
                0.016229113563895226,
                0.2418406754732132,
                0.2364465743303299
            ],
            "min" : [
                -0.2667882442474365,
                0.05470007285475731,
                -0.16616013646125793
            ],
            "type" : "VEC3"
        },
        {
            "bufferView" : 5,
            "componentType" : 5126,
            "count" : 132,
            "type" : "VEC3"
        },
        {
            "bufferView" : 6,
            "componentType" : 5126,
            "count" : 132,
            "type" : "VEC2"
        },
        {
            "bufferView" : 7,
            "componentType" : 5123,
            "count" : 132,
            "type" : "SCALAR"
        },
        {
            "bufferView" : 8,
            "componentType" : 5126,
            "count" : 138,
            "max" : [
                0.9572939872741699,
                1.7285208702087402,
                1.0534943342208862
            ],
            "min" : [
                -0.9572939872741699,
                -0.011292814277112484,
                -0.9572939872741699
            ],
            "type" : "VEC3"
        },
        {
            "bufferView" : 9,
            "componentType" : 5126,
            "count" : 138,
            "type" : "VEC3"
        },
        {
            "bufferView" : 10,
            "componentType" : 5126,
            "count" : 138,
            "type" : "VEC2"
        },
        {
            "bufferView" : 11,
            "componentType" : 5123,
            "count" : 156,
            "type" : "SCALAR"
        }
    ],
    "bufferViews" : [
        {
            "buffer" : 0,
            "byteLength" : 2604,
            "byteOffset" : 0
        },
        {
            "buffer" : 0,
            "byteLength" : 2604,
            "byteOffset" : 2604
        },
        {
            "buffer" : 0,
            "byteLength" : 1736,
            "byteOffset" : 5208
        },
        {
            "buffer" : 0,
            "byteLength" : 1290,
            "byteOffset" : 6944
        },
        {
            "buffer" : 0,
            "byteLength" : 1584,
            "byteOffset" : 8236
        },
        {
            "buffer" : 0,
            "byteLength" : 1584,
            "byteOffset" : 9820
        },
        {
            "buffer" : 0,
            "byteLength" : 1056,
            "byteOffset" : 11404
        },
        {
            "buffer" : 0,
            "byteLength" : 264,
            "byteOffset" : 12460
        },
        {
            "buffer" : 0,
            "byteLength" : 1656,
            "byteOffset" : 12724
        },
        {
            "buffer" : 0,
            "byteLength" : 1656,
            "byteOffset" : 14380
        },
        {
            "buffer" : 0,
            "byteLength" : 1104,
            "byteOffset" : 16036
        },
        {
            "buffer" : 0,
            "byteLength" : 312,
            "byteOffset" : 17140
        }
    ],
    "samplers" : [
        {
            "magFilter" : 9729,
            "minFilter" : 9987
        }
    ],
    "buffers" : [
        {
            "byteLength" : 17452,
            "uri" : "HWN20_Pumpkin_03.bin"
        }
    ]
}
   