{
    "asset" : {
        "generator" : "Khronos glTF Blender I/O v1.6.16",
        "version" : "2.0"
    },
    "scene" : 1,
    "scenes" : [
        {
            "name" : "Ball"
        },
        {
            "name" : "Halloween20",
            "nodes" : [
                0,
                1
            ]
        }
    ],
    "nodes" : [
        {
            "mesh" : 0,
            "name" : "HWN20_IronfFence_01_glb",
            "rotation" : [
                0,
                0.7071068286895752,
                0,
                0.7071067690849304
            ]
        },
        {
            "mesh" : 1,
            "name" : "HWN20_IronfFence_01_collider"
        }
    ],
    "materials" : [
        {
            "name" : "Material_MR",
            "pbrMetallicRoughness" : {
                "baseColorTexture" : {
                    "index" : 0
                },
                "metallicFactor" : 0
            }
        }
    ],
    "meshes" : [
        {
            "name" : "Cube.007",
            "primitives" : [
                {
                    "attributes" : {
                        "POSITION" : 0,
                        "NORMAL" : 1,
                        "TEXCOORD_0" : 2
                    },
                    "indices" : 3,
                    "material" : 0
                }
            ]
        },
        {
            "name" : "Cube.107",
            "primitives" : [
                {
                    "attributes" : {
                        "POSITION" : 4,
                        "NORMAL" : 5,
                        "TEXCOORD_0" : 6
                    },
                    "indices" : 7
                }
            ]
        }
    ],
    "textures" : [
        {
            "sampler" : 0,
            "source" : 0
        }
    ],
    "images" : [
        {
            "mimeType" : "image/png",
            "name" : "FanstasyPack_TX.png",
            "uri" : "textures/FanstasyPack_TX_png.png"
        }
    ],
    "accessors" : [
        {
            "bufferView" : 0,
            "componentType" : 5126,
            "count" : 396,
            "max" : [
                0.20581376552581787,
                4.458320617675781,
                3.4006741046905518
            ],
            "min" : [
                -0.15359187126159668,
                -0.044628143310546875,
                -0.06686091423034668
            ],
            "type" : "VEC3"
        },
        {
            "bufferView" : 1,
            "componentType" : 5126,
            "count" : 396,
            "type" : "VEC3"
        },
        {
            "bufferView" : 2,
            "componentType" : 5126,
            "count" : 396,
            "type" : "VEC2"
        },
        {
            "bufferView" : 3,
            "componentType" : 5123,
            "count" : 402,
            "type" : "SCALAR"
        },
        {
            "bufferView" : 4,
            "componentType" : 5126,
            "count" : 24,
            "max" : [
                3.2973837852478027,
                4.492250442504883,
                0.23495197296142578
            ],
            "min" : [
                -0.013132572174072266,
                -0.028445720672607422,
                -0.23495149612426758
            ],
            "type" : "VEC3"
        },
        {
            "bufferView" : 5,
            "componentType" : 5126,
            "count" : 24,
            "type" : "VEC3"
        },
        {
            "bufferView" : 6,
            "componentType" : 5126,
            "count" : 24,
            "type" : "VEC2"
        },
        {
            "bufferView" : 7,
            "componentType" : 5123,
            "count" : 36,
            "type" : "SCALAR"
        }
    ],
    "bufferViews" : [
        {
            "buffer" : 0,
            "byteLength" : 4752,
            "byteOffset" : 0
        },
        {
            "buffer" : 0,
            "byteLength" : 4752,
            "byteOffset" : 4752
        },
        {
            "buffer" : 0,
            "byteLength" : 3168,
            "byteOffset" : 9504
        },
        {
            "buffer" : 0,
            "byteLength" : 804,
            "byteOffset" : 12672
        },
        {
            "buffer" : 0,
            "byteLength" : 288,
            "byteOffset" : 13476
        },
        {
            "buffer" : 0,
            "byteLength" : 288,
            "byteOffset" : 13764
        },
        {
            "buffer" : 0,
            "byteLength" : 192,
            "byteOffset" : 14052
        },
        {
            "buffer" : 0,
            "byteLength" : 72,
            "byteOffset" : 14244
        }
    ],
    "samplers" : [
        {
            "magFilter" : 9729,
            "minFilter" : 9987
        }
    ],
    "buffers" : [
        {
            "byteLength" : 14316,
            "uri" : "HWN20_IronfFence_01.bin"
        }
    ]
}
   