{
    "asset" : {
        "generator" : "Khronos glTF Blender I/O v1.6.16",
        "version" : "2.0"
    },
    "scene" : 1,
    "scenes" : [
        {
            "name" : "Ball"
        },
        {
            "name" : "Halloween20",
            "nodes" : [
                0,
                1
            ]
        }
    ],
    "nodes" : [
        {
            "mesh" : 0,
            "name" : "HWN20_TreeBase_Knife_glb",
            "rotation" : [
                0,
                -0.565041720867157,
                0,
                0.8250623345375061
            ]
        },
        {
            "mesh" : 1,
            "name" : "HWN20_TreeBase_Knife_collider",
            "rotation" : [
                0,
                -0.565041720867157,
                0,
                0.8250623345375061
            ]
        }
    ],
    "materials" : [
        {
            "doubleSided" : true,
            "name" : "AtlasSolid.112",
            "pbrMetallicRoughness" : {
                "baseColorTexture" : {
                    "index" : 0
                },
                "metallicFactor" : 0.20000000298023224
            }
        }
    ],
    "meshes" : [
        {
            "name" : "Tree_C_002",
            "primitives" : [
                {
                    "attributes" : {
                        "POSITION" : 0,
                        "NORMAL" : 1,
                        "TEXCOORD_0" : 2
                    },
                    "indices" : 3,
                    "material" : 0
                }
            ]
        },
        {
            "name" : "Tree_C_002.003",
            "primitives" : [
                {
                    "attributes" : {
                        "POSITION" : 4,
                        "NORMAL" : 5,
                        "TEXCOORD_0" : 6
                    },
                    "indices" : 7
                }
            ]
        }
    ],
    "textures" : [
        {
            "sampler" : 0,
            "source" : 0
        }
    ],
    "images" : [
        {
            "mimeType" : "image/png",
            "name" : "Genesis_TX",
            "uri" : "textures/Genesis_TX.png"
        }
    ],
    "accessors" : [
        {
            "bufferView" : 0,
            "componentType" : 5126,
            "count" : 358,
            "max" : [
                0.5673445463180542,
                1.547612190246582,
                0.9088594913482666
            ],
            "min" : [
                -1.1124060153961182,
                -0.02934044599533081,
                -0.9527082443237305
            ],
            "type" : "VEC3"
        },
        {
            "bufferView" : 1,
            "componentType" : 5126,
            "count" : 358,
            "type" : "VEC3"
        },
        {
            "bufferView" : 2,
            "componentType" : 5126,
            "count" : 358,
            "type" : "VEC2"
        },
        {
            "bufferView" : 3,
            "componentType" : 5123,
            "count" : 1260,
            "type" : "SCALAR"
        },
        {
            "bufferView" : 4,
            "componentType" : 5126,
            "count" : 142,
            "max" : [
                0.5670362710952759,
                1.547644853591919,
                0.8776856660842896
            ],
            "min" : [
                -1.1124060153961182,
                -0.02934044599533081,
                -0.9527082443237305
            ],
            "type" : "VEC3"
        },
        {
            "bufferView" : 5,
            "componentType" : 5126,
            "count" : 142,
            "type" : "VEC3"
        },
        {
            "bufferView" : 6,
            "componentType" : 5126,
            "count" : 142,
            "type" : "VEC2"
        },
        {
            "bufferView" : 7,
            "componentType" : 5123,
            "count" : 600,
            "type" : "SCALAR"
        }
    ],
    "bufferViews" : [
        {
            "buffer" : 0,
            "byteLength" : 4296,
            "byteOffset" : 0
        },
        {
            "buffer" : 0,
            "byteLength" : 4296,
            "byteOffset" : 4296
        },
        {
            "buffer" : 0,
            "byteLength" : 2864,
            "byteOffset" : 8592
        },
        {
            "buffer" : 0,
            "byteLength" : 2520,
            "byteOffset" : 11456
        },
        {
            "buffer" : 0,
            "byteLength" : 1704,
            "byteOffset" : 13976
        },
        {
            "buffer" : 0,
            "byteLength" : 1704,
            "byteOffset" : 15680
        },
        {
            "buffer" : 0,
            "byteLength" : 1136,
            "byteOffset" : 17384
        },
        {
            "buffer" : 0,
            "byteLength" : 1200,
            "byteOffset" : 18520
        }
    ],
    "samplers" : [
        {
            "magFilter" : 9729,
            "minFilter" : 9987
        }
    ],
    "buffers" : [
        {
            "byteLength" : 19720,
            "uri" : "HWN20_TreeBase_Knife.bin"
        }
    ]
}
   