{
    "asset" : {
        "generator" : "Khronos glTF Blender I/O v1.6.16",
        "version" : "2.0"
    },
    "scene" : 1,
    "scenes" : [
        {
            "name" : "Ball"
        },
        {
            "name" : "Halloween20",
            "nodes" : [
                0,
                1
            ]
        }
    ],
    "nodes" : [
        {
            "mesh" : 0,
            "name" : "HWN20_Tree_02_glb",
            "rotation" : [
                0,
                -0.9412540793418884,
                0,
                -0.33769914507865906
            ]
        },
        {
            "mesh" : 1,
            "name" : "HWN20_Tree_02_collider",
            "rotation" : [
                0,
                -0.9412540793418884,
                0,
                -0.33769914507865906
            ]
        }
    ],
    "materials" : [
        {
            "doubleSided" : true,
            "name" : "AtlasSolid.116",
            "pbrMetallicRoughness" : {
                "baseColorTexture" : {
                    "index" : 0
                },
                "metallicFactor" : 0.20000000298023224
            }
        }
    ],
    "meshes" : [
        {
            "name" : "Tree_B_002.010",
            "primitives" : [
                {
                    "attributes" : {
                        "POSITION" : 0,
                        "NORMAL" : 1,
                        "TEXCOORD_0" : 2
                    },
                    "indices" : 3,
                    "material" : 0
                }
            ]
        },
        {
            "name" : "Tree_B_002.002",
            "primitives" : [
                {
                    "attributes" : {
                        "POSITION" : 4,
                        "NORMAL" : 5,
                        "TEXCOORD_0" : 6
                    },
                    "indices" : 7
                }
            ]
        }
    ],
    "textures" : [
        {
            "sampler" : 0,
            "source" : 0
        }
    ],
    "images" : [
        {
            "mimeType" : "image/png",
            "name" : "Genesis_TX",
            "uri" : "textures/Genesis_TX.png"
        }
    ],
    "accessors" : [
        {
            "bufferView" : 0,
            "componentType" : 5126,
            "count" : 966,
            "max" : [
                1.6858844757080078,
                4.821536064147949,
                1.190685749053955
            ],
            "min" : [
                -1.499463438987732,
                -0.1000911220908165,
                -1.4062637090682983
            ],
            "type" : "VEC3"
        },
        {
            "bufferView" : 1,
            "componentType" : 5126,
            "count" : 966,
            "type" : "VEC3"
        },
        {
            "bufferView" : 2,
            "componentType" : 5126,
            "count" : 966,
            "type" : "VEC2"
        },
        {
            "bufferView" : 3,
            "componentType" : 5123,
            "count" : 5220,
            "type" : "SCALAR"
        },
        {
            "bufferView" : 4,
            "componentType" : 5126,
            "count" : 77,
            "max" : [
                1.5534789562225342,
                4.672023296356201,
                1.0276488065719604
            ],
            "min" : [
                -1.2947262525558472,
                -0.02702910825610161,
                -1.3123034238815308
            ],
            "type" : "VEC3"
        },
        {
            "bufferView" : 5,
            "componentType" : 5126,
            "count" : 77,
            "type" : "VEC3"
        },
        {
            "bufferView" : 6,
            "componentType" : 5126,
            "count" : 77,
            "type" : "VEC2"
        },
        {
            "bufferView" : 7,
            "componentType" : 5123,
            "count" : 432,
            "type" : "SCALAR"
        }
    ],
    "bufferViews" : [
        {
            "buffer" : 0,
            "byteLength" : 11592,
            "byteOffset" : 0
        },
        {
            "buffer" : 0,
            "byteLength" : 11592,
            "byteOffset" : 11592
        },
        {
            "buffer" : 0,
            "byteLength" : 7728,
            "byteOffset" : 23184
        },
        {
            "buffer" : 0,
            "byteLength" : 10440,
            "byteOffset" : 30912
        },
        {
            "buffer" : 0,
            "byteLength" : 924,
            "byteOffset" : 41352
        },
        {
            "buffer" : 0,
            "byteLength" : 924,
            "byteOffset" : 42276
        },
        {
            "buffer" : 0,
            "byteLength" : 616,
            "byteOffset" : 43200
        },
        {
            "buffer" : 0,
            "byteLength" : 864,
            "byteOffset" : 43816
        }
    ],
    "samplers" : [
        {
            "magFilter" : 9729,
            "minFilter" : 9987
        }
    ],
    "buffers" : [
        {
            "byteLength" : 44680,
            "uri" : "HWN20_Tree_02.bin"
        }
    ]
}
   