{
    "asset" : {
        "generator" : "Khronos glTF Blender I/O v1.6.16",
        "version" : "2.0"
    },
    "scene" : 1,
    "scenes" : [
        {
            "name" : "Ball"
        },
        {
            "name" : "Halloween20",
            "nodes" : [
                0,
                1
            ]
        }
    ],
    "nodes" : [
        {
            "mesh" : 0,
            "name" : "HWN20_Tree_09_glb",
            "rotation" : [
                0,
                0.9978428483009338,
                0,
                -0.06564951688051224
            ],
            "scale" : [
                0.3718421161174774,
                0.37184199690818787,
                0.3718421161174774
            ]
        },
        {
            "mesh" : 1,
            "name" : "HWN20_Tree_09_collider",
            "rotation" : [
                0,
                0.9978428483009338,
                0,
                -0.06564951688051224
            ],
            "scale" : [
                0.3718421161174774,
                0.37184199690818787,
                0.3718421161174774
            ]
        }
    ],
    "materials" : [
        {
            "doubleSided" : true,
            "name" : "AtlasSolid.120",
            "pbrMetallicRoughness" : {
                "baseColorTexture" : {
                    "index" : 0
                },
                "metallicFactor" : 0.20000000298023224
            }
        }
    ],
    "meshes" : [
        {
            "name" : "Plane.059",
            "primitives" : [
                {
                    "attributes" : {
                        "POSITION" : 0,
                        "NORMAL" : 1,
                        "TEXCOORD_0" : 2
                    },
                    "indices" : 3,
                    "material" : 0
                }
            ]
        },
        {
            "name" : "Plane.014",
            "primitives" : [
                {
                    "attributes" : {
                        "POSITION" : 4,
                        "NORMAL" : 5,
                        "TEXCOORD_0" : 6
                    },
                    "indices" : 7
                }
            ]
        }
    ],
    "textures" : [
        {
            "sampler" : 0,
            "source" : 0
        }
    ],
    "images" : [
        {
            "mimeType" : "image/png",
            "name" : "Genesis_TX",
            "uri" : "textures/Genesis_TX.png"
        }
    ],
    "accessors" : [
        {
            "bufferView" : 0,
            "componentType" : 5126,
            "count" : 3928,
            "max" : [
                5.402189254760742,
                16.741004943847656,
                9.637412071228027
            ],
            "min" : [
                -10.13438892364502,
                -0.10131382197141647,
                -6.30907678604126
            ],
            "type" : "VEC3"
        },
        {
            "bufferView" : 1,
            "componentType" : 5126,
            "count" : 3928,
            "type" : "VEC3"
        },
        {
            "bufferView" : 2,
            "componentType" : 5126,
            "count" : 3928,
            "type" : "VEC2"
        },
        {
            "bufferView" : 3,
            "componentType" : 5123,
            "count" : 4074,
            "type" : "SCALAR"
        },
        {
            "bufferView" : 4,
            "componentType" : 5126,
            "count" : 664,
            "max" : [
                5.383919715881348,
                16.706192016601562,
                9.468606948852539
            ],
            "min" : [
                -9.915535926818848,
                -0.20130297541618347,
                -6.302733898162842
            ],
            "type" : "VEC3"
        },
        {
            "bufferView" : 5,
            "componentType" : 5126,
            "count" : 664,
            "type" : "VEC3"
        },
        {
            "bufferView" : 6,
            "componentType" : 5126,
            "count" : 664,
            "type" : "VEC2"
        },
        {
            "bufferView" : 7,
            "componentType" : 5123,
            "count" : 678,
            "type" : "SCALAR"
        }
    ],
    "bufferViews" : [
        {
            "buffer" : 0,
            "byteLength" : 47136,
            "byteOffset" : 0
        },
        {
            "buffer" : 0,
            "byteLength" : 47136,
            "byteOffset" : 47136
        },
        {
            "buffer" : 0,
            "byteLength" : 31424,
            "byteOffset" : 94272
        },
        {
            "buffer" : 0,
            "byteLength" : 8148,
            "byteOffset" : 125696
        },
        {
            "buffer" : 0,
            "byteLength" : 7968,
            "byteOffset" : 133844
        },
        {
            "buffer" : 0,
            "byteLength" : 7968,
            "byteOffset" : 141812
        },
        {
            "buffer" : 0,
            "byteLength" : 5312,
            "byteOffset" : 149780
        },
        {
            "buffer" : 0,
            "byteLength" : 1356,
            "byteOffset" : 155092
        }
    ],
    "samplers" : [
        {
            "magFilter" : 9729,
            "minFilter" : 9987
        }
    ],
    "buffers" : [
        {
            "byteLength" : 156448,
            "uri" : "HWN20_Tree_09.bin"
        }
    ]
}
   