{
    "asset" : {
        "generator" : "Khronos glTF Blender I/O v1.6.16",
        "version" : "2.0"
    },
    "scene" : 1,
    "scenes" : [
        {
            "name" : "Ball"
        },
        {
            "name" : "Halloween20",
            "nodes" : [
                0,
                1
            ]
        }
    ],
    "nodes" : [
        {
            "mesh" : 0,
            "name" : "HWN20_PumpkinBasket_glb",
            "rotation" : [
                0.7071068286895752,
                0,
                0,
                0.7071067094802856
            ],
            "scale" : [
                0.009999999776482582,
                0.009999998845160007,
                0.009999998845160007
            ]
        },
        {
            "mesh" : 1,
            "name" : "HWN20_PumpkinBasket_collider",
            "scale" : [
                0.261513352394104,
                0.261513352394104,
                0.261513352394104
            ]
        }
    ],
    "materials" : [
        {
            "doubleSided" : true,
            "name" : "AtlasSolid.016",
            "pbrMetallicRoughness" : {
                "baseColorTexture" : {
                    "index" : 0
                },
                "metallicFactor" : 0.20000000298023224
            }
        }
    ],
    "meshes" : [
        {
            "name" : "pumpkin1.002",
            "primitives" : [
                {
                    "attributes" : {
                        "POSITION" : 0,
                        "NORMAL" : 1,
                        "TEXCOORD_0" : 2
                    },
                    "indices" : 3,
                    "material" : 0
                }
            ]
        },
        {
            "name" : "Cylinder.002",
            "primitives" : [
                {
                    "attributes" : {
                        "POSITION" : 4,
                        "NORMAL" : 5,
                        "TEXCOORD_0" : 6
                    },
                    "indices" : 7
                }
            ]
        }
    ],
    "textures" : [
        {
            "sampler" : 0,
            "source" : 0
        }
    ],
    "images" : [
        {
            "mimeType" : "image/png",
            "name" : "Genesis_TX",
            "uri" : "textures/Genesis_TX.png"
        }
    ],
    "accessors" : [
        {
            "bufferView" : 0,
            "componentType" : 5126,
            "count" : 1211,
            "max" : [
                27.57710075378418,
                24.693557739257812,
                0.11523184180259705
            ],
            "min" : [
                -27.57710075378418,
                -24.959272384643555,
                -57.673728942871094
            ],
            "type" : "VEC3"
        },
        {
            "bufferView" : 1,
            "componentType" : 5126,
            "count" : 1211,
            "type" : "VEC3"
        },
        {
            "bufferView" : 2,
            "componentType" : 5126,
            "count" : 1211,
            "type" : "VEC2"
        },
        {
            "bufferView" : 3,
            "componentType" : 5123,
            "count" : 2310,
            "type" : "SCALAR"
        },
        {
            "bufferView" : 4,
            "componentType" : 5126,
            "count" : 403,
            "max" : [
                1.054519772529602,
                2.20538330078125,
                0.9501468539237976
            ],
            "min" : [
                -1.054519772529602,
                0.006100714206695557,
                -0.9501468539237976
            ],
            "type" : "VEC3"
        },
        {
            "bufferView" : 5,
            "componentType" : 5126,
            "count" : 403,
            "type" : "VEC3"
        },
        {
            "bufferView" : 6,
            "componentType" : 5126,
            "count" : 403,
            "type" : "VEC2"
        },
        {
            "bufferView" : 7,
            "componentType" : 5123,
            "count" : 432,
            "type" : "SCALAR"
        }
    ],
    "bufferViews" : [
        {
            "buffer" : 0,
            "byteLength" : 14532,
            "byteOffset" : 0
        },
        {
            "buffer" : 0,
            "byteLength" : 14532,
            "byteOffset" : 14532
        },
        {
            "buffer" : 0,
            "byteLength" : 9688,
            "byteOffset" : 29064
        },
        {
            "buffer" : 0,
            "byteLength" : 4620,
            "byteOffset" : 38752
        },
        {
            "buffer" : 0,
            "byteLength" : 4836,
            "byteOffset" : 43372
        },
        {
            "buffer" : 0,
            "byteLength" : 4836,
            "byteOffset" : 48208
        },
        {
            "buffer" : 0,
            "byteLength" : 3224,
            "byteOffset" : 53044
        },
        {
            "buffer" : 0,
            "byteLength" : 864,
            "byteOffset" : 56268
        }
    ],
    "samplers" : [
        {
            "magFilter" : 9729,
            "minFilter" : 9987
        }
    ],
    "buffers" : [
        {
            "byteLength" : 57132,
            "uri" : "HWN20_PumpkinBasket.bin"
        }
    ]
}
   