{
    "asset" : {
        "generator" : "Khronos glTF Blender I/O v1.6.16",
        "version" : "2.0"
    },
    "scene" : 1,
    "scenes" : [
        {
            "name" : "Ball"
        },
        {
            "name" : "Halloween20",
            "nodes" : [
                0,
                1
            ]
        }
    ],
    "nodes" : [
        {
            "mesh" : 0,
            "name" : "HWN20_Tree_08_glb",
            "rotation" : [
                0,
                0.7071068286895752,
                0,
                0.7071068286895752
            ],
            "scale" : [
                0.5641770958900452,
                0.5641770958900452,
                0.5641770958900452
            ]
        },
        {
            "mesh" : 1,
            "name" : "HWN20_Tree_08_collider",
            "rotation" : [
                0,
                0.7071068286895752,
                0,
                0.7071068286895752
            ],
            "scale" : [
                0.5641770958900452,
                0.5641770958900452,
                0.5641770958900452
            ]
        }
    ],
    "materials" : [
        {
            "doubleSided" : true,
            "name" : "AtlasSolid.117",
            "pbrMetallicRoughness" : {
                "baseColorTexture" : {
                    "index" : 0
                },
                "metallicFactor" : 0.20000000298023224
            }
        }
    ],
    "meshes" : [
        {
            "name" : "Plane.064",
            "primitives" : [
                {
                    "attributes" : {
                        "POSITION" : 0,
                        "NORMAL" : 1,
                        "TEXCOORD_0" : 2
                    },
                    "indices" : 3,
                    "material" : 0
                }
            ]
        },
        {
            "name" : "Plane.013",
            "primitives" : [
                {
                    "attributes" : {
                        "POSITION" : 4,
                        "NORMAL" : 5,
                        "TEXCOORD_0" : 6
                    },
                    "indices" : 7
                }
            ]
        }
    ],
    "textures" : [
        {
            "sampler" : 0,
            "source" : 0
        }
    ],
    "images" : [
        {
            "mimeType" : "image/png",
            "name" : "Genesis_TX",
            "uri" : "textures/Genesis_TX.png"
        }
    ],
    "accessors" : [
        {
            "bufferView" : 0,
            "componentType" : 5126,
            "count" : 5238,
            "max" : [
                2.9903595447540283,
                11.594700813293457,
                3.967925548553467
            ],
            "min" : [
                -4.424427509307861,
                -0.15635697543621063,
                -3.4238100051879883
            ],
            "type" : "VEC3"
        },
        {
            "bufferView" : 1,
            "componentType" : 5126,
            "count" : 5238,
            "type" : "VEC3"
        },
        {
            "bufferView" : 2,
            "componentType" : 5126,
            "count" : 5238,
            "type" : "VEC2"
        },
        {
            "bufferView" : 3,
            "componentType" : 5123,
            "count" : 5454,
            "type" : "SCALAR"
        },
        {
            "bufferView" : 4,
            "componentType" : 5126,
            "count" : 1348,
            "max" : [
                3.0340731143951416,
                11.571890830993652,
                3.97985577583313
            ],
            "min" : [
                -4.413236618041992,
                -0.06170390918850899,
                -3.2325193881988525
            ],
            "type" : "VEC3"
        },
        {
            "bufferView" : 5,
            "componentType" : 5126,
            "count" : 1348,
            "type" : "VEC3"
        },
        {
            "bufferView" : 6,
            "componentType" : 5126,
            "count" : 1348,
            "type" : "VEC2"
        },
        {
            "bufferView" : 7,
            "componentType" : 5123,
            "count" : 1362,
            "type" : "SCALAR"
        }
    ],
    "bufferViews" : [
        {
            "buffer" : 0,
            "byteLength" : 62856,
            "byteOffset" : 0
        },
        {
            "buffer" : 0,
            "byteLength" : 62856,
            "byteOffset" : 62856
        },
        {
            "buffer" : 0,
            "byteLength" : 41904,
            "byteOffset" : 125712
        },
        {
            "buffer" : 0,
            "byteLength" : 10908,
            "byteOffset" : 167616
        },
        {
            "buffer" : 0,
            "byteLength" : 16176,
            "byteOffset" : 178524
        },
        {
            "buffer" : 0,
            "byteLength" : 16176,
            "byteOffset" : 194700
        },
        {
            "buffer" : 0,
            "byteLength" : 10784,
            "byteOffset" : 210876
        },
        {
            "buffer" : 0,
            "byteLength" : 2724,
            "byteOffset" : 221660
        }
    ],
    "samplers" : [
        {
            "magFilter" : 9729,
            "minFilter" : 9987
        }
    ],
    "buffers" : [
        {
            "byteLength" : 224384,
            "uri" : "HWN20_Tree_08.bin"
        }
    ]
}
   