{
    "asset" : {
        "generator" : "Khronos glTF Blender I/O v1.6.16",
        "version" : "2.0"
    },
    "scene" : 1,
    "scenes" : [
        {
            "name" : "Ball"
        },
        {
            "name" : "Halloween20",
            "nodes" : [
                0,
                1
            ]
        }
    ],
    "nodes" : [
        {
            "mesh" : 0,
            "name" : "HWN20_IronfFence_03_glb",
            "rotation" : [
                0.5000001788139343,
                -0.4999999403953552,
                0.5000001192092896,
                0.4999999701976776
            ],
            "scale" : [
                0.6278039813041687,
                0.6278039813041687,
                0.6278039813041687
            ]
        },
        {
            "mesh" : 1,
            "name" : "HWN20_IronfFence_03_collider"
        }
    ],
    "materials" : [
        {
            "doubleSided" : true,
            "name" : "AtlasSolid.015",
            "pbrMetallicRoughness" : {
                "baseColorTexture" : {
                    "index" : 0
                },
                "metallicFactor" : 0.20000000298023224
            }
        }
    ],
    "meshes" : [
        {
            "name" : "Ext_RejaLapidas_Cube.003",
            "primitives" : [
                {
                    "attributes" : {
                        "POSITION" : 0,
                        "NORMAL" : 1,
                        "TEXCOORD_0" : 2
                    },
                    "indices" : 3,
                    "material" : 0
                }
            ]
        },
        {
            "name" : "Cube.109",
            "primitives" : [
                {
                    "attributes" : {
                        "POSITION" : 4,
                        "NORMAL" : 5,
                        "TEXCOORD_0" : 6
                    },
                    "indices" : 7
                }
            ]
        }
    ],
    "textures" : [
        {
            "sampler" : 0,
            "source" : 0
        }
    ],
    "images" : [
        {
            "mimeType" : "image/png",
            "name" : "Genesis_TX",
            "uri" : "textures/Genesis_TX.png"
        }
    ],
    "accessors" : [
        {
            "bufferView" : 0,
            "componentType" : 5126,
            "count" : 372,
            "max" : [
                0.17360687255859375,
                0.06943321228027344,
                0.17955143749713898
            ],
            "min" : [
                -0.08251826465129852,
                -6.366164207458496,
                -4.187178611755371
            ],
            "type" : "VEC3"
        },
        {
            "bufferView" : 1,
            "componentType" : 5126,
            "count" : 372,
            "type" : "VEC3"
        },
        {
            "bufferView" : 2,
            "componentType" : 5126,
            "count" : 372,
            "type" : "VEC2"
        },
        {
            "bufferView" : 3,
            "componentType" : 5123,
            "count" : 516,
            "type" : "SCALAR"
        },
        {
            "bufferView" : 4,
            "componentType" : 5126,
            "count" : 68,
            "max" : [
                4.0004472732543945,
                2.808610677719116,
                0.1166650652885437
            ],
            "min" : [
                0.03470051288604736,
                -0.012830018997192383,
                -0.11666486412286758
            ],
            "type" : "VEC3"
        },
        {
            "bufferView" : 5,
            "componentType" : 5126,
            "count" : 68,
            "type" : "VEC3"
        },
        {
            "bufferView" : 6,
            "componentType" : 5126,
            "count" : 68,
            "type" : "VEC2"
        },
        {
            "bufferView" : 7,
            "componentType" : 5123,
            "count" : 84,
            "type" : "SCALAR"
        }
    ],
    "bufferViews" : [
        {
            "buffer" : 0,
            "byteLength" : 4464,
            "byteOffset" : 0
        },
        {
            "buffer" : 0,
            "byteLength" : 4464,
            "byteOffset" : 4464
        },
        {
            "buffer" : 0,
            "byteLength" : 2976,
            "byteOffset" : 8928
        },
        {
            "buffer" : 0,
            "byteLength" : 1032,
            "byteOffset" : 11904
        },
        {
            "buffer" : 0,
            "byteLength" : 816,
            "byteOffset" : 12936
        },
        {
            "buffer" : 0,
            "byteLength" : 816,
            "byteOffset" : 13752
        },
        {
            "buffer" : 0,
            "byteLength" : 544,
            "byteOffset" : 14568
        },
        {
            "buffer" : 0,
            "byteLength" : 168,
            "byteOffset" : 15112
        }
    ],
    "samplers" : [
        {
            "magFilter" : 9729,
            "minFilter" : 9987
        }
    ],
    "buffers" : [
        {
            "byteLength" : 15280,
            "uri" : "HWN20_IronfFence_03.bin"
        }
    ]
}
   