{
    "asset" : {
        "generator" : "Khronos glTF Blender I/O v1.6.16",
        "version" : "2.0"
    },
    "scene" : 1,
    "scenes" : [
        {
            "name" : "Ball"
        },
        {
            "name" : "Halloween20",
            "nodes" : [
                0,
                1
            ]
        }
    ],
    "nodes" : [
        {
            "mesh" : 0,
            "name" : "HWN20_IronfFence_02_glb",
            "rotation" : [
                0.5000001788139343,
                -0.4999999403953552,
                0.5000001192092896,
                0.4999999701976776
            ],
            "scale" : [
                0.6278039813041687,
                0.6278039813041687,
                0.6278039813041687
            ]
        },
        {
            "mesh" : 1,
            "name" : "HWN20_IronfFence_02_collider"
        }
    ],
    "materials" : [
        {
            "doubleSided" : true,
            "name" : "AtlasSolid.013",
            "pbrMetallicRoughness" : {
                "baseColorTexture" : {
                    "index" : 0
                },
                "metallicFactor" : 0.20000000298023224
            }
        }
    ],
    "meshes" : [
        {
            "name" : "Ext_RejaLapidas_Cube.004",
            "primitives" : [
                {
                    "attributes" : {
                        "POSITION" : 0,
                        "NORMAL" : 1,
                        "TEXCOORD_0" : 2
                    },
                    "indices" : 3,
                    "material" : 0
                }
            ]
        },
        {
            "name" : "Cube.108",
            "primitives" : [
                {
                    "attributes" : {
                        "POSITION" : 4,
                        "NORMAL" : 5,
                        "TEXCOORD_0" : 6
                    },
                    "indices" : 7
                }
            ]
        }
    ],
    "textures" : [
        {
            "sampler" : 0,
            "source" : 0
        }
    ],
    "images" : [
        {
            "mimeType" : "image/png",
            "name" : "Genesis_TX",
            "uri" : "textures/Genesis_TX.png"
        }
    ],
    "accessors" : [
        {
            "bufferView" : 0,
            "componentType" : 5126,
            "count" : 348,
            "max" : [
                0.17360685765743256,
                -0.03424549102783203,
                0.35203462839126587
            ],
            "min" : [
                -0.11582924425601959,
                -6.418272972106934,
                -5.050708293914795
            ],
            "type" : "VEC3"
        },
        {
            "bufferView" : 1,
            "componentType" : 5126,
            "count" : 348,
            "type" : "VEC3"
        },
        {
            "bufferView" : 2,
            "componentType" : 5126,
            "count" : 348,
            "type" : "VEC2"
        },
        {
            "bufferView" : 3,
            "componentType" : 5123,
            "count" : 492,
            "type" : "SCALAR"
        },
        {
            "bufferView" : 4,
            "componentType" : 5126,
            "count" : 26,
            "max" : [
                3.988619327545166,
                3.346791982650757,
                0.12454211711883545
            ],
            "min" : [
                -0.015540719032287598,
                -0.011877059936523438,
                -0.1245417594909668
            ],
            "type" : "VEC3"
        },
        {
            "bufferView" : 5,
            "componentType" : 5126,
            "count" : 26,
            "type" : "VEC3"
        },
        {
            "bufferView" : 6,
            "componentType" : 5126,
            "count" : 26,
            "type" : "VEC2"
        },
        {
            "bufferView" : 7,
            "componentType" : 5123,
            "count" : 36,
            "type" : "SCALAR"
        }
    ],
    "bufferViews" : [
        {
            "buffer" : 0,
            "byteLength" : 4176,
            "byteOffset" : 0
        },
        {
            "buffer" : 0,
            "byteLength" : 4176,
            "byteOffset" : 4176
        },
        {
            "buffer" : 0,
            "byteLength" : 2784,
            "byteOffset" : 8352
        },
        {
            "buffer" : 0,
            "byteLength" : 984,
            "byteOffset" : 11136
        },
        {
            "buffer" : 0,
            "byteLength" : 312,
            "byteOffset" : 12120
        },
        {
            "buffer" : 0,
            "byteLength" : 312,
            "byteOffset" : 12432
        },
        {
            "buffer" : 0,
            "byteLength" : 208,
            "byteOffset" : 12744
        },
        {
            "buffer" : 0,
            "byteLength" : 72,
            "byteOffset" : 12952
        }
    ],
    "samplers" : [
        {
            "magFilter" : 9729,
            "minFilter" : 9987
        }
    ],
    "buffers" : [
        {
            "byteLength" : 13024,
            "uri" : "HWN20_IronfFence_02.bin"
        }
    ]
}
   