{
    "asset" : {
        "generator" : "Khronos glTF Blender I/O v1.6.16",
        "version" : "2.0"
    },
    "scene" : 1,
    "scenes" : [
        {
            "name" : "Ball"
        },
        {
            "name" : "Halloween20",
            "nodes" : [
                0,
                1
            ]
        }
    ],
    "nodes" : [
        {
            "mesh" : 0,
            "name" : "HWN20_SkullChain_02_glb",
            "rotation" : [
                0,
                -0.5781543254852295,
                0,
                -0.8159275650978088
            ],
            "scale" : [
                0.8882465958595276,
                0.8882465958595276,
                0.8882465958595276
            ]
        },
        {
            "mesh" : 1,
            "name" : "HWN20_SkullChain_02_collider",
            "scale" : [
                0.21352720260620117,
                0.21352720260620117,
                0.21352720260620117
            ]
        }
    ],
    "materials" : [
        {
            "doubleSided" : true,
            "name" : "AtlasSolid.100",
            "pbrMetallicRoughness" : {
                "baseColorTexture" : {
                    "index" : 0
                },
                "metallicFactor" : 0.20000000298023224
            }
        }
    ],
    "meshes" : [
        {
            "name" : "Plane.008",
            "primitives" : [
                {
                    "attributes" : {
                        "POSITION" : 0,
                        "NORMAL" : 1,
                        "TEXCOORD_0" : 2
                    },
                    "indices" : 3,
                    "material" : 0
                }
            ]
        },
        {
            "name" : "Cube.140",
            "primitives" : [
                {
                    "attributes" : {
                        "POSITION" : 4,
                        "NORMAL" : 5,
                        "TEXCOORD_0" : 6
                    },
                    "indices" : 7
                }
            ]
        }
    ],
    "textures" : [
        {
            "sampler" : 0,
            "source" : 0
        }
    ],
    "images" : [
        {
            "mimeType" : "image/png",
            "name" : "Genesis_TX",
            "uri" : "textures/Genesis_TX.png"
        }
    ],
    "accessors" : [
        {
            "bufferView" : 0,
            "componentType" : 5126,
            "count" : 2848,
            "max" : [
                0.2418895661830902,
                1.7627243995666504,
                0.22151851654052734
            ],
            "min" : [
                -0.1968679577112198,
                -0.01366281509399414,
                -0.19234132766723633
            ],
            "type" : "VEC3"
        },
        {
            "bufferView" : 1,
            "componentType" : 5126,
            "count" : 2848,
            "type" : "VEC3"
        },
        {
            "bufferView" : 2,
            "componentType" : 5126,
            "count" : 2848,
            "type" : "VEC2"
        },
        {
            "bufferView" : 3,
            "componentType" : 5123,
            "count" : 3474,
            "type" : "SCALAR"
        },
        {
            "bufferView" : 4,
            "componentType" : 5126,
            "count" : 86,
            "max" : [
                1,
                7.233577728271484,
                1.0184509754180908
            ],
            "min" : [
                -1,
                -0.03794676065444946,
                -1.0184509754180908
            ],
            "type" : "VEC3"
        },
        {
            "bufferView" : 5,
            "componentType" : 5126,
            "count" : 86,
            "type" : "VEC3"
        },
        {
            "bufferView" : 6,
            "componentType" : 5126,
            "count" : 86,
            "type" : "VEC2"
        },
        {
            "bufferView" : 7,
            "componentType" : 5123,
            "count" : 132,
            "type" : "SCALAR"
        }
    ],
    "bufferViews" : [
        {
            "buffer" : 0,
            "byteLength" : 34176,
            "byteOffset" : 0
        },
        {
            "buffer" : 0,
            "byteLength" : 34176,
            "byteOffset" : 34176
        },
        {
            "buffer" : 0,
            "byteLength" : 22784,
            "byteOffset" : 68352
        },
        {
            "buffer" : 0,
            "byteLength" : 6948,
            "byteOffset" : 91136
        },
        {
            "buffer" : 0,
            "byteLength" : 1032,
            "byteOffset" : 98084
        },
        {
            "buffer" : 0,
            "byteLength" : 1032,
            "byteOffset" : 99116
        },
        {
            "buffer" : 0,
            "byteLength" : 688,
            "byteOffset" : 100148
        },
        {
            "buffer" : 0,
            "byteLength" : 264,
            "byteOffset" : 100836
        }
    ],
    "samplers" : [
        {
            "magFilter" : 9729,
            "minFilter" : 9987
        }
    ],
    "buffers" : [
        {
            "byteLength" : 101100,
            "uri" : "HWN20_SkullChain_02.bin"
        }
    ]
}
   