{
	"asset":{
		"generator":"Khronos glTF Blender I/O v3.6.27",
		"version":"2.0"
	},
	"extensionsUsed":[
		"KHR_materials_specular",
		"KHR_materials_ior"
	],
	"scene":0,
	"scenes":[
		{
			"name":"Scene",
			"nodes":[
				4
			]
		}
	],
	"nodes":[
		{
			"mesh":0,
			"name":"jungle_control_switch_collider"
		},
		{
			"name":"root"
		},
		{
			"name":"switch",
			"translation":[
				0.2752303183078766,
				0.20984706282615662,
				0
			]
		},
		{
			"mesh":1,
			"name":"jungle_control_switch_glb",
			"skin":0
		},
		{
			"children":[
				0,
				3,
				1,
				2
			],
			"name":"jungle_control_switch_armature"
		}
	],
	"animations":[
		{
			"channels":[
				{
					"sampler":0,
					"target":{
						"node":1,
						"path":"translation"
					}
				},
				{
					"sampler":1,
					"target":{
						"node":1,
						"path":"rotation"
					}
				},
				{
					"sampler":2,
					"target":{
						"node":1,
						"path":"scale"
					}
				},
				{
					"sampler":3,
					"target":{
						"node":2,
						"path":"translation"
					}
				},
				{
					"sampler":4,
					"target":{
						"node":2,
						"path":"rotation"
					}
				},
				{
					"sampler":5,
					"target":{
						"node":2,
						"path":"scale"
					}
				}
			],
			"name":"0. switch_false",
			"samplers":[
				{
					"input":11,
					"interpolation":"STEP",
					"output":12
				},
				{
					"input":11,
					"interpolation":"STEP",
					"output":13
				},
				{
					"input":11,
					"interpolation":"STEP",
					"output":14
				},
				{
					"input":11,
					"interpolation":"LINEAR",
					"output":15
				},
				{
					"input":11,
					"interpolation":"STEP",
					"output":16
				},
				{
					"input":11,
					"interpolation":"STEP",
					"output":17
				}
			]
		},
		{
			"channels":[
				{
					"sampler":0,
					"target":{
						"node":1,
						"path":"translation"
					}
				},
				{
					"sampler":1,
					"target":{
						"node":1,
						"path":"rotation"
					}
				},
				{
					"sampler":2,
					"target":{
						"node":1,
						"path":"scale"
					}
				},
				{
					"sampler":3,
					"target":{
						"node":2,
						"path":"translation"
					}
				},
				{
					"sampler":4,
					"target":{
						"node":2,
						"path":"rotation"
					}
				},
				{
					"sampler":5,
					"target":{
						"node":2,
						"path":"scale"
					}
				}
			],
			"name":"1. switch_true",
			"samplers":[
				{
					"input":11,
					"interpolation":"STEP",
					"output":18
				},
				{
					"input":11,
					"interpolation":"STEP",
					"output":19
				},
				{
					"input":11,
					"interpolation":"STEP",
					"output":20
				},
				{
					"input":11,
					"interpolation":"LINEAR",
					"output":21
				},
				{
					"input":11,
					"interpolation":"STEP",
					"output":22
				},
				{
					"input":11,
					"interpolation":"STEP",
					"output":23
				}
			]
		}
	],
	"materials":[
		{
			"doubleSided":true,
			"emissiveFactor":[
				0.20000000298023224,
				0.20000000298023224,
				0.20000000298023224
			],
			"emissiveTexture":{
				"index":0
			},
			"extensions":{
				"KHR_materials_specular":{
					"specularColorFactor":[
						0,
						0,
						0
					]
				},
				"KHR_materials_ior":{
					"ior":1.4500000476837158
				}
			},
			"name":"inca_atlas_02",
			"pbrMetallicRoughness":{
				"baseColorTexture":{
					"index":1
				},
				"metallicFactor":0
			}
		}
	],
	"meshes":[
		{
			"name":"Cube.003",
			"primitives":[
				{
					"attributes":{
						"POSITION":0,
						"NORMAL":1,
						"TEXCOORD_0":2
					},
					"indices":3
				}
			]
		},
		{
			"name":"Cube.001",
			"primitives":[
				{
					"attributes":{
						"POSITION":4,
						"NORMAL":5,
						"TEXCOORD_0":6,
						"JOINTS_0":7,
						"WEIGHTS_0":8
					},
					"indices":9,
					"material":0
				}
			]
		}
	],
	"textures":[
		{
			"sampler":0,
			"source":0
		},
		{
			"sampler":0,
			"source":0
		}
	],
	"images":[
		{
			"mimeType":"image/png",
			"name":"jungle_atlas_02",
			"uri":"textures/jungle_atlas_02.png"
		}
	],
	"skins":[
		{
			"inverseBindMatrices":10,
			"joints":[
				1,
				2
			],
			"name":"jungle_control_switch_armature"
		}
	],
	"accessors":[
		{
			"bufferView":0,
			"componentType":5126,
			"count":16,
			"max":[
				0.761581301689148,
				0.3068239092826843,
				0.40785154700279236
			],
			"min":[
				-0.7615810632705688,
				0,
				-0.40785154700279236
			],
			"type":"VEC3"
		},
		{
			"bufferView":1,
			"componentType":5126,
			"count":16,
			"type":"VEC3"
		},
		{
			"bufferView":2,
			"componentType":5126,
			"count":16,
			"type":"VEC2"
		},
		{
			"bufferView":3,
			"componentType":5123,
			"count":36,
			"type":"SCALAR"
		},
		{
			"bufferView":4,
			"componentType":5126,
			"count":519,
			"max":[
				0.761581301689148,
				0.36099278926849365,
				0.40785154700279236
			],
			"min":[
				-0.7615810632705688,
				0,
				-0.40785154700279236
			],
			"type":"VEC3"
		},
		{
			"bufferView":5,
			"componentType":5126,
			"count":519,
			"type":"VEC3"
		},
		{
			"bufferView":6,
			"componentType":5126,
			"count":519,
			"type":"VEC2"
		},
		{
			"bufferView":7,
			"componentType":5121,
			"count":519,
			"type":"VEC4"
		},
		{
			"bufferView":8,
			"componentType":5126,
			"count":519,
			"type":"VEC4"
		},
		{
			"bufferView":9,
			"componentType":5123,
			"count":1110,
			"type":"SCALAR"
		},
		{
			"bufferView":10,
			"componentType":5126,
			"count":2,
			"type":"MAT4"
		},
		{
			"bufferView":11,
			"componentType":5126,
			"count":1,
			"max":[
				0
			],
			"min":[
				0
			],
			"type":"SCALAR"
		},
		{
			"bufferView":12,
			"componentType":5126,
			"count":1,
			"type":"VEC3"
		},
		{
			"bufferView":13,
			"componentType":5126,
			"count":1,
			"type":"VEC4"
		},
		{
			"bufferView":14,
			"componentType":5126,
			"count":1,
			"type":"VEC3"
		},
		{
			"bufferView":15,
			"componentType":5126,
			"count":1,
			"type":"VEC3"
		},
		{
			"bufferView":16,
			"componentType":5126,
			"count":1,
			"type":"VEC4"
		},
		{
			"bufferView":17,
			"componentType":5126,
			"count":1,
			"type":"VEC3"
		},
		{
			"bufferView":18,
			"componentType":5126,
			"count":1,
			"type":"VEC3"
		},
		{
			"bufferView":19,
			"componentType":5126,
			"count":1,
			"type":"VEC4"
		},
		{
			"bufferView":20,
			"componentType":5126,
			"count":1,
			"type":"VEC3"
		},
		{
			"bufferView":21,
			"componentType":5126,
			"count":1,
			"type":"VEC3"
		},
		{
			"bufferView":22,
			"componentType":5126,
			"count":1,
			"type":"VEC4"
		},
		{
			"bufferView":23,
			"componentType":5126,
			"count":1,
			"type":"VEC3"
		}
	],
	"bufferViews":[
		{
			"buffer":0,
			"byteLength":192,
			"byteOffset":0,
			"target":34962
		},
		{
			"buffer":0,
			"byteLength":192,
			"byteOffset":192,
			"target":34962
		},
		{
			"buffer":0,
			"byteLength":128,
			"byteOffset":384,
			"target":34962
		},
		{
			"buffer":0,
			"byteLength":72,
			"byteOffset":512,
			"target":34963
		},
		{
			"buffer":0,
			"byteLength":6228,
			"byteOffset":584,
			"target":34962
		},
		{
			"buffer":0,
			"byteLength":6228,
			"byteOffset":6812,
			"target":34962
		},
		{
			"buffer":0,
			"byteLength":4152,
			"byteOffset":13040,
			"target":34962
		},
		{
			"buffer":0,
			"byteLength":2076,
			"byteOffset":17192,
			"target":34962
		},
		{
			"buffer":0,
			"byteLength":8304,
			"byteOffset":19268,
			"target":34962
		},
		{
			"buffer":0,
			"byteLength":2220,
			"byteOffset":27572,
			"target":34963
		},
		{
			"buffer":0,
			"byteLength":128,
			"byteOffset":29792
		},
		{
			"buffer":0,
			"byteLength":4,
			"byteOffset":29920
		},
		{
			"buffer":0,
			"byteLength":12,
			"byteOffset":29924
		},
		{
			"buffer":0,
			"byteLength":16,
			"byteOffset":29936
		},
		{
			"buffer":0,
			"byteLength":12,
			"byteOffset":29952
		},
		{
			"buffer":0,
			"byteLength":12,
			"byteOffset":29964
		},
		{
			"buffer":0,
			"byteLength":16,
			"byteOffset":29976
		},
		{
			"buffer":0,
			"byteLength":12,
			"byteOffset":29992
		},
		{
			"buffer":0,
			"byteLength":12,
			"byteOffset":30004
		},
		{
			"buffer":0,
			"byteLength":16,
			"byteOffset":30016
		},
		{
			"buffer":0,
			"byteLength":12,
			"byteOffset":30032
		},
		{
			"buffer":0,
			"byteLength":12,
			"byteOffset":30044
		},
		{
			"buffer":0,
			"byteLength":16,
			"byteOffset":30056
		},
		{
			"buffer":0,
			"byteLength":12,
			"byteOffset":30072
		}
	],
	"samplers":[
		{
			"magFilter":9729,
			"minFilter":9987
		}
	],
	"buffers":[
		{
			"byteLength":30084,
			"uri":"jungle_control_switch.bin"
		}
	]
}
