{
	"asset":{
		"generator":"Khronos glTF Blender I/O v3.6.27",
		"version":"2.0"
	},
	"extensionsUsed":[
		"KHR_materials_specular",
		"KHR_materials_ior"
	],
	"scene":0,
	"scenes":[
		{
			"name":"Scene",
			"nodes":[
				0,
				1
			]
		}
	],
	"nodes":[
		{
			"mesh":0,
			"name":"jungle_centrebump_collider"
		},
		{
			"mesh":1,
			"name":"jungle_centrebump_glb"
		}
	],
	"materials":[
		{
			"doubleSided":true,
			"emissiveFactor":[
				0.20000000298023224,
				0.20000000298023224,
				0.20000000298023224
			],
			"emissiveTexture":{
				"index":0
			},
			"extensions":{
				"KHR_materials_specular":{
					"specularColorFactor":[
						0,
						0,
						0
					]
				},
				"KHR_materials_ior":{
					"ior":1.4500000476837158
				}
			},
			"name":"inca_atlas_01",
			"pbrMetallicRoughness":{
				"baseColorTexture":{
					"index":1
				},
				"metallicFactor":0
			}
		},
		{
			"alphaCutoff":0.6960784196853638,
			"alphaMode":"MASK",
			"doubleSided":true,
			"emissiveFactor":[
				1,
				1,
				1
			],
			"emissiveTexture":{
				"index":2
			},
			"extensions":{
				"KHR_materials_specular":{
					"specularColorFactor":[
						0,
						0,
						0
					]
				},
				"KHR_materials_ior":{
					"ior":1.4500000476837158
				}
			},
			"name":"inca_atlas_01_alpha",
			"pbrMetallicRoughness":{
				"baseColorTexture":{
					"index":3
				},
				"metallicFactor":0
			}
		}
	],
	"meshes":[
		{
			"name":"egypt_centrebump_collider",
			"primitives":[
				{
					"attributes":{
						"POSITION":0,
						"NORMAL":1,
						"TEXCOORD_0":2,
						"TEXCOORD_1":3
					},
					"indices":4
				}
			]
		},
		{
			"name":"basic_centreBump_glb_ID3.001",
			"primitives":[
				{
					"attributes":{
						"POSITION":5,
						"NORMAL":6,
						"TEXCOORD_0":7
					},
					"indices":8,
					"material":0
				},
				{
					"attributes":{
						"POSITION":9,
						"NORMAL":10,
						"TEXCOORD_0":11
					},
					"indices":12,
					"material":1
				}
			]
		}
	],
	"textures":[
		{
			"sampler":0,
			"source":0
		},
		{
			"sampler":0,
			"source":0
		},
		{
			"sampler":0,
			"source":0
		},
		{
			"sampler":0,
			"source":0
		}
	],
	"images":[
		{
			"mimeType":"image/png",
			"name":"jungle_atlas_01",
			"uri":"textures/jungle_atlas_01.png"
		}
	],
	"accessors":[
		{
			"bufferView":0,
			"componentType":5126,
			"count":92,
			"max":[
				1.9999560117721558,
				0.57635498046875,
				2
			],
			"min":[
				-1.9999560117721558,
				-3.2584136988589307e-07,
				-2
			],
			"type":"VEC3"
		},
		{
			"bufferView":1,
			"componentType":5126,
			"count":92,
			"type":"VEC3"
		},
		{
			"bufferView":2,
			"componentType":5126,
			"count":92,
			"type":"VEC2"
		},
		{
			"bufferView":3,
			"componentType":5126,
			"count":92,
			"type":"VEC2"
		},
		{
			"bufferView":4,
			"componentType":5123,
			"count":204,
			"type":"SCALAR"
		},
		{
			"bufferView":5,
			"componentType":5126,
			"count":152,
			"max":[
				1.9999560117721558,
				0.57635498046875,
				2
			],
			"min":[
				-1.9999560117721558,
				-3.2584136988589307e-07,
				-2
			],
			"type":"VEC3"
		},
		{
			"bufferView":6,
			"componentType":5126,
			"count":152,
			"type":"VEC3"
		},
		{
			"bufferView":7,
			"componentType":5126,
			"count":152,
			"type":"VEC2"
		},
		{
			"bufferView":8,
			"componentType":5123,
			"count":360,
			"type":"SCALAR"
		},
		{
			"bufferView":9,
			"componentType":5126,
			"count":28,
			"max":[
				1.7136880159378052,
				0.5928805470466614,
				1.8527541160583496
			],
			"min":[
				-1.7136880159378052,
				0.2517856955528259,
				-1.8527541160583496
			],
			"type":"VEC3"
		},
		{
			"bufferView":10,
			"componentType":5126,
			"count":28,
			"type":"VEC3"
		},
		{
			"bufferView":11,
			"componentType":5126,
			"count":28,
			"type":"VEC2"
		},
		{
			"bufferView":12,
			"componentType":5123,
			"count":42,
			"type":"SCALAR"
		}
	],
	"bufferViews":[
		{
			"buffer":0,
			"byteLength":1104,
			"byteOffset":0,
			"target":34962
		},
		{
			"buffer":0,
			"byteLength":1104,
			"byteOffset":1104,
			"target":34962
		},
		{
			"buffer":0,
			"byteLength":736,
			"byteOffset":2208,
			"target":34962
		},
		{
			"buffer":0,
			"byteLength":736,
			"byteOffset":2944,
			"target":34962
		},
		{
			"buffer":0,
			"byteLength":408,
			"byteOffset":3680,
			"target":34963
		},
		{
			"buffer":0,
			"byteLength":1824,
			"byteOffset":4088,
			"target":34962
		},
		{
			"buffer":0,
			"byteLength":1824,
			"byteOffset":5912,
			"target":34962
		},
		{
			"buffer":0,
			"byteLength":1216,
			"byteOffset":7736,
			"target":34962
		},
		{
			"buffer":0,
			"byteLength":720,
			"byteOffset":8952,
			"target":34963
		},
		{
			"buffer":0,
			"byteLength":336,
			"byteOffset":9672,
			"target":34962
		},
		{
			"buffer":0,
			"byteLength":336,
			"byteOffset":10008,
			"target":34962
		},
		{
			"buffer":0,
			"byteLength":224,
			"byteOffset":10344,
			"target":34962
		},
		{
			"buffer":0,
			"byteLength":84,
			"byteOffset":10568,
			"target":34963
		}
	],
	"samplers":[
		{
			"magFilter":9729,
			"minFilter":9987
		}
	],
	"buffers":[
		{
			"byteLength":10652,
			"uri":"jungle_centrebump.bin"
		}
	]
}
