{
	"asset":{
		"generator":"Khronos glTF Blender I/O v3.6.27",
		"version":"2.0"
	},
	"extensionsUsed":[
		"KHR_materials_specular",
		"KHR_materials_ior"
	],
	"scene":0,
	"scenes":[
		{
			"name":"Scene",
			"nodes":[
				0,
				1
			]
		}
	],
	"nodes":[
		{
			"mesh":0,
			"name":"jungle_env_tree__glb"
		},
		{
			"mesh":1,
			"name":"jungle_env_tree_collider"
		}
	],
	"materials":[
		{
			"doubleSided":true,
			"emissiveFactor":[
				0.20000000298023224,
				0.20000000298023224,
				0.20000000298023224
			],
			"emissiveTexture":{
				"index":0
			},
			"extensions":{
				"KHR_materials_specular":{
					"specularColorFactor":[
						0,
						0,
						0
					]
				},
				"KHR_materials_ior":{
					"ior":1.4500000476837158
				}
			},
			"name":"jungle_env_tree",
			"pbrMetallicRoughness":{
				"baseColorTexture":{
					"index":1
				},
				"metallicFactor":0
			}
		},
		{
			"alphaCutoff":0.6960784196853638,
			"alphaMode":"MASK",
			"doubleSided":true,
			"emissiveFactor":[
				0.20000000298023224,
				0.20000000298023224,
				0.20000000298023224
			],
			"emissiveTexture":{
				"index":2
			},
			"extensions":{
				"KHR_materials_specular":{
					"specularColorFactor":[
						0,
						0,
						0
					]
				},
				"KHR_materials_ior":{
					"ior":1.4500000476837158
				}
			},
			"name":"inca_atlas_01_alpha",
			"pbrMetallicRoughness":{
				"baseColorTexture":{
					"index":3
				},
				"metallicFactor":0
			}
		}
	],
	"meshes":[
		{
			"name":"mesh.001",
			"primitives":[
				{
					"attributes":{
						"POSITION":0,
						"NORMAL":1,
						"TEXCOORD_0":2
					},
					"indices":3,
					"material":0
				},
				{
					"attributes":{
						"POSITION":4,
						"NORMAL":5,
						"TEXCOORD_0":6
					},
					"indices":7,
					"material":1
				}
			]
		},
		{
			"name":"Cube.002",
			"primitives":[
				{
					"attributes":{
						"POSITION":8,
						"NORMAL":9,
						"TEXCOORD_0":10
					},
					"indices":11
				}
			]
		}
	],
	"textures":[
		{
			"sampler":0,
			"source":0
		},
		{
			"sampler":0,
			"source":0
		},
		{
			"sampler":0,
			"source":1
		},
		{
			"sampler":0,
			"source":1
		}
	],
	"images":[
		{
			"mimeType":"image/png",
			"name":"jungle_env_tree",
			"uri":"textures/jungle_env_tree.png"
		},
		{
			"mimeType":"image/png",
			"name":"jungle_atlas_01",
			"uri":"textures/jungle_atlas_01.png"
		}
	],
	"accessors":[
		{
			"bufferView":0,
			"componentType":5126,
			"count":1666,
			"max":[
				5.771724700927734,
				11.926194190979004,
				7.127110004425049
			],
			"min":[
				-4.530022144317627,
				-0.111704520881176,
				-6.440908432006836
			],
			"type":"VEC3"
		},
		{
			"bufferView":1,
			"componentType":5126,
			"count":1666,
			"type":"VEC3"
		},
		{
			"bufferView":2,
			"componentType":5126,
			"count":1666,
			"type":"VEC2"
		},
		{
			"bufferView":3,
			"componentType":5123,
			"count":5460,
			"type":"SCALAR"
		},
		{
			"bufferView":4,
			"componentType":5126,
			"count":136,
			"max":[
				5.873501777648926,
				10.423635482788086,
				7.098536014556885
			],
			"min":[
				-4.379920959472656,
				3.519927501678467,
				-6.347803115844727
			],
			"type":"VEC3"
		},
		{
			"bufferView":5,
			"componentType":5126,
			"count":136,
			"type":"VEC3"
		},
		{
			"bufferView":6,
			"componentType":5126,
			"count":136,
			"type":"VEC2"
		},
		{
			"bufferView":7,
			"componentType":5123,
			"count":258,
			"type":"SCALAR"
		},
		{
			"bufferView":8,
			"componentType":5126,
			"count":1133,
			"max":[
				5.869997978210449,
				11.93545150756836,
				7.108038902282715
			],
			"min":[
				-4.572890281677246,
				-2.9802322387695312e-08,
				-6.470821857452393
			],
			"type":"VEC3"
		},
		{
			"bufferView":9,
			"componentType":5126,
			"count":1133,
			"type":"VEC3"
		},
		{
			"bufferView":10,
			"componentType":5126,
			"count":1133,
			"type":"VEC2"
		},
		{
			"bufferView":11,
			"componentType":5123,
			"count":1200,
			"type":"SCALAR"
		}
	],
	"bufferViews":[
		{
			"buffer":0,
			"byteLength":19992,
			"byteOffset":0,
			"target":34962
		},
		{
			"buffer":0,
			"byteLength":19992,
			"byteOffset":19992,
			"target":34962
		},
		{
			"buffer":0,
			"byteLength":13328,
			"byteOffset":39984,
			"target":34962
		},
		{
			"buffer":0,
			"byteLength":10920,
			"byteOffset":53312,
			"target":34963
		},
		{
			"buffer":0,
			"byteLength":1632,
			"byteOffset":64232,
			"target":34962
		},
		{
			"buffer":0,
			"byteLength":1632,
			"byteOffset":65864,
			"target":34962
		},
		{
			"buffer":0,
			"byteLength":1088,
			"byteOffset":67496,
			"target":34962
		},
		{
			"buffer":0,
			"byteLength":516,
			"byteOffset":68584,
			"target":34963
		},
		{
			"buffer":0,
			"byteLength":13596,
			"byteOffset":69100,
			"target":34962
		},
		{
			"buffer":0,
			"byteLength":13596,
			"byteOffset":82696,
			"target":34962
		},
		{
			"buffer":0,
			"byteLength":9064,
			"byteOffset":96292,
			"target":34962
		},
		{
			"buffer":0,
			"byteLength":2400,
			"byteOffset":105356,
			"target":34963
		}
	],
	"samplers":[
		{
			"magFilter":9729,
			"minFilter":9987
		}
	],
	"buffers":[
		{
			"byteLength":107756,
			"uri":"jungle_env_tree.bin"
		}
	]
}
