{
	"asset":{
		"generator":"Khronos glTF Blender I/O v3.6.27",
		"version":"2.0"
	},
	"extensionsUsed":[
		"KHR_materials_specular",
		"KHR_materials_ior"
	],
	"scene":0,
	"scenes":[
		{
			"name":"Scene",
			"nodes":[
				0,
				1
			]
		}
	],
	"nodes":[
		{
			"mesh":0,
			"name":"jungle_concave_halfcorner_collider"
		},
		{
			"mesh":1,
			"name":"jungle_concave_halfcorner_glb"
		}
	],
	"materials":[
		{
			"doubleSided":true,
			"emissiveFactor":[
				0.20000000298023224,
				0.20000000298023224,
				0.20000000298023224
			],
			"emissiveTexture":{
				"index":0
			},
			"extensions":{
				"KHR_materials_specular":{
					"specularColorFactor":[
						0,
						0,
						0
					]
				},
				"KHR_materials_ior":{
					"ior":1.4500000476837158
				}
			},
			"name":"inca_atlas_01",
			"pbrMetallicRoughness":{
				"baseColorTexture":{
					"index":1
				},
				"metallicFactor":0
			}
		},
		{
			"alphaCutoff":0.6960784196853638,
			"alphaMode":"MASK",
			"doubleSided":true,
			"emissiveFactor":[
				1,
				1,
				1
			],
			"emissiveTexture":{
				"index":2
			},
			"extensions":{
				"KHR_materials_specular":{
					"specularColorFactor":[
						0,
						0,
						0
					]
				},
				"KHR_materials_ior":{
					"ior":1.4500000476837158
				}
			},
			"name":"inca_atlas_01_alpha",
			"pbrMetallicRoughness":{
				"baseColorTexture":{
					"index":3
				},
				"metallicFactor":0
			}
		}
	],
	"meshes":[
		{
			"name":"egypt_concavehalfcorner_collider",
			"primitives":[
				{
					"attributes":{
						"POSITION":0,
						"NORMAL":1,
						"TEXCOORD_0":2,
						"TEXCOORD_1":3
					},
					"indices":4
				}
			]
		},
		{
			"name":"basic_concave_halfcorner_glb_ID3.101",
			"primitives":[
				{
					"attributes":{
						"POSITION":5,
						"NORMAL":6,
						"TEXCOORD_0":7
					},
					"indices":8,
					"material":0
				},
				{
					"attributes":{
						"POSITION":9,
						"NORMAL":10,
						"TEXCOORD_0":11
					},
					"indices":12,
					"material":1
				}
			]
		}
	],
	"textures":[
		{
			"sampler":0,
			"source":0
		},
		{
			"sampler":0,
			"source":0
		},
		{
			"sampler":0,
			"source":0
		},
		{
			"sampler":0,
			"source":0
		}
	],
	"images":[
		{
			"mimeType":"image/png",
			"name":"jungle_atlas_01",
			"uri":"textures/jungle_atlas_01.png"
		}
	],
	"accessors":[
		{
			"bufferView":0,
			"componentType":5126,
			"count":231,
			"max":[
				3.4805428981781006,
				3.874000310897827,
				2.8284220695495605
			],
			"min":[
				-3.4805428981781006,
				7.526214176323265e-06,
				-1.626700758934021
			],
			"type":"VEC3"
		},
		{
			"bufferView":1,
			"componentType":5126,
			"count":231,
			"type":"VEC3"
		},
		{
			"bufferView":2,
			"componentType":5126,
			"count":231,
			"type":"VEC2"
		},
		{
			"bufferView":3,
			"componentType":5126,
			"count":231,
			"type":"VEC2"
		},
		{
			"bufferView":4,
			"componentType":5123,
			"count":696,
			"type":"SCALAR"
		},
		{
			"bufferView":5,
			"componentType":5126,
			"count":222,
			"max":[
				3.482974052429199,
				3.874000310897827,
				2.8284220695495605
			],
			"min":[
				-3.4805428981781006,
				7.539191756222863e-06,
				-1.6267006397247314
			],
			"type":"VEC3"
		},
		{
			"bufferView":6,
			"componentType":5126,
			"count":222,
			"type":"VEC3"
		},
		{
			"bufferView":7,
			"componentType":5126,
			"count":222,
			"type":"VEC2"
		},
		{
			"bufferView":8,
			"componentType":5123,
			"count":828,
			"type":"SCALAR"
		},
		{
			"bufferView":9,
			"componentType":5126,
			"count":78,
			"max":[
				2.205071210861206,
				3.93415904045105,
				-0.5293451547622681
			],
			"min":[
				-2.202230453491211,
				1.3878353834152222,
				-1.3407188653945923
			],
			"type":"VEC3"
		},
		{
			"bufferView":10,
			"componentType":5126,
			"count":78,
			"type":"VEC3"
		},
		{
			"bufferView":11,
			"componentType":5126,
			"count":78,
			"type":"VEC2"
		},
		{
			"bufferView":12,
			"componentType":5123,
			"count":138,
			"type":"SCALAR"
		}
	],
	"bufferViews":[
		{
			"buffer":0,
			"byteLength":2772,
			"byteOffset":0,
			"target":34962
		},
		{
			"buffer":0,
			"byteLength":2772,
			"byteOffset":2772,
			"target":34962
		},
		{
			"buffer":0,
			"byteLength":1848,
			"byteOffset":5544,
			"target":34962
		},
		{
			"buffer":0,
			"byteLength":1848,
			"byteOffset":7392,
			"target":34962
		},
		{
			"buffer":0,
			"byteLength":1392,
			"byteOffset":9240,
			"target":34963
		},
		{
			"buffer":0,
			"byteLength":2664,
			"byteOffset":10632,
			"target":34962
		},
		{
			"buffer":0,
			"byteLength":2664,
			"byteOffset":13296,
			"target":34962
		},
		{
			"buffer":0,
			"byteLength":1776,
			"byteOffset":15960,
			"target":34962
		},
		{
			"buffer":0,
			"byteLength":1656,
			"byteOffset":17736,
			"target":34963
		},
		{
			"buffer":0,
			"byteLength":936,
			"byteOffset":19392,
			"target":34962
		},
		{
			"buffer":0,
			"byteLength":936,
			"byteOffset":20328,
			"target":34962
		},
		{
			"buffer":0,
			"byteLength":624,
			"byteOffset":21264,
			"target":34962
		},
		{
			"buffer":0,
			"byteLength":276,
			"byteOffset":21888,
			"target":34963
		}
	],
	"samplers":[
		{
			"magFilter":9729,
			"minFilter":9987
		}
	],
	"buffers":[
		{
			"byteLength":22164,
			"uri":"jungle_concave_halfcorner.bin"
		}
	]
}
