{
	"asset":{
		"generator":"Khronos glTF Blender I/O v3.6.27",
		"version":"2.0"
	},
	"extensionsUsed":[
		"KHR_materials_specular",
		"KHR_materials_ior"
	],
	"scene":0,
	"scenes":[
		{
			"name":"Scene",
			"nodes":[
				0,
				1
			]
		}
	],
	"nodes":[
		{
			"mesh":0,
			"name":"jungle_sidebend_collider"
		},
		{
			"mesh":1,
			"name":"jungle_sidebend_glb"
		}
	],
	"materials":[
		{
			"doubleSided":true,
			"emissiveFactor":[
				0.20000000298023224,
				0.20000000298023224,
				0.20000000298023224
			],
			"emissiveTexture":{
				"index":0
			},
			"extensions":{
				"KHR_materials_specular":{
					"specularColorFactor":[
						0,
						0,
						0
					]
				},
				"KHR_materials_ior":{
					"ior":1.4500000476837158
				}
			},
			"name":"inca_atlas_01",
			"pbrMetallicRoughness":{
				"baseColorTexture":{
					"index":1
				},
				"metallicFactor":0
			}
		},
		{
			"alphaCutoff":0.6960784196853638,
			"alphaMode":"MASK",
			"doubleSided":true,
			"emissiveFactor":[
				1,
				1,
				1
			],
			"emissiveTexture":{
				"index":2
			},
			"extensions":{
				"KHR_materials_specular":{
					"specularColorFactor":[
						0,
						0,
						0
					]
				},
				"KHR_materials_ior":{
					"ior":1.4500000476837158
				}
			},
			"name":"inca_atlas_01_alpha",
			"pbrMetallicRoughness":{
				"baseColorTexture":{
					"index":3
				},
				"metallicFactor":0
			}
		}
	],
	"meshes":[
		{
			"name":"egypt_sidebend_collider",
			"primitives":[
				{
					"attributes":{
						"POSITION":0,
						"NORMAL":1,
						"TEXCOORD_0":2
					},
					"indices":3
				}
			]
		},
		{
			"name":"egypt_sidebend_glb.001",
			"primitives":[
				{
					"attributes":{
						"POSITION":4,
						"NORMAL":5,
						"TEXCOORD_0":6
					},
					"indices":7,
					"material":0
				},
				{
					"attributes":{
						"POSITION":8,
						"NORMAL":9,
						"TEXCOORD_0":10
					},
					"indices":11,
					"material":1
				}
			]
		}
	],
	"textures":[
		{
			"sampler":0,
			"source":0
		},
		{
			"sampler":0,
			"source":0
		},
		{
			"sampler":0,
			"source":0
		},
		{
			"sampler":0,
			"source":0
		}
	],
	"images":[
		{
			"mimeType":"image/png",
			"name":"jungle_atlas_01",
			"uri":"textures/jungle_atlas_01.png"
		}
	],
	"accessors":[
		{
			"bufferView":0,
			"componentType":5126,
			"count":241,
			"max":[
				2,
				0.8385199904441833,
				2
			],
			"min":[
				-2,
				-3.2584136988589307e-07,
				-2
			],
			"type":"VEC3"
		},
		{
			"bufferView":1,
			"componentType":5126,
			"count":241,
			"type":"VEC3"
		},
		{
			"bufferView":2,
			"componentType":5126,
			"count":241,
			"type":"VEC2"
		},
		{
			"bufferView":3,
			"componentType":5123,
			"count":540,
			"type":"SCALAR"
		},
		{
			"bufferView":4,
			"componentType":5126,
			"count":243,
			"max":[
				2,
				0.8385199904441833,
				2
			],
			"min":[
				-2,
				-3.2584136988589307e-07,
				-2
			],
			"type":"VEC3"
		},
		{
			"bufferView":5,
			"componentType":5126,
			"count":243,
			"type":"VEC3"
		},
		{
			"bufferView":6,
			"componentType":5126,
			"count":243,
			"type":"VEC2"
		},
		{
			"bufferView":7,
			"componentType":5123,
			"count":702,
			"type":"SCALAR"
		},
		{
			"bufferView":8,
			"componentType":5126,
			"count":24,
			"max":[
				0.9954569339752197,
				0.7978551983833313,
				0.34395745396614075
			],
			"min":[
				-1.668034553527832,
				0.36986514925956726,
				-0.34395739436149597
			],
			"type":"VEC3"
		},
		{
			"bufferView":9,
			"componentType":5126,
			"count":24,
			"type":"VEC3"
		},
		{
			"bufferView":10,
			"componentType":5126,
			"count":24,
			"type":"VEC2"
		},
		{
			"bufferView":11,
			"componentType":5123,
			"count":36,
			"type":"SCALAR"
		}
	],
	"bufferViews":[
		{
			"buffer":0,
			"byteLength":2892,
			"byteOffset":0,
			"target":34962
		},
		{
			"buffer":0,
			"byteLength":2892,
			"byteOffset":2892,
			"target":34962
		},
		{
			"buffer":0,
			"byteLength":1928,
			"byteOffset":5784,
			"target":34962
		},
		{
			"buffer":0,
			"byteLength":1080,
			"byteOffset":7712,
			"target":34963
		},
		{
			"buffer":0,
			"byteLength":2916,
			"byteOffset":8792,
			"target":34962
		},
		{
			"buffer":0,
			"byteLength":2916,
			"byteOffset":11708,
			"target":34962
		},
		{
			"buffer":0,
			"byteLength":1944,
			"byteOffset":14624,
			"target":34962
		},
		{
			"buffer":0,
			"byteLength":1404,
			"byteOffset":16568,
			"target":34963
		},
		{
			"buffer":0,
			"byteLength":288,
			"byteOffset":17972,
			"target":34962
		},
		{
			"buffer":0,
			"byteLength":288,
			"byteOffset":18260,
			"target":34962
		},
		{
			"buffer":0,
			"byteLength":192,
			"byteOffset":18548,
			"target":34962
		},
		{
			"buffer":0,
			"byteLength":72,
			"byteOffset":18740,
			"target":34963
		}
	],
	"samplers":[
		{
			"magFilter":9729,
			"minFilter":9987
		}
	],
	"buffers":[
		{
			"byteLength":18812,
			"uri":"jungle_sidebend.bin"
		}
	]
}
