{
	"asset":{
		"generator":"Khronos glTF Blender I/O v3.6.27",
		"version":"2.0"
	},
	"extensionsUsed":[
		"KHR_materials_specular",
		"KHR_materials_ior"
	],
	"scene":0,
	"scenes":[
		{
			"name":"Scene",
			"nodes":[
				0,
				1
			]
		}
	],
	"nodes":[
		{
			"mesh":0,
			"name":"jungle_env_pyramid_glb"
		},
		{
			"mesh":1,
			"name":"jungle_env_pyramid_collider"
		}
	],
	"materials":[
		{
			"doubleSided":true,
			"emissiveFactor":[
				0.20000000298023224,
				0.20000000298023224,
				0.20000000298023224
			],
			"emissiveTexture":{
				"index":0
			},
			"extensions":{
				"KHR_materials_specular":{
					"specularColorFactor":[
						0,
						0,
						0
					]
				},
				"KHR_materials_ior":{
					"ior":1.4500000476837158
				}
			},
			"name":"inca_env_pyramid",
			"pbrMetallicRoughness":{
				"baseColorTexture":{
					"index":1
				},
				"metallicFactor":0
			}
		}
	],
	"meshes":[
		{
			"name":"Plane.003",
			"primitives":[
				{
					"attributes":{
						"POSITION":0,
						"NORMAL":1,
						"TEXCOORD_0":2
					},
					"indices":3,
					"material":0
				}
			]
		},
		{
			"name":"Plane.001",
			"primitives":[
				{
					"attributes":{
						"POSITION":4,
						"NORMAL":5,
						"TEXCOORD_0":6
					},
					"indices":7
				}
			]
		}
	],
	"textures":[
		{
			"sampler":0,
			"source":0
		},
		{
			"sampler":0,
			"source":0
		}
	],
	"images":[
		{
			"mimeType":"image/png",
			"name":"jungle_env_pyramid",
			"uri":"textures/jungle_env_pyramid.png"
		}
	],
	"accessors":[
		{
			"bufferView":0,
			"componentType":5126,
			"count":1601,
			"max":[
				7.688423156738281,
				10.014605522155762,
				8.026372909545898
			],
			"min":[
				-7.688423156738281,
				0,
				-8.026372909545898
			],
			"type":"VEC3"
		},
		{
			"bufferView":1,
			"componentType":5126,
			"count":1601,
			"type":"VEC3"
		},
		{
			"bufferView":2,
			"componentType":5126,
			"count":1601,
			"type":"VEC2"
		},
		{
			"bufferView":3,
			"componentType":5123,
			"count":3060,
			"type":"SCALAR"
		},
		{
			"bufferView":4,
			"componentType":5126,
			"count":409,
			"max":[
				7.688423156738281,
				10.014605522155762,
				8.026372909545898
			],
			"min":[
				-7.688423156738281,
				0,
				-8.026372909545898
			],
			"type":"VEC3"
		},
		{
			"bufferView":5,
			"componentType":5126,
			"count":409,
			"type":"VEC3"
		},
		{
			"bufferView":6,
			"componentType":5126,
			"count":409,
			"type":"VEC2"
		},
		{
			"bufferView":7,
			"componentType":5123,
			"count":756,
			"type":"SCALAR"
		}
	],
	"bufferViews":[
		{
			"buffer":0,
			"byteLength":19212,
			"byteOffset":0,
			"target":34962
		},
		{
			"buffer":0,
			"byteLength":19212,
			"byteOffset":19212,
			"target":34962
		},
		{
			"buffer":0,
			"byteLength":12808,
			"byteOffset":38424,
			"target":34962
		},
		{
			"buffer":0,
			"byteLength":6120,
			"byteOffset":51232,
			"target":34963
		},
		{
			"buffer":0,
			"byteLength":4908,
			"byteOffset":57352,
			"target":34962
		},
		{
			"buffer":0,
			"byteLength":4908,
			"byteOffset":62260,
			"target":34962
		},
		{
			"buffer":0,
			"byteLength":3272,
			"byteOffset":67168,
			"target":34962
		},
		{
			"buffer":0,
			"byteLength":1512,
			"byteOffset":70440,
			"target":34963
		}
	],
	"samplers":[
		{
			"magFilter":9729,
			"minFilter":9987
		}
	],
	"buffers":[
		{
			"byteLength":71952,
			"uri":"jungle_env_pyramid.bin"
		}
	]
}
