{
	"asset":{
		"generator":"Khronos glTF Blender I/O v3.6.27",
		"version":"2.0"
	},
	"extensionsUsed":[
		"KHR_materials_specular",
		"KHR_materials_ior"
	],
	"scene":0,
	"scenes":[
		{
			"name":"Scene",
			"nodes":[
				0,
				1
			]
		}
	],
	"nodes":[
		{
			"mesh":0,
			"name":"jungle_curve_collider"
		},
		{
			"mesh":1,
			"name":"jungle_curve_glb"
		}
	],
	"materials":[
		{
			"doubleSided":true,
			"emissiveFactor":[
				0.20000000298023224,
				0.20000000298023224,
				0.20000000298023224
			],
			"emissiveTexture":{
				"index":0
			},
			"extensions":{
				"KHR_materials_specular":{
					"specularColorFactor":[
						0,
						0,
						0
					]
				},
				"KHR_materials_ior":{
					"ior":1.4500000476837158
				}
			},
			"name":"inca_atlas_01",
			"pbrMetallicRoughness":{
				"baseColorTexture":{
					"index":1
				},
				"metallicFactor":0
			}
		},
		{
			"alphaCutoff":0.6960784196853638,
			"alphaMode":"MASK",
			"doubleSided":true,
			"emissiveFactor":[
				1,
				1,
				1
			],
			"emissiveTexture":{
				"index":2
			},
			"extensions":{
				"KHR_materials_specular":{
					"specularColorFactor":[
						0,
						0,
						0
					]
				},
				"KHR_materials_ior":{
					"ior":1.4500000476837158
				}
			},
			"name":"inca_atlas_01_alpha",
			"pbrMetallicRoughness":{
				"baseColorTexture":{
					"index":3
				},
				"metallicFactor":0
			}
		}
	],
	"meshes":[
		{
			"name":"egypt_curve_collider",
			"primitives":[
				{
					"attributes":{
						"POSITION":0,
						"NORMAL":1,
						"TEXCOORD_0":2,
						"TEXCOORD_1":3
					},
					"indices":4
				}
			]
		},
		{
			"name":"basic_curve_glb_BezierCurve.004",
			"primitives":[
				{
					"attributes":{
						"POSITION":5,
						"NORMAL":6,
						"TEXCOORD_0":7
					},
					"indices":8,
					"material":0
				},
				{
					"attributes":{
						"POSITION":9,
						"NORMAL":10,
						"TEXCOORD_0":11
					},
					"indices":12,
					"material":1
				}
			]
		}
	],
	"textures":[
		{
			"sampler":0,
			"source":0
		},
		{
			"sampler":0,
			"source":0
		},
		{
			"sampler":0,
			"source":0
		},
		{
			"sampler":0,
			"source":0
		}
	],
	"images":[
		{
			"mimeType":"image/png",
			"name":"jungle_atlas_01",
			"uri":"textures/jungle_atlas_01.png"
		}
	],
	"accessors":[
		{
			"bufferView":0,
			"componentType":5126,
			"count":260,
			"max":[
				2.7298150062561035,
				3.670781373977661,
				1.999932885169983
			],
			"min":[
				-2.0439863204956055,
				6.9291550062189344e-06,
				-11.999998092651367
			],
			"type":"VEC3"
		},
		{
			"bufferView":1,
			"componentType":5126,
			"count":260,
			"type":"VEC3"
		},
		{
			"bufferView":2,
			"componentType":5126,
			"count":260,
			"type":"VEC2"
		},
		{
			"bufferView":3,
			"componentType":5126,
			"count":260,
			"type":"VEC2"
		},
		{
			"bufferView":4,
			"componentType":5123,
			"count":900,
			"type":"SCALAR"
		},
		{
			"bufferView":5,
			"componentType":5126,
			"count":548,
			"max":[
				2.7283694744110107,
				3.6707816123962402,
				1.9929332733154297
			],
			"min":[
				-2.0140130519866943,
				7.336323960771551e-06,
				-12.035432815551758
			],
			"type":"VEC3"
		},
		{
			"bufferView":6,
			"componentType":5126,
			"count":548,
			"type":"VEC3"
		},
		{
			"bufferView":7,
			"componentType":5126,
			"count":548,
			"type":"VEC2"
		},
		{
			"bufferView":8,
			"componentType":5123,
			"count":1392,
			"type":"SCALAR"
		},
		{
			"bufferView":9,
			"componentType":5126,
			"count":47,
			"max":[
				2.9668655395507812,
				3.639747381210327,
				-5.681949615478516
			],
			"min":[
				2.0976223945617676,
				2.3228023052215576,
				-7.369328022003174
			],
			"type":"VEC3"
		},
		{
			"bufferView":10,
			"componentType":5126,
			"count":47,
			"type":"VEC3"
		},
		{
			"bufferView":11,
			"componentType":5126,
			"count":47,
			"type":"VEC2"
		},
		{
			"bufferView":12,
			"componentType":5123,
			"count":159,
			"type":"SCALAR"
		}
	],
	"bufferViews":[
		{
			"buffer":0,
			"byteLength":3120,
			"byteOffset":0,
			"target":34962
		},
		{
			"buffer":0,
			"byteLength":3120,
			"byteOffset":3120,
			"target":34962
		},
		{
			"buffer":0,
			"byteLength":2080,
			"byteOffset":6240,
			"target":34962
		},
		{
			"buffer":0,
			"byteLength":2080,
			"byteOffset":8320,
			"target":34962
		},
		{
			"buffer":0,
			"byteLength":1800,
			"byteOffset":10400,
			"target":34963
		},
		{
			"buffer":0,
			"byteLength":6576,
			"byteOffset":12200,
			"target":34962
		},
		{
			"buffer":0,
			"byteLength":6576,
			"byteOffset":18776,
			"target":34962
		},
		{
			"buffer":0,
			"byteLength":4384,
			"byteOffset":25352,
			"target":34962
		},
		{
			"buffer":0,
			"byteLength":2784,
			"byteOffset":29736,
			"target":34963
		},
		{
			"buffer":0,
			"byteLength":564,
			"byteOffset":32520,
			"target":34962
		},
		{
			"buffer":0,
			"byteLength":564,
			"byteOffset":33084,
			"target":34962
		},
		{
			"buffer":0,
			"byteLength":376,
			"byteOffset":33648,
			"target":34962
		},
		{
			"buffer":0,
			"byteLength":318,
			"byteOffset":34024,
			"target":34963
		}
	],
	"samplers":[
		{
			"magFilter":9729,
			"minFilter":9987
		}
	],
	"buffers":[
		{
			"byteLength":34344,
			"uri":"jungle_curve.bin"
		}
	]
}
