{
	"asset":{
		"generator":"Khronos glTF Blender I/O v3.6.27",
		"version":"2.0"
	},
	"extensionsUsed":[
		"KHR_materials_specular",
		"KHR_materials_ior"
	],
	"scene":0,
	"scenes":[
		{
			"name":"Scene",
			"nodes":[
				0,
				1
			]
		}
	],
	"nodes":[
		{
			"mesh":0,
			"name":"jungle_env_llama_glb"
		},
		{
			"mesh":1,
			"name":"jungle_env_llama_collider"
		}
	],
	"materials":[
		{
			"doubleSided":true,
			"emissiveFactor":[
				0.20000000298023224,
				0.20000000298023224,
				0.20000000298023224
			],
			"emissiveTexture":{
				"index":0
			},
			"extensions":{
				"KHR_materials_specular":{
					"specularColorFactor":[
						0,
						0,
						0
					]
				},
				"KHR_materials_ior":{
					"ior":1.4500000476837158
				}
			},
			"name":"inca_env_llama",
			"pbrMetallicRoughness":{
				"baseColorTexture":{
					"index":1
				},
				"metallicFactor":0,
				"roughnessFactor":0.5
			}
		}
	],
	"meshes":[
		{
			"name":"Plane",
			"primitives":[
				{
					"attributes":{
						"POSITION":0,
						"NORMAL":1,
						"TEXCOORD_0":2
					},
					"indices":3,
					"material":0
				}
			]
		},
		{
			"name":"Plane.002",
			"primitives":[
				{
					"attributes":{
						"POSITION":4,
						"NORMAL":5,
						"TEXCOORD_0":6
					},
					"indices":7
				},
				{
					"attributes":{
						"POSITION":8,
						"NORMAL":9,
						"TEXCOORD_0":10
					},
					"indices":11
				}
			]
		}
	],
	"textures":[
		{
			"sampler":0,
			"source":0
		},
		{
			"sampler":0,
			"source":0
		}
	],
	"images":[
		{
			"mimeType":"image/png",
			"name":"jungle_env_llama",
			"uri":"textures/jungle_env_llama.png"
		}
	],
	"accessors":[
		{
			"bufferView":0,
			"componentType":5126,
			"count":834,
			"max":[
				0.4766591191291809,
				2.4907002449035645,
				0.6349343657493591
			],
			"min":[
				-0.5298534035682678,
				6.683729588985443e-05,
				-0.914193332195282
			],
			"type":"VEC3"
		},
		{
			"bufferView":1,
			"componentType":5126,
			"count":834,
			"type":"VEC3"
		},
		{
			"bufferView":2,
			"componentType":5126,
			"count":834,
			"type":"VEC2"
		},
		{
			"bufferView":3,
			"componentType":5123,
			"count":2610,
			"type":"SCALAR"
		},
		{
			"bufferView":4,
			"componentType":5126,
			"count":68,
			"max":[
				0.4121372103691101,
				2.5018670558929443,
				0.6130987405776978
			],
			"min":[
				-0.5442285537719727,
				0.0010769956279546022,
				-0.9148838520050049
			],
			"type":"VEC3"
		},
		{
			"bufferView":5,
			"componentType":5126,
			"count":68,
			"type":"VEC3"
		},
		{
			"bufferView":6,
			"componentType":5126,
			"count":68,
			"type":"VEC2"
		},
		{
			"bufferView":7,
			"componentType":5123,
			"count":72,
			"type":"SCALAR"
		},
		{
			"bufferView":8,
			"componentType":5126,
			"count":190,
			"max":[
				0.4121372103691101,
				2.5018670558929443,
				0.6130987405776978
			],
			"min":[
				-0.5442285537719727,
				-0.0011725238291546702,
				-0.9148838520050049
			],
			"type":"VEC3"
		},
		{
			"bufferView":9,
			"componentType":5126,
			"count":190,
			"type":"VEC3"
		},
		{
			"bufferView":10,
			"componentType":5126,
			"count":190,
			"type":"VEC2"
		},
		{
			"bufferView":11,
			"componentType":5123,
			"count":192,
			"type":"SCALAR"
		}
	],
	"bufferViews":[
		{
			"buffer":0,
			"byteLength":10008,
			"byteOffset":0,
			"target":34962
		},
		{
			"buffer":0,
			"byteLength":10008,
			"byteOffset":10008,
			"target":34962
		},
		{
			"buffer":0,
			"byteLength":6672,
			"byteOffset":20016,
			"target":34962
		},
		{
			"buffer":0,
			"byteLength":5220,
			"byteOffset":26688,
			"target":34963
		},
		{
			"buffer":0,
			"byteLength":816,
			"byteOffset":31908,
			"target":34962
		},
		{
			"buffer":0,
			"byteLength":816,
			"byteOffset":32724,
			"target":34962
		},
		{
			"buffer":0,
			"byteLength":544,
			"byteOffset":33540,
			"target":34962
		},
		{
			"buffer":0,
			"byteLength":144,
			"byteOffset":34084,
			"target":34963
		},
		{
			"buffer":0,
			"byteLength":2280,
			"byteOffset":34228,
			"target":34962
		},
		{
			"buffer":0,
			"byteLength":2280,
			"byteOffset":36508,
			"target":34962
		},
		{
			"buffer":0,
			"byteLength":1520,
			"byteOffset":38788,
			"target":34962
		},
		{
			"buffer":0,
			"byteLength":384,
			"byteOffset":40308,
			"target":34963
		}
	],
	"samplers":[
		{
			"magFilter":9729,
			"minFilter":9987
		}
	],
	"buffers":[
		{
			"byteLength":40692,
			"uri":"jungle_env_llama.bin"
		}
	]
}
