{
    "asset" : {
        "generator" : "Khronos glTF Blender I/O v1.7.33",
        "version" : "2.0"
    },
    "scene" : 1,
    "scenes" : [
        {
            "name" : "Ball"
        },
        {
            "name" : "Parts",
            "nodes" : [
                5,
                6,
                12
            ]
        }
    ],
    "nodes" : [
        {
            "name" : "Bone.001",
            "rotation" : [
                -0.030000215396285057,
                5.8233879940416955e-09,
                7.453937023171875e-09,
                0.9995499849319458
            ],
            "scale" : [
                1.0000001192092896,
                1,
                1.0000001192092896
            ]
        },
        {
            "children" : [
                0
            ],
            "name" : "Bone.003",
            "rotation" : [
                0.4419383108615875,
                0.30398425459861755,
                0.7169755697250366,
                0.4452304244041443
            ],
            "scale" : [
                1.0000001192092896,
                1.000000238418579,
                1.0000001192092896
            ]
        },
        {
            "name" : "Bone.002",
            "rotation" : [
                -0.03000020980834961,
                0,
                2.220757069160633e-16,
                0.9995499849319458
            ]
        },
        {
            "name" : "Bone",
            "rotation" : [
                -0.030000200495123863,
                0,
                1.490787049363007e-08,
                0.999549925327301
            ]
        },
        {
            "children" : [
                3
            ],
            "name" : "Bone.004",
            "rotation" : [
                0.341170996427536,
                -0.6073963642120361,
                -0.23349636793136597,
                0.6783447265625
            ]
        },
        {
            "children" : [
                1,
                2,
                4
            ],
            "name" : "MagnetArmature"
        },
        {
            "mesh" : 0,
            "name" : "Magnet0_glb"
        },
        {
            "name" : "Bone.001",
            "rotation" : [
                -0.030000215396285057,
                5.8233879940416955e-09,
                7.453937023171875e-09,
                0.9995499849319458
            ],
            "scale" : [
                1.0000001192092896,
                1,
                1.0000001192092896
            ]
        },
        {
            "children" : [
                7
            ],
            "name" : "Bone.003",
            "rotation" : [
                0.4419383108615875,
                0.30398425459861755,
                0.7169755697250366,
                0.4452304244041443
            ],
            "scale" : [
                1.0000001192092896,
                1.000000238418579,
                1.0000001192092896
            ]
        },
        {
            "name" : "Bone.002",
            "rotation" : [
                -0.03000020980834961,
                0,
                2.220757069160633e-16,
                0.9995499849319458
            ]
        },
        {
            "name" : "Bone",
            "rotation" : [
                -0.030000200495123863,
                0,
                1.490787049363007e-08,
                0.999549925327301
            ]
        },
        {
            "children" : [
                10
            ],
            "name" : "Bone.004",
            "rotation" : [
                0.341170996427536,
                -0.6073963642120361,
                -0.23349636793136597,
                0.6783447265625
            ]
        },
        {
            "children" : [
                8,
                9,
                11
            ],
            "name" : "MagnetArmature.001"
        }
    ],
    "materials" : [
        {
            "doubleSided" : true,
            "name" : "Atlas.002",
            "pbrMetallicRoughness" : {
                "baseColorTexture" : {
                    "index" : 0
                },
                "metallicFactor" : 0,
                "roughnessFactor" : 0.968181848526001
            }
        }
    ],
    "meshes" : [
        {
            "name" : "Plane.010",
            "primitives" : [
                {
                    "attributes" : {
                        "POSITION" : 0,
                        "NORMAL" : 1,
                        "TEXCOORD_0" : 2
                    },
                    "indices" : 3,
                    "material" : 0
                }
            ]
        }
    ],
    "textures" : [
        {
            "sampler" : 0,
            "source" : 0
        }
    ],
    "images" : [
        {
            "mimeType" : "image/png",
            "name" : "AvatarWearables_TX",
            "uri" : "textures/AvatarWearables_TX.png"
        }
    ],
    "accessors" : [
        {
            "bufferView" : 0,
            "componentType" : 5126,
            "count" : 134,
            "max" : [
                0.24492637813091278,
                0.47585785388946533,
                0.06857620924711227
            ],
            "min" : [
                -0.24492637813091278,
                -0.048799335956573486,
                -0.06857618689537048
            ],
            "type" : "VEC3"
        },
        {
            "bufferView" : 1,
            "componentType" : 5126,
            "count" : 134,
            "type" : "VEC3"
        },
        {
            "bufferView" : 2,
            "componentType" : 5126,
            "count" : 134,
            "type" : "VEC2"
        },
        {
            "bufferView" : 3,
            "componentType" : 5123,
            "count" : 204,
            "type" : "SCALAR"
        }
    ],
    "bufferViews" : [
        {
            "buffer" : 0,
            "byteLength" : 1608,
            "byteOffset" : 0
        },
        {
            "buffer" : 0,
            "byteLength" : 1608,
            "byteOffset" : 1608
        },
        {
            "buffer" : 0,
            "byteLength" : 1072,
            "byteOffset" : 3216
        },
        {
            "buffer" : 0,
            "byteLength" : 408,
            "byteOffset" : 4288
        }
    ],
    "samplers" : [
        {
            "magFilter" : 9729,
            "minFilter" : 9987
        }
    ],
    "buffers" : [
        {
            "byteLength" : 4696,
            "uri" : "Magnet0.bin"
        }
    ]
}
   