{
	"asset":{
		"generator":"Khronos glTF Blender I/O v3.6.27",
		"version":"2.0"
	},
	"scene":0,
	"scenes":[
		{
			"name":"Scene",
			"nodes":[
				0,
				1
			]
		}
	],
	"nodes":[
		{
			"mesh":0,
			"name":"mountain_env_knot_glb"
		},
		{
			"mesh":1,
			"name":"mountain_env_knot_collider"
		}
	],
	"materials":[
		{
			"doubleSided":true,
			"name":"mountain_env_knot",
			"pbrMetallicRoughness":{
				"baseColorTexture":{
					"index":0
				},
				"metallicFactor":0,
				"roughnessFactor":0.5
			}
		}
	],
	"meshes":[
		{
			"name":"Plane.007",
			"primitives":[
				{
					"attributes":{
						"POSITION":0,
						"NORMAL":1,
						"TEXCOORD_0":2
					},
					"indices":3,
					"material":0
				}
			]
		},
		{
			"name":"Cube",
			"primitives":[
				{
					"attributes":{
						"POSITION":4,
						"NORMAL":5,
						"TEXCOORD_0":6
					},
					"indices":7
				}
			]
		}
	],
	"textures":[
		{
			"sampler":0,
			"source":0
		}
	],
	"images":[
		{
			"mimeType":"image/png",
			"name":"mountain_env_knot",
			"uri":"textures/mountain_env_knot.png"
		}
	],
	"accessors":[
		{
			"bufferView":0,
			"componentType":5126,
			"count":1736,
			"max":[
				1.3209892511367798,
				2.6202852725982666,
				0.04280770197510719
			],
			"min":[
				-1.32102632522583,
				0.0016820095479488373,
				-0.038451194763183594
			],
			"type":"VEC3"
		},
		{
			"bufferView":1,
			"componentType":5126,
			"count":1736,
			"type":"VEC3"
		},
		{
			"bufferView":2,
			"componentType":5126,
			"count":1736,
			"type":"VEC2"
		},
		{
			"bufferView":3,
			"componentType":5123,
			"count":3936,
			"type":"SCALAR"
		},
		{
			"bufferView":4,
			"componentType":5126,
			"count":84,
			"max":[
				1.3168808221817017,
				2.6322615146636963,
				0.0503588505089283
			],
			"min":[
				-1.3119581937789917,
				0.0013495683670043945,
				-0.05035887658596039
			],
			"type":"VEC3"
		},
		{
			"bufferView":5,
			"componentType":5126,
			"count":84,
			"type":"VEC3"
		},
		{
			"bufferView":6,
			"componentType":5126,
			"count":84,
			"type":"VEC2"
		},
		{
			"bufferView":7,
			"componentType":5123,
			"count":156,
			"type":"SCALAR"
		}
	],
	"bufferViews":[
		{
			"buffer":0,
			"byteLength":20832,
			"byteOffset":0,
			"target":34962
		},
		{
			"buffer":0,
			"byteLength":20832,
			"byteOffset":20832,
			"target":34962
		},
		{
			"buffer":0,
			"byteLength":13888,
			"byteOffset":41664,
			"target":34962
		},
		{
			"buffer":0,
			"byteLength":7872,
			"byteOffset":55552,
			"target":34963
		},
		{
			"buffer":0,
			"byteLength":1008,
			"byteOffset":63424,
			"target":34962
		},
		{
			"buffer":0,
			"byteLength":1008,
			"byteOffset":64432,
			"target":34962
		},
		{
			"buffer":0,
			"byteLength":672,
			"byteOffset":65440,
			"target":34962
		},
		{
			"buffer":0,
			"byteLength":312,
			"byteOffset":66112,
			"target":34963
		}
	],
	"samplers":[
		{
			"magFilter":9729,
			"minFilter":9987
		}
	],
	"buffers":[
		{
			"byteLength":66424,
			"uri":"mountain_env_knot.bin"
		}
	]
}
