{
	"asset":{
		"generator":"Khronos glTF Blender I/O v3.6.27",
		"version":"2.0"
	},
	"extensionsUsed":[
		"KHR_materials_specular",
		"KHR_materials_ior"
	],
	"scene":0,
	"scenes":[
		{
			"name":"Scene",
			"nodes":[
				0,
				1
			]
		}
	],
	"nodes":[
		{
			"mesh":0,
			"name":"mountain_curve_collider"
		},
		{
			"mesh":1,
			"name":"mountain_curve_glb"
		}
	],
	"materials":[
		{
			"doubleSided":true,
			"emissiveFactor":[
				0.20000000298023224,
				0.20000000298023224,
				0.20000000298023224
			],
			"emissiveTexture":{
				"index":0
			},
			"extensions":{
				"KHR_materials_specular":{
					"specularColorFactor":[
						0,
						0,
						0
					]
				},
				"KHR_materials_ior":{
					"ior":1.4500000476837158
				}
			},
			"name":"mountain_tiled_grass",
			"pbrMetallicRoughness":{
				"baseColorTexture":{
					"index":1
				},
				"metallicFactor":0
			}
		},
		{
			"alphaCutoff":0.5,
			"alphaMode":"MASK",
			"doubleSided":true,
			"emissiveFactor":[
				0.20000000298023224,
				0.20000000298023224,
				0.20000000298023224
			],
			"emissiveTexture":{
				"index":2
			},
			"name":"mountain_grass_alphas",
			"pbrMetallicRoughness":{
				"baseColorTexture":{
					"index":3
				},
				"metallicFactor":0
			}
		}
	],
	"meshes":[
		{
			"name":"egypt_curve_collider",
			"primitives":[
				{
					"attributes":{
						"POSITION":0,
						"NORMAL":1,
						"TEXCOORD_0":2,
						"TEXCOORD_1":3
					},
					"indices":4
				}
			]
		},
		{
			"name":"basic_curve_glb_BezierCurve.001",
			"primitives":[
				{
					"attributes":{
						"POSITION":5,
						"NORMAL":6,
						"TEXCOORD_0":7
					},
					"indices":8,
					"material":0
				},
				{
					"attributes":{
						"POSITION":9,
						"NORMAL":10,
						"TEXCOORD_0":11
					},
					"indices":12,
					"material":1
				}
			]
		}
	],
	"textures":[
		{
			"sampler":0,
			"source":0
		},
		{
			"sampler":0,
			"source":0
		},
		{
			"sampler":0,
			"source":1
		},
		{
			"sampler":0,
			"source":1
		}
	],
	"images":[
		{
			"mimeType":"image/png",
			"name":"mountain_tiled_grass",
			"uri":"textures/mountain_tiled_grass.png"
		},
		{
			"mimeType":"image/png",
			"name":"mountain_grass_alphas",
			"uri":"textures/mountain_grass_alphas.png"
		}
	],
	"accessors":[
		{
			"bufferView":0,
			"componentType":5126,
			"count":260,
			"max":[
				2.7298150062561035,
				3.670781373977661,
				1.999932885169983
			],
			"min":[
				-2.0439863204956055,
				6.9291550062189344e-06,
				-11.999998092651367
			],
			"type":"VEC3"
		},
		{
			"bufferView":1,
			"componentType":5126,
			"count":260,
			"type":"VEC3"
		},
		{
			"bufferView":2,
			"componentType":5126,
			"count":260,
			"type":"VEC2"
		},
		{
			"bufferView":3,
			"componentType":5126,
			"count":260,
			"type":"VEC2"
		},
		{
			"bufferView":4,
			"componentType":5123,
			"count":900,
			"type":"SCALAR"
		},
		{
			"bufferView":5,
			"componentType":5126,
			"count":330,
			"max":[
				2.7283694744110107,
				3.6707816123962402,
				1.9929332733154297
			],
			"min":[
				-2.0140130519866943,
				7.336323960771551e-06,
				-12.035432815551758
			],
			"type":"VEC3"
		},
		{
			"bufferView":6,
			"componentType":5126,
			"count":330,
			"type":"VEC3"
		},
		{
			"bufferView":7,
			"componentType":5126,
			"count":330,
			"type":"VEC2"
		},
		{
			"bufferView":8,
			"componentType":5123,
			"count":1152,
			"type":"SCALAR"
		},
		{
			"bufferView":9,
			"componentType":5126,
			"count":96,
			"max":[
				2.663973331451416,
				3.6156489849090576,
				1.9154897928237915
			],
			"min":[
				-1.956168532371521,
				0.27200019359588623,
				-11.957988739013672
			],
			"type":"VEC3"
		},
		{
			"bufferView":10,
			"componentType":5126,
			"count":96,
			"type":"VEC3"
		},
		{
			"bufferView":11,
			"componentType":5126,
			"count":96,
			"type":"VEC2"
		},
		{
			"bufferView":12,
			"componentType":5123,
			"count":252,
			"type":"SCALAR"
		}
	],
	"bufferViews":[
		{
			"buffer":0,
			"byteLength":3120,
			"byteOffset":0,
			"target":34962
		},
		{
			"buffer":0,
			"byteLength":3120,
			"byteOffset":3120,
			"target":34962
		},
		{
			"buffer":0,
			"byteLength":2080,
			"byteOffset":6240,
			"target":34962
		},
		{
			"buffer":0,
			"byteLength":2080,
			"byteOffset":8320,
			"target":34962
		},
		{
			"buffer":0,
			"byteLength":1800,
			"byteOffset":10400,
			"target":34963
		},
		{
			"buffer":0,
			"byteLength":3960,
			"byteOffset":12200,
			"target":34962
		},
		{
			"buffer":0,
			"byteLength":3960,
			"byteOffset":16160,
			"target":34962
		},
		{
			"buffer":0,
			"byteLength":2640,
			"byteOffset":20120,
			"target":34962
		},
		{
			"buffer":0,
			"byteLength":2304,
			"byteOffset":22760,
			"target":34963
		},
		{
			"buffer":0,
			"byteLength":1152,
			"byteOffset":25064,
			"target":34962
		},
		{
			"buffer":0,
			"byteLength":1152,
			"byteOffset":26216,
			"target":34962
		},
		{
			"buffer":0,
			"byteLength":768,
			"byteOffset":27368,
			"target":34962
		},
		{
			"buffer":0,
			"byteLength":504,
			"byteOffset":28136,
			"target":34963
		}
	],
	"samplers":[
		{
			"magFilter":9729,
			"minFilter":9987
		}
	],
	"buffers":[
		{
			"byteLength":28640,
			"uri":"mountain_curve.bin"
		}
	]
}
