{
	"asset":{
		"generator":"Khronos glTF Blender I/O v3.6.27",
		"version":"2.0"
	},
	"extensionsUsed":[
		"KHR_materials_specular",
		"KHR_materials_ior"
	],
	"scene":0,
	"scenes":[
		{
			"name":"Scene",
			"nodes":[
				4
			]
		}
	],
	"nodes":[
		{
			"mesh":0,
			"name":"mountain_control_switch_collider"
		},
		{
			"name":"root"
		},
		{
			"name":"switch",
			"translation":[
				0.2752303183078766,
				0.20984706282615662,
				0
			]
		},
		{
			"mesh":1,
			"name":"mountain_control_switch_glb",
			"skin":0
		},
		{
			"children":[
				0,
				3,
				1,
				2
			],
			"name":"mountain_control_switch_armature"
		}
	],
	"animations":[
		{
			"channels":[
				{
					"sampler":0,
					"target":{
						"node":1,
						"path":"translation"
					}
				},
				{
					"sampler":1,
					"target":{
						"node":1,
						"path":"rotation"
					}
				},
				{
					"sampler":2,
					"target":{
						"node":1,
						"path":"scale"
					}
				},
				{
					"sampler":3,
					"target":{
						"node":2,
						"path":"translation"
					}
				},
				{
					"sampler":4,
					"target":{
						"node":2,
						"path":"rotation"
					}
				},
				{
					"sampler":5,
					"target":{
						"node":2,
						"path":"scale"
					}
				}
			],
			"name":"0. switch_false",
			"samplers":[
				{
					"input":17,
					"interpolation":"STEP",
					"output":18
				},
				{
					"input":17,
					"interpolation":"STEP",
					"output":19
				},
				{
					"input":17,
					"interpolation":"STEP",
					"output":20
				},
				{
					"input":17,
					"interpolation":"LINEAR",
					"output":21
				},
				{
					"input":17,
					"interpolation":"STEP",
					"output":22
				},
				{
					"input":17,
					"interpolation":"STEP",
					"output":23
				}
			]
		},
		{
			"channels":[
				{
					"sampler":0,
					"target":{
						"node":1,
						"path":"translation"
					}
				},
				{
					"sampler":1,
					"target":{
						"node":1,
						"path":"rotation"
					}
				},
				{
					"sampler":2,
					"target":{
						"node":1,
						"path":"scale"
					}
				},
				{
					"sampler":3,
					"target":{
						"node":2,
						"path":"translation"
					}
				},
				{
					"sampler":4,
					"target":{
						"node":2,
						"path":"rotation"
					}
				},
				{
					"sampler":5,
					"target":{
						"node":2,
						"path":"scale"
					}
				}
			],
			"name":"1. switch_true",
			"samplers":[
				{
					"input":17,
					"interpolation":"STEP",
					"output":24
				},
				{
					"input":17,
					"interpolation":"STEP",
					"output":25
				},
				{
					"input":17,
					"interpolation":"STEP",
					"output":26
				},
				{
					"input":17,
					"interpolation":"LINEAR",
					"output":27
				},
				{
					"input":17,
					"interpolation":"STEP",
					"output":28
				},
				{
					"input":17,
					"interpolation":"STEP",
					"output":29
				}
			]
		}
	],
	"materials":[
		{
			"doubleSided":true,
			"emissiveFactor":[
				0.20000000298023224,
				0.20000000298023224,
				0.20000000298023224
			],
			"emissiveTexture":{
				"index":0
			},
			"extensions":{
				"KHR_materials_specular":{
					"specularColorFactor":[
						0,
						0,
						0
					]
				},
				"KHR_materials_ior":{
					"ior":1.4500000476837158
				}
			},
			"name":"mountain_tiled_granite",
			"pbrMetallicRoughness":{
				"baseColorTexture":{
					"index":1
				},
				"metallicFactor":0
			}
		},
		{
			"alphaCutoff":0.4213036894798279,
			"alphaMode":"MASK",
			"doubleSided":true,
			"emissiveFactor":[
				0.20000000298023224,
				0.20000000298023224,
				0.20000000298023224
			],
			"emissiveTexture":{
				"index":2
			},
			"extensions":{
				"KHR_materials_specular":{
					"specularColorFactor":[
						0,
						0,
						0
					]
				},
				"KHR_materials_ior":{
					"ior":1.4500000476837158
				}
			},
			"name":"mountain_alphas",
			"pbrMetallicRoughness":{
				"baseColorTexture":{
					"index":3
				},
				"metallicFactor":0
			}
		}
	],
	"meshes":[
		{
			"name":"Cube.003",
			"primitives":[
				{
					"attributes":{
						"POSITION":0,
						"NORMAL":1,
						"TEXCOORD_0":2
					},
					"indices":3
				}
			]
		},
		{
			"name":"Cube.001",
			"primitives":[
				{
					"attributes":{
						"POSITION":4,
						"NORMAL":5,
						"TEXCOORD_0":6,
						"JOINTS_0":7,
						"WEIGHTS_0":8
					},
					"indices":9,
					"material":0
				},
				{
					"attributes":{
						"POSITION":10,
						"NORMAL":11,
						"TEXCOORD_0":12,
						"JOINTS_0":13,
						"WEIGHTS_0":14
					},
					"indices":15,
					"material":1
				}
			]
		}
	],
	"textures":[
		{
			"sampler":0,
			"source":0
		},
		{
			"sampler":0,
			"source":0
		},
		{
			"sampler":0,
			"source":1
		},
		{
			"sampler":0,
			"source":1
		}
	],
	"images":[
		{
			"mimeType":"image/png",
			"name":"mountain_tiled_granite",
			"uri":"textures/mountain_tiled_granite.png"
		},
		{
			"mimeType":"image/png",
			"name":"mountain_alphas",
			"uri":"textures/mountain_alphas.png"
		}
	],
	"skins":[
		{
			"inverseBindMatrices":16,
			"joints":[
				1,
				2
			],
			"name":"mountain_control_switch_armature"
		}
	],
	"accessors":[
		{
			"bufferView":0,
			"componentType":5126,
			"count":16,
			"max":[
				0.761581301689148,
				0.3068239092826843,
				0.40785154700279236
			],
			"min":[
				-0.7615810632705688,
				0,
				-0.40785154700279236
			],
			"type":"VEC3"
		},
		{
			"bufferView":1,
			"componentType":5126,
			"count":16,
			"type":"VEC3"
		},
		{
			"bufferView":2,
			"componentType":5126,
			"count":16,
			"type":"VEC2"
		},
		{
			"bufferView":3,
			"componentType":5123,
			"count":36,
			"type":"SCALAR"
		},
		{
			"bufferView":4,
			"componentType":5126,
			"count":133,
			"max":[
				0.761581301689148,
				0.3068239092826843,
				0.40785154700279236
			],
			"min":[
				-0.7615810632705688,
				0,
				-0.40785154700279236
			],
			"type":"VEC3"
		},
		{
			"bufferView":5,
			"componentType":5126,
			"count":133,
			"type":"VEC3"
		},
		{
			"bufferView":6,
			"componentType":5126,
			"count":133,
			"type":"VEC2"
		},
		{
			"bufferView":7,
			"componentType":5121,
			"count":133,
			"type":"VEC4"
		},
		{
			"bufferView":8,
			"componentType":5126,
			"count":133,
			"type":"VEC4"
		},
		{
			"bufferView":9,
			"componentType":5123,
			"count":309,
			"type":"SCALAR"
		},
		{
			"bufferView":10,
			"componentType":5126,
			"count":412,
			"max":[
				0.5343557596206665,
				0.36099278926849365,
				0.2591254711151123
			],
			"min":[
				-0.5320152044296265,
				0.08285640180110931,
				-0.2591254711151123
			],
			"type":"VEC3"
		},
		{
			"bufferView":11,
			"componentType":5126,
			"count":412,
			"type":"VEC3"
		},
		{
			"bufferView":12,
			"componentType":5126,
			"count":412,
			"type":"VEC2"
		},
		{
			"bufferView":13,
			"componentType":5121,
			"count":412,
			"type":"VEC4"
		},
		{
			"bufferView":14,
			"componentType":5126,
			"count":412,
			"type":"VEC4"
		},
		{
			"bufferView":15,
			"componentType":5123,
			"count":783,
			"type":"SCALAR"
		},
		{
			"bufferView":16,
			"componentType":5126,
			"count":2,
			"type":"MAT4"
		},
		{
			"bufferView":17,
			"componentType":5126,
			"count":1,
			"max":[
				0
			],
			"min":[
				0
			],
			"type":"SCALAR"
		},
		{
			"bufferView":18,
			"componentType":5126,
			"count":1,
			"type":"VEC3"
		},
		{
			"bufferView":19,
			"componentType":5126,
			"count":1,
			"type":"VEC4"
		},
		{
			"bufferView":20,
			"componentType":5126,
			"count":1,
			"type":"VEC3"
		},
		{
			"bufferView":21,
			"componentType":5126,
			"count":1,
			"type":"VEC3"
		},
		{
			"bufferView":22,
			"componentType":5126,
			"count":1,
			"type":"VEC4"
		},
		{
			"bufferView":23,
			"componentType":5126,
			"count":1,
			"type":"VEC3"
		},
		{
			"bufferView":24,
			"componentType":5126,
			"count":1,
			"type":"VEC3"
		},
		{
			"bufferView":25,
			"componentType":5126,
			"count":1,
			"type":"VEC4"
		},
		{
			"bufferView":26,
			"componentType":5126,
			"count":1,
			"type":"VEC3"
		},
		{
			"bufferView":27,
			"componentType":5126,
			"count":1,
			"type":"VEC3"
		},
		{
			"bufferView":28,
			"componentType":5126,
			"count":1,
			"type":"VEC4"
		},
		{
			"bufferView":29,
			"componentType":5126,
			"count":1,
			"type":"VEC3"
		}
	],
	"bufferViews":[
		{
			"buffer":0,
			"byteLength":192,
			"byteOffset":0,
			"target":34962
		},
		{
			"buffer":0,
			"byteLength":192,
			"byteOffset":192,
			"target":34962
		},
		{
			"buffer":0,
			"byteLength":128,
			"byteOffset":384,
			"target":34962
		},
		{
			"buffer":0,
			"byteLength":72,
			"byteOffset":512,
			"target":34963
		},
		{
			"buffer":0,
			"byteLength":1596,
			"byteOffset":584,
			"target":34962
		},
		{
			"buffer":0,
			"byteLength":1596,
			"byteOffset":2180,
			"target":34962
		},
		{
			"buffer":0,
			"byteLength":1064,
			"byteOffset":3776,
			"target":34962
		},
		{
			"buffer":0,
			"byteLength":532,
			"byteOffset":4840,
			"target":34962
		},
		{
			"buffer":0,
			"byteLength":2128,
			"byteOffset":5372,
			"target":34962
		},
		{
			"buffer":0,
			"byteLength":618,
			"byteOffset":7500,
			"target":34963
		},
		{
			"buffer":0,
			"byteLength":4944,
			"byteOffset":8120,
			"target":34962
		},
		{
			"buffer":0,
			"byteLength":4944,
			"byteOffset":13064,
			"target":34962
		},
		{
			"buffer":0,
			"byteLength":3296,
			"byteOffset":18008,
			"target":34962
		},
		{
			"buffer":0,
			"byteLength":1648,
			"byteOffset":21304,
			"target":34962
		},
		{
			"buffer":0,
			"byteLength":6592,
			"byteOffset":22952,
			"target":34962
		},
		{
			"buffer":0,
			"byteLength":1566,
			"byteOffset":29544,
			"target":34963
		},
		{
			"buffer":0,
			"byteLength":128,
			"byteOffset":31112
		},
		{
			"buffer":0,
			"byteLength":4,
			"byteOffset":31240
		},
		{
			"buffer":0,
			"byteLength":12,
			"byteOffset":31244
		},
		{
			"buffer":0,
			"byteLength":16,
			"byteOffset":31256
		},
		{
			"buffer":0,
			"byteLength":12,
			"byteOffset":31272
		},
		{
			"buffer":0,
			"byteLength":12,
			"byteOffset":31284
		},
		{
			"buffer":0,
			"byteLength":16,
			"byteOffset":31296
		},
		{
			"buffer":0,
			"byteLength":12,
			"byteOffset":31312
		},
		{
			"buffer":0,
			"byteLength":12,
			"byteOffset":31324
		},
		{
			"buffer":0,
			"byteLength":16,
			"byteOffset":31336
		},
		{
			"buffer":0,
			"byteLength":12,
			"byteOffset":31352
		},
		{
			"buffer":0,
			"byteLength":12,
			"byteOffset":31364
		},
		{
			"buffer":0,
			"byteLength":16,
			"byteOffset":31376
		},
		{
			"buffer":0,
			"byteLength":12,
			"byteOffset":31392
		}
	],
	"samplers":[
		{
			"magFilter":9729,
			"minFilter":9987
		}
	],
	"buffers":[
		{
			"byteLength":31404,
			"uri":"mountain_control_switch.bin"
		}
	]
}
