{
	"asset":{
		"generator":"Khronos glTF Blender I/O v3.6.27",
		"version":"2.0"
	},
	"extensionsUsed":[
		"KHR_materials_specular",
		"KHR_materials_ior"
	],
	"scene":0,
	"scenes":[
		{
			"name":"Scene",
			"nodes":[
				0,
				1
			]
		}
	],
	"nodes":[
		{
			"mesh":0,
			"name":"mountain_cylinder_collider"
		},
		{
			"mesh":1,
			"name":"mountain_cylinder_glb"
		}
	],
	"materials":[
		{
			"doubleSided":true,
			"emissiveFactor":[
				0.20000000298023224,
				0.20000000298023224,
				0.20000000298023224
			],
			"emissiveTexture":{
				"index":0
			},
			"extensions":{
				"KHR_materials_specular":{
					"specularColorFactor":[
						0,
						0,
						0
					]
				},
				"KHR_materials_ior":{
					"ior":1.4500000476837158
				}
			},
			"name":"mountain_tiled_granite",
			"pbrMetallicRoughness":{
				"baseColorTexture":{
					"index":1
				},
				"metallicFactor":0
			}
		},
		{
			"alphaCutoff":0.4213036894798279,
			"alphaMode":"MASK",
			"doubleSided":true,
			"emissiveFactor":[
				0.20000000298023224,
				0.20000000298023224,
				0.20000000298023224
			],
			"emissiveTexture":{
				"index":2
			},
			"extensions":{
				"KHR_materials_specular":{
					"specularColorFactor":[
						0,
						0,
						0
					]
				},
				"KHR_materials_ior":{
					"ior":1.4500000476837158
				}
			},
			"name":"mountain_alphas",
			"pbrMetallicRoughness":{
				"baseColorTexture":{
					"index":3
				},
				"metallicFactor":0
			}
		}
	],
	"meshes":[
		{
			"name":"egypt_cylinder_collider",
			"primitives":[
				{
					"attributes":{
						"POSITION":0,
						"NORMAL":1,
						"TEXCOORD_0":2
					},
					"indices":3
				}
			]
		},
		{
			"name":"basic_cylinder_glb_Cylinder.001",
			"primitives":[
				{
					"attributes":{
						"POSITION":4,
						"NORMAL":5,
						"TEXCOORD_0":6
					},
					"indices":7,
					"material":0
				},
				{
					"attributes":{
						"POSITION":8,
						"NORMAL":9,
						"TEXCOORD_0":10
					},
					"indices":11,
					"material":1
				}
			]
		}
	],
	"textures":[
		{
			"sampler":0,
			"source":0
		},
		{
			"sampler":0,
			"source":0
		},
		{
			"sampler":0,
			"source":1
		},
		{
			"sampler":0,
			"source":1
		}
	],
	"images":[
		{
			"mimeType":"image/png",
			"name":"mountain_tiled_granite",
			"uri":"textures/mountain_tiled_granite.png"
		},
		{
			"mimeType":"image/png",
			"name":"mountain_alphas",
			"uri":"textures/mountain_alphas.png"
		}
	],
	"accessors":[
		{
			"bufferView":0,
			"componentType":5126,
			"count":48,
			"max":[
				0.5128729939460754,
				1.2689311504364014,
				0.5128731727600098
			],
			"min":[
				-0.5128729939460754,
				0.24318590760231018,
				-0.5128729343414307
			],
			"type":"VEC3"
		},
		{
			"bufferView":1,
			"componentType":5126,
			"count":48,
			"type":"VEC3"
		},
		{
			"bufferView":2,
			"componentType":5126,
			"count":48,
			"type":"VEC2"
		},
		{
			"bufferView":3,
			"componentType":5123,
			"count":84,
			"type":"SCALAR"
		},
		{
			"bufferView":4,
			"componentType":5126,
			"count":39,
			"max":[
				0.5128729939460754,
				1.2689311504364014,
				0.5128733515739441
			],
			"min":[
				-0.5128729939460754,
				0.2431858479976654,
				-0.5128729343414307
			],
			"type":"VEC3"
		},
		{
			"bufferView":5,
			"componentType":5126,
			"count":39,
			"type":"VEC3"
		},
		{
			"bufferView":6,
			"componentType":5126,
			"count":39,
			"type":"VEC2"
		},
		{
			"bufferView":7,
			"componentType":5123,
			"count":84,
			"type":"SCALAR"
		},
		{
			"bufferView":8,
			"componentType":5126,
			"count":40,
			"max":[
				0.5128729939460754,
				1.2848542928695679,
				0.5128733515739441
			],
			"min":[
				-0.5128729939460754,
				0.37771594524383545,
				-0.5128726363182068
			],
			"type":"VEC3"
		},
		{
			"bufferView":9,
			"componentType":5126,
			"count":40,
			"type":"VEC3"
		},
		{
			"bufferView":10,
			"componentType":5126,
			"count":40,
			"type":"VEC2"
		},
		{
			"bufferView":11,
			"componentType":5123,
			"count":66,
			"type":"SCALAR"
		}
	],
	"bufferViews":[
		{
			"buffer":0,
			"byteLength":576,
			"byteOffset":0,
			"target":34962
		},
		{
			"buffer":0,
			"byteLength":576,
			"byteOffset":576,
			"target":34962
		},
		{
			"buffer":0,
			"byteLength":384,
			"byteOffset":1152,
			"target":34962
		},
		{
			"buffer":0,
			"byteLength":168,
			"byteOffset":1536,
			"target":34963
		},
		{
			"buffer":0,
			"byteLength":468,
			"byteOffset":1704,
			"target":34962
		},
		{
			"buffer":0,
			"byteLength":468,
			"byteOffset":2172,
			"target":34962
		},
		{
			"buffer":0,
			"byteLength":312,
			"byteOffset":2640,
			"target":34962
		},
		{
			"buffer":0,
			"byteLength":168,
			"byteOffset":2952,
			"target":34963
		},
		{
			"buffer":0,
			"byteLength":480,
			"byteOffset":3120,
			"target":34962
		},
		{
			"buffer":0,
			"byteLength":480,
			"byteOffset":3600,
			"target":34962
		},
		{
			"buffer":0,
			"byteLength":320,
			"byteOffset":4080,
			"target":34962
		},
		{
			"buffer":0,
			"byteLength":132,
			"byteOffset":4400,
			"target":34963
		}
	],
	"samplers":[
		{
			"magFilter":9729,
			"minFilter":9987
		}
	],
	"buffers":[
		{
			"byteLength":4532,
			"uri":"mountain_cylinder.bin"
		}
	]
}
