{
	"asset":{
		"generator":"Khronos glTF Blender I/O v3.6.27",
		"version":"2.0"
	},
	"extensionsUsed":[
		"KHR_materials_specular",
		"KHR_materials_ior"
	],
	"scene":0,
	"scenes":[
		{
			"name":"Scene",
			"nodes":[
				0,
				1
			]
		}
	],
	"nodes":[
		{
			"mesh":0,
			"name":"mountain_centrebump_collider"
		},
		{
			"mesh":1,
			"name":"mountain_centrebump_glb"
		}
	],
	"materials":[
		{
			"doubleSided":true,
			"emissiveFactor":[
				0.20000000298023224,
				0.20000000298023224,
				0.20000000298023224
			],
			"emissiveTexture":{
				"index":0
			},
			"extensions":{
				"KHR_materials_specular":{
					"specularColorFactor":[
						0,
						0,
						0
					]
				},
				"KHR_materials_ior":{
					"ior":1.4500000476837158
				}
			},
			"name":"mountain_tiled_grass",
			"pbrMetallicRoughness":{
				"baseColorTexture":{
					"index":1
				},
				"metallicFactor":0
			}
		},
		{
			"alphaCutoff":0.5,
			"alphaMode":"MASK",
			"doubleSided":true,
			"emissiveFactor":[
				0.20000000298023224,
				0.20000000298023224,
				0.20000000298023224
			],
			"emissiveTexture":{
				"index":2
			},
			"name":"mountain_grass_alphas",
			"pbrMetallicRoughness":{
				"baseColorTexture":{
					"index":3
				},
				"metallicFactor":0
			}
		}
	],
	"meshes":[
		{
			"name":"egypt_centrebump_collider",
			"primitives":[
				{
					"attributes":{
						"POSITION":0,
						"NORMAL":1,
						"TEXCOORD_0":2,
						"TEXCOORD_1":3
					},
					"indices":4
				}
			]
		},
		{
			"name":"basic_centreBump_glb_ID3.002",
			"primitives":[
				{
					"attributes":{
						"POSITION":5,
						"NORMAL":6,
						"TEXCOORD_0":7
					},
					"indices":8,
					"material":0
				},
				{
					"attributes":{
						"POSITION":9,
						"NORMAL":10,
						"TEXCOORD_0":11
					},
					"indices":12,
					"material":1
				}
			]
		}
	],
	"textures":[
		{
			"sampler":0,
			"source":0
		},
		{
			"sampler":0,
			"source":0
		},
		{
			"sampler":0,
			"source":1
		},
		{
			"sampler":0,
			"source":1
		}
	],
	"images":[
		{
			"mimeType":"image/png",
			"name":"mountain_tiled_grass",
			"uri":"textures/mountain_tiled_grass.png"
		},
		{
			"mimeType":"image/png",
			"name":"mountain_grass_alphas",
			"uri":"textures/mountain_grass_alphas.png"
		}
	],
	"accessors":[
		{
			"bufferView":0,
			"componentType":5126,
			"count":92,
			"max":[
				1.9999560117721558,
				0.57635498046875,
				2
			],
			"min":[
				-1.9999560117721558,
				-3.2584136988589307e-07,
				-2
			],
			"type":"VEC3"
		},
		{
			"bufferView":1,
			"componentType":5126,
			"count":92,
			"type":"VEC3"
		},
		{
			"bufferView":2,
			"componentType":5126,
			"count":92,
			"type":"VEC2"
		},
		{
			"bufferView":3,
			"componentType":5126,
			"count":92,
			"type":"VEC2"
		},
		{
			"bufferView":4,
			"componentType":5123,
			"count":204,
			"type":"SCALAR"
		},
		{
			"bufferView":5,
			"componentType":5126,
			"count":174,
			"max":[
				1.9999560117721558,
				0.5763559937477112,
				2
			],
			"min":[
				-1.9999560117721558,
				-3.2584136988589307e-07,
				-2
			],
			"type":"VEC3"
		},
		{
			"bufferView":6,
			"componentType":5126,
			"count":174,
			"type":"VEC3"
		},
		{
			"bufferView":7,
			"componentType":5126,
			"count":174,
			"type":"VEC2"
		},
		{
			"bufferView":8,
			"componentType":5123,
			"count":408,
			"type":"SCALAR"
		},
		{
			"bufferView":9,
			"componentType":5126,
			"count":53,
			"max":[
				1.965036392211914,
				0.5959051847457886,
				1.9658883810043335
			],
			"min":[
				-1.965036392211914,
				0.2522061765193939,
				-1.9658883810043335
			],
			"type":"VEC3"
		},
		{
			"bufferView":10,
			"componentType":5126,
			"count":53,
			"type":"VEC3"
		},
		{
			"bufferView":11,
			"componentType":5126,
			"count":53,
			"type":"VEC2"
		},
		{
			"bufferView":12,
			"componentType":5123,
			"count":81,
			"type":"SCALAR"
		}
	],
	"bufferViews":[
		{
			"buffer":0,
			"byteLength":1104,
			"byteOffset":0,
			"target":34962
		},
		{
			"buffer":0,
			"byteLength":1104,
			"byteOffset":1104,
			"target":34962
		},
		{
			"buffer":0,
			"byteLength":736,
			"byteOffset":2208,
			"target":34962
		},
		{
			"buffer":0,
			"byteLength":736,
			"byteOffset":2944,
			"target":34962
		},
		{
			"buffer":0,
			"byteLength":408,
			"byteOffset":3680,
			"target":34963
		},
		{
			"buffer":0,
			"byteLength":2088,
			"byteOffset":4088,
			"target":34962
		},
		{
			"buffer":0,
			"byteLength":2088,
			"byteOffset":6176,
			"target":34962
		},
		{
			"buffer":0,
			"byteLength":1392,
			"byteOffset":8264,
			"target":34962
		},
		{
			"buffer":0,
			"byteLength":816,
			"byteOffset":9656,
			"target":34963
		},
		{
			"buffer":0,
			"byteLength":636,
			"byteOffset":10472,
			"target":34962
		},
		{
			"buffer":0,
			"byteLength":636,
			"byteOffset":11108,
			"target":34962
		},
		{
			"buffer":0,
			"byteLength":424,
			"byteOffset":11744,
			"target":34962
		},
		{
			"buffer":0,
			"byteLength":162,
			"byteOffset":12168,
			"target":34963
		}
	],
	"samplers":[
		{
			"magFilter":9729,
			"minFilter":9987
		}
	],
	"buffers":[
		{
			"byteLength":12332,
			"uri":"mountain_centrebump.bin"
		}
	]
}
