{
	"asset":{
		"generator":"Khronos glTF Blender I/O v3.6.27",
		"version":"2.0"
	},
	"scene":0,
	"scenes":[
		{
			"name":"Scene",
			"nodes":[
				0,
				1
			]
		}
	],
	"nodes":[
		{
			"mesh":0,
			"name":"mountain_env_tree_collider"
		},
		{
			"mesh":1,
			"name":"mountain_env_tree_glb"
		}
	],
	"materials":[
		{
			"doubleSided":true,
			"name":"mountain_env_tree",
			"pbrMetallicRoughness":{
				"baseColorTexture":{
					"index":0
				},
				"metallicFactor":0,
				"roughnessFactor":0.5
			}
		}
	],
	"meshes":[
		{
			"name":"Cube.010",
			"primitives":[
				{
					"attributes":{
						"POSITION":0,
						"NORMAL":1,
						"TEXCOORD_0":2
					},
					"indices":3
				}
			]
		},
		{
			"name":"Plane.004",
			"primitives":[
				{
					"attributes":{
						"POSITION":4,
						"NORMAL":5,
						"TEXCOORD_0":6
					},
					"indices":7,
					"material":0
				}
			]
		}
	],
	"textures":[
		{
			"sampler":0,
			"source":0
		}
	],
	"images":[
		{
			"mimeType":"image/png",
			"name":"mountain_env_tree",
			"uri":"textures/mountain_env_tree.png"
		}
	],
	"accessors":[
		{
			"bufferView":0,
			"componentType":5126,
			"count":90,
			"max":[
				1.8549178838729858,
				3.8032820224761963,
				0.0709167867898941
			],
			"min":[
				-1.8549178838729858,
				-0.03531733527779579,
				-0.0709167867898941
			],
			"type":"VEC3"
		},
		{
			"bufferView":1,
			"componentType":5126,
			"count":90,
			"type":"VEC3"
		},
		{
			"bufferView":2,
			"componentType":5126,
			"count":90,
			"type":"VEC2"
		},
		{
			"bufferView":3,
			"componentType":5123,
			"count":168,
			"type":"SCALAR"
		},
		{
			"bufferView":4,
			"componentType":5126,
			"count":4291,
			"max":[
				2.187715768814087,
				4.005420684814453,
				0.09608136117458344
			],
			"min":[
				-2.187715768814087,
				-0.02048039436340332,
				-0.06319881975650787
			],
			"type":"VEC3"
		},
		{
			"bufferView":5,
			"componentType":5126,
			"count":4291,
			"type":"VEC3"
		},
		{
			"bufferView":6,
			"componentType":5126,
			"count":4291,
			"type":"VEC2"
		},
		{
			"bufferView":7,
			"componentType":5123,
			"count":12210,
			"type":"SCALAR"
		}
	],
	"bufferViews":[
		{
			"buffer":0,
			"byteLength":1080,
			"byteOffset":0,
			"target":34962
		},
		{
			"buffer":0,
			"byteLength":1080,
			"byteOffset":1080,
			"target":34962
		},
		{
			"buffer":0,
			"byteLength":720,
			"byteOffset":2160,
			"target":34962
		},
		{
			"buffer":0,
			"byteLength":336,
			"byteOffset":2880,
			"target":34963
		},
		{
			"buffer":0,
			"byteLength":51492,
			"byteOffset":3216,
			"target":34962
		},
		{
			"buffer":0,
			"byteLength":51492,
			"byteOffset":54708,
			"target":34962
		},
		{
			"buffer":0,
			"byteLength":34328,
			"byteOffset":106200,
			"target":34962
		},
		{
			"buffer":0,
			"byteLength":24420,
			"byteOffset":140528,
			"target":34963
		}
	],
	"samplers":[
		{
			"magFilter":9729,
			"minFilter":9987
		}
	],
	"buffers":[
		{
			"byteLength":164948,
			"uri":"mountain_env_tree.bin"
		}
	]
}
