{
	"asset":{
		"generator":"Khronos glTF Blender I/O v3.6.27",
		"version":"2.0"
	},
	"extensionsUsed":[
		"KHR_materials_specular",
		"KHR_materials_ior"
	],
	"scene":0,
	"scenes":[
		{
			"name":"Scene",
			"nodes":[
				0,
				1
			]
		}
	],
	"nodes":[
		{
			"mesh":0,
			"name":"mountain_thinpath1_collider"
		},
		{
			"mesh":1,
			"name":"mountain_thinpath1_glb"
		}
	],
	"materials":[
		{
			"doubleSided":true,
			"emissiveFactor":[
				0.20000000298023224,
				0.20000000298023224,
				0.20000000298023224
			],
			"emissiveTexture":{
				"index":0
			},
			"extensions":{
				"KHR_materials_specular":{
					"specularColorFactor":[
						0,
						0,
						0
					]
				},
				"KHR_materials_ior":{
					"ior":1.4500000476837158
				}
			},
			"name":"mountain_tiled_grass",
			"pbrMetallicRoughness":{
				"baseColorTexture":{
					"index":1
				},
				"metallicFactor":0
			}
		},
		{
			"alphaCutoff":0.5,
			"alphaMode":"MASK",
			"doubleSided":true,
			"emissiveFactor":[
				0.20000000298023224,
				0.20000000298023224,
				0.20000000298023224
			],
			"emissiveTexture":{
				"index":2
			},
			"name":"mountain_grass_alphas",
			"pbrMetallicRoughness":{
				"baseColorTexture":{
					"index":3
				},
				"metallicFactor":0
			}
		}
	],
	"meshes":[
		{
			"name":"egypt_thinpath1_collider",
			"primitives":[
				{
					"attributes":{
						"POSITION":0,
						"NORMAL":1,
						"TEXCOORD_0":2,
						"TEXCOORD_1":3
					},
					"indices":4
				}
			]
		},
		{
			"name":"basic_thinpath1_glb_ID3.001",
			"primitives":[
				{
					"attributes":{
						"POSITION":5,
						"NORMAL":6,
						"TEXCOORD_0":7
					},
					"indices":8,
					"material":0
				},
				{
					"attributes":{
						"POSITION":9,
						"NORMAL":10,
						"TEXCOORD_0":11
					},
					"indices":12,
					"material":1
				}
			]
		}
	],
	"textures":[
		{
			"sampler":0,
			"source":0
		},
		{
			"sampler":0,
			"source":0
		},
		{
			"sampler":0,
			"source":1
		},
		{
			"sampler":0,
			"source":1
		}
	],
	"images":[
		{
			"mimeType":"image/png",
			"name":"mountain_tiled_grass",
			"uri":"textures/mountain_tiled_grass.png"
		},
		{
			"mimeType":"image/png",
			"name":"mountain_grass_alphas",
			"uri":"textures/mountain_grass_alphas.png"
		}
	],
	"accessors":[
		{
			"bufferView":0,
			"componentType":5126,
			"count":24,
			"max":[
				0.5833330154418945,
				0.25,
				2
			],
			"min":[
				-0.5833330154418945,
				-3.2584136988589307e-07,
				-2.0000009536743164
			],
			"type":"VEC3"
		},
		{
			"bufferView":1,
			"componentType":5126,
			"count":24,
			"type":"VEC3"
		},
		{
			"bufferView":2,
			"componentType":5126,
			"count":24,
			"type":"VEC2"
		},
		{
			"bufferView":3,
			"componentType":5126,
			"count":24,
			"type":"VEC2"
		},
		{
			"bufferView":4,
			"componentType":5123,
			"count":36,
			"type":"SCALAR"
		},
		{
			"bufferView":5,
			"componentType":5126,
			"count":64,
			"max":[
				0.5833330154418945,
				0.25,
				2.0000009536743164
			],
			"min":[
				-0.5833330154418945,
				8.742277657347586e-08,
				-2.0000009536743164
			],
			"type":"VEC3"
		},
		{
			"bufferView":6,
			"componentType":5126,
			"count":64,
			"type":"VEC3"
		},
		{
			"bufferView":7,
			"componentType":5126,
			"count":64,
			"type":"VEC2"
		},
		{
			"bufferView":8,
			"componentType":5123,
			"count":156,
			"type":"SCALAR"
		},
		{
			"bufferView":9,
			"componentType":5126,
			"count":16,
			"max":[
				0.5146462917327881,
				0.25803858041763306,
				1.899573802947998
			],
			"min":[
				-0.48672839999198914,
				0.25803858041763306,
				-1.8988513946533203
			],
			"type":"VEC3"
		},
		{
			"bufferView":10,
			"componentType":5126,
			"count":16,
			"type":"VEC3"
		},
		{
			"bufferView":11,
			"componentType":5126,
			"count":16,
			"type":"VEC2"
		},
		{
			"bufferView":12,
			"componentType":5123,
			"count":24,
			"type":"SCALAR"
		}
	],
	"bufferViews":[
		{
			"buffer":0,
			"byteLength":288,
			"byteOffset":0,
			"target":34962
		},
		{
			"buffer":0,
			"byteLength":288,
			"byteOffset":288,
			"target":34962
		},
		{
			"buffer":0,
			"byteLength":192,
			"byteOffset":576,
			"target":34962
		},
		{
			"buffer":0,
			"byteLength":192,
			"byteOffset":768,
			"target":34962
		},
		{
			"buffer":0,
			"byteLength":72,
			"byteOffset":960,
			"target":34963
		},
		{
			"buffer":0,
			"byteLength":768,
			"byteOffset":1032,
			"target":34962
		},
		{
			"buffer":0,
			"byteLength":768,
			"byteOffset":1800,
			"target":34962
		},
		{
			"buffer":0,
			"byteLength":512,
			"byteOffset":2568,
			"target":34962
		},
		{
			"buffer":0,
			"byteLength":312,
			"byteOffset":3080,
			"target":34963
		},
		{
			"buffer":0,
			"byteLength":192,
			"byteOffset":3392,
			"target":34962
		},
		{
			"buffer":0,
			"byteLength":192,
			"byteOffset":3584,
			"target":34962
		},
		{
			"buffer":0,
			"byteLength":128,
			"byteOffset":3776,
			"target":34962
		},
		{
			"buffer":0,
			"byteLength":48,
			"byteOffset":3904,
			"target":34963
		}
	],
	"samplers":[
		{
			"magFilter":9729,
			"minFilter":9987
		}
	],
	"buffers":[
		{
			"byteLength":3952,
			"uri":"mountain_thinpath1.bin"
		}
	]
}
