{
	"asset":{
		"generator":"Khronos glTF Blender I/O v3.6.27",
		"version":"2.0"
	},
	"extensionsUsed":[
		"KHR_materials_specular",
		"KHR_materials_ior"
	],
	"scene":0,
	"scenes":[
		{
			"name":"Scene",
			"nodes":[
				0,
				1
			]
		}
	],
	"nodes":[
		{
			"mesh":0,
			"name":"mountain_sidebend_collider"
		},
		{
			"mesh":1,
			"name":"mountain_sidebend_glb"
		}
	],
	"materials":[
		{
			"doubleSided":true,
			"emissiveFactor":[
				0.20000000298023224,
				0.20000000298023224,
				0.20000000298023224
			],
			"emissiveTexture":{
				"index":0
			},
			"extensions":{
				"KHR_materials_specular":{
					"specularColorFactor":[
						0,
						0,
						0
					]
				},
				"KHR_materials_ior":{
					"ior":1.4500000476837158
				}
			},
			"name":"mountain_tiled_grass",
			"pbrMetallicRoughness":{
				"baseColorTexture":{
					"index":1
				},
				"metallicFactor":0
			}
		},
		{
			"alphaCutoff":0.5,
			"alphaMode":"MASK",
			"doubleSided":true,
			"emissiveFactor":[
				0.20000000298023224,
				0.20000000298023224,
				0.20000000298023224
			],
			"emissiveTexture":{
				"index":2
			},
			"name":"mountain_grass_alphas",
			"pbrMetallicRoughness":{
				"baseColorTexture":{
					"index":3
				},
				"metallicFactor":0
			}
		}
	],
	"meshes":[
		{
			"name":"egypt_sidebend_collider",
			"primitives":[
				{
					"attributes":{
						"POSITION":0,
						"NORMAL":1,
						"TEXCOORD_0":2
					},
					"indices":3
				}
			]
		},
		{
			"name":"egypt_sidebend_glb.001",
			"primitives":[
				{
					"attributes":{
						"POSITION":4,
						"NORMAL":5,
						"TEXCOORD_0":6
					},
					"indices":7,
					"material":0
				},
				{
					"attributes":{
						"POSITION":8,
						"NORMAL":9,
						"TEXCOORD_0":10
					},
					"indices":11,
					"material":1
				}
			]
		}
	],
	"textures":[
		{
			"sampler":0,
			"source":0
		},
		{
			"sampler":0,
			"source":0
		},
		{
			"sampler":0,
			"source":1
		},
		{
			"sampler":0,
			"source":1
		}
	],
	"images":[
		{
			"mimeType":"image/png",
			"name":"mountain_tiled_grass",
			"uri":"textures/mountain_tiled_grass.png"
		},
		{
			"mimeType":"image/png",
			"name":"mountain_grass_alphas",
			"uri":"textures/mountain_grass_alphas.png"
		}
	],
	"accessors":[
		{
			"bufferView":0,
			"componentType":5126,
			"count":239,
			"max":[
				2,
				0.8385199904441833,
				2
			],
			"min":[
				-2,
				-3.2584136988589307e-07,
				-2
			],
			"type":"VEC3"
		},
		{
			"bufferView":1,
			"componentType":5126,
			"count":239,
			"type":"VEC3"
		},
		{
			"bufferView":2,
			"componentType":5126,
			"count":239,
			"type":"VEC2"
		},
		{
			"bufferView":3,
			"componentType":5123,
			"count":540,
			"type":"SCALAR"
		},
		{
			"bufferView":4,
			"componentType":5126,
			"count":221,
			"max":[
				2,
				0.8385199904441833,
				2
			],
			"min":[
				-2,
				-3.2584136988589307e-07,
				-2
			],
			"type":"VEC3"
		},
		{
			"bufferView":5,
			"componentType":5126,
			"count":221,
			"type":"VEC3"
		},
		{
			"bufferView":6,
			"componentType":5126,
			"count":221,
			"type":"VEC2"
		},
		{
			"bufferView":7,
			"componentType":5123,
			"count":588,
			"type":"SCALAR"
		},
		{
			"bufferView":8,
			"componentType":5126,
			"count":40,
			"max":[
				1.8145856857299805,
				0.7978551983833313,
				1.9452183246612549
			],
			"min":[
				-1.8230723142623901,
				0.25928542017936707,
				-1.9223301410675049
			],
			"type":"VEC3"
		},
		{
			"bufferView":9,
			"componentType":5126,
			"count":40,
			"type":"VEC3"
		},
		{
			"bufferView":10,
			"componentType":5126,
			"count":40,
			"type":"VEC2"
		},
		{
			"bufferView":11,
			"componentType":5123,
			"count":60,
			"type":"SCALAR"
		}
	],
	"bufferViews":[
		{
			"buffer":0,
			"byteLength":2868,
			"byteOffset":0,
			"target":34962
		},
		{
			"buffer":0,
			"byteLength":2868,
			"byteOffset":2868,
			"target":34962
		},
		{
			"buffer":0,
			"byteLength":1912,
			"byteOffset":5736,
			"target":34962
		},
		{
			"buffer":0,
			"byteLength":1080,
			"byteOffset":7648,
			"target":34963
		},
		{
			"buffer":0,
			"byteLength":2652,
			"byteOffset":8728,
			"target":34962
		},
		{
			"buffer":0,
			"byteLength":2652,
			"byteOffset":11380,
			"target":34962
		},
		{
			"buffer":0,
			"byteLength":1768,
			"byteOffset":14032,
			"target":34962
		},
		{
			"buffer":0,
			"byteLength":1176,
			"byteOffset":15800,
			"target":34963
		},
		{
			"buffer":0,
			"byteLength":480,
			"byteOffset":16976,
			"target":34962
		},
		{
			"buffer":0,
			"byteLength":480,
			"byteOffset":17456,
			"target":34962
		},
		{
			"buffer":0,
			"byteLength":320,
			"byteOffset":17936,
			"target":34962
		},
		{
			"buffer":0,
			"byteLength":120,
			"byteOffset":18256,
			"target":34963
		}
	],
	"samplers":[
		{
			"magFilter":9729,
			"minFilter":9987
		}
	],
	"buffers":[
		{
			"byteLength":18376,
			"uri":"mountain_sidebend.bin"
		}
	]
}
