{
	"asset":{
		"generator":"Khronos glTF Blender I/O v3.6.27",
		"version":"2.0"
	},
	"extensionsUsed":[
		"KHR_materials_specular",
		"KHR_materials_ior"
	],
	"scene":0,
	"scenes":[
		{
			"name":"Scene",
			"nodes":[
				0,
				1
			]
		}
	],
	"nodes":[
		{
			"mesh":0,
			"name":"mountain_half_floor_collider"
		},
		{
			"mesh":1,
			"name":"mountain_half_floor_glb"
		}
	],
	"materials":[
		{
			"doubleSided":true,
			"emissiveFactor":[
				0.20000000298023224,
				0.20000000298023224,
				0.20000000298023224
			],
			"emissiveTexture":{
				"index":0
			},
			"extensions":{
				"KHR_materials_specular":{
					"specularColorFactor":[
						0,
						0,
						0
					]
				},
				"KHR_materials_ior":{
					"ior":1.4500000476837158
				}
			},
			"name":"mountain_tiled_grass",
			"pbrMetallicRoughness":{
				"baseColorTexture":{
					"index":1
				},
				"metallicFactor":0
			}
		},
		{
			"alphaCutoff":0.5,
			"alphaMode":"MASK",
			"doubleSided":true,
			"emissiveFactor":[
				0.20000000298023224,
				0.20000000298023224,
				0.20000000298023224
			],
			"emissiveTexture":{
				"index":2
			},
			"name":"mountain_grass_alphas",
			"pbrMetallicRoughness":{
				"baseColorTexture":{
					"index":3
				},
				"metallicFactor":0
			}
		}
	],
	"meshes":[
		{
			"name":"egypt_floor_collider.001",
			"primitives":[
				{
					"attributes":{
						"POSITION":0,
						"NORMAL":1,
						"TEXCOORD_0":2
					},
					"indices":3
				}
			]
		},
		{
			"name":"Floor_glb_Cube.003",
			"primitives":[
				{
					"attributes":{
						"POSITION":4,
						"NORMAL":5,
						"TEXCOORD_0":6
					},
					"indices":7,
					"material":0
				},
				{
					"attributes":{
						"POSITION":8,
						"NORMAL":9,
						"TEXCOORD_0":10
					},
					"indices":11,
					"material":1
				}
			]
		}
	],
	"textures":[
		{
			"sampler":0,
			"source":0
		},
		{
			"sampler":0,
			"source":0
		},
		{
			"sampler":0,
			"source":1
		},
		{
			"sampler":0,
			"source":1
		}
	],
	"images":[
		{
			"mimeType":"image/png",
			"name":"mountain_tiled_grass",
			"uri":"textures/mountain_tiled_grass.png"
		},
		{
			"mimeType":"image/png",
			"name":"mountain_grass_alphas",
			"uri":"textures/mountain_grass_alphas.png"
		}
	],
	"accessors":[
		{
			"bufferView":0,
			"componentType":5126,
			"count":18,
			"max":[
				2,
				0.25,
				2
			],
			"min":[
				-2,
				0,
				-2
			],
			"type":"VEC3"
		},
		{
			"bufferView":1,
			"componentType":5126,
			"count":18,
			"type":"VEC3"
		},
		{
			"bufferView":2,
			"componentType":5126,
			"count":18,
			"type":"VEC2"
		},
		{
			"bufferView":3,
			"componentType":5123,
			"count":24,
			"type":"SCALAR"
		},
		{
			"bufferView":4,
			"componentType":5126,
			"count":54,
			"max":[
				2,
				0.25,
				2
			],
			"min":[
				-2,
				9.685754776000977e-08,
				-1.9999998807907104
			],
			"type":"VEC3"
		},
		{
			"bufferView":5,
			"componentType":5126,
			"count":54,
			"type":"VEC3"
		},
		{
			"bufferView":6,
			"componentType":5126,
			"count":54,
			"type":"VEC2"
		},
		{
			"bufferView":7,
			"componentType":5123,
			"count":132,
			"type":"SCALAR"
		},
		{
			"bufferView":8,
			"componentType":5126,
			"count":15,
			"max":[
				1.9796626567840576,
				0.25243043899536133,
				1.990739107131958
			],
			"min":[
				-1.5705389976501465,
				0.25243043899536133,
				-1.5621323585510254
			],
			"type":"VEC3"
		},
		{
			"bufferView":9,
			"componentType":5126,
			"count":15,
			"type":"VEC3"
		},
		{
			"bufferView":10,
			"componentType":5126,
			"count":15,
			"type":"VEC2"
		},
		{
			"bufferView":11,
			"componentType":5123,
			"count":27,
			"type":"SCALAR"
		}
	],
	"bufferViews":[
		{
			"buffer":0,
			"byteLength":216,
			"byteOffset":0,
			"target":34962
		},
		{
			"buffer":0,
			"byteLength":216,
			"byteOffset":216,
			"target":34962
		},
		{
			"buffer":0,
			"byteLength":144,
			"byteOffset":432,
			"target":34962
		},
		{
			"buffer":0,
			"byteLength":48,
			"byteOffset":576,
			"target":34963
		},
		{
			"buffer":0,
			"byteLength":648,
			"byteOffset":624,
			"target":34962
		},
		{
			"buffer":0,
			"byteLength":648,
			"byteOffset":1272,
			"target":34962
		},
		{
			"buffer":0,
			"byteLength":432,
			"byteOffset":1920,
			"target":34962
		},
		{
			"buffer":0,
			"byteLength":264,
			"byteOffset":2352,
			"target":34963
		},
		{
			"buffer":0,
			"byteLength":180,
			"byteOffset":2616,
			"target":34962
		},
		{
			"buffer":0,
			"byteLength":180,
			"byteOffset":2796,
			"target":34962
		},
		{
			"buffer":0,
			"byteLength":120,
			"byteOffset":2976,
			"target":34962
		},
		{
			"buffer":0,
			"byteLength":54,
			"byteOffset":3096,
			"target":34963
		}
	],
	"samplers":[
		{
			"magFilter":9729,
			"minFilter":9987
		}
	],
	"buffers":[
		{
			"byteLength":3152,
			"uri":"mountain_half_floor.bin"
		}
	]
}
