{
	"asset":{
		"generator":"Khronos glTF Blender I/O v3.6.27",
		"version":"2.0"
	},
	"extensionsUsed":[
		"KHR_materials_specular",
		"KHR_materials_ior"
	],
	"scene":0,
	"scenes":[
		{
			"name":"Scene",
			"nodes":[
				0,
				1
			]
		}
	],
	"nodes":[
		{
			"mesh":0,
			"name":"mountain_concave_corner_collider"
		},
		{
			"mesh":1,
			"name":"mountain_concave_corner_glb"
		}
	],
	"materials":[
		{
			"alphaCutoff":0.5,
			"alphaMode":"MASK",
			"doubleSided":true,
			"emissiveFactor":[
				0.20000000298023224,
				0.20000000298023224,
				0.20000000298023224
			],
			"emissiveTexture":{
				"index":0
			},
			"name":"mountain_grass_alphas",
			"pbrMetallicRoughness":{
				"baseColorTexture":{
					"index":1
				},
				"metallicFactor":0
			}
		},
		{
			"doubleSided":true,
			"emissiveFactor":[
				0.20000000298023224,
				0.20000000298023224,
				0.20000000298023224
			],
			"emissiveTexture":{
				"index":2
			},
			"extensions":{
				"KHR_materials_specular":{
					"specularColorFactor":[
						0,
						0,
						0
					]
				},
				"KHR_materials_ior":{
					"ior":1.4500000476837158
				}
			},
			"name":"mountain_tiled_grass",
			"pbrMetallicRoughness":{
				"baseColorTexture":{
					"index":3
				},
				"metallicFactor":0
			}
		}
	],
	"meshes":[
		{
			"name":"egypt_concavecorner_collider",
			"primitives":[
				{
					"attributes":{
						"POSITION":0,
						"NORMAL":1,
						"TEXCOORD_0":2,
						"TEXCOORD_1":3
					},
					"indices":4
				}
			]
		},
		{
			"name":"Plane",
			"primitives":[
				{
					"attributes":{
						"POSITION":5,
						"NORMAL":6,
						"TEXCOORD_0":7
					},
					"indices":8,
					"material":0
				},
				{
					"attributes":{
						"POSITION":9,
						"NORMAL":10,
						"TEXCOORD_0":11
					},
					"indices":12,
					"material":1
				}
			]
		}
	],
	"textures":[
		{
			"sampler":0,
			"source":0
		},
		{
			"sampler":0,
			"source":0
		},
		{
			"sampler":0,
			"source":1
		},
		{
			"sampler":0,
			"source":1
		}
	],
	"images":[
		{
			"mimeType":"image/png",
			"name":"mountain_grass_alphas",
			"uri":"textures/mountain_grass_alphas.png"
		},
		{
			"mimeType":"image/png",
			"name":"mountain_tiled_grass",
			"uri":"textures/mountain_tiled_grass.png"
		}
	],
	"accessors":[
		{
			"bufferView":0,
			"componentType":5126,
			"count":279,
			"max":[
				5.140893936157227,
				4.886810302734375,
				3.750441789627075
			],
			"min":[
				-5.140893936157227,
				-0.0003621522046159953,
				-1.2224512100219727
			],
			"type":"VEC3"
		},
		{
			"bufferView":1,
			"componentType":5126,
			"count":279,
			"type":"VEC3"
		},
		{
			"bufferView":2,
			"componentType":5126,
			"count":279,
			"type":"VEC2"
		},
		{
			"bufferView":3,
			"componentType":5126,
			"count":279,
			"type":"VEC2"
		},
		{
			"bufferView":4,
			"componentType":5123,
			"count":924,
			"type":"SCALAR"
		},
		{
			"bufferView":5,
			"componentType":5126,
			"count":40,
			"max":[
				4.934759616851807,
				3.9446816444396973,
				3.463538408279419
			],
			"min":[
				-4.934759616851807,
				0.247013121843338,
				-1.1284892559051514
			],
			"type":"VEC3"
		},
		{
			"bufferView":6,
			"componentType":5126,
			"count":40,
			"type":"VEC3"
		},
		{
			"bufferView":7,
			"componentType":5126,
			"count":40,
			"type":"VEC2"
		},
		{
			"bufferView":8,
			"componentType":5123,
			"count":54,
			"type":"SCALAR"
		},
		{
			"bufferView":9,
			"componentType":5126,
			"count":333,
			"max":[
				5.0606889724731445,
				4.886810302734375,
				3.750882148742676
			],
			"min":[
				-5.0606889724731445,
				-0.0003621522046159953,
				-1.2220100164413452
			],
			"type":"VEC3"
		},
		{
			"bufferView":10,
			"componentType":5126,
			"count":333,
			"type":"VEC3"
		},
		{
			"bufferView":11,
			"componentType":5126,
			"count":333,
			"type":"VEC2"
		},
		{
			"bufferView":12,
			"componentType":5123,
			"count":1224,
			"type":"SCALAR"
		}
	],
	"bufferViews":[
		{
			"buffer":0,
			"byteLength":3348,
			"byteOffset":0,
			"target":34962
		},
		{
			"buffer":0,
			"byteLength":3348,
			"byteOffset":3348,
			"target":34962
		},
		{
			"buffer":0,
			"byteLength":2232,
			"byteOffset":6696,
			"target":34962
		},
		{
			"buffer":0,
			"byteLength":2232,
			"byteOffset":8928,
			"target":34962
		},
		{
			"buffer":0,
			"byteLength":1848,
			"byteOffset":11160,
			"target":34963
		},
		{
			"buffer":0,
			"byteLength":480,
			"byteOffset":13008,
			"target":34962
		},
		{
			"buffer":0,
			"byteLength":480,
			"byteOffset":13488,
			"target":34962
		},
		{
			"buffer":0,
			"byteLength":320,
			"byteOffset":13968,
			"target":34962
		},
		{
			"buffer":0,
			"byteLength":108,
			"byteOffset":14288,
			"target":34963
		},
		{
			"buffer":0,
			"byteLength":3996,
			"byteOffset":14396,
			"target":34962
		},
		{
			"buffer":0,
			"byteLength":3996,
			"byteOffset":18392,
			"target":34962
		},
		{
			"buffer":0,
			"byteLength":2664,
			"byteOffset":22388,
			"target":34962
		},
		{
			"buffer":0,
			"byteLength":2448,
			"byteOffset":25052,
			"target":34963
		}
	],
	"samplers":[
		{
			"magFilter":9729,
			"minFilter":9987
		}
	],
	"buffers":[
		{
			"byteLength":27500,
			"uri":"mountain_concave_corner.bin"
		}
	]
}
