{
	"asset":{
		"generator":"Khronos glTF Blender I/O v3.6.27",
		"version":"2.0"
	},
	"extensionsUsed":[
		"KHR_materials_specular",
		"KHR_materials_ior"
	],
	"scene":0,
	"scenes":[
		{
			"name":"Scene",
			"nodes":[
				0,
				1
			]
		}
	],
	"nodes":[
		{
			"mesh":0,
			"name":"mountain_halframp_collider"
		},
		{
			"mesh":1,
			"name":"mountain_halframp_glb"
		}
	],
	"materials":[
		{
			"doubleSided":true,
			"emissiveFactor":[
				0.20000000298023224,
				0.20000000298023224,
				0.20000000298023224
			],
			"emissiveTexture":{
				"index":0
			},
			"extensions":{
				"KHR_materials_specular":{
					"specularColorFactor":[
						0,
						0,
						0
					]
				},
				"KHR_materials_ior":{
					"ior":1.4500000476837158
				}
			},
			"name":"mountain_tiled_grass",
			"pbrMetallicRoughness":{
				"baseColorTexture":{
					"index":1
				},
				"metallicFactor":0
			}
		},
		{
			"alphaCutoff":0.5,
			"alphaMode":"MASK",
			"doubleSided":true,
			"emissiveFactor":[
				0.20000000298023224,
				0.20000000298023224,
				0.20000000298023224
			],
			"emissiveTexture":{
				"index":2
			},
			"name":"mountain_grass_alphas",
			"pbrMetallicRoughness":{
				"baseColorTexture":{
					"index":3
				},
				"metallicFactor":0
			}
		}
	],
	"meshes":[
		{
			"name":"egypt_halframp_collider",
			"primitives":[
				{
					"attributes":{
						"POSITION":0,
						"NORMAL":1,
						"TEXCOORD_0":2,
						"TEXCOORD_1":3
					},
					"indices":4
				}
			]
		},
		{
			"name":"basic_halframp_glb_ID3.001",
			"primitives":[
				{
					"attributes":{
						"POSITION":5,
						"NORMAL":6,
						"TEXCOORD_0":7
					},
					"indices":8,
					"material":0
				},
				{
					"attributes":{
						"POSITION":9,
						"NORMAL":10,
						"TEXCOORD_0":11
					},
					"indices":12,
					"material":1
				}
			]
		}
	],
	"textures":[
		{
			"sampler":0,
			"source":0
		},
		{
			"sampler":0,
			"source":0
		},
		{
			"sampler":0,
			"source":1
		},
		{
			"sampler":0,
			"source":1
		}
	],
	"images":[
		{
			"mimeType":"image/png",
			"name":"mountain_tiled_grass",
			"uri":"textures/mountain_tiled_grass.png"
		},
		{
			"mimeType":"image/png",
			"name":"mountain_grass_alphas",
			"uri":"textures/mountain_grass_alphas.png"
		}
	],
	"accessors":[
		{
			"bufferView":0,
			"componentType":5126,
			"count":64,
			"max":[
				0.8144649863243103,
				1.4578369855880737,
				1.9999560117721558
			],
			"min":[
				-0.8144649863243103,
				3.258342076151166e-07,
				-1.9999560117721558
			],
			"type":"VEC3"
		},
		{
			"bufferView":1,
			"componentType":5126,
			"count":64,
			"type":"VEC3"
		},
		{
			"bufferView":2,
			"componentType":5126,
			"count":64,
			"type":"VEC2"
		},
		{
			"bufferView":3,
			"componentType":5126,
			"count":64,
			"type":"VEC2"
		},
		{
			"bufferView":4,
			"componentType":5123,
			"count":132,
			"type":"SCALAR"
		},
		{
			"bufferView":5,
			"componentType":5126,
			"count":108,
			"max":[
				0.8144649863243103,
				1.4578369855880737,
				1.9999560117721558
			],
			"min":[
				-0.8144649863243103,
				3.258342076151166e-07,
				-1.9999560117721558
			],
			"type":"VEC3"
		},
		{
			"bufferView":6,
			"componentType":5126,
			"count":108,
			"type":"VEC3"
		},
		{
			"bufferView":7,
			"componentType":5126,
			"count":108,
			"type":"VEC2"
		},
		{
			"bufferView":8,
			"componentType":5123,
			"count":252,
			"type":"SCALAR"
		},
		{
			"bufferView":9,
			"componentType":5126,
			"count":32,
			"max":[
				0.8234996199607849,
				1.4588415622711182,
				2.0009605884552
			],
			"min":[
				-0.8235006928443909,
				3.2782554626464844e-07,
				-2.0009605884552
			],
			"type":"VEC3"
		},
		{
			"bufferView":10,
			"componentType":5126,
			"count":32,
			"type":"VEC3"
		},
		{
			"bufferView":11,
			"componentType":5126,
			"count":32,
			"type":"VEC2"
		},
		{
			"bufferView":12,
			"componentType":5123,
			"count":54,
			"type":"SCALAR"
		}
	],
	"bufferViews":[
		{
			"buffer":0,
			"byteLength":768,
			"byteOffset":0,
			"target":34962
		},
		{
			"buffer":0,
			"byteLength":768,
			"byteOffset":768,
			"target":34962
		},
		{
			"buffer":0,
			"byteLength":512,
			"byteOffset":1536,
			"target":34962
		},
		{
			"buffer":0,
			"byteLength":512,
			"byteOffset":2048,
			"target":34962
		},
		{
			"buffer":0,
			"byteLength":264,
			"byteOffset":2560,
			"target":34963
		},
		{
			"buffer":0,
			"byteLength":1296,
			"byteOffset":2824,
			"target":34962
		},
		{
			"buffer":0,
			"byteLength":1296,
			"byteOffset":4120,
			"target":34962
		},
		{
			"buffer":0,
			"byteLength":864,
			"byteOffset":5416,
			"target":34962
		},
		{
			"buffer":0,
			"byteLength":504,
			"byteOffset":6280,
			"target":34963
		},
		{
			"buffer":0,
			"byteLength":384,
			"byteOffset":6784,
			"target":34962
		},
		{
			"buffer":0,
			"byteLength":384,
			"byteOffset":7168,
			"target":34962
		},
		{
			"buffer":0,
			"byteLength":256,
			"byteOffset":7552,
			"target":34962
		},
		{
			"buffer":0,
			"byteLength":108,
			"byteOffset":7808,
			"target":34963
		}
	],
	"samplers":[
		{
			"magFilter":9729,
			"minFilter":9987
		}
	],
	"buffers":[
		{
			"byteLength":7916,
			"uri":"mountain_halframp.bin"
		}
	]
}
