{
    "asset" : {
        "generator" : "Khronos glTF Blender I/O v1.6.16",
        "version" : "2.0"
    },
    "scene" : 1,
    "scenes" : [
        {
            "name" : "Ball"
        },
        {
            "name" : "Parts",
            "nodes" : [
                0,
                1,
                2
            ]
        }
    ],
    "nodes" : [
        {
            "mesh" : 0,
            "name" : "PartBigHalfCurveLowPoly_wood_glb"
        },
        {
            "mesh" : 1,
            "name" : "PartBigHalfCurveLowPoly_grass_glb"
        },
        {
            "mesh" : 2,
            "name" : "PartBigHalfCurveLowPoly_collider"
        }
    ],
    "materials" : [
        {
            "doubleSided" : true,
            "name" : "Wood",
            "pbrMetallicRoughness" : {
                "baseColorTexture" : {
                    "index" : 0
                },
                "metallicFactor" : 0,
                "roughnessFactor" : 0.9318181872367859
            }
        },
        {
            "doubleSided" : true,
            "name" : "Grass",
            "pbrMetallicRoughness" : {
                "baseColorTexture" : {
                    "index" : 1
                },
                "metallicFactor" : 0,
                "roughnessFactor" : 0.7227272987365723
            }
        }
    ],
    "meshes" : [
        {
            "name" : "wood_bigcurve_glb.015",
            "primitives" : [
                {
                    "attributes" : {
                        "POSITION" : 0,
                        "NORMAL" : 1,
                        "TEXCOORD_0" : 2
                    },
                    "indices" : 3,
                    "material" : 0
                }
            ]
        },
        {
            "name" : "grass_bigcurve_glb.013",
            "primitives" : [
                {
                    "attributes" : {
                        "POSITION" : 4,
                        "NORMAL" : 5,
                        "TEXCOORD_0" : 6
                    },
                    "indices" : 7,
                    "material" : 1
                }
            ]
        },
        {
            "name" : "grass_bigcurve_glb.015",
            "primitives" : [
                {
                    "attributes" : {
                        "POSITION" : 8,
                        "NORMAL" : 9,
                        "TEXCOORD_0" : 10
                    },
                    "indices" : 7
                }
            ]
        }
    ],
    "textures" : [
        {
            "sampler" : 0,
            "source" : 0
        },
        {
            "sampler" : 0,
            "source" : 1
        }
    ],
    "images" : [
        {
            "mimeType" : "image/jpeg",
            "name" : "planksDark_BC",
            "uri" : "textures/planksDark_BC.jpg"
        },
        {
            "mimeType" : "image/jpeg",
            "name" : "Grass",
            "uri" : "textures/Grass.jpg"
        }
    ],
    "accessors" : [
        {
            "bufferView" : 0,
            "componentType" : 5126,
            "count" : 284,
            "max" : [
                6.503280162811279,
                0.7500001192092896,
                2.000000476837158
            ],
            "min" : [
                -2.000001907348633,
                -2.384185791015625e-07,
                -6.3596062660217285
            ],
            "type" : "VEC3"
        },
        {
            "bufferView" : 1,
            "componentType" : 5126,
            "count" : 284,
            "type" : "VEC3"
        },
        {
            "bufferView" : 2,
            "componentType" : 5126,
            "count" : 284,
            "type" : "VEC2"
        },
        {
            "bufferView" : 3,
            "componentType" : 5123,
            "count" : 408,
            "type" : "SCALAR"
        },
        {
            "bufferView" : 4,
            "componentType" : 5126,
            "count" : 40,
            "max" : [
                6.503280162811279,
                0.5000001192092896,
                2
            ],
            "min" : [
                -1.9999995231628418,
                0.49999913573265076,
                -6.362756729125977
            ],
            "type" : "VEC3"
        },
        {
            "bufferView" : 5,
            "componentType" : 5126,
            "count" : 40,
            "type" : "VEC3"
        },
        {
            "bufferView" : 6,
            "componentType" : 5126,
            "count" : 40,
            "type" : "VEC2"
        },
        {
            "bufferView" : 7,
            "componentType" : 5123,
            "count" : 60,
            "type" : "SCALAR"
        },
        {
            "bufferView" : 8,
            "componentType" : 5126,
            "count" : 40,
            "max" : [
                6.503280162811279,
                0.5000001192092896,
                2
            ],
            "min" : [
                -1.9999995231628418,
                0.49999913573265076,
                -6.362756729125977
            ],
            "type" : "VEC3"
        },
        {
            "bufferView" : 9,
            "componentType" : 5126,
            "count" : 40,
            "type" : "VEC3"
        },
        {
            "bufferView" : 10,
            "componentType" : 5126,
            "count" : 40,
            "type" : "VEC2"
        }
    ],
    "bufferViews" : [
        {
            "buffer" : 0,
            "byteLength" : 3408,
            "byteOffset" : 0
        },
        {
            "buffer" : 0,
            "byteLength" : 3408,
            "byteOffset" : 3408
        },
        {
            "buffer" : 0,
            "byteLength" : 2272,
            "byteOffset" : 6816
        },
        {
            "buffer" : 0,
            "byteLength" : 816,
            "byteOffset" : 9088
        },
        {
            "buffer" : 0,
            "byteLength" : 480,
            "byteOffset" : 9904
        },
        {
            "buffer" : 0,
            "byteLength" : 480,
            "byteOffset" : 10384
        },
        {
            "buffer" : 0,
            "byteLength" : 320,
            "byteOffset" : 10864
        },
        {
            "buffer" : 0,
            "byteLength" : 120,
            "byteOffset" : 11184
        },
        {
            "buffer" : 0,
            "byteLength" : 480,
            "byteOffset" : 11304
        },
        {
            "buffer" : 0,
            "byteLength" : 480,
            "byteOffset" : 11784
        },
        {
            "buffer" : 0,
            "byteLength" : 320,
            "byteOffset" : 12264
        }
    ],
    "samplers" : [
        {
            "magFilter" : 9729,
            "minFilter" : 9987
        }
    ],
    "buffers" : [
        {
            "byteLength" : 12584,
            "uri" : "PartBigHalfCurveFlatLowPoly.bin"
        }
    ]
}
   