{
    "asset" : {
        "generator" : "Khronos glTF Blender I/O v1.7.33",
        "version" : "2.0"
    },
    "scene" : 1,
    "scenes" : [
        {
            "name" : "Ball"
        },
        {
            "name" : "Parts",
            "nodes" : [
                0,
                1,
                2
            ]
        }
    ],
    "nodes" : [
        {
            "mesh" : 0,
            "name" : "PartCurves_collider"
        },
        {
            "mesh" : 1,
            "name" : "PartCurves_wood_glb"
        },
        {
            "mesh" : 2,
            "name" : "PartCurves_grass_glb"
        }
    ],
    "materials" : [
        {
            "doubleSided" : true,
            "name" : "Wood",
            "pbrMetallicRoughness" : {
                "baseColorTexture" : {
                    "index" : 0
                },
                "metallicFactor" : 0,
                "roughnessFactor" : 0.9318181872367859
            }
        },
        {
            "doubleSided" : true,
            "name" : "Grass",
            "pbrMetallicRoughness" : {
                "baseColorTexture" : {
                    "index" : 1
                },
                "metallicFactor" : 0,
                "roughnessFactor" : 0.7227272987365723
            }
        }
    ],
    "meshes" : [
        {
            "name" : "grass_curves_collider",
            "primitives" : [
                {
                    "attributes" : {
                        "POSITION" : 0,
                        "NORMAL" : 1
                    },
                    "indices" : 2
                }
            ]
        },
        {
            "name" : "wood_curves_glb",
            "primitives" : [
                {
                    "attributes" : {
                        "POSITION" : 3,
                        "NORMAL" : 4,
                        "TEXCOORD_0" : 5
                    },
                    "indices" : 6,
                    "material" : 0
                }
            ]
        },
        {
            "name" : "grass_curves_glb",
            "primitives" : [
                {
                    "attributes" : {
                        "POSITION" : 7,
                        "NORMAL" : 8,
                        "TEXCOORD_0" : 9
                    },
                    "indices" : 2,
                    "material" : 1
                }
            ]
        }
    ],
    "textures" : [
        {
            "sampler" : 0,
            "source" : 0
        },
        {
            "sampler" : 0,
            "source" : 1
        }
    ],
    "images" : [
        {
            "mimeType" : "image/jpeg",
            "name" : "planksDark_BC",
            "uri" : "textures/planksDark_BC.jpg"
        },
        {
            "mimeType" : "image/jpeg",
            "name" : "Grass",
            "uri" : "textures/Grass.jpg"
        }
    ],
    "accessors" : [
        {
            "bufferView" : 0,
            "componentType" : 5126,
            "count" : 160,
            "max" : [
                2.484851598739624,
                0.5000000596046448,
                2.000000238418579
            ],
            "min" : [
                -2.5818746089935303,
                0.5,
                -18.000001907348633
            ],
            "type" : "VEC3"
        },
        {
            "bufferView" : 1,
            "componentType" : 5126,
            "count" : 160,
            "type" : "VEC3"
        },
        {
            "bufferView" : 2,
            "componentType" : 5123,
            "count" : 240,
            "type" : "SCALAR"
        },
        {
            "bufferView" : 3,
            "componentType" : 5126,
            "count" : 874,
            "max" : [
                2.4848954677581787,
                0.7500001192092896,
                2
            ],
            "min" : [
                -2.5818746089935303,
                0,
                -18
            ],
            "type" : "VEC3"
        },
        {
            "bufferView" : 4,
            "componentType" : 5126,
            "count" : 874,
            "type" : "VEC3"
        },
        {
            "bufferView" : 5,
            "componentType" : 5126,
            "count" : 874,
            "type" : "VEC2"
        },
        {
            "bufferView" : 6,
            "componentType" : 5123,
            "count" : 1500,
            "type" : "SCALAR"
        },
        {
            "bufferView" : 7,
            "componentType" : 5126,
            "count" : 160,
            "max" : [
                2.484851598739624,
                0.5000000596046448,
                2.000000238418579
            ],
            "min" : [
                -2.5818746089935303,
                0.5,
                -18.000001907348633
            ],
            "type" : "VEC3"
        },
        {
            "bufferView" : 8,
            "componentType" : 5126,
            "count" : 160,
            "type" : "VEC3"
        },
        {
            "bufferView" : 9,
            "componentType" : 5126,
            "count" : 160,
            "type" : "VEC2"
        }
    ],
    "bufferViews" : [
        {
            "buffer" : 0,
            "byteLength" : 1920,
            "byteOffset" : 0
        },
        {
            "buffer" : 0,
            "byteLength" : 1920,
            "byteOffset" : 1920
        },
        {
            "buffer" : 0,
            "byteLength" : 480,
            "byteOffset" : 3840
        },
        {
            "buffer" : 0,
            "byteLength" : 10488,
            "byteOffset" : 4320
        },
        {
            "buffer" : 0,
            "byteLength" : 10488,
            "byteOffset" : 14808
        },
        {
            "buffer" : 0,
            "byteLength" : 6992,
            "byteOffset" : 25296
        },
        {
            "buffer" : 0,
            "byteLength" : 3000,
            "byteOffset" : 32288
        },
        {
            "buffer" : 0,
            "byteLength" : 1920,
            "byteOffset" : 35288
        },
        {
            "buffer" : 0,
            "byteLength" : 1920,
            "byteOffset" : 37208
        },
        {
            "buffer" : 0,
            "byteLength" : 1280,
            "byteOffset" : 39128
        }
    ],
    "samplers" : [
        {
            "magFilter" : 9729,
            "minFilter" : 9987
        }
    ],
    "buffers" : [
        {
            "byteLength" : 40408,
            "uri" : "PartCurves.bin"
        }
    ]
}
   