{
    "asset" : {
        "generator" : "Khronos glTF Blender I/O v1.7.33",
        "version" : "2.0"
    },
    "scene" : 1,
    "scenes" : [
        {
            "name" : "Ball"
        },
        {
            "name" : "Parts",
            "nodes" : [
                0,
                1
            ]
        }
    ],
    "nodes" : [
        {
            "mesh" : 0,
            "name" : "PartBigCurveB_glb"
        },
        {
            "mesh" : 1,
            "name" : "PartBigCurveB_collider"
        }
    ],
    "materials" : [
        {
            "doubleSided" : true,
            "name" : "Wood",
            "pbrMetallicRoughness" : {
                "baseColorTexture" : {
                    "index" : 0
                },
                "metallicFactor" : 0,
                "roughnessFactor" : 0.9318181872367859
            }
        },
        {
            "doubleSided" : true,
            "name" : "Grass",
            "pbrMetallicRoughness" : {
                "baseColorTexture" : {
                    "index" : 1
                },
                "metallicFactor" : 0,
                "roughnessFactor" : 0.7227272987365723
            }
        }
    ],
    "meshes" : [
        {
            "name" : "wood_bigcurve_glb.004",
            "primitives" : [
                {
                    "attributes" : {
                        "POSITION" : 0,
                        "NORMAL" : 1,
                        "TEXCOORD_0" : 2
                    },
                    "indices" : 3,
                    "material" : 0
                },
                {
                    "attributes" : {
                        "POSITION" : 4,
                        "NORMAL" : 5,
                        "TEXCOORD_0" : 6
                    },
                    "indices" : 7,
                    "material" : 1
                }
            ]
        },
        {
            "name" : "wood_bigcurve_glb.007",
            "primitives" : [
                {
                    "attributes" : {
                        "POSITION" : 8,
                        "NORMAL" : 9,
                        "TEXCOORD_0" : 10
                    },
                    "indices" : 11
                }
            ]
        }
    ],
    "textures" : [
        {
            "sampler" : 0,
            "source" : 0
        },
        {
            "sampler" : 0,
            "source" : 1
        }
    ],
    "images" : [
        {
            "mimeType" : "image/jpeg",
            "name" : "planksDark_BC",
            "uri" : "textures/planksDark_BC.jpg"
        },
        {
            "mimeType" : "image/jpeg",
            "name" : "Grass",
            "uri" : "textures/Grass.jpg"
        }
    ],
    "accessors" : [
        {
            "bufferView" : 0,
            "componentType" : 5126,
            "count" : 2032,
            "max" : [
                14.300233840942383,
                9.247570991516113,
                10.149415016174316
            ],
            "min" : [
                -2.001352310180664,
                2.4080276489257812e-05,
                -6.148263931274414
            ],
            "type" : "VEC3"
        },
        {
            "bufferView" : 1,
            "componentType" : 5126,
            "count" : 2032,
            "type" : "VEC3"
        },
        {
            "bufferView" : 2,
            "componentType" : 5126,
            "count" : 2032,
            "type" : "VEC2"
        },
        {
            "bufferView" : 3,
            "componentType" : 5123,
            "count" : 3000,
            "type" : "SCALAR"
        },
        {
            "bufferView" : 4,
            "componentType" : 5126,
            "count" : 320,
            "max" : [
                14.300052642822266,
                9.02399730682373,
                10.150120735168457
            ],
            "min" : [
                -2.000077486038208,
                0.5000240802764893,
                -6.146846771240234
            ],
            "type" : "VEC3"
        },
        {
            "bufferView" : 5,
            "componentType" : 5126,
            "count" : 320,
            "type" : "VEC3"
        },
        {
            "bufferView" : 6,
            "componentType" : 5126,
            "count" : 320,
            "type" : "VEC2"
        },
        {
            "bufferView" : 7,
            "componentType" : 5123,
            "count" : 480,
            "type" : "SCALAR"
        },
        {
            "bufferView" : 8,
            "componentType" : 5126,
            "count" : 320,
            "max" : [
                14.300052642822266,
                9.02399730682373,
                10.150120735168457
            ],
            "min" : [
                -2.000077486038208,
                0.5000240802764893,
                -6.146846771240234
            ],
            "type" : "VEC3"
        },
        {
            "bufferView" : 9,
            "componentType" : 5126,
            "count" : 320,
            "type" : "VEC3"
        },
        {
            "bufferView" : 10,
            "componentType" : 5126,
            "count" : 320,
            "type" : "VEC2"
        },
        {
            "bufferView" : 11,
            "componentType" : 5123,
            "count" : 480,
            "type" : "SCALAR"
        }
    ],
    "bufferViews" : [
        {
            "buffer" : 0,
            "byteLength" : 24384,
            "byteOffset" : 0
        },
        {
            "buffer" : 0,
            "byteLength" : 24384,
            "byteOffset" : 24384
        },
        {
            "buffer" : 0,
            "byteLength" : 16256,
            "byteOffset" : 48768
        },
        {
            "buffer" : 0,
            "byteLength" : 6000,
            "byteOffset" : 65024
        },
        {
            "buffer" : 0,
            "byteLength" : 3840,
            "byteOffset" : 71024
        },
        {
            "buffer" : 0,
            "byteLength" : 3840,
            "byteOffset" : 74864
        },
        {
            "buffer" : 0,
            "byteLength" : 2560,
            "byteOffset" : 78704
        },
        {
            "buffer" : 0,
            "byteLength" : 960,
            "byteOffset" : 81264
        },
        {
            "buffer" : 0,
            "byteLength" : 3840,
            "byteOffset" : 82224
        },
        {
            "buffer" : 0,
            "byteLength" : 3840,
            "byteOffset" : 86064
        },
        {
            "buffer" : 0,
            "byteLength" : 2560,
            "byteOffset" : 89904
        },
        {
            "buffer" : 0,
            "byteLength" : 960,
            "byteOffset" : 92464
        }
    ],
    "samplers" : [
        {
            "magFilter" : 9729,
            "minFilter" : 9987
        }
    ],
    "buffers" : [
        {
            "byteLength" : 93424,
            "uri" : "PartBigCurveB.bin"
        }
    ]
}
   