{
    "asset" : {
        "generator" : "Khronos glTF Blender I/O v1.7.33",
        "version" : "2.0"
    },
    "scene" : 1,
    "scenes" : [
        {
            "name" : "Ball"
        },
        {
            "name" : "Parts",
            "nodes" : [
                0,
                1,
                2,
                4
            ]
        }
    ],
    "nodes" : [
        {
            "mesh" : 0,
            "name" : "Part3_collider"
        },
        {
            "mesh" : 1,
            "name" : "Part3_grass_glb"
        },
        {
            "mesh" : 2,
            "name" : "Part3_wood_0001_glb"
        },
        {
            "name" : "Bone",
            "rotation" : [
                0,
                0,
                1,
                0
            ],
            "scale" : [
                0,
                0,
                0
            ]
        },
        {
            "children" : [
                3
            ],
            "name" : "LandMine_Armature_glb"
        }
    ],
    "animations" : [
        {
            "channels" : [
                {
                    "sampler" : 0,
                    "target" : {
                        "node" : 3,
                        "path" : "translation"
                    }
                },
                {
                    "sampler" : 1,
                    "target" : {
                        "node" : 3,
                        "path" : "rotation"
                    }
                },
                {
                    "sampler" : 2,
                    "target" : {
                        "node" : 3,
                        "path" : "scale"
                    }
                }
            ],
            "name" : "action",
            "samplers" : [
                {
                    "input" : 11,
                    "interpolation" : "LINEAR",
                    "output" : 12
                },
                {
                    "input" : 11,
                    "interpolation" : "LINEAR",
                    "output" : 13
                },
                {
                    "input" : 11,
                    "interpolation" : "LINEAR",
                    "output" : 14
                }
            ]
        },
        {
            "channels" : [
                {
                    "sampler" : 0,
                    "target" : {
                        "node" : 3,
                        "path" : "translation"
                    }
                },
                {
                    "sampler" : 1,
                    "target" : {
                        "node" : 3,
                        "path" : "rotation"
                    }
                },
                {
                    "sampler" : 2,
                    "target" : {
                        "node" : 3,
                        "path" : "scale"
                    }
                }
            ],
            "name" : "idle",
            "samplers" : [
                {
                    "input" : 15,
                    "interpolation" : "LINEAR",
                    "output" : 16
                },
                {
                    "input" : 15,
                    "interpolation" : "LINEAR",
                    "output" : 17
                },
                {
                    "input" : 15,
                    "interpolation" : "LINEAR",
                    "output" : 18
                }
            ]
        }
    ],
    "materials" : [
        {
            "doubleSided" : true,
            "name" : "Grass",
            "pbrMetallicRoughness" : {
                "baseColorTexture" : {
                    "index" : 0
                },
                "metallicFactor" : 0,
                "roughnessFactor" : 0.7227272987365723
            }
        },
        {
            "doubleSided" : true,
            "name" : "Wood",
            "pbrMetallicRoughness" : {
                "baseColorTexture" : {
                    "index" : 1
                },
                "metallicFactor" : 0,
                "roughnessFactor" : 0.9318181872367859
            }
        }
    ],
    "meshes" : [
        {
            "name" : "grass_collider",
            "primitives" : [
                {
                    "attributes" : {
                        "POSITION" : 0,
                        "NORMAL" : 1
                    },
                    "indices" : 2,
                    "material" : 0
                }
            ]
        },
        {
            "name" : "grass_glb",
            "primitives" : [
                {
                    "attributes" : {
                        "POSITION" : 3,
                        "NORMAL" : 4,
                        "TEXCOORD_0" : 5
                    },
                    "indices" : 6,
                    "material" : 0
                }
            ]
        },
        {
            "name" : "wood_0001_glb",
            "primitives" : [
                {
                    "attributes" : {
                        "POSITION" : 7,
                        "NORMAL" : 8,
                        "TEXCOORD_0" : 9
                    },
                    "indices" : 10,
                    "material" : 1
                }
            ]
        }
    ],
    "textures" : [
        {
            "sampler" : 0,
            "source" : 0
        },
        {
            "sampler" : 0,
            "source" : 1
        }
    ],
    "images" : [
        {
            "mimeType" : "image/jpeg",
            "name" : "Grass",
            "uri" : "textures/Grass.jpg"
        },
        {
            "mimeType" : "image/jpeg",
            "name" : "planksDark_BC",
            "uri" : "textures/planksDark_BC.jpg"
        }
    ],
    "accessors" : [
        {
            "bufferView" : 0,
            "componentType" : 5126,
            "count" : 6,
            "max" : [
                2,
                0.5000000596046448,
                2.000000238418579
            ],
            "min" : [
                -2,
                0.5,
                -2.000000238418579
            ],
            "type" : "VEC3"
        },
        {
            "bufferView" : 1,
            "componentType" : 5126,
            "count" : 6,
            "type" : "VEC3"
        },
        {
            "bufferView" : 2,
            "componentType" : 5123,
            "count" : 6,
            "type" : "SCALAR"
        },
        {
            "bufferView" : 3,
            "componentType" : 5126,
            "count" : 4,
            "max" : [
                1.9999560117721558,
                0.5000000596046448,
                2.000000238418579
            ],
            "min" : [
                -2,
                0.5,
                -2.000000238418579
            ],
            "type" : "VEC3"
        },
        {
            "bufferView" : 4,
            "componentType" : 5126,
            "count" : 4,
            "type" : "VEC3"
        },
        {
            "bufferView" : 5,
            "componentType" : 5126,
            "count" : 4,
            "type" : "VEC2"
        },
        {
            "bufferView" : 6,
            "componentType" : 5123,
            "count" : 6,
            "type" : "SCALAR"
        },
        {
            "bufferView" : 7,
            "componentType" : 5126,
            "count" : 40,
            "max" : [
                2,
                0.75,
                2.000000238418579
            ],
            "min" : [
                -2.000000238418579,
                0,
                -2.000000238418579
            ],
            "type" : "VEC3"
        },
        {
            "bufferView" : 8,
            "componentType" : 5126,
            "count" : 40,
            "type" : "VEC3"
        },
        {
            "bufferView" : 9,
            "componentType" : 5126,
            "count" : 40,
            "type" : "VEC2"
        },
        {
            "bufferView" : 10,
            "componentType" : 5123,
            "count" : 54,
            "type" : "SCALAR"
        },
        {
            "bufferView" : 11,
            "componentType" : 5126,
            "count" : 2,
            "max" : [
                0.3333333333333333
            ],
            "min" : [
                0.016666666666666666
            ],
            "type" : "SCALAR"
        },
        {
            "bufferView" : 12,
            "componentType" : 5126,
            "count" : 2,
            "type" : "VEC3"
        },
        {
            "bufferView" : 13,
            "componentType" : 5126,
            "count" : 2,
            "type" : "VEC4"
        },
        {
            "bufferView" : 14,
            "componentType" : 5126,
            "count" : 2,
            "type" : "VEC3"
        },
        {
            "bufferView" : 15,
            "componentType" : 5126,
            "count" : 1,
            "max" : [
                0.016666666666666666
            ],
            "min" : [
                0.016666666666666666
            ],
            "type" : "SCALAR"
        },
        {
            "bufferView" : 16,
            "componentType" : 5126,
            "count" : 1,
            "type" : "VEC3"
        },
        {
            "bufferView" : 17,
            "componentType" : 5126,
            "count" : 1,
            "type" : "VEC4"
        },
        {
            "bufferView" : 18,
            "componentType" : 5126,
            "count" : 1,
            "type" : "VEC3"
        }
    ],
    "bufferViews" : [
        {
            "buffer" : 0,
            "byteLength" : 72,
            "byteOffset" : 0
        },
        {
            "buffer" : 0,
            "byteLength" : 72,
            "byteOffset" : 72
        },
        {
            "buffer" : 0,
            "byteLength" : 12,
            "byteOffset" : 144
        },
        {
            "buffer" : 0,
            "byteLength" : 48,
            "byteOffset" : 156
        },
        {
            "buffer" : 0,
            "byteLength" : 48,
            "byteOffset" : 204
        },
        {
            "buffer" : 0,
            "byteLength" : 32,
            "byteOffset" : 252
        },
        {
            "buffer" : 0,
            "byteLength" : 12,
            "byteOffset" : 284
        },
        {
            "buffer" : 0,
            "byteLength" : 480,
            "byteOffset" : 296
        },
        {
            "buffer" : 0,
            "byteLength" : 480,
            "byteOffset" : 776
        },
        {
            "buffer" : 0,
            "byteLength" : 320,
            "byteOffset" : 1256
        },
        {
            "buffer" : 0,
            "byteLength" : 108,
            "byteOffset" : 1576
        },
        {
            "buffer" : 0,
            "byteLength" : 8,
            "byteOffset" : 1684
        },
        {
            "buffer" : 0,
            "byteLength" : 24,
            "byteOffset" : 1692
        },
        {
            "buffer" : 0,
            "byteLength" : 32,
            "byteOffset" : 1716
        },
        {
            "buffer" : 0,
            "byteLength" : 24,
            "byteOffset" : 1748
        },
        {
            "buffer" : 0,
            "byteLength" : 4,
            "byteOffset" : 1772
        },
        {
            "buffer" : 0,
            "byteLength" : 12,
            "byteOffset" : 1776
        },
        {
            "buffer" : 0,
            "byteLength" : 16,
            "byteOffset" : 1788
        },
        {
            "buffer" : 0,
            "byteLength" : 12,
            "byteOffset" : 1804
        }
    ],
    "samplers" : [
        {
            "magFilter" : 9729,
            "minFilter" : 9987
        }
    ],
    "buffers" : [
        {
            "byteLength" : 1816,
            "uri" : "Part3.bin"
        }
    ]
}
   