{
    "asset" : {
        "generator" : "Khronos glTF Blender I/O v1.7.33",
        "version" : "2.0"
    },
    "scene" : 1,
    "scenes" : [
        {
            "name" : "Ball"
        },
        {
            "name" : "Parts",
            "nodes" : [
                0,
                1,
                7,
                13
            ]
        }
    ],
    "nodes" : [
        {
            "mesh" : 0,
            "name" : "Part2_collider"
        },
        {
            "mesh" : 1,
            "name" : "Part2_glb"
        },
        {
            "name" : "Bone.001",
            "rotation" : [
                -0.030000215396285057,
                5.8233879940416955e-09,
                7.453937023171875e-09,
                0.9995499849319458
            ],
            "scale" : [
                1.0000001192092896,
                1,
                1.0000001192092896
            ]
        },
        {
            "children" : [
                2
            ],
            "name" : "Bone.003",
            "rotation" : [
                0.4419383108615875,
                0.30398425459861755,
                0.7169755697250366,
                0.4452304244041443
            ],
            "scale" : [
                1.0000001192092896,
                1.000000238418579,
                1.0000001192092896
            ]
        },
        {
            "name" : "Bone.002",
            "rotation" : [
                -0.03000020980834961,
                0,
                2.220757069160633e-16,
                0.9995499849319458
            ]
        },
        {
            "name" : "Bone",
            "rotation" : [
                -0.030000200495123863,
                0,
                1.490787049363007e-08,
                0.999549925327301
            ]
        },
        {
            "children" : [
                5
            ],
            "name" : "Bone.004",
            "rotation" : [
                0.341170996427536,
                -0.6073963642120361,
                -0.23349636793136597,
                0.6783447265625
            ]
        },
        {
            "children" : [
                3,
                4,
                6
            ],
            "name" : "MagnetArmature"
        },
        {
            "name" : "Bone.001",
            "rotation" : [
                -0.030000215396285057,
                5.8233879940416955e-09,
                7.453937023171875e-09,
                0.9995499849319458
            ],
            "scale" : [
                1.0000001192092896,
                1,
                1.0000001192092896
            ]
        },
        {
            "children" : [
                8
            ],
            "name" : "Bone.003",
            "rotation" : [
                0.4419383108615875,
                0.30398425459861755,
                0.7169755697250366,
                0.4452304244041443
            ],
            "scale" : [
                1.0000001192092896,
                1.000000238418579,
                1.0000001192092896
            ]
        },
        {
            "name" : "Bone.002",
            "rotation" : [
                -0.03000020980834961,
                0,
                2.220757069160633e-16,
                0.9995499849319458
            ]
        },
        {
            "name" : "Bone",
            "rotation" : [
                -0.030000200495123863,
                0,
                1.490787049363007e-08,
                0.999549925327301
            ]
        },
        {
            "children" : [
                11
            ],
            "name" : "Bone.004",
            "rotation" : [
                0.341170996427536,
                -0.6073963642120361,
                -0.23349636793136597,
                0.6783447265625
            ]
        },
        {
            "children" : [
                9,
                10,
                12
            ],
            "name" : "MagnetArmature.001"
        }
    ],
    "materials" : [
        {
            "doubleSided" : true,
            "name" : "Wood",
            "pbrMetallicRoughness" : {
                "baseColorTexture" : {
                    "index" : 0
                },
                "metallicFactor" : 0,
                "roughnessFactor" : 0.9318181872367859
            }
        },
        {
            "doubleSided" : true,
            "name" : "Grass",
            "pbrMetallicRoughness" : {
                "baseColorTexture" : {
                    "index" : 1
                },
                "metallicFactor" : 0,
                "roughnessFactor" : 0.7227272987365723
            }
        }
    ],
    "meshes" : [
        {
            "name" : "ID3.003",
            "primitives" : [
                {
                    "attributes" : {
                        "POSITION" : 0,
                        "NORMAL" : 1
                    },
                    "indices" : 2
                }
            ]
        },
        {
            "name" : "ID3.005",
            "primitives" : [
                {
                    "attributes" : {
                        "POSITION" : 3,
                        "NORMAL" : 4,
                        "TEXCOORD_0" : 5
                    },
                    "indices" : 6,
                    "material" : 0
                },
                {
                    "attributes" : {
                        "POSITION" : 7,
                        "NORMAL" : 8,
                        "TEXCOORD_0" : 9
                    },
                    "indices" : 10,
                    "material" : 1
                }
            ]
        }
    ],
    "textures" : [
        {
            "sampler" : 0,
            "source" : 0
        },
        {
            "sampler" : 0,
            "source" : 1
        }
    ],
    "images" : [
        {
            "mimeType" : "image/jpeg",
            "name" : "planksDark_BC",
            "uri" : "textures/planksDark_BC.jpg"
        },
        {
            "mimeType" : "image/jpeg",
            "name" : "Grass",
            "uri" : "textures/Grass.jpg"
        }
    ],
    "accessors" : [
        {
            "bufferView" : 0,
            "componentType" : 5126,
            "count" : 6,
            "max" : [
                1.7500001192092896,
                0.5000000596046448,
                2.000000238418579
            ],
            "min" : [
                -1.7500001192092896,
                0.5,
                -2.000000238418579
            ],
            "type" : "VEC3"
        },
        {
            "bufferView" : 1,
            "componentType" : 5126,
            "count" : 6,
            "type" : "VEC3"
        },
        {
            "bufferView" : 2,
            "componentType" : 5123,
            "count" : 6,
            "type" : "SCALAR"
        },
        {
            "bufferView" : 3,
            "componentType" : 5126,
            "count" : 58,
            "max" : [
                2,
                0.75,
                2.000000238418579
            ],
            "min" : [
                -2.000000238418579,
                0,
                -2.000000238418579
            ],
            "type" : "VEC3"
        },
        {
            "bufferView" : 4,
            "componentType" : 5126,
            "count" : 58,
            "type" : "VEC3"
        },
        {
            "bufferView" : 5,
            "componentType" : 5126,
            "count" : 58,
            "type" : "VEC2"
        },
        {
            "bufferView" : 6,
            "componentType" : 5123,
            "count" : 78,
            "type" : "SCALAR"
        },
        {
            "bufferView" : 7,
            "componentType" : 5126,
            "count" : 4,
            "max" : [
                1.7500001192092896,
                0.5000000596046448,
                2.000000238418579
            ],
            "min" : [
                -1.7500001192092896,
                0.5,
                -2.000000238418579
            ],
            "type" : "VEC3"
        },
        {
            "bufferView" : 8,
            "componentType" : 5126,
            "count" : 4,
            "type" : "VEC3"
        },
        {
            "bufferView" : 9,
            "componentType" : 5126,
            "count" : 4,
            "type" : "VEC2"
        },
        {
            "bufferView" : 10,
            "componentType" : 5123,
            "count" : 6,
            "type" : "SCALAR"
        }
    ],
    "bufferViews" : [
        {
            "buffer" : 0,
            "byteLength" : 72,
            "byteOffset" : 0
        },
        {
            "buffer" : 0,
            "byteLength" : 72,
            "byteOffset" : 72
        },
        {
            "buffer" : 0,
            "byteLength" : 12,
            "byteOffset" : 144
        },
        {
            "buffer" : 0,
            "byteLength" : 696,
            "byteOffset" : 156
        },
        {
            "buffer" : 0,
            "byteLength" : 696,
            "byteOffset" : 852
        },
        {
            "buffer" : 0,
            "byteLength" : 464,
            "byteOffset" : 1548
        },
        {
            "buffer" : 0,
            "byteLength" : 156,
            "byteOffset" : 2012
        },
        {
            "buffer" : 0,
            "byteLength" : 48,
            "byteOffset" : 2168
        },
        {
            "buffer" : 0,
            "byteLength" : 48,
            "byteOffset" : 2216
        },
        {
            "buffer" : 0,
            "byteLength" : 32,
            "byteOffset" : 2264
        },
        {
            "buffer" : 0,
            "byteLength" : 12,
            "byteOffset" : 2296
        }
    ],
    "samplers" : [
        {
            "magFilter" : 9729,
            "minFilter" : 9987
        }
    ],
    "buffers" : [
        {
            "byteLength" : 2308,
            "uri" : "Part2.bin"
        }
    ]
}
   