{
    "asset" : {
        "generator" : "Khronos glTF Blender I/O v1.7.33",
        "version" : "2.0"
    },
    "scene" : 1,
    "scenes" : [
        {
            "name" : "Ball"
        },
        {
            "name" : "Parts",
            "nodes" : [
                0,
                1,
                7
            ]
        }
    ],
    "nodes" : [
        {
            "mesh" : 0,
            "name" : "Part2_dpath_glb"
        },
        {
            "mesh" : 1,
            "name" : "Part2_dpath_collider"
        },
        {
            "name" : "Bone.001",
            "rotation" : [
                -0.030000215396285057,
                5.8233879940416955e-09,
                7.453937023171875e-09,
                0.9995499849319458
            ],
            "scale" : [
                1.0000001192092896,
                1,
                1.0000001192092896
            ]
        },
        {
            "children" : [
                2
            ],
            "name" : "Bone.003",
            "rotation" : [
                0.4419383108615875,
                0.30398425459861755,
                0.7169755697250366,
                0.4452304244041443
            ],
            "scale" : [
                1.0000001192092896,
                1.000000238418579,
                1.0000001192092896
            ]
        },
        {
            "name" : "Bone.002",
            "rotation" : [
                -0.03000020980834961,
                0,
                2.220757069160633e-16,
                0.9995499849319458
            ]
        },
        {
            "name" : "Bone",
            "rotation" : [
                -0.030000200495123863,
                0,
                1.490787049363007e-08,
                0.999549925327301
            ]
        },
        {
            "children" : [
                5
            ],
            "name" : "Bone.004",
            "rotation" : [
                0.341170996427536,
                -0.6073963642120361,
                -0.23349636793136597,
                0.6783447265625
            ]
        },
        {
            "children" : [
                3,
                4,
                6
            ],
            "name" : "MagnetArmature.001"
        }
    ],
    "materials" : [
        {
            "doubleSided" : true,
            "name" : "Wood",
            "pbrMetallicRoughness" : {
                "baseColorTexture" : {
                    "index" : 0
                },
                "metallicFactor" : 0,
                "roughnessFactor" : 0.9318181872367859
            }
        },
        {
            "doubleSided" : true,
            "name" : "Grass",
            "pbrMetallicRoughness" : {
                "baseColorTexture" : {
                    "index" : 1
                },
                "metallicFactor" : 0,
                "roughnessFactor" : 0.7227272987365723
            }
        }
    ],
    "meshes" : [
        {
            "name" : "ID3.070",
            "primitives" : [
                {
                    "attributes" : {
                        "POSITION" : 0,
                        "NORMAL" : 1,
                        "TEXCOORD_0" : 2
                    },
                    "indices" : 3,
                    "material" : 0
                },
                {
                    "attributes" : {
                        "POSITION" : 4,
                        "NORMAL" : 5,
                        "TEXCOORD_0" : 6
                    },
                    "indices" : 7,
                    "material" : 1
                }
            ]
        },
        {
            "name" : "ID3.126",
            "primitives" : [
                {
                    "attributes" : {
                        "POSITION" : 8,
                        "NORMAL" : 9,
                        "TEXCOORD_0" : 10
                    },
                    "indices" : 7
                }
            ]
        }
    ],
    "textures" : [
        {
            "sampler" : 0,
            "source" : 0
        },
        {
            "sampler" : 0,
            "source" : 1
        }
    ],
    "images" : [
        {
            "mimeType" : "image/jpeg",
            "name" : "planksDark_BC",
            "uri" : "textures/planksDark_BC.jpg"
        },
        {
            "mimeType" : "image/jpeg",
            "name" : "Grass",
            "uri" : "textures/Grass.jpg"
        }
    ],
    "accessors" : [
        {
            "bufferView" : 0,
            "componentType" : 5126,
            "count" : 96,
            "max" : [
                2,
                0.75,
                2.000000238418579
            ],
            "min" : [
                -2,
                -0.3961695432662964,
                -2.000000238418579
            ],
            "type" : "VEC3"
        },
        {
            "bufferView" : 1,
            "componentType" : 5126,
            "count" : 96,
            "type" : "VEC3"
        },
        {
            "bufferView" : 2,
            "componentType" : 5126,
            "count" : 96,
            "type" : "VEC2"
        },
        {
            "bufferView" : 3,
            "componentType" : 5123,
            "count" : 156,
            "type" : "SCALAR"
        },
        {
            "bufferView" : 4,
            "componentType" : 5126,
            "count" : 16,
            "max" : [
                1.7499998807907104,
                0.4828300476074219,
                2.000000238418579
            ],
            "min" : [
                -1.7500001192092896,
                0.10368338227272034,
                -2.000000238418579
            ],
            "type" : "VEC3"
        },
        {
            "bufferView" : 5,
            "componentType" : 5126,
            "count" : 16,
            "type" : "VEC3"
        },
        {
            "bufferView" : 6,
            "componentType" : 5126,
            "count" : 16,
            "type" : "VEC2"
        },
        {
            "bufferView" : 7,
            "componentType" : 5123,
            "count" : 24,
            "type" : "SCALAR"
        },
        {
            "bufferView" : 8,
            "componentType" : 5126,
            "count" : 16,
            "max" : [
                1.7499998807907104,
                0.4828300476074219,
                2.000000238418579
            ],
            "min" : [
                -1.7500001192092896,
                0.10368338227272034,
                -2.000000238418579
            ],
            "type" : "VEC3"
        },
        {
            "bufferView" : 9,
            "componentType" : 5126,
            "count" : 16,
            "type" : "VEC3"
        },
        {
            "bufferView" : 10,
            "componentType" : 5126,
            "count" : 16,
            "type" : "VEC2"
        }
    ],
    "bufferViews" : [
        {
            "buffer" : 0,
            "byteLength" : 1152,
            "byteOffset" : 0
        },
        {
            "buffer" : 0,
            "byteLength" : 1152,
            "byteOffset" : 1152
        },
        {
            "buffer" : 0,
            "byteLength" : 768,
            "byteOffset" : 2304
        },
        {
            "buffer" : 0,
            "byteLength" : 312,
            "byteOffset" : 3072
        },
        {
            "buffer" : 0,
            "byteLength" : 192,
            "byteOffset" : 3384
        },
        {
            "buffer" : 0,
            "byteLength" : 192,
            "byteOffset" : 3576
        },
        {
            "buffer" : 0,
            "byteLength" : 128,
            "byteOffset" : 3768
        },
        {
            "buffer" : 0,
            "byteLength" : 48,
            "byteOffset" : 3896
        },
        {
            "buffer" : 0,
            "byteLength" : 192,
            "byteOffset" : 3944
        },
        {
            "buffer" : 0,
            "byteLength" : 192,
            "byteOffset" : 4136
        },
        {
            "buffer" : 0,
            "byteLength" : 128,
            "byteOffset" : 4328
        }
    ],
    "samplers" : [
        {
            "magFilter" : 9729,
            "minFilter" : 9987
        }
    ],
    "buffers" : [
        {
            "byteLength" : 4456,
            "uri" : "Part2_dpath.bin"
        }
    ]
}
   