{
    "asset" : {
        "generator" : "Khronos glTF Blender I/O v1.7.33",
        "version" : "2.0"
    },
    "scene" : 1,
    "scenes" : [
        {
            "name" : "Ball"
        },
        {
            "name" : "Parts",
            "nodes" : [
                0,
                1,
                2
            ]
        }
    ],
    "nodes" : [
        {
            "mesh" : 0,
            "name" : "PartBigCurveLowPoly_wood_glb"
        },
        {
            "mesh" : 1,
            "name" : "PartBigCurveLowPoly_grass_glb"
        },
        {
            "mesh" : 2,
            "name" : "PartBigCurveLowPoly_collider"
        }
    ],
    "materials" : [
        {
            "doubleSided" : true,
            "name" : "Wood",
            "pbrMetallicRoughness" : {
                "baseColorTexture" : {
                    "index" : 0
                },
                "metallicFactor" : 0,
                "roughnessFactor" : 0.9318181872367859
            }
        },
        {
            "doubleSided" : true,
            "name" : "Grass",
            "pbrMetallicRoughness" : {
                "baseColorTexture" : {
                    "index" : 1
                },
                "metallicFactor" : 0,
                "roughnessFactor" : 0.7227272987365723
            }
        }
    ],
    "meshes" : [
        {
            "name" : "wood_bigcurve_glb.012",
            "primitives" : [
                {
                    "attributes" : {
                        "POSITION" : 0,
                        "NORMAL" : 1,
                        "TEXCOORD_0" : 2
                    },
                    "indices" : 3,
                    "material" : 0
                }
            ]
        },
        {
            "name" : "grass_bigcurve_glb.009",
            "primitives" : [
                {
                    "attributes" : {
                        "POSITION" : 4,
                        "NORMAL" : 5,
                        "TEXCOORD_0" : 6
                    },
                    "indices" : 7,
                    "material" : 1
                }
            ]
        },
        {
            "name" : "grass_bigcurve_glb.011",
            "primitives" : [
                {
                    "attributes" : {
                        "POSITION" : 8,
                        "NORMAL" : 9,
                        "TEXCOORD_0" : 10
                    },
                    "indices" : 7
                }
            ]
        }
    ],
    "textures" : [
        {
            "sampler" : 0,
            "source" : 0
        },
        {
            "sampler" : 0,
            "source" : 1
        }
    ],
    "images" : [
        {
            "mimeType" : "image/jpeg",
            "name" : "planksDark_BC",
            "uri" : "textures/planksDark_BC.jpg"
        },
        {
            "mimeType" : "image/jpeg",
            "name" : "Grass",
            "uri" : "textures/Grass.jpg"
        }
    ],
    "accessors" : [
        {
            "bufferView" : 0,
            "componentType" : 5126,
            "count" : 558,
            "max" : [
                14.732397079467773,
                0.7500001192092896,
                2.0000007152557373
            ],
            "min" : [
                -2.000001907348633,
                -8.742278509998869e-07,
                -6.353304386138916
            ],
            "type" : "VEC3"
        },
        {
            "bufferView" : 1,
            "componentType" : 5126,
            "count" : 558,
            "type" : "VEC3"
        },
        {
            "bufferView" : 2,
            "componentType" : 5126,
            "count" : 558,
            "type" : "VEC2"
        },
        {
            "bufferView" : 3,
            "componentType" : 5123,
            "count" : 816,
            "type" : "SCALAR"
        },
        {
            "bufferView" : 4,
            "componentType" : 5126,
            "count" : 84,
            "max" : [
                14.73239517211914,
                0.5000001192092896,
                2.0000007152557373
            ],
            "min" : [
                -1.9999995231628418,
                0.49999913573265076,
                -6.353302478790283
            ],
            "type" : "VEC3"
        },
        {
            "bufferView" : 5,
            "componentType" : 5126,
            "count" : 84,
            "type" : "VEC3"
        },
        {
            "bufferView" : 6,
            "componentType" : 5126,
            "count" : 84,
            "type" : "VEC2"
        },
        {
            "bufferView" : 7,
            "componentType" : 5123,
            "count" : 126,
            "type" : "SCALAR"
        },
        {
            "bufferView" : 8,
            "componentType" : 5126,
            "count" : 84,
            "max" : [
                14.73239517211914,
                0.5000001192092896,
                2.0000007152557373
            ],
            "min" : [
                -1.9999995231628418,
                0.49999913573265076,
                -6.353302478790283
            ],
            "type" : "VEC3"
        },
        {
            "bufferView" : 9,
            "componentType" : 5126,
            "count" : 84,
            "type" : "VEC3"
        },
        {
            "bufferView" : 10,
            "componentType" : 5126,
            "count" : 84,
            "type" : "VEC2"
        }
    ],
    "bufferViews" : [
        {
            "buffer" : 0,
            "byteLength" : 6696,
            "byteOffset" : 0
        },
        {
            "buffer" : 0,
            "byteLength" : 6696,
            "byteOffset" : 6696
        },
        {
            "buffer" : 0,
            "byteLength" : 4464,
            "byteOffset" : 13392
        },
        {
            "buffer" : 0,
            "byteLength" : 1632,
            "byteOffset" : 17856
        },
        {
            "buffer" : 0,
            "byteLength" : 1008,
            "byteOffset" : 19488
        },
        {
            "buffer" : 0,
            "byteLength" : 1008,
            "byteOffset" : 20496
        },
        {
            "buffer" : 0,
            "byteLength" : 672,
            "byteOffset" : 21504
        },
        {
            "buffer" : 0,
            "byteLength" : 252,
            "byteOffset" : 22176
        },
        {
            "buffer" : 0,
            "byteLength" : 1008,
            "byteOffset" : 22428
        },
        {
            "buffer" : 0,
            "byteLength" : 1008,
            "byteOffset" : 23436
        },
        {
            "buffer" : 0,
            "byteLength" : 672,
            "byteOffset" : 24444
        }
    ],
    "samplers" : [
        {
            "magFilter" : 9729,
            "minFilter" : 9987
        }
    ],
    "buffers" : [
        {
            "byteLength" : 25116,
            "uri" : "PartBigCurveLowPoly.bin"
        }
    ]
}
   