{
    "asset" : {
        "generator" : "Khronos glTF Blender I/O v1.6.16",
        "version" : "2.0"
    },
    "scene" : 1,
    "scenes" : [
        {
            "name" : "Ball"
        },
        {
            "name" : "Parts",
            "nodes" : [
                0,
                1
            ]
        }
    ],
    "nodes" : [
        {
            "mesh" : 0,
            "name" : "PartBig2Coaster_glb",
            "translation" : [
                0,
                0.11037808656692505,
                0
            ]
        },
        {
            "mesh" : 1,
            "name" : "PartBig2Coaster_collider",
            "translation" : [
                0,
                0.11037808656692505,
                0
            ]
        }
    ],
    "materials" : [
        {
            "doubleSided" : true,
            "name" : "Wood",
            "pbrMetallicRoughness" : {
                "baseColorTexture" : {
                    "index" : 0
                },
                "metallicFactor" : 0,
                "roughnessFactor" : 0.9318181872367859
            }
        },
        {
            "doubleSided" : true,
            "name" : "Grass",
            "pbrMetallicRoughness" : {
                "baseColorTexture" : {
                    "index" : 1
                },
                "metallicFactor" : 0,
                "roughnessFactor" : 0.7227272987365723
            }
        }
    ],
    "meshes" : [
        {
            "name" : "wood_bigcurve_glb.016",
            "primitives" : [
                {
                    "attributes" : {
                        "POSITION" : 0,
                        "NORMAL" : 1,
                        "TEXCOORD_0" : 2
                    },
                    "indices" : 3,
                    "material" : 0
                },
                {
                    "attributes" : {
                        "POSITION" : 4,
                        "NORMAL" : 5,
                        "TEXCOORD_0" : 6
                    },
                    "indices" : 7,
                    "material" : 1
                }
            ]
        },
        {
            "name" : "wood_bigcurve_glb.021",
            "primitives" : [
                {
                    "attributes" : {
                        "POSITION" : 8,
                        "NORMAL" : 9,
                        "TEXCOORD_0" : 10
                    },
                    "indices" : 11
                }
            ]
        }
    ],
    "textures" : [
        {
            "sampler" : 0,
            "source" : 0
        },
        {
            "sampler" : 0,
            "source" : 1
        }
    ],
    "images" : [
        {
            "mimeType" : "image/jpeg",
            "name" : "planksDark_BC",
            "uri" : "textures/planksDark_BC.jpg"
        },
        {
            "mimeType" : "image/jpeg",
            "name" : "Grass",
            "uri" : "textures/Grass.jpg"
        }
    ],
    "accessors" : [
        {
            "bufferView" : 0,
            "componentType" : 5126,
            "count" : 2032,
            "max" : [
                5.147955894470215,
                13.301675796508789,
                8.198098182678223
            ],
            "min" : [
                -2.0098133087158203,
                1.996755599975586e-06,
                -5.209212779998779
            ],
            "type" : "VEC3"
        },
        {
            "bufferView" : 1,
            "componentType" : 5126,
            "count" : 2032,
            "type" : "VEC3"
        },
        {
            "bufferView" : 2,
            "componentType" : 5126,
            "count" : 2032,
            "type" : "VEC2"
        },
        {
            "bufferView" : 3,
            "componentType" : 5123,
            "count" : 3000,
            "type" : "SCALAR"
        },
        {
            "bufferView" : 4,
            "componentType" : 5126,
            "count" : 320,
            "max" : [
                5.138433933258057,
                12.801743507385254,
                7.700246810913086
            ],
            "min" : [
                -2.000159740447998,
                0.5000019073486328,
                -4.711572170257568
            ],
            "type" : "VEC3"
        },
        {
            "bufferView" : 5,
            "componentType" : 5126,
            "count" : 320,
            "type" : "VEC3"
        },
        {
            "bufferView" : 6,
            "componentType" : 5126,
            "count" : 320,
            "type" : "VEC2"
        },
        {
            "bufferView" : 7,
            "componentType" : 5123,
            "count" : 480,
            "type" : "SCALAR"
        },
        {
            "bufferView" : 8,
            "componentType" : 5126,
            "count" : 2352,
            "max" : [
                5.147955894470215,
                13.301675796508789,
                8.198098182678223
            ],
            "min" : [
                -2.0098133087158203,
                1.996755599975586e-06,
                -5.209212779998779
            ],
            "type" : "VEC3"
        },
        {
            "bufferView" : 9,
            "componentType" : 5126,
            "count" : 2352,
            "type" : "VEC3"
        },
        {
            "bufferView" : 10,
            "componentType" : 5126,
            "count" : 2352,
            "type" : "VEC2"
        },
        {
            "bufferView" : 11,
            "componentType" : 5123,
            "count" : 3480,
            "type" : "SCALAR"
        }
    ],
    "bufferViews" : [
        {
            "buffer" : 0,
            "byteLength" : 24384,
            "byteOffset" : 0
        },
        {
            "buffer" : 0,
            "byteLength" : 24384,
            "byteOffset" : 24384
        },
        {
            "buffer" : 0,
            "byteLength" : 16256,
            "byteOffset" : 48768
        },
        {
            "buffer" : 0,
            "byteLength" : 6000,
            "byteOffset" : 65024
        },
        {
            "buffer" : 0,
            "byteLength" : 3840,
            "byteOffset" : 71024
        },
        {
            "buffer" : 0,
            "byteLength" : 3840,
            "byteOffset" : 74864
        },
        {
            "buffer" : 0,
            "byteLength" : 2560,
            "byteOffset" : 78704
        },
        {
            "buffer" : 0,
            "byteLength" : 960,
            "byteOffset" : 81264
        },
        {
            "buffer" : 0,
            "byteLength" : 28224,
            "byteOffset" : 82224
        },
        {
            "buffer" : 0,
            "byteLength" : 28224,
            "byteOffset" : 110448
        },
        {
            "buffer" : 0,
            "byteLength" : 18816,
            "byteOffset" : 138672
        },
        {
            "buffer" : 0,
            "byteLength" : 6960,
            "byteOffset" : 157488
        }
    ],
    "samplers" : [
        {
            "magFilter" : 9729,
            "minFilter" : 9987
        }
    ],
    "buffers" : [
        {
            "byteLength" : 164448,
            "uri" : "PartCoaster.bin"
        }
    ]
}
   