{
    "asset" : {
        "generator" : "Khronos glTF Blender I/O v1.7.33",
        "version" : "2.0"
    },
    "scene" : 1,
    "scenes" : [
        {
            "name" : "Ball"
        },
        {
            "name" : "Parts",
            "nodes" : [
                0,
                1
            ]
        }
    ],
    "nodes" : [
        {
            "mesh" : 0,
            "name" : "PlaygroundHammock_01_glb"
        },
        {
            "mesh" : 1,
            "name" : "PlaygroundHammock_01_collider"
        }
    ],
    "materials" : [
        {
            "name" : "MiniTown_MAT.006",
            "pbrMetallicRoughness" : {
                "baseColorTexture" : {
                    "index" : 0
                },
                "metallicFactor" : 0
            }
        },
        {
            "name" : "default.007",
            "pbrMetallicRoughness" : {}
        }
    ],
    "meshes" : [
        {
            "name" : "Cylinder.003",
            "primitives" : [
                {
                    "attributes" : {
                        "POSITION" : 0,
                        "NORMAL" : 1,
                        "TEXCOORD_0" : 2
                    },
                    "indices" : 3,
                    "material" : 0
                }
            ]
        },
        {
            "name" : "Cylinder.007",
            "primitives" : [
                {
                    "attributes" : {
                        "POSITION" : 4,
                        "NORMAL" : 5,
                        "TEXCOORD_0" : 6
                    },
                    "indices" : 7,
                    "material" : 1
                }
            ]
        }
    ],
    "textures" : [
        {
            "sampler" : 0,
            "source" : 0
        }
    ],
    "images" : [
        {
            "mimeType" : "image/png",
            "name" : "file1",
            "uri" : "textures/file1.png"
        }
    ],
    "accessors" : [
        {
            "bufferView" : 0,
            "componentType" : 5126,
            "count" : 1394,
            "max" : [
                1.2448574304580688,
                2.464272975921631,
                1.76071298122406
            ],
            "min" : [
                -1.2448574304580688,
                -0.026021547615528107,
                -1.7773752212524414
            ],
            "type" : "VEC3"
        },
        {
            "bufferView" : 1,
            "componentType" : 5126,
            "count" : 1394,
            "type" : "VEC3"
        },
        {
            "bufferView" : 2,
            "componentType" : 5126,
            "count" : 1394,
            "type" : "VEC2"
        },
        {
            "bufferView" : 3,
            "componentType" : 5123,
            "count" : 3228,
            "type" : "SCALAR"
        },
        {
            "bufferView" : 4,
            "componentType" : 5126,
            "count" : 185,
            "max" : [
                1.241010308265686,
                2.4566569328308105,
                1.755271553993225
            ],
            "min" : [
                -1.241010308265686,
                -0.02594083733856678,
                -1.771882176399231
            ],
            "type" : "VEC3"
        },
        {
            "bufferView" : 5,
            "componentType" : 5126,
            "count" : 185,
            "type" : "VEC3"
        },
        {
            "bufferView" : 6,
            "componentType" : 5126,
            "count" : 185,
            "type" : "VEC2"
        },
        {
            "bufferView" : 7,
            "componentType" : 5123,
            "count" : 276,
            "type" : "SCALAR"
        }
    ],
    "bufferViews" : [
        {
            "buffer" : 0,
            "byteLength" : 16728,
            "byteOffset" : 0
        },
        {
            "buffer" : 0,
            "byteLength" : 16728,
            "byteOffset" : 16728
        },
        {
            "buffer" : 0,
            "byteLength" : 11152,
            "byteOffset" : 33456
        },
        {
            "buffer" : 0,
            "byteLength" : 6456,
            "byteOffset" : 44608
        },
        {
            "buffer" : 0,
            "byteLength" : 2220,
            "byteOffset" : 51064
        },
        {
            "buffer" : 0,
            "byteLength" : 2220,
            "byteOffset" : 53284
        },
        {
            "buffer" : 0,
            "byteLength" : 1480,
            "byteOffset" : 55504
        },
        {
            "buffer" : 0,
            "byteLength" : 552,
            "byteOffset" : 56984
        }
    ],
    "samplers" : [
        {
            "magFilter" : 9729,
            "minFilter" : 9987
        }
    ],
    "buffers" : [
        {
            "byteLength" : 57536,
            "uri" : "PlaygroundHammock_01.bin"
        }
    ]
}
   