{
    "asset" : {
        "generator" : "Khronos glTF Blender I/O v3.4.50",
        "version" : "2.0"
    },
    "scene" : 0,
    "scenes" : [
        {
            "name" : "Scene",
            "nodes" : [
                0,
                1
            ]
        }
    ],
    "nodes" : [
        {
            "mesh" : 0,
            "name" : "space_quarter_corner_glb"
        },
        {
            "mesh" : 1,
            "name" : "space_quarter_corner_collider"
        }
    ],
    "materials" : [
        {
            "doubleSided" : true,
            "name" : "space_atlas_07",
            "pbrMetallicRoughness" : {
                "baseColorTexture" : {
                    "index" : 0
                },
                "metallicFactor" : 0,
                "roughnessFactor" : 0.4307900071144104
            }
        }
    ],
    "meshes" : [
        {
            "name" : "egypt_quarter_corner_glb",
            "primitives" : [
                {
                    "attributes" : {
                        "POSITION" : 0,
                        "TEXCOORD_0" : 1,
                        "NORMAL" : 2
                    },
                    "indices" : 3,
                    "material" : 0
                }
            ]
        },
        {
            "name" : "egypt_quarter_corner_collider",
            "primitives" : [
                {
                    "attributes" : {
                        "POSITION" : 4,
                        "TEXCOORD_0" : 5,
                        "NORMAL" : 6
                    },
                    "indices" : 7
                }
            ]
        }
    ],
    "textures" : [
        {
            "sampler" : 0,
            "source" : 0
        }
    ],
    "images" : [
        {
            "mimeType" : "image/png",
            "name" : "space_atlas_07",
            "uri" : "textures/space_atlas_07.png"
        }
    ],
    "accessors" : [
        {
            "bufferView" : 0,
            "componentType" : 5126,
            "count" : 297,
            "max" : [
                2.999999523162842,
                2.9999985694885254,
                1.3113414354393171e-07
            ],
            "min" : [
                0,
                0.0010765045881271362,
                -2.999999523162842
            ],
            "type" : "VEC3"
        },
        {
            "bufferView" : 1,
            "componentType" : 5126,
            "count" : 297,
            "type" : "VEC2"
        },
        {
            "bufferView" : 2,
            "componentType" : 5126,
            "count" : 297,
            "type" : "VEC3"
        },
        {
            "bufferView" : 3,
            "componentType" : 5123,
            "count" : 1008,
            "type" : "SCALAR"
        },
        {
            "bufferView" : 4,
            "componentType" : 5126,
            "count" : 237,
            "max" : [
                2.999999523162842,
                2.9999985694885254,
                1.3113414354393171e-07
            ],
            "min" : [
                0,
                0.0010765045881271362,
                -2.999999523162842
            ],
            "type" : "VEC3"
        },
        {
            "bufferView" : 5,
            "componentType" : 5126,
            "count" : 237,
            "type" : "VEC2"
        },
        {
            "bufferView" : 6,
            "componentType" : 5126,
            "count" : 237,
            "type" : "VEC3"
        },
        {
            "bufferView" : 7,
            "componentType" : 5123,
            "count" : 864,
            "type" : "SCALAR"
        }
    ],
    "bufferViews" : [
        {
            "buffer" : 0,
            "byteLength" : 3564,
            "byteOffset" : 0,
            "target" : 34962
        },
        {
            "buffer" : 0,
            "byteLength" : 2376,
            "byteOffset" : 3564,
            "target" : 34962
        },
        {
            "buffer" : 0,
            "byteLength" : 3564,
            "byteOffset" : 5940,
            "target" : 34962
        },
        {
            "buffer" : 0,
            "byteLength" : 2016,
            "byteOffset" : 9504,
            "target" : 34963
        },
        {
            "buffer" : 0,
            "byteLength" : 2844,
            "byteOffset" : 11520,
            "target" : 34962
        },
        {
            "buffer" : 0,
            "byteLength" : 1896,
            "byteOffset" : 14364,
            "target" : 34962
        },
        {
            "buffer" : 0,
            "byteLength" : 2844,
            "byteOffset" : 16260,
            "target" : 34962
        },
        {
            "buffer" : 0,
            "byteLength" : 1728,
            "byteOffset" : 19104,
            "target" : 34963
        }
    ],
    "samplers" : [
        {
            "magFilter" : 9729,
            "minFilter" : 9987
        }
    ],
    "buffers" : [
        {
            "byteLength" : 20832,
            "uri" : "space_quarter_corner.bin"
        }
    ]
}
