{
	"asset":{
		"generator":"Khronos glTF Blender I/O v3.6.27",
		"version":"2.0"
	},
	"scene":0,
	"scenes":[
		{
			"name":"Scene",
			"nodes":[
				0,
				1
			]
		}
	],
	"nodes":[
		{
			"mesh":0,
			"name":"space_concave_corner_collider"
		},
		{
			"mesh":1,
			"name":"space_concave_corner_glb"
		}
	],
	"materials":[
		{
			"doubleSided":true,
			"name":"space_atlas_04",
			"pbrMetallicRoughness":{
				"baseColorTexture":{
					"index":0
				},
				"metallicFactor":0,
				"roughnessFactor":0.4307900071144104
			}
		}
	],
	"meshes":[
		{
			"name":"egypt_concavecorner_collider",
			"primitives":[
				{
					"attributes":{
						"POSITION":0,
						"NORMAL":1,
						"TEXCOORD_0":2,
						"TEXCOORD_1":3
					},
					"indices":4
				}
			]
		},
		{
			"name":"basic_concave_cornerr_glb_ID3.102",
			"primitives":[
				{
					"attributes":{
						"POSITION":5,
						"NORMAL":6,
						"TEXCOORD_0":7
					},
					"indices":8,
					"material":0
				}
			]
		}
	],
	"textures":[
		{
			"sampler":0,
			"source":0
		}
	],
	"images":[
		{
			"mimeType":"image/png",
			"name":"space_atlas_04",
			"uri":"textures/space_atlas_04.png"
		}
	],
	"accessors":[
		{
			"bufferView":0,
			"componentType":5126,
			"count":279,
			"max":[
				5.140893936157227,
				4.886810302734375,
				3.750441789627075
			],
			"min":[
				-5.140893936157227,
				-0.0003621522046159953,
				-1.2224512100219727
			],
			"type":"VEC3"
		},
		{
			"bufferView":1,
			"componentType":5126,
			"count":279,
			"type":"VEC3"
		},
		{
			"bufferView":2,
			"componentType":5126,
			"count":279,
			"type":"VEC2"
		},
		{
			"bufferView":3,
			"componentType":5126,
			"count":279,
			"type":"VEC2"
		},
		{
			"bufferView":4,
			"componentType":5123,
			"count":924,
			"type":"SCALAR"
		},
		{
			"bufferView":5,
			"componentType":5126,
			"count":298,
			"max":[
				5.140893936157227,
				4.886810302734375,
				3.750882148742676
			],
			"min":[
				-5.140893936157227,
				-0.0003621522046159953,
				-1.2220109701156616
			],
			"type":"VEC3"
		},
		{
			"bufferView":6,
			"componentType":5126,
			"count":298,
			"type":"VEC3"
		},
		{
			"bufferView":7,
			"componentType":5126,
			"count":298,
			"type":"VEC2"
		},
		{
			"bufferView":8,
			"componentType":5123,
			"count":924,
			"type":"SCALAR"
		}
	],
	"bufferViews":[
		{
			"buffer":0,
			"byteLength":3348,
			"byteOffset":0,
			"target":34962
		},
		{
			"buffer":0,
			"byteLength":3348,
			"byteOffset":3348,
			"target":34962
		},
		{
			"buffer":0,
			"byteLength":2232,
			"byteOffset":6696,
			"target":34962
		},
		{
			"buffer":0,
			"byteLength":2232,
			"byteOffset":8928,
			"target":34962
		},
		{
			"buffer":0,
			"byteLength":1848,
			"byteOffset":11160,
			"target":34963
		},
		{
			"buffer":0,
			"byteLength":3576,
			"byteOffset":13008,
			"target":34962
		},
		{
			"buffer":0,
			"byteLength":3576,
			"byteOffset":16584,
			"target":34962
		},
		{
			"buffer":0,
			"byteLength":2384,
			"byteOffset":20160,
			"target":34962
		},
		{
			"buffer":0,
			"byteLength":1848,
			"byteOffset":22544,
			"target":34963
		}
	],
	"samplers":[
		{
			"magFilter":9729,
			"minFilter":9987
		}
	],
	"buffers":[
		{
			"byteLength":24392,
			"uri":"space_concave_corner.bin"
		}
	]
}
