{
	"asset":{
		"generator":"Khronos glTF Blender I/O v3.6.27",
		"version":"2.0"
	},
	"extensionsUsed":[
		"KHR_materials_specular",
		"KHR_materials_ior"
	],
	"scene":0,
	"scenes":[
		{
			"name":"Scene",
			"nodes":[
				0,
				1
			]
		}
	],
	"nodes":[
		{
			"mesh":0,
			"name":"space_quarter_circle_glb"
		},
		{
			"mesh":1,
			"name":"space_quarter_circle_collider"
		}
	],
	"materials":[
		{
			"doubleSided":true,
			"extensions":{
				"KHR_materials_specular":{
					"specularColorFactor":[
						0,
						0,
						0
					]
				},
				"KHR_materials_ior":{
					"ior":1.4500000476837158
				}
			},
			"name":"space_atlas_07",
			"pbrMetallicRoughness":{
				"baseColorTexture":{
					"index":0
				},
				"metallicFactor":0,
				"roughnessFactor":0.8377193212509155
			}
		}
	],
	"meshes":[
		{
			"name":"Circle",
			"primitives":[
				{
					"attributes":{
						"POSITION":0,
						"NORMAL":1,
						"TEXCOORD_0":2,
						"TEXCOORD_1":3
					},
					"indices":4,
					"material":0
				}
			]
		},
		{
			"name":"Circle.004",
			"primitives":[
				{
					"attributes":{
						"POSITION":5,
						"NORMAL":6,
						"TEXCOORD_0":7
					},
					"indices":8
				}
			]
		}
	],
	"textures":[
		{
			"sampler":0,
			"source":0
		}
	],
	"images":[
		{
			"mimeType":"image/png",
			"name":"space_atlas_07",
			"uri":"textures/space_atlas_07.png"
		}
	],
	"accessors":[
		{
			"bufferView":0,
			"componentType":5126,
			"count":146,
			"max":[
				2,
				2.9999985694885254,
				-1.2154544037912274e-10
			],
			"min":[
				-2,
				0.0010765026090666652,
				-2.999999761581421
			],
			"type":"VEC3"
		},
		{
			"bufferView":1,
			"componentType":5126,
			"count":146,
			"type":"VEC3"
		},
		{
			"bufferView":2,
			"componentType":5126,
			"count":146,
			"type":"VEC2"
		},
		{
			"bufferView":3,
			"componentType":5126,
			"count":146,
			"type":"VEC2"
		},
		{
			"bufferView":4,
			"componentType":5123,
			"count":528,
			"type":"SCALAR"
		},
		{
			"bufferView":5,
			"componentType":5126,
			"count":80,
			"max":[
				2,
				2.9999988079071045,
				-1.2154544037912274e-10
			],
			"min":[
				-2,
				0.0010765026090666652,
				-2.999999761581421
			],
			"type":"VEC3"
		},
		{
			"bufferView":6,
			"componentType":5126,
			"count":80,
			"type":"VEC3"
		},
		{
			"bufferView":7,
			"componentType":5126,
			"count":80,
			"type":"VEC2"
		},
		{
			"bufferView":8,
			"componentType":5123,
			"count":204,
			"type":"SCALAR"
		}
	],
	"bufferViews":[
		{
			"buffer":0,
			"byteLength":1752,
			"byteOffset":0,
			"target":34962
		},
		{
			"buffer":0,
			"byteLength":1752,
			"byteOffset":1752,
			"target":34962
		},
		{
			"buffer":0,
			"byteLength":1168,
			"byteOffset":3504,
			"target":34962
		},
		{
			"buffer":0,
			"byteLength":1168,
			"byteOffset":4672,
			"target":34962
		},
		{
			"buffer":0,
			"byteLength":1056,
			"byteOffset":5840,
			"target":34963
		},
		{
			"buffer":0,
			"byteLength":960,
			"byteOffset":6896,
			"target":34962
		},
		{
			"buffer":0,
			"byteLength":960,
			"byteOffset":7856,
			"target":34962
		},
		{
			"buffer":0,
			"byteLength":640,
			"byteOffset":8816,
			"target":34962
		},
		{
			"buffer":0,
			"byteLength":408,
			"byteOffset":9456,
			"target":34963
		}
	],
	"samplers":[
		{
			"magFilter":9729,
			"minFilter":9987
		}
	],
	"buffers":[
		{
			"byteLength":9864,
			"uri":"space_quarter_circle.bin"
		}
	]
}
