{
    "asset" : {
        "generator" : "Khronos glTF Blender I/O v3.3.35",
        "version" : "2.0"
    },
    "scene" : 0,
    "scenes" : [
        {
            "name" : "Scene",
            "nodes" : [
                0,
                1
            ]
        }
    ],
    "nodes" : [
        {
            "mesh" : 0,
            "name" : "space_loop_small_glb"
        },
        {
            "mesh" : 1,
            "name" : "space_loop_small_collider"
        }
    ],
    "materials" : [
        {
            "doubleSided" : true,
            "name" : "space_atlas_03",
            "pbrMetallicRoughness" : {
                "baseColorTexture" : {
                    "index" : 0
                },
                "metallicFactor" : 0,
                "roughnessFactor" : 0.4307900071144104
            }
        }
    ],
    "meshes" : [
        {
            "name" : "BezierCurve.005",
            "primitives" : [
                {
                    "attributes" : {
                        "POSITION" : 0,
                        "NORMAL" : 1,
                        "TEXCOORD_0" : 2
                    },
                    "indices" : 3,
                    "material" : 0
                }
            ]
        },
        {
            "name" : "BezierCurve.001",
            "primitives" : [
                {
                    "attributes" : {
                        "POSITION" : 4,
                        "NORMAL" : 5,
                        "TEXCOORD_0" : 6
                    },
                    "indices" : 7
                }
            ]
        }
    ],
    "textures" : [
        {
            "sampler" : 0,
            "source" : 0
        }
    ],
    "images" : [
        {
            "mimeType" : "image/png",
            "name" : "space_atlas_03",
            "uri" : "textures/space_atlas_03.png"
        }
    ],
    "accessors" : [
        {
            "bufferView" : 0,
            "componentType" : 5126,
            "count" : 538,
            "max" : [
                3,
                3.3667850494384766,
                2.0008389949798584
            ],
            "min" : [
                -1.5031646490097046,
                -3.2633543014526367e-06,
                -1.1715469360351562
            ],
            "type" : "VEC3"
        },
        {
            "bufferView" : 1,
            "componentType" : 5126,
            "count" : 538,
            "type" : "VEC3"
        },
        {
            "bufferView" : 2,
            "componentType" : 5126,
            "count" : 538,
            "type" : "VEC2"
        },
        {
            "bufferView" : 3,
            "componentType" : 5123,
            "count" : 1236,
            "type" : "SCALAR"
        },
        {
            "bufferView" : 4,
            "componentType" : 5126,
            "count" : 328,
            "max" : [
                3,
                3.3667850494384766,
                2.0008389949798584
            ],
            "min" : [
                -1.5031646490097046,
                -3.2633543014526367e-06,
                -1.1715469360351562
            ],
            "type" : "VEC3"
        },
        {
            "bufferView" : 5,
            "componentType" : 5126,
            "count" : 328,
            "type" : "VEC3"
        },
        {
            "bufferView" : 6,
            "componentType" : 5126,
            "count" : 328,
            "type" : "VEC2"
        },
        {
            "bufferView" : 7,
            "componentType" : 5123,
            "count" : 1236,
            "type" : "SCALAR"
        }
    ],
    "bufferViews" : [
        {
            "buffer" : 0,
            "byteLength" : 6456,
            "byteOffset" : 0,
            "target" : 34962
        },
        {
            "buffer" : 0,
            "byteLength" : 6456,
            "byteOffset" : 6456,
            "target" : 34962
        },
        {
            "buffer" : 0,
            "byteLength" : 4304,
            "byteOffset" : 12912,
            "target" : 34962
        },
        {
            "buffer" : 0,
            "byteLength" : 2472,
            "byteOffset" : 17216,
            "target" : 34963
        },
        {
            "buffer" : 0,
            "byteLength" : 3936,
            "byteOffset" : 19688,
            "target" : 34962
        },
        {
            "buffer" : 0,
            "byteLength" : 3936,
            "byteOffset" : 23624,
            "target" : 34962
        },
        {
            "buffer" : 0,
            "byteLength" : 2624,
            "byteOffset" : 27560,
            "target" : 34962
        },
        {
            "buffer" : 0,
            "byteLength" : 2472,
            "byteOffset" : 30184,
            "target" : 34963
        }
    ],
    "samplers" : [
        {
            "magFilter" : 9729,
            "minFilter" : 9987
        }
    ],
    "buffers" : [
        {
            "byteLength" : 32656,
            "uri" : "space_loop_small.bin"
        }
    ]
}
