{
	"asset":{
		"generator":"Khronos glTF Blender I/O v3.6.27",
		"version":"2.0"
	},
	"extensionsUsed":[
		"KHR_materials_specular"
	],
	"scene":0,
	"scenes":[
		{
			"name":"Scene",
			"nodes":[
				0,
				1
			]
		}
	],
	"nodes":[
		{
			"mesh":0,
			"name":"space_env_alien_glb"
		},
		{
			"mesh":1,
			"name":"space_env_alien_collider"
		}
	],
	"materials":[
		{
			"doubleSided":true,
			"extensions":{
				"KHR_materials_specular":{
					"specularColorFactor":[
						1.4539877176284788,
						1.4539877176284788,
						1.4539877176284788
					]
				}
			},
			"name":"space_env_alien",
			"pbrMetallicRoughness":{
				"baseColorTexture":{
					"index":0
				},
				"metallicFactor":0,
				"roughnessFactor":0.21472391486167908
			}
		},
		{
			"alphaMode":"BLEND",
			"doubleSided":true,
			"extensions":{
				"KHR_materials_specular":{
					"specularColorFactor":[
						1.9999999999999998,
						1.9999999999999998,
						1.9999999999999998
					]
				}
			},
			"name":"space_env_alien_alpha",
			"pbrMetallicRoughness":{
				"baseColorTexture":{
					"index":1
				},
				"metallicFactor":0,
				"roughnessFactor":0.20000000298023224
			}
		}
	],
	"meshes":[
		{
			"name":"Sphere.002",
			"primitives":[
				{
					"attributes":{
						"POSITION":0,
						"NORMAL":1,
						"TEXCOORD_0":2
					},
					"indices":3,
					"material":0
				},
				{
					"attributes":{
						"POSITION":4,
						"NORMAL":5,
						"TEXCOORD_0":6
					},
					"indices":7,
					"material":1
				}
			]
		},
		{
			"name":"Sphere.003",
			"primitives":[
				{
					"attributes":{
						"POSITION":8,
						"NORMAL":9,
						"TEXCOORD_0":10
					},
					"indices":11
				}
			]
		}
	],
	"textures":[
		{
			"sampler":0,
			"source":0
		},
		{
			"sampler":0,
			"source":0
		}
	],
	"images":[
		{
			"mimeType":"image/png",
			"name":"space_env_alien",
			"uri":"textures/space_env_alien.png"
		}
	],
	"accessors":[
		{
			"bufferView":0,
			"componentType":5126,
			"count":351,
			"max":[
				0.5758811235427856,
				1.3408381938934326,
				0.3720776438713074
			],
			"min":[
				-0.5836837291717529,
				0.001436495454981923,
				-0.6694750785827637
			],
			"type":"VEC3"
		},
		{
			"bufferView":1,
			"componentType":5126,
			"count":351,
			"type":"VEC3"
		},
		{
			"bufferView":2,
			"componentType":5126,
			"count":351,
			"type":"VEC2"
		},
		{
			"bufferView":3,
			"componentType":5123,
			"count":1098,
			"type":"SCALAR"
		},
		{
			"bufferView":4,
			"componentType":5126,
			"count":42,
			"max":[
				0.3214515447616577,
				1.3753808736801147,
				0.3218798041343689
			],
			"min":[
				-0.3214515447616577,
				1.0754672288894653,
				-0.32102325558662415
			],
			"type":"VEC3"
		},
		{
			"bufferView":5,
			"componentType":5126,
			"count":42,
			"type":"VEC3"
		},
		{
			"bufferView":6,
			"componentType":5126,
			"count":42,
			"type":"VEC2"
		},
		{
			"bufferView":7,
			"componentType":5123,
			"count":168,
			"type":"SCALAR"
		},
		{
			"bufferView":8,
			"componentType":5126,
			"count":294,
			"max":[
				0.5830247402191162,
				1.3971834182739258,
				0.36983782052993774
			],
			"min":[
				-0.5859331488609314,
				0,
				-0.6456632018089294
			],
			"type":"VEC3"
		},
		{
			"bufferView":9,
			"componentType":5126,
			"count":294,
			"type":"VEC3"
		},
		{
			"bufferView":10,
			"componentType":5126,
			"count":294,
			"type":"VEC2"
		},
		{
			"bufferView":11,
			"componentType":5123,
			"count":414,
			"type":"SCALAR"
		}
	],
	"bufferViews":[
		{
			"buffer":0,
			"byteLength":4212,
			"byteOffset":0,
			"target":34962
		},
		{
			"buffer":0,
			"byteLength":4212,
			"byteOffset":4212,
			"target":34962
		},
		{
			"buffer":0,
			"byteLength":2808,
			"byteOffset":8424,
			"target":34962
		},
		{
			"buffer":0,
			"byteLength":2196,
			"byteOffset":11232,
			"target":34963
		},
		{
			"buffer":0,
			"byteLength":504,
			"byteOffset":13428,
			"target":34962
		},
		{
			"buffer":0,
			"byteLength":504,
			"byteOffset":13932,
			"target":34962
		},
		{
			"buffer":0,
			"byteLength":336,
			"byteOffset":14436,
			"target":34962
		},
		{
			"buffer":0,
			"byteLength":336,
			"byteOffset":14772,
			"target":34963
		},
		{
			"buffer":0,
			"byteLength":3528,
			"byteOffset":15108,
			"target":34962
		},
		{
			"buffer":0,
			"byteLength":3528,
			"byteOffset":18636,
			"target":34962
		},
		{
			"buffer":0,
			"byteLength":2352,
			"byteOffset":22164,
			"target":34962
		},
		{
			"buffer":0,
			"byteLength":828,
			"byteOffset":24516,
			"target":34963
		}
	],
	"samplers":[
		{
			"magFilter":9729,
			"minFilter":9987
		}
	],
	"buffers":[
		{
			"byteLength":25344,
			"uri":"space_env_alien.bin"
		}
	]
}
