{
    "asset" : {
        "generator" : "Khronos glTF Blender I/O v1.6.16",
        "version" : "2.0"
    },
    "scene" : 1,
    "scenes" : [
        {
            "name" : "Ball"
        },
        {
            "name" : "Parts",
            "nodes" : [
                0,
                1
            ]
        }
    ],
    "nodes" : [
        {
            "mesh" : 0,
            "name" : "TreePine_glb"
        },
        {
            "mesh" : 1,
            "name" : "TreePine_collider",
            "scale" : [
                0.3401945233345032,
                1,
                0.3401945233345032
            ]
        }
    ],
    "materials" : [
        {
            "name" : "MiniTown_MAT",
            "pbrMetallicRoughness" : {
                "baseColorTexture" : {
                    "index" : 0
                },
                "metallicFactor" : 0
            }
        },
        {
            "name" : "default",
            "pbrMetallicRoughness" : {}
        }
    ],
    "meshes" : [
        {
            "name" : "Untitled.326",
            "primitives" : [
                {
                    "attributes" : {
                        "POSITION" : 0,
                        "NORMAL" : 1,
                        "TEXCOORD_0" : 2
                    },
                    "indices" : 3,
                    "material" : 0
                }
            ]
        },
        {
            "name" : "Untitled.001",
            "primitives" : [
                {
                    "attributes" : {
                        "POSITION" : 4,
                        "NORMAL" : 5,
                        "TEXCOORD_0" : 6
                    },
                    "indices" : 7,
                    "material" : 1
                }
            ]
        }
    ],
    "textures" : [
        {
            "sampler" : 0,
            "source" : 0
        }
    ],
    "images" : [
        {
            "mimeType" : "image/png",
            "name" : "file1",
            "uri" : "textures/file1.png"
        }
    ],
    "accessors" : [
        {
            "bufferView" : 0,
            "componentType" : 5126,
            "count" : 2178,
            "max" : [
                1.6280947923660278,
                5.710873126983643,
                1.6527622938156128
            ],
            "min" : [
                -1.628096103668213,
                -4.652463303500554e-06,
                -1.6714847087860107
            ],
            "type" : "VEC3"
        },
        {
            "bufferView" : 1,
            "componentType" : 5126,
            "count" : 2178,
            "type" : "VEC3"
        },
        {
            "bufferView" : 2,
            "componentType" : 5126,
            "count" : 2178,
            "type" : "VEC2"
        },
        {
            "bufferView" : 3,
            "componentType" : 5123,
            "count" : 2730,
            "type" : "SCALAR"
        },
        {
            "bufferView" : 4,
            "componentType" : 5126,
            "count" : 32,
            "max" : [
                1.626431941986084,
                5.605536937713623,
                1.6264322996139526
            ],
            "min" : [
                -1.626431941986084,
                -0.004832875914871693,
                -1.626431941986084
            ],
            "type" : "VEC3"
        },
        {
            "bufferView" : 5,
            "componentType" : 5126,
            "count" : 32,
            "type" : "VEC3"
        },
        {
            "bufferView" : 6,
            "componentType" : 5126,
            "count" : 32,
            "type" : "VEC2"
        },
        {
            "bufferView" : 7,
            "componentType" : 5123,
            "count" : 60,
            "type" : "SCALAR"
        }
    ],
    "bufferViews" : [
        {
            "buffer" : 0,
            "byteLength" : 26136,
            "byteOffset" : 0
        },
        {
            "buffer" : 0,
            "byteLength" : 26136,
            "byteOffset" : 26136
        },
        {
            "buffer" : 0,
            "byteLength" : 17424,
            "byteOffset" : 52272
        },
        {
            "buffer" : 0,
            "byteLength" : 5460,
            "byteOffset" : 69696
        },
        {
            "buffer" : 0,
            "byteLength" : 384,
            "byteOffset" : 75156
        },
        {
            "buffer" : 0,
            "byteLength" : 384,
            "byteOffset" : 75540
        },
        {
            "buffer" : 0,
            "byteLength" : 256,
            "byteOffset" : 75924
        },
        {
            "buffer" : 0,
            "byteLength" : 120,
            "byteOffset" : 76180
        }
    ],
    "samplers" : [
        {
            "magFilter" : 9729,
            "minFilter" : 9987
        }
    ],
    "buffers" : [
        {
            "byteLength" : 76300,
            "uri" : "TreePine.bin"
        }
    ]
}
   