{
	"asset":{
		"generator":"Khronos glTF Blender I/O v3.6.27",
		"version":"2.0"
	},
	"scene":0,
	"scenes":[
		{
			"name":"Scene",
			"nodes":[
				0,
				1
			]
		}
	],
	"nodes":[
		{
			"mesh":0,
			"name":"urban_env_trash_glb"
		},
		{
			"mesh":1,
			"name":"urban_env_trash_collider"
		}
	],
	"materials":[
		{
			"doubleSided":true,
			"name":"urban_env_trash",
			"pbrMetallicRoughness":{
				"baseColorTexture":{
					"index":0
				},
				"metallicFactor":0,
				"roughnessFactor":0.20000000298023224
			}
		}
	],
	"meshes":[
		{
			"name":"Cylinder.001",
			"primitives":[
				{
					"attributes":{
						"POSITION":0,
						"NORMAL":1,
						"TEXCOORD_0":2,
						"TEXCOORD_1":3
					},
					"indices":4,
					"material":0
				}
			]
		},
		{
			"name":"Cylinder",
			"primitives":[
				{
					"attributes":{
						"POSITION":5,
						"NORMAL":6,
						"TEXCOORD_0":7
					},
					"indices":8
				}
			]
		}
	],
	"textures":[
		{
			"sampler":0,
			"source":0
		}
	],
	"images":[
		{
			"mimeType":"image/png",
			"name":"urban_env_trash",
			"uri":"textures/urban_env_trash.png"
		}
	],
	"accessors":[
		{
			"bufferView":0,
			"componentType":5126,
			"count":197,
			"max":[
				0.41233381628990173,
				1.0017088651657104,
				0.3870885968208313
			],
			"min":[
				-0.3923492729663849,
				0.0007172523182816803,
				-0.38417288661003113
			],
			"type":"VEC3"
		},
		{
			"bufferView":1,
			"componentType":5126,
			"count":197,
			"type":"VEC3"
		},
		{
			"bufferView":2,
			"componentType":5126,
			"count":197,
			"type":"VEC2"
		},
		{
			"bufferView":3,
			"componentType":5126,
			"count":197,
			"type":"VEC2"
		},
		{
			"bufferView":4,
			"componentType":5123,
			"count":690,
			"type":"SCALAR"
		},
		{
			"bufferView":5,
			"componentType":5126,
			"count":48,
			"max":[
				0.4008422791957855,
				0.958624541759491,
				0.4008422791957855
			],
			"min":[
				-0.4008422791957855,
				0,
				-0.4008422791957855
			],
			"type":"VEC3"
		},
		{
			"bufferView":6,
			"componentType":5126,
			"count":48,
			"type":"VEC3"
		},
		{
			"bufferView":7,
			"componentType":5126,
			"count":48,
			"type":"VEC2"
		},
		{
			"bufferView":8,
			"componentType":5123,
			"count":84,
			"type":"SCALAR"
		}
	],
	"bufferViews":[
		{
			"buffer":0,
			"byteLength":2364,
			"byteOffset":0,
			"target":34962
		},
		{
			"buffer":0,
			"byteLength":2364,
			"byteOffset":2364,
			"target":34962
		},
		{
			"buffer":0,
			"byteLength":1576,
			"byteOffset":4728,
			"target":34962
		},
		{
			"buffer":0,
			"byteLength":1576,
			"byteOffset":6304,
			"target":34962
		},
		{
			"buffer":0,
			"byteLength":1380,
			"byteOffset":7880,
			"target":34963
		},
		{
			"buffer":0,
			"byteLength":576,
			"byteOffset":9260,
			"target":34962
		},
		{
			"buffer":0,
			"byteLength":576,
			"byteOffset":9836,
			"target":34962
		},
		{
			"buffer":0,
			"byteLength":384,
			"byteOffset":10412,
			"target":34962
		},
		{
			"buffer":0,
			"byteLength":168,
			"byteOffset":10796,
			"target":34963
		}
	],
	"samplers":[
		{
			"magFilter":9729,
			"minFilter":9987
		}
	],
	"buffers":[
		{
			"byteLength":10964,
			"uri":"urban_env_trash.bin"
		}
	]
}
