{
	"asset":{
		"generator":"Khronos glTF Blender I/O v3.6.27",
		"version":"2.0"
	},
	"extensionsUsed":[
		"KHR_materials_specular"
	],
	"scene":0,
	"scenes":[
		{
			"name":"Scene",
			"nodes":[
				0,
				1
			]
		}
	],
	"nodes":[
		{
			"mesh":0,
			"name":"urban_env_car_glb"
		},
		{
			"mesh":1,
			"name":"urban_env_car_collider"
		}
	],
	"materials":[
		{
			"doubleSided":true,
			"extensions":{
				"KHR_materials_specular":{
					"specularColorFactor":[
						0,
						0,
						0
					]
				}
			},
			"name":"urban_env_car",
			"pbrMetallicRoughness":{
				"baseColorTexture":{
					"index":0
				},
				"metallicFactor":0,
				"roughnessFactor":0.8380281925201416
			}
		}
	],
	"meshes":[
		{
			"name":"Plane.003",
			"primitives":[
				{
					"attributes":{
						"POSITION":0,
						"NORMAL":1,
						"TEXCOORD_0":2
					},
					"indices":3,
					"material":0
				}
			]
		},
		{
			"name":"Cube.002",
			"primitives":[
				{
					"attributes":{
						"POSITION":4,
						"NORMAL":5,
						"TEXCOORD_0":6
					},
					"indices":7
				}
			]
		}
	],
	"textures":[
		{
			"sampler":0,
			"source":0
		}
	],
	"images":[
		{
			"mimeType":"image/png",
			"name":"urban_env_car",
			"uri":"textures/urban_env_car.png"
		}
	],
	"accessors":[
		{
			"bufferView":0,
			"componentType":5126,
			"count":1609,
			"max":[
				0.7098596692085266,
				0.9106055498123169,
				1.5807780027389526
			],
			"min":[
				-0.7098596692085266,
				0.0024854151997715235,
				-1.5661334991455078
			],
			"type":"VEC3"
		},
		{
			"bufferView":1,
			"componentType":5126,
			"count":1609,
			"type":"VEC3"
		},
		{
			"bufferView":2,
			"componentType":5126,
			"count":1609,
			"type":"VEC2"
		},
		{
			"bufferView":3,
			"componentType":5123,
			"count":3522,
			"type":"SCALAR"
		},
		{
			"bufferView":4,
			"componentType":5126,
			"count":98,
			"max":[
				0.7014023661613464,
				0.9081372022628784,
				1.5374424457550049
			],
			"min":[
				-0.7014023661613464,
				0,
				-1.5687991380691528
			],
			"type":"VEC3"
		},
		{
			"bufferView":5,
			"componentType":5126,
			"count":98,
			"type":"VEC3"
		},
		{
			"bufferView":6,
			"componentType":5126,
			"count":98,
			"type":"VEC2"
		},
		{
			"bufferView":7,
			"componentType":5123,
			"count":132,
			"type":"SCALAR"
		}
	],
	"bufferViews":[
		{
			"buffer":0,
			"byteLength":19308,
			"byteOffset":0,
			"target":34962
		},
		{
			"buffer":0,
			"byteLength":19308,
			"byteOffset":19308,
			"target":34962
		},
		{
			"buffer":0,
			"byteLength":12872,
			"byteOffset":38616,
			"target":34962
		},
		{
			"buffer":0,
			"byteLength":7044,
			"byteOffset":51488,
			"target":34963
		},
		{
			"buffer":0,
			"byteLength":1176,
			"byteOffset":58532,
			"target":34962
		},
		{
			"buffer":0,
			"byteLength":1176,
			"byteOffset":59708,
			"target":34962
		},
		{
			"buffer":0,
			"byteLength":784,
			"byteOffset":60884,
			"target":34962
		},
		{
			"buffer":0,
			"byteLength":264,
			"byteOffset":61668,
			"target":34963
		}
	],
	"samplers":[
		{
			"magFilter":9729,
			"minFilter":9987
		}
	],
	"buffers":[
		{
			"byteLength":61932,
			"uri":"urban_env_car.bin"
		}
	]
}
