{
	"asset":{
		"generator":"Khronos glTF Blender I/O v3.6.27",
		"version":"2.0"
	},
	"extensionsUsed":[
		"KHR_materials_specular",
		"KHR_materials_ior"
	],
	"scene":0,
	"scenes":[
		{
			"name":"Scene",
			"nodes":[
				0,
				1
			]
		}
	],
	"nodes":[
		{
			"mesh":0,
			"name":"urban_centrebump_collider"
		},
		{
			"mesh":1,
			"name":"urban_centrebump_glb"
		}
	],
	"materials":[
		{
			"doubleSided":true,
			"emissiveFactor":[
				1,
				1,
				1
			],
			"emissiveTexture":{
				"index":0
			},
			"extensions":{
				"KHR_materials_specular":{
					"specularColorFactor":[
						0,
						0,
						0
					]
				},
				"KHR_materials_ior":{
					"ior":1.4500000476837158
				}
			},
			"name":"urban_atlas_01_emission",
			"pbrMetallicRoughness":{
				"baseColorTexture":{
					"index":1
				},
				"metallicFactor":0
			}
		}
	],
	"meshes":[
		{
			"name":"egypt_centrebump_collider",
			"primitives":[
				{
					"attributes":{
						"POSITION":0,
						"NORMAL":1,
						"TEXCOORD_0":2,
						"TEXCOORD_1":3
					},
					"indices":4
				}
			]
		},
		{
			"name":"basic_centreBump_glb_ID3.001",
			"primitives":[
				{
					"attributes":{
						"POSITION":5,
						"NORMAL":6,
						"TEXCOORD_0":7
					},
					"indices":8,
					"material":0
				}
			]
		}
	],
	"textures":[
		{
			"sampler":0,
			"source":0
		},
		{
			"sampler":0,
			"source":0
		}
	],
	"images":[
		{
			"mimeType":"image/png",
			"name":"urban_atlas_01",
			"uri":"textures/urban_atlas_01.png"
		}
	],
	"accessors":[
		{
			"bufferView":0,
			"componentType":5126,
			"count":92,
			"max":[
				1.9999560117721558,
				0.57635498046875,
				2
			],
			"min":[
				-1.9999560117721558,
				-3.2584136988589307e-07,
				-2
			],
			"type":"VEC3"
		},
		{
			"bufferView":1,
			"componentType":5126,
			"count":92,
			"type":"VEC3"
		},
		{
			"bufferView":2,
			"componentType":5126,
			"count":92,
			"type":"VEC2"
		},
		{
			"bufferView":3,
			"componentType":5126,
			"count":92,
			"type":"VEC2"
		},
		{
			"bufferView":4,
			"componentType":5123,
			"count":204,
			"type":"SCALAR"
		},
		{
			"bufferView":5,
			"componentType":5126,
			"count":98,
			"max":[
				1.9999560117721558,
				0.57635498046875,
				2
			],
			"min":[
				-1.9999560117721558,
				-3.2584136988589307e-07,
				-2
			],
			"type":"VEC3"
		},
		{
			"bufferView":6,
			"componentType":5126,
			"count":98,
			"type":"VEC3"
		},
		{
			"bufferView":7,
			"componentType":5126,
			"count":98,
			"type":"VEC2"
		},
		{
			"bufferView":8,
			"componentType":5123,
			"count":240,
			"type":"SCALAR"
		}
	],
	"bufferViews":[
		{
			"buffer":0,
			"byteLength":1104,
			"byteOffset":0,
			"target":34962
		},
		{
			"buffer":0,
			"byteLength":1104,
			"byteOffset":1104,
			"target":34962
		},
		{
			"buffer":0,
			"byteLength":736,
			"byteOffset":2208,
			"target":34962
		},
		{
			"buffer":0,
			"byteLength":736,
			"byteOffset":2944,
			"target":34962
		},
		{
			"buffer":0,
			"byteLength":408,
			"byteOffset":3680,
			"target":34963
		},
		{
			"buffer":0,
			"byteLength":1176,
			"byteOffset":4088,
			"target":34962
		},
		{
			"buffer":0,
			"byteLength":1176,
			"byteOffset":5264,
			"target":34962
		},
		{
			"buffer":0,
			"byteLength":784,
			"byteOffset":6440,
			"target":34962
		},
		{
			"buffer":0,
			"byteLength":480,
			"byteOffset":7224,
			"target":34963
		}
	],
	"samplers":[
		{
			"magFilter":9729,
			"minFilter":9987
		}
	],
	"buffers":[
		{
			"byteLength":7704,
			"uri":"urban_centrebump.bin"
		}
	]
}
