{
	"asset":{
		"generator":"Khronos glTF Blender I/O v3.6.27",
		"version":"2.0"
	},
	"extensionsUsed":[
		"KHR_materials_specular",
		"KHR_materials_ior"
	],
	"scene":0,
	"scenes":[
		{
			"name":"Scene",
			"nodes":[
				0,
				1
			]
		}
	],
	"nodes":[
		{
			"mesh":0,
			"name":"urban_slope2_glb"
		},
		{
			"mesh":1,
			"name":"urban_slope2_collider"
		}
	],
	"materials":[
		{
			"doubleSided":true,
			"emissiveFactor":[
				1,
				1,
				1
			],
			"emissiveTexture":{
				"index":0
			},
			"extensions":{
				"KHR_materials_specular":{
					"specularColorFactor":[
						0,
						0,
						0
					]
				},
				"KHR_materials_ior":{
					"ior":1.4500000476837158
				}
			},
			"name":"urban_atlas_01_emission",
			"pbrMetallicRoughness":{
				"baseColorTexture":{
					"index":1
				},
				"metallicFactor":0
			}
		}
	],
	"meshes":[
		{
			"name":"basic_slope2_glb",
			"primitives":[
				{
					"attributes":{
						"POSITION":0,
						"NORMAL":1,
						"TEXCOORD_0":2
					},
					"indices":3,
					"material":0
				}
			]
		},
		{
			"name":"basic_slope2_collider",
			"primitives":[
				{
					"attributes":{
						"POSITION":4,
						"NORMAL":5,
						"TEXCOORD_0":6
					},
					"indices":7
				}
			]
		}
	],
	"textures":[
		{
			"sampler":0,
			"source":0
		},
		{
			"sampler":0,
			"source":0
		}
	],
	"images":[
		{
			"mimeType":"image/png",
			"name":"urban_atlas_01",
			"uri":"textures/urban_atlas_01.png"
		}
	],
	"accessors":[
		{
			"bufferView":0,
			"componentType":5126,
			"count":178,
			"max":[
				1.9999561309814453,
				2.9999992847442627,
				1.999255895614624
			],
			"min":[
				-2,
				-1.7789192497730255e-05,
				-2.000000238418579
			],
			"type":"VEC3"
		},
		{
			"bufferView":1,
			"componentType":5126,
			"count":178,
			"type":"VEC3"
		},
		{
			"bufferView":2,
			"componentType":5126,
			"count":178,
			"type":"VEC2"
		},
		{
			"bufferView":3,
			"componentType":5123,
			"count":588,
			"type":"SCALAR"
		},
		{
			"bufferView":4,
			"componentType":5126,
			"count":72,
			"max":[
				1.9999561309814453,
				2.9999992847442627,
				1.999255895614624
			],
			"min":[
				-2,
				-1.7789192497730255e-05,
				-2.000000238418579
			],
			"type":"VEC3"
		},
		{
			"bufferView":5,
			"componentType":5126,
			"count":72,
			"type":"VEC3"
		},
		{
			"bufferView":6,
			"componentType":5126,
			"count":72,
			"type":"VEC2"
		},
		{
			"bufferView":7,
			"componentType":5123,
			"count":180,
			"type":"SCALAR"
		}
	],
	"bufferViews":[
		{
			"buffer":0,
			"byteLength":2136,
			"byteOffset":0,
			"target":34962
		},
		{
			"buffer":0,
			"byteLength":2136,
			"byteOffset":2136,
			"target":34962
		},
		{
			"buffer":0,
			"byteLength":1424,
			"byteOffset":4272,
			"target":34962
		},
		{
			"buffer":0,
			"byteLength":1176,
			"byteOffset":5696,
			"target":34963
		},
		{
			"buffer":0,
			"byteLength":864,
			"byteOffset":6872,
			"target":34962
		},
		{
			"buffer":0,
			"byteLength":864,
			"byteOffset":7736,
			"target":34962
		},
		{
			"buffer":0,
			"byteLength":576,
			"byteOffset":8600,
			"target":34962
		},
		{
			"buffer":0,
			"byteLength":360,
			"byteOffset":9176,
			"target":34963
		}
	],
	"samplers":[
		{
			"magFilter":9729,
			"minFilter":9987
		}
	],
	"buffers":[
		{
			"byteLength":9536,
			"uri":"urban_slope2.bin"
		}
	]
}
