{
	"asset":{
		"generator":"Khronos glTF Blender I/O v3.6.27",
		"version":"2.0"
	},
	"scene":0,
	"scenes":[
		{
			"name":"Scene",
			"nodes":[
				0,
				1
			]
		}
	],
	"nodes":[
		{
			"mesh":0,
			"name":"urban_env_palm_glb"
		},
		{
			"mesh":1,
			"name":"urban_env_palm_collider"
		}
	],
	"materials":[
		{
			"doubleSided":true,
			"name":"urban_env_palm",
			"pbrMetallicRoughness":{
				"baseColorTexture":{
					"index":0
				},
				"metallicFactor":0,
				"roughnessFactor":0.5
			}
		}
	],
	"meshes":[
		{
			"name":"Plane",
			"primitives":[
				{
					"attributes":{
						"POSITION":0,
						"NORMAL":1,
						"TEXCOORD_0":2
					},
					"indices":3,
					"material":0
				}
			]
		},
		{
			"name":"Plane.001",
			"primitives":[
				{
					"attributes":{
						"POSITION":4,
						"NORMAL":5
					},
					"indices":6
				}
			]
		}
	],
	"textures":[
		{
			"sampler":0,
			"source":0
		}
	],
	"images":[
		{
			"mimeType":"image/png",
			"name":"urban_env_palm",
			"uri":"textures/urban_env_palm.png"
		}
	],
	"accessors":[
		{
			"bufferView":0,
			"componentType":5126,
			"count":500,
			"max":[
				2.199690103530884,
				5.024373531341553,
				1.6607667207717896
			],
			"min":[
				-1.1880885362625122,
				0.003570442320778966,
				-2.0543529987335205
			],
			"type":"VEC3"
		},
		{
			"bufferView":1,
			"componentType":5126,
			"count":500,
			"type":"VEC3"
		},
		{
			"bufferView":2,
			"componentType":5126,
			"count":500,
			"type":"VEC2"
		},
		{
			"bufferView":3,
			"componentType":5123,
			"count":552,
			"type":"SCALAR"
		},
		{
			"bufferView":4,
			"componentType":5126,
			"count":60,
			"max":[
				0.43654850125312805,
				4.451052188873291,
				0.4196750521659851
			],
			"min":[
				-0.3364907503128052,
				0.003570442320778966,
				-0.23938795924186707
			],
			"type":"VEC3"
		},
		{
			"bufferView":5,
			"componentType":5126,
			"count":60,
			"type":"VEC3"
		},
		{
			"bufferView":6,
			"componentType":5123,
			"count":84,
			"type":"SCALAR"
		}
	],
	"bufferViews":[
		{
			"buffer":0,
			"byteLength":6000,
			"byteOffset":0,
			"target":34962
		},
		{
			"buffer":0,
			"byteLength":6000,
			"byteOffset":6000,
			"target":34962
		},
		{
			"buffer":0,
			"byteLength":4000,
			"byteOffset":12000,
			"target":34962
		},
		{
			"buffer":0,
			"byteLength":1104,
			"byteOffset":16000,
			"target":34963
		},
		{
			"buffer":0,
			"byteLength":720,
			"byteOffset":17104,
			"target":34962
		},
		{
			"buffer":0,
			"byteLength":720,
			"byteOffset":17824,
			"target":34962
		},
		{
			"buffer":0,
			"byteLength":168,
			"byteOffset":18544,
			"target":34963
		}
	],
	"samplers":[
		{
			"magFilter":9729,
			"minFilter":9987
		}
	],
	"buffers":[
		{
			"byteLength":18712,
			"uri":"urban_env_palm.bin"
		}
	]
}
