{
    "asset" : {
        "generator" : "Khronos glTF Blender I/O v1.7.33",
        "version" : "2.0"
    },
    "scene" : 1,
    "scenes" : [
        {
            "name" : "Ball"
        },
        {
            "name" : "Parts",
            "nodes" : [
                0,
                1,
                7,
                13
            ]
        }
    ],
    "nodes" : [
        {
            "mesh" : 0,
            "name" : "Windmill_glb"
        },
        {
            "mesh" : 1,
            "name" : "Windmill_grass_collider"
        },
        {
            "name" : "Bone.001",
            "rotation" : [
                -0.030000215396285057,
                5.8233879940416955e-09,
                7.453937023171875e-09,
                0.9995499849319458
            ],
            "scale" : [
                1.0000001192092896,
                1,
                1.0000001192092896
            ]
        },
        {
            "children" : [
                2
            ],
            "name" : "Bone.003",
            "rotation" : [
                0.4419383108615875,
                0.30398425459861755,
                0.7169755697250366,
                0.4452304244041443
            ],
            "scale" : [
                1.0000001192092896,
                1.000000238418579,
                1.0000001192092896
            ]
        },
        {
            "name" : "Bone.002",
            "rotation" : [
                -0.03000020980834961,
                0,
                2.220757069160633e-16,
                0.9995499849319458
            ]
        },
        {
            "name" : "Bone",
            "rotation" : [
                -0.030000200495123863,
                0,
                1.490787049363007e-08,
                0.999549925327301
            ]
        },
        {
            "children" : [
                5
            ],
            "name" : "Bone.004",
            "rotation" : [
                0.341170996427536,
                -0.6073963642120361,
                -0.23349636793136597,
                0.6783447265625
            ]
        },
        {
            "children" : [
                3,
                4,
                6
            ],
            "name" : "MagnetArmature"
        },
        {
            "name" : "Bone.001",
            "rotation" : [
                -0.030000215396285057,
                5.8233879940416955e-09,
                7.453937023171875e-09,
                0.9995499849319458
            ],
            "scale" : [
                1.0000001192092896,
                1,
                1.0000001192092896
            ]
        },
        {
            "children" : [
                8
            ],
            "name" : "Bone.003",
            "rotation" : [
                0.4419383108615875,
                0.30398425459861755,
                0.7169755697250366,
                0.4452304244041443
            ],
            "scale" : [
                1.0000001192092896,
                1.000000238418579,
                1.0000001192092896
            ]
        },
        {
            "name" : "Bone.002",
            "rotation" : [
                -0.03000020980834961,
                0,
                2.220757069160633e-16,
                0.9995499849319458
            ]
        },
        {
            "name" : "Bone",
            "rotation" : [
                -0.030000200495123863,
                0,
                1.490787049363007e-08,
                0.999549925327301
            ]
        },
        {
            "children" : [
                11
            ],
            "name" : "Bone.004",
            "rotation" : [
                0.341170996427536,
                -0.6073963642120361,
                -0.23349636793136597,
                0.6783447265625
            ]
        },
        {
            "children" : [
                9,
                10,
                12
            ],
            "name" : "MagnetArmature.001"
        }
    ],
    "materials" : [
        {
            "doubleSided" : true,
            "name" : "Wood",
            "pbrMetallicRoughness" : {
                "baseColorTexture" : {
                    "index" : 0
                },
                "metallicFactor" : 0,
                "roughnessFactor" : 0.9318181872367859
            }
        },
        {
            "doubleSided" : true,
            "name" : "White",
            "pbrMetallicRoughness" : {
                "baseColorFactor" : [
                    0.9960784316062927,
                    0.9960784316062927,
                    0.9960784316062927,
                    1
                ],
                "metallicFactor" : 0,
                "roughnessFactor" : 0.5
            }
        },
        {
            "doubleSided" : true,
            "name" : "Grass",
            "pbrMetallicRoughness" : {
                "baseColorTexture" : {
                    "index" : 1
                },
                "metallicFactor" : 0,
                "roughnessFactor" : 0.7227272987365723
            }
        },
        {
            "doubleSided" : true,
            "name" : "Atlas",
            "pbrMetallicRoughness" : {
                "baseColorTexture" : {
                    "index" : 2
                },
                "metallicFactor" : 0,
                "roughnessFactor" : 0.968181848526001
            }
        },
        {
            "doubleSided" : true,
            "name" : "FloorFantasyRocks_03",
            "pbrMetallicRoughness" : {
                "baseColorTexture" : {
                    "index" : 3
                },
                "metallicFactor" : 0
            }
        }
    ],
    "meshes" : [
        {
            "name" : "ID3.149",
            "primitives" : [
                {
                    "attributes" : {
                        "POSITION" : 0,
                        "NORMAL" : 1,
                        "TEXCOORD_0" : 2
                    },
                    "indices" : 3,
                    "material" : 0
                },
                {
                    "attributes" : {
                        "POSITION" : 4,
                        "NORMAL" : 5,
                        "TEXCOORD_0" : 6
                    },
                    "indices" : 7,
                    "material" : 1
                },
                {
                    "attributes" : {
                        "POSITION" : 8,
                        "NORMAL" : 9,
                        "TEXCOORD_0" : 10
                    },
                    "indices" : 11,
                    "material" : 2
                },
                {
                    "attributes" : {
                        "POSITION" : 12,
                        "NORMAL" : 13,
                        "TEXCOORD_0" : 14
                    },
                    "indices" : 15,
                    "material" : 3
                },
                {
                    "attributes" : {
                        "POSITION" : 16,
                        "NORMAL" : 17,
                        "TEXCOORD_0" : 18
                    },
                    "indices" : 19,
                    "material" : 4
                }
            ]
        },
        {
            "name" : "ID3.159",
            "primitives" : [
                {
                    "attributes" : {
                        "POSITION" : 20,
                        "NORMAL" : 21,
                        "TEXCOORD_0" : 22
                    },
                    "indices" : 23,
                    "material" : 1
                }
            ]
        }
    ],
    "textures" : [
        {
            "sampler" : 0,
            "source" : 0
        },
        {
            "sampler" : 0,
            "source" : 1
        },
        {
            "sampler" : 0,
            "source" : 2
        },
        {
            "sampler" : 0,
            "source" : 3
        }
    ],
    "images" : [
        {
            "mimeType" : "image/jpeg",
            "name" : "planksDark_BC",
            "uri" : "textures/planksDark_BC.jpg"
        },
        {
            "mimeType" : "image/jpeg",
            "name" : "Grass",
            "uri" : "textures/Grass.jpg"
        },
        {
            "mimeType" : "image/png",
            "name" : "AvatarWearables_TX",
            "uri" : "textures/AvatarWearables_TX.png"
        },
        {
            "mimeType" : "image/jpeg",
            "name" : "Floor_Rock_03",
            "uri" : "textures/Floor_Rock_03.jpg"
        }
    ],
    "accessors" : [
        {
            "bufferView" : 0,
            "componentType" : 5126,
            "count" : 124,
            "max" : [
                2.0000007152557373,
                0.75,
                2.000000238418579
            ],
            "min" : [
                -2.0000007152557373,
                0,
                -2.000000238418579
            ],
            "type" : "VEC3"
        },
        {
            "bufferView" : 1,
            "componentType" : 5126,
            "count" : 124,
            "type" : "VEC3"
        },
        {
            "bufferView" : 2,
            "componentType" : 5126,
            "count" : 124,
            "type" : "VEC2"
        },
        {
            "bufferView" : 3,
            "componentType" : 5123,
            "count" : 252,
            "type" : "SCALAR"
        },
        {
            "bufferView" : 4,
            "componentType" : 5126,
            "count" : 16,
            "max" : [
                0.3876432180404663,
                0.13535431027412415,
                0.38156649470329285
            ],
            "min" : [
                -0.3876432180404663,
                0.060354262590408325,
                -0.38156649470329285
            ],
            "type" : "VEC3"
        },
        {
            "bufferView" : 5,
            "componentType" : 5126,
            "count" : 16,
            "type" : "VEC3"
        },
        {
            "bufferView" : 6,
            "componentType" : 5126,
            "count" : 16,
            "type" : "VEC2"
        },
        {
            "bufferView" : 7,
            "componentType" : 5123,
            "count" : 48,
            "type" : "SCALAR"
        },
        {
            "bufferView" : 8,
            "componentType" : 5126,
            "count" : 74,
            "max" : [
                1.7500008344650269,
                0.5,
                2
            ],
            "min" : [
                -1.7500008344650269,
                0,
                -2
            ],
            "type" : "VEC3"
        },
        {
            "bufferView" : 9,
            "componentType" : 5126,
            "count" : 74,
            "type" : "VEC3"
        },
        {
            "bufferView" : 10,
            "componentType" : 5126,
            "count" : 74,
            "type" : "VEC2"
        },
        {
            "bufferView" : 11,
            "componentType" : 5123,
            "count" : 264,
            "type" : "SCALAR"
        },
        {
            "bufferView" : 12,
            "componentType" : 5126,
            "count" : 67,
            "max" : [
                0.5204554796218872,
                3.6993372440338135,
                0.6426318287849426
            ],
            "min" : [
                -0.5222692489624023,
                2.6339824199676514,
                -0.5190422534942627
            ],
            "type" : "VEC3"
        },
        {
            "bufferView" : 13,
            "componentType" : 5126,
            "count" : 67,
            "type" : "VEC3"
        },
        {
            "bufferView" : 14,
            "componentType" : 5126,
            "count" : 67,
            "type" : "VEC2"
        },
        {
            "bufferView" : 15,
            "componentType" : 5123,
            "count" : 201,
            "type" : "SCALAR"
        },
        {
            "bufferView" : 16,
            "componentType" : 5126,
            "count" : 20,
            "max" : [
                0.9035585522651672,
                2.6930012702941895,
                0.9076868891716003
            ],
            "min" : [
                -0.9035585522651672,
                0.7217996120452881,
                -0.9076868891716003
            ],
            "type" : "VEC3"
        },
        {
            "bufferView" : 17,
            "componentType" : 5126,
            "count" : 20,
            "type" : "VEC3"
        },
        {
            "bufferView" : 18,
            "componentType" : 5126,
            "count" : 20,
            "type" : "VEC2"
        },
        {
            "bufferView" : 19,
            "componentType" : 5123,
            "count" : 36,
            "type" : "SCALAR"
        },
        {
            "bufferView" : 20,
            "componentType" : 5126,
            "count" : 4,
            "max" : [
                1.7500008344650269,
                0.49999481439590454,
                2
            ],
            "min" : [
                -1.7500008344650269,
                0.49999481439590454,
                -2
            ],
            "type" : "VEC3"
        },
        {
            "bufferView" : 21,
            "componentType" : 5126,
            "count" : 4,
            "type" : "VEC3"
        },
        {
            "bufferView" : 22,
            "componentType" : 5126,
            "count" : 4,
            "type" : "VEC2"
        },
        {
            "bufferView" : 23,
            "componentType" : 5123,
            "count" : 6,
            "type" : "SCALAR"
        }
    ],
    "bufferViews" : [
        {
            "buffer" : 0,
            "byteLength" : 1488,
            "byteOffset" : 0
        },
        {
            "buffer" : 0,
            "byteLength" : 1488,
            "byteOffset" : 1488
        },
        {
            "buffer" : 0,
            "byteLength" : 992,
            "byteOffset" : 2976
        },
        {
            "buffer" : 0,
            "byteLength" : 504,
            "byteOffset" : 3968
        },
        {
            "buffer" : 0,
            "byteLength" : 192,
            "byteOffset" : 4472
        },
        {
            "buffer" : 0,
            "byteLength" : 192,
            "byteOffset" : 4664
        },
        {
            "buffer" : 0,
            "byteLength" : 128,
            "byteOffset" : 4856
        },
        {
            "buffer" : 0,
            "byteLength" : 96,
            "byteOffset" : 4984
        },
        {
            "buffer" : 0,
            "byteLength" : 888,
            "byteOffset" : 5080
        },
        {
            "buffer" : 0,
            "byteLength" : 888,
            "byteOffset" : 5968
        },
        {
            "buffer" : 0,
            "byteLength" : 592,
            "byteOffset" : 6856
        },
        {
            "buffer" : 0,
            "byteLength" : 528,
            "byteOffset" : 7448
        },
        {
            "buffer" : 0,
            "byteLength" : 804,
            "byteOffset" : 7976
        },
        {
            "buffer" : 0,
            "byteLength" : 804,
            "byteOffset" : 8780
        },
        {
            "buffer" : 0,
            "byteLength" : 536,
            "byteOffset" : 9584
        },
        {
            "buffer" : 0,
            "byteLength" : 402,
            "byteOffset" : 10120
        },
        {
            "buffer" : 0,
            "byteLength" : 240,
            "byteOffset" : 10524
        },
        {
            "buffer" : 0,
            "byteLength" : 240,
            "byteOffset" : 10764
        },
        {
            "buffer" : 0,
            "byteLength" : 160,
            "byteOffset" : 11004
        },
        {
            "buffer" : 0,
            "byteLength" : 72,
            "byteOffset" : 11164
        },
        {
            "buffer" : 0,
            "byteLength" : 48,
            "byteOffset" : 11236
        },
        {
            "buffer" : 0,
            "byteLength" : 48,
            "byteOffset" : 11284
        },
        {
            "buffer" : 0,
            "byteLength" : 32,
            "byteOffset" : 11332
        },
        {
            "buffer" : 0,
            "byteLength" : 12,
            "byteOffset" : 11364
        }
    ],
    "samplers" : [
        {
            "magFilter" : 9729,
            "minFilter" : 9987
        }
    ],
    "buffers" : [
        {
            "byteLength" : 11376,
            "uri" : "Windmill.bin"
        }
    ]
}
   