{
    "asset" : {
        "generator" : "Khronos glTF Blender I/O v1.6.16",
        "version" : "2.0"
    },
    "scene" : 3,
    "scenes" : [
        {
            "name" : "Checkpoints1"
        },
        {
            "name" : "Level1"
        },
        {
            "name" : "Level2"
        },
        {
            "name" : "Parts",
            "nodes" : [
                0
            ]
        },
        {
            "name" : "Training"
        }
    ],
    "nodes" : [
        {
            "mesh" : 0,
            "name" : "Wind1_glb"
        }
    ],
    "materials" : [
        {
            "doubleSided" : true,
            "name" : "Wind",
            "pbrMetallicRoughness" : {
                "baseColorFactor" : [
                    0.19162742793560028,
                    0.6471184492111206,
                    0.8000000715255737,
                    1
                ],
                "metallicFactor" : 0,
                "roughnessFactor" : 0.5
            }
        }
    ],
    "meshes" : [
        {
            "name" : "Plane",
            "primitives" : [
                {
                    "attributes" : {
                        "POSITION" : 0,
                        "NORMAL" : 1,
                        "TEXCOORD_0" : 2
                    },
                    "indices" : 3,
                    "material" : 0
                }
            ]
        }
    ],
    "accessors" : [
        {
            "bufferView" : 0,
            "componentType" : 5126,
            "count" : 16,
            "max" : [
                2.544797897338867,
                1.3267841339111328,
                2.799726530611224e-07
            ],
            "min" : [
                -3.0195157527923584,
                -1.4998068809509277,
                -3.0964096708885336e-07
            ],
            "type" : "VEC3"
        },
        {
            "bufferView" : 1,
            "componentType" : 5126,
            "count" : 16,
            "type" : "VEC3"
        },
        {
            "bufferView" : 2,
            "componentType" : 5126,
            "count" : 16,
            "type" : "VEC2"
        },
        {
            "bufferView" : 3,
            "componentType" : 5123,
            "count" : 24,
            "type" : "SCALAR"
        }
    ],
    "bufferViews" : [
        {
            "buffer" : 0,
            "byteLength" : 192,
            "byteOffset" : 0
        },
        {
            "buffer" : 0,
            "byteLength" : 192,
            "byteOffset" : 192
        },
        {
            "buffer" : 0,
            "byteLength" : 128,
            "byteOffset" : 384
        },
        {
            "buffer" : 0,
            "byteLength" : 48,
            "byteOffset" : 512
        }
    ],
    "buffers" : [
        {
            "byteLength" : 560,
            "uri" : "Wind1.bin"
        }
    ]
}
   