{
	"asset":{
		"generator":"Khronos glTF Blender I/O v3.6.27",
		"version":"2.0"
	},
	"scene":0,
	"scenes":[
		{
			"name":"Scene",
			"nodes":[
				0,
				1,
				2,
				3,
				4,
				5
			]
		}
	],
	"nodes":[
		{
			"mesh":0,
			"name":"F_Aldebaran_Feet"
		},
		{
			"mesh":1,
			"name":"F_Aldebaran_Helmet"
		},
		{
			"mesh":2,
			"name":"F_Aldebaran_Helmet_Glass"
		},
		{
			"mesh":3,
			"name":"F_Aldebaran_Lowerbody"
		},
		{
			"mesh":4,
			"name":"F_Aldebaran_Upperbody"
		},
		{
			"mesh":5,
			"name":"M_head"
		}
	],
	"materials":[
		{
			"doubleSided":true,
			"emissiveFactor":[
				0.05000000074505806,
				0.05000000074505806,
				0.05000000074505806
			],
			"emissiveTexture":{
				"index":0
			},
			"name":"aldebaran_atlas",
			"pbrMetallicRoughness":{
				"baseColorTexture":{
					"index":1
				},
				"metallicFactor":0
			}
		},
		{
			"alphaMode":"BLEND",
			"doubleSided":true,
			"emissiveFactor":[
				0.05000000074505806,
				0.05000000074505806,
				0.05000000074505806
			],
			"name":"aldebaran_atlas_alpha",
			"pbrMetallicRoughness":{
				"baseColorTexture":{
					"index":2
				},
				"metallicFactor":0,
				"roughnessFactor":0.2033194899559021
			}
		},
		{
			"emissiveFactor":[
				0.020000000596046452,
				0.022000000208616255,
				0.02500000037252903
			],
			"name":"maniqui",
			"pbrMetallicRoughness":{
				"baseColorFactor":[
					0.4000000059604645,
					0.4399999976158142,
					0.5,
					1
				],
				"metallicFactor":0,
				"roughnessFactor":0.5
			}
		}
	],
	"meshes":[
		{
			"name":"Cube.002",
			"primitives":[
				{
					"attributes":{
						"POSITION":0,
						"NORMAL":1,
						"TEXCOORD_0":2
					},
					"indices":3,
					"material":0
				}
			]
		},
		{
			"name":"Cube.004",
			"primitives":[
				{
					"attributes":{
						"POSITION":4,
						"NORMAL":5,
						"TEXCOORD_0":6
					},
					"indices":7,
					"material":0
				}
			]
		},
		{
			"name":"Cube.005",
			"primitives":[
				{
					"attributes":{
						"POSITION":8,
						"NORMAL":9,
						"TEXCOORD_0":10,
						"TEXCOORD_1":11
					},
					"indices":12,
					"material":1
				}
			]
		},
		{
			"name":"Mesh.006",
			"primitives":[
				{
					"attributes":{
						"POSITION":13,
						"NORMAL":14,
						"TEXCOORD_0":15
					},
					"indices":16,
					"material":0
				}
			]
		},
		{
			"name":"Mesh.007",
			"primitives":[
				{
					"attributes":{
						"POSITION":17,
						"NORMAL":18,
						"TEXCOORD_0":19
					},
					"indices":20,
					"material":0
				}
			]
		},
		{
			"name":"Mesh.053",
			"primitives":[
				{
					"attributes":{
						"POSITION":21,
						"NORMAL":22,
						"TEXCOORD_0":23,
						"TEXCOORD_1":24
					},
					"indices":25,
					"material":2
				}
			]
		}
	],
	"textures":[
		{
			"sampler":0,
			"source":0
		},
		{
			"sampler":0,
			"source":0
		},
		{
			"sampler":0,
			"source":0
		}
	],
	"images":[
		{
			"mimeType":"image/png",
			"name":"aldebaran_atlas",
			"uri":"textures/aldebaran_atlas.png"
		}
	],
	"accessors":[
		{
			"bufferView":0,
			"componentType":5126,
			"count":712,
			"max":[
				0.5908173322677612,
				0.7772362232208252,
				-0.05006463825702667
			],
			"min":[
				-0.5085344314575195,
				0.056715309619903564,
				-0.8879604339599609
			],
			"type":"VEC3"
		},
		{
			"bufferView":1,
			"componentType":5126,
			"count":712,
			"type":"VEC3"
		},
		{
			"bufferView":2,
			"componentType":5126,
			"count":712,
			"type":"VEC2"
		},
		{
			"bufferView":3,
			"componentType":5123,
			"count":2100,
			"type":"SCALAR"
		},
		{
			"bufferView":4,
			"componentType":5126,
			"count":662,
			"max":[
				0.3691490888595581,
				3.883589744567871,
				0.9612585306167603
			],
			"min":[
				-0.33112552762031555,
				2.978971004486084,
				0.2576941251754761
			],
			"type":"VEC3"
		},
		{
			"bufferView":5,
			"componentType":5126,
			"count":662,
			"type":"VEC3"
		},
		{
			"bufferView":6,
			"componentType":5126,
			"count":662,
			"type":"VEC2"
		},
		{
			"bufferView":7,
			"componentType":5123,
			"count":2250,
			"type":"SCALAR"
		},
		{
			"bufferView":8,
			"componentType":5126,
			"count":173,
			"max":[
				0.34719613194465637,
				3.9277756214141846,
				1.286212682723999
			],
			"min":[
				-0.3091726005077362,
				3.1176390647888184,
				0.283630907535553
			],
			"type":"VEC3"
		},
		{
			"bufferView":9,
			"componentType":5126,
			"count":173,
			"type":"VEC3"
		},
		{
			"bufferView":10,
			"componentType":5126,
			"count":173,
			"type":"VEC2"
		},
		{
			"bufferView":11,
			"componentType":5126,
			"count":173,
			"type":"VEC2"
		},
		{
			"bufferView":12,
			"componentType":5123,
			"count":786,
			"type":"SCALAR"
		},
		{
			"bufferView":13,
			"componentType":5126,
			"count":1051,
			"max":[
				0.5138648748397827,
				2.2542436122894287,
				0.5188299417495728
			],
			"min":[
				-0.4805299937725067,
				0.5247694253921509,
				-0.6774201393127441
			],
			"type":"VEC3"
		},
		{
			"bufferView":14,
			"componentType":5126,
			"count":1051,
			"type":"VEC3"
		},
		{
			"bufferView":15,
			"componentType":5126,
			"count":1051,
			"type":"VEC2"
		},
		{
			"bufferView":16,
			"componentType":5123,
			"count":3240,
			"type":"SCALAR"
		},
		{
			"bufferView":17,
			"componentType":5126,
			"count":1688,
			"max":[
				0.9518203735351562,
				3.1996443271636963,
				1.5683544874191284
			],
			"min":[
				-0.7649449706077576,
				1.780131220817566,
				-0.21758867800235748
			],
			"type":"VEC3"
		},
		{
			"bufferView":18,
			"componentType":5126,
			"count":1688,
			"type":"VEC3"
		},
		{
			"bufferView":19,
			"componentType":5126,
			"count":1688,
			"type":"VEC2"
		},
		{
			"bufferView":20,
			"componentType":5123,
			"count":5016,
			"type":"SCALAR"
		},
		{
			"bufferView":21,
			"componentType":5126,
			"count":349,
			"max":[
				0.31259679794311523,
				3.855992078781128,
				0.9460297226905823
			],
			"min":[
				-0.2645566463470459,
				3.0226478576660156,
				0.3302418887615204
			],
			"type":"VEC3"
		},
		{
			"bufferView":22,
			"componentType":5126,
			"count":349,
			"type":"VEC3"
		},
		{
			"bufferView":23,
			"componentType":5126,
			"count":349,
			"type":"VEC2"
		},
		{
			"bufferView":24,
			"componentType":5126,
			"count":349,
			"type":"VEC2"
		},
		{
			"bufferView":25,
			"componentType":5123,
			"count":1680,
			"type":"SCALAR"
		}
	],
	"bufferViews":[
		{
			"buffer":0,
			"byteLength":8544,
			"byteOffset":0,
			"target":34962
		},
		{
			"buffer":0,
			"byteLength":8544,
			"byteOffset":8544,
			"target":34962
		},
		{
			"buffer":0,
			"byteLength":5696,
			"byteOffset":17088,
			"target":34962
		},
		{
			"buffer":0,
			"byteLength":4200,
			"byteOffset":22784,
			"target":34963
		},
		{
			"buffer":0,
			"byteLength":7944,
			"byteOffset":26984,
			"target":34962
		},
		{
			"buffer":0,
			"byteLength":7944,
			"byteOffset":34928,
			"target":34962
		},
		{
			"buffer":0,
			"byteLength":5296,
			"byteOffset":42872,
			"target":34962
		},
		{
			"buffer":0,
			"byteLength":4500,
			"byteOffset":48168,
			"target":34963
		},
		{
			"buffer":0,
			"byteLength":2076,
			"byteOffset":52668,
			"target":34962
		},
		{
			"buffer":0,
			"byteLength":2076,
			"byteOffset":54744,
			"target":34962
		},
		{
			"buffer":0,
			"byteLength":1384,
			"byteOffset":56820,
			"target":34962
		},
		{
			"buffer":0,
			"byteLength":1384,
			"byteOffset":58204,
			"target":34962
		},
		{
			"buffer":0,
			"byteLength":1572,
			"byteOffset":59588,
			"target":34963
		},
		{
			"buffer":0,
			"byteLength":12612,
			"byteOffset":61160,
			"target":34962
		},
		{
			"buffer":0,
			"byteLength":12612,
			"byteOffset":73772,
			"target":34962
		},
		{
			"buffer":0,
			"byteLength":8408,
			"byteOffset":86384,
			"target":34962
		},
		{
			"buffer":0,
			"byteLength":6480,
			"byteOffset":94792,
			"target":34963
		},
		{
			"buffer":0,
			"byteLength":20256,
			"byteOffset":101272,
			"target":34962
		},
		{
			"buffer":0,
			"byteLength":20256,
			"byteOffset":121528,
			"target":34962
		},
		{
			"buffer":0,
			"byteLength":13504,
			"byteOffset":141784,
			"target":34962
		},
		{
			"buffer":0,
			"byteLength":10032,
			"byteOffset":155288,
			"target":34963
		},
		{
			"buffer":0,
			"byteLength":4188,
			"byteOffset":165320,
			"target":34962
		},
		{
			"buffer":0,
			"byteLength":4188,
			"byteOffset":169508,
			"target":34962
		},
		{
			"buffer":0,
			"byteLength":2792,
			"byteOffset":173696,
			"target":34962
		},
		{
			"buffer":0,
			"byteLength":2792,
			"byteOffset":176488,
			"target":34962
		},
		{
			"buffer":0,
			"byteLength":3360,
			"byteOffset":179280,
			"target":34963
		}
	],
	"samplers":[
		{
			"magFilter":9729,
			"minFilter":9987
		}
	],
	"buffers":[
		{
			"byteLength":182640,
			"uri":"F_aldebaran_pose.bin"
		}
	]
}
