{
	"asset":{
		"generator":"Khronos glTF Blender I/O v3.6.27",
		"version":"2.0"
	},
	"scene":0,
	"scenes":[
		{
			"name":"Scene",
			"nodes":[
				0,
				1,
				2,
				3,
				4
			]
		}
	],
	"nodes":[
		{
			"mesh":0,
			"name":"F_FEET.001"
		},
		{
			"mesh":1,
			"name":"F_HAT_ANTARES"
		},
		{
			"mesh":2,
			"name":"F_LOWERDOBY"
		},
		{
			"mesh":3,
			"name":"F_upperbody"
		},
		{
			"mesh":4,
			"name":"M_head.001"
		}
	],
	"materials":[
		{
			"doubleSided":true,
			"emissiveFactor":[
				0.05000000074505806,
				0.05000000074505806,
				0.05000000074505806
			],
			"emissiveTexture":{
				"index":0
			},
			"name":"antares_atlas",
			"pbrMetallicRoughness":{
				"baseColorTexture":{
					"index":1
				},
				"metallicFactor":0
			}
		},
		{
			"emissiveFactor":[
				0.020000000596046452,
				0.022000000208616255,
				0.02500000037252903
			],
			"name":"maniqui",
			"pbrMetallicRoughness":{
				"baseColorFactor":[
					0.4000000059604645,
					0.4399999976158142,
					0.5,
					1
				],
				"metallicFactor":0,
				"roughnessFactor":0.5
			}
		}
	],
	"meshes":[
		{
			"name":"Mesh.013",
			"primitives":[
				{
					"attributes":{
						"COLOR_0":0,
						"POSITION":1,
						"NORMAL":2,
						"TEXCOORD_0":3
					},
					"indices":4,
					"material":0
				}
			]
		},
		{
			"name":"Plane.005",
			"primitives":[
				{
					"attributes":{
						"POSITION":5,
						"NORMAL":6,
						"TEXCOORD_0":7
					},
					"indices":8,
					"material":0
				}
			]
		},
		{
			"name":"Mesh.014",
			"primitives":[
				{
					"attributes":{
						"POSITION":9,
						"NORMAL":10,
						"TEXCOORD_0":11
					},
					"indices":12,
					"material":0
				}
			]
		},
		{
			"name":"Mesh.015",
			"primitives":[
				{
					"attributes":{
						"COLOR_0":13,
						"POSITION":14,
						"NORMAL":15,
						"TEXCOORD_0":16
					},
					"indices":17,
					"material":0
				}
			]
		},
		{
			"name":"Mesh.009",
			"primitives":[
				{
					"attributes":{
						"POSITION":18,
						"NORMAL":19,
						"TEXCOORD_0":20,
						"TEXCOORD_1":21
					},
					"indices":22,
					"material":1
				}
			]
		}
	],
	"textures":[
		{
			"sampler":0,
			"source":0
		},
		{
			"sampler":0,
			"source":0
		}
	],
	"images":[
		{
			"mimeType":"image/png",
			"name":"antares_atlas",
			"uri":"textures/antares_atlas.png"
		}
	],
	"accessors":[
		{
			"bufferView":0,
			"componentType":5123,
			"count":464,
			"normalized":true,
			"type":"VEC4"
		},
		{
			"bufferView":1,
			"componentType":5126,
			"count":464,
			"max":[
				0.5851421356201172,
				0.7777423858642578,
				-0.06339126080274582
			],
			"min":[
				-0.5036617517471313,
				0.05410757660865784,
				-0.8731042742729187
			],
			"type":"VEC3"
		},
		{
			"bufferView":2,
			"componentType":5126,
			"count":464,
			"type":"VEC3"
		},
		{
			"bufferView":3,
			"componentType":5126,
			"count":464,
			"type":"VEC2"
		},
		{
			"bufferView":4,
			"componentType":5123,
			"count":1656,
			"type":"SCALAR"
		},
		{
			"bufferView":5,
			"componentType":5126,
			"count":274,
			"max":[
				0.3414856493473053,
				4.183938503265381,
				1.0022048950195312
			],
			"min":[
				-0.304791122674942,
				3.136234760284424,
				0.23722580075263977
			],
			"type":"VEC3"
		},
		{
			"bufferView":6,
			"componentType":5126,
			"count":274,
			"type":"VEC3"
		},
		{
			"bufferView":7,
			"componentType":5126,
			"count":274,
			"type":"VEC2"
		},
		{
			"bufferView":8,
			"componentType":5123,
			"count":954,
			"type":"SCALAR"
		},
		{
			"bufferView":9,
			"componentType":5126,
			"count":735,
			"max":[
				0.5130321979522705,
				2.2633938789367676,
				0.5089266896247864
			],
			"min":[
				-0.48405665159225464,
				0.5069116950035095,
				-0.6767167448997498
			],
			"type":"VEC3"
		},
		{
			"bufferView":10,
			"componentType":5126,
			"count":735,
			"type":"VEC3"
		},
		{
			"bufferView":11,
			"componentType":5126,
			"count":735,
			"type":"VEC2"
		},
		{
			"bufferView":12,
			"componentType":5123,
			"count":2352,
			"type":"SCALAR"
		},
		{
			"bufferView":13,
			"componentType":5123,
			"count":1474,
			"normalized":true,
			"type":"VEC4"
		},
		{
			"bufferView":14,
			"componentType":5126,
			"count":1474,
			"max":[
				0.9522230625152588,
				3.289510726928711,
				1.5637308359146118
			],
			"min":[
				-0.8084338307380676,
				1.791656494140625,
				-0.08891459554433823
			],
			"type":"VEC3"
		},
		{
			"bufferView":15,
			"componentType":5126,
			"count":1474,
			"type":"VEC3"
		},
		{
			"bufferView":16,
			"componentType":5126,
			"count":1474,
			"type":"VEC2"
		},
		{
			"bufferView":17,
			"componentType":5123,
			"count":4848,
			"type":"SCALAR"
		},
		{
			"bufferView":18,
			"componentType":5126,
			"count":349,
			"max":[
				0.31259679794311523,
				3.855992078781128,
				0.9460297226905823
			],
			"min":[
				-0.2645566463470459,
				3.0288243293762207,
				0.3231731951236725
			],
			"type":"VEC3"
		},
		{
			"bufferView":19,
			"componentType":5126,
			"count":349,
			"type":"VEC3"
		},
		{
			"bufferView":20,
			"componentType":5126,
			"count":349,
			"type":"VEC2"
		},
		{
			"bufferView":21,
			"componentType":5126,
			"count":349,
			"type":"VEC2"
		},
		{
			"bufferView":22,
			"componentType":5123,
			"count":1680,
			"type":"SCALAR"
		}
	],
	"bufferViews":[
		{
			"buffer":0,
			"byteLength":3712,
			"byteOffset":0,
			"target":34962
		},
		{
			"buffer":0,
			"byteLength":5568,
			"byteOffset":3712,
			"target":34962
		},
		{
			"buffer":0,
			"byteLength":5568,
			"byteOffset":9280,
			"target":34962
		},
		{
			"buffer":0,
			"byteLength":3712,
			"byteOffset":14848,
			"target":34962
		},
		{
			"buffer":0,
			"byteLength":3312,
			"byteOffset":18560,
			"target":34963
		},
		{
			"buffer":0,
			"byteLength":3288,
			"byteOffset":21872,
			"target":34962
		},
		{
			"buffer":0,
			"byteLength":3288,
			"byteOffset":25160,
			"target":34962
		},
		{
			"buffer":0,
			"byteLength":2192,
			"byteOffset":28448,
			"target":34962
		},
		{
			"buffer":0,
			"byteLength":1908,
			"byteOffset":30640,
			"target":34963
		},
		{
			"buffer":0,
			"byteLength":8820,
			"byteOffset":32548,
			"target":34962
		},
		{
			"buffer":0,
			"byteLength":8820,
			"byteOffset":41368,
			"target":34962
		},
		{
			"buffer":0,
			"byteLength":5880,
			"byteOffset":50188,
			"target":34962
		},
		{
			"buffer":0,
			"byteLength":4704,
			"byteOffset":56068,
			"target":34963
		},
		{
			"buffer":0,
			"byteLength":11792,
			"byteOffset":60772,
			"target":34962
		},
		{
			"buffer":0,
			"byteLength":17688,
			"byteOffset":72564,
			"target":34962
		},
		{
			"buffer":0,
			"byteLength":17688,
			"byteOffset":90252,
			"target":34962
		},
		{
			"buffer":0,
			"byteLength":11792,
			"byteOffset":107940,
			"target":34962
		},
		{
			"buffer":0,
			"byteLength":9696,
			"byteOffset":119732,
			"target":34963
		},
		{
			"buffer":0,
			"byteLength":4188,
			"byteOffset":129428,
			"target":34962
		},
		{
			"buffer":0,
			"byteLength":4188,
			"byteOffset":133616,
			"target":34962
		},
		{
			"buffer":0,
			"byteLength":2792,
			"byteOffset":137804,
			"target":34962
		},
		{
			"buffer":0,
			"byteLength":2792,
			"byteOffset":140596,
			"target":34962
		},
		{
			"buffer":0,
			"byteLength":3360,
			"byteOffset":143388,
			"target":34963
		}
	],
	"samplers":[
		{
			"magFilter":9729,
			"minFilter":9987
		}
	],
	"buffers":[
		{
			"byteLength":146748,
			"uri":"F_antares_pose.bin"
		}
	]
}
