{
	"asset":{
		"generator":"Khronos glTF Blender I/O v3.6.27",
		"version":"2.0"
	},
	"scene":0,
	"scenes":[
		{
			"name":"Scene",
			"nodes":[
				0,
				1,
				2,
				3,
				4,
				5
			]
		}
	],
	"nodes":[
		{
			"mesh":0,
			"name":"F_Canopus_Feet"
		},
		{
			"mesh":1,
			"name":"F_Canopus_Helmet"
		},
		{
			"mesh":2,
			"name":"F_Canopus_Helmet_glass"
		},
		{
			"mesh":3,
			"name":"F_Canopus_Lowerbody"
		},
		{
			"mesh":4,
			"name":"F_Canopus_Upperbody"
		},
		{
			"mesh":5,
			"name":"M_head.002"
		}
	],
	"materials":[
		{
			"doubleSided":true,
			"emissiveFactor":[
				0.05000000074505806,
				0.05000000074505806,
				0.05000000074505806
			],
			"emissiveTexture":{
				"index":0
			},
			"name":"canopus_atlas",
			"pbrMetallicRoughness":{
				"baseColorTexture":{
					"index":1
				},
				"metallicFactor":0
			}
		},
		{
			"alphaMode":"BLEND",
			"doubleSided":true,
			"emissiveFactor":[
				0.05000000074505806,
				0.05000000074505806,
				0.05000000074505806
			],
			"name":"canopus_atlas_alpha",
			"pbrMetallicRoughness":{
				"baseColorTexture":{
					"index":2
				},
				"metallicFactor":0,
				"roughnessFactor":0.2033194899559021
			}
		},
		{
			"emissiveFactor":[
				0.020000000596046452,
				0.022000000208616255,
				0.02500000037252903
			],
			"name":"maniqui",
			"pbrMetallicRoughness":{
				"baseColorFactor":[
					0.4000000059604645,
					0.4399999976158142,
					0.5,
					1
				],
				"metallicFactor":0,
				"roughnessFactor":0.5
			}
		}
	],
	"meshes":[
		{
			"name":"Mesh.016",
			"primitives":[
				{
					"attributes":{
						"POSITION":0,
						"NORMAL":1,
						"TEXCOORD_0":2
					},
					"indices":3,
					"material":0
				}
			]
		},
		{
			"name":"Mesh.017",
			"primitives":[
				{
					"attributes":{
						"POSITION":4,
						"NORMAL":5,
						"TEXCOORD_0":6
					},
					"indices":7,
					"material":0
				}
			]
		},
		{
			"name":"Mesh.019",
			"primitives":[
				{
					"attributes":{
						"POSITION":8,
						"NORMAL":9,
						"TEXCOORD_0":10
					},
					"indices":11,
					"material":1
				}
			]
		},
		{
			"name":"Mesh.026",
			"primitives":[
				{
					"attributes":{
						"POSITION":12,
						"NORMAL":13,
						"TEXCOORD_0":14,
						"TEXCOORD_1":15
					},
					"indices":16,
					"material":0
				}
			]
		},
		{
			"name":"Cube.003",
			"primitives":[
				{
					"attributes":{
						"POSITION":17,
						"NORMAL":18,
						"TEXCOORD_0":19
					},
					"indices":20,
					"material":0
				}
			]
		},
		{
			"name":"Mesh.029",
			"primitives":[
				{
					"attributes":{
						"POSITION":21,
						"NORMAL":22,
						"TEXCOORD_0":23,
						"TEXCOORD_1":24
					},
					"indices":25,
					"material":2
				}
			]
		}
	],
	"textures":[
		{
			"sampler":0,
			"source":0
		},
		{
			"sampler":0,
			"source":0
		},
		{
			"sampler":0,
			"source":0
		}
	],
	"images":[
		{
			"mimeType":"image/png",
			"name":"canopus_atlas",
			"uri":"textures/canopus_atlas.png"
		}
	],
	"accessors":[
		{
			"bufferView":0,
			"componentType":5126,
			"count":842,
			"max":[
				0.5501357316970825,
				0.7444029450416565,
				-0.03942209482192993
			],
			"min":[
				-0.4609106183052063,
				0.09796343743801117,
				-0.8543301820755005
			],
			"type":"VEC3"
		},
		{
			"bufferView":1,
			"componentType":5126,
			"count":842,
			"type":"VEC3"
		},
		{
			"bufferView":2,
			"componentType":5126,
			"count":842,
			"type":"VEC2"
		},
		{
			"bufferView":3,
			"componentType":5123,
			"count":2604,
			"type":"SCALAR"
		},
		{
			"bufferView":4,
			"componentType":5126,
			"count":962,
			"max":[
				0.3589118719100952,
				3.9305148124694824,
				0.9703273773193359
			],
			"min":[
				-0.32088831067085266,
				2.9316110610961914,
				0.2307322919368744
			],
			"type":"VEC3"
		},
		{
			"bufferView":5,
			"componentType":5126,
			"count":962,
			"type":"VEC3"
		},
		{
			"bufferView":6,
			"componentType":5126,
			"count":962,
			"type":"VEC2"
		},
		{
			"bufferView":7,
			"componentType":5123,
			"count":3312,
			"type":"SCALAR"
		},
		{
			"bufferView":8,
			"componentType":5126,
			"count":103,
			"max":[
				0.2900089621543884,
				3.9001424312591553,
				1.0161545276641846
			],
			"min":[
				-0.25198546051979065,
				3.111142158508301,
				0.6553499698638916
			],
			"type":"VEC3"
		},
		{
			"bufferView":9,
			"componentType":5126,
			"count":103,
			"type":"VEC3"
		},
		{
			"bufferView":10,
			"componentType":5126,
			"count":103,
			"type":"VEC2"
		},
		{
			"bufferView":11,
			"componentType":5123,
			"count":510,
			"type":"SCALAR"
		},
		{
			"bufferView":12,
			"componentType":5126,
			"count":1359,
			"max":[
				0.4976665675640106,
				2.2551424503326416,
				0.5482885241508484
			],
			"min":[
				-0.47707757353782654,
				0.48818427324295044,
				-0.6675703525543213
			],
			"type":"VEC3"
		},
		{
			"bufferView":13,
			"componentType":5126,
			"count":1359,
			"type":"VEC3"
		},
		{
			"bufferView":14,
			"componentType":5126,
			"count":1359,
			"type":"VEC2"
		},
		{
			"bufferView":15,
			"componentType":5126,
			"count":1359,
			"type":"VEC2"
		},
		{
			"bufferView":16,
			"componentType":5123,
			"count":3720,
			"type":"SCALAR"
		},
		{
			"bufferView":17,
			"componentType":5126,
			"count":2245,
			"max":[
				0.9521007537841797,
				3.298077344894409,
				1.5716713666915894
			],
			"min":[
				-0.7668290138244629,
				1.7514991760253906,
				-0.17908260226249695
			],
			"type":"VEC3"
		},
		{
			"bufferView":18,
			"componentType":5126,
			"count":2245,
			"type":"VEC3"
		},
		{
			"bufferView":19,
			"componentType":5126,
			"count":2245,
			"type":"VEC2"
		},
		{
			"bufferView":20,
			"componentType":5123,
			"count":4950,
			"type":"SCALAR"
		},
		{
			"bufferView":21,
			"componentType":5126,
			"count":349,
			"max":[
				0.3122401535511017,
				3.8418478965759277,
				0.9453147053718567
			],
			"min":[
				-0.26485544443130493,
				3.0226478576660156,
				0.3302418887615204
			],
			"type":"VEC3"
		},
		{
			"bufferView":22,
			"componentType":5126,
			"count":349,
			"type":"VEC3"
		},
		{
			"bufferView":23,
			"componentType":5126,
			"count":349,
			"type":"VEC2"
		},
		{
			"bufferView":24,
			"componentType":5126,
			"count":349,
			"type":"VEC2"
		},
		{
			"bufferView":25,
			"componentType":5123,
			"count":1680,
			"type":"SCALAR"
		}
	],
	"bufferViews":[
		{
			"buffer":0,
			"byteLength":10104,
			"byteOffset":0,
			"target":34962
		},
		{
			"buffer":0,
			"byteLength":10104,
			"byteOffset":10104,
			"target":34962
		},
		{
			"buffer":0,
			"byteLength":6736,
			"byteOffset":20208,
			"target":34962
		},
		{
			"buffer":0,
			"byteLength":5208,
			"byteOffset":26944,
			"target":34963
		},
		{
			"buffer":0,
			"byteLength":11544,
			"byteOffset":32152,
			"target":34962
		},
		{
			"buffer":0,
			"byteLength":11544,
			"byteOffset":43696,
			"target":34962
		},
		{
			"buffer":0,
			"byteLength":7696,
			"byteOffset":55240,
			"target":34962
		},
		{
			"buffer":0,
			"byteLength":6624,
			"byteOffset":62936,
			"target":34963
		},
		{
			"buffer":0,
			"byteLength":1236,
			"byteOffset":69560,
			"target":34962
		},
		{
			"buffer":0,
			"byteLength":1236,
			"byteOffset":70796,
			"target":34962
		},
		{
			"buffer":0,
			"byteLength":824,
			"byteOffset":72032,
			"target":34962
		},
		{
			"buffer":0,
			"byteLength":1020,
			"byteOffset":72856,
			"target":34963
		},
		{
			"buffer":0,
			"byteLength":16308,
			"byteOffset":73876,
			"target":34962
		},
		{
			"buffer":0,
			"byteLength":16308,
			"byteOffset":90184,
			"target":34962
		},
		{
			"buffer":0,
			"byteLength":10872,
			"byteOffset":106492,
			"target":34962
		},
		{
			"buffer":0,
			"byteLength":10872,
			"byteOffset":117364,
			"target":34962
		},
		{
			"buffer":0,
			"byteLength":7440,
			"byteOffset":128236,
			"target":34963
		},
		{
			"buffer":0,
			"byteLength":26940,
			"byteOffset":135676,
			"target":34962
		},
		{
			"buffer":0,
			"byteLength":26940,
			"byteOffset":162616,
			"target":34962
		},
		{
			"buffer":0,
			"byteLength":17960,
			"byteOffset":189556,
			"target":34962
		},
		{
			"buffer":0,
			"byteLength":9900,
			"byteOffset":207516,
			"target":34963
		},
		{
			"buffer":0,
			"byteLength":4188,
			"byteOffset":217416,
			"target":34962
		},
		{
			"buffer":0,
			"byteLength":4188,
			"byteOffset":221604,
			"target":34962
		},
		{
			"buffer":0,
			"byteLength":2792,
			"byteOffset":225792,
			"target":34962
		},
		{
			"buffer":0,
			"byteLength":2792,
			"byteOffset":228584,
			"target":34962
		},
		{
			"buffer":0,
			"byteLength":3360,
			"byteOffset":231376,
			"target":34963
		}
	],
	"samplers":[
		{
			"magFilter":9729,
			"minFilter":9987
		}
	],
	"buffers":[
		{
			"byteLength":234736,
			"uri":"F_canopus_pose.bin"
		}
	]
}
