{
	"asset":{
		"generator":"Khronos glTF Blender I/O v3.6.27",
		"version":"2.0"
	},
	"scene":0,
	"scenes":[
		{
			"name":"Scene",
			"nodes":[
				0,
				1,
				2,
				3,
				4,
				5
			]
		}
	],
	"nodes":[
		{
			"mesh":0,
			"name":"F_FEET"
		},
		{
			"mesh":1,
			"name":"F_HAT"
		},
		{
			"mesh":2,
			"name":"F_LOWERBODY"
		},
		{
			"mesh":3,
			"name":"F_uBody_BaseMesh.001"
		},
		{
			"mesh":4,
			"name":"F_UPPERBODY."
		},
		{
			"mesh":5,
			"name":"M_head.003"
		}
	],
	"materials":[
		{
			"doubleSided":true,
			"emissiveFactor":[
				0.05000000074505806,
				0.05000000074505806,
				0.05000000074505806
			],
			"emissiveTexture":{
				"index":0
			},
			"name":"orion_atlas",
			"pbrMetallicRoughness":{
				"baseColorTexture":{
					"index":1
				},
				"metallicFactor":0
			}
		},
		{
			"alphaMode":"BLEND",
			"doubleSided":true,
			"name":"orion_atlas_alpha",
			"pbrMetallicRoughness":{
				"baseColorFactor":[
					1,
					1,
					1,
					0.7842323184013367
				],
				"baseColorTexture":{
					"index":2
				},
				"metallicFactor":0
			}
		},
		{
			"emissiveFactor":[
				0.020000000596046452,
				0.022000000208616255,
				0.02500000037252903
			],
			"name":"maniqui",
			"pbrMetallicRoughness":{
				"baseColorFactor":[
					0.4000000059604645,
					0.4399999976158142,
					0.5,
					1
				],
				"metallicFactor":0,
				"roughnessFactor":0.5
			}
		},
		{
			"emissiveFactor":[
				0.020000000596046452,
				0.022000000208616255,
				0.02500000037252903
			],
			"name":"maniqui",
			"pbrMetallicRoughness":{
				"baseColorFactor":[
					0.4000000059604645,
					0.4399999976158142,
					0.5,
					1
				],
				"metallicFactor":0,
				"roughnessFactor":0.5
			}
		}
	],
	"meshes":[
		{
			"name":"Mesh.030",
			"primitives":[
				{
					"attributes":{
						"COLOR_0":0,
						"POSITION":1,
						"NORMAL":2,
						"TEXCOORD_0":3
					},
					"indices":4,
					"material":0
				}
			]
		},
		{
			"name":"Plane.003",
			"primitives":[
				{
					"attributes":{
						"POSITION":5,
						"NORMAL":6,
						"TEXCOORD_0":7,
						"TEXCOORD_1":8
					},
					"indices":9,
					"material":0
				},
				{
					"attributes":{
						"POSITION":10,
						"NORMAL":11,
						"TEXCOORD_0":12,
						"TEXCOORD_1":13
					},
					"indices":14,
					"material":1
				},
				{
					"attributes":{
						"POSITION":15,
						"NORMAL":16,
						"TEXCOORD_0":17,
						"TEXCOORD_1":18
					},
					"indices":19,
					"material":2
				}
			]
		},
		{
			"name":"Mesh.034",
			"primitives":[
				{
					"attributes":{
						"POSITION":20,
						"NORMAL":21,
						"TEXCOORD_0":22
					},
					"indices":23,
					"material":0
				}
			]
		},
		{
			"name":"Mesh.074",
			"primitives":[
				{
					"attributes":{
						"POSITION":24,
						"NORMAL":25,
						"TEXCOORD_0":26
					},
					"indices":27,
					"material":2
				}
			]
		},
		{
			"name":"Plane.004",
			"primitives":[
				{
					"attributes":{
						"POSITION":28,
						"NORMAL":29,
						"TEXCOORD_0":30,
						"TEXCOORD_1":31
					},
					"indices":32,
					"material":0
				}
			]
		},
		{
			"name":"Mesh.075",
			"primitives":[
				{
					"attributes":{
						"POSITION":33,
						"NORMAL":34,
						"TEXCOORD_0":35,
						"TEXCOORD_1":36
					},
					"indices":37,
					"material":3
				}
			]
		}
	],
	"textures":[
		{
			"sampler":0,
			"source":0
		},
		{
			"sampler":0,
			"source":0
		},
		{
			"sampler":0,
			"source":0
		}
	],
	"images":[
		{
			"mimeType":"image/png",
			"name":"orion_atlas",
			"uri":"textures/orion_atlas.png"
		}
	],
	"accessors":[
		{
			"bufferView":0,
			"componentType":5123,
			"count":532,
			"normalized":true,
			"type":"VEC4"
		},
		{
			"bufferView":1,
			"componentType":5126,
			"count":532,
			"max":[
				0.5653202533721924,
				0.7854107022285461,
				-0.02822311967611313
			],
			"min":[
				-0.478219211101532,
				0.08564664423465729,
				-0.8647645711898804
			],
			"type":"VEC3"
		},
		{
			"bufferView":2,
			"componentType":5126,
			"count":532,
			"type":"VEC3"
		},
		{
			"bufferView":3,
			"componentType":5126,
			"count":532,
			"type":"VEC2"
		},
		{
			"bufferView":4,
			"componentType":5123,
			"count":1512,
			"type":"SCALAR"
		},
		{
			"bufferView":5,
			"componentType":5126,
			"count":710,
			"max":[
				0.3558645248413086,
				4.089272499084473,
				1.1340786218643188
			],
			"min":[
				-0.31790125370025635,
				3.068877935409546,
				0.2910022437572479
			],
			"type":"VEC3"
		},
		{
			"bufferView":6,
			"componentType":5126,
			"count":710,
			"type":"VEC3"
		},
		{
			"bufferView":7,
			"componentType":5126,
			"count":710,
			"type":"VEC2"
		},
		{
			"bufferView":8,
			"componentType":5126,
			"count":710,
			"type":"VEC2"
		},
		{
			"bufferView":9,
			"componentType":5123,
			"count":2484,
			"type":"SCALAR"
		},
		{
			"bufferView":10,
			"componentType":5126,
			"count":80,
			"max":[
				0.2925119698047638,
				3.8279948234558105,
				0.9672070741653442
			],
			"min":[
				-0.2545824348926544,
				3.266143798828125,
				0.6100575923919678
			],
			"type":"VEC3"
		},
		{
			"bufferView":11,
			"componentType":5126,
			"count":80,
			"type":"VEC3"
		},
		{
			"bufferView":12,
			"componentType":5126,
			"count":80,
			"type":"VEC2"
		},
		{
			"bufferView":13,
			"componentType":5126,
			"count":80,
			"type":"VEC2"
		},
		{
			"bufferView":14,
			"componentType":5123,
			"count":282,
			"type":"SCALAR"
		},
		{
			"bufferView":15,
			"componentType":5126,
			"count":101,
			"max":[
				0.2664003372192383,
				3.8512938022613525,
				0.9453713297843933
			],
			"min":[
				-0.2313278764486313,
				3.324112892150879,
				0.3246934711933136
			],
			"type":"VEC3"
		},
		{
			"bufferView":16,
			"componentType":5126,
			"count":101,
			"type":"VEC3"
		},
		{
			"bufferView":17,
			"componentType":5126,
			"count":101,
			"type":"VEC2"
		},
		{
			"bufferView":18,
			"componentType":5126,
			"count":101,
			"type":"VEC2"
		},
		{
			"bufferView":19,
			"componentType":5123,
			"count":516,
			"type":"SCALAR"
		},
		{
			"bufferView":20,
			"componentType":5126,
			"count":670,
			"max":[
				0.5625735521316528,
				2.23726487159729,
				0.4969720244407654
			],
			"min":[
				-0.5444236397743225,
				0.4974927604198456,
				-0.6793554425239563
			],
			"type":"VEC3"
		},
		{
			"bufferView":21,
			"componentType":5126,
			"count":670,
			"type":"VEC3"
		},
		{
			"bufferView":22,
			"componentType":5126,
			"count":670,
			"type":"VEC2"
		},
		{
			"bufferView":23,
			"componentType":5123,
			"count":2076,
			"type":"SCALAR"
		},
		{
			"bufferView":24,
			"componentType":5126,
			"count":286,
			"max":[
				0.9420022964477539,
				2.6255152225494385,
				1.5637308359146118
			],
			"min":[
				-0.7588810324668884,
				1.762052297592163,
				-0.03312261402606964
			],
			"type":"VEC3"
		},
		{
			"bufferView":25,
			"componentType":5126,
			"count":286,
			"type":"VEC3"
		},
		{
			"bufferView":26,
			"componentType":5126,
			"count":286,
			"type":"VEC2"
		},
		{
			"bufferView":27,
			"componentType":5123,
			"count":1164,
			"type":"SCALAR"
		},
		{
			"bufferView":28,
			"componentType":5126,
			"count":1369,
			"max":[
				0.9478473663330078,
				3.276564598083496,
				1.4181543588638306
			],
			"min":[
				-0.8094568848609924,
				1.8906793594360352,
				-0.12331314384937286
			],
			"type":"VEC3"
		},
		{
			"bufferView":29,
			"componentType":5126,
			"count":1369,
			"type":"VEC3"
		},
		{
			"bufferView":30,
			"componentType":5126,
			"count":1369,
			"type":"VEC2"
		},
		{
			"bufferView":31,
			"componentType":5126,
			"count":1369,
			"type":"VEC2"
		},
		{
			"bufferView":32,
			"componentType":5123,
			"count":3774,
			"type":"SCALAR"
		},
		{
			"bufferView":33,
			"componentType":5126,
			"count":349,
			"max":[
				0.3122401535511017,
				3.8418478965759277,
				0.9424328207969666
			],
			"min":[
				-0.26485544443130493,
				2.9770779609680176,
				0.34707143902778625
			],
			"type":"VEC3"
		},
		{
			"bufferView":34,
			"componentType":5126,
			"count":349,
			"type":"VEC3"
		},
		{
			"bufferView":35,
			"componentType":5126,
			"count":349,
			"type":"VEC2"
		},
		{
			"bufferView":36,
			"componentType":5126,
			"count":349,
			"type":"VEC2"
		},
		{
			"bufferView":37,
			"componentType":5123,
			"count":1680,
			"type":"SCALAR"
		}
	],
	"bufferViews":[
		{
			"buffer":0,
			"byteLength":4256,
			"byteOffset":0,
			"target":34962
		},
		{
			"buffer":0,
			"byteLength":6384,
			"byteOffset":4256,
			"target":34962
		},
		{
			"buffer":0,
			"byteLength":6384,
			"byteOffset":10640,
			"target":34962
		},
		{
			"buffer":0,
			"byteLength":4256,
			"byteOffset":17024,
			"target":34962
		},
		{
			"buffer":0,
			"byteLength":3024,
			"byteOffset":21280,
			"target":34963
		},
		{
			"buffer":0,
			"byteLength":8520,
			"byteOffset":24304,
			"target":34962
		},
		{
			"buffer":0,
			"byteLength":8520,
			"byteOffset":32824,
			"target":34962
		},
		{
			"buffer":0,
			"byteLength":5680,
			"byteOffset":41344,
			"target":34962
		},
		{
			"buffer":0,
			"byteLength":5680,
			"byteOffset":47024,
			"target":34962
		},
		{
			"buffer":0,
			"byteLength":4968,
			"byteOffset":52704,
			"target":34963
		},
		{
			"buffer":0,
			"byteLength":960,
			"byteOffset":57672,
			"target":34962
		},
		{
			"buffer":0,
			"byteLength":960,
			"byteOffset":58632,
			"target":34962
		},
		{
			"buffer":0,
			"byteLength":640,
			"byteOffset":59592,
			"target":34962
		},
		{
			"buffer":0,
			"byteLength":640,
			"byteOffset":60232,
			"target":34962
		},
		{
			"buffer":0,
			"byteLength":564,
			"byteOffset":60872,
			"target":34963
		},
		{
			"buffer":0,
			"byteLength":1212,
			"byteOffset":61436,
			"target":34962
		},
		{
			"buffer":0,
			"byteLength":1212,
			"byteOffset":62648,
			"target":34962
		},
		{
			"buffer":0,
			"byteLength":808,
			"byteOffset":63860,
			"target":34962
		},
		{
			"buffer":0,
			"byteLength":808,
			"byteOffset":64668,
			"target":34962
		},
		{
			"buffer":0,
			"byteLength":1032,
			"byteOffset":65476,
			"target":34963
		},
		{
			"buffer":0,
			"byteLength":8040,
			"byteOffset":66508,
			"target":34962
		},
		{
			"buffer":0,
			"byteLength":8040,
			"byteOffset":74548,
			"target":34962
		},
		{
			"buffer":0,
			"byteLength":5360,
			"byteOffset":82588,
			"target":34962
		},
		{
			"buffer":0,
			"byteLength":4152,
			"byteOffset":87948,
			"target":34963
		},
		{
			"buffer":0,
			"byteLength":3432,
			"byteOffset":92100,
			"target":34962
		},
		{
			"buffer":0,
			"byteLength":3432,
			"byteOffset":95532,
			"target":34962
		},
		{
			"buffer":0,
			"byteLength":2288,
			"byteOffset":98964,
			"target":34962
		},
		{
			"buffer":0,
			"byteLength":2328,
			"byteOffset":101252,
			"target":34963
		},
		{
			"buffer":0,
			"byteLength":16428,
			"byteOffset":103580,
			"target":34962
		},
		{
			"buffer":0,
			"byteLength":16428,
			"byteOffset":120008,
			"target":34962
		},
		{
			"buffer":0,
			"byteLength":10952,
			"byteOffset":136436,
			"target":34962
		},
		{
			"buffer":0,
			"byteLength":10952,
			"byteOffset":147388,
			"target":34962
		},
		{
			"buffer":0,
			"byteLength":7548,
			"byteOffset":158340,
			"target":34963
		},
		{
			"buffer":0,
			"byteLength":4188,
			"byteOffset":165888,
			"target":34962
		},
		{
			"buffer":0,
			"byteLength":4188,
			"byteOffset":170076,
			"target":34962
		},
		{
			"buffer":0,
			"byteLength":2792,
			"byteOffset":174264,
			"target":34962
		},
		{
			"buffer":0,
			"byteLength":2792,
			"byteOffset":177056,
			"target":34962
		},
		{
			"buffer":0,
			"byteLength":3360,
			"byteOffset":179848,
			"target":34963
		}
	],
	"samplers":[
		{
			"magFilter":9729,
			"minFilter":9987
		}
	],
	"buffers":[
		{
			"byteLength":183208,
			"uri":"F_orion_pose.bin"
		}
	]
}
