{
	"asset":{
		"generator":"Khronos glTF Blender I/O v3.6.27",
		"version":"2.0"
	},
	"scene":0,
	"scenes":[
		{
			"name":"Scene",
			"nodes":[
				0,
				1,
				2,
				3,
				4
			]
		}
	],
	"nodes":[
		{
			"mesh":0,
			"name":"F_PERSEO_FEET"
		},
		{
			"mesh":1,
			"name":"F_PERSEO_LOWER"
		},
		{
			"mesh":2,
			"name":"F_PERSEO_MASK"
		},
		{
			"mesh":3,
			"name":"F_PERSEO_UPPER"
		},
		{
			"mesh":4,
			"name":"M_head.004"
		}
	],
	"materials":[
		{
			"doubleSided":true,
			"emissiveFactor":[
				0.05000000074505806,
				0.05000000074505806,
				0.05000000074505806
			],
			"emissiveTexture":{
				"index":0
			},
			"name":"perseo_atlas",
			"pbrMetallicRoughness":{
				"baseColorTexture":{
					"index":1
				},
				"metallicFactor":0
			}
		},
		{
			"alphaMode":"BLEND",
			"doubleSided":true,
			"emissiveFactor":[
				0.05000000074505806,
				0.05000000074505806,
				0.05000000074505806
			],
			"name":"perseo_atlas_alpha",
			"pbrMetallicRoughness":{
				"baseColorTexture":{
					"index":2
				},
				"metallicFactor":0,
				"roughnessFactor":0.2033194899559021
			}
		},
		{
			"emissiveFactor":[
				0.020000000596046452,
				0.022000000208616255,
				0.02500000037252903
			],
			"name":"maniqui",
			"pbrMetallicRoughness":{
				"baseColorFactor":[
					0.4000000059604645,
					0.4399999976158142,
					0.5,
					1
				],
				"metallicFactor":0,
				"roughnessFactor":0.5
			}
		},
		{
			"emissiveFactor":[
				0.020000000596046452,
				0.022000000208616255,
				0.02500000037252903
			],
			"name":"maniqui",
			"pbrMetallicRoughness":{
				"baseColorFactor":[
					0.4000000059604645,
					0.4399999976158142,
					0.5,
					1
				],
				"metallicFactor":0,
				"roughnessFactor":0.5
			}
		}
	],
	"meshes":[
		{
			"name":"Plane.013",
			"primitives":[
				{
					"attributes":{
						"POSITION":0,
						"NORMAL":1,
						"TEXCOORD_0":2
					},
					"indices":3,
					"material":0
				}
			]
		},
		{
			"name":"Mesh.001",
			"primitives":[
				{
					"attributes":{
						"POSITION":4,
						"NORMAL":5,
						"TEXCOORD_0":6
					},
					"indices":7,
					"material":0
				}
			]
		},
		{
			"name":"Plane.011",
			"primitives":[
				{
					"attributes":{
						"POSITION":8,
						"NORMAL":9,
						"TEXCOORD_0":10,
						"TEXCOORD_1":11
					},
					"indices":12,
					"material":0
				},
				{
					"attributes":{
						"POSITION":13,
						"NORMAL":14,
						"TEXCOORD_0":15,
						"TEXCOORD_1":16
					},
					"indices":17,
					"material":1
				},
				{
					"attributes":{
						"POSITION":18,
						"NORMAL":19,
						"TEXCOORD_0":20,
						"TEXCOORD_1":21
					},
					"indices":22,
					"material":2
				}
			]
		},
		{
			"name":"Plane.012",
			"primitives":[
				{
					"attributes":{
						"POSITION":23,
						"NORMAL":24,
						"TEXCOORD_0":25,
						"TEXCOORD_1":26
					},
					"indices":27,
					"material":0
				}
			]
		},
		{
			"name":"Mesh.002",
			"primitives":[
				{
					"attributes":{
						"POSITION":28,
						"NORMAL":29,
						"TEXCOORD_0":30,
						"TEXCOORD_1":31
					},
					"indices":32,
					"material":3
				}
			]
		}
	],
	"textures":[
		{
			"sampler":0,
			"source":0
		},
		{
			"sampler":0,
			"source":0
		},
		{
			"sampler":0,
			"source":0
		}
	],
	"images":[
		{
			"mimeType":"image/png",
			"name":"perseo_atlas",
			"uri":"textures/perseo_atlas.png"
		}
	],
	"accessors":[
		{
			"bufferView":0,
			"componentType":5126,
			"count":368,
			"max":[
				0.5770359039306641,
				0.7418341040611267,
				-0.0719902515411377
			],
			"min":[
				-0.4863327741622925,
				0.08634746074676514,
				-0.8779492378234863
			],
			"type":"VEC3"
		},
		{
			"bufferView":1,
			"componentType":5126,
			"count":368,
			"type":"VEC3"
		},
		{
			"bufferView":2,
			"componentType":5126,
			"count":368,
			"type":"VEC2"
		},
		{
			"bufferView":3,
			"componentType":5123,
			"count":912,
			"type":"SCALAR"
		},
		{
			"bufferView":4,
			"componentType":5126,
			"count":498,
			"max":[
				0.5504751205444336,
				2.2450881004333496,
				0.5369972586631775
			],
			"min":[
				-0.5244994163513184,
				0.48206204175949097,
				-0.688782274723053
			],
			"type":"VEC3"
		},
		{
			"bufferView":5,
			"componentType":5126,
			"count":498,
			"type":"VEC3"
		},
		{
			"bufferView":6,
			"componentType":5126,
			"count":498,
			"type":"VEC2"
		},
		{
			"bufferView":7,
			"componentType":5123,
			"count":1656,
			"type":"SCALAR"
		},
		{
			"bufferView":8,
			"componentType":5126,
			"count":367,
			"max":[
				0.3469768464565277,
				4.269853591918945,
				0.957412838935852
			],
			"min":[
				-0.30696040391921997,
				3.0513715744018555,
				0.0604587197303772
			],
			"type":"VEC3"
		},
		{
			"bufferView":9,
			"componentType":5126,
			"count":367,
			"type":"VEC3"
		},
		{
			"bufferView":10,
			"componentType":5126,
			"count":367,
			"type":"VEC2"
		},
		{
			"bufferView":11,
			"componentType":5126,
			"count":367,
			"type":"VEC2"
		},
		{
			"bufferView":12,
			"componentType":5123,
			"count":1188,
			"type":"SCALAR"
		},
		{
			"bufferView":13,
			"componentType":5126,
			"count":66,
			"max":[
				0.31329432129859924,
				3.9068856239318848,
				1.0084006786346436
			],
			"min":[
				-0.2732779085636139,
				3.2550458908081055,
				0.32542306184768677
			],
			"type":"VEC3"
		},
		{
			"bufferView":14,
			"componentType":5126,
			"count":66,
			"type":"VEC3"
		},
		{
			"bufferView":15,
			"componentType":5126,
			"count":66,
			"type":"VEC2"
		},
		{
			"bufferView":16,
			"componentType":5126,
			"count":66,
			"type":"VEC2"
		},
		{
			"bufferView":17,
			"componentType":5123,
			"count":192,
			"type":"SCALAR"
		},
		{
			"bufferView":18,
			"componentType":5126,
			"count":101,
			"max":[
				0.2664003074169159,
				3.8506112098693848,
				0.945371150970459
			],
			"min":[
				-0.2313278615474701,
				3.332979917526245,
				0.3247862160205841
			],
			"type":"VEC3"
		},
		{
			"bufferView":19,
			"componentType":5126,
			"count":101,
			"type":"VEC3"
		},
		{
			"bufferView":20,
			"componentType":5126,
			"count":101,
			"type":"VEC2"
		},
		{
			"bufferView":21,
			"componentType":5126,
			"count":101,
			"type":"VEC2"
		},
		{
			"bufferView":22,
			"componentType":5123,
			"count":516,
			"type":"SCALAR"
		},
		{
			"bufferView":23,
			"componentType":5126,
			"count":1421,
			"max":[
				0.9714913368225098,
				3.2019550800323486,
				1.5740110874176025
			],
			"min":[
				-0.7689162492752075,
				1.7526637315750122,
				-0.22887521982192993
			],
			"type":"VEC3"
		},
		{
			"bufferView":24,
			"componentType":5126,
			"count":1421,
			"type":"VEC3"
		},
		{
			"bufferView":25,
			"componentType":5126,
			"count":1421,
			"type":"VEC2"
		},
		{
			"bufferView":26,
			"componentType":5126,
			"count":1421,
			"type":"VEC2"
		},
		{
			"bufferView":27,
			"componentType":5123,
			"count":4404,
			"type":"SCALAR"
		},
		{
			"bufferView":28,
			"componentType":5126,
			"count":349,
			"max":[
				0.31198814511299133,
				3.846773147583008,
				0.9381335377693176
			],
			"min":[
				-0.26369476318359375,
				3.0226478576660156,
				0.3302418887615204
			],
			"type":"VEC3"
		},
		{
			"bufferView":29,
			"componentType":5126,
			"count":349,
			"type":"VEC3"
		},
		{
			"bufferView":30,
			"componentType":5126,
			"count":349,
			"type":"VEC2"
		},
		{
			"bufferView":31,
			"componentType":5126,
			"count":349,
			"type":"VEC2"
		},
		{
			"bufferView":32,
			"componentType":5123,
			"count":1680,
			"type":"SCALAR"
		}
	],
	"bufferViews":[
		{
			"buffer":0,
			"byteLength":4416,
			"byteOffset":0,
			"target":34962
		},
		{
			"buffer":0,
			"byteLength":4416,
			"byteOffset":4416,
			"target":34962
		},
		{
			"buffer":0,
			"byteLength":2944,
			"byteOffset":8832,
			"target":34962
		},
		{
			"buffer":0,
			"byteLength":1824,
			"byteOffset":11776,
			"target":34963
		},
		{
			"buffer":0,
			"byteLength":5976,
			"byteOffset":13600,
			"target":34962
		},
		{
			"buffer":0,
			"byteLength":5976,
			"byteOffset":19576,
			"target":34962
		},
		{
			"buffer":0,
			"byteLength":3984,
			"byteOffset":25552,
			"target":34962
		},
		{
			"buffer":0,
			"byteLength":3312,
			"byteOffset":29536,
			"target":34963
		},
		{
			"buffer":0,
			"byteLength":4404,
			"byteOffset":32848,
			"target":34962
		},
		{
			"buffer":0,
			"byteLength":4404,
			"byteOffset":37252,
			"target":34962
		},
		{
			"buffer":0,
			"byteLength":2936,
			"byteOffset":41656,
			"target":34962
		},
		{
			"buffer":0,
			"byteLength":2936,
			"byteOffset":44592,
			"target":34962
		},
		{
			"buffer":0,
			"byteLength":2376,
			"byteOffset":47528,
			"target":34963
		},
		{
			"buffer":0,
			"byteLength":792,
			"byteOffset":49904,
			"target":34962
		},
		{
			"buffer":0,
			"byteLength":792,
			"byteOffset":50696,
			"target":34962
		},
		{
			"buffer":0,
			"byteLength":528,
			"byteOffset":51488,
			"target":34962
		},
		{
			"buffer":0,
			"byteLength":528,
			"byteOffset":52016,
			"target":34962
		},
		{
			"buffer":0,
			"byteLength":384,
			"byteOffset":52544,
			"target":34963
		},
		{
			"buffer":0,
			"byteLength":1212,
			"byteOffset":52928,
			"target":34962
		},
		{
			"buffer":0,
			"byteLength":1212,
			"byteOffset":54140,
			"target":34962
		},
		{
			"buffer":0,
			"byteLength":808,
			"byteOffset":55352,
			"target":34962
		},
		{
			"buffer":0,
			"byteLength":808,
			"byteOffset":56160,
			"target":34962
		},
		{
			"buffer":0,
			"byteLength":1032,
			"byteOffset":56968,
			"target":34963
		},
		{
			"buffer":0,
			"byteLength":17052,
			"byteOffset":58000,
			"target":34962
		},
		{
			"buffer":0,
			"byteLength":17052,
			"byteOffset":75052,
			"target":34962
		},
		{
			"buffer":0,
			"byteLength":11368,
			"byteOffset":92104,
			"target":34962
		},
		{
			"buffer":0,
			"byteLength":11368,
			"byteOffset":103472,
			"target":34962
		},
		{
			"buffer":0,
			"byteLength":8808,
			"byteOffset":114840,
			"target":34963
		},
		{
			"buffer":0,
			"byteLength":4188,
			"byteOffset":123648,
			"target":34962
		},
		{
			"buffer":0,
			"byteLength":4188,
			"byteOffset":127836,
			"target":34962
		},
		{
			"buffer":0,
			"byteLength":2792,
			"byteOffset":132024,
			"target":34962
		},
		{
			"buffer":0,
			"byteLength":2792,
			"byteOffset":134816,
			"target":34962
		},
		{
			"buffer":0,
			"byteLength":3360,
			"byteOffset":137608,
			"target":34963
		}
	],
	"samplers":[
		{
			"magFilter":9729,
			"minFilter":9987
		}
	],
	"buffers":[
		{
			"byteLength":140968,
			"uri":"F_perseo_pose.bin"
		}
	]
}
