{
	"asset":{
		"generator":"Khronos glTF Blender I/O v3.6.27",
		"version":"2.0"
	},
	"scene":0,
	"scenes":[
		{
			"name":"Scene",
			"nodes":[
				5
			]
		}
	],
	"nodes":[
		{
			"name":"Bone.001",
			"translation":[
				0,
				6.857710361480713,
				0
			]
		},
		{
			"name":"Bone.002",
			"translation":[
				0,
				8.700719833374023,
				0
			]
		},
		{
			"children":[
				0,
				1
			],
			"name":"Bone"
		},
		{
			"mesh":0,
			"name":"node_WaterBase_01_Anim",
			"skin":0
		},
		{
			"mesh":1,
			"name":"node_WaterBase_02_Anim",
			"skin":0
		},
		{
			"children":[
				3,
				4,
				2
			],
			"name":"Armature"
		}
	],
	"animations":[
		{
			"channels":[
				{
					"sampler":0,
					"target":{
						"node":2,
						"path":"translation"
					}
				},
				{
					"sampler":1,
					"target":{
						"node":2,
						"path":"rotation"
					}
				},
				{
					"sampler":2,
					"target":{
						"node":2,
						"path":"scale"
					}
				},
				{
					"sampler":3,
					"target":{
						"node":0,
						"path":"translation"
					}
				},
				{
					"sampler":4,
					"target":{
						"node":0,
						"path":"rotation"
					}
				},
				{
					"sampler":5,
					"target":{
						"node":0,
						"path":"scale"
					}
				},
				{
					"sampler":6,
					"target":{
						"node":1,
						"path":"translation"
					}
				},
				{
					"sampler":7,
					"target":{
						"node":1,
						"path":"rotation"
					}
				},
				{
					"sampler":8,
					"target":{
						"node":1,
						"path":"scale"
					}
				}
			],
			"name":"ArmatureAction",
			"samplers":[
				{
					"input":13,
					"interpolation":"LINEAR",
					"output":14
				},
				{
					"input":13,
					"interpolation":"LINEAR",
					"output":15
				},
				{
					"input":13,
					"interpolation":"LINEAR",
					"output":16
				},
				{
					"input":13,
					"interpolation":"LINEAR",
					"output":17
				},
				{
					"input":13,
					"interpolation":"LINEAR",
					"output":18
				},
				{
					"input":13,
					"interpolation":"LINEAR",
					"output":19
				},
				{
					"input":13,
					"interpolation":"LINEAR",
					"output":20
				},
				{
					"input":13,
					"interpolation":"LINEAR",
					"output":21
				},
				{
					"input":13,
					"interpolation":"LINEAR",
					"output":22
				}
			]
		},
		{
			"channels":[
				{
					"sampler":0,
					"target":{
						"node":3,
						"path":"rotation"
					}
				},
				{
					"sampler":1,
					"target":{
						"node":3,
						"path":"scale"
					}
				},
				{
					"sampler":2,
					"target":{
						"node":4,
						"path":"rotation"
					}
				},
				{
					"sampler":3,
					"target":{
						"node":4,
						"path":"scale"
					}
				}
			],
			"name":"WaterBase_Anim",
			"samplers":[
				{
					"input":23,
					"interpolation":"LINEAR",
					"output":24
				},
				{
					"input":23,
					"interpolation":"LINEAR",
					"output":25
				},
				{
					"input":23,
					"interpolation":"LINEAR",
					"output":26
				},
				{
					"input":23,
					"interpolation":"LINEAR",
					"output":27
				}
			]
		}
	],
	"materials":[
		{
			"alphaMode":"BLEND",
			"doubleSided":true,
			"name":"Water_Mat",
			"pbrMetallicRoughness":{
				"baseColorTexture":{
					"index":0
				},
				"metallicFactor":0,
				"roughnessFactor":0
			}
		}
	],
	"meshes":[
		{
			"name":"mesh_WaterBase_01_Anim_16478WaterBase_01_Anim",
			"primitives":[
				{
					"attributes":{
						"POSITION":0,
						"NORMAL":1,
						"TEXCOORD_0":2,
						"JOINTS_0":3,
						"WEIGHTS_0":4
					},
					"indices":5,
					"material":0
				}
			]
		},
		{
			"name":"mesh_WaterBase_02_Anim_16476WaterBase_02_Anim",
			"primitives":[
				{
					"attributes":{
						"POSITION":7,
						"NORMAL":8,
						"TEXCOORD_0":9,
						"JOINTS_0":10,
						"WEIGHTS_0":11
					},
					"indices":12,
					"material":0
				}
			]
		}
	],
	"textures":[
		{
			"sampler":0,
			"source":0
		}
	],
	"images":[
		{
			"mimeType":"image/png",
			"name":"Water_Albedo",
			"uri":"textures/Water_Albedo.png"
		}
	],
	"skins":[
		{
			"inverseBindMatrices":6,
			"joints":[
				2,
				0,
				1
			],
			"name":"Armature"
		}
	],
	"accessors":[
		{
			"bufferView":0,
			"componentType":5126,
			"count":460,
			"max":[
				10.234819412231445,
				35.55585861206055,
				10.322232246398926
			],
			"min":[
				-10.231072425842285,
				0.7391363382339478,
				-10.143680572509766
			],
			"type":"VEC3"
		},
		{
			"bufferView":1,
			"componentType":5126,
			"count":460,
			"type":"VEC3"
		},
		{
			"bufferView":2,
			"componentType":5126,
			"count":460,
			"type":"VEC2"
		},
		{
			"bufferView":3,
			"componentType":5121,
			"count":460,
			"type":"VEC4"
		},
		{
			"bufferView":4,
			"componentType":5126,
			"count":460,
			"type":"VEC4"
		},
		{
			"bufferView":5,
			"componentType":5123,
			"count":1776,
			"type":"SCALAR"
		},
		{
			"bufferView":6,
			"componentType":5126,
			"count":3,
			"type":"MAT4"
		},
		{
			"bufferView":7,
			"componentType":5126,
			"count":458,
			"max":[
				10.207759857177734,
				35.55915832519531,
				10.208544731140137
			],
			"min":[
				-10.207770347595215,
				0.7391249537467957,
				-10.208529472351074
			],
			"type":"VEC3"
		},
		{
			"bufferView":8,
			"componentType":5126,
			"count":458,
			"type":"VEC3"
		},
		{
			"bufferView":9,
			"componentType":5126,
			"count":458,
			"type":"VEC2"
		},
		{
			"bufferView":10,
			"componentType":5121,
			"count":458,
			"type":"VEC4"
		},
		{
			"bufferView":11,
			"componentType":5126,
			"count":458,
			"type":"VEC4"
		},
		{
			"bufferView":12,
			"componentType":5123,
			"count":1776,
			"type":"SCALAR"
		},
		{
			"bufferView":13,
			"componentType":5126,
			"count":230,
			"max":[
				7.666666666666667
			],
			"min":[
				0.03333333333333333
			],
			"type":"SCALAR"
		},
		{
			"bufferView":14,
			"componentType":5126,
			"count":230,
			"type":"VEC3"
		},
		{
			"bufferView":15,
			"componentType":5126,
			"count":230,
			"type":"VEC4"
		},
		{
			"bufferView":16,
			"componentType":5126,
			"count":230,
			"type":"VEC3"
		},
		{
			"bufferView":17,
			"componentType":5126,
			"count":230,
			"type":"VEC3"
		},
		{
			"bufferView":18,
			"componentType":5126,
			"count":230,
			"type":"VEC4"
		},
		{
			"bufferView":19,
			"componentType":5126,
			"count":230,
			"type":"VEC3"
		},
		{
			"bufferView":20,
			"componentType":5126,
			"count":230,
			"type":"VEC3"
		},
		{
			"bufferView":21,
			"componentType":5126,
			"count":230,
			"type":"VEC4"
		},
		{
			"bufferView":22,
			"componentType":5126,
			"count":230,
			"type":"VEC3"
		},
		{
			"bufferView":23,
			"componentType":5126,
			"count":240,
			"max":[
				7.966666666666667
			],
			"min":[
				0
			],
			"type":"SCALAR"
		},
		{
			"bufferView":24,
			"componentType":5126,
			"count":240,
			"type":"VEC4"
		},
		{
			"bufferView":25,
			"componentType":5126,
			"count":240,
			"type":"VEC3"
		},
		{
			"bufferView":26,
			"componentType":5126,
			"count":240,
			"type":"VEC4"
		},
		{
			"bufferView":27,
			"componentType":5126,
			"count":240,
			"type":"VEC3"
		}
	],
	"bufferViews":[
		{
			"buffer":0,
			"byteLength":5520,
			"byteOffset":0,
			"target":34962
		},
		{
			"buffer":0,
			"byteLength":5520,
			"byteOffset":5520,
			"target":34962
		},
		{
			"buffer":0,
			"byteLength":3680,
			"byteOffset":11040,
			"target":34962
		},
		{
			"buffer":0,
			"byteLength":1840,
			"byteOffset":14720,
			"target":34962
		},
		{
			"buffer":0,
			"byteLength":7360,
			"byteOffset":16560,
			"target":34962
		},
		{
			"buffer":0,
			"byteLength":3552,
			"byteOffset":23920,
			"target":34963
		},
		{
			"buffer":0,
			"byteLength":192,
			"byteOffset":27472
		},
		{
			"buffer":0,
			"byteLength":5496,
			"byteOffset":27664,
			"target":34962
		},
		{
			"buffer":0,
			"byteLength":5496,
			"byteOffset":33160,
			"target":34962
		},
		{
			"buffer":0,
			"byteLength":3664,
			"byteOffset":38656,
			"target":34962
		},
		{
			"buffer":0,
			"byteLength":1832,
			"byteOffset":42320,
			"target":34962
		},
		{
			"buffer":0,
			"byteLength":7328,
			"byteOffset":44152,
			"target":34962
		},
		{
			"buffer":0,
			"byteLength":3552,
			"byteOffset":51480,
			"target":34963
		},
		{
			"buffer":0,
			"byteLength":920,
			"byteOffset":55032
		},
		{
			"buffer":0,
			"byteLength":2760,
			"byteOffset":55952
		},
		{
			"buffer":0,
			"byteLength":3680,
			"byteOffset":58712
		},
		{
			"buffer":0,
			"byteLength":2760,
			"byteOffset":62392
		},
		{
			"buffer":0,
			"byteLength":2760,
			"byteOffset":65152
		},
		{
			"buffer":0,
			"byteLength":3680,
			"byteOffset":67912
		},
		{
			"buffer":0,
			"byteLength":2760,
			"byteOffset":71592
		},
		{
			"buffer":0,
			"byteLength":2760,
			"byteOffset":74352
		},
		{
			"buffer":0,
			"byteLength":3680,
			"byteOffset":77112
		},
		{
			"buffer":0,
			"byteLength":2760,
			"byteOffset":80792
		},
		{
			"buffer":0,
			"byteLength":960,
			"byteOffset":83552
		},
		{
			"buffer":0,
			"byteLength":3840,
			"byteOffset":84512
		},
		{
			"buffer":0,
			"byteLength":2880,
			"byteOffset":88352
		},
		{
			"buffer":0,
			"byteLength":3840,
			"byteOffset":91232
		},
		{
			"buffer":0,
			"byteLength":2880,
			"byteOffset":95072
		}
	],
	"samplers":[
		{
			"magFilter":9729,
			"minFilter":9987
		}
	],
	"buffers":[
		{
			"byteLength":97952,
			"uri":"building_fountain.bin"
		}
	]
}
