{
	"asset":{
		"generator":"Khronos glTF Blender I/O v3.6.27",
		"version":"2.0"
	},
	"scene":0,
	"scenes":[
		{
			"name":"Scene",
			"nodes":[
				6
			]
		}
	],
	"nodes":[
		{
			"name":"root"
		},
		{
			"name":"flag_01",
			"translation":[
				-0.7248061895370483,
				3.514819383621216,
				-1.2030714913180418e-07
			]
		},
		{
			"name":"flag_02",
			"translation":[
				-1.2975071668624878,
				3.514819383621216,
				-1.2030714913180418e-07
			]
		},
		{
			"name":"flag_03",
			"translation":[
				-2.0942912101745605,
				3.514819383621216,
				-1.2030714913180418e-07
			]
		},
		{
			"name":"flag_04",
			"translation":[
				-2.8910281658172607,
				3.514819383621216,
				-1.2030714913180418e-07
			]
		},
		{
			"mesh":0,
			"name":"node_Floor4_BigFlag",
			"skin":0
		},
		{
			"children":[
				5,
				0,
				1,
				2,
				3,
				4
			],
			"name":"ArmatureFlag"
		}
	],
	"animations":[
		{
			"channels":[
				{
					"sampler":0,
					"target":{
						"node":0,
						"path":"translation"
					}
				},
				{
					"sampler":1,
					"target":{
						"node":0,
						"path":"rotation"
					}
				},
				{
					"sampler":2,
					"target":{
						"node":0,
						"path":"scale"
					}
				},
				{
					"sampler":3,
					"target":{
						"node":1,
						"path":"translation"
					}
				},
				{
					"sampler":4,
					"target":{
						"node":1,
						"path":"rotation"
					}
				},
				{
					"sampler":5,
					"target":{
						"node":1,
						"path":"scale"
					}
				},
				{
					"sampler":6,
					"target":{
						"node":2,
						"path":"translation"
					}
				},
				{
					"sampler":7,
					"target":{
						"node":2,
						"path":"rotation"
					}
				},
				{
					"sampler":8,
					"target":{
						"node":2,
						"path":"scale"
					}
				},
				{
					"sampler":9,
					"target":{
						"node":3,
						"path":"translation"
					}
				},
				{
					"sampler":10,
					"target":{
						"node":3,
						"path":"rotation"
					}
				},
				{
					"sampler":11,
					"target":{
						"node":3,
						"path":"scale"
					}
				},
				{
					"sampler":12,
					"target":{
						"node":4,
						"path":"translation"
					}
				},
				{
					"sampler":13,
					"target":{
						"node":4,
						"path":"rotation"
					}
				},
				{
					"sampler":14,
					"target":{
						"node":4,
						"path":"scale"
					}
				}
			],
			"name":"Flag",
			"samplers":[
				{
					"input":19,
					"interpolation":"LINEAR",
					"output":20
				},
				{
					"input":19,
					"interpolation":"LINEAR",
					"output":21
				},
				{
					"input":19,
					"interpolation":"LINEAR",
					"output":22
				},
				{
					"input":19,
					"interpolation":"LINEAR",
					"output":23
				},
				{
					"input":19,
					"interpolation":"LINEAR",
					"output":24
				},
				{
					"input":19,
					"interpolation":"LINEAR",
					"output":25
				},
				{
					"input":19,
					"interpolation":"LINEAR",
					"output":26
				},
				{
					"input":19,
					"interpolation":"LINEAR",
					"output":27
				},
				{
					"input":19,
					"interpolation":"LINEAR",
					"output":28
				},
				{
					"input":19,
					"interpolation":"LINEAR",
					"output":29
				},
				{
					"input":19,
					"interpolation":"LINEAR",
					"output":30
				},
				{
					"input":19,
					"interpolation":"LINEAR",
					"output":31
				},
				{
					"input":19,
					"interpolation":"LINEAR",
					"output":32
				},
				{
					"input":19,
					"interpolation":"LINEAR",
					"output":33
				},
				{
					"input":19,
					"interpolation":"LINEAR",
					"output":34
				}
			]
		}
	],
	"materials":[
		{
			"name":"Default_Material",
			"pbrMetallicRoughness":{
				"baseColorFactor":[
					0.5,
					0.5,
					0.5,
					1
				],
				"metallicFactor":0
			}
		},
		{
			"doubleSided":true,
			"name":"Trim_03_Mat",
			"pbrMetallicRoughness":{
				"baseColorTexture":{
					"index":0
				},
				"metallicFactor":0
			}
		},
		{
			"doubleSided":true,
			"name":"Trim_01_Mat",
			"pbrMetallicRoughness":{
				"baseColorTexture":{
					"index":1
				},
				"metallicFactor":0
			}
		}
	],
	"meshes":[
		{
			"name":"node_Floor4_BigFlag",
			"primitives":[
				{
					"attributes":{
						"POSITION":0,
						"NORMAL":1,
						"TEXCOORD_0":2,
						"JOINTS_0":3,
						"WEIGHTS_0":4
					},
					"indices":5,
					"material":0
				},
				{
					"attributes":{
						"POSITION":6,
						"NORMAL":7,
						"TEXCOORD_0":8,
						"JOINTS_0":9,
						"WEIGHTS_0":10
					},
					"indices":11,
					"material":1
				},
				{
					"attributes":{
						"POSITION":12,
						"NORMAL":13,
						"TEXCOORD_0":14,
						"JOINTS_0":15,
						"WEIGHTS_0":16
					},
					"indices":17,
					"material":2
				}
			]
		}
	],
	"textures":[
		{
			"sampler":0,
			"source":0
		},
		{
			"sampler":0,
			"source":1
		}
	],
	"images":[
		{
			"mimeType":"image/png",
			"name":"Trim_03_Albedo",
			"uri":"textures/Trim_03_Albedo.png"
		},
		{
			"mimeType":"image/png",
			"name":"Trim_01_Albedo",
			"uri":"textures/Trim_01_Albedo.png"
		}
	],
	"skins":[
		{
			"inverseBindMatrices":18,
			"joints":[
				0,
				1,
				2,
				3,
				4
			],
			"name":"ArmatureFlag"
		}
	],
	"accessors":[
		{
			"bufferView":0,
			"componentType":5126,
			"count":40,
			"max":[
				0.27324724197387695,
				-4.522632598876953,
				0.2685585021972656
			],
			"min":[
				-0.2629084587097168,
				-4.920818328857422,
				-0.26760292053222656
			],
			"type":"VEC3"
		},
		{
			"bufferView":1,
			"componentType":5126,
			"count":40,
			"type":"VEC3"
		},
		{
			"bufferView":2,
			"componentType":5126,
			"count":40,
			"type":"VEC2"
		},
		{
			"bufferView":3,
			"componentType":5121,
			"count":40,
			"type":"VEC4"
		},
		{
			"bufferView":4,
			"componentType":5126,
			"count":40,
			"type":"VEC4"
		},
		{
			"bufferView":5,
			"componentType":5123,
			"count":120,
			"type":"SCALAR"
		},
		{
			"bufferView":6,
			"componentType":5126,
			"count":38,
			"max":[
				0.16173602640628815,
				4.1130523681640625,
				0.15704727172851562
			],
			"min":[
				-3.1417808532714844,
				-4.522632598876953,
				-0.15609169006347656
			],
			"type":"VEC3"
		},
		{
			"bufferView":7,
			"componentType":5126,
			"count":38,
			"type":"VEC3"
		},
		{
			"bufferView":8,
			"componentType":5126,
			"count":38,
			"type":"VEC2"
		},
		{
			"bufferView":9,
			"componentType":5121,
			"count":38,
			"type":"VEC4"
		},
		{
			"bufferView":10,
			"componentType":5126,
			"count":38,
			"type":"VEC4"
		},
		{
			"bufferView":11,
			"componentType":5123,
			"count":111,
			"type":"SCALAR"
		},
		{
			"bufferView":12,
			"componentType":5126,
			"count":37,
			"max":[
				0.2614312171936035,
				4.529888153076172,
				0.256744384765625
			],
			"min":[
				-0.25109243392944336,
				4.1130523681640625,
				-0.2557868957519531
			],
			"type":"VEC3"
		},
		{
			"bufferView":13,
			"componentType":5126,
			"count":37,
			"type":"VEC3"
		},
		{
			"bufferView":14,
			"componentType":5126,
			"count":37,
			"type":"VEC2"
		},
		{
			"bufferView":15,
			"componentType":5121,
			"count":37,
			"type":"VEC4"
		},
		{
			"bufferView":16,
			"componentType":5126,
			"count":37,
			"type":"VEC4"
		},
		{
			"bufferView":17,
			"componentType":5123,
			"count":168,
			"type":"SCALAR"
		},
		{
			"bufferView":18,
			"componentType":5126,
			"count":5,
			"type":"MAT4"
		},
		{
			"bufferView":19,
			"componentType":5126,
			"count":41,
			"max":[
				1.3333333333333333
			],
			"min":[
				0
			],
			"type":"SCALAR"
		},
		{
			"bufferView":20,
			"componentType":5126,
			"count":41,
			"type":"VEC3"
		},
		{
			"bufferView":21,
			"componentType":5126,
			"count":41,
			"type":"VEC4"
		},
		{
			"bufferView":22,
			"componentType":5126,
			"count":41,
			"type":"VEC3"
		},
		{
			"bufferView":23,
			"componentType":5126,
			"count":41,
			"type":"VEC3"
		},
		{
			"bufferView":24,
			"componentType":5126,
			"count":41,
			"type":"VEC4"
		},
		{
			"bufferView":25,
			"componentType":5126,
			"count":41,
			"type":"VEC3"
		},
		{
			"bufferView":26,
			"componentType":5126,
			"count":41,
			"type":"VEC3"
		},
		{
			"bufferView":27,
			"componentType":5126,
			"count":41,
			"type":"VEC4"
		},
		{
			"bufferView":28,
			"componentType":5126,
			"count":41,
			"type":"VEC3"
		},
		{
			"bufferView":29,
			"componentType":5126,
			"count":41,
			"type":"VEC3"
		},
		{
			"bufferView":30,
			"componentType":5126,
			"count":41,
			"type":"VEC4"
		},
		{
			"bufferView":31,
			"componentType":5126,
			"count":41,
			"type":"VEC3"
		},
		{
			"bufferView":32,
			"componentType":5126,
			"count":41,
			"type":"VEC3"
		},
		{
			"bufferView":33,
			"componentType":5126,
			"count":41,
			"type":"VEC4"
		},
		{
			"bufferView":34,
			"componentType":5126,
			"count":41,
			"type":"VEC3"
		}
	],
	"bufferViews":[
		{
			"buffer":0,
			"byteLength":480,
			"byteOffset":0,
			"target":34962
		},
		{
			"buffer":0,
			"byteLength":480,
			"byteOffset":480,
			"target":34962
		},
		{
			"buffer":0,
			"byteLength":320,
			"byteOffset":960,
			"target":34962
		},
		{
			"buffer":0,
			"byteLength":160,
			"byteOffset":1280,
			"target":34962
		},
		{
			"buffer":0,
			"byteLength":640,
			"byteOffset":1440,
			"target":34962
		},
		{
			"buffer":0,
			"byteLength":240,
			"byteOffset":2080,
			"target":34963
		},
		{
			"buffer":0,
			"byteLength":456,
			"byteOffset":2320,
			"target":34962
		},
		{
			"buffer":0,
			"byteLength":456,
			"byteOffset":2776,
			"target":34962
		},
		{
			"buffer":0,
			"byteLength":304,
			"byteOffset":3232,
			"target":34962
		},
		{
			"buffer":0,
			"byteLength":152,
			"byteOffset":3536,
			"target":34962
		},
		{
			"buffer":0,
			"byteLength":608,
			"byteOffset":3688,
			"target":34962
		},
		{
			"buffer":0,
			"byteLength":222,
			"byteOffset":4296,
			"target":34963
		},
		{
			"buffer":0,
			"byteLength":444,
			"byteOffset":4520,
			"target":34962
		},
		{
			"buffer":0,
			"byteLength":444,
			"byteOffset":4964,
			"target":34962
		},
		{
			"buffer":0,
			"byteLength":296,
			"byteOffset":5408,
			"target":34962
		},
		{
			"buffer":0,
			"byteLength":148,
			"byteOffset":5704,
			"target":34962
		},
		{
			"buffer":0,
			"byteLength":592,
			"byteOffset":5852,
			"target":34962
		},
		{
			"buffer":0,
			"byteLength":336,
			"byteOffset":6444,
			"target":34963
		},
		{
			"buffer":0,
			"byteLength":320,
			"byteOffset":6780
		},
		{
			"buffer":0,
			"byteLength":164,
			"byteOffset":7100
		},
		{
			"buffer":0,
			"byteLength":492,
			"byteOffset":7264
		},
		{
			"buffer":0,
			"byteLength":656,
			"byteOffset":7756
		},
		{
			"buffer":0,
			"byteLength":492,
			"byteOffset":8412
		},
		{
			"buffer":0,
			"byteLength":492,
			"byteOffset":8904
		},
		{
			"buffer":0,
			"byteLength":656,
			"byteOffset":9396
		},
		{
			"buffer":0,
			"byteLength":492,
			"byteOffset":10052
		},
		{
			"buffer":0,
			"byteLength":492,
			"byteOffset":10544
		},
		{
			"buffer":0,
			"byteLength":656,
			"byteOffset":11036
		},
		{
			"buffer":0,
			"byteLength":492,
			"byteOffset":11692
		},
		{
			"buffer":0,
			"byteLength":492,
			"byteOffset":12184
		},
		{
			"buffer":0,
			"byteLength":656,
			"byteOffset":12676
		},
		{
			"buffer":0,
			"byteLength":492,
			"byteOffset":13332
		},
		{
			"buffer":0,
			"byteLength":492,
			"byteOffset":13824
		},
		{
			"buffer":0,
			"byteLength":656,
			"byteOffset":14316
		},
		{
			"buffer":0,
			"byteLength":492,
			"byteOffset":14972
		}
	],
	"samplers":[
		{
			"magFilter":9729,
			"minFilter":9987
		}
	],
	"buffers":[
		{
			"byteLength":15464,
			"uri":"building_flag.bin"
		}
	]
}
