{
	"asset":{
		"generator":"Khronos glTF Blender I/O v3.6.27",
		"version":"2.0"
	},
	"scene":0,
	"scenes":[
		{
			"name":"Scene",
			"nodes":[
				0,
				1,
				2,
				3
			]
		}
	],
	"nodes":[
		{
			"mesh":0,
			"name":"node_Floor1_Vegetation"
		},
		{
			"mesh":1,
			"name":"node_Floor2_Vegetation1"
		},
		{
			"mesh":2,
			"name":"node_Floor3_Vegetation"
		},
		{
			"mesh":3,
			"name":"node_Floor4_Vegetation"
		}
	],
	"materials":[
		{
			"alphaCutoff":0.5,
			"alphaMode":"MASK",
			"doubleSided":true,
			"name":"Vegetation_01_Mat",
			"pbrMetallicRoughness":{
				"baseColorTexture":{
					"index":0
				},
				"metallicFactor":0
			}
		},
		{
			"doubleSided":true,
			"name":"Palmtree_Mat",
			"pbrMetallicRoughness":{
				"baseColorTexture":{
					"index":1
				},
				"metallicFactor":0
			}
		},
		{
			"name":"Default_Material",
			"pbrMetallicRoughness":{
				"baseColorFactor":[
					0.5,
					0.5,
					0.5,
					1
				],
				"metallicFactor":0
			}
		},
		{
			"name":"Grass_Seamless_Mat",
			"pbrMetallicRoughness":{
				"baseColorTexture":{
					"index":2
				},
				"metallicFactor":0
			}
		},
		{
			"doubleSided":true,
			"name":"Trim_02_Mat",
			"pbrMetallicRoughness":{
				"baseColorTexture":{
					"index":3
				},
				"metallicFactor":0
			}
		}
	],
	"meshes":[
		{
			"name":"new_1",
			"primitives":[
				{
					"attributes":{
						"POSITION":0,
						"NORMAL":1,
						"TEXCOORD_0":2
					},
					"indices":3,
					"material":0
				},
				{
					"attributes":{
						"POSITION":4,
						"NORMAL":5,
						"TEXCOORD_0":6
					},
					"indices":7,
					"material":1
				},
				{
					"attributes":{
						"POSITION":8,
						"NORMAL":9,
						"TEXCOORD_0":10
					},
					"indices":11,
					"material":2
				},
				{
					"attributes":{
						"POSITION":12,
						"NORMAL":13,
						"TEXCOORD_0":14
					},
					"indices":15,
					"material":3
				},
				{
					"attributes":{
						"POSITION":16,
						"NORMAL":17,
						"TEXCOORD_0":18
					},
					"indices":19,
					"material":4
				}
			]
		},
		{
			"name":"new_2",
			"primitives":[
				{
					"attributes":{
						"POSITION":20,
						"NORMAL":21,
						"TEXCOORD_0":22
					},
					"indices":23,
					"material":0
				},
				{
					"attributes":{
						"POSITION":24,
						"NORMAL":25,
						"TEXCOORD_0":26
					},
					"indices":27,
					"material":1
				},
				{
					"attributes":{
						"POSITION":28,
						"NORMAL":29,
						"TEXCOORD_0":30
					},
					"indices":11,
					"material":2
				},
				{
					"attributes":{
						"POSITION":31,
						"NORMAL":32,
						"TEXCOORD_0":33
					},
					"indices":34,
					"material":3
				},
				{
					"attributes":{
						"POSITION":35,
						"NORMAL":36,
						"TEXCOORD_0":37
					},
					"indices":38,
					"material":4
				}
			]
		},
		{
			"name":"new_3",
			"primitives":[
				{
					"attributes":{
						"POSITION":39,
						"NORMAL":40,
						"TEXCOORD_0":41
					},
					"indices":42,
					"material":0
				},
				{
					"attributes":{
						"POSITION":43,
						"NORMAL":44,
						"TEXCOORD_0":45
					},
					"indices":46,
					"material":1
				},
				{
					"attributes":{
						"POSITION":47,
						"NORMAL":48,
						"TEXCOORD_0":49
					},
					"indices":50,
					"material":3
				},
				{
					"attributes":{
						"POSITION":51,
						"NORMAL":52,
						"TEXCOORD_0":53
					},
					"indices":19,
					"material":4
				}
			]
		},
		{
			"name":"new_4",
			"primitives":[
				{
					"attributes":{
						"POSITION":54,
						"NORMAL":55,
						"TEXCOORD_0":56
					},
					"indices":57,
					"material":0
				},
				{
					"attributes":{
						"POSITION":58,
						"NORMAL":59,
						"TEXCOORD_0":60
					},
					"indices":61,
					"material":1
				},
				{
					"attributes":{
						"POSITION":62,
						"NORMAL":63,
						"TEXCOORD_0":64
					},
					"indices":65,
					"material":3
				},
				{
					"attributes":{
						"POSITION":66,
						"NORMAL":67,
						"TEXCOORD_0":68
					},
					"indices":69,
					"material":4
				},
				{
					"attributes":{
						"POSITION":70,
						"NORMAL":71,
						"TEXCOORD_0":72
					},
					"indices":11,
					"material":2
				}
			]
		}
	],
	"textures":[
		{
			"sampler":0,
			"source":0
		},
		{
			"sampler":0,
			"source":1
		},
		{
			"sampler":0,
			"source":2
		},
		{
			"sampler":0,
			"source":3
		}
	],
	"images":[
		{
			"mimeType":"image/png",
			"name":"Foliage_01_Albedo.png",
			"uri":"textures/Foliage_01_Albedo_png.png"
		},
		{
			"mimeType":"image/png",
			"name":"Trim_Palmtree_Albedo.png",
			"uri":"textures/Trim_Palmtree_Albedo_png.png"
		},
		{
			"mimeType":"image/png",
			"name":"Grass_Albedo",
			"uri":"textures/Grass_Albedo.png"
		},
		{
			"mimeType":"image/png",
			"name":"Trim_02_Albedo",
			"uri":"textures/Trim_02_Albedo.png"
		}
	],
	"accessors":[
		{
			"bufferView":0,
			"componentType":5126,
			"count":3823,
			"max":[
				47.25226593017578,
				15.600296020507812,
				-0.03445678576827049
			],
			"min":[
				13.172621726989746,
				3.1301915645599365,
				-35.24860763549805
			],
			"type":"VEC3"
		},
		{
			"bufferView":1,
			"componentType":5126,
			"count":3823,
			"type":"VEC3"
		},
		{
			"bufferView":2,
			"componentType":5126,
			"count":3823,
			"type":"VEC2"
		},
		{
			"bufferView":3,
			"componentType":5123,
			"count":10617,
			"type":"SCALAR"
		},
		{
			"bufferView":4,
			"componentType":5126,
			"count":883,
			"max":[
				46.56521987915039,
				14.36199951171875,
				-0.8169726133346558
			],
			"min":[
				22.23516273498535,
				8.6619873046875,
				-22.74972152709961
			],
			"type":"VEC3"
		},
		{
			"bufferView":5,
			"componentType":5126,
			"count":883,
			"type":"VEC3"
		},
		{
			"bufferView":6,
			"componentType":5126,
			"count":883,
			"type":"VEC2"
		},
		{
			"bufferView":7,
			"componentType":5123,
			"count":3582,
			"type":"SCALAR"
		},
		{
			"bufferView":8,
			"componentType":5126,
			"count":9,
			"max":[
				24.970333099365234,
				8.680152893066406,
				-2.7621514797210693
			],
			"min":[
				24.35213851928711,
				8.6619873046875,
				-3.37770938873291
			],
			"type":"VEC3"
		},
		{
			"bufferView":9,
			"componentType":5126,
			"count":9,
			"type":"VEC3"
		},
		{
			"bufferView":10,
			"componentType":5126,
			"count":9,
			"type":"VEC2"
		},
		{
			"bufferView":11,
			"componentType":5123,
			"count":24,
			"type":"SCALAR"
		},
		{
			"bufferView":12,
			"componentType":5126,
			"count":838,
			"max":[
				46.94905090332031,
				15.260653495788574,
				-0.38699889183044434
			],
			"min":[
				18.34383201599121,
				8.441460609436035,
				-28.749101638793945
			],
			"type":"VEC3"
		},
		{
			"bufferView":13,
			"componentType":5126,
			"count":838,
			"type":"VEC3"
		},
		{
			"bufferView":14,
			"componentType":5126,
			"count":838,
			"type":"VEC2"
		},
		{
			"bufferView":15,
			"componentType":5123,
			"count":3432,
			"type":"SCALAR"
		},
		{
			"bufferView":16,
			"componentType":5126,
			"count":84,
			"max":[
				44.26283264160156,
				8.470602035522461,
				-3.089982271194458
			],
			"min":[
				18.01546859741211,
				8.247551918029785,
				-29.020919799804688
			],
			"type":"VEC3"
		},
		{
			"bufferView":17,
			"componentType":5126,
			"count":84,
			"type":"VEC3"
		},
		{
			"bufferView":18,
			"componentType":5126,
			"count":84,
			"type":"VEC2"
		},
		{
			"bufferView":19,
			"componentType":5123,
			"count":144,
			"type":"SCALAR"
		},
		{
			"bufferView":20,
			"componentType":5126,
			"count":3722,
			"max":[
				36.797603607177734,
				22.090431213378906,
				-12.258952140808105
			],
			"min":[
				1.337756872177124,
				8.677468299865723,
				-46.84621810913086
			],
			"type":"VEC3"
		},
		{
			"bufferView":21,
			"componentType":5126,
			"count":3722,
			"type":"VEC3"
		},
		{
			"bufferView":22,
			"componentType":5126,
			"count":3722,
			"type":"VEC2"
		},
		{
			"bufferView":23,
			"componentType":5123,
			"count":8328,
			"type":"SCALAR"
		},
		{
			"bufferView":24,
			"componentType":5126,
			"count":509,
			"max":[
				20.573917388916016,
				21.005685806274414,
				-28.49013900756836
			],
			"min":[
				3.287498712539673,
				15.575369834899902,
				-45.37029266357422
			],
			"type":"VEC3"
		},
		{
			"bufferView":25,
			"componentType":5126,
			"count":509,
			"type":"VEC3"
		},
		{
			"bufferView":26,
			"componentType":5126,
			"count":509,
			"type":"VEC2"
		},
		{
			"bufferView":27,
			"componentType":5123,
			"count":2067,
			"type":"SCALAR"
		},
		{
			"bufferView":28,
			"componentType":5126,
			"count":9,
			"max":[
				18.638166427612305,
				16.410062789916992,
				-44.731327056884766
			],
			"min":[
				18.00507354736328,
				16.391897201538086,
				-45.37029266357422
			],
			"type":"VEC3"
		},
		{
			"bufferView":29,
			"componentType":5126,
			"count":9,
			"type":"VEC3"
		},
		{
			"bufferView":30,
			"componentType":5126,
			"count":9,
			"type":"VEC2"
		},
		{
			"bufferView":31,
			"componentType":5126,
			"count":419,
			"max":[
				32.478233337402344,
				20.48670768737793,
				-28.165809631347656
			],
			"min":[
				2.97794246673584,
				15.078635215759277,
				-43.02948760986328
			],
			"type":"VEC3"
		},
		{
			"bufferView":32,
			"componentType":5126,
			"count":419,
			"type":"VEC3"
		},
		{
			"bufferView":33,
			"componentType":5126,
			"count":419,
			"type":"VEC2"
		},
		{
			"bufferView":34,
			"componentType":5123,
			"count":1716,
			"type":"SCALAR"
		},
		{
			"bufferView":35,
			"componentType":5126,
			"count":42,
			"max":[
				32.83640670776367,
				15.107775688171387,
				-40.68716049194336
			],
			"min":[
				28.753944396972656,
				14.884726524353027,
				-43.35129928588867
			],
			"type":"VEC3"
		},
		{
			"bufferView":36,
			"componentType":5126,
			"count":42,
			"type":"VEC3"
		},
		{
			"bufferView":37,
			"componentType":5126,
			"count":42,
			"type":"VEC2"
		},
		{
			"bufferView":38,
			"componentType":5123,
			"count":72,
			"type":"SCALAR"
		},
		{
			"bufferView":39,
			"componentType":5126,
			"count":3462,
			"max":[
				36.08804702758789,
				31.417490005493164,
				-0.3334173560142517
			],
			"min":[
				1.0226080417633057,
				18.873382568359375,
				-33.22805404663086
			],
			"type":"VEC3"
		},
		{
			"bufferView":40,
			"componentType":5126,
			"count":3462,
			"type":"VEC3"
		},
		{
			"bufferView":41,
			"componentType":5126,
			"count":3462,
			"type":"VEC2"
		},
		{
			"bufferView":42,
			"componentType":5123,
			"count":7869,
			"type":"SCALAR"
		},
		{
			"bufferView":43,
			"componentType":5126,
			"count":518,
			"max":[
				17.55079460144043,
				31.016197204589844,
				-2.2976431846618652
			],
			"min":[
				2.975989818572998,
				24.873929977416992,
				-16.32417869567871
			],
			"type":"VEC3"
		},
		{
			"bufferView":44,
			"componentType":5126,
			"count":518,
			"type":"VEC3"
		},
		{
			"bufferView":45,
			"componentType":5126,
			"count":518,
			"type":"VEC2"
		},
		{
			"bufferView":46,
			"componentType":5123,
			"count":2091,
			"type":"SCALAR"
		},
		{
			"bufferView":47,
			"componentType":5126,
			"count":443,
			"max":[
				27.8979434967041,
				30.1823673248291,
				-2.619128942489624
			],
			"min":[
				4.178372383117676,
				24.371139526367188,
				-27.022918701171875
			],
			"type":"VEC3"
		},
		{
			"bufferView":48,
			"componentType":5126,
			"count":443,
			"type":"VEC3"
		},
		{
			"bufferView":49,
			"componentType":5126,
			"count":443,
			"type":"VEC2"
		},
		{
			"bufferView":50,
			"componentType":5123,
			"count":1752,
			"type":"SCALAR"
		},
		{
			"bufferView":51,
			"componentType":5126,
			"count":84,
			"max":[
				28.15106964111328,
				24.400279998779297,
				-2.386892080307007
			],
			"min":[
				3.826338529586792,
				24.177230834960938,
				-27.309955596923828
			],
			"type":"VEC3"
		},
		{
			"bufferView":52,
			"componentType":5126,
			"count":84,
			"type":"VEC3"
		},
		{
			"bufferView":53,
			"componentType":5126,
			"count":84,
			"type":"VEC2"
		},
		{
			"bufferView":54,
			"componentType":5126,
			"count":12259,
			"max":[
				47.12950134277344,
				41.54207992553711,
				-13.290067672729492
			],
			"min":[
				12.791797637939453,
				27.83148193359375,
				-47.29597854614258
			],
			"type":"VEC3"
		},
		{
			"bufferView":55,
			"componentType":5126,
			"count":12259,
			"type":"VEC3"
		},
		{
			"bufferView":56,
			"componentType":5126,
			"count":12259,
			"type":"VEC2"
		},
		{
			"bufferView":57,
			"componentType":5123,
			"count":22065,
			"type":"SCALAR"
		},
		{
			"bufferView":58,
			"componentType":5126,
			"count":1027,
			"max":[
				44.36530303955078,
				40.40971374511719,
				-20.39966583251953
			],
			"min":[
				22.18857765197754,
				34.25071716308594,
				-45.3613166809082
			],
			"type":"VEC3"
		},
		{
			"bufferView":59,
			"componentType":5126,
			"count":1027,
			"type":"VEC3"
		},
		{
			"bufferView":60,
			"componentType":5126,
			"count":1027,
			"type":"VEC2"
		},
		{
			"bufferView":61,
			"componentType":5123,
			"count":4158,
			"type":"SCALAR"
		},
		{
			"bufferView":62,
			"componentType":5126,
			"count":846,
			"max":[
				42.776615142822266,
				40.51026153564453,
				-15.843376159667969
			],
			"min":[
				15.923720359802246,
				33.99756622314453,
				-45.72938919067383
			],
			"type":"VEC3"
		},
		{
			"bufferView":63,
			"componentType":5126,
			"count":846,
			"type":"VEC3"
		},
		{
			"bufferView":64,
			"componentType":5126,
			"count":846,
			"type":"VEC2"
		},
		{
			"bufferView":65,
			"componentType":5123,
			"count":3432,
			"type":"SCALAR"
		},
		{
			"bufferView":66,
			"componentType":5126,
			"count":90,
			"max":[
				42.20478057861328,
				34.02670669555664,
				-15.505986213684082
			],
			"min":[
				15.483776092529297,
				33.80365753173828,
				-42.21280288696289
			],
			"type":"VEC3"
		},
		{
			"bufferView":67,
			"componentType":5126,
			"count":90,
			"type":"VEC3"
		},
		{
			"bufferView":68,
			"componentType":5126,
			"count":90,
			"type":"VEC2"
		},
		{
			"bufferView":69,
			"componentType":5123,
			"count":144,
			"type":"SCALAR"
		},
		{
			"bufferView":70,
			"componentType":5126,
			"count":9,
			"max":[
				26.310001373291016,
				34.27396011352539,
				-43.623741149902344
			],
			"min":[
				25.53997230529785,
				34.25071716308594,
				-44.40261459350586
			],
			"type":"VEC3"
		},
		{
			"bufferView":71,
			"componentType":5126,
			"count":9,
			"type":"VEC3"
		},
		{
			"bufferView":72,
			"componentType":5126,
			"count":9,
			"type":"VEC2"
		}
	],
	"bufferViews":[
		{
			"buffer":0,
			"byteLength":45876,
			"byteOffset":0,
			"target":34962
		},
		{
			"buffer":0,
			"byteLength":45876,
			"byteOffset":45876,
			"target":34962
		},
		{
			"buffer":0,
			"byteLength":30584,
			"byteOffset":91752,
			"target":34962
		},
		{
			"buffer":0,
			"byteLength":21234,
			"byteOffset":122336,
			"target":34963
		},
		{
			"buffer":0,
			"byteLength":10596,
			"byteOffset":143572,
			"target":34962
		},
		{
			"buffer":0,
			"byteLength":10596,
			"byteOffset":154168,
			"target":34962
		},
		{
			"buffer":0,
			"byteLength":7064,
			"byteOffset":164764,
			"target":34962
		},
		{
			"buffer":0,
			"byteLength":7164,
			"byteOffset":171828,
			"target":34963
		},
		{
			"buffer":0,
			"byteLength":108,
			"byteOffset":178992,
			"target":34962
		},
		{
			"buffer":0,
			"byteLength":108,
			"byteOffset":179100,
			"target":34962
		},
		{
			"buffer":0,
			"byteLength":72,
			"byteOffset":179208,
			"target":34962
		},
		{
			"buffer":0,
			"byteLength":48,
			"byteOffset":179280,
			"target":34963
		},
		{
			"buffer":0,
			"byteLength":10056,
			"byteOffset":179328,
			"target":34962
		},
		{
			"buffer":0,
			"byteLength":10056,
			"byteOffset":189384,
			"target":34962
		},
		{
			"buffer":0,
			"byteLength":6704,
			"byteOffset":199440,
			"target":34962
		},
		{
			"buffer":0,
			"byteLength":6864,
			"byteOffset":206144,
			"target":34963
		},
		{
			"buffer":0,
			"byteLength":1008,
			"byteOffset":213008,
			"target":34962
		},
		{
			"buffer":0,
			"byteLength":1008,
			"byteOffset":214016,
			"target":34962
		},
		{
			"buffer":0,
			"byteLength":672,
			"byteOffset":215024,
			"target":34962
		},
		{
			"buffer":0,
			"byteLength":288,
			"byteOffset":215696,
			"target":34963
		},
		{
			"buffer":0,
			"byteLength":44664,
			"byteOffset":215984,
			"target":34962
		},
		{
			"buffer":0,
			"byteLength":44664,
			"byteOffset":260648,
			"target":34962
		},
		{
			"buffer":0,
			"byteLength":29776,
			"byteOffset":305312,
			"target":34962
		},
		{
			"buffer":0,
			"byteLength":16656,
			"byteOffset":335088,
			"target":34963
		},
		{
			"buffer":0,
			"byteLength":6108,
			"byteOffset":351744,
			"target":34962
		},
		{
			"buffer":0,
			"byteLength":6108,
			"byteOffset":357852,
			"target":34962
		},
		{
			"buffer":0,
			"byteLength":4072,
			"byteOffset":363960,
			"target":34962
		},
		{
			"buffer":0,
			"byteLength":4134,
			"byteOffset":368032,
			"target":34963
		},
		{
			"buffer":0,
			"byteLength":108,
			"byteOffset":372168,
			"target":34962
		},
		{
			"buffer":0,
			"byteLength":108,
			"byteOffset":372276,
			"target":34962
		},
		{
			"buffer":0,
			"byteLength":72,
			"byteOffset":372384,
			"target":34962
		},
		{
			"buffer":0,
			"byteLength":5028,
			"byteOffset":372456,
			"target":34962
		},
		{
			"buffer":0,
			"byteLength":5028,
			"byteOffset":377484,
			"target":34962
		},
		{
			"buffer":0,
			"byteLength":3352,
			"byteOffset":382512,
			"target":34962
		},
		{
			"buffer":0,
			"byteLength":3432,
			"byteOffset":385864,
			"target":34963
		},
		{
			"buffer":0,
			"byteLength":504,
			"byteOffset":389296,
			"target":34962
		},
		{
			"buffer":0,
			"byteLength":504,
			"byteOffset":389800,
			"target":34962
		},
		{
			"buffer":0,
			"byteLength":336,
			"byteOffset":390304,
			"target":34962
		},
		{
			"buffer":0,
			"byteLength":144,
			"byteOffset":390640,
			"target":34963
		},
		{
			"buffer":0,
			"byteLength":41544,
			"byteOffset":390784,
			"target":34962
		},
		{
			"buffer":0,
			"byteLength":41544,
			"byteOffset":432328,
			"target":34962
		},
		{
			"buffer":0,
			"byteLength":27696,
			"byteOffset":473872,
			"target":34962
		},
		{
			"buffer":0,
			"byteLength":15738,
			"byteOffset":501568,
			"target":34963
		},
		{
			"buffer":0,
			"byteLength":6216,
			"byteOffset":517308,
			"target":34962
		},
		{
			"buffer":0,
			"byteLength":6216,
			"byteOffset":523524,
			"target":34962
		},
		{
			"buffer":0,
			"byteLength":4144,
			"byteOffset":529740,
			"target":34962
		},
		{
			"buffer":0,
			"byteLength":4182,
			"byteOffset":533884,
			"target":34963
		},
		{
			"buffer":0,
			"byteLength":5316,
			"byteOffset":538068,
			"target":34962
		},
		{
			"buffer":0,
			"byteLength":5316,
			"byteOffset":543384,
			"target":34962
		},
		{
			"buffer":0,
			"byteLength":3544,
			"byteOffset":548700,
			"target":34962
		},
		{
			"buffer":0,
			"byteLength":3504,
			"byteOffset":552244,
			"target":34963
		},
		{
			"buffer":0,
			"byteLength":1008,
			"byteOffset":555748,
			"target":34962
		},
		{
			"buffer":0,
			"byteLength":1008,
			"byteOffset":556756,
			"target":34962
		},
		{
			"buffer":0,
			"byteLength":672,
			"byteOffset":557764,
			"target":34962
		},
		{
			"buffer":0,
			"byteLength":147108,
			"byteOffset":558436,
			"target":34962
		},
		{
			"buffer":0,
			"byteLength":147108,
			"byteOffset":705544,
			"target":34962
		},
		{
			"buffer":0,
			"byteLength":98072,
			"byteOffset":852652,
			"target":34962
		},
		{
			"buffer":0,
			"byteLength":44130,
			"byteOffset":950724,
			"target":34963
		},
		{
			"buffer":0,
			"byteLength":12324,
			"byteOffset":994856,
			"target":34962
		},
		{
			"buffer":0,
			"byteLength":12324,
			"byteOffset":1007180,
			"target":34962
		},
		{
			"buffer":0,
			"byteLength":8216,
			"byteOffset":1019504,
			"target":34962
		},
		{
			"buffer":0,
			"byteLength":8316,
			"byteOffset":1027720,
			"target":34963
		},
		{
			"buffer":0,
			"byteLength":10152,
			"byteOffset":1036036,
			"target":34962
		},
		{
			"buffer":0,
			"byteLength":10152,
			"byteOffset":1046188,
			"target":34962
		},
		{
			"buffer":0,
			"byteLength":6768,
			"byteOffset":1056340,
			"target":34962
		},
		{
			"buffer":0,
			"byteLength":6864,
			"byteOffset":1063108,
			"target":34963
		},
		{
			"buffer":0,
			"byteLength":1080,
			"byteOffset":1069972,
			"target":34962
		},
		{
			"buffer":0,
			"byteLength":1080,
			"byteOffset":1071052,
			"target":34962
		},
		{
			"buffer":0,
			"byteLength":720,
			"byteOffset":1072132,
			"target":34962
		},
		{
			"buffer":0,
			"byteLength":288,
			"byteOffset":1072852,
			"target":34963
		},
		{
			"buffer":0,
			"byteLength":108,
			"byteOffset":1073140,
			"target":34962
		},
		{
			"buffer":0,
			"byteLength":108,
			"byteOffset":1073248,
			"target":34962
		},
		{
			"buffer":0,
			"byteLength":72,
			"byteOffset":1073356,
			"target":34962
		}
	],
	"samplers":[
		{
			"magFilter":9729,
			"minFilter":9987
		}
	],
	"buffers":[
		{
			"byteLength":1073428,
			"uri":"building_vegetation.bin"
		}
	]
}
