{
	"asset":{
		"generator":"Khronos glTF Blender I/O v3.6.27",
		"version":"2.0"
	},
	"scene":0,
	"scenes":[
		{
			"name":"Scene",
			"nodes":[
				4
			]
		}
	],
	"nodes":[
		{
			"name":"Mariposa_Ala_L.000",
			"rotation":[
				-1.6948348502410227e-07,
				-6.09865367096063e-08,
				-0.7071069478988647,
				0.7071065902709961
			],
			"translation":[
				0.009026490151882172,
				0.016776999458670616,
				4.793361263466522e-09
			]
		},
		{
			"name":"Mariposa_Ala_R.000",
			"rotation":[
				-1.8019584047124226e-07,
				5.0274191920607336e-08,
				0.7071069478988647,
				0.7071065902709961
			],
			"translation":[
				-0.009026490151882172,
				0.016776999458670616,
				4.5198653708666825e-09
			]
		},
		{
			"children":[
				0,
				1
			],
			"name":"Mariposa_Root.000",
			"rotation":[
				6.339203650895797e-08,
				7.574776361707336e-09,
				5.088690720462098e-16,
				1
			]
		},
		{
			"mesh":0,
			"name":"Butterfly",
			"skin":0
		},
		{
			"children":[
				3,
				2
			],
			"name":"Butterfly_Armature"
		}
	],
	"animations":[
		{
			"channels":[
				{
					"sampler":0,
					"target":{
						"node":2,
						"path":"translation"
					}
				},
				{
					"sampler":1,
					"target":{
						"node":2,
						"path":"rotation"
					}
				},
				{
					"sampler":2,
					"target":{
						"node":2,
						"path":"scale"
					}
				},
				{
					"sampler":3,
					"target":{
						"node":0,
						"path":"translation"
					}
				},
				{
					"sampler":4,
					"target":{
						"node":0,
						"path":"rotation"
					}
				},
				{
					"sampler":5,
					"target":{
						"node":0,
						"path":"scale"
					}
				},
				{
					"sampler":6,
					"target":{
						"node":1,
						"path":"translation"
					}
				},
				{
					"sampler":7,
					"target":{
						"node":1,
						"path":"rotation"
					}
				},
				{
					"sampler":8,
					"target":{
						"node":1,
						"path":"scale"
					}
				}
			],
			"name":"Butterfly_Baked",
			"samplers":[
				{
					"input":7,
					"interpolation":"LINEAR",
					"output":8
				},
				{
					"input":7,
					"interpolation":"LINEAR",
					"output":9
				},
				{
					"input":7,
					"interpolation":"LINEAR",
					"output":10
				},
				{
					"input":7,
					"interpolation":"LINEAR",
					"output":11
				},
				{
					"input":7,
					"interpolation":"LINEAR",
					"output":12
				},
				{
					"input":7,
					"interpolation":"LINEAR",
					"output":13
				},
				{
					"input":7,
					"interpolation":"LINEAR",
					"output":14
				},
				{
					"input":7,
					"interpolation":"LINEAR",
					"output":15
				},
				{
					"input":7,
					"interpolation":"LINEAR",
					"output":16
				}
			]
		}
	],
	"materials":[
		{
			"alphaCutoff":0.5,
			"alphaMode":"MASK",
			"doubleSided":true,
			"name":"butterfly",
			"pbrMetallicRoughness":{
				"baseColorTexture":{
					"index":0
				},
				"metallicFactor":0
			}
		}
	],
	"meshes":[
		{
			"name":"Butterfly.002",
			"primitives":[
				{
					"attributes":{
						"POSITION":0,
						"NORMAL":1,
						"TEXCOORD_0":2,
						"JOINTS_0":3,
						"WEIGHTS_0":4
					},
					"indices":5,
					"material":0
				}
			]
		}
	],
	"textures":[
		{
			"sampler":0,
			"source":0
		}
	],
	"images":[
		{
			"mimeType":"image/png",
			"name":"butterfly",
			"uri":"textures/butterfly.png"
		}
	],
	"skins":[
		{
			"inverseBindMatrices":6,
			"joints":[
				2,
				0,
				1
			],
			"name":"Butterfly_Armature"
		}
	],
	"accessors":[
		{
			"bufferView":0,
			"componentType":5126,
			"count":178,
			"max":[
				0.11671321094036102,
				0.019926905632019043,
				0.08418141305446625
			],
			"min":[
				-0.11671321094036102,
				0.009034514427185059,
				-0.08706792443990707
			],
			"type":"VEC3"
		},
		{
			"bufferView":1,
			"componentType":5126,
			"count":178,
			"type":"VEC3"
		},
		{
			"bufferView":2,
			"componentType":5126,
			"count":178,
			"type":"VEC2"
		},
		{
			"bufferView":3,
			"componentType":5121,
			"count":178,
			"type":"VEC4"
		},
		{
			"bufferView":4,
			"componentType":5126,
			"count":178,
			"type":"VEC4"
		},
		{
			"bufferView":5,
			"componentType":5123,
			"count":282,
			"type":"SCALAR"
		},
		{
			"bufferView":6,
			"componentType":5126,
			"count":3,
			"type":"MAT4"
		},
		{
			"bufferView":7,
			"componentType":5126,
			"count":241,
			"max":[
				8
			],
			"min":[
				0
			],
			"type":"SCALAR"
		},
		{
			"bufferView":8,
			"componentType":5126,
			"count":241,
			"type":"VEC3"
		},
		{
			"bufferView":9,
			"componentType":5126,
			"count":241,
			"type":"VEC4"
		},
		{
			"bufferView":10,
			"componentType":5126,
			"count":241,
			"type":"VEC3"
		},
		{
			"bufferView":11,
			"componentType":5126,
			"count":241,
			"type":"VEC3"
		},
		{
			"bufferView":12,
			"componentType":5126,
			"count":241,
			"type":"VEC4"
		},
		{
			"bufferView":13,
			"componentType":5126,
			"count":241,
			"type":"VEC3"
		},
		{
			"bufferView":14,
			"componentType":5126,
			"count":241,
			"type":"VEC3"
		},
		{
			"bufferView":15,
			"componentType":5126,
			"count":241,
			"type":"VEC4"
		},
		{
			"bufferView":16,
			"componentType":5126,
			"count":241,
			"type":"VEC3"
		}
	],
	"bufferViews":[
		{
			"buffer":0,
			"byteLength":2136,
			"byteOffset":0,
			"target":34962
		},
		{
			"buffer":0,
			"byteLength":2136,
			"byteOffset":2136,
			"target":34962
		},
		{
			"buffer":0,
			"byteLength":1424,
			"byteOffset":4272,
			"target":34962
		},
		{
			"buffer":0,
			"byteLength":712,
			"byteOffset":5696,
			"target":34962
		},
		{
			"buffer":0,
			"byteLength":2848,
			"byteOffset":6408,
			"target":34962
		},
		{
			"buffer":0,
			"byteLength":564,
			"byteOffset":9256,
			"target":34963
		},
		{
			"buffer":0,
			"byteLength":192,
			"byteOffset":9820
		},
		{
			"buffer":0,
			"byteLength":964,
			"byteOffset":10012
		},
		{
			"buffer":0,
			"byteLength":2892,
			"byteOffset":10976
		},
		{
			"buffer":0,
			"byteLength":3856,
			"byteOffset":13868
		},
		{
			"buffer":0,
			"byteLength":2892,
			"byteOffset":17724
		},
		{
			"buffer":0,
			"byteLength":2892,
			"byteOffset":20616
		},
		{
			"buffer":0,
			"byteLength":3856,
			"byteOffset":23508
		},
		{
			"buffer":0,
			"byteLength":2892,
			"byteOffset":27364
		},
		{
			"buffer":0,
			"byteLength":2892,
			"byteOffset":30256
		},
		{
			"buffer":0,
			"byteLength":3856,
			"byteOffset":33148
		},
		{
			"buffer":0,
			"byteLength":2892,
			"byteOffset":37004
		}
	],
	"samplers":[
		{
			"magFilter":9729,
			"minFilter":9987
		}
	],
	"buffers":[
		{
			"byteLength":39896,
			"uri":"butterfly.bin"
		}
	]
}
