{
	"asset":{
		"generator":"Khronos glTF Blender I/O v3.6.27",
		"version":"2.0"
	},
	"scene":0,
	"scenes":[
		{
			"name":"Scene",
			"nodes":[
				0,
				1
			]
		}
	],
	"nodes":[
		{
			"mesh":0,
			"name":"button"
		},
		{
			"mesh":1,
			"name":"button_collider"
		}
	],
	"materials":[
		{
			"doubleSided":true,
			"emissiveFactor":[
				0.15000000596046448,
				0.15000000596046448,
				0.15000000596046448
			],
			"emissiveTexture":{
				"index":0
			},
			"name":"button",
			"pbrMetallicRoughness":{
				"baseColorTexture":{
					"index":1
				},
				"metallicFactor":0.30000001192092896,
				"roughnessFactor":0.5
			}
		},
		{
			"doubleSided":true,
			"name":"border",
			"pbrMetallicRoughness":{
				"baseColorTexture":{
					"index":2
				},
				"metallicFactor":0.30000001192092896,
				"roughnessFactor":0
			}
		}
	],
	"meshes":[
		{
			"name":"Cube.002",
			"primitives":[
				{
					"attributes":{
						"COLOR_0":0,
						"POSITION":1,
						"NORMAL":2,
						"TEXCOORD_0":3
					},
					"indices":4,
					"material":0
				},
				{
					"attributes":{
						"COLOR_0":5,
						"POSITION":6,
						"NORMAL":7,
						"TEXCOORD_0":8
					},
					"indices":9,
					"material":1
				}
			]
		},
		{
			"name":"Cube",
			"primitives":[
				{
					"attributes":{
						"POSITION":10,
						"NORMAL":11,
						"TEXCOORD_0":12
					},
					"indices":13
				}
			]
		}
	],
	"textures":[
		{
			"sampler":0,
			"source":0
		},
		{
			"sampler":0,
			"source":0
		},
		{
			"sampler":0,
			"source":1
		}
	],
	"images":[
		{
			"mimeType":"image/png",
			"name":"Trim_02_Albedo",
			"uri":"textures/Trim_02_Albedo.png"
		},
		{
			"mimeType":"image/png",
			"name":"FloorTiles_Albedo",
			"uri":"textures/FloorTiles_Albedo.png"
		}
	],
	"accessors":[
		{
			"bufferView":0,
			"componentType":5123,
			"count":222,
			"normalized":true,
			"type":"VEC4"
		},
		{
			"bufferView":1,
			"componentType":5126,
			"count":222,
			"max":[
				0.9045653343200684,
				0.25823354721069336,
				0.13624289631843567
			],
			"min":[
				-0.9045653343200684,
				-0.24607643485069275,
				0.015811007469892502
			],
			"type":"VEC3"
		},
		{
			"bufferView":2,
			"componentType":5126,
			"count":222,
			"type":"VEC3"
		},
		{
			"bufferView":3,
			"componentType":5126,
			"count":222,
			"type":"VEC2"
		},
		{
			"bufferView":4,
			"componentType":5123,
			"count":294,
			"type":"SCALAR"
		},
		{
			"bufferView":5,
			"componentType":5123,
			"count":267,
			"normalized":true,
			"type":"VEC4"
		},
		{
			"bufferView":6,
			"componentType":5126,
			"count":267,
			"max":[
				1.0504543781280518,
				0.38740190863609314,
				0.2350582480430603
			],
			"min":[
				-1.0504543781280518,
				-0.37524476647377014,
				0.11313571035861969
			],
			"type":"VEC3"
		},
		{
			"bufferView":7,
			"componentType":5126,
			"count":267,
			"type":"VEC3"
		},
		{
			"bufferView":8,
			"componentType":5126,
			"count":267,
			"type":"VEC2"
		},
		{
			"bufferView":9,
			"componentType":5123,
			"count":774,
			"type":"SCALAR"
		},
		{
			"bufferView":10,
			"componentType":5126,
			"count":24,
			"max":[
				1.054052710533142,
				0.4042383134365082,
				0.24320821464061737
			],
			"min":[
				-1.054052710533142,
				-0.4042383134365082,
				0.04513037949800491
			],
			"type":"VEC3"
		},
		{
			"bufferView":11,
			"componentType":5126,
			"count":24,
			"type":"VEC3"
		},
		{
			"bufferView":12,
			"componentType":5126,
			"count":24,
			"type":"VEC2"
		},
		{
			"bufferView":13,
			"componentType":5123,
			"count":36,
			"type":"SCALAR"
		}
	],
	"bufferViews":[
		{
			"buffer":0,
			"byteLength":1776,
			"byteOffset":0,
			"target":34962
		},
		{
			"buffer":0,
			"byteLength":2664,
			"byteOffset":1776,
			"target":34962
		},
		{
			"buffer":0,
			"byteLength":2664,
			"byteOffset":4440,
			"target":34962
		},
		{
			"buffer":0,
			"byteLength":1776,
			"byteOffset":7104,
			"target":34962
		},
		{
			"buffer":0,
			"byteLength":588,
			"byteOffset":8880,
			"target":34963
		},
		{
			"buffer":0,
			"byteLength":2136,
			"byteOffset":9468,
			"target":34962
		},
		{
			"buffer":0,
			"byteLength":3204,
			"byteOffset":11604,
			"target":34962
		},
		{
			"buffer":0,
			"byteLength":3204,
			"byteOffset":14808,
			"target":34962
		},
		{
			"buffer":0,
			"byteLength":2136,
			"byteOffset":18012,
			"target":34962
		},
		{
			"buffer":0,
			"byteLength":1548,
			"byteOffset":20148,
			"target":34963
		},
		{
			"buffer":0,
			"byteLength":288,
			"byteOffset":21696,
			"target":34962
		},
		{
			"buffer":0,
			"byteLength":288,
			"byteOffset":21984,
			"target":34962
		},
		{
			"buffer":0,
			"byteLength":192,
			"byteOffset":22272,
			"target":34962
		},
		{
			"buffer":0,
			"byteLength":72,
			"byteOffset":22464,
			"target":34963
		}
	],
	"samplers":[
		{
			"magFilter":9729,
			"minFilter":9987
		}
	],
	"buffers":[
		{
			"byteLength":22536,
			"uri":"button_elevator.bin"
		}
	]
}
