{
	"asset":{
		"generator":"Khronos glTF Blender I/O v3.6.27",
		"version":"2.0"
	},
	"scene":0,
	"scenes":[
		{
			"name":"Scene",
			"nodes":[
				0
			]
		}
	],
	"nodes":[
		{
			"mesh":0,
			"name":"Building_collider"
		}
	],
	"meshes":[
		{
			"name":"mesh_Golfcraft_Hq_Collider_17054Golfcraft_Hq_collider",
			"primitives":[
				{
					"attributes":{
						"POSITION":0,
						"NORMAL":1,
						"TEXCOORD_0":2
					},
					"indices":3
				}
			]
		}
	],
	"accessors":[
		{
			"bufferView":0,
			"componentType":5126,
			"count":15217,
			"max":[
				48,
				48.15354537963867,
				0
			],
			"min":[
				0,
				-0.9849129319190979,
				-48
			],
			"type":"VEC3"
		},
		{
			"bufferView":1,
			"componentType":5126,
			"count":15217,
			"type":"VEC3"
		},
		{
			"bufferView":2,
			"componentType":5126,
			"count":15217,
			"type":"VEC2"
		},
		{
			"bufferView":3,
			"componentType":5123,
			"count":39213,
			"type":"SCALAR"
		}
	],
	"bufferViews":[
		{
			"buffer":0,
			"byteLength":182604,
			"byteOffset":0,
			"target":34962
		},
		{
			"buffer":0,
			"byteLength":182604,
			"byteOffset":182604,
			"target":34962
		},
		{
			"buffer":0,
			"byteLength":121736,
			"byteOffset":365208,
			"target":34962
		},
		{
			"buffer":0,
			"byteLength":78426,
			"byteOffset":486944,
			"target":34963
		}
	],
	"buffers":[
		{
			"byteLength":565372,
			"uri":"entire_building_collider.bin"
		}
	]
}
