{
	"asset":{
		"generator":"Khronos glTF Blender I/O v3.6.27",
		"version":"2.0"
	},
	"scene":0,
	"scenes":[
		{
			"name":"Scene",
			"nodes":[
				0
			]
		}
	],
	"nodes":[
		{
			"mesh":0,
			"name":"dragon_fixed"
		}
	],
	"materials":[
		{
			"doubleSided":true,
			"emissiveFactor":[
				0.30000001192092896,
				0.30000001192092896,
				0.30000001192092896
			],
			"emissiveTexture":{
				"index":0
			},
			"name":"MT_Color_Atlas_emission",
			"pbrMetallicRoughness":{
				"baseColorTexture":{
					"index":1
				},
				"metallicFactor":0,
				"roughnessFactor":0.5
			}
		}
	],
	"meshes":[
		{
			"name":"Suzanne.001",
			"primitives":[
				{
					"attributes":{
						"POSITION":0,
						"NORMAL":1,
						"TEXCOORD_0":2
					},
					"indices":3,
					"material":0
				}
			]
		}
	],
	"textures":[
		{
			"sampler":0,
			"source":0
		},
		{
			"sampler":0,
			"source":0
		}
	],
	"images":[
		{
			"mimeType":"image/png",
			"name":"MT_Color_Atlas",
			"uri":"textures/MT_Color_Atlas.png"
		}
	],
	"accessors":[
		{
			"bufferView":0,
			"componentType":5126,
			"count":2858,
			"max":[
				20.525737762451172,
				8.41294002532959,
				-24.26681137084961
			],
			"min":[
				17.523378372192383,
				5.323925971984863,
				-29.14456558227539
			],
			"type":"VEC3"
		},
		{
			"bufferView":1,
			"componentType":5126,
			"count":2858,
			"type":"VEC3"
		},
		{
			"bufferView":2,
			"componentType":5126,
			"count":2858,
			"type":"VEC2"
		},
		{
			"bufferView":3,
			"componentType":5123,
			"count":3477,
			"type":"SCALAR"
		}
	],
	"bufferViews":[
		{
			"buffer":0,
			"byteLength":34296,
			"byteOffset":0,
			"target":34962
		},
		{
			"buffer":0,
			"byteLength":34296,
			"byteOffset":34296,
			"target":34962
		},
		{
			"buffer":0,
			"byteLength":22864,
			"byteOffset":68592,
			"target":34962
		},
		{
			"buffer":0,
			"byteLength":6954,
			"byteOffset":91456,
			"target":34963
		}
	],
	"samplers":[
		{
			"magFilter":9729,
			"minFilter":9987
		}
	],
	"buffers":[
		{
			"byteLength":98412,
			"uri":"event_dragon.bin"
		}
	]
}
