{
	"asset":{
		"generator":"Khronos glTF Blender I/O v3.6.27",
		"version":"2.0"
	},
	"extensionsUsed":[
		"KHR_materials_emissive_strength"
	],
	"scene":0,
	"scenes":[
		{
			"name":"Scene",
			"nodes":[
				0,
				1,
				2,
				3,
				4
			]
		}
	],
	"nodes":[
		{
			"mesh":0,
			"name":"fashion_base"
		},
		{
			"mesh":1,
			"name":"fashion_base_collider"
		},
		{
			"mesh":2,
			"name":"fashion_base_energy_flow",
			"scale":[
				1,
				0,
				1
			],
			"translation":[
				0,
				-0.256228506565094,
				0
			]
		},
		{
			"mesh":3,
			"name":"fashion_base_light_up",
			"translation":[
				0,
				4.712172031402588,
				0
			]
		},
		{
			"mesh":4,
			"name":"fashion_base_light_bottom",
			"scale":[
				1,
				0.5040501356124878,
				1
			],
			"translation":[
				0,
				0.31522148847579956,
				0
			]
		}
	],
	"animations":[
		{
			"channels":[
				{
					"sampler":0,
					"target":{
						"node":2,
						"path":"translation"
					}
				},
				{
					"sampler":1,
					"target":{
						"node":2,
						"path":"scale"
					}
				},
				{
					"sampler":2,
					"target":{
						"node":3,
						"path":"scale"
					}
				},
				{
					"sampler":3,
					"target":{
						"node":4,
						"path":"scale"
					}
				}
			],
			"name":"Scene",
			"samplers":[
				{
					"input":28,
					"interpolation":"LINEAR",
					"output":29
				},
				{
					"input":28,
					"interpolation":"LINEAR",
					"output":30
				},
				{
					"input":28,
					"interpolation":"LINEAR",
					"output":31
				},
				{
					"input":28,
					"interpolation":"LINEAR",
					"output":32
				}
			]
		}
	],
	"materials":[
		{
			"doubleSided":true,
			"name":"CG_VFX_atlas",
			"pbrMetallicRoughness":{
				"baseColorTexture":{
					"index":0
				},
				"metallicFactor":0,
				"roughnessFactor":0.5
			}
		},
		{
			"doubleSided":true,
			"emissiveFactor":[
				1,
				1,
				1
			],
			"emissiveTexture":{
				"index":1
			},
			"name":"CG_VFX_atlas_emission",
			"pbrMetallicRoughness":{
				"baseColorTexture":{
					"index":2
				},
				"metallicFactor":0,
				"roughnessFactor":0.5
			}
		},
		{
			"alphaMode":"BLEND",
			"emissiveFactor":[
				1,
				1,
				1
			],
			"emissiveTexture":{
				"index":3
			},
			"extensions":{
				"KHR_materials_emissive_strength":{
					"emissiveStrength":3
				}
			},
			"name":"CG_VFX_atlas_emission_alpha",
			"pbrMetallicRoughness":{
				"baseColorTexture":{
					"index":4
				},
				"metallicFactor":0,
				"roughnessFactor":0.5
			}
		}
	],
	"meshes":[
		{
			"name":"Cylinder.012",
			"primitives":[
				{
					"attributes":{
						"POSITION":0,
						"NORMAL":1,
						"TEXCOORD_0":2
					},
					"indices":3,
					"material":0
				},
				{
					"attributes":{
						"POSITION":4,
						"NORMAL":5,
						"TEXCOORD_0":6
					},
					"indices":7,
					"material":1
				},
				{
					"attributes":{
						"POSITION":8,
						"NORMAL":9,
						"TEXCOORD_0":10
					},
					"indices":11,
					"material":2
				}
			]
		},
		{
			"name":"Cylinder.013",
			"primitives":[
				{
					"attributes":{
						"POSITION":12,
						"NORMAL":13,
						"TEXCOORD_0":14
					},
					"indices":15
				}
			]
		},
		{
			"name":"Cylinder.001",
			"primitives":[
				{
					"attributes":{
						"POSITION":16,
						"NORMAL":17,
						"TEXCOORD_0":18
					},
					"indices":19,
					"material":2
				}
			]
		},
		{
			"name":"Cylinder.002",
			"primitives":[
				{
					"attributes":{
						"POSITION":20,
						"NORMAL":21,
						"TEXCOORD_0":22
					},
					"indices":23,
					"material":2
				}
			]
		},
		{
			"name":"Cylinder.003",
			"primitives":[
				{
					"attributes":{
						"POSITION":24,
						"NORMAL":25,
						"TEXCOORD_0":26
					},
					"indices":27,
					"material":2
				}
			]
		}
	],
	"textures":[
		{
			"sampler":0,
			"source":0
		},
		{
			"sampler":0,
			"source":0
		},
		{
			"sampler":0,
			"source":0
		},
		{
			"sampler":0,
			"source":0
		},
		{
			"sampler":0,
			"source":0
		}
	],
	"images":[
		{
			"mimeType":"image/png",
			"name":"GC_VFX_atlas",
			"uri":"textures/GC_VFX_atlas.png"
		}
	],
	"accessors":[
		{
			"bufferView":0,
			"componentType":5126,
			"count":696,
			"max":[
				1.38578462600708,
				5.156712532043457,
				1.38578462600708
			],
			"min":[
				-1.38578462600708,
				-3.725290298461914e-09,
				-1.38578462600708
			],
			"type":"VEC3"
		},
		{
			"bufferView":1,
			"componentType":5126,
			"count":696,
			"type":"VEC3"
		},
		{
			"bufferView":2,
			"componentType":5126,
			"count":696,
			"type":"VEC2"
		},
		{
			"bufferView":3,
			"componentType":5123,
			"count":1824,
			"type":"SCALAR"
		},
		{
			"bufferView":4,
			"componentType":5126,
			"count":114,
			"max":[
				1.343462347984314,
				4.6962127685546875,
				1.1078319549560547
			],
			"min":[
				-1.343462347984314,
				0.20238499343395233,
				-1.1078319549560547
			],
			"type":"VEC3"
		},
		{
			"bufferView":5,
			"componentType":5126,
			"count":114,
			"type":"VEC3"
		},
		{
			"bufferView":6,
			"componentType":5126,
			"count":114,
			"type":"VEC2"
		},
		{
			"bufferView":7,
			"componentType":5123,
			"count":276,
			"type":"SCALAR"
		},
		{
			"bufferView":8,
			"componentType":5126,
			"count":143,
			"max":[
				1.1816589832305908,
				4.6962127685546875,
				1.1816589832305908
			],
			"min":[
				-1.1816589832305908,
				0.2934286594390869,
				-1.1816589832305908
			],
			"type":"VEC3"
		},
		{
			"bufferView":9,
			"componentType":5126,
			"count":143,
			"type":"VEC3"
		},
		{
			"bufferView":10,
			"componentType":5126,
			"count":143,
			"type":"VEC2"
		},
		{
			"bufferView":11,
			"componentType":5123,
			"count":576,
			"type":"SCALAR"
		},
		{
			"bufferView":12,
			"componentType":5126,
			"count":48,
			"max":[
				1.3936656713485718,
				5.1888651847839355,
				1.3936656713485718
			],
			"min":[
				-1.3936656713485718,
				0,
				-1.3936656713485718
			],
			"type":"VEC3"
		},
		{
			"bufferView":13,
			"componentType":5126,
			"count":48,
			"type":"VEC3"
		},
		{
			"bufferView":14,
			"componentType":5126,
			"count":48,
			"type":"VEC2"
		},
		{
			"bufferView":15,
			"componentType":5123,
			"count":84,
			"type":"SCALAR"
		},
		{
			"bufferView":16,
			"componentType":5126,
			"count":48,
			"max":[
				0.8663924336433411,
				1.291330099105835,
				0.8663924336433411
			],
			"min":[
				-0.8663924336433411,
				-0.3067217469215393,
				-0.8663924336433411
			],
			"type":"VEC3"
		},
		{
			"bufferView":17,
			"componentType":5126,
			"count":48,
			"type":"VEC3"
		},
		{
			"bufferView":18,
			"componentType":5126,
			"count":48,
			"type":"VEC2"
		},
		{
			"bufferView":19,
			"componentType":5123,
			"count":192,
			"type":"SCALAR"
		},
		{
			"bufferView":20,
			"componentType":5126,
			"count":32,
			"max":[
				0.8902767896652222,
				0,
				0.8902767896652222
			],
			"min":[
				-0.8902767896652222,
				-2.0121288299560547,
				-0.8902767896652222
			],
			"type":"VEC3"
		},
		{
			"bufferView":21,
			"componentType":5126,
			"count":32,
			"type":"VEC3"
		},
		{
			"bufferView":22,
			"componentType":5126,
			"count":32,
			"type":"VEC2"
		},
		{
			"bufferView":23,
			"componentType":5123,
			"count":96,
			"type":"SCALAR"
		},
		{
			"bufferView":24,
			"componentType":5126,
			"count":32,
			"max":[
				0.8869583010673523,
				1.974376916885376,
				0.8869583010673523
			],
			"min":[
				-0.8869583010673523,
				0,
				-0.8869583010673523
			],
			"type":"VEC3"
		},
		{
			"bufferView":25,
			"componentType":5126,
			"count":32,
			"type":"VEC3"
		},
		{
			"bufferView":26,
			"componentType":5126,
			"count":32,
			"type":"VEC2"
		},
		{
			"bufferView":27,
			"componentType":5123,
			"count":96,
			"type":"SCALAR"
		},
		{
			"bufferView":28,
			"componentType":5126,
			"count":121,
			"max":[
				4
			],
			"min":[
				0
			],
			"type":"SCALAR"
		},
		{
			"bufferView":29,
			"componentType":5126,
			"count":121,
			"type":"VEC3"
		},
		{
			"bufferView":30,
			"componentType":5126,
			"count":121,
			"type":"VEC3"
		},
		{
			"bufferView":31,
			"componentType":5126,
			"count":121,
			"type":"VEC3"
		},
		{
			"bufferView":32,
			"componentType":5126,
			"count":121,
			"type":"VEC3"
		}
	],
	"bufferViews":[
		{
			"buffer":0,
			"byteLength":8352,
			"byteOffset":0,
			"target":34962
		},
		{
			"buffer":0,
			"byteLength":8352,
			"byteOffset":8352,
			"target":34962
		},
		{
			"buffer":0,
			"byteLength":5568,
			"byteOffset":16704,
			"target":34962
		},
		{
			"buffer":0,
			"byteLength":3648,
			"byteOffset":22272,
			"target":34963
		},
		{
			"buffer":0,
			"byteLength":1368,
			"byteOffset":25920,
			"target":34962
		},
		{
			"buffer":0,
			"byteLength":1368,
			"byteOffset":27288,
			"target":34962
		},
		{
			"buffer":0,
			"byteLength":912,
			"byteOffset":28656,
			"target":34962
		},
		{
			"buffer":0,
			"byteLength":552,
			"byteOffset":29568,
			"target":34963
		},
		{
			"buffer":0,
			"byteLength":1716,
			"byteOffset":30120,
			"target":34962
		},
		{
			"buffer":0,
			"byteLength":1716,
			"byteOffset":31836,
			"target":34962
		},
		{
			"buffer":0,
			"byteLength":1144,
			"byteOffset":33552,
			"target":34962
		},
		{
			"buffer":0,
			"byteLength":1152,
			"byteOffset":34696,
			"target":34963
		},
		{
			"buffer":0,
			"byteLength":576,
			"byteOffset":35848,
			"target":34962
		},
		{
			"buffer":0,
			"byteLength":576,
			"byteOffset":36424,
			"target":34962
		},
		{
			"buffer":0,
			"byteLength":384,
			"byteOffset":37000,
			"target":34962
		},
		{
			"buffer":0,
			"byteLength":168,
			"byteOffset":37384,
			"target":34963
		},
		{
			"buffer":0,
			"byteLength":576,
			"byteOffset":37552,
			"target":34962
		},
		{
			"buffer":0,
			"byteLength":576,
			"byteOffset":38128,
			"target":34962
		},
		{
			"buffer":0,
			"byteLength":384,
			"byteOffset":38704,
			"target":34962
		},
		{
			"buffer":0,
			"byteLength":384,
			"byteOffset":39088,
			"target":34963
		},
		{
			"buffer":0,
			"byteLength":384,
			"byteOffset":39472,
			"target":34962
		},
		{
			"buffer":0,
			"byteLength":384,
			"byteOffset":39856,
			"target":34962
		},
		{
			"buffer":0,
			"byteLength":256,
			"byteOffset":40240,
			"target":34962
		},
		{
			"buffer":0,
			"byteLength":192,
			"byteOffset":40496,
			"target":34963
		},
		{
			"buffer":0,
			"byteLength":384,
			"byteOffset":40688,
			"target":34962
		},
		{
			"buffer":0,
			"byteLength":384,
			"byteOffset":41072,
			"target":34962
		},
		{
			"buffer":0,
			"byteLength":256,
			"byteOffset":41456,
			"target":34962
		},
		{
			"buffer":0,
			"byteLength":192,
			"byteOffset":41712,
			"target":34963
		},
		{
			"buffer":0,
			"byteLength":484,
			"byteOffset":41904
		},
		{
			"buffer":0,
			"byteLength":1452,
			"byteOffset":42388
		},
		{
			"buffer":0,
			"byteLength":1452,
			"byteOffset":43840
		},
		{
			"buffer":0,
			"byteLength":1452,
			"byteOffset":45292
		},
		{
			"buffer":0,
			"byteLength":1452,
			"byteOffset":46744
		}
	],
	"samplers":[
		{
			"magFilter":9729,
			"minFilter":9987
		}
	],
	"buffers":[
		{
			"byteLength":48196,
			"uri":"fashion_base.bin"
		}
	]
}
