{
	"asset":{
		"generator":"Khronos glTF Blender I/O v3.6.27",
		"version":"2.0"
	},
	"extensionsUsed":[
		"KHR_materials_specular",
		"KHR_materials_ior"
	],
	"scene":0,
	"scenes":[
		{
			"name":"Scene",
			"nodes":[
				0,
				1
			]
		}
	],
	"nodes":[
		{
			"mesh":0,
			"name":"land_jungle_collider"
		},
		{
			"mesh":1,
			"name":"land_jungle"
		}
	],
	"materials":[
		{
			"alphaCutoff":0,
			"alphaMode":"MASK",
			"doubleSided":true,
			"emissiveFactor":[
				0.5,
				0.5,
				0.5
			],
			"emissiveTexture":{
				"index":0
			},
			"extensions":{
				"KHR_materials_specular":{
					"specularColorFactor":[
						0,
						0,
						0
					]
				},
				"KHR_materials_ior":{
					"ior":1.4500000476837158
				}
			},
			"name":"land_jungle",
			"pbrMetallicRoughness":{
				"baseColorTexture":{
					"index":1
				},
				"metallicFactor":0,
				"roughnessFactor":0.4000000059604645
			}
		},
		{
			"name":"WhiteConcrete_Mat",
			"pbrMetallicRoughness":{
				"baseColorTexture":{
					"index":2
				},
				"metallicFactor":0
			}
		}
	],
	"meshes":[
		{
			"name":"Cube.020",
			"primitives":[
				{
					"attributes":{
						"POSITION":0,
						"NORMAL":1,
						"TEXCOORD_0":2
					},
					"indices":3
				}
			]
		},
		{
			"name":"Cube.022",
			"primitives":[
				{
					"attributes":{
						"POSITION":4,
						"NORMAL":5,
						"TEXCOORD_0":6,
						"TEXCOORD_1":7,
						"TEXCOORD_2":8,
						"TEXCOORD_3":9
					},
					"indices":10,
					"material":0
				},
				{
					"attributes":{
						"POSITION":11,
						"NORMAL":12,
						"TEXCOORD_0":13,
						"TEXCOORD_1":14,
						"TEXCOORD_2":15,
						"TEXCOORD_3":16
					},
					"indices":17,
					"material":1
				}
			]
		}
	],
	"textures":[
		{
			"sampler":0,
			"source":0
		},
		{
			"sampler":0,
			"source":0
		},
		{
			"sampler":0,
			"source":1
		}
	],
	"images":[
		{
			"mimeType":"image/png",
			"name":"land_jungle",
			"uri":"textures/land_jungle.png"
		},
		{
			"mimeType":"image/png",
			"name":"Whiteconcrete_Albedo.png",
			"uri":"textures/Whiteconcrete_Albedo_png.png"
		}
	],
	"accessors":[
		{
			"bufferView":0,
			"componentType":5126,
			"count":24,
			"max":[
				0.2960317134857178,
				2.1626172065734863,
				0.2960317134857178
			],
			"min":[
				-0.2960317134857178,
				0,
				-0.2960317134857178
			],
			"type":"VEC3"
		},
		{
			"bufferView":1,
			"componentType":5126,
			"count":24,
			"type":"VEC3"
		},
		{
			"bufferView":2,
			"componentType":5126,
			"count":24,
			"type":"VEC2"
		},
		{
			"bufferView":3,
			"componentType":5123,
			"count":36,
			"type":"SCALAR"
		},
		{
			"bufferView":4,
			"componentType":5126,
			"count":1632,
			"max":[
				0.5624603033065796,
				2.447565793991089,
				0.5750675797462463
			],
			"min":[
				-0.5503790378570557,
				1.4970935583114624,
				-0.3415669798851013
			],
			"type":"VEC3"
		},
		{
			"bufferView":5,
			"componentType":5126,
			"count":1632,
			"type":"VEC3"
		},
		{
			"bufferView":6,
			"componentType":5126,
			"count":1632,
			"type":"VEC2"
		},
		{
			"bufferView":7,
			"componentType":5126,
			"count":1632,
			"type":"VEC2"
		},
		{
			"bufferView":8,
			"componentType":5126,
			"count":1632,
			"type":"VEC2"
		},
		{
			"bufferView":9,
			"componentType":5126,
			"count":1632,
			"type":"VEC2"
		},
		{
			"bufferView":10,
			"componentType":5123,
			"count":4392,
			"type":"SCALAR"
		},
		{
			"bufferView":11,
			"componentType":5126,
			"count":440,
			"max":[
				0.2951141595840454,
				1.4000003337860107,
				0.2951141595840454
			],
			"min":[
				-0.29511377215385437,
				0,
				-0.29511386156082153
			],
			"type":"VEC3"
		},
		{
			"bufferView":12,
			"componentType":5126,
			"count":440,
			"type":"VEC3"
		},
		{
			"bufferView":13,
			"componentType":5126,
			"count":440,
			"type":"VEC2"
		},
		{
			"bufferView":14,
			"componentType":5126,
			"count":440,
			"type":"VEC2"
		},
		{
			"bufferView":15,
			"componentType":5126,
			"count":440,
			"type":"VEC2"
		},
		{
			"bufferView":16,
			"componentType":5126,
			"count":440,
			"type":"VEC2"
		},
		{
			"bufferView":17,
			"componentType":5123,
			"count":708,
			"type":"SCALAR"
		}
	],
	"bufferViews":[
		{
			"buffer":0,
			"byteLength":288,
			"byteOffset":0,
			"target":34962
		},
		{
			"buffer":0,
			"byteLength":288,
			"byteOffset":288,
			"target":34962
		},
		{
			"buffer":0,
			"byteLength":192,
			"byteOffset":576,
			"target":34962
		},
		{
			"buffer":0,
			"byteLength":72,
			"byteOffset":768,
			"target":34963
		},
		{
			"buffer":0,
			"byteLength":19584,
			"byteOffset":840,
			"target":34962
		},
		{
			"buffer":0,
			"byteLength":19584,
			"byteOffset":20424,
			"target":34962
		},
		{
			"buffer":0,
			"byteLength":13056,
			"byteOffset":40008,
			"target":34962
		},
		{
			"buffer":0,
			"byteLength":13056,
			"byteOffset":53064,
			"target":34962
		},
		{
			"buffer":0,
			"byteLength":13056,
			"byteOffset":66120,
			"target":34962
		},
		{
			"buffer":0,
			"byteLength":13056,
			"byteOffset":79176,
			"target":34962
		},
		{
			"buffer":0,
			"byteLength":8784,
			"byteOffset":92232,
			"target":34963
		},
		{
			"buffer":0,
			"byteLength":5280,
			"byteOffset":101016,
			"target":34962
		},
		{
			"buffer":0,
			"byteLength":5280,
			"byteOffset":106296,
			"target":34962
		},
		{
			"buffer":0,
			"byteLength":3520,
			"byteOffset":111576,
			"target":34962
		},
		{
			"buffer":0,
			"byteLength":3520,
			"byteOffset":115096,
			"target":34962
		},
		{
			"buffer":0,
			"byteLength":3520,
			"byteOffset":118616,
			"target":34962
		},
		{
			"buffer":0,
			"byteLength":3520,
			"byteOffset":122136,
			"target":34962
		},
		{
			"buffer":0,
			"byteLength":1416,
			"byteOffset":125656,
			"target":34963
		}
	],
	"samplers":[
		{
			"magFilter":9729,
			"minFilter":9987
		}
	],
	"buffers":[
		{
			"byteLength":127072,
			"uri":"land_jungle.bin"
		}
	]
}
