{
	"asset":{
		"generator":"Khronos glTF Blender I/O v3.6.27",
		"version":"2.0"
	},
	"scene":0,
	"scenes":[
		{
			"name":"Scene",
			"nodes":[
				0,
				1
			]
		}
	],
	"nodes":[
		{
			"mesh":0,
			"name":"land_mountain_collider"
		},
		{
			"mesh":1,
			"name":"land_mountain"
		}
	],
	"materials":[
		{
			"doubleSided":true,
			"name":"land_mountain",
			"pbrMetallicRoughness":{
				"baseColorTexture":{
					"index":0
				},
				"metallicFactor":0,
				"roughnessFactor":0.5
			}
		},
		{
			"name":"WhiteConcrete_Mat",
			"pbrMetallicRoughness":{
				"baseColorTexture":{
					"index":1
				},
				"metallicFactor":0
			}
		}
	],
	"meshes":[
		{
			"name":"Cube.021",
			"primitives":[
				{
					"attributes":{
						"POSITION":0,
						"NORMAL":1,
						"TEXCOORD_0":2
					},
					"indices":3
				}
			]
		},
		{
			"name":"basic_concave_cornerr_glb_ID3.001",
			"primitives":[
				{
					"attributes":{
						"POSITION":4,
						"NORMAL":5,
						"TEXCOORD_0":6,
						"TEXCOORD_1":7
					},
					"indices":8,
					"material":0
				},
				{
					"attributes":{
						"POSITION":9,
						"NORMAL":10,
						"TEXCOORD_0":11,
						"TEXCOORD_1":12
					},
					"indices":13,
					"material":1
				}
			]
		}
	],
	"textures":[
		{
			"sampler":0,
			"source":0
		},
		{
			"sampler":0,
			"source":1
		}
	],
	"images":[
		{
			"mimeType":"image/png",
			"name":"land_mountain",
			"uri":"textures/land_mountain.png"
		},
		{
			"mimeType":"image/png",
			"name":"Whiteconcrete_Albedo.png",
			"uri":"textures/Whiteconcrete_Albedo_png.png"
		}
	],
	"accessors":[
		{
			"bufferView":0,
			"componentType":5126,
			"count":24,
			"max":[
				0.2960317134857178,
				2.1626172065734863,
				0.2960317134857178
			],
			"min":[
				-0.2960317134857178,
				0,
				-0.2960317134857178
			],
			"type":"VEC3"
		},
		{
			"bufferView":1,
			"componentType":5126,
			"count":24,
			"type":"VEC3"
		},
		{
			"bufferView":2,
			"componentType":5126,
			"count":24,
			"type":"VEC2"
		},
		{
			"bufferView":3,
			"componentType":5123,
			"count":36,
			"type":"SCALAR"
		},
		{
			"bufferView":4,
			"componentType":5126,
			"count":2683,
			"max":[
				0.5557935833930969,
				2.4364848136901855,
				0.5668873190879822
			],
			"min":[
				-0.5523166656494141,
				1.4811369180679321,
				-0.34309878945350647
			],
			"type":"VEC3"
		},
		{
			"bufferView":5,
			"componentType":5126,
			"count":2683,
			"type":"VEC3"
		},
		{
			"bufferView":6,
			"componentType":5126,
			"count":2683,
			"type":"VEC2"
		},
		{
			"bufferView":7,
			"componentType":5126,
			"count":2683,
			"type":"VEC2"
		},
		{
			"bufferView":8,
			"componentType":5123,
			"count":6636,
			"type":"SCALAR"
		},
		{
			"bufferView":9,
			"componentType":5126,
			"count":440,
			"max":[
				0.2951142191886902,
				1.4000003337860107,
				0.29511407017707825
			],
			"min":[
				-0.29511383175849915,
				-2.384185791015625e-07,
				-0.2951139807701111
			],
			"type":"VEC3"
		},
		{
			"bufferView":10,
			"componentType":5126,
			"count":440,
			"type":"VEC3"
		},
		{
			"bufferView":11,
			"componentType":5126,
			"count":440,
			"type":"VEC2"
		},
		{
			"bufferView":12,
			"componentType":5126,
			"count":440,
			"type":"VEC2"
		},
		{
			"bufferView":13,
			"componentType":5123,
			"count":708,
			"type":"SCALAR"
		}
	],
	"bufferViews":[
		{
			"buffer":0,
			"byteLength":288,
			"byteOffset":0,
			"target":34962
		},
		{
			"buffer":0,
			"byteLength":288,
			"byteOffset":288,
			"target":34962
		},
		{
			"buffer":0,
			"byteLength":192,
			"byteOffset":576,
			"target":34962
		},
		{
			"buffer":0,
			"byteLength":72,
			"byteOffset":768,
			"target":34963
		},
		{
			"buffer":0,
			"byteLength":32196,
			"byteOffset":840,
			"target":34962
		},
		{
			"buffer":0,
			"byteLength":32196,
			"byteOffset":33036,
			"target":34962
		},
		{
			"buffer":0,
			"byteLength":21464,
			"byteOffset":65232,
			"target":34962
		},
		{
			"buffer":0,
			"byteLength":21464,
			"byteOffset":86696,
			"target":34962
		},
		{
			"buffer":0,
			"byteLength":13272,
			"byteOffset":108160,
			"target":34963
		},
		{
			"buffer":0,
			"byteLength":5280,
			"byteOffset":121432,
			"target":34962
		},
		{
			"buffer":0,
			"byteLength":5280,
			"byteOffset":126712,
			"target":34962
		},
		{
			"buffer":0,
			"byteLength":3520,
			"byteOffset":131992,
			"target":34962
		},
		{
			"buffer":0,
			"byteLength":3520,
			"byteOffset":135512,
			"target":34962
		},
		{
			"buffer":0,
			"byteLength":1416,
			"byteOffset":139032,
			"target":34963
		}
	],
	"samplers":[
		{
			"magFilter":9729,
			"minFilter":9987
		}
	],
	"buffers":[
		{
			"byteLength":140448,
			"uri":"land_mountain.bin"
		}
	]
}
