{
	"asset":{
		"generator":"Khronos glTF Blender I/O v3.6.27",
		"version":"2.0"
	},
	"scene":0,
	"scenes":[
		{
			"name":"Scene",
			"nodes":[
				0,
				1
			]
		}
	],
	"nodes":[
		{
			"mesh":0,
			"name":"land_space_collider"
		},
		{
			"mesh":1,
			"name":"space_land"
		}
	],
	"materials":[
		{
			"doubleSided":true,
			"emissiveFactor":[
				1,
				1,
				1
			],
			"emissiveTexture":{
				"index":0
			},
			"name":"space_land",
			"pbrMetallicRoughness":{
				"baseColorTexture":{
					"index":1
				},
				"metallicFactor":0,
				"roughnessFactor":0.5
			}
		},
		{
			"alphaMode":"BLEND",
			"doubleSided":true,
			"name":"space_land_alpha",
			"pbrMetallicRoughness":{
				"baseColorTexture":{
					"index":2
				},
				"metallicFactor":0,
				"roughnessFactor":0.5
			}
		},
		{
			"doubleSided":true,
			"name":"WhiteConcrete_Mat.2",
			"pbrMetallicRoughness":{
				"baseColorTexture":{
					"index":3
				},
				"metallicFactor":0,
				"roughnessFactor":0.5
			}
		}
	],
	"meshes":[
		{
			"name":"Cube.015",
			"primitives":[
				{
					"attributes":{
						"POSITION":0,
						"NORMAL":1,
						"TEXCOORD_0":2
					},
					"indices":3
				}
			]
		},
		{
			"name":"Sphere.002",
			"primitives":[
				{
					"attributes":{
						"POSITION":4,
						"NORMAL":5,
						"TEXCOORD_0":6,
						"TEXCOORD_1":7,
						"TEXCOORD_2":8
					},
					"indices":9,
					"material":0
				},
				{
					"attributes":{
						"POSITION":10,
						"NORMAL":11,
						"TEXCOORD_0":12,
						"TEXCOORD_1":13,
						"TEXCOORD_2":14
					},
					"indices":15,
					"material":1
				},
				{
					"attributes":{
						"POSITION":16,
						"NORMAL":17,
						"TEXCOORD_0":18,
						"TEXCOORD_1":19,
						"TEXCOORD_2":20
					},
					"indices":21,
					"material":2
				}
			]
		}
	],
	"textures":[
		{
			"sampler":0,
			"source":0
		},
		{
			"sampler":0,
			"source":1
		},
		{
			"sampler":0,
			"source":1
		},
		{
			"sampler":0,
			"source":2
		}
	],
	"images":[
		{
			"mimeType":"image/png",
			"name":"space_land_emission",
			"uri":"textures/space_land_emission.png"
		},
		{
			"mimeType":"image/png",
			"name":"space_land_BC",
			"uri":"textures/space_land_BC.png"
		},
		{
			"mimeType":"image/png",
			"name":"Whiteconcrete_Albedo.png",
			"uri":"textures/Whiteconcrete_Albedo_png.png"
		}
	],
	"accessors":[
		{
			"bufferView":0,
			"componentType":5126,
			"count":24,
			"max":[
				0.2960317134857178,
				2.1626172065734863,
				0.2960317134857178
			],
			"min":[
				-0.2960317134857178,
				0,
				-0.2960317134857178
			],
			"type":"VEC3"
		},
		{
			"bufferView":1,
			"componentType":5126,
			"count":24,
			"type":"VEC3"
		},
		{
			"bufferView":2,
			"componentType":5126,
			"count":24,
			"type":"VEC2"
		},
		{
			"bufferView":3,
			"componentType":5123,
			"count":36,
			"type":"SCALAR"
		},
		{
			"bufferView":4,
			"componentType":5126,
			"count":1280,
			"max":[
				0.5661790370941162,
				2.4437990188598633,
				0.5771136283874512
			],
			"min":[
				-0.5661790370941162,
				1.476915717124939,
				-0.3513526916503906
			],
			"type":"VEC3"
		},
		{
			"bufferView":5,
			"componentType":5126,
			"count":1280,
			"type":"VEC3"
		},
		{
			"bufferView":6,
			"componentType":5126,
			"count":1280,
			"type":"VEC2"
		},
		{
			"bufferView":7,
			"componentType":5126,
			"count":1280,
			"type":"VEC2"
		},
		{
			"bufferView":8,
			"componentType":5126,
			"count":1280,
			"type":"VEC2"
		},
		{
			"bufferView":9,
			"componentType":5123,
			"count":3684,
			"type":"SCALAR"
		},
		{
			"bufferView":10,
			"componentType":5126,
			"count":42,
			"max":[
				-0.15270687639713287,
				2.255063772201538,
				0.48955661058425903
			],
			"min":[
				-0.2926344871520996,
				2.1311967372894287,
				0.37860268354415894
			],
			"type":"VEC3"
		},
		{
			"bufferView":11,
			"componentType":5126,
			"count":42,
			"type":"VEC3"
		},
		{
			"bufferView":12,
			"componentType":5126,
			"count":42,
			"type":"VEC2"
		},
		{
			"bufferView":13,
			"componentType":5126,
			"count":42,
			"type":"VEC2"
		},
		{
			"bufferView":14,
			"componentType":5126,
			"count":42,
			"type":"VEC2"
		},
		{
			"bufferView":15,
			"componentType":5123,
			"count":168,
			"type":"SCALAR"
		},
		{
			"bufferView":16,
			"componentType":5126,
			"count":440,
			"max":[
				0.2951141595840454,
				1.4000003337860107,
				0.2951141595840454
			],
			"min":[
				-0.29511377215385437,
				0,
				-0.29511386156082153
			],
			"type":"VEC3"
		},
		{
			"bufferView":17,
			"componentType":5126,
			"count":440,
			"type":"VEC3"
		},
		{
			"bufferView":18,
			"componentType":5126,
			"count":440,
			"type":"VEC2"
		},
		{
			"bufferView":19,
			"componentType":5126,
			"count":440,
			"type":"VEC2"
		},
		{
			"bufferView":20,
			"componentType":5126,
			"count":440,
			"type":"VEC2"
		},
		{
			"bufferView":21,
			"componentType":5123,
			"count":708,
			"type":"SCALAR"
		}
	],
	"bufferViews":[
		{
			"buffer":0,
			"byteLength":288,
			"byteOffset":0,
			"target":34962
		},
		{
			"buffer":0,
			"byteLength":288,
			"byteOffset":288,
			"target":34962
		},
		{
			"buffer":0,
			"byteLength":192,
			"byteOffset":576,
			"target":34962
		},
		{
			"buffer":0,
			"byteLength":72,
			"byteOffset":768,
			"target":34963
		},
		{
			"buffer":0,
			"byteLength":15360,
			"byteOffset":840,
			"target":34962
		},
		{
			"buffer":0,
			"byteLength":15360,
			"byteOffset":16200,
			"target":34962
		},
		{
			"buffer":0,
			"byteLength":10240,
			"byteOffset":31560,
			"target":34962
		},
		{
			"buffer":0,
			"byteLength":10240,
			"byteOffset":41800,
			"target":34962
		},
		{
			"buffer":0,
			"byteLength":10240,
			"byteOffset":52040,
			"target":34962
		},
		{
			"buffer":0,
			"byteLength":7368,
			"byteOffset":62280,
			"target":34963
		},
		{
			"buffer":0,
			"byteLength":504,
			"byteOffset":69648,
			"target":34962
		},
		{
			"buffer":0,
			"byteLength":504,
			"byteOffset":70152,
			"target":34962
		},
		{
			"buffer":0,
			"byteLength":336,
			"byteOffset":70656,
			"target":34962
		},
		{
			"buffer":0,
			"byteLength":336,
			"byteOffset":70992,
			"target":34962
		},
		{
			"buffer":0,
			"byteLength":336,
			"byteOffset":71328,
			"target":34962
		},
		{
			"buffer":0,
			"byteLength":336,
			"byteOffset":71664,
			"target":34963
		},
		{
			"buffer":0,
			"byteLength":5280,
			"byteOffset":72000,
			"target":34962
		},
		{
			"buffer":0,
			"byteLength":5280,
			"byteOffset":77280,
			"target":34962
		},
		{
			"buffer":0,
			"byteLength":3520,
			"byteOffset":82560,
			"target":34962
		},
		{
			"buffer":0,
			"byteLength":3520,
			"byteOffset":86080,
			"target":34962
		},
		{
			"buffer":0,
			"byteLength":3520,
			"byteOffset":89600,
			"target":34962
		},
		{
			"buffer":0,
			"byteLength":1416,
			"byteOffset":93120,
			"target":34963
		}
	],
	"samplers":[
		{
			"magFilter":9729,
			"minFilter":9987
		}
	],
	"buffers":[
		{
			"byteLength":94536,
			"uri":"land_space.bin"
		}
	]
}
