{
	"asset":{
		"generator":"Khronos glTF Blender I/O v3.6.27",
		"version":"2.0"
	},
	"scene":0,
	"scenes":[
		{
			"name":"Scene",
			"nodes":[
				0,
				1
			]
		}
	],
	"nodes":[
		{
			"mesh":0,
			"name":"land_urban_collider"
		},
		{
			"mesh":1,
			"name":"land_urban"
		}
	],
	"materials":[
		{
			"name":"WhiteConcrete_Mat",
			"pbrMetallicRoughness":{
				"baseColorTexture":{
					"index":0
				},
				"metallicFactor":0
			}
		},
		{
			"doubleSided":true,
			"name":"land_urban",
			"pbrMetallicRoughness":{
				"baseColorTexture":{
					"index":1
				},
				"metallicFactor":0,
				"roughnessFactor":0.5
			}
		}
	],
	"meshes":[
		{
			"name":"Cube.019",
			"primitives":[
				{
					"attributes":{
						"POSITION":0,
						"NORMAL":1,
						"TEXCOORD_0":2
					},
					"indices":3
				}
			]
		},
		{
			"name":"Sphere.004",
			"primitives":[
				{
					"attributes":{
						"POSITION":4,
						"NORMAL":5,
						"TEXCOORD_0":6,
						"TEXCOORD_1":7,
						"TEXCOORD_2":8
					},
					"indices":9,
					"material":0
				},
				{
					"attributes":{
						"POSITION":10,
						"NORMAL":11,
						"TEXCOORD_0":12,
						"TEXCOORD_1":13,
						"TEXCOORD_2":14
					},
					"indices":15,
					"material":1
				}
			]
		}
	],
	"textures":[
		{
			"sampler":0,
			"source":0
		},
		{
			"sampler":0,
			"source":1
		}
	],
	"images":[
		{
			"mimeType":"image/png",
			"name":"Whiteconcrete_Albedo.png",
			"uri":"textures/Whiteconcrete_Albedo_png.png"
		},
		{
			"mimeType":"image/png",
			"name":"land_urban",
			"uri":"textures/land_urban.png"
		}
	],
	"accessors":[
		{
			"bufferView":0,
			"componentType":5126,
			"count":24,
			"max":[
				0.2960317134857178,
				2.1626172065734863,
				0.2960317134857178
			],
			"min":[
				-0.2960317134857178,
				0,
				-0.2960317134857178
			],
			"type":"VEC3"
		},
		{
			"bufferView":1,
			"componentType":5126,
			"count":24,
			"type":"VEC3"
		},
		{
			"bufferView":2,
			"componentType":5126,
			"count":24,
			"type":"VEC2"
		},
		{
			"bufferView":3,
			"componentType":5123,
			"count":36,
			"type":"SCALAR"
		},
		{
			"bufferView":4,
			"componentType":5126,
			"count":468,
			"max":[
				0.2951141595840454,
				1.4000003337860107,
				0.2951141595840454
			],
			"min":[
				-0.29511377215385437,
				0,
				-0.29511386156082153
			],
			"type":"VEC3"
		},
		{
			"bufferView":5,
			"componentType":5126,
			"count":468,
			"type":"VEC3"
		},
		{
			"bufferView":6,
			"componentType":5126,
			"count":468,
			"type":"VEC2"
		},
		{
			"bufferView":7,
			"componentType":5126,
			"count":468,
			"type":"VEC2"
		},
		{
			"bufferView":8,
			"componentType":5126,
			"count":468,
			"type":"VEC2"
		},
		{
			"bufferView":9,
			"componentType":5123,
			"count":708,
			"type":"SCALAR"
		},
		{
			"bufferView":10,
			"componentType":5126,
			"count":1232,
			"max":[
				0.566840410232544,
				2.45275616645813,
				0.5820066928863525
			],
			"min":[
				-0.561684250831604,
				1.4854687452316284,
				-0.344521164894104
			],
			"type":"VEC3"
		},
		{
			"bufferView":11,
			"componentType":5126,
			"count":1232,
			"type":"VEC3"
		},
		{
			"bufferView":12,
			"componentType":5126,
			"count":1232,
			"type":"VEC2"
		},
		{
			"bufferView":13,
			"componentType":5126,
			"count":1232,
			"type":"VEC2"
		},
		{
			"bufferView":14,
			"componentType":5126,
			"count":1232,
			"type":"VEC2"
		},
		{
			"bufferView":15,
			"componentType":5123,
			"count":3390,
			"type":"SCALAR"
		}
	],
	"bufferViews":[
		{
			"buffer":0,
			"byteLength":288,
			"byteOffset":0,
			"target":34962
		},
		{
			"buffer":0,
			"byteLength":288,
			"byteOffset":288,
			"target":34962
		},
		{
			"buffer":0,
			"byteLength":192,
			"byteOffset":576,
			"target":34962
		},
		{
			"buffer":0,
			"byteLength":72,
			"byteOffset":768,
			"target":34963
		},
		{
			"buffer":0,
			"byteLength":5616,
			"byteOffset":840,
			"target":34962
		},
		{
			"buffer":0,
			"byteLength":5616,
			"byteOffset":6456,
			"target":34962
		},
		{
			"buffer":0,
			"byteLength":3744,
			"byteOffset":12072,
			"target":34962
		},
		{
			"buffer":0,
			"byteLength":3744,
			"byteOffset":15816,
			"target":34962
		},
		{
			"buffer":0,
			"byteLength":3744,
			"byteOffset":19560,
			"target":34962
		},
		{
			"buffer":0,
			"byteLength":1416,
			"byteOffset":23304,
			"target":34963
		},
		{
			"buffer":0,
			"byteLength":14784,
			"byteOffset":24720,
			"target":34962
		},
		{
			"buffer":0,
			"byteLength":14784,
			"byteOffset":39504,
			"target":34962
		},
		{
			"buffer":0,
			"byteLength":9856,
			"byteOffset":54288,
			"target":34962
		},
		{
			"buffer":0,
			"byteLength":9856,
			"byteOffset":64144,
			"target":34962
		},
		{
			"buffer":0,
			"byteLength":9856,
			"byteOffset":74000,
			"target":34962
		},
		{
			"buffer":0,
			"byteLength":6780,
			"byteOffset":83856,
			"target":34963
		}
	],
	"samplers":[
		{
			"magFilter":9729,
			"minFilter":9987
		}
	],
	"buffers":[
		{
			"byteLength":90636,
			"uri":"land_urban.bin"
		}
	]
}
