{
	"asset":{
		"generator":"Khronos glTF Blender I/O v3.6.27",
		"version":"2.0"
	},
	"scene":0,
	"scenes":[
		{
			"name":"Scene",
			"nodes":[
				15
			]
		}
	],
	"nodes":[
		{
			"name":"shine.001",
			"translation":[
				0.8699289560317993,
				0.3146090507507324,
				-0.31430840492248535
			]
		},
		{
			"name":"shine.002",
			"translation":[
				0.104924775660038,
				1.1882129907608032,
				-0.5175735950469971
			]
		},
		{
			"name":"shine.003",
			"translation":[
				0.743613600730896,
				0.564308762550354,
				-0.5175735950469971
			]
		},
		{
			"name":"shine.004",
			"translation":[
				-0.24552440643310547,
				2.9075326919555664,
				-0.33333972096443176
			]
		},
		{
			"name":"shine.005",
			"translation":[
				0.3529525399208069,
				2.6749377250671387,
				-0.9663792252540588
			]
		},
		{
			"name":"shine.006",
			"translation":[
				-0.18475273251533508,
				3.445063591003418,
				-0.2936278283596039
			]
		},
		{
			"name":"shine.007",
			"translation":[
				0.08047120273113251,
				2.029080390930176,
				0.411553293466568
			]
		},
		{
			"name":"shine.008",
			"translation":[
				-0.004687301814556122,
				1.126025676727295,
				0.4409840703010559
			]
		},
		{
			"name":"shine.009",
			"translation":[
				-0.1136816218495369,
				0.12998783588409424,
				0.2732536196708679
			]
		},
		{
			"name":"shine.010",
			"translation":[
				0.2283221334218979,
				3.5725607872009277,
				0.7956658601760864
			]
		},
		{
			"name":"shine.011",
			"translation":[
				-0.3025210499763489,
				2.136983633041382,
				-0.08888190984725952
			]
		},
		{
			"name":"shine.012",
			"translation":[
				0.25867027044296265,
				2.0543932914733887,
				-0.2779071033000946
			]
		},
		{
			"name":"shine.013",
			"translation":[
				0.6653553247451782,
				2.89540696144104,
				0.5244032740592957
			]
		},
		{
			"children":[
				0,
				1,
				2,
				3,
				4,
				5,
				6,
				7,
				8,
				9,
				10,
				11,
				12
			],
			"name":"root"
		},
		{
			"mesh":0,
			"name":"Shine",
			"skin":0
		},
		{
			"children":[
				14,
				13
			],
			"name":"Statue_Shines"
		}
	],
	"animations":[
		{
			"channels":[
				{
					"sampler":0,
					"target":{
						"node":13,
						"path":"translation"
					}
				},
				{
					"sampler":1,
					"target":{
						"node":13,
						"path":"rotation"
					}
				},
				{
					"sampler":2,
					"target":{
						"node":13,
						"path":"scale"
					}
				},
				{
					"sampler":3,
					"target":{
						"node":0,
						"path":"translation"
					}
				},
				{
					"sampler":4,
					"target":{
						"node":0,
						"path":"rotation"
					}
				},
				{
					"sampler":5,
					"target":{
						"node":0,
						"path":"scale"
					}
				},
				{
					"sampler":6,
					"target":{
						"node":1,
						"path":"translation"
					}
				},
				{
					"sampler":7,
					"target":{
						"node":1,
						"path":"rotation"
					}
				},
				{
					"sampler":8,
					"target":{
						"node":1,
						"path":"scale"
					}
				},
				{
					"sampler":9,
					"target":{
						"node":2,
						"path":"translation"
					}
				},
				{
					"sampler":10,
					"target":{
						"node":2,
						"path":"rotation"
					}
				},
				{
					"sampler":11,
					"target":{
						"node":2,
						"path":"scale"
					}
				},
				{
					"sampler":12,
					"target":{
						"node":3,
						"path":"translation"
					}
				},
				{
					"sampler":13,
					"target":{
						"node":3,
						"path":"rotation"
					}
				},
				{
					"sampler":14,
					"target":{
						"node":3,
						"path":"scale"
					}
				},
				{
					"sampler":15,
					"target":{
						"node":4,
						"path":"translation"
					}
				},
				{
					"sampler":16,
					"target":{
						"node":4,
						"path":"rotation"
					}
				},
				{
					"sampler":17,
					"target":{
						"node":4,
						"path":"scale"
					}
				},
				{
					"sampler":18,
					"target":{
						"node":5,
						"path":"translation"
					}
				},
				{
					"sampler":19,
					"target":{
						"node":5,
						"path":"rotation"
					}
				},
				{
					"sampler":20,
					"target":{
						"node":5,
						"path":"scale"
					}
				},
				{
					"sampler":21,
					"target":{
						"node":6,
						"path":"translation"
					}
				},
				{
					"sampler":22,
					"target":{
						"node":6,
						"path":"rotation"
					}
				},
				{
					"sampler":23,
					"target":{
						"node":6,
						"path":"scale"
					}
				},
				{
					"sampler":24,
					"target":{
						"node":7,
						"path":"translation"
					}
				},
				{
					"sampler":25,
					"target":{
						"node":7,
						"path":"rotation"
					}
				},
				{
					"sampler":26,
					"target":{
						"node":7,
						"path":"scale"
					}
				},
				{
					"sampler":27,
					"target":{
						"node":8,
						"path":"translation"
					}
				},
				{
					"sampler":28,
					"target":{
						"node":8,
						"path":"rotation"
					}
				},
				{
					"sampler":29,
					"target":{
						"node":8,
						"path":"scale"
					}
				},
				{
					"sampler":30,
					"target":{
						"node":9,
						"path":"translation"
					}
				},
				{
					"sampler":31,
					"target":{
						"node":9,
						"path":"rotation"
					}
				},
				{
					"sampler":32,
					"target":{
						"node":9,
						"path":"scale"
					}
				},
				{
					"sampler":33,
					"target":{
						"node":10,
						"path":"translation"
					}
				},
				{
					"sampler":34,
					"target":{
						"node":10,
						"path":"rotation"
					}
				},
				{
					"sampler":35,
					"target":{
						"node":10,
						"path":"scale"
					}
				},
				{
					"sampler":36,
					"target":{
						"node":11,
						"path":"translation"
					}
				},
				{
					"sampler":37,
					"target":{
						"node":11,
						"path":"rotation"
					}
				},
				{
					"sampler":38,
					"target":{
						"node":11,
						"path":"scale"
					}
				},
				{
					"sampler":39,
					"target":{
						"node":12,
						"path":"translation"
					}
				},
				{
					"sampler":40,
					"target":{
						"node":12,
						"path":"rotation"
					}
				},
				{
					"sampler":41,
					"target":{
						"node":12,
						"path":"scale"
					}
				}
			],
			"name":"Shines",
			"samplers":[
				{
					"input":7,
					"interpolation":"LINEAR",
					"output":8
				},
				{
					"input":7,
					"interpolation":"LINEAR",
					"output":9
				},
				{
					"input":7,
					"interpolation":"LINEAR",
					"output":10
				},
				{
					"input":7,
					"interpolation":"LINEAR",
					"output":11
				},
				{
					"input":7,
					"interpolation":"LINEAR",
					"output":12
				},
				{
					"input":7,
					"interpolation":"LINEAR",
					"output":13
				},
				{
					"input":7,
					"interpolation":"LINEAR",
					"output":14
				},
				{
					"input":7,
					"interpolation":"LINEAR",
					"output":15
				},
				{
					"input":7,
					"interpolation":"LINEAR",
					"output":16
				},
				{
					"input":7,
					"interpolation":"LINEAR",
					"output":17
				},
				{
					"input":7,
					"interpolation":"LINEAR",
					"output":18
				},
				{
					"input":7,
					"interpolation":"LINEAR",
					"output":19
				},
				{
					"input":7,
					"interpolation":"LINEAR",
					"output":20
				},
				{
					"input":7,
					"interpolation":"LINEAR",
					"output":21
				},
				{
					"input":7,
					"interpolation":"LINEAR",
					"output":22
				},
				{
					"input":7,
					"interpolation":"LINEAR",
					"output":23
				},
				{
					"input":7,
					"interpolation":"LINEAR",
					"output":24
				},
				{
					"input":7,
					"interpolation":"LINEAR",
					"output":25
				},
				{
					"input":7,
					"interpolation":"LINEAR",
					"output":26
				},
				{
					"input":7,
					"interpolation":"LINEAR",
					"output":27
				},
				{
					"input":7,
					"interpolation":"LINEAR",
					"output":28
				},
				{
					"input":7,
					"interpolation":"LINEAR",
					"output":29
				},
				{
					"input":7,
					"interpolation":"LINEAR",
					"output":30
				},
				{
					"input":7,
					"interpolation":"LINEAR",
					"output":31
				},
				{
					"input":7,
					"interpolation":"LINEAR",
					"output":32
				},
				{
					"input":7,
					"interpolation":"LINEAR",
					"output":33
				},
				{
					"input":7,
					"interpolation":"LINEAR",
					"output":34
				},
				{
					"input":7,
					"interpolation":"LINEAR",
					"output":35
				},
				{
					"input":7,
					"interpolation":"LINEAR",
					"output":36
				},
				{
					"input":7,
					"interpolation":"LINEAR",
					"output":37
				},
				{
					"input":7,
					"interpolation":"LINEAR",
					"output":38
				},
				{
					"input":7,
					"interpolation":"LINEAR",
					"output":39
				},
				{
					"input":7,
					"interpolation":"LINEAR",
					"output":40
				},
				{
					"input":7,
					"interpolation":"LINEAR",
					"output":41
				},
				{
					"input":7,
					"interpolation":"LINEAR",
					"output":42
				},
				{
					"input":7,
					"interpolation":"LINEAR",
					"output":43
				},
				{
					"input":7,
					"interpolation":"LINEAR",
					"output":44
				},
				{
					"input":7,
					"interpolation":"LINEAR",
					"output":45
				},
				{
					"input":7,
					"interpolation":"LINEAR",
					"output":46
				},
				{
					"input":7,
					"interpolation":"LINEAR",
					"output":47
				},
				{
					"input":7,
					"interpolation":"LINEAR",
					"output":48
				},
				{
					"input":7,
					"interpolation":"LINEAR",
					"output":49
				}
			]
		}
	],
	"materials":[
		{
			"doubleSided":true,
			"name":"Shine",
			"pbrMetallicRoughness":{
				"baseColorTexture":{
					"index":0
				},
				"metallicFactor":0
			}
		}
	],
	"meshes":[
		{
			"name":"Plane.008",
			"primitives":[
				{
					"attributes":{
						"POSITION":0,
						"NORMAL":1,
						"TEXCOORD_0":2,
						"JOINTS_0":3,
						"WEIGHTS_0":4
					},
					"indices":5,
					"material":0
				}
			]
		}
	],
	"textures":[
		{
			"sampler":0,
			"source":0
		}
	],
	"images":[
		{
			"mimeType":"image/png",
			"name":"MT_Color_Atlas",
			"uri":"textures/MT_Color_Atlas.png"
		}
	],
	"skins":[
		{
			"inverseBindMatrices":6,
			"joints":[
				13,
				0,
				1,
				2,
				3,
				4,
				5,
				6,
				7,
				8,
				9,
				10,
				11,
				12
			],
			"name":"Statue_Shines"
		}
	],
	"accessors":[
		{
			"bufferView":0,
			"componentType":5126,
			"count":988,
			"max":[
				1.274067759513855,
				3.9767000675201416,
				1.1998043060302734
			],
			"min":[
				-0.7066597938537598,
				-0.27415087819099426,
				-1.3705182075500488
			],
			"type":"VEC3"
		},
		{
			"bufferView":1,
			"componentType":5126,
			"count":988,
			"type":"VEC3"
		},
		{
			"bufferView":2,
			"componentType":5126,
			"count":988,
			"type":"VEC2"
		},
		{
			"bufferView":3,
			"componentType":5121,
			"count":988,
			"type":"VEC4"
		},
		{
			"bufferView":4,
			"componentType":5126,
			"count":988,
			"type":"VEC4"
		},
		{
			"bufferView":5,
			"componentType":5123,
			"count":1872,
			"type":"SCALAR"
		},
		{
			"bufferView":6,
			"componentType":5126,
			"count":14,
			"type":"MAT4"
		},
		{
			"bufferView":7,
			"componentType":5126,
			"count":698,
			"max":[
				23.233333333333334
			],
			"min":[
				0
			],
			"type":"SCALAR"
		},
		{
			"bufferView":8,
			"componentType":5126,
			"count":698,
			"type":"VEC3"
		},
		{
			"bufferView":9,
			"componentType":5126,
			"count":698,
			"type":"VEC4"
		},
		{
			"bufferView":10,
			"componentType":5126,
			"count":698,
			"type":"VEC3"
		},
		{
			"bufferView":11,
			"componentType":5126,
			"count":698,
			"type":"VEC3"
		},
		{
			"bufferView":12,
			"componentType":5126,
			"count":698,
			"type":"VEC4"
		},
		{
			"bufferView":13,
			"componentType":5126,
			"count":698,
			"type":"VEC3"
		},
		{
			"bufferView":14,
			"componentType":5126,
			"count":698,
			"type":"VEC3"
		},
		{
			"bufferView":15,
			"componentType":5126,
			"count":698,
			"type":"VEC4"
		},
		{
			"bufferView":16,
			"componentType":5126,
			"count":698,
			"type":"VEC3"
		},
		{
			"bufferView":17,
			"componentType":5126,
			"count":698,
			"type":"VEC3"
		},
		{
			"bufferView":18,
			"componentType":5126,
			"count":698,
			"type":"VEC4"
		},
		{
			"bufferView":19,
			"componentType":5126,
			"count":698,
			"type":"VEC3"
		},
		{
			"bufferView":20,
			"componentType":5126,
			"count":698,
			"type":"VEC3"
		},
		{
			"bufferView":21,
			"componentType":5126,
			"count":698,
			"type":"VEC4"
		},
		{
			"bufferView":22,
			"componentType":5126,
			"count":698,
			"type":"VEC3"
		},
		{
			"bufferView":23,
			"componentType":5126,
			"count":698,
			"type":"VEC3"
		},
		{
			"bufferView":24,
			"componentType":5126,
			"count":698,
			"type":"VEC4"
		},
		{
			"bufferView":25,
			"componentType":5126,
			"count":698,
			"type":"VEC3"
		},
		{
			"bufferView":26,
			"componentType":5126,
			"count":698,
			"type":"VEC3"
		},
		{
			"bufferView":27,
			"componentType":5126,
			"count":698,
			"type":"VEC4"
		},
		{
			"bufferView":28,
			"componentType":5126,
			"count":698,
			"type":"VEC3"
		},
		{
			"bufferView":29,
			"componentType":5126,
			"count":698,
			"type":"VEC3"
		},
		{
			"bufferView":30,
			"componentType":5126,
			"count":698,
			"type":"VEC4"
		},
		{
			"bufferView":31,
			"componentType":5126,
			"count":698,
			"type":"VEC3"
		},
		{
			"bufferView":32,
			"componentType":5126,
			"count":698,
			"type":"VEC3"
		},
		{
			"bufferView":33,
			"componentType":5126,
			"count":698,
			"type":"VEC4"
		},
		{
			"bufferView":34,
			"componentType":5126,
			"count":698,
			"type":"VEC3"
		},
		{
			"bufferView":35,
			"componentType":5126,
			"count":698,
			"type":"VEC3"
		},
		{
			"bufferView":36,
			"componentType":5126,
			"count":698,
			"type":"VEC4"
		},
		{
			"bufferView":37,
			"componentType":5126,
			"count":698,
			"type":"VEC3"
		},
		{
			"bufferView":38,
			"componentType":5126,
			"count":698,
			"type":"VEC3"
		},
		{
			"bufferView":39,
			"componentType":5126,
			"count":698,
			"type":"VEC4"
		},
		{
			"bufferView":40,
			"componentType":5126,
			"count":698,
			"type":"VEC3"
		},
		{
			"bufferView":41,
			"componentType":5126,
			"count":698,
			"type":"VEC3"
		},
		{
			"bufferView":42,
			"componentType":5126,
			"count":698,
			"type":"VEC4"
		},
		{
			"bufferView":43,
			"componentType":5126,
			"count":698,
			"type":"VEC3"
		},
		{
			"bufferView":44,
			"componentType":5126,
			"count":698,
			"type":"VEC3"
		},
		{
			"bufferView":45,
			"componentType":5126,
			"count":698,
			"type":"VEC4"
		},
		{
			"bufferView":46,
			"componentType":5126,
			"count":698,
			"type":"VEC3"
		},
		{
			"bufferView":47,
			"componentType":5126,
			"count":698,
			"type":"VEC3"
		},
		{
			"bufferView":48,
			"componentType":5126,
			"count":698,
			"type":"VEC4"
		},
		{
			"bufferView":49,
			"componentType":5126,
			"count":698,
			"type":"VEC3"
		}
	],
	"bufferViews":[
		{
			"buffer":0,
			"byteLength":11856,
			"byteOffset":0,
			"target":34962
		},
		{
			"buffer":0,
			"byteLength":11856,
			"byteOffset":11856,
			"target":34962
		},
		{
			"buffer":0,
			"byteLength":7904,
			"byteOffset":23712,
			"target":34962
		},
		{
			"buffer":0,
			"byteLength":3952,
			"byteOffset":31616,
			"target":34962
		},
		{
			"buffer":0,
			"byteLength":15808,
			"byteOffset":35568,
			"target":34962
		},
		{
			"buffer":0,
			"byteLength":3744,
			"byteOffset":51376,
			"target":34963
		},
		{
			"buffer":0,
			"byteLength":896,
			"byteOffset":55120
		},
		{
			"buffer":0,
			"byteLength":2792,
			"byteOffset":56016
		},
		{
			"buffer":0,
			"byteLength":8376,
			"byteOffset":58808
		},
		{
			"buffer":0,
			"byteLength":11168,
			"byteOffset":67184
		},
		{
			"buffer":0,
			"byteLength":8376,
			"byteOffset":78352
		},
		{
			"buffer":0,
			"byteLength":8376,
			"byteOffset":86728
		},
		{
			"buffer":0,
			"byteLength":11168,
			"byteOffset":95104
		},
		{
			"buffer":0,
			"byteLength":8376,
			"byteOffset":106272
		},
		{
			"buffer":0,
			"byteLength":8376,
			"byteOffset":114648
		},
		{
			"buffer":0,
			"byteLength":11168,
			"byteOffset":123024
		},
		{
			"buffer":0,
			"byteLength":8376,
			"byteOffset":134192
		},
		{
			"buffer":0,
			"byteLength":8376,
			"byteOffset":142568
		},
		{
			"buffer":0,
			"byteLength":11168,
			"byteOffset":150944
		},
		{
			"buffer":0,
			"byteLength":8376,
			"byteOffset":162112
		},
		{
			"buffer":0,
			"byteLength":8376,
			"byteOffset":170488
		},
		{
			"buffer":0,
			"byteLength":11168,
			"byteOffset":178864
		},
		{
			"buffer":0,
			"byteLength":8376,
			"byteOffset":190032
		},
		{
			"buffer":0,
			"byteLength":8376,
			"byteOffset":198408
		},
		{
			"buffer":0,
			"byteLength":11168,
			"byteOffset":206784
		},
		{
			"buffer":0,
			"byteLength":8376,
			"byteOffset":217952
		},
		{
			"buffer":0,
			"byteLength":8376,
			"byteOffset":226328
		},
		{
			"buffer":0,
			"byteLength":11168,
			"byteOffset":234704
		},
		{
			"buffer":0,
			"byteLength":8376,
			"byteOffset":245872
		},
		{
			"buffer":0,
			"byteLength":8376,
			"byteOffset":254248
		},
		{
			"buffer":0,
			"byteLength":11168,
			"byteOffset":262624
		},
		{
			"buffer":0,
			"byteLength":8376,
			"byteOffset":273792
		},
		{
			"buffer":0,
			"byteLength":8376,
			"byteOffset":282168
		},
		{
			"buffer":0,
			"byteLength":11168,
			"byteOffset":290544
		},
		{
			"buffer":0,
			"byteLength":8376,
			"byteOffset":301712
		},
		{
			"buffer":0,
			"byteLength":8376,
			"byteOffset":310088
		},
		{
			"buffer":0,
			"byteLength":11168,
			"byteOffset":318464
		},
		{
			"buffer":0,
			"byteLength":8376,
			"byteOffset":329632
		},
		{
			"buffer":0,
			"byteLength":8376,
			"byteOffset":338008
		},
		{
			"buffer":0,
			"byteLength":11168,
			"byteOffset":346384
		},
		{
			"buffer":0,
			"byteLength":8376,
			"byteOffset":357552
		},
		{
			"buffer":0,
			"byteLength":8376,
			"byteOffset":365928
		},
		{
			"buffer":0,
			"byteLength":11168,
			"byteOffset":374304
		},
		{
			"buffer":0,
			"byteLength":8376,
			"byteOffset":385472
		},
		{
			"buffer":0,
			"byteLength":8376,
			"byteOffset":393848
		},
		{
			"buffer":0,
			"byteLength":11168,
			"byteOffset":402224
		},
		{
			"buffer":0,
			"byteLength":8376,
			"byteOffset":413392
		},
		{
			"buffer":0,
			"byteLength":8376,
			"byteOffset":421768
		},
		{
			"buffer":0,
			"byteLength":11168,
			"byteOffset":430144
		},
		{
			"buffer":0,
			"byteLength":8376,
			"byteOffset":441312
		}
	],
	"samplers":[
		{
			"magFilter":9729,
			"minFilter":9987
		}
	],
	"buffers":[
		{
			"byteLength":449688,
			"uri":"statue_shines.bin"
		}
	]
}
