{
	"asset":{
		"generator":"Khronos glTF Blender I/O v4.0.44",
		"version":"2.0"
	},
	"extensionsUsed":[
		"KHR_materials_specular",
		"KHR_materials_ior"
	],
	"scene":0,
	"scenes":[
		{
			"name":"Scene",
			"nodes":[
				0,
				1
			]
		}
	],
	"nodes":[
		{
			"mesh":0,
			"name":"cocobay_skybox_collider"
		},
		{
			"mesh":1,
			"name":"cocobay_skybox_glb"
		}
	],
	"materials":[
		{
			"emissiveFactor":[
				0.20000000298023224,
				0.20000000298023224,
				0.20000000298023224
			],
			"emissiveTexture":{
				"index":0
			},
			"extensions":{
				"KHR_materials_specular":{
					"specularFactor":0.2545454502105713
				},
				"KHR_materials_ior":{
					"ior":1.4500000476837158
				}
			},
			"name":"cocobay_skybox_01_opaque",
			"pbrMetallicRoughness":{
				"baseColorTexture":{
					"index":1
				},
				"metallicFactor":0,
				"roughnessFactor":0.968181848526001
			}
		},
		{
			"alphaMode":"BLEND",
			"emissiveFactor":[
				0.20000000298023224,
				0.20000000298023224,
				0.20000000298023224
			],
			"emissiveTexture":{
				"index":2
			},
			"extensions":{
				"KHR_materials_specular":{
					"specularFactor":0.2545454502105713
				},
				"KHR_materials_ior":{
					"ior":1.4500000476837158
				}
			},
			"name":"cocobay_skybox_01_alpha_blend",
			"pbrMetallicRoughness":{
				"baseColorTexture":{
					"index":3
				},
				"metallicFactor":0,
				"roughnessFactor":0.968181848526001
			}
		},
		{
			"alphaCutoff":0.5,
			"alphaMode":"MASK",
			"emissiveFactor":[
				0.20000000298023224,
				0.20000000298023224,
				0.20000000298023224
			],
			"emissiveTexture":{
				"index":4
			},
			"extensions":{
				"KHR_materials_specular":{
					"specularFactor":0.2545454502105713
				},
				"KHR_materials_ior":{
					"ior":1.4500000476837158
				}
			},
			"name":"cocobay_skybox_01_alpha_clip",
			"pbrMetallicRoughness":{
				"baseColorTexture":{
					"index":5
				},
				"metallicFactor":0,
				"roughnessFactor":0.968181848526001
			}
		},
		{
			"alphaCutoff":0.5,
			"alphaMode":"MASK",
			"emissiveFactor":[
				0.20000000298023224,
				0.20000000298023224,
				0.20000000298023224
			],
			"emissiveTexture":{
				"index":6
			},
			"extensions":{
				"KHR_materials_specular":{
					"specularFactor":0.2545454502105713
				},
				"KHR_materials_ior":{
					"ior":1.4500000476837158
				}
			},
			"name":"cocobay_skybox_02_alpha_clip",
			"pbrMetallicRoughness":{
				"baseColorTexture":{
					"index":7
				},
				"metallicFactor":0,
				"roughnessFactor":0.968181848526001
			}
		}
	],
	"meshes":[
		{
			"name":"Cube.002",
			"primitives":[
				{
					"attributes":{
						"POSITION":0,
						"NORMAL":1,
						"TEXCOORD_0":2
					},
					"indices":3
				}
			]
		},
		{
			"name":"Cube.001",
			"primitives":[
				{
					"attributes":{
						"POSITION":4,
						"NORMAL":5,
						"TEXCOORD_0":6
					},
					"indices":7,
					"material":0
				},
				{
					"attributes":{
						"POSITION":8,
						"NORMAL":9,
						"TEXCOORD_0":10
					},
					"indices":11,
					"material":1
				},
				{
					"attributes":{
						"POSITION":12,
						"NORMAL":13,
						"TEXCOORD_0":14
					},
					"indices":15,
					"material":2
				},
				{
					"attributes":{
						"POSITION":16,
						"NORMAL":17,
						"TEXCOORD_0":18
					},
					"indices":19,
					"material":3
				}
			]
		}
	],
	"textures":[
		{
			"sampler":0,
			"source":0
		},
		{
			"sampler":0,
			"source":0
		},
		{
			"sampler":0,
			"source":0
		},
		{
			"sampler":0,
			"source":0
		},
		{
			"sampler":0,
			"source":0
		},
		{
			"sampler":0,
			"source":0
		},
		{
			"sampler":0,
			"source":1
		},
		{
			"sampler":0,
			"source":1
		}
	],
	"images":[
		{
			"mimeType":"image/png",
			"name":"cocobay_skybox_01",
			"uri":"textures/cocobay_skybox_01.png"
		},
		{
			"mimeType":"image/png",
			"name":"cocobay_skybox_02",
			"uri":"textures/cocobay_skybox_02.png"
		}
	],
	"accessors":[
		{
			"bufferView":0,
			"componentType":5126,
			"count":24,
			"max":[
				24,
				48.00000762939453,
				24
			],
			"min":[
				-24,
				5.7220458984375e-06,
				-23.999998092651367
			],
			"type":"VEC3"
		},
		{
			"bufferView":1,
			"componentType":5126,
			"count":24,
			"type":"VEC3"
		},
		{
			"bufferView":2,
			"componentType":5126,
			"count":24,
			"type":"VEC2"
		},
		{
			"bufferView":3,
			"componentType":5123,
			"count":36,
			"type":"SCALAR"
		},
		{
			"bufferView":4,
			"componentType":5126,
			"count":336,
			"max":[
				24,
				48.00000762939453,
				24
			],
			"min":[
				-24,
				5.7220458984375e-06,
				-23.999998092651367
			],
			"type":"VEC3"
		},
		{
			"bufferView":5,
			"componentType":5126,
			"count":336,
			"type":"VEC3"
		},
		{
			"bufferView":6,
			"componentType":5126,
			"count":336,
			"type":"VEC2"
		},
		{
			"bufferView":7,
			"componentType":5123,
			"count":522,
			"type":"SCALAR"
		},
		{
			"bufferView":8,
			"componentType":5126,
			"count":92,
			"max":[
				23.763824462890625,
				12.225894927978516,
				23.763826370239258
			],
			"min":[
				-23.763824462890625,
				5.7220458984375e-06,
				-23.763822555541992
			],
			"type":"VEC3"
		},
		{
			"bufferView":9,
			"componentType":5126,
			"count":92,
			"type":"VEC3"
		},
		{
			"bufferView":10,
			"componentType":5126,
			"count":92,
			"type":"VEC2"
		},
		{
			"bufferView":11,
			"componentType":5123,
			"count":156,
			"type":"SCALAR"
		},
		{
			"bufferView":12,
			"componentType":5126,
			"count":64,
			"max":[
				23.668922424316406,
				45.9905891418457,
				23.802127838134766
			],
			"min":[
				-23.866369247436523,
				5.7220458984375e-06,
				-23.762876510620117
			],
			"type":"VEC3"
		},
		{
			"bufferView":13,
			"componentType":5126,
			"count":64,
			"type":"VEC3"
		},
		{
			"bufferView":14,
			"componentType":5126,
			"count":64,
			"type":"VEC2"
		},
		{
			"bufferView":15,
			"componentType":5123,
			"count":96,
			"type":"SCALAR"
		},
		{
			"bufferView":16,
			"componentType":5126,
			"count":80,
			"max":[
				23.892169952392578,
				47.88358688354492,
				23.839401245117188
			],
			"min":[
				-23.861488342285156,
				4.425722122192383,
				-23.787887573242188
			],
			"type":"VEC3"
		},
		{
			"bufferView":17,
			"componentType":5126,
			"count":80,
			"type":"VEC3"
		},
		{
			"bufferView":18,
			"componentType":5126,
			"count":80,
			"type":"VEC2"
		},
		{
			"bufferView":19,
			"componentType":5123,
			"count":120,
			"type":"SCALAR"
		}
	],
	"bufferViews":[
		{
			"buffer":0,
			"byteLength":288,
			"byteOffset":0,
			"target":34962
		},
		{
			"buffer":0,
			"byteLength":288,
			"byteOffset":288,
			"target":34962
		},
		{
			"buffer":0,
			"byteLength":192,
			"byteOffset":576,
			"target":34962
		},
		{
			"buffer":0,
			"byteLength":72,
			"byteOffset":768,
			"target":34963
		},
		{
			"buffer":0,
			"byteLength":4032,
			"byteOffset":840,
			"target":34962
		},
		{
			"buffer":0,
			"byteLength":4032,
			"byteOffset":4872,
			"target":34962
		},
		{
			"buffer":0,
			"byteLength":2688,
			"byteOffset":8904,
			"target":34962
		},
		{
			"buffer":0,
			"byteLength":1044,
			"byteOffset":11592,
			"target":34963
		},
		{
			"buffer":0,
			"byteLength":1104,
			"byteOffset":12636,
			"target":34962
		},
		{
			"buffer":0,
			"byteLength":1104,
			"byteOffset":13740,
			"target":34962
		},
		{
			"buffer":0,
			"byteLength":736,
			"byteOffset":14844,
			"target":34962
		},
		{
			"buffer":0,
			"byteLength":312,
			"byteOffset":15580,
			"target":34963
		},
		{
			"buffer":0,
			"byteLength":768,
			"byteOffset":15892,
			"target":34962
		},
		{
			"buffer":0,
			"byteLength":768,
			"byteOffset":16660,
			"target":34962
		},
		{
			"buffer":0,
			"byteLength":512,
			"byteOffset":17428,
			"target":34962
		},
		{
			"buffer":0,
			"byteLength":192,
			"byteOffset":17940,
			"target":34963
		},
		{
			"buffer":0,
			"byteLength":960,
			"byteOffset":18132,
			"target":34962
		},
		{
			"buffer":0,
			"byteLength":960,
			"byteOffset":19092,
			"target":34962
		},
		{
			"buffer":0,
			"byteLength":640,
			"byteOffset":20052,
			"target":34962
		},
		{
			"buffer":0,
			"byteLength":240,
			"byteOffset":20692,
			"target":34963
		}
	],
	"samplers":[
		{
			"magFilter":9729,
			"minFilter":9987
		}
	],
	"buffers":[
		{
			"byteLength":20932,
			"uri":"Cocobay_Skybox.bin"
		}
	]
}
