# Blender v3.0.1 OBJ File: 'SimpleParts.blend'
# www.blender.org
mtllib basic_SLOPE.mtl
o basic_slope_glb_ID3.049
v 1.999956 0.243168 -2.000744
v 1.999956 2.915630 1.999256
v -2.000000 2.915630 1.999256
v -2.000000 0.243168 -2.000744
v 1.999956 2.863305 1.368487
v 1.999956 2.547113 0.812255
v 1.999956 2.098868 0.361781
v 1.999956 1.588214 -0.017693
v 1.999956 1.068700 -0.384905
v 1.999956 0.600698 -0.815023
v 1.999956 0.280609 -1.369231
v -2.000000 0.280609 -1.369231
v -2.000000 0.600698 -0.815024
v -2.000000 1.068700 -0.384905
v -2.000000 1.588214 -0.017693
v -2.000000 2.098868 0.361781
v -2.000000 2.547112 0.812255
v -2.000000 2.863305 1.368487
v 1.999956 2.672444 1.999256
v -2.000000 2.672444 1.999256
v -2.000000 -0.000018 -2.000744
v 1.999956 -0.000018 -2.000744
v 1.999956 0.037423 -1.369231
v -2.000000 2.620119 1.368487
v 1.999956 2.620119 1.368487
v 1.999956 2.303927 0.812255
v 1.999956 1.855683 0.361781
v 1.999956 1.345028 -0.017693
v 1.999956 0.825514 -0.384905
v 1.999956 0.357512 -0.815023
v -2.000000 0.037423 -1.369231
v -2.000000 0.357512 -0.815024
v -2.000000 0.825514 -0.384905
v -2.000000 1.345028 -0.017693
v -2.000000 1.855682 0.361781
v -2.000000 2.303927 0.812255
vt 0.428349 0.073583
vt 0.428349 0.015649
vt 0.852714 0.015649
vt 0.852714 0.073583
vt 0.428349 0.526019
vt 0.428349 0.467274
vt 0.852714 0.467274
vt 0.852714 0.526020
vt 0.428349 0.399568
vt 0.852714 0.399568
vt 0.428349 0.333418
vt 0.852714 0.333418
vt 0.428349 0.269858
vt 0.852714 0.269858
vt 0.428349 0.206858
vt 0.852714 0.206858
vt 0.428349 0.141341
vt 0.852714 0.141341
vt 0.425693 0.059262
vt 0.001328 0.059262
vt 0.001328 0.001328
vt 0.425693 0.001328
vt 0.425693 0.511698
vt 0.001328 0.511698
vt 0.001328 0.452953
vt 0.425693 0.452953
vt 0.001328 0.385247
vt 0.425693 0.385247
vt 0.001328 0.319096
vt 0.425693 0.319097
vt 0.001328 0.255536
vt 0.425693 0.255537
vt 0.001328 0.192537
vt 0.425693 0.192537
vt 0.001328 0.127019
vt 0.425693 0.127019
vt 0.959293 0.454938
vt 0.939333 0.471286
vt 0.928349 0.404281
vt 0.948309 0.387933
vt 0.914253 0.470346
vt 0.894293 0.453999
vt 0.905733 0.387089
vt 0.925693 0.403437
vt 0.937847 0.337517
vt 0.957807 0.321169
vt 0.899225 0.319983
vt 0.919185 0.336331
vt 0.955801 0.272454
vt 0.975761 0.256106
vt 0.882822 0.254509
vt 0.902782 0.270857
vt 0.001328 0.526019
vt 0.425693 0.526019
vt 0.972205 0.206980
vt 0.992164 0.190632
vt 0.864868 0.189446
vt 0.884827 0.205794
vt 0.428349 0.001328
vt 0.852714 0.001328
vt 0.978712 0.139874
vt 0.998672 0.123526
vt 0.855370 0.122682
vt 0.875330 0.139030
vt 0.886314 0.072025
vt 0.866354 0.055677
vt 0.905733 0.001328
vt 0.925693 0.017676
vt 0.967272 0.072965
vt 0.987232 0.056617
vt 0.929165 0.017676
vt 0.949124 0.001328
vt 0.998672 0.509288
vt 0.978712 0.525635
vt 0.876145 0.525635
vt 0.856185 0.509288
vn 0.0000 0.9578 -0.2874
vn 0.0000 0.9982 -0.0592
vn 0.0000 0.9966 -0.0827
vn -0.0000 0.9554 -0.2954
vn -0.0000 0.7961 -0.6051
vn -0.0000 0.6545 -0.7561
vn 0.0000 0.5869 -0.8097
vn 0.0000 0.6282 -0.7780
vn 0.0000 0.7803 -0.6254
vn -0.0000 -0.9578 0.2874
vn -0.0000 -0.9982 0.0592
vn 0.0000 -0.9966 0.0827
vn 0.0000 -0.9554 0.2954
vn 0.0000 -0.7961 0.6051
vn 0.0000 -0.6545 0.7561
vn -0.0000 -0.5869 0.8097
vn -0.0000 -0.6282 0.7780
vn -0.0000 -0.7803 0.6254
vn -1.0000 0.0000 0.0000
vn 1.0000 0.0000 0.0000
vn 0.0000 0.0000 1.0000
vn 0.0000 0.0000 -1.0000
usemtl Material
s 1
f 11/1/1 1/2/2 4/3/2 12/4/1
f 2/5/3 5/6/4 18/7/4 3/8/3
f 5/6/4 6/9/5 17/10/5 18/7/4
f 6/9/5 7/11/6 16/12/6 17/10/5
f 7/11/6 8/13/7 15/14/7 16/12/6
f 8/13/7 9/15/8 14/16/8 15/14/7
f 9/15/8 10/17/9 13/18/9 14/16/8
f 10/17/9 11/1/1 12/4/1 13/18/9
f 23/19/10 31/20/10 21/21/11 22/22/11
f 19/23/12 20/24/12 24/25/13 25/26/13
f 25/26/13 24/25/13 36/27/14 26/28/14
f 26/28/14 36/27/14 35/29/15 27/30/15
f 27/30/15 35/29/15 34/31/16 28/32/16
f 28/32/16 34/31/16 33/33/17 29/34/17
f 29/34/17 33/33/17 32/35/18 30/36/18
f 30/36/18 32/35/18 31/20/10 23/19/10
f 12/37/19 31/38/19 32/39/19 13/40/19
f 5/41/20 25/42/20 26/43/20 6/44/20
f 13/40/19 32/39/19 33/45/19 14/46/19
f 6/44/20 26/43/20 27/47/20 7/48/20
f 14/46/19 33/45/19 34/49/19 15/50/19
f 7/48/20 27/47/20 28/51/20 8/52/20
f 3/53/21 20/24/21 19/23/21 2/54/21
f 15/50/19 34/49/19 35/55/19 16/56/19
f 8/52/20 28/51/20 29/57/20 9/58/20
f 1/2/22 22/59/22 21/60/22 4/3/22
f 16/56/19 35/55/19 36/61/19 17/62/19
f 9/58/20 29/57/20 30/63/20 10/64/20
f 11/65/20 23/66/20 22/67/20 1/68/20
f 17/62/19 36/61/19 24/69/19 18/70/19
f 10/64/20 30/63/20 23/66/20 11/65/20
f 18/70/19 24/69/19 20/71/19 3/72/19
f 4/73/19 21/74/19 31/38/19 12/37/19
f 2/75/20 19/76/20 25/42/20 5/41/20
