<?xml version="1.0" encoding="UTF-8" standalone="no"?>
<!-- Created with Inkscape (http://www.inkscape.org/) -->

<svg
   width="210mm"
   height="297mm"
   viewBox="0 0 210 297"
   version="1.1"
   id="svg1"
   xml:space="preserve"
   inkscape:version="1.3 (0e150ed6c4, 2023-07-21)"
   sodipodi:docname="cap_logo.svg"
   xmlns:inkscape="http://www.inkscape.org/namespaces/inkscape"
   xmlns:sodipodi="http://sodipodi.sourceforge.net/DTD/sodipodi-0.dtd"
   xmlns="http://www.w3.org/2000/svg"
   xmlns:svg="http://www.w3.org/2000/svg"><sodipodi:namedview
     id="namedview1"
     pagecolor="#ffffff"
     bordercolor="#000000"
     borderopacity="0.25"
     inkscape:showpageshadow="2"
     inkscape:pageopacity="0.0"
     inkscape:pagecheckerboard="0"
     inkscape:deskcolor="#d1d1d1"
     inkscape:document-units="mm"
     inkscape:zoom="1.3897306"
     inkscape:cx="526.36099"
     inkscape:cy="514.48819"
     inkscape:window-width="1920"
     inkscape:window-height="1009"
     inkscape:window-x="-8"
     inkscape:window-y="-8"
     inkscape:window-maximized="1"
     inkscape:current-layer="layer1" /><defs
     id="defs1" /><g
     inkscape:label="Layer 1"
     inkscape:groupmode="layer"
     id="layer1"><path
       id="path1"
       style="fill:#000000;stroke-width:4.99999;paint-order:stroke fill markers;fill-opacity:1"
       d="M 110.80409 87.386397 A 16.944229 16.944229 0 0 0 94.230424 101.00675 A 16.944229 16.944229 0 0 0 90.315417 100.54477 A 16.944229 16.944229 0 0 0 73.371232 117.48895 A 16.944229 16.944229 0 0 0 77.656759 128.73219 A 16.944229 16.944229 0 0 0 68.802002 143.5716 A 16.944229 16.944229 0 0 0 81.878206 160.02641 A 16.944229 16.944229 0 0 0 81.747982 161.84852 A 16.944229 16.944229 0 0 0 98.692167 178.7927 A 16.944229 16.944229 0 0 0 108.86777 175.34279 A 16.944229 16.944229 0 0 0 122.87105 182.79091 A 16.944229 16.944229 0 0 0 139.49536 168.93439 A 16.944229 16.944229 0 0 0 142.67088 169.27339 A 16.944229 16.944229 0 0 0 159.61558 152.3292 A 16.944229 16.944229 0 0 0 157.96555 145.03921 A 16.944229 16.944229 0 0 0 165.70771 130.81579 A 16.944229 16.944229 0 0 0 150.31227 113.94498 A 16.944229 16.944229 0 0 0 150.97476 109.28067 A 16.944229 16.944229 0 0 0 134.03058 92.336483 A 16.944229 16.944229 0 0 0 124.93811 94.989034 A 16.944229 16.944229 0 0 0 110.80409 87.386397 z " /><path
       id="rect8"
       style="fill:#ffffff;stroke-width:3.678;paint-order:stroke fill markers;fill-opacity:1"
       d="M 163.77017 51.944323 C 162.38695 52.527434 161.42098 53.893552 161.42098 55.493767 L 161.42057 88.397203 L 150.63631 85.717266 C 148.56566 85.202738 146.48465 86.45556 145.97012 88.526211 C 145.45559 90.596861 146.70841 92.677869 148.77907 93.192397 L 164.36414 97.065231 C 166.43479 97.579759 168.51579 96.326937 169.03032 94.256286 C 169.13978 93.81579 169.16497 93.375793 169.12361 92.949526 L 169.12349 55.493759 C 169.12349 53.360139 167.40585 51.642509 165.27223 51.642509 C 164.73883 51.642509 164.23124 51.749953 163.77017 51.944323 z "
       transform="rotate(23.452035)" /></g></svg>
