{
	"asset": {
		"generator": "Unity 2020.3.11f1",
		"extras": {
			"exporterVersion" : "2.2.1"
		},
		"version": "2.0"
	},
	"accessors": [
		{
			"bufferView": 2,
			"byteOffset": 0,
			"componentType": 5126,
			"count": 132,
			"max": [ 5.362274, 3.237012, 1.316878 ],
			"min": [ -5.368343, -3.236409, -0.1750024 ],
			"type": "VEC3"
		},
		{
			"bufferView": 2,
			"byteOffset": 1584,
			"componentType": 5126,
			"count": 132,
			"max": [ 0.7236362, 0.8619184, 0.99991 ],
			"min": [ -0.7328538, -0.8734587, -0.99991 ],
			"type": "VEC3"
		},
		{
			"bufferView": 1,
			"byteOffset": 0,
			"componentType": 5126,
			"count": 132,
			"max": [ 1.394626, 0.9918771 ],
			"min": [ -0.2302331, 0.502568 ],
			"type": "VEC2"
		},
		{
			"bufferView": 3,
			"byteOffset": 0,
			"componentType": 5126,
			"count": 132,
			"max": [ 1, 0.9999239, 0.471233, 1 ],
			"min": [ -0.9999775, -0.9999236, -0.4758851, 1 ],
			"type": "VEC4"
		},
		{
			"bufferView": 0,
			"byteOffset": 0,
			"componentType": 5123,
			"count": 258,
			"max": [ 131 ],
			"min": [ 0 ],
			"type": "SCALAR"
		}
	],
	"buffers": [
		{
			"byteLength": 6852,
			"uri": "s0_BigBoard_Art_01.bin"
		}
	],
	"bufferViews": [
		{
			"buffer": 0,
			"byteLength": 516,
			"target": 34963,
			"byteOffset": 6336
		},
		{
			"buffer": 0,
			"byteLength": 1056,
			"target": 34962,
			"byteStride": 8,
			"byteOffset": 0
		},
		{
			"buffer": 0,
			"byteLength": 3168,
			"target": 34962,
			"byteStride": 12,
			"byteOffset": 1056
		},
		{
			"buffer": 0,
			"byteLength": 2112,
			"target": 34962,
			"byteStride": 16,
			"byteOffset": 4224
		}
	],
	"images": [
		{
			"uri": "Assets/Visuals/Materials/Textures/Trim_01_Albedo.png"
		},
		{
			"uri": "Assets/Visuals/Materials/Textures/Trim_01_Emisive.jpg"
		}
	],
	"materials": [
		{
			"pbrMetallicRoughness": {
				"baseColorTexture" : {
					"index" : 0,
					"texCoord" : 0
				},
				"baseColorFactor": [1, 1, 1, 1],
				"metallicFactor": 0,
				"roughnessFactor": 1
			},
			"emissiveTexture" : {
				"index" : 1,
				"texCoord" : 0
			},
			"emissiveFactor": [0.2509804, 0.2509804, 0.2509804],
			"doubleSided": true,
			"name": "Trim_01_Mat"
		}
	],
	"meshes": [
		{
			"name": "mesh_BigBoard_16440BigBoard_Art",
			"primitives": [
				{
					"attributes": {
						"POSITION": 0,
						"NORMAL": 1,
						"TEXCOORD_0": 2,
						"TANGENT": 3
					},
					"indices": 4,
					"material": 0,
					"mode": 4
				}
			]
		}
	],
	"nodes": [
		{
			"name": "UnityGlTF_root",
			"children": [
				1
			]
		},
		{
			"name": "node_BigBoard_Art",
			"mesh": 0,
			"matrix": [1, 0, 0, 0, 0, 1, 0, 0, 0, 0, 1, 0, 0, 0, 0, 1]
		}
	],
	"samplers": [
		{
			"magFilter": 9729,
			"minFilter": 9985,
			"wrapS": 10497,
			"wrapT": 10497
		}
	],
	"scenes": [
		{
			"name":"defaultScene",
			"nodes": [
				0
			]
		}
	],
	"scene": 0,
	"textures": [
		{
			"sampler": 0,
			"source": 0
		},
		{
			"sampler": 0,
			"source": 1
		}
	]
}