{
	"asset": {
		"generator": "Unity 2020.3.11f1",
		"extras": {
			"exporterVersion" : "2.2.1"
		},
		"version": "2.0"
	},
	"accessors": [
		{
			"bufferView": 2,
			"byteOffset": 0,
			"componentType": 5126,
			"count": 195,
			"max": [ 25.94157, 34.05346, -22.05845 ],
			"min": [ 22.05845, 0.5981588, -25.94157 ],
			"type": "VEC3"
		},
		{
			"bufferView": 2,
			"byteOffset": 2340,
			"componentType": 5126,
			"count": 195,
			"max": [ 0.9659249, 1, 0.9659244 ],
			"min": [ -1, -1, -1 ],
			"type": "VEC3"
		},
		{
			"bufferView": 1,
			"byteOffset": 0,
			"componentType": 5126,
			"count": 195,
			"max": [ 1.689528, 2.289234 ],
			"min": [ -0.689528, -1.288294 ],
			"type": "VEC2"
		},
		{
			"bufferView": 3,
			"byteOffset": 0,
			"componentType": 5126,
			"count": 195,
			"max": [ 1, 0.994482, 1, 1 ],
			"min": [ -0.9999989, -0.9925647, -0.9999989, -1 ],
			"type": "VEC4"
		},
		{
			"bufferView": 0,
			"byteOffset": 0,
			"componentType": 5123,
			"count": 72,
			"max": [ 37 ],
			"min": [ 0 ],
			"type": "SCALAR"
		},
		{
			"bufferView": 0,
			"byteOffset": 144,
			"componentType": 5123,
			"count": 216,
			"max": [ 181 ],
			"min": [ 38 ],
			"type": "SCALAR"
		},
		{
			"bufferView": 0,
			"byteOffset": 576,
			"componentType": 5123,
			"count": 36,
			"max": [ 194 ],
			"min": [ 182 ],
			"type": "SCALAR"
		},
		{
			"bufferView": 2,
			"byteOffset": 4680,
			"componentType": 5126,
			"count": 18474,
			"max": [ 48, 48.15355, 0 ],
			"min": [ 0, -0.9849129, -48 ],
			"type": "VEC3"
		},
		{
			"bufferView": 2,
			"byteOffset": 226368,
			"componentType": 5126,
			"count": 18474,
			"max": [ 1, 1, 1 ],
			"min": [ -1, -1, -1 ],
			"type": "VEC3"
		},
		{
			"bufferView": 1,
			"byteOffset": 1560,
			"componentType": 5126,
			"count": 18474,
			"max": [ 65.07014, 6.622314 ],
			"min": [ -64.09777, -5.125 ],
			"type": "VEC2"
		},
		{
			"bufferView": 3,
			"byteOffset": 3120,
			"componentType": 5126,
			"count": 18474,
			"max": [ 1, 1, 1, 1 ],
			"min": [ -1, -1, -1, -1 ],
			"type": "VEC4"
		},
		{
			"bufferView": 0,
			"byteOffset": 648,
			"componentType": 5123,
			"count": 43026,
			"max": [ 18473 ],
			"min": [ 0 ],
			"type": "SCALAR"
		}
	],
	"buffers": [
		{
			"byteLength": 982812,
			"uri": "s0_Center_Pillar_01_01.bin"
		}
	],
	"bufferViews": [
		{
			"buffer": 0,
			"byteLength": 86700,
			"target": 34963,
			"byteOffset": 896112
		},
		{
			"buffer": 0,
			"byteLength": 149352,
			"target": 34962,
			"byteStride": 8,
			"byteOffset": 0
		},
		{
			"buffer": 0,
			"byteLength": 448056,
			"target": 34962,
			"byteStride": 12,
			"byteOffset": 149352
		},
		{
			"buffer": 0,
			"byteLength": 298704,
			"target": 34962,
			"byteStride": 16,
			"byteOffset": 597408
		}
	],
	"images": [
		{
			"uri": "Assets/Visuals/Materials/Textures/Whiteconcrete_Albedo.png"
		},
		{
			"uri": "Assets/Visuals/Materials/Textures/Trim_01_Albedo.png"
		},
		{
			"uri": "Assets/Visuals/Materials/Textures/Trim_01_Emisive.jpg"
		},
		{
			"uri": "Assets/Visuals/Materials/Textures/Grass_Albedo.png"
		}
	],
	"materials": [
		{
			"pbrMetallicRoughness": {
				"baseColorTexture" : {
					"index" : 0,
					"texCoord" : 0
				},
				"baseColorFactor": [1, 1, 1, 1],
				"metallicFactor": 0,
				"roughnessFactor": 1
			},
			"emissiveFactor": [0, 0, 0],
			"doubleSided": false,
			"name": "WhiteConcrete_Mat"
		},
		{
			"pbrMetallicRoughness": {
				"baseColorTexture" : {
					"index" : 1,
					"texCoord" : 0
				},
				"baseColorFactor": [1, 1, 1, 1],
				"metallicFactor": 0,
				"roughnessFactor": 1
			},
			"emissiveTexture" : {
				"index" : 2,
				"texCoord" : 0
			},
			"emissiveFactor": [0.2509804, 0.2509804, 0.2509804],
			"doubleSided": true,
			"name": "Trim_01_Mat"
		},
		{
			"pbrMetallicRoughness": {
				"baseColorTexture" : {
					"index" : 3,
					"texCoord" : 0
				},
				"baseColorFactor": [1, 1, 1, 1],
				"metallicFactor": 0,
				"roughnessFactor": 1
			},
			"emissiveFactor": [0, 0, 0],
			"doubleSided": false,
			"name": "Grass_Seamless_Mat"
		},
		{
			"pbrMetallicRoughness": {
				"baseColorFactor": [0.4, 0.4, 0.4, 1],
				"metallicFactor": 0,
				"roughnessFactor": 1
			},
			"emissiveFactor": [0, 0, 0],
			"doubleSided": false,
			"name": "lambert2"
		}
	],
	"meshes": [
		{
			"name": "mesh_Center_Pillar_01_16784Center_Pillar_01",
			"primitives": [
				{
					"attributes": {
						"POSITION": 0,
						"NORMAL": 1,
						"TEXCOORD_0": 2,
						"TANGENT": 3
					},
					"indices": 4,
					"material": 0,
					"mode": 4
				},
				{
					"attributes": {
						"POSITION": 0,
						"NORMAL": 1,
						"TEXCOORD_0": 2,
						"TANGENT": 3
					},
					"indices": 5,
					"material": 1,
					"mode": 4
				},
				{
					"attributes": {
						"POSITION": 0,
						"NORMAL": 1,
						"TEXCOORD_0": 2,
						"TANGENT": 3
					},
					"indices": 6,
					"material": 2,
					"mode": 4
				}
			]
		},
		{
			"name": "mesh_Golfcraft_Hq_Collider_17054Golfcraft_Hq_collider",
			"primitives": [
				{
					"attributes": {
						"POSITION": 7,
						"NORMAL": 8,
						"TEXCOORD_0": 9,
						"TANGENT": 10
					},
					"indices": 11,
					"material": 3,
					"mode": 4
				}
			]
		}
	],
	"nodes": [
		{
			"name": "UnityGlTF_root",
			"children": [
				1
			]
		},
		{
			"name": "node_Center_Pillar_01",
			"mesh": 0,
			"children": [
				2
			],
			"matrix": [1, 0, 0, 0, 0, 1, 0, 0, 0, 0, 1, 0, 0, 0, 0, 1]
		},
		{
			"name": "node_Golfcraft_Hq_collider",
			"mesh": 1
		}
	],
	"samplers": [
		{
			"magFilter": 9729,
			"minFilter": 9985,
			"wrapS": 10497,
			"wrapT": 10497
		}
	],
	"scenes": [
		{
			"name":"defaultScene",
			"nodes": [
				0
			]
		}
	],
	"scene": 0,
	"textures": [
		{
			"sampler": 0,
			"source": 0
		},
		{
			"sampler": 0,
			"source": 1
		},
		{
			"sampler": 0,
			"source": 2
		},
		{
			"sampler": 0,
			"source": 3
		}
	]
}