{
	"asset": {
		"generator": "Unity 2020.3.11f1",
		"extras": {
			"exporterVersion" : "2.2.1"
		},
		"version": "2.0"
	},
	"accessors": [
		{
			"bufferView": 2,
			"byteOffset": 0,
			"componentType": 5126,
			"count": 105,
			"max": [ 0.07966797, 0.3849628, 1.0554 ],
			"min": [ -0.07966797, -0.3849628, -1.0554 ],
			"type": "VEC3"
		},
		{
			"bufferView": 2,
			"byteOffset": 1260,
			"componentType": 5126,
			"count": 105,
			"max": [ 1, 1, 1 ],
			"min": [ -1, -1, -1 ],
			"type": "VEC3"
		},
		{
			"bufferView": 1,
			"byteOffset": 0,
			"componentType": 5126,
			"count": 105,
			"max": [ 1.020622, 1.029768 ],
			"min": [ 0.02062234, 0.6995732 ],
			"type": "VEC2"
		},
		{
			"bufferView": 3,
			"byteOffset": 0,
			"componentType": 5126,
			"count": 105,
			"max": [ 1, 0.02491143, 0.9998535, 1 ],
			"min": [ 0, 0, 0, -1 ],
			"type": "VEC4"
		},
		{
			"bufferView": 0,
			"byteOffset": 0,
			"componentType": 5123,
			"count": 240,
			"max": [ 95 ],
			"min": [ 0 ],
			"type": "SCALAR"
		},
		{
			"bufferView": 0,
			"byteOffset": 480,
			"componentType": 5123,
			"count": 24,
			"max": [ 104 ],
			"min": [ 96 ],
			"type": "SCALAR"
		}
	],
	"buffers": [
		{
			"byteLength": 5568,
			"uri": "s0_Floor00_B_Art_04.bin"
		}
	],
	"bufferViews": [
		{
			"buffer": 0,
			"byteLength": 528,
			"target": 34963,
			"byteOffset": 5040
		},
		{
			"buffer": 0,
			"byteLength": 840,
			"target": 34962,
			"byteStride": 8,
			"byteOffset": 0
		},
		{
			"buffer": 0,
			"byteLength": 2520,
			"target": 34962,
			"byteStride": 12,
			"byteOffset": 840
		},
		{
			"buffer": 0,
			"byteLength": 1680,
			"target": 34962,
			"byteStride": 16,
			"byteOffset": 3360
		}
	],
	"images": [
		{
			"uri": "Assets/Visuals/Materials/Textures/Trim_05_Albedo.png"
		},
		{
			"uri": "Assets/Visuals/Materials/Textures/Trim_05_Emissive.jpg"
		},
		{
			"uri": "Assets/Visuals/Materials/Textures/Hexagon_Seamless_Albedo.png"
		}
	],
	"materials": [
		{
			"pbrMetallicRoughness": {
				"baseColorTexture" : {
					"index" : 0,
					"texCoord" : 0
				},
				"baseColorFactor": [1, 1, 1, 1],
				"metallicFactor": 0,
				"roughnessFactor": 1
			},
			"emissiveTexture" : {
				"index" : 1,
				"texCoord" : 0
			},
			"emissiveFactor": [0.2509804, 0.2509804, 0.2509804],
			"doubleSided": false,
			"name": "Trim_05_Mat"
		},
		{
			"pbrMetallicRoughness": {
				"baseColorTexture" : {
					"index" : 2,
					"texCoord" : 0
				},
				"baseColorFactor": [1, 1, 1, 1],
				"metallicFactor": 0,
				"roughnessFactor": 1
			},
			"alphaMode": "BLEND",
			"alphaCutoff": 0.5,
			"emissiveTexture" : {
				"index" : 2,
				"texCoord" : 0
			},
			"emissiveFactor": [0.1607843, 0.1607843, 0.1607843],
			"doubleSided": true,
			"name": "Hexagon_Seamless_Mat"
		}
	],
	"meshes": [
		{
			"name": "mesh_Floor00_B_Art_17134Floor00_B_Art",
			"primitives": [
				{
					"attributes": {
						"POSITION": 0,
						"NORMAL": 1,
						"TEXCOORD_0": 2,
						"TANGENT": 3
					},
					"indices": 4,
					"material": 0,
					"mode": 4
				},
				{
					"attributes": {
						"POSITION": 0,
						"NORMAL": 1,
						"TEXCOORD_0": 2,
						"TANGENT": 3
					},
					"indices": 5,
					"material": 1,
					"mode": 4
				}
			]
		}
	],
	"nodes": [
		{
			"name": "UnityGlTF_root",
			"children": [
				1
			]
		},
		{
			"name": "node_Floor00_B_Art",
			"mesh": 0,
			"matrix": [1, 0, 0, 0, 0, 1, 0, 0, 0, 0, 1, 0, 0, 0, 0, 1]
		}
	],
	"samplers": [
		{
			"magFilter": 9729,
			"minFilter": 9985,
			"wrapS": 10497,
			"wrapT": 10497
		}
	],
	"scenes": [
		{
			"name":"defaultScene",
			"nodes": [
				0
			]
		}
	],
	"scene": 0,
	"textures": [
		{
			"sampler": 0,
			"source": 0
		},
		{
			"sampler": 0,
			"source": 1
		},
		{
			"sampler": 0,
			"source": 2
		}
	]
}