{
	"asset": {
		"generator": "Unity 2020.3.11f1",
		"extras": {
			"exporterVersion" : "2.2.1"
		},
		"version": "2.0"
	},
	"accessors": [
		{
			"bufferView": 2,
			"byteOffset": 0,
			"componentType": 5126,
			"count": 3346,
			"max": [ 21.48313, 7.150126, 8.103945 ],
			"min": [ -21.49998, -7.150128, -8.089839 ],
			"type": "VEC3"
		},
		{
			"bufferView": 2,
			"byteOffset": 40152,
			"componentType": 5126,
			"count": 3346,
			"max": [ 1, 1, 1 ],
			"min": [ -1, -1, -1 ],
			"type": "VEC3"
		},
		{
			"bufferView": 1,
			"byteOffset": 0,
			"componentType": 5126,
			"count": 3346,
			"max": [ 0.6846332, 0.7786821 ],
			"min": [ 0.06229132, 0.1616055 ],
			"type": "VEC2"
		},
		{
			"bufferView": 3,
			"byteOffset": 0,
			"componentType": 5126,
			"count": 3346,
			"max": [ 0.9998212, 1, 1, 1 ],
			"min": [ -1, -0.9998709, -0.9999117, -1 ],
			"type": "VEC4"
		},
		{
			"bufferView": 0,
			"byteOffset": 0,
			"componentType": 5123,
			"count": 672,
			"max": [ 147 ],
			"min": [ 0 ],
			"type": "SCALAR"
		},
		{
			"bufferView": 0,
			"byteOffset": 1344,
			"componentType": 5123,
			"count": 6690,
			"max": [ 3339 ],
			"min": [ 148 ],
			"type": "SCALAR"
		},
		{
			"bufferView": 0,
			"byteOffset": 14724,
			"componentType": 5123,
			"count": 6,
			"max": [ 3345 ],
			"min": [ 3340 ],
			"type": "SCALAR"
		}
	],
	"buffers": [
		{
			"byteLength": 175344,
			"uri": "s0_Golfcraft_Logo_Art_01.bin"
		}
	],
	"bufferViews": [
		{
			"buffer": 0,
			"byteLength": 14736,
			"target": 34963,
			"byteOffset": 160608
		},
		{
			"buffer": 0,
			"byteLength": 26768,
			"target": 34962,
			"byteStride": 8,
			"byteOffset": 0
		},
		{
			"buffer": 0,
			"byteLength": 80304,
			"target": 34962,
			"byteStride": 12,
			"byteOffset": 26768
		},
		{
			"buffer": 0,
			"byteLength": 53536,
			"target": 34962,
			"byteStride": 16,
			"byteOffset": 107072
		}
	],
	"images": [
		{
			"uri": "Assets/Visuals/Materials/Textures/Whiteconcrete_Albedo.png"
		},
		{
			"uri": "Assets/Visuals/Materials/Textures/Trim_03_Albedo.png"
		}
	],
	"materials": [
		{
			"pbrMetallicRoughness": {
				"baseColorTexture" : {
					"index" : 0,
					"texCoord" : 0
				},
				"baseColorFactor": [0.8, 0.8, 0.8, 1],
				"metallicFactor": 0,
				"roughnessFactor": 1
			},
			"emissiveFactor": [0, 0, 0],
			"doubleSided": false,
			"name": "WhiteConcrete_Mat"
		},
		{
			"pbrMetallicRoughness": {
				"baseColorTexture" : {
					"index" : 1,
					"texCoord" : 0
				},
				"baseColorFactor": [0.8, 0.8, 0.8, 1],
				"metallicFactor": 0,
				"roughnessFactor": 1
			},
			"emissiveFactor": [0, 0, 0],
			"doubleSided": false,
			"name": "Trim_03"
		},
		{
			"pbrMetallicRoughness": {
				"baseColorFactor": [0.4, 0.4, 0.4, 1],
				"metallicFactor": 0,
				"roughnessFactor": 1
			},
			"emissiveFactor": [0, 0, 0],
			"doubleSided": false,
			"name": "lambert1"
		}
	],
	"meshes": [
		{
			"name": "mesh_Golfcraft_Logo_Art_17740Golfcraft_Logo_Art",
			"primitives": [
				{
					"attributes": {
						"POSITION": 0,
						"NORMAL": 1,
						"TEXCOORD_0": 2,
						"TANGENT": 3
					},
					"indices": 4,
					"material": 0,
					"mode": 4
				},
				{
					"attributes": {
						"POSITION": 0,
						"NORMAL": 1,
						"TEXCOORD_0": 2,
						"TANGENT": 3
					},
					"indices": 5,
					"material": 1,
					"mode": 4
				},
				{
					"attributes": {
						"POSITION": 0,
						"NORMAL": 1,
						"TEXCOORD_0": 2,
						"TANGENT": 3
					},
					"indices": 6,
					"material": 2,
					"mode": 4
				}
			]
		}
	],
	"nodes": [
		{
			"name": "UnityGlTF_root",
			"children": [
				1
			]
		},
		{
			"name": "node_Golfcraft_Logo_Art",
			"mesh": 0,
			"matrix": [1, 0, 0, 0, 0, 1, 0, 0, 0, 0, 1, 0, 0, 0, 0, 1]
		}
	],
	"samplers": [
		{
			"magFilter": 9729,
			"minFilter": 9985,
			"wrapS": 10497,
			"wrapT": 10497
		}
	],
	"scenes": [
		{
			"name":"defaultScene",
			"nodes": [
				0
			]
		}
	],
	"scene": 0,
	"textures": [
		{
			"sampler": 0,
			"source": 0
		},
		{
			"sampler": 0,
			"source": 1
		}
	]
}