{
	"asset": {
		"generator": "Unity 2020.3.11f1",
		"extras": {
			"exporterVersion" : "2.2.1"
		},
		"version": "2.0"
	},
	"accessors": [
		{
			"bufferView": 2,
			"byteOffset": 0,
			"componentType": 5126,
			"count": 6342,
			"max": [ 47.94738, 33.38301, -0.003301601 ],
			"min": [ 0.2761345, 0.8696334, -47.99012 ],
			"type": "VEC3"
		},
		{
			"bufferView": 2,
			"byteOffset": 76104,
			"componentType": 5126,
			"count": 6342,
			"max": [ 0.9997329, 1, 1 ],
			"min": [ -0.9999974, -0.9999976, -1 ],
			"type": "VEC3"
		},
		{
			"bufferView": 1,
			"byteOffset": 0,
			"componentType": 5126,
			"count": 6342,
			"max": [ 20.69793, 4.108379 ],
			"min": [ -19.25569, -3.473225 ],
			"type": "VEC2"
		},
		{
			"bufferView": 3,
			"byteOffset": 0,
			"componentType": 5126,
			"count": 6342,
			"max": [ 1, 0.9999987, 1, 1 ],
			"min": [ -1, -0.9999808, -1, -1 ],
			"type": "VEC4"
		},
		{
			"bufferView": 0,
			"byteOffset": 0,
			"componentType": 5123,
			"count": 2202,
			"max": [ 1001 ],
			"min": [ 0 ],
			"type": "SCALAR"
		},
		{
			"bufferView": 0,
			"byteOffset": 4404,
			"componentType": 5123,
			"count": 7746,
			"max": [ 5238 ],
			"min": [ 1002 ],
			"type": "SCALAR"
		},
		{
			"bufferView": 0,
			"byteOffset": 19896,
			"componentType": 5123,
			"count": 1176,
			"max": [ 5803 ],
			"min": [ 5239 ],
			"type": "SCALAR"
		},
		{
			"bufferView": 0,
			"byteOffset": 22248,
			"componentType": 5123,
			"count": 12,
			"max": [ 5809 ],
			"min": [ 5804 ],
			"type": "SCALAR"
		},
		{
			"bufferView": 0,
			"byteOffset": 22272,
			"componentType": 5123,
			"count": 132,
			"max": [ 5893 ],
			"min": [ 5810 ],
			"type": "SCALAR"
		},
		{
			"bufferView": 0,
			"byteOffset": 22536,
			"componentType": 5123,
			"count": 804,
			"max": [ 6341 ],
			"min": [ 413 ],
			"type": "SCALAR"
		}
	],
	"buffers": [
		{
			"byteLength": 328560,
			"uri": "s0_Pillars_01.bin"
		}
	],
	"bufferViews": [
		{
			"buffer": 0,
			"byteLength": 24144,
			"target": 34963,
			"byteOffset": 304416
		},
		{
			"buffer": 0,
			"byteLength": 50736,
			"target": 34962,
			"byteStride": 8,
			"byteOffset": 0
		},
		{
			"buffer": 0,
			"byteLength": 152208,
			"target": 34962,
			"byteStride": 12,
			"byteOffset": 50736
		},
		{
			"buffer": 0,
			"byteLength": 101472,
			"target": 34962,
			"byteStride": 16,
			"byteOffset": 202944
		}
	],
	"images": [
		{
			"uri": "Assets/Visuals/Materials/Textures/Cristal_Seamless_Albedo.png"
		},
		{
			"uri": "Assets/Visuals/Materials/Textures/Trim_04_Albedo.png"
		},
		{
			"uri": "Assets/Visuals/Materials/Textures/Trim_01_Albedo.png"
		},
		{
			"uri": "Assets/Visuals/Materials/Textures/Trim_01_Emisive.jpg"
		},
		{
			"uri": "Assets/Visuals/Materials/Textures/Whiteconcrete_Albedo.png"
		},
		{
			"uri": "Assets/Visuals/Materials/Textures/Trim_02_Albedo.png"
		},
		{
			"uri": "Assets/Visuals/Materials/Textures/Hexagon_Seamless_Albedo.png"
		}
	],
	"materials": [
		{
			"pbrMetallicRoughness": {
				"baseColorTexture" : {
					"index" : 0,
					"texCoord" : 0
				},
				"baseColorFactor": [0.2031417, 0.7397978, 0.7830188, 1],
				"metallicFactor": 0,
				"roughnessFactor": 1
			},
			"alphaMode": "BLEND",
			"alphaCutoff": 0.5,
			"emissiveFactor": [0, 0, 0],
			"doubleSided": true,
			"name": "Cristal_Mat"
		},
		{
			"pbrMetallicRoughness": {
				"baseColorTexture" : {
					"index" : 1,
					"texCoord" : 0
				},
				"baseColorFactor": [1, 1, 1, 1],
				"metallicFactor": 0.731,
				"roughnessFactor": 0.339
			},
			"emissiveFactor": [0, 0, 0],
			"doubleSided": false,
			"name": "Trim_04_Mat"
		},
		{
			"pbrMetallicRoughness": {
				"baseColorTexture" : {
					"index" : 2,
					"texCoord" : 0
				},
				"baseColorFactor": [1, 1, 1, 1],
				"metallicFactor": 0,
				"roughnessFactor": 1
			},
			"emissiveTexture" : {
				"index" : 3,
				"texCoord" : 0
			},
			"emissiveFactor": [0.2509804, 0.2509804, 0.2509804],
			"doubleSided": true,
			"name": "Trim_01_Mat"
		},
		{
			"pbrMetallicRoughness": {
				"baseColorTexture" : {
					"index" : 4,
					"texCoord" : 0
				},
				"baseColorFactor": [1, 1, 1, 1],
				"metallicFactor": 0,
				"roughnessFactor": 1
			},
			"emissiveFactor": [0, 0, 0],
			"doubleSided": false,
			"name": "WhiteConcrete_Mat"
		},
		{
			"pbrMetallicRoughness": {
				"baseColorTexture" : {
					"index" : 5,
					"texCoord" : 0
				},
				"baseColorFactor": [1, 1, 1, 1],
				"metallicFactor": 0,
				"roughnessFactor": 1
			},
			"emissiveFactor": [0, 0, 0],
			"doubleSided": true,
			"name": "Trim_02_Mat"
		},
		{
			"pbrMetallicRoughness": {
				"baseColorTexture" : {
					"index" : 6,
					"texCoord" : 0
				},
				"baseColorFactor": [1, 1, 1, 1],
				"metallicFactor": 0,
				"roughnessFactor": 1
			},
			"alphaMode": "BLEND",
			"alphaCutoff": 0.5,
			"emissiveTexture" : {
				"index" : 6,
				"texCoord" : 0
			},
			"emissiveFactor": [0.1607843, 0.1607843, 0.1607843],
			"doubleSided": true,
			"name": "Hexagon_Seamless_Mat"
		}
	],
	"meshes": [
		{
			"name": "mesh_Pillars_16944Pillars",
			"primitives": [
				{
					"attributes": {
						"POSITION": 0,
						"NORMAL": 1,
						"TEXCOORD_0": 2,
						"TANGENT": 3
					},
					"indices": 4,
					"material": 0,
					"mode": 4
				},
				{
					"attributes": {
						"POSITION": 0,
						"NORMAL": 1,
						"TEXCOORD_0": 2,
						"TANGENT": 3
					},
					"indices": 5,
					"material": 1,
					"mode": 4
				},
				{
					"attributes": {
						"POSITION": 0,
						"NORMAL": 1,
						"TEXCOORD_0": 2,
						"TANGENT": 3
					},
					"indices": 6,
					"material": 2,
					"mode": 4
				},
				{
					"attributes": {
						"POSITION": 0,
						"NORMAL": 1,
						"TEXCOORD_0": 2,
						"TANGENT": 3
					},
					"indices": 7,
					"material": 3,
					"mode": 4
				},
				{
					"attributes": {
						"POSITION": 0,
						"NORMAL": 1,
						"TEXCOORD_0": 2,
						"TANGENT": 3
					},
					"indices": 8,
					"material": 4,
					"mode": 4
				},
				{
					"attributes": {
						"POSITION": 0,
						"NORMAL": 1,
						"TEXCOORD_0": 2,
						"TANGENT": 3
					},
					"indices": 9,
					"material": 5,
					"mode": 4
				}
			]
		}
	],
	"nodes": [
		{
			"name": "UnityGlTF_root",
			"children": [
				1
			]
		},
		{
			"name": "node_Pillars",
			"mesh": 0,
			"matrix": [1, 0, 0, 0, 0, 1, 0, 0, 0, 0, 1, 0, 0, 0, 0, 1]
		}
	],
	"samplers": [
		{
			"magFilter": 9729,
			"minFilter": 9985,
			"wrapS": 10497,
			"wrapT": 10497
		}
	],
	"scenes": [
		{
			"name":"defaultScene",
			"nodes": [
				0
			]
		}
	],
	"scene": 0,
	"textures": [
		{
			"sampler": 0,
			"source": 0
		},
		{
			"sampler": 0,
			"source": 1
		},
		{
			"sampler": 0,
			"source": 2
		},
		{
			"sampler": 0,
			"source": 3
		},
		{
			"sampler": 0,
			"source": 4
		},
		{
			"sampler": 0,
			"source": 5
		},
		{
			"sampler": 0,
			"source": 6
		}
	]
}