{
	"asset": {
		"generator": "Unity 2020.3.11f1",
		"extras": {
			"exporterVersion" : "2.2.1"
		},
		"version": "2.0"
	},
	"accessors": [
		{
			"bufferView": 2,
			"byteOffset": 0,
			"componentType": 5126,
			"count": 240,
			"max": [ 47.78918, 26.28873, -0.184 ],
			"min": [ 0.8474978, 9.596012, -47.49443 ],
			"type": "VEC3"
		},
		{
			"bufferView": 2,
			"byteOffset": 2880,
			"componentType": 5126,
			"count": 240,
			"max": [ 1, 1, 1 ],
			"min": [ -0.999676, -0.1175431, -1 ],
			"type": "VEC3"
		},
		{
			"bufferView": 1,
			"byteOffset": 0,
			"componentType": 5126,
			"count": 240,
			"max": [ 3.789896, 1.000181 ],
			"min": [ -2.844803, 0.0627698 ],
			"type": "VEC2"
		},
		{
			"bufferView": 3,
			"byteOffset": 0,
			"componentType": 5126,
			"count": 240,
			"max": [ 1, 0.1964285, 0.9997669, 1 ],
			"min": [ -0.9976773, -0.1757615, -0.9996607, -1 ],
			"type": "VEC4"
		},
		{
			"bufferView": 0,
			"byteOffset": 0,
			"componentType": 5123,
			"count": 522,
			"max": [ 239 ],
			"min": [ 0 ],
			"type": "SCALAR"
		}
	],
	"buffers": [
		{
			"byteLength": 12564,
			"uri": "s0_Railing_01.bin"
		}
	],
	"bufferViews": [
		{
			"buffer": 0,
			"byteLength": 1044,
			"target": 34963,
			"byteOffset": 11520
		},
		{
			"buffer": 0,
			"byteLength": 1920,
			"target": 34962,
			"byteStride": 8,
			"byteOffset": 0
		},
		{
			"buffer": 0,
			"byteLength": 5760,
			"target": 34962,
			"byteStride": 12,
			"byteOffset": 1920
		},
		{
			"buffer": 0,
			"byteLength": 3840,
			"target": 34962,
			"byteStride": 16,
			"byteOffset": 7680
		}
	],
	"images": [
		{
			"uri": "Assets/Visuals/Materials/Textures/Trim_02_Albedo.png"
		}
	],
	"materials": [
		{
			"pbrMetallicRoughness": {
				"baseColorTexture" : {
					"index" : 0,
					"texCoord" : 0
				},
				"baseColorFactor": [1, 1, 1, 1],
				"metallicFactor": 0,
				"roughnessFactor": 1
			},
			"emissiveFactor": [0, 0, 0],
			"doubleSided": true,
			"name": "Trim_02_Mat"
		}
	],
	"meshes": [
		{
			"name": "mesh_Railing_16852Railing",
			"primitives": [
				{
					"attributes": {
						"POSITION": 0,
						"NORMAL": 1,
						"TEXCOORD_0": 2,
						"TANGENT": 3
					},
					"indices": 4,
					"material": 0,
					"mode": 4
				}
			]
		}
	],
	"nodes": [
		{
			"name": "UnityGlTF_root",
			"children": [
				1
			]
		},
		{
			"name": "node_Railing",
			"mesh": 0,
			"matrix": [1, 0, 0, 0, 0, 1, 0, 0, 0, 0, 1, 0, 0, 0, 0, 1]
		}
	],
	"samplers": [
		{
			"magFilter": 9729,
			"minFilter": 9985,
			"wrapS": 10497,
			"wrapT": 10497
		}
	],
	"scenes": [
		{
			"name":"defaultScene",
			"nodes": [
				0
			]
		}
	],
	"scene": 0,
	"textures": [
		{
			"sampler": 0,
			"source": 0
		}
	]
}