{
	"asset": {
		"generator": "Unity 2020.3.11f1",
		"extras": {
			"exporterVersion" : "2.2.1"
		},
		"version": "2.0"
	},
	"accessors": [
		{
			"bufferView": 2,
			"byteOffset": 0,
			"componentType": 5126,
			"count": 132,
			"max": [ 1.769744, 2.938081, 0.7514014 ],
			"min": [ -1.769744, -2.938079, -0.10021 ],
			"type": "VEC3"
		},
		{
			"bufferView": 2,
			"byteOffset": 1584,
			"componentType": 5126,
			"count": 132,
			"max": [ 0.8886591, 0.7282494, 0.9990411 ],
			"min": [ -0.845151, -0.728244, -0.9990411 ],
			"type": "VEC3"
		},
		{
			"bufferView": 1,
			"byteOffset": 0,
			"componentType": 5126,
			"count": 132,
			"max": [ 1.394626, 0.9918771 ],
			"min": [ -0.2302331, 0.502568 ],
			"type": "VEC2"
		},
		{
			"bufferView": 3,
			"byteOffset": 0,
			"componentType": 5126,
			"count": 132,
			"max": [ 1, 1, 0.4994808, 1 ],
			"min": [ -0.9996711, -1, -0.4995956, 1 ],
			"type": "VEC4"
		},
		{
			"bufferView": 0,
			"byteOffset": 0,
			"componentType": 5123,
			"count": 258,
			"max": [ 131 ],
			"min": [ 0 ],
			"type": "SCALAR"
		}
	],
	"buffers": [
		{
			"byteLength": 6852,
			"uri": "s0_VerticalBoard_Art_01.bin"
		}
	],
	"bufferViews": [
		{
			"buffer": 0,
			"byteLength": 516,
			"target": 34963,
			"byteOffset": 6336
		},
		{
			"buffer": 0,
			"byteLength": 1056,
			"target": 34962,
			"byteStride": 8,
			"byteOffset": 0
		},
		{
			"buffer": 0,
			"byteLength": 3168,
			"target": 34962,
			"byteStride": 12,
			"byteOffset": 1056
		},
		{
			"buffer": 0,
			"byteLength": 2112,
			"target": 34962,
			"byteStride": 16,
			"byteOffset": 4224
		}
	],
	"images": [
		{
			"uri": "Assets/Visuals/Materials/Textures/Trim_01_Albedo.png"
		},
		{
			"uri": "Assets/Visuals/Materials/Textures/Trim_01_Emisive.jpg"
		}
	],
	"materials": [
		{
			"pbrMetallicRoughness": {
				"baseColorTexture" : {
					"index" : 0,
					"texCoord" : 0
				},
				"baseColorFactor": [1, 1, 1, 1],
				"metallicFactor": 0,
				"roughnessFactor": 1
			},
			"emissiveTexture" : {
				"index" : 1,
				"texCoord" : 0
			},
			"emissiveFactor": [0.2509804, 0.2509804, 0.2509804],
			"doubleSided": true,
			"name": "Trim_01_Mat"
		}
	],
	"meshes": [
		{
			"name": "mesh_VerticalBoard_16484VerticalBoard_Art",
			"primitives": [
				{
					"attributes": {
						"POSITION": 0,
						"NORMAL": 1,
						"TEXCOORD_0": 2,
						"TANGENT": 3
					},
					"indices": 4,
					"material": 0,
					"mode": 4
				}
			]
		}
	],
	"nodes": [
		{
			"name": "UnityGlTF_root",
			"children": [
				1
			]
		},
		{
			"name": "node_VerticalBoard_Art",
			"mesh": 0,
			"matrix": [1, 0, 0, 0, 0, 1, 0, 0, 0, 0, 1, 0, 0, 0, 0, 1]
		}
	],
	"samplers": [
		{
			"magFilter": 9729,
			"minFilter": 9985,
			"wrapS": 10497,
			"wrapT": 10497
		}
	],
	"scenes": [
		{
			"name":"defaultScene",
			"nodes": [
				0
			]
		}
	],
	"scene": 0,
	"textures": [
		{
			"sampler": 0,
			"source": 0
		},
		{
			"sampler": 0,
			"source": 1
		}
	]
}