{
	"asset":{
		"generator":"Khronos glTF Blender I/O v3.6.27",
		"version":"2.0"
	},
	"extensionsUsed":[
		"KHR_materials_specular",
		"KHR_materials_ior"
	],
	"scene":0,
	"scenes":[
		{
			"name":"Scene",
			"nodes":[
				0
			]
		}
	],
	"nodes":[
		{
			"mesh":0,
			"name":"jungle-techno-head"
		}
	],
	"materials":[
		{
			"doubleSided":true,
			"emissiveFactor":[
				0.20000000298023224,
				0.20000000298023224,
				0.20000000298023224
			],
			"emissiveTexture":{
				"index":0
			},
			"extensions":{
				"KHR_materials_specular":{
					"specularColorFactor":[
						0,
						0,
						0
					]
				},
				"KHR_materials_ior":{
					"ior":1.4500000476837158
				}
			},
			"name":"Jungle_Techno_Atlas",
			"pbrMetallicRoughness":{
				"baseColorTexture":{
					"index":1
				},
				"metallicFactor":0
			}
		},
		{
			"doubleSided":true,
			"extensions":{
				"KHR_materials_specular":{
					"specularColorFactor":[
						0,
						0,
						0
					]
				},
				"KHR_materials_ior":{
					"ior":1.4500000476837158
				}
			},
			"name":"maniqui",
			"pbrMetallicRoughness":{
				"baseColorFactor":[
					0.4000000059604645,
					0.4399999976158142,
					0.5,
					1
				],
				"metallicFactor":0
			}
		}
	],
	"meshes":[
		{
			"name":"ShapeA_lBody_BaseMesh.005",
			"primitives":[
				{
					"attributes":{
						"COLOR_0":0,
						"POSITION":1,
						"NORMAL":2,
						"TEXCOORD_0":3
					},
					"indices":4,
					"material":0
				},
				{
					"attributes":{
						"COLOR_0":5,
						"POSITION":6,
						"NORMAL":7,
						"TEXCOORD_0":8
					},
					"indices":9,
					"material":1
				}
			]
		}
	],
	"textures":[
		{
			"sampler":0,
			"source":0
		},
		{
			"sampler":0,
			"source":0
		}
	],
	"images":[
		{
			"mimeType":"image/png",
			"name":"jungle_techno_atlas",
			"uri":"textures/jungle_techno_atlas.png"
		}
	],
	"accessors":[
		{
			"bufferView":0,
			"componentType":5123,
			"count":332,
			"normalized":true,
			"type":"VEC4"
		},
		{
			"bufferView":1,
			"componentType":5126,
			"count":332,
			"max":[
				0.23287400603294373,
				1.889824628829956,
				0.46432074904441833
			],
			"min":[
				-0.324178010225296,
				1.515917181968689,
				-0.27339842915534973
			],
			"type":"VEC3"
		},
		{
			"bufferView":2,
			"componentType":5126,
			"count":332,
			"type":"VEC3"
		},
		{
			"bufferView":3,
			"componentType":5126,
			"count":332,
			"type":"VEC2"
		},
		{
			"bufferView":4,
			"componentType":5123,
			"count":1404,
			"type":"SCALAR"
		},
		{
			"bufferView":5,
			"componentType":5123,
			"count":588,
			"normalized":true,
			"type":"VEC4"
		},
		{
			"bufferView":6,
			"componentType":5126,
			"count":588,
			"max":[
				0.23836669325828552,
				1.8584922552108765,
				0.31184205412864685
			],
			"min":[
				-0.26575782895088196,
				1.0611307621002197,
				-0.2620325982570648
			],
			"type":"VEC3"
		},
		{
			"bufferView":7,
			"componentType":5126,
			"count":588,
			"type":"VEC3"
		},
		{
			"bufferView":8,
			"componentType":5126,
			"count":588,
			"type":"VEC2"
		},
		{
			"bufferView":9,
			"componentType":5123,
			"count":3108,
			"type":"SCALAR"
		}
	],
	"bufferViews":[
		{
			"buffer":0,
			"byteLength":2656,
			"byteOffset":0,
			"target":34962
		},
		{
			"buffer":0,
			"byteLength":3984,
			"byteOffset":2656,
			"target":34962
		},
		{
			"buffer":0,
			"byteLength":3984,
			"byteOffset":6640,
			"target":34962
		},
		{
			"buffer":0,
			"byteLength":2656,
			"byteOffset":10624,
			"target":34962
		},
		{
			"buffer":0,
			"byteLength":2808,
			"byteOffset":13280,
			"target":34963
		},
		{
			"buffer":0,
			"byteLength":4704,
			"byteOffset":16088,
			"target":34962
		},
		{
			"buffer":0,
			"byteLength":7056,
			"byteOffset":20792,
			"target":34962
		},
		{
			"buffer":0,
			"byteLength":7056,
			"byteOffset":27848,
			"target":34962
		},
		{
			"buffer":0,
			"byteLength":4704,
			"byteOffset":34904,
			"target":34962
		},
		{
			"buffer":0,
			"byteLength":6216,
			"byteOffset":39608,
			"target":34963
		}
	],
	"samplers":[
		{
			"magFilter":9729,
			"minFilter":9987
		}
	],
	"buffers":[
		{
			"byteLength":45824,
			"uri":"jungle-techno-head.bin"
		}
	]
}
