{
	"asset":{
		"generator":"Khronos glTF Blender I/O v3.6.27",
		"version":"2.0"
	},
	"extensionsUsed":[
		"KHR_materials_specular",
		"KHR_materials_ior"
	],
	"scene":0,
	"scenes":[
		{
			"name":"Scene",
			"nodes":[
				0
			]
		}
	],
	"nodes":[
		{
			"mesh":0,
			"name":"jungle-techno-upper"
		}
	],
	"materials":[
		{
			"doubleSided":true,
			"emissiveFactor":[
				0.20000000298023224,
				0.20000000298023224,
				0.20000000298023224
			],
			"emissiveTexture":{
				"index":0
			},
			"extensions":{
				"KHR_materials_specular":{
					"specularColorFactor":[
						0,
						0,
						0
					]
				},
				"KHR_materials_ior":{
					"ior":1.4500000476837158
				}
			},
			"name":"Jungle_Techno_Atlas",
			"pbrMetallicRoughness":{
				"baseColorTexture":{
					"index":1
				},
				"metallicFactor":0
			}
		},
		{
			"doubleSided":true,
			"extensions":{
				"KHR_materials_specular":{
					"specularColorFactor":[
						0,
						0,
						0
					]
				},
				"KHR_materials_ior":{
					"ior":1.4500000476837158
				}
			},
			"name":"maniqui",
			"pbrMetallicRoughness":{
				"baseColorFactor":[
					0.4000000059604645,
					0.4399999976158142,
					0.5,
					1
				],
				"metallicFactor":0
			}
		}
	],
	"meshes":[
		{
			"name":"ShapeA_lBody_BaseMesh.002",
			"primitives":[
				{
					"attributes":{
						"COLOR_0":0,
						"POSITION":1,
						"NORMAL":2,
						"TEXCOORD_0":3
					},
					"indices":4,
					"material":0
				},
				{
					"attributes":{
						"COLOR_0":5,
						"POSITION":6,
						"NORMAL":7,
						"TEXCOORD_0":8
					},
					"indices":9,
					"material":1
				}
			]
		}
	],
	"textures":[
		{
			"sampler":0,
			"source":0
		},
		{
			"sampler":0,
			"source":0
		}
	],
	"images":[
		{
			"mimeType":"image/png",
			"name":"jungle_techno_atlas",
			"uri":"textures/jungle_techno_atlas.png"
		}
	],
	"accessors":[
		{
			"bufferView":0,
			"componentType":5123,
			"count":833,
			"normalized":true,
			"type":"VEC4"
		},
		{
			"bufferView":1,
			"componentType":5126,
			"count":833,
			"max":[
				0.6541217565536499,
				1.8487558364868164,
				0.40631797909736633
			],
			"min":[
				-0.5761851072311401,
				0.6518454551696777,
				-0.3829840123653412
			],
			"type":"VEC3"
		},
		{
			"bufferView":2,
			"componentType":5126,
			"count":833,
			"type":"VEC3"
		},
		{
			"bufferView":3,
			"componentType":5126,
			"count":833,
			"type":"VEC2"
		},
		{
			"bufferView":4,
			"componentType":5123,
			"count":3594,
			"type":"SCALAR"
		},
		{
			"bufferView":5,
			"componentType":5123,
			"count":690,
			"normalized":true,
			"type":"VEC4"
		},
		{
			"bufferView":6,
			"componentType":5126,
			"count":690,
			"max":[
				0.4492862820625305,
				1.755735993385315,
				0.40457582473754883
			],
			"min":[
				-0.5552109479904175,
				0.30632680654525757,
				-0.20700353384017944
			],
			"type":"VEC3"
		},
		{
			"bufferView":7,
			"componentType":5126,
			"count":690,
			"type":"VEC3"
		},
		{
			"bufferView":8,
			"componentType":5126,
			"count":690,
			"type":"VEC2"
		},
		{
			"bufferView":9,
			"componentType":5123,
			"count":3798,
			"type":"SCALAR"
		}
	],
	"bufferViews":[
		{
			"buffer":0,
			"byteLength":6664,
			"byteOffset":0,
			"target":34962
		},
		{
			"buffer":0,
			"byteLength":9996,
			"byteOffset":6664,
			"target":34962
		},
		{
			"buffer":0,
			"byteLength":9996,
			"byteOffset":16660,
			"target":34962
		},
		{
			"buffer":0,
			"byteLength":6664,
			"byteOffset":26656,
			"target":34962
		},
		{
			"buffer":0,
			"byteLength":7188,
			"byteOffset":33320,
			"target":34963
		},
		{
			"buffer":0,
			"byteLength":5520,
			"byteOffset":40508,
			"target":34962
		},
		{
			"buffer":0,
			"byteLength":8280,
			"byteOffset":46028,
			"target":34962
		},
		{
			"buffer":0,
			"byteLength":8280,
			"byteOffset":54308,
			"target":34962
		},
		{
			"buffer":0,
			"byteLength":5520,
			"byteOffset":62588,
			"target":34962
		},
		{
			"buffer":0,
			"byteLength":7596,
			"byteOffset":68108,
			"target":34963
		}
	],
	"samplers":[
		{
			"magFilter":9729,
			"minFilter":9987
		}
	],
	"buffers":[
		{
			"byteLength":75704,
			"uri":"jungle-techno-upper.bin"
		}
	]
}
