{
	"asset":{
		"generator":"Khronos glTF Blender I/O v3.6.27",
		"version":"2.0"
	},
	"extensionsUsed":[
		"KHR_materials_specular",
		"KHR_materials_ior"
	],
	"scene":0,
	"scenes":[
		{
			"name":"Scene",
			"nodes":[
				0
			]
		}
	],
	"nodes":[
		{
			"mesh":0,
			"name":"mountain-techno-upper",
			"scale":[
				1.3818795680999756,
				1.3818795680999756,
				1.3818795680999756
			]
		}
	],
	"materials":[
		{
			"doubleSided":true,
			"extensions":{
				"KHR_materials_specular":{
					"specularColorFactor":[
						0,
						0,
						0
					]
				},
				"KHR_materials_ior":{
					"ior":1.4500000476837158
				}
			},
			"name":"mountain_techno_atlas",
			"pbrMetallicRoughness":{
				"baseColorTexture":{
					"index":0
				},
				"metallicFactor":0
			}
		},
		{
			"doubleSided":true,
			"extensions":{
				"KHR_materials_specular":{
					"specularColorFactor":[
						0,
						0,
						0
					]
				},
				"KHR_materials_ior":{
					"ior":1.4500000476837158
				}
			},
			"name":"maniqui",
			"pbrMetallicRoughness":{
				"baseColorFactor":[
					0.4000000059604645,
					0.4399999976158142,
					0.5,
					1
				],
				"metallicFactor":0
			}
		}
	],
	"meshes":[
		{
			"name":"Untitled.002",
			"primitives":[
				{
					"attributes":{
						"COLOR_0":0,
						"POSITION":1,
						"NORMAL":2,
						"TEXCOORD_0":3,
						"TEXCOORD_1":4,
						"TEXCOORD_2":5
					},
					"indices":6,
					"material":0
				},
				{
					"attributes":{
						"COLOR_0":7,
						"POSITION":8,
						"NORMAL":9,
						"TEXCOORD_0":10,
						"TEXCOORD_1":11,
						"TEXCOORD_2":12
					},
					"indices":13,
					"material":1
				}
			]
		}
	],
	"textures":[
		{
			"sampler":0,
			"source":0
		}
	],
	"images":[
		{
			"mimeType":"image/png",
			"name":"mountain_techno_atlas",
			"uri":"textures/mountain_techno_atlas.png"
		}
	],
	"accessors":[
		{
			"bufferView":0,
			"componentType":5123,
			"count":855,
			"normalized":true,
			"type":"VEC4"
		},
		{
			"bufferView":1,
			"componentType":5126,
			"count":855,
			"max":[
				0.47441789507865906,
				1.3505882024765015,
				0.2919236719608307
			],
			"min":[
				-0.45735591650009155,
				0.46313777565956116,
				-0.27465561032295227
			],
			"type":"VEC3"
		},
		{
			"bufferView":2,
			"componentType":5126,
			"count":855,
			"type":"VEC3"
		},
		{
			"bufferView":3,
			"componentType":5126,
			"count":855,
			"type":"VEC2"
		},
		{
			"bufferView":4,
			"componentType":5126,
			"count":855,
			"type":"VEC2"
		},
		{
			"bufferView":5,
			"componentType":5126,
			"count":855,
			"type":"VEC2"
		},
		{
			"bufferView":6,
			"componentType":5123,
			"count":3594,
			"type":"SCALAR"
		},
		{
			"bufferView":7,
			"componentType":5123,
			"count":883,
			"normalized":true,
			"type":"VEC4"
		},
		{
			"bufferView":8,
			"componentType":5126,
			"count":883,
			"max":[
				0.3252539336681366,
				1.2833987474441528,
				0.2965601980686188
			],
			"min":[
				-0.46375834941864014,
				0.22202377021312714,
				-0.12364295870065689
			],
			"type":"VEC3"
		},
		{
			"bufferView":9,
			"componentType":5126,
			"count":883,
			"type":"VEC3"
		},
		{
			"bufferView":10,
			"componentType":5126,
			"count":883,
			"type":"VEC2"
		},
		{
			"bufferView":11,
			"componentType":5126,
			"count":883,
			"type":"VEC2"
		},
		{
			"bufferView":12,
			"componentType":5126,
			"count":883,
			"type":"VEC2"
		},
		{
			"bufferView":13,
			"componentType":5123,
			"count":3834,
			"type":"SCALAR"
		}
	],
	"bufferViews":[
		{
			"buffer":0,
			"byteLength":6840,
			"byteOffset":0,
			"target":34962
		},
		{
			"buffer":0,
			"byteLength":10260,
			"byteOffset":6840,
			"target":34962
		},
		{
			"buffer":0,
			"byteLength":10260,
			"byteOffset":17100,
			"target":34962
		},
		{
			"buffer":0,
			"byteLength":6840,
			"byteOffset":27360,
			"target":34962
		},
		{
			"buffer":0,
			"byteLength":6840,
			"byteOffset":34200,
			"target":34962
		},
		{
			"buffer":0,
			"byteLength":6840,
			"byteOffset":41040,
			"target":34962
		},
		{
			"buffer":0,
			"byteLength":7188,
			"byteOffset":47880,
			"target":34963
		},
		{
			"buffer":0,
			"byteLength":7064,
			"byteOffset":55068,
			"target":34962
		},
		{
			"buffer":0,
			"byteLength":10596,
			"byteOffset":62132,
			"target":34962
		},
		{
			"buffer":0,
			"byteLength":10596,
			"byteOffset":72728,
			"target":34962
		},
		{
			"buffer":0,
			"byteLength":7064,
			"byteOffset":83324,
			"target":34962
		},
		{
			"buffer":0,
			"byteLength":7064,
			"byteOffset":90388,
			"target":34962
		},
		{
			"buffer":0,
			"byteLength":7064,
			"byteOffset":97452,
			"target":34962
		},
		{
			"buffer":0,
			"byteLength":7668,
			"byteOffset":104516,
			"target":34963
		}
	],
	"samplers":[
		{
			"magFilter":9729,
			"minFilter":9987
		}
	],
	"buffers":[
		{
			"byteLength":112184,
			"uri":"jungle-techno-upper.bin"
		}
	]
}
