{
	"asset":{
		"generator":"Khronos glTF Blender I/O v3.6.27",
		"version":"2.0"
	},
	"extensionsUsed":[
		"KHR_materials_specular",
		"KHR_materials_ior"
	],
	"scene":0,
	"scenes":[
		{
			"name":"Scene",
			"nodes":[
				0
			]
		}
	],
	"nodes":[
		{
			"mesh":0,
			"name":"mountain-techno-hat",
			"rotation":[
				0.70710688829422,
				0,
				0,
				0.7071066498756409
			],
			"scale":[
				1.3818795680999756,
				1.3818795680999756,
				1.3818795680999756
			]
		}
	],
	"materials":[
		{
			"doubleSided":true,
			"extensions":{
				"KHR_materials_specular":{
					"specularColorFactor":[
						0,
						0,
						0
					]
				},
				"KHR_materials_ior":{
					"ior":1.4500000476837158
				}
			},
			"name":"mountain_techno_atlas",
			"pbrMetallicRoughness":{
				"baseColorTexture":{
					"index":0
				},
				"metallicFactor":0
			}
		},
		{
			"doubleSided":true,
			"extensions":{
				"KHR_materials_specular":{
					"specularColorFactor":[
						0,
						0,
						0
					]
				},
				"KHR_materials_ior":{
					"ior":1.4500000476837158
				}
			},
			"name":"maniqui",
			"pbrMetallicRoughness":{
				"baseColorFactor":[
					0.4000000059604645,
					0.4399999976158142,
					0.5,
					1
				],
				"metallicFactor":0
			}
		}
	],
	"meshes":[
		{
			"name":"Untitled.003",
			"primitives":[
				{
					"attributes":{
						"POSITION":0,
						"NORMAL":1,
						"TEXCOORD_0":2,
						"TEXCOORD_1":3
					},
					"indices":4,
					"material":0
				},
				{
					"attributes":{
						"POSITION":5,
						"NORMAL":6,
						"TEXCOORD_0":7,
						"TEXCOORD_1":8
					},
					"indices":9,
					"material":1
				}
			]
		}
	],
	"textures":[
		{
			"sampler":0,
			"source":0
		}
	],
	"images":[
		{
			"mimeType":"image/png",
			"name":"mountain_techno_atlas",
			"uri":"textures/mountain_techno_atlas.png"
		}
	],
	"accessors":[
		{
			"bufferView":0,
			"componentType":5126,
			"count":358,
			"max":[
				0.16339462995529175,
				0.3335769772529602,
				-1.1094355583190918
			],
			"min":[
				-0.22667169570922852,
				-0.19538037478923798,
				-1.371764898300171
			],
			"type":"VEC3"
		},
		{
			"bufferView":1,
			"componentType":5126,
			"count":358,
			"type":"VEC3"
		},
		{
			"bufferView":2,
			"componentType":5126,
			"count":358,
			"type":"VEC2"
		},
		{
			"bufferView":3,
			"componentType":5126,
			"count":358,
			"type":"VEC2"
		},
		{
			"bufferView":4,
			"componentType":5123,
			"count":1410,
			"type":"SCALAR"
		},
		{
			"bufferView":5,
			"componentType":5126,
			"count":580,
			"max":[
				0.17095625400543213,
				0.22226257622241974,
				-0.7881676554679871
			],
			"min":[
				-0.19063551723957062,
				-0.18888428807258606,
				-1.3479504585266113
			],
			"type":"VEC3"
		},
		{
			"bufferView":6,
			"componentType":5126,
			"count":580,
			"type":"VEC3"
		},
		{
			"bufferView":7,
			"componentType":5126,
			"count":580,
			"type":"VEC2"
		},
		{
			"bufferView":8,
			"componentType":5126,
			"count":580,
			"type":"VEC2"
		},
		{
			"bufferView":9,
			"componentType":5123,
			"count":3108,
			"type":"SCALAR"
		}
	],
	"bufferViews":[
		{
			"buffer":0,
			"byteLength":4296,
			"byteOffset":0,
			"target":34962
		},
		{
			"buffer":0,
			"byteLength":4296,
			"byteOffset":4296,
			"target":34962
		},
		{
			"buffer":0,
			"byteLength":2864,
			"byteOffset":8592,
			"target":34962
		},
		{
			"buffer":0,
			"byteLength":2864,
			"byteOffset":11456,
			"target":34962
		},
		{
			"buffer":0,
			"byteLength":2820,
			"byteOffset":14320,
			"target":34963
		},
		{
			"buffer":0,
			"byteLength":6960,
			"byteOffset":17140,
			"target":34962
		},
		{
			"buffer":0,
			"byteLength":6960,
			"byteOffset":24100,
			"target":34962
		},
		{
			"buffer":0,
			"byteLength":4640,
			"byteOffset":31060,
			"target":34962
		},
		{
			"buffer":0,
			"byteLength":4640,
			"byteOffset":35700,
			"target":34962
		},
		{
			"buffer":0,
			"byteLength":6216,
			"byteOffset":40340,
			"target":34963
		}
	],
	"samplers":[
		{
			"magFilter":9729,
			"minFilter":9987
		}
	],
	"buffers":[
		{
			"byteLength":46556,
			"uri":"jungle-techno-head.bin"
		}
	]
}
