{
	"asset":{
		"generator":"Khronos glTF Blender I/O v3.6.27",
		"version":"2.0"
	},
	"extensionsUsed":[
		"KHR_materials_specular",
		"KHR_materials_ior"
	],
	"scene":0,
	"scenes":[
		{
			"name":"Scene",
			"nodes":[
				0
			]
		}
	],
	"nodes":[
		{
			"mesh":0,
			"name":"mountain-techno-feet",
			"rotation":[
				0.70710688829422,
				0,
				0,
				0.7071066498756409
			],
			"scale":[
				1.3818795680999756,
				1.3818795680999756,
				1.3818795680999756
			]
		}
	],
	"materials":[
		{
			"doubleSided":true,
			"extensions":{
				"KHR_materials_specular":{
					"specularColorFactor":[
						0,
						0,
						0
					]
				},
				"KHR_materials_ior":{
					"ior":1.4500000476837158
				}
			},
			"name":"mountain_techno_atlas",
			"pbrMetallicRoughness":{
				"baseColorTexture":{
					"index":0
				},
				"metallicFactor":0
			}
		}
	],
	"meshes":[
		{
			"name":"Mesh.001",
			"primitives":[
				{
					"attributes":{
						"COLOR_0":0,
						"POSITION":1,
						"NORMAL":2,
						"TEXCOORD_0":3
					},
					"indices":4,
					"material":0
				}
			]
		}
	],
	"textures":[
		{
			"sampler":0,
			"source":0
		}
	],
	"images":[
		{
			"mimeType":"image/png",
			"name":"mountain_techno_atlas",
			"uri":"textures/mountain_techno_atlas.png"
		}
	],
	"accessors":[
		{
			"bufferView":0,
			"componentType":5123,
			"count":1428,
			"normalized":true,
			"type":"VEC4"
		},
		{
			"bufferView":1,
			"componentType":5126,
			"count":1428,
			"max":[
				0.272921621799469,
				0.4757020175457001,
				-0.5402037501335144
			],
			"min":[
				-0.5480892062187195,
				-0.2889661192893982,
				-0.8812901377677917
			],
			"type":"VEC3"
		},
		{
			"bufferView":2,
			"componentType":5126,
			"count":1428,
			"type":"VEC3"
		},
		{
			"bufferView":3,
			"componentType":5126,
			"count":1428,
			"type":"VEC2"
		},
		{
			"bufferView":4,
			"componentType":5123,
			"count":4980,
			"type":"SCALAR"
		}
	],
	"bufferViews":[
		{
			"buffer":0,
			"byteLength":11424,
			"byteOffset":0,
			"target":34962
		},
		{
			"buffer":0,
			"byteLength":17136,
			"byteOffset":11424,
			"target":34962
		},
		{
			"buffer":0,
			"byteLength":17136,
			"byteOffset":28560,
			"target":34962
		},
		{
			"buffer":0,
			"byteLength":11424,
			"byteOffset":45696,
			"target":34962
		},
		{
			"buffer":0,
			"byteLength":9960,
			"byteOffset":57120,
			"target":34963
		}
	],
	"samplers":[
		{
			"magFilter":9729,
			"minFilter":9987
		}
	],
	"buffers":[
		{
			"byteLength":67080,
			"uri":"jungle-techno-feet.bin"
		}
	]
}
