{
	"asset":{
		"generator":"Khronos glTF Blender I/O v3.6.27",
		"version":"2.0"
	},
	"extensionsUsed":[
		"KHR_materials_specular",
		"KHR_materials_ior"
	],
	"scene":0,
	"scenes":[
		{
			"name":"Scene",
			"nodes":[
				0
			]
		}
	],
	"nodes":[
		{
			"mesh":0,
			"name":"mountain-techno-lower",
			"scale":[
				1.3818795680999756,
				1.3818795680999756,
				1.3818795680999756
			]
		}
	],
	"materials":[
		{
			"doubleSided":true,
			"extensions":{
				"KHR_materials_specular":{
					"specularColorFactor":[
						0,
						0,
						0
					]
				},
				"KHR_materials_ior":{
					"ior":1.4500000476837158
				}
			},
			"name":"mountain_techno_atlas",
			"pbrMetallicRoughness":{
				"baseColorTexture":{
					"index":0
				},
				"metallicFactor":0
			}
		},
		{
			"doubleSided":true,
			"extensions":{
				"KHR_materials_specular":{
					"specularColorFactor":[
						0,
						0,
						0
					]
				},
				"KHR_materials_ior":{
					"ior":1.4500000476837158
				}
			},
			"name":"maniqui",
			"pbrMetallicRoughness":{
				"baseColorFactor":[
					0.4000000059604645,
					0.4399999976158142,
					0.5,
					1
				],
				"metallicFactor":0
			}
		}
	],
	"meshes":[
		{
			"name":"ShapeA_lBody_BaseMesh.007",
			"primitives":[
				{
					"attributes":{
						"COLOR_0":0,
						"POSITION":1,
						"NORMAL":2,
						"TEXCOORD_0":3
					},
					"indices":4,
					"material":0
				},
				{
					"attributes":{
						"COLOR_0":5,
						"POSITION":6,
						"NORMAL":7,
						"TEXCOORD_0":8
					},
					"indices":9,
					"material":1
				}
			]
		}
	],
	"textures":[
		{
			"sampler":0,
			"source":0
		}
	],
	"images":[
		{
			"mimeType":"image/png",
			"name":"mountain_techno_atlas",
			"uri":"textures/mountain_techno_atlas.png"
		}
	],
	"accessors":[
		{
			"bufferView":0,
			"componentType":5123,
			"count":330,
			"normalized":true,
			"type":"VEC4"
		},
		{
			"bufferView":1,
			"componentType":5126,
			"count":330,
			"max":[
				0.24608327448368073,
				1.1798564195632935,
				0.20173870027065277
			],
			"min":[
				-0.2599945068359375,
				0.7300685048103333,
				-0.1981300264596939
			],
			"type":"VEC3"
		},
		{
			"bufferView":2,
			"componentType":5126,
			"count":330,
			"type":"VEC3"
		},
		{
			"bufferView":3,
			"componentType":5126,
			"count":330,
			"type":"VEC2"
		},
		{
			"bufferView":4,
			"componentType":5123,
			"count":1440,
			"type":"SCALAR"
		},
		{
			"bufferView":5,
			"componentType":5123,
			"count":199,
			"normalized":true,
			"type":"VEC4"
		},
		{
			"bufferView":6,
			"componentType":5126,
			"count":199,
			"max":[
				0.2323128879070282,
				1.1307876110076904,
				0.19845958054065704
			],
			"min":[
				-0.2438744306564331,
				0.04209244251251221,
				-0.16041229665279388
			],
			"type":"VEC3"
		},
		{
			"bufferView":7,
			"componentType":5126,
			"count":199,
			"type":"VEC3"
		},
		{
			"bufferView":8,
			"componentType":5126,
			"count":199,
			"type":"VEC2"
		},
		{
			"bufferView":9,
			"componentType":5123,
			"count":990,
			"type":"SCALAR"
		}
	],
	"bufferViews":[
		{
			"buffer":0,
			"byteLength":2640,
			"byteOffset":0,
			"target":34962
		},
		{
			"buffer":0,
			"byteLength":3960,
			"byteOffset":2640,
			"target":34962
		},
		{
			"buffer":0,
			"byteLength":3960,
			"byteOffset":6600,
			"target":34962
		},
		{
			"buffer":0,
			"byteLength":2640,
			"byteOffset":10560,
			"target":34962
		},
		{
			"buffer":0,
			"byteLength":2880,
			"byteOffset":13200,
			"target":34963
		},
		{
			"buffer":0,
			"byteLength":1592,
			"byteOffset":16080,
			"target":34962
		},
		{
			"buffer":0,
			"byteLength":2388,
			"byteOffset":17672,
			"target":34962
		},
		{
			"buffer":0,
			"byteLength":2388,
			"byteOffset":20060,
			"target":34962
		},
		{
			"buffer":0,
			"byteLength":1592,
			"byteOffset":22448,
			"target":34962
		},
		{
			"buffer":0,
			"byteLength":1980,
			"byteOffset":24040,
			"target":34963
		}
	],
	"samplers":[
		{
			"magFilter":9729,
			"minFilter":9987
		}
	],
	"buffers":[
		{
			"byteLength":26020,
			"uri":"jungle-techno-lower.bin"
		}
	]
}
