# Blender v3.0.1 OBJ File: 'SimpleParts.blend'
# www.blender.org
mtllib basic_sidebend.mtl
o basic_sidebend_glb_ID3.058
v 2.000000 0.243186 -2.000000
v -2.000000 0.243186 -2.000000
v -2.000000 0.243186 -1.711557
v -2.000000 0.513489 -1.035386
v -2.000000 0.358637 -1.365598
v -2.000000 0.667978 -0.705006
v -2.000000 0.790757 -0.361560
v -2.000000 0.115451 -1.365598
v -2.000000 0.000000 -2.000000
v -2.000000 0.270304 -1.035386
v 2.000000 0.243186 0.000000
v -2.000000 0.838520 0.000000
v -2.000000 0.000000 -1.711557
v 2.000000 0.000000 -2.000000
v -2.000000 0.424792 -0.705006
v -2.000000 0.547572 -0.361560
v 2.000000 0.000000 0.000000
v -2.000000 0.595335 0.000000
v 2.000000 0.243186 2.000000
v -2.000000 0.243186 2.000000
v -2.000000 0.243186 1.711557
v -2.000000 0.513489 1.035386
v -2.000000 0.358637 1.365598
v -2.000000 0.667978 0.705006
v -2.000000 0.790757 0.361560
v -2.000000 0.115451 1.365598
v -2.000000 0.000000 2.000000
v -2.000000 0.270304 1.035386
v -2.000000 0.000000 1.711557
v 2.000000 0.000000 2.000000
v -2.000000 0.424792 0.705006
v -2.000000 0.547572 0.361560
vt 0.745941 0.501120
vt 0.658851 0.004454
vt 0.701277 0.002389
vt 0.534511 0.011599
vt 0.577248 0.009657
vt 0.618039 0.007052
vt 0.498880 0.501120
vt 0.498880 0.011599
vt 0.248647 0.501120
vt 0.293311 0.002389
vt 0.335737 0.004454
vt 0.460077 0.011599
vt 0.495709 0.011599
vt 0.495709 0.501120
vt 0.248647 0.001585
vt 0.417341 0.009657
vt 0.376549 0.007052
vt 0.045888 0.920046
vt 0.015847 0.920046
vt 0.034976 0.879255
vt 0.065017 0.879255
vt 0.745941 0.001585
vt 0.174763 0.504291
vt 0.204804 0.504291
vt 0.204804 0.998415
vt 0.174763 0.998415
vt 0.054060 0.838443
vt 0.084101 0.838443
vt 0.108339 0.751353
vt 0.138380 0.751353
vt 0.138380 0.998415
vt 0.108339 0.998415
vt 0.069227 0.796017
vt 0.099268 0.796017
vt 0.031626 0.998415
vt 0.001585 0.998415
vt 0.001585 0.962783
vt 0.031626 0.962783
vt 0.075128 0.751353
vt 0.105169 0.751353
vt 0.790605 0.002389
vt 0.833031 0.004454
vt 0.957371 0.011599
vt 0.914635 0.009657
vt 0.873843 0.007052
vt 0.993003 0.011599
vt 0.993003 0.501120
vt 0.161557 0.004454
vt 0.203983 0.002389
vt 0.001585 0.501120
vt 0.001585 0.011599
vt 0.037217 0.011599
vt 0.079954 0.009657
vt 0.120745 0.007052
vt 0.045888 0.582659
vt 0.065017 0.623451
vt 0.034976 0.623451
vt 0.015847 0.582659
vt 0.141551 0.998415
vt 0.141551 0.504291
vt 0.171592 0.504291
vt 0.171592 0.998415
vt 0.084101 0.664263
vt 0.054060 0.664263
vt 0.108339 0.504291
vt 0.138380 0.504291
vt 0.099268 0.706689
vt 0.069227 0.706689
vt 0.031626 0.504291
vt 0.031626 0.539923
vt 0.001585 0.539923
vt 0.001585 0.504291
vn 0.0427 0.9991 0.0000
vn 0.1635 0.9110 -0.3787
vn 0.1527 0.9597 -0.2359
vn 0.0511 0.9915 -0.1195
vn 0.1485 0.9222 -0.3570
vn 0.1685 0.8926 -0.4181
vn 0.0000 1.0000 0.0000
vn -0.0427 -0.9991 0.0000
vn -0.1527 -0.9597 0.2359
vn -0.1635 -0.9110 0.3787
vn -0.0511 -0.9915 0.1195
vn 0.0000 -1.0000 0.0000
vn -0.1472 -0.9891 0.0000
vn -0.1485 -0.9222 0.3570
vn -0.1685 -0.8926 0.4181
vn -1.0000 0.0000 0.0000
vn 0.1472 0.9891 0.0000
vn 0.0000 0.0000 -1.0000
vn 1.0000 0.0000 0.0000
vn 0.1527 0.9597 0.2359
vn 0.1635 0.9110 0.3787
vn 0.0511 0.9915 0.1195
vn 0.1485 0.9222 0.3570
vn 0.1685 0.8926 0.4181
vn -0.1635 -0.9110 -0.3787
vn -0.1527 -0.9597 -0.2359
vn -0.0511 -0.9915 -0.1195
vn -0.1485 -0.9222 -0.3570
vn -0.1685 -0.8926 -0.4181
vn 0.0000 0.0000 1.0000
usemtl Material
s 1
f 11/1/1 6/2/2 7/3/3
f 3/4/4 5/5/5 11/1/1
f 5/5/5 4/6/6 11/1/1
f 11/1/1 4/6/6 6/2/2
f 11/1/1 1/7/7 2/8/7 3/4/4
f 17/9/8 16/10/9 15/11/10
f 17/9/8 13/12/11 9/13/12 14/14/12
f 16/10/9 17/9/8 18/15/13
f 13/12/11 17/9/8 8/16/14
f 8/16/14 17/9/8 10/17/15
f 5/18/16 8/19/16 10/20/16 4/21/16
f 17/9/8 15/11/10 10/17/15
f 7/3/3 12/22/17 11/1/1
f 1/23/18 14/24/18 9/25/18 2/26/18
f 4/21/16 10/20/16 15/27/16 6/28/16
f 11/29/19 17/30/19 14/31/19 1/32/19
f 6/28/16 15/27/16 16/33/16 7/34/16
f 2/35/16 9/36/16 13/37/16 3/38/16
f 7/34/16 16/33/16 18/39/16 12/40/16
f 3/38/16 13/37/16 8/19/16 5/18/16
f 11/1/1 25/41/20 24/42/21
f 21/43/22 11/1/1 23/44/23
f 23/44/23 11/1/1 22/45/24
f 11/1/1 24/42/21 22/45/24
f 11/1/1 21/43/22 20/46/7 19/47/7
f 17/9/8 31/48/25 32/49/26
f 17/9/8 30/50/12 27/51/12 29/52/27
f 32/49/26 18/15/13 17/9/8
f 29/52/27 26/53/28 17/9/8
f 26/53/28 28/54/29 17/9/8
f 23/55/16 22/56/16 28/57/16 26/58/16
f 17/9/8 28/54/29 31/48/25
f 25/41/20 11/1/1 12/22/17
f 19/59/30 20/60/30 27/61/30 30/62/30
f 22/56/16 24/63/16 31/64/16 28/57/16
f 11/29/19 19/65/19 30/66/19 17/30/19
f 24/63/16 25/67/16 32/68/16 31/64/16
f 20/69/16 21/70/16 29/71/16 27/72/16
f 25/67/16 12/40/16 18/39/16 32/68/16
f 21/70/16 23/55/16 26/58/16 29/71/16
