{
	"asset":{
		"generator":"Khronos glTF Blender I/O v3.6.27",
		"version":"2.0"
	},
	"scene":0,
	"scenes":[
		{
			"name":"Scene",
			"nodes":[
				0,
				1,
				2
			]
		}
	],
	"nodes":[
		{
			"mesh":0,
			"name":"rubber_box_collider"
		},
		{
			"mesh":1,
			"name":"rubber_box_glb.001"
		},
		{
			"mesh":2,
			"name":"rubber_box_glb.002"
		}
	],
	"materials":[
		{
			"emissiveFactor":[
				0.10000000149011612,
				0.10000000149011612,
				0.10000000149011612
			],
			"emissiveTexture":{
				"index":0
			},
			"name":"rubber",
			"pbrMetallicRoughness":{
				"baseColorTexture":{
					"index":1
				},
				"metallicFactor":0
			}
		},
		{
			"emissiveFactor":[
				0.800000011920929,
				0.800000011920929,
				0.800000011920929
			],
			"emissiveTexture":{
				"index":2
			},
			"name":"rubber_emission",
			"pbrMetallicRoughness":{
				"baseColorTexture":{
					"index":3
				},
				"metallicFactor":0
			}
		}
	],
	"meshes":[
		{
			"name":"Cube.017",
			"primitives":[
				{
					"attributes":{
						"POSITION":0,
						"NORMAL":1,
						"TEXCOORD_0":2
					},
					"indices":3
				}
			]
		},
		{
			"name":"Cube.002",
			"primitives":[
				{
					"attributes":{
						"POSITION":4,
						"NORMAL":5,
						"TEXCOORD_0":6
					},
					"indices":7,
					"material":0
				}
			]
		},
		{
			"name":"Cube.003",
			"primitives":[
				{
					"attributes":{
						"POSITION":8,
						"NORMAL":9,
						"TEXCOORD_0":10
					},
					"indices":11,
					"material":1
				}
			]
		}
	],
	"textures":[
		{
			"sampler":0,
			"source":0
		},
		{
			"sampler":0,
			"source":0
		},
		{
			"sampler":0,
			"source":0
		},
		{
			"sampler":0,
			"source":0
		}
	],
	"images":[
		{
			"mimeType":"image/png",
			"name":"rubber_box",
			"uri":"textures/rubber_box.png"
		}
	],
	"accessors":[
		{
			"bufferView":0,
			"componentType":5126,
			"count":24,
			"max":[
				1.5,
				1,
				0.5
			],
			"min":[
				-1.5,
				0,
				-0.5
			],
			"type":"VEC3"
		},
		{
			"bufferView":1,
			"componentType":5126,
			"count":24,
			"type":"VEC3"
		},
		{
			"bufferView":2,
			"componentType":5126,
			"count":24,
			"type":"VEC2"
		},
		{
			"bufferView":3,
			"componentType":5123,
			"count":36,
			"type":"SCALAR"
		},
		{
			"bufferView":4,
			"componentType":5126,
			"count":94,
			"max":[
				1.4688016176223755,
				0.9688016176223755,
				0.4688015580177307
			],
			"min":[
				-1.4688016176223755,
				0.031198441982269287,
				-0.4688015580177307
			],
			"type":"VEC3"
		},
		{
			"bufferView":5,
			"componentType":5126,
			"count":94,
			"type":"VEC3"
		},
		{
			"bufferView":6,
			"componentType":5126,
			"count":94,
			"type":"VEC2"
		},
		{
			"bufferView":7,
			"componentType":5123,
			"count":324,
			"type":"SCALAR"
		},
		{
			"bufferView":8,
			"componentType":5126,
			"count":20,
			"max":[
				1.5,
				1,
				0.5
			],
			"min":[
				-1.5,
				0,
				-0.5
			],
			"type":"VEC3"
		},
		{
			"bufferView":9,
			"componentType":5126,
			"count":20,
			"type":"VEC3"
		},
		{
			"bufferView":10,
			"componentType":5126,
			"count":20,
			"type":"VEC2"
		},
		{
			"bufferView":11,
			"componentType":5123,
			"count":36,
			"type":"SCALAR"
		}
	],
	"bufferViews":[
		{
			"buffer":0,
			"byteLength":288,
			"byteOffset":0,
			"target":34962
		},
		{
			"buffer":0,
			"byteLength":288,
			"byteOffset":288,
			"target":34962
		},
		{
			"buffer":0,
			"byteLength":192,
			"byteOffset":576,
			"target":34962
		},
		{
			"buffer":0,
			"byteLength":72,
			"byteOffset":768,
			"target":34963
		},
		{
			"buffer":0,
			"byteLength":1128,
			"byteOffset":840,
			"target":34962
		},
		{
			"buffer":0,
			"byteLength":1128,
			"byteOffset":1968,
			"target":34962
		},
		{
			"buffer":0,
			"byteLength":752,
			"byteOffset":3096,
			"target":34962
		},
		{
			"buffer":0,
			"byteLength":648,
			"byteOffset":3848,
			"target":34963
		},
		{
			"buffer":0,
			"byteLength":240,
			"byteOffset":4496,
			"target":34962
		},
		{
			"buffer":0,
			"byteLength":240,
			"byteOffset":4736,
			"target":34962
		},
		{
			"buffer":0,
			"byteLength":160,
			"byteOffset":4976,
			"target":34962
		},
		{
			"buffer":0,
			"byteLength":72,
			"byteOffset":5136,
			"target":34963
		}
	],
	"samplers":[
		{
			"magFilter":9729,
			"minFilter":9987
		}
	],
	"buffers":[
		{
			"byteLength":5208,
			"uri":"rubber_box.bin"
		}
	]
}
