{
	"asset":{
		"generator":"Khronos glTF Blender I/O v3.6.27",
		"version":"2.0"
	},
	"scene":0,
	"scenes":[
		{
			"name":"Scene",
			"nodes":[
				0,
				1,
				2,
				3
			]
		}
	],
	"nodes":[
		{
			"mesh":0,
			"name":"M_mechanic_feet",
			"rotation":[
				0.7071069478988647,
				0,
				0,
				0.7071066498756409
			],
			"scale":[
				0.01899999938905239,
				0.018999997526407242,
				0.018999997526407242
			]
		},
		{
			"mesh":1,
			"name":"M_mechanic_head",
			"rotation":[
				0.70710688829422,
				0,
				0,
				0.7071066498756409
			],
			"scale":[
				0.01899999938905239,
				0.01899999938905239,
				0.01899999938905239
			]
		},
		{
			"mesh":2,
			"name":"M_mechanic_lower",
			"rotation":[
				0.7071069478988647,
				0,
				0,
				0.7071066498756409
			],
			"scale":[
				0.01899999938905239,
				0.018999997526407242,
				0.018999997526407242
			]
		},
		{
			"mesh":3,
			"name":"M_mechanic_upper",
			"rotation":[
				0.7071069478988647,
				0,
				0,
				0.7071066498756409
			],
			"scale":[
				0.01899999938905239,
				0.018999997526407242,
				0.018999997526407242
			]
		}
	],
	"materials":[
		{
			"doubleSided":true,
			"emissiveFactor":[
				0.05000000074505806,
				0.05000000074505806,
				0.05000000074505806
			],
			"emissiveTexture":{
				"index":0
			},
			"name":"mechanic_atlas",
			"pbrMetallicRoughness":{
				"baseColorTexture":{
					"index":1
				},
				"metallicFactor":0
			}
		},
		{
			"emissiveFactor":[
				0.020000000596046452,
				0.022000000208616255,
				0.02500000037252903
			],
			"name":"maniqui",
			"pbrMetallicRoughness":{
				"baseColorFactor":[
					0.4000000059604645,
					0.4399999976158142,
					0.5,
					1
				],
				"metallicFactor":0,
				"roughnessFactor":0.5
			}
		},
		{
			"alphaCutoff":0.5,
			"alphaMode":"MASK",
			"doubleSided":true,
			"emissiveFactor":[
				0.05000000074505806,
				0.05000000074505806,
				0.05000000074505806
			],
			"emissiveTexture":{
				"index":2
			},
			"name":"mechanic_atlas_alphaclip",
			"pbrMetallicRoughness":{
				"baseColorTexture":{
					"index":3
				},
				"metallicFactor":0
			}
		}
	],
	"meshes":[
		{
			"name":"Mesh.011",
			"primitives":[
				{
					"attributes":{
						"COLOR_0":0,
						"POSITION":1,
						"NORMAL":2,
						"TEXCOORD_0":3
					},
					"indices":4,
					"material":0
				}
			]
		},
		{
			"name":"Mesh.009",
			"primitives":[
				{
					"attributes":{
						"POSITION":5,
						"NORMAL":6,
						"TEXCOORD_0":7
					},
					"indices":8,
					"material":1
				}
			]
		},
		{
			"name":"Mesh.010",
			"primitives":[
				{
					"attributes":{
						"POSITION":9,
						"NORMAL":10,
						"TEXCOORD_0":11
					},
					"indices":12,
					"material":0
				}
			]
		},
		{
			"name":"Mesh.022",
			"primitives":[
				{
					"attributes":{
						"POSITION":13,
						"NORMAL":14,
						"TEXCOORD_0":15,
						"TEXCOORD_1":16
					},
					"indices":17,
					"material":0
				},
				{
					"attributes":{
						"POSITION":18,
						"NORMAL":19,
						"TEXCOORD_0":20,
						"TEXCOORD_1":21
					},
					"indices":22,
					"material":1
				},
				{
					"attributes":{
						"POSITION":23,
						"NORMAL":24,
						"TEXCOORD_0":25,
						"TEXCOORD_1":26
					},
					"indices":27,
					"material":2
				}
			]
		}
	],
	"textures":[
		{
			"sampler":0,
			"source":0
		},
		{
			"sampler":0,
			"source":0
		},
		{
			"sampler":0,
			"source":0
		},
		{
			"sampler":0,
			"source":0
		}
	],
	"images":[
		{
			"mimeType":"image/png",
			"name":"mechanic_atlas",
			"uri":"textures/mechanic_atlas.png"
		}
	],
	"accessors":[
		{
			"bufferView":0,
			"componentType":5123,
			"count":737,
			"normalized":true,
			"type":"VEC4"
		},
		{
			"bufferView":1,
			"componentType":5126,
			"count":737,
			"max":[
				39.05181884765625,
				22.436874389648438,
				2.151407241821289
			],
			"min":[
				-18.619873046875,
				-8.251222610473633,
				-11.869635581970215
			],
			"type":"VEC3"
		},
		{
			"bufferView":2,
			"componentType":5126,
			"count":737,
			"type":"VEC3"
		},
		{
			"bufferView":3,
			"componentType":5126,
			"count":737,
			"type":"VEC2"
		},
		{
			"bufferView":4,
			"componentType":5123,
			"count":2124,
			"type":"SCALAR"
		},
		{
			"bufferView":5,
			"componentType":5126,
			"count":355,
			"max":[
				10.752564430236816,
				18.743305206298828,
				-145.57904052734375
			],
			"min":[
				-17.092153549194336,
				-10.664302825927734,
				-190.15855407714844
			],
			"type":"VEC3"
		},
		{
			"bufferView":6,
			"componentType":5126,
			"count":355,
			"type":"VEC3"
		},
		{
			"bufferView":7,
			"componentType":5126,
			"count":355,
			"type":"VEC2"
		},
		{
			"bufferView":8,
			"componentType":5123,
			"count":1680,
			"type":"SCALAR"
		},
		{
			"bufferView":9,
			"componentType":5126,
			"count":1351,
			"max":[
				28.16347312927246,
				17.08452796936035,
				-10.96059799194336
			],
			"min":[
				-21.2232666015625,
				-14.916963577270508,
				-98.45291900634766
			],
			"type":"VEC3"
		},
		{
			"bufferView":10,
			"componentType":5126,
			"count":1351,
			"type":"VEC3"
		},
		{
			"bufferView":11,
			"componentType":5126,
			"count":1351,
			"type":"VEC2"
		},
		{
			"bufferView":12,
			"componentType":5123,
			"count":4194,
			"type":"SCALAR"
		},
		{
			"bufferView":13,
			"componentType":5126,
			"count":948,
			"max":[
				36.62145233154297,
				19.045034408569336,
				-95.64668273925781
			],
			"min":[
				-45.84735107421875,
				-16.521406173706055,
				-158.3740234375
			],
			"type":"VEC3"
		},
		{
			"bufferView":14,
			"componentType":5126,
			"count":948,
			"type":"VEC3"
		},
		{
			"bufferView":15,
			"componentType":5126,
			"count":948,
			"type":"VEC2"
		},
		{
			"bufferView":16,
			"componentType":5126,
			"count":948,
			"type":"VEC2"
		},
		{
			"bufferView":17,
			"componentType":5123,
			"count":2835,
			"type":"SCALAR"
		},
		{
			"bufferView":18,
			"componentType":5126,
			"count":501,
			"max":[
				34.02495574951172,
				13.685066223144531,
				-92.5540771484375
			],
			"min":[
				-43.697811126708984,
				-13.89056396484375,
				-132.3037567138672
			],
			"type":"VEC3"
		},
		{
			"bufferView":19,
			"componentType":5126,
			"count":501,
			"type":"VEC3"
		},
		{
			"bufferView":20,
			"componentType":5126,
			"count":501,
			"type":"VEC2"
		},
		{
			"bufferView":21,
			"componentType":5126,
			"count":501,
			"type":"VEC2"
		},
		{
			"bufferView":22,
			"componentType":5123,
			"count":1812,
			"type":"SCALAR"
		},
		{
			"bufferView":23,
			"componentType":5126,
			"count":4,
			"max":[
				11.836442947387695,
				-11.408132553100586,
				-118.13385772705078
			],
			"min":[
				-12.442619323730469,
				-13.908991813659668,
				-140.58287048339844
			],
			"type":"VEC3"
		},
		{
			"bufferView":24,
			"componentType":5126,
			"count":4,
			"type":"VEC3"
		},
		{
			"bufferView":25,
			"componentType":5126,
			"count":4,
			"type":"VEC2"
		},
		{
			"bufferView":26,
			"componentType":5126,
			"count":4,
			"type":"VEC2"
		},
		{
			"bufferView":27,
			"componentType":5123,
			"count":6,
			"type":"SCALAR"
		}
	],
	"bufferViews":[
		{
			"buffer":0,
			"byteLength":5896,
			"byteOffset":0,
			"target":34962
		},
		{
			"buffer":0,
			"byteLength":8844,
			"byteOffset":5896,
			"target":34962
		},
		{
			"buffer":0,
			"byteLength":8844,
			"byteOffset":14740,
			"target":34962
		},
		{
			"buffer":0,
			"byteLength":5896,
			"byteOffset":23584,
			"target":34962
		},
		{
			"buffer":0,
			"byteLength":4248,
			"byteOffset":29480,
			"target":34963
		},
		{
			"buffer":0,
			"byteLength":4260,
			"byteOffset":33728,
			"target":34962
		},
		{
			"buffer":0,
			"byteLength":4260,
			"byteOffset":37988,
			"target":34962
		},
		{
			"buffer":0,
			"byteLength":2840,
			"byteOffset":42248,
			"target":34962
		},
		{
			"buffer":0,
			"byteLength":3360,
			"byteOffset":45088,
			"target":34963
		},
		{
			"buffer":0,
			"byteLength":16212,
			"byteOffset":48448,
			"target":34962
		},
		{
			"buffer":0,
			"byteLength":16212,
			"byteOffset":64660,
			"target":34962
		},
		{
			"buffer":0,
			"byteLength":10808,
			"byteOffset":80872,
			"target":34962
		},
		{
			"buffer":0,
			"byteLength":8388,
			"byteOffset":91680,
			"target":34963
		},
		{
			"buffer":0,
			"byteLength":11376,
			"byteOffset":100068,
			"target":34962
		},
		{
			"buffer":0,
			"byteLength":11376,
			"byteOffset":111444,
			"target":34962
		},
		{
			"buffer":0,
			"byteLength":7584,
			"byteOffset":122820,
			"target":34962
		},
		{
			"buffer":0,
			"byteLength":7584,
			"byteOffset":130404,
			"target":34962
		},
		{
			"buffer":0,
			"byteLength":5670,
			"byteOffset":137988,
			"target":34963
		},
		{
			"buffer":0,
			"byteLength":6012,
			"byteOffset":143660,
			"target":34962
		},
		{
			"buffer":0,
			"byteLength":6012,
			"byteOffset":149672,
			"target":34962
		},
		{
			"buffer":0,
			"byteLength":4008,
			"byteOffset":155684,
			"target":34962
		},
		{
			"buffer":0,
			"byteLength":4008,
			"byteOffset":159692,
			"target":34962
		},
		{
			"buffer":0,
			"byteLength":3624,
			"byteOffset":163700,
			"target":34963
		},
		{
			"buffer":0,
			"byteLength":48,
			"byteOffset":167324,
			"target":34962
		},
		{
			"buffer":0,
			"byteLength":48,
			"byteOffset":167372,
			"target":34962
		},
		{
			"buffer":0,
			"byteLength":32,
			"byteOffset":167420,
			"target":34962
		},
		{
			"buffer":0,
			"byteLength":32,
			"byteOffset":167452,
			"target":34962
		},
		{
			"buffer":0,
			"byteLength":12,
			"byteOffset":167484,
			"target":34963
		}
	],
	"samplers":[
		{
			"magFilter":9729,
			"minFilter":9987
		}
	],
	"buffers":[
		{
			"byteLength":167496,
			"uri":"M_mechanic_pose.bin"
		}
	]
}
