{
	"asset":{
		"generator":"Khronos glTF Blender I/O v3.6.27",
		"version":"2.0"
	},
	"scene":0,
	"scenes":[
		{
			"name":"Scene",
			"nodes":[
				0,
				1,
				2,
				3
			]
		}
	],
	"nodes":[
		{
			"mesh":0,
			"name":"M_police_feet",
			"rotation":[
				0.7071069478988647,
				0,
				0,
				0.7071066498756409
			],
			"scale":[
				0.01899999938905239,
				0.018999997526407242,
				0.018999997526407242
			]
		},
		{
			"mesh":1,
			"name":"M_police_hat",
			"rotation":[
				-0.7071066498756409,
				0,
				0,
				0.7071069478988647
			],
			"scale":[
				-0.01899999938905239,
				-0.018999997526407242,
				-0.018999997526407242
			]
		},
		{
			"mesh":2,
			"name":"M_police_lower",
			"rotation":[
				0.7071069478988647,
				0,
				0,
				0.7071066498756409
			],
			"scale":[
				0.01899999938905239,
				0.018999997526407242,
				0.018999997526407242
			]
		},
		{
			"mesh":3,
			"name":"M_police_upper",
			"rotation":[
				0.7071069478988647,
				0,
				0,
				0.7071066498756409
			],
			"scale":[
				0.01899999938905239,
				0.018999997526407242,
				0.018999997526407242
			]
		}
	],
	"materials":[
		{
			"doubleSided":true,
			"emissiveFactor":[
				0.05000000074505806,
				0.05000000074505806,
				0.05000000074505806
			],
			"emissiveTexture":{
				"index":0
			},
			"name":"police_atlas",
			"pbrMetallicRoughness":{
				"baseColorTexture":{
					"index":1
				},
				"metallicFactor":0
			}
		},
		{
			"emissiveFactor":[
				0.020000000596046452,
				0.022000000208616255,
				0.02500000037252903
			],
			"name":"maniqui",
			"pbrMetallicRoughness":{
				"baseColorFactor":[
					0.4000000059604645,
					0.4399999976158142,
					0.5,
					1
				],
				"metallicFactor":0,
				"roughnessFactor":0.5
			}
		}
	],
	"meshes":[
		{
			"name":"Mesh.026",
			"primitives":[
				{
					"attributes":{
						"COLOR_0":0,
						"POSITION":1,
						"NORMAL":2,
						"TEXCOORD_0":3
					},
					"indices":4,
					"material":0
				}
			]
		},
		{
			"name":"Mesh.025",
			"primitives":[
				{
					"attributes":{
						"POSITION":5,
						"NORMAL":6,
						"TEXCOORD_0":7,
						"TEXCOORD_1":8
					},
					"indices":9,
					"material":0
				},
				{
					"attributes":{
						"POSITION":10,
						"NORMAL":11,
						"TEXCOORD_0":12,
						"TEXCOORD_1":13
					},
					"indices":14,
					"material":1
				}
			]
		},
		{
			"name":"Sphere.004",
			"primitives":[
				{
					"attributes":{
						"POSITION":15,
						"NORMAL":16,
						"TEXCOORD_0":17,
						"TEXCOORD_1":18
					},
					"indices":19,
					"material":0
				}
			]
		},
		{
			"name":"Mesh.029",
			"primitives":[
				{
					"attributes":{
						"POSITION":20,
						"NORMAL":21,
						"TEXCOORD_0":22,
						"TEXCOORD_1":23
					},
					"indices":24,
					"material":0
				},
				{
					"attributes":{
						"POSITION":25,
						"NORMAL":26,
						"TEXCOORD_0":27,
						"TEXCOORD_1":28
					},
					"indices":29,
					"material":1
				}
			]
		}
	],
	"textures":[
		{
			"sampler":0,
			"source":0
		},
		{
			"sampler":0,
			"source":0
		}
	],
	"images":[
		{
			"mimeType":"image/png",
			"name":"police_atlas",
			"uri":"textures/police_atlas.png"
		}
	],
	"accessors":[
		{
			"bufferView":0,
			"componentType":5123,
			"count":852,
			"normalized":true,
			"type":"VEC4"
		},
		{
			"bufferView":1,
			"componentType":5126,
			"count":852,
			"max":[
				39.26396179199219,
				23.16703224182129,
				1.6720796823501587
			],
			"min":[
				-18.078392028808594,
				-8.771220207214355,
				-18.685583114624023
			],
			"type":"VEC3"
		},
		{
			"bufferView":2,
			"componentType":5126,
			"count":852,
			"type":"VEC3"
		},
		{
			"bufferView":3,
			"componentType":5126,
			"count":852,
			"type":"VEC2"
		},
		{
			"bufferView":4,
			"componentType":5123,
			"count":2460,
			"type":"SCALAR"
		},
		{
			"bufferView":5,
			"componentType":5126,
			"count":770,
			"max":[
				19.063322067260742,
				22.414480209350586,
				-159.2455291748047
			],
			"min":[
				-15.920187950134277,
				-15.072534561157227,
				-191.26522827148438
			],
			"type":"VEC3"
		},
		{
			"bufferView":6,
			"componentType":5126,
			"count":770,
			"type":"VEC3"
		},
		{
			"bufferView":7,
			"componentType":5126,
			"count":770,
			"type":"VEC2"
		},
		{
			"bufferView":8,
			"componentType":5126,
			"count":770,
			"type":"VEC2"
		},
		{
			"bufferView":9,
			"componentType":5123,
			"count":2358,
			"type":"SCALAR"
		},
		{
			"bufferView":10,
			"componentType":5126,
			"count":349,
			"max":[
				17.09214973449707,
				18.743284225463867,
				-145.5790557861328
			],
			"min":[
				-10.752564430236816,
				-10.664329528808594,
				-190.1585693359375
			],
			"type":"VEC3"
		},
		{
			"bufferView":11,
			"componentType":5126,
			"count":349,
			"type":"VEC3"
		},
		{
			"bufferView":12,
			"componentType":5126,
			"count":349,
			"type":"VEC2"
		},
		{
			"bufferView":13,
			"componentType":5126,
			"count":349,
			"type":"VEC2"
		},
		{
			"bufferView":14,
			"componentType":5123,
			"count":1680,
			"type":"SCALAR"
		},
		{
			"bufferView":15,
			"componentType":5126,
			"count":1427,
			"max":[
				28.854799270629883,
				18.413299560546875,
				-10.43783950805664
			],
			"min":[
				-24.18978500366211,
				-19.10169219970703,
				-99.03250122070312
			],
			"type":"VEC3"
		},
		{
			"bufferView":16,
			"componentType":5126,
			"count":1427,
			"type":"VEC3"
		},
		{
			"bufferView":17,
			"componentType":5126,
			"count":1427,
			"type":"VEC2"
		},
		{
			"bufferView":18,
			"componentType":5126,
			"count":1427,
			"type":"VEC2"
		},
		{
			"bufferView":19,
			"componentType":5123,
			"count":3870,
			"type":"SCALAR"
		},
		{
			"bufferView":20,
			"componentType":5126,
			"count":1121,
			"max":[
				35.51979064941406,
				19.35535430908203,
				-96.3610610961914
			],
			"min":[
				-45.01165771484375,
				-17.54745101928711,
				-158.44998168945312
			],
			"type":"VEC3"
		},
		{
			"bufferView":21,
			"componentType":5126,
			"count":1121,
			"type":"VEC3"
		},
		{
			"bufferView":22,
			"componentType":5126,
			"count":1121,
			"type":"VEC2"
		},
		{
			"bufferView":23,
			"componentType":5126,
			"count":1121,
			"type":"VEC2"
		},
		{
			"bufferView":24,
			"componentType":5123,
			"count":3570,
			"type":"SCALAR"
		},
		{
			"bufferView":25,
			"componentType":5126,
			"count":462,
			"max":[
				26.877553939819336,
				13.685066223144531,
				-92.5540771484375
			],
			"min":[
				-31.1101016998291,
				-3.644547462463379,
				-117.81204223632812
			],
			"type":"VEC3"
		},
		{
			"bufferView":26,
			"componentType":5126,
			"count":462,
			"type":"VEC3"
		},
		{
			"bufferView":27,
			"componentType":5126,
			"count":462,
			"type":"VEC2"
		},
		{
			"bufferView":28,
			"componentType":5126,
			"count":462,
			"type":"VEC2"
		},
		{
			"bufferView":29,
			"componentType":5123,
			"count":1668,
			"type":"SCALAR"
		}
	],
	"bufferViews":[
		{
			"buffer":0,
			"byteLength":6816,
			"byteOffset":0,
			"target":34962
		},
		{
			"buffer":0,
			"byteLength":10224,
			"byteOffset":6816,
			"target":34962
		},
		{
			"buffer":0,
			"byteLength":10224,
			"byteOffset":17040,
			"target":34962
		},
		{
			"buffer":0,
			"byteLength":6816,
			"byteOffset":27264,
			"target":34962
		},
		{
			"buffer":0,
			"byteLength":4920,
			"byteOffset":34080,
			"target":34963
		},
		{
			"buffer":0,
			"byteLength":9240,
			"byteOffset":39000,
			"target":34962
		},
		{
			"buffer":0,
			"byteLength":9240,
			"byteOffset":48240,
			"target":34962
		},
		{
			"buffer":0,
			"byteLength":6160,
			"byteOffset":57480,
			"target":34962
		},
		{
			"buffer":0,
			"byteLength":6160,
			"byteOffset":63640,
			"target":34962
		},
		{
			"buffer":0,
			"byteLength":4716,
			"byteOffset":69800,
			"target":34963
		},
		{
			"buffer":0,
			"byteLength":4188,
			"byteOffset":74516,
			"target":34962
		},
		{
			"buffer":0,
			"byteLength":4188,
			"byteOffset":78704,
			"target":34962
		},
		{
			"buffer":0,
			"byteLength":2792,
			"byteOffset":82892,
			"target":34962
		},
		{
			"buffer":0,
			"byteLength":2792,
			"byteOffset":85684,
			"target":34962
		},
		{
			"buffer":0,
			"byteLength":3360,
			"byteOffset":88476,
			"target":34963
		},
		{
			"buffer":0,
			"byteLength":17124,
			"byteOffset":91836,
			"target":34962
		},
		{
			"buffer":0,
			"byteLength":17124,
			"byteOffset":108960,
			"target":34962
		},
		{
			"buffer":0,
			"byteLength":11416,
			"byteOffset":126084,
			"target":34962
		},
		{
			"buffer":0,
			"byteLength":11416,
			"byteOffset":137500,
			"target":34962
		},
		{
			"buffer":0,
			"byteLength":7740,
			"byteOffset":148916,
			"target":34963
		},
		{
			"buffer":0,
			"byteLength":13452,
			"byteOffset":156656,
			"target":34962
		},
		{
			"buffer":0,
			"byteLength":13452,
			"byteOffset":170108,
			"target":34962
		},
		{
			"buffer":0,
			"byteLength":8968,
			"byteOffset":183560,
			"target":34962
		},
		{
			"buffer":0,
			"byteLength":8968,
			"byteOffset":192528,
			"target":34962
		},
		{
			"buffer":0,
			"byteLength":7140,
			"byteOffset":201496,
			"target":34963
		},
		{
			"buffer":0,
			"byteLength":5544,
			"byteOffset":208636,
			"target":34962
		},
		{
			"buffer":0,
			"byteLength":5544,
			"byteOffset":214180,
			"target":34962
		},
		{
			"buffer":0,
			"byteLength":3696,
			"byteOffset":219724,
			"target":34962
		},
		{
			"buffer":0,
			"byteLength":3696,
			"byteOffset":223420,
			"target":34962
		},
		{
			"buffer":0,
			"byteLength":3336,
			"byteOffset":227116,
			"target":34963
		}
	],
	"samplers":[
		{
			"magFilter":9729,
			"minFilter":9987
		}
	],
	"buffers":[
		{
			"byteLength":230452,
			"uri":"M_police_pose.bin"
		}
	]
}
